<svg xmlns="http://www.w3.org/2000/svg" width="36" height="36" viewBox="0 0 36 36">
    <defs>
        <linearGradient id="linear-gradient" x1=".655" y1=".038" x2=".464" y2=".63" gradientUnits="objectBoundingBox">
            <stop offset="0" stop-color="#5a78ba"/>
            <stop offset=".059" stop-color="#5173b6"/>
            <stop offset=".27" stop-color="#3664ad"/>
            <stop offset=".457" stop-color="#255ba7"/>
            <stop offset=".6" stop-color="#2058a5"/>
        </linearGradient>
        <linearGradient id="linear-gradient-2" x1=".138" y1=".132" x2=".748" y2=".904" gradientUnits="objectBoundingBox">
            <stop offset="0" stop-color="#ea7db0"/>
            <stop offset=".008" stop-color="#e97aae"/>
            <stop offset=".154" stop-color="#e6559c"/>
            <stop offset=".289" stop-color="#e33a8f"/>
            <stop offset=".409" stop-color="#e22987"/>
            <stop offset=".5" stop-color="#e22485"/>
        </linearGradient>
        <linearGradient id="linear-gradient-3" x1=".926" y1=".241" x2=".193" y2=".608" gradientUnits="objectBoundingBox">
            <stop offset="0" stop-color="#5a78ba"/>
            <stop offset=".034" stop-color="#5173b6"/>
            <stop offset=".157" stop-color="#3664ad"/>
            <stop offset=".267" stop-color="#255ba7"/>
            <stop offset=".35" stop-color="#2058a5"/>
        </linearGradient>
        <linearGradient id="linear-gradient-4" x1=".136" y1="-.264" x2=".697" y2=".686" gradientUnits="objectBoundingBox">
            <stop offset="0" stop-color="#ffc979"/>
            <stop offset=".094" stop-color="#ffbc56"/>
            <stop offset=".214" stop-color="#ffae31"/>
            <stop offset=".326" stop-color="#ffa516"/>
            <stop offset=".425" stop-color="#ff9f05"/>
            <stop offset=".5" stop-color="#ff9d00"/>
        </linearGradient>
        <style>
            .cls-2{fill:#ff9d00}.cls-3{fill:#2058a5}.cls-4{fill:#e22485}
        </style>
    </defs>
    <g id="logo_aladin" transform="translate(-24 -983)">
        <rect id="사각형_14397" data-name="사각형 14397" width="36" height="36" rx="12" transform="translate(24 983)" style="fill:#f5f5f5"/>
        <g id="그룹_12176" data-name="그룹 12176" transform="translate(-382.772 550.861)">
            <path id="패스_12131" data-name="패스 12131" class="cls-2" d="M409.192 456.854a17.035 17.035 0 0 1 9.945 1.963 21.631 21.631 0 0 0-1.722-2.866c-2.158-.341-6.978-1.262-8.223.903z" transform="translate(0 -7.818)"/>
            <path id="패스_12132" data-name="패스 12132" class="cls-3" d="m443.748 468.989-.125-.391c-.034-.1-.068-.2-.1-.3-.041-.117-.079-.235-.122-.353-.034-.1-.069-.19-.1-.287a17.78 17.78 0 0 0-.164-.444l-.056-.137a4.526 4.526 0 0 1-1-.179 10.513 10.513 0 0 1-2.493-1.281l-.515-.32a36.935 36.935 0 0 0-2.928-1.654 16.16 16.16 0 0 0-.352-.168c.075.14.151.282.222.426 1.183.588 2.172 1.191 2.907 1.641a19.061 19.061 0 0 0 2.539 1.438 7.7 7.7 0 0 0-1.524 1.881.271.271 0 0 0-.056.151c0 .488 1.8.9 3.509.9.212 0 .426-.006.638-.019q-.092-.325-.192-.65c-.036-.082-.06-.168-.088-.254z" transform="translate(-16.873 -12.902)"/>
            <path id="패스_12133" data-name="패스 12133" class="cls-3" d="m436.62 456.76.251-.053-.024.006c.048-.009.1-.022.157-.035-.073-.081-.14-.167-.214-.246l-.227.046a9.548 9.548 0 0 1-3.991.194 7.127 7.127 0 0 1-.886-.106c.076.106.147.216.221.325a5.822 5.822 0 0 0 .636.069 9.9 9.9 0 0 0 4.077-.2z" transform="translate(-14.27 -8.433)"/>
            <path id="패스_12134" data-name="패스 12134" class="cls-4" d="M459.156 468.484a6.09 6.09 0 0 1-3.306 1.187c-.041 0-.082-.005-.122-.007.016.046.034.091.053.137s.042.1.061.156c.037.1.07.193.1.288s.071.191.1.287c.043.118.081.236.122.353.034.1.069.2.1.3a58.97 58.97 0 0 1 .208.65q.1.325.192.65c1.494-.086 2.87-.458 2.87-.885a.264.264 0 0 0-.055-.151 7.673 7.673 0 0 0-1.6-1.946 14.662 14.662 0 0 0 1.414-.774c.231-.137.982-.54 1.812-.967l-.221-.208a55.1 55.1 0 0 0-1.728.93z" transform="translate(-29.523 -15.489)"/>
            <path id="패스_12135" data-name="패스 12135" class="cls-4" d="m448.45 454.412.213-.076c-.1-.064-.2-.132-.309-.194a26.343 26.343 0 0 1-2.707.838c.073.079.141.165.214.246.539-.126 1.403-.398 2.589-.814z" transform="translate(-23.128 -6.98)"/>
            <path id="패스_12136" data-name="패스 12136" class="cls-3" d="M479.857 443.631a3.247 3.247 0 0 0-4.068.483 2.541 2.541 0 0 0-.314 3.054 2.359 2.359 0 0 0 2.713 1 1.493 1.493 0 0 0 .882-2.276 1.158 1.158 0 0 0-1.511-.294.559.559 0 0 0-.22.7.449.449 0 0 0 .4.245.658.658 0 0 0 .236-.063c.408-.145.592.483.254.67a.8.8 0 0 1-.215.09 1.549 1.549 0 0 1-1.744-.614 1.618 1.618 0 0 1 .23-1.856 2.228 2.228 0 0 1 2.764-.215 2.3 2.3 0 0 1 .872 3.058c-.51 1.184-2.028 1.527-3.524 1.528a7.013 7.013 0 0 1-.779-.045c.164.106.326.216.488.325.1.005.2.009.291.009 2-.005 3.31-.593 3.789-1.7a2.574 2.574 0 0 0-.987-3.418 2.5 2.5 0 0 0-3.129.271 1.9 1.9 0 0 0-.258 2.2 1.846 1.846 0 0 0 2.061.736 1.12 1.12 0 0 0 .284-.119.631.631 0 0 0 .319-.563.744.744 0 0 0-.064-.3.584.584 0 0 0-.751-.324l-.056.02a.325.325 0 0 1-.083.026.16.16 0 0 1-.144-.091c-.072-.137.055-.279.133-.336a.878.878 0 0 1 1.115.237 1.034 1.034 0 0 1 .148.983 1.3 1.3 0 0 1-.877.84 2.078 2.078 0 0 1-2.4-.878A2.269 2.269 0 0 1 476 444.3a2.983 2.983 0 0 1 3.717-.42 3.2 3.2 0 0 1 1.285 4.126 3.4 3.4 0 0 1-1.781 1.716 11.5 11.5 0 0 1-1.473.463l-.2.051-.038.01c.1.073.2.143.306.217a11.66 11.66 0 0 0 1.511-.475 3.693 3.693 0 0 0 1.936-1.87 3.505 3.505 0 0 0-1.406-4.487z" transform="translate(-41.816)"/>
            <path id="패스_12137" data-name="패스 12137" class="cls-2" d="M473.9 462.671a10.906 10.906 0 0 0-1.449.469c-.629.264-1.95.941-2.49 1.22l-.088.046c.072.07.148.139.221.208.933-.481 1.965-1 2.468-1.21a14.054 14.054 0 0 1 1.943-.595c-.1-.074-.206-.144-.306-.217-.099.025-.199.052-.299.079z" transform="translate(-38.496 -12.342)"/>
            <path id="패스_12138" data-name="패스 12138" class="cls-2" d="M454.258 453.254a33.131 33.131 0 0 0 7.555 2.35c.12.014.237.023.351.032l.168.008c-.162-.109-.324-.219-.488-.325a32.891 32.891 0 0 1-7.578-2.374c-.311.115-.743.271-1.214.437.106.062.205.13.309.194z" transform="translate(-27.825 -6.221)"/>
            <path id="패스_12139" data-name="패스 12139" d="m436.848 461.256.515.32a10.514 10.514 0 0 0 2.493 1.281 4.528 4.528 0 0 0 1 .179l-.124-.309a16.52 16.52 0 0 0-.357-.838 17.507 17.507 0 0 0-.262-.572c-.043-.091-.088-.178-.132-.268a22.12 22.12 0 0 0-.27-.532c-.052-.1-.109-.2-.162-.3a18.84 18.84 0 0 0-.271-.484c-.066-.113-.136-.223-.2-.334-.087-.143-.174-.286-.265-.427s-.17-.252-.256-.376-.164-.243-.25-.36c-.109-.15-.224-.294-.339-.441-.068-.088-.135-.178-.206-.265-.12-.147-.247-.288-.371-.429-.055.013-.109.026-.157.035l.024-.006-.251.053a9.9 9.9 0 0 1-4.077.2 5.814 5.814 0 0 1-.636-.069 21.54 21.54 0 0 1 1.279 2.116c.117.056.235.11.352.168a38.29 38.29 0 0 1 2.923 1.658z" transform="translate(-14.654 -8.86)" style="fill:url(#linear-gradient)"/>
            <path id="패스_12140" data-name="패스 12140" d="M448.821 454.748c-1.186.416-2.053.689-2.589.813.125.141.252.282.371.429.071.087.137.177.206.265.114.147.23.291.339.441.086.118.166.241.25.36s.173.249.256.376.178.284.265.427c.068.111.138.221.2.334.093.159.182.321.271.484.053.1.11.2.162.3.093.176.181.354.27.532.044.09.089.177.132.268.09.188.177.379.262.572.036.08.074.161.109.243.087.2.168.4.248.595.021.053.044.1.065.156.02.05.04.1.059.153.041 0 .082.007.122.007a6.091 6.091 0 0 0 3.306-1.187 48.17 48.17 0 0 1 1.742-.931 36.679 36.679 0 0 0-5.84-4.709z" transform="translate(-23.499 -7.317)" style="fill:url(#linear-gradient-2)"/>
            <path id="패스_12141" data-name="패스 12141" d="m478.058 450.745.2-.051a11.513 11.513 0 0 0 1.473-.463 3.4 3.4 0 0 0 1.781-1.716 3.2 3.2 0 0 0-1.285-4.126 2.983 2.983 0 0 0-3.717.42 2.269 2.269 0 0 0-.286 2.709 2.078 2.078 0 0 0 2.4.878 1.3 1.3 0 0 0 .877-.84 1.034 1.034 0 0 0-.148-.983.878.878 0 0 0-1.115-.237c-.078.057-.205.2-.133.336a.16.16 0 0 0 .144.091.327.327 0 0 0 .083-.026l.056-.02a.584.584 0 0 1 .751.324.744.744 0 0 1 .064.3.631.631 0 0 1-.319.563 1.119 1.119 0 0 1-.284.119 1.846 1.846 0 0 1-2.061-.736 1.9 1.9 0 0 1 .258-2.2 2.5 2.5 0 0 1 3.129-.271 2.574 2.574 0 0 1 .987 3.418c-.479 1.109-1.789 1.7-3.789 1.7-.093 0-.19 0-.291-.009q.6.4 1.195.828z" transform="translate(-42.319 -.505)" style="fill:url(#linear-gradient-3)"/>
            <path id="패스_12142" data-name="패스 12142" class="cls-2" d="M479.041 461.22c.1-.027.2-.054.3-.079q-.592-.426-1.195-.828l-.168-.008c.351.307.704.614 1.063.915z" transform="translate(-43.64 -10.891)"/>
            <path id="패스_12143" data-name="패스 12143" d="m462.868 456.179-.168-.008c-.114-.01-.23-.018-.351-.032a33.131 33.131 0 0 1-7.555-2.35l-.9.323a36.682 36.682 0 0 1 5.84 4.709l.088-.046c.54-.279 1.861-.956 2.49-1.22a10.906 10.906 0 0 1 1.449-.469c.1-.027.2-.054.3-.079q-.59-.425-1.193-.828z" transform="translate(-28.361 -6.757)" style="fill:url(#linear-gradient-4)"/>
            <path id="패스_12144" data-name="패스 12144" class="cls-2" d="M455.1 446.574a.732.732 0 0 0-.732.732.966.966 0 1 0 1.464 0 .732.732 0 0 0-.732-.732z" transform="translate(-28.663 -2.179)"/>
        </g>
    </g>
</svg>
