<svg xmlns="http://www.w3.org/2000/svg" width="36" height="36" viewBox="0 0 36 36">
    <defs>
        <style>
            .cls-3{fill:#fff}
        </style>
    </defs>
    <g id="logo_coway" transform="translate(-24 -4882)">
        <rect id="사각형_14393" data-name="사각형 14393" width="36" height="36" rx="12" transform="translate(24 4882)" style="fill:#00a7e1"/>
        <path id="사각형_14233" data-name="사각형 14233" transform="translate(27 4886)" style="fill:none" d="M0 0h30v30H0z"/>
        <g id="그룹_12244" data-name="그룹 12244">
            <path id="패스_12087" data-name="패스 12087" class="cls-3" d="M1200.953 339.445h-.839a7.54 7.54 0 0 1 .05 1.617 2.631 2.631 0 0 1-1.875.6c-.651-.022-1.121-.173-1.338-.649a3.539 3.539 0 0 1-.088-1.566h-.845a4.1 4.1 0 0 0 .026 1.568s.172 1.472 2.229 1.472a3.688 3.688 0 0 0 1.769-.382 8.461 8.461 0 0 1-.634 2.133h.9a10.268 10.268 0 0 0 .644-4.792" transform="translate(-1143.106 4558.713)"/>
            <path id="패스_12088" data-name="패스 12088" class="cls-3" d="M1042.548 331.083a3.32 3.32 0 0 0-2.488-.946 3.177 3.177 0 0 0-1.68.475 1.7 1.7 0 0 0-.839 1.5c.143 1.75 2.443 1.653 2.443 1.653a3.441 3.441 0 0 0 2.606-1.134 7.094 7.094 0 0 1 .368.915h.857a5.923 5.923 0 0 0-1.267-2.465m-2.554 1.858c-.633.006-1.481-.194-1.541-.875-.045-.5.5-1.118 1.681-1.119a2.426 2.426 0 0 1 1.987.955 2.67 2.67 0 0 1-2.126 1.039" transform="translate(-991.044 4567.648)"/>
            <path id="패스_12089" data-name="패스 12089" class="cls-3" d="M526.4 330.858c0 1.229 1.266 1.861 2.9 1.861a6.191 6.191 0 0 0 2.354-.449l-.275-.748a6.022 6.022 0 0 1-2.078.353c-1.127 0-1.992-.352-1.992-1.018 0-.665.865-1.017 1.992-1.017a5.9 5.9 0 0 1 2.067.353l.275-.748A6.094 6.094 0 0 0 529.3 329c-1.638 0-2.9.632-2.9 1.861z" transform="translate(-500.397 4568.739)"/>
            <path id="패스_12090" data-name="패스 12090" class="cls-3" d="M668.04 333.33c-1.594 0-2.826-.617-2.826-1.834 0-1.216 1.232-1.834 2.826-1.834 1.532 0 2.826.618 2.826 1.834 0 1.217-1.232 1.834-2.826 1.834zm0-.822c1.074 0 1.9-.354 1.9-1.013 0-.659-.872-1.012-1.9-1.012-1.075 0-1.9.354-1.9 1.012 0 .659.824 1.013 1.9 1.013z" transform="translate(-633.648 4568.102)"/>
            <path id="패스_12091" data-name="패스 12091" class="cls-3" d="M817.219 341.012c.63 0 1.076 1.527 2.2 1.527.667 0 1.5-.559 2.2-3.075h-.957c-.092.493-.645 2.119-1.216 2.119-.793 0-1.1-1.556-2.221-1.557-1.122 0-1.428 1.557-2.221 1.557-.571 0-1.124-1.626-1.216-2.119h-.957c.695 2.515 1.53 3.075 2.2 3.075 1.121 0 1.567-1.527 2.2-1.527" transform="translate(-775.34 4558.695)"/>
        </g>
    </g>
</svg>
