<svg xmlns="http://www.w3.org/2000/svg" width="36" height="36" viewBox="0 0 36 36">
    <defs>
        <style>
            .cls-2{fill:#fff}
        </style>
    </defs>
    <g id="logo_interpark" transform="translate(-24 -915)">
        <rect id="사각형_14396" data-name="사각형 14396" width="36" height="36" rx="12" transform="translate(24 915)" style="fill:#e72431"/>
        <g id="그룹_12173" data-name="그룹 12173" transform="translate(31.74 921.624)">
            <path id="패스_12113" data-name="패스 12113" class="cls-2" d="M305.218 578.041a4.625 4.625 0 0 1-1.885-1.64 1.646 1.646 0 0 1-.285-1.02.654.654 0 0 1 .925-.426 2.039 2.039 0 0 1 .8 1.048c.3-2.092 2.714-2.132 2-.2-.396 1.06-1.258 1.171-1.555 2.238z" transform="translate(-296.125 -574.392)"/>
            <path id="패스_12114" data-name="패스 12114" class="cls-2" d="M283.329 603.01c-1.007-.747-2.253-1.815-1.849-2.958a.541.541 0 0 1 .782-.319 1.321 1.321 0 0 1 .569.637 5 5 0 0 1 .245.583 1.811 1.811 0 0 1 .192-.61c.2-.4.748-1.377 1.714-1.077.255.079 1.192.827-.118 2.139-.396.395-1.364.859-1.535 1.605z" transform="translate(-281.401 -591.285)"/>
            <path id="패스_12115" data-name="패스 12115" class="cls-2" d="M297.287 610.433c1.6-.85 1.9-3.773 1.318-4.542-.671-.93-1.632.023-1.451 1.686-1.527-2.672-5.434-1.471-2.9.728.934.81 2.595.911 3.033 2.128z" transform="translate(-289.583 -595.585)"/>
            <path id="패스_12116" data-name="패스 12116" class="cls-2" d="M316.572 584.547a3.011 3.011 0 0 1-.1-3.612c.675-.557 1.2.333.746 1.526 1.644-1.678 4.3-.035 2 1.1-.839.417-2.086.171-2.646.986z" transform="translate(-304.898 -578.73)"/>
            <path id="패스_12117" data-name="패스 12117" class="cls-2" d="M311.289 598.8c-1.428-.716-2.034-2.577-1.7-3.235.377-.79 1.317-.205 1.409 1.068.578-2.419 3.883-1.68 2.279.318-.591.736-1.665 1.031-1.988 1.849z" transform="translate(-300.528 -588.495)"/>
            <path id="패스_12118" data-name="패스 12118" class="cls-2" d="M329.526 596.481c-1.172-1.393-2.531-3.543-1.794-4.858.641-1.068 1.993-.167 1.714 1.725 1.456-3.033 5.5-1.763 3.2.844-1.212 1.387-2.773 1.308-3.12 2.289z" transform="translate(-312.797 -585.811)"/>
            <path id="패스_12119" data-name="패스 12119" class="cls-2" d="M294.508 590.508c1.3-1.166.893-3.953.174-4.535-.841-.709-1.514.4-.96 1.9-2.037-2.132-5.4-.11-2.531 1.348 1.058.543 2.625.253 3.317 1.287z" transform="translate(-287.31 -582.126)"/>
            <path id="패스_12120" data-name="패스 12120" class="cls-2" d="M321.354 608.79c-.687-1.682-.811-4.039.523-4.1.59 0 1.5.718.793 2.442.888-.888 2.332-.776 2.37.232 0 1-1.165 1.472-2.025 1.4-1.015-.082-1.169-.287-1.661.026z" transform="translate(-308.254 -595.013)"/>
            <path id="패스_12121" data-name="패스 12121" class="cls-2" d="M309.776 612.978c-1.92 3.078-2.431 7.051-2.481 10.967a6.212 6.212 0 0 0 1.82 0 30.422 30.422 0 0 1-.207-3.848c0-.376.032-.781.052-1.156a13.4 13.4 0 0 1 .65-3.363c.153-.461.262-.742.353-.983a10.05 10.05 0 0 1 .884-1.754c-.385-.091-.837-.231-1.052.106z" transform="translate(-299.027 -600.291)"/>
        </g>
    </g>
</svg>
