<svg xmlns="http://www.w3.org/2000/svg" width="40" height="40" viewBox="0 0 40 40">
  <g id="ic-cardbenefit-default" transform="translate(-830 -898)">
    <rect id="사각형_17867" data-name="사각형 17867" width="40" height="40" transform="translate(830 898)" fill="#e3e3e3" opacity="0"/>
    <rect id="사각형_17868" data-name="사각형 17868" width="32" height="32" transform="translate(834 902)" fill="#e3e3e3" opacity="0"/>
    <g id="사각형_17869" data-name="사각형 17869" transform="translate(835.5 914.62)" fill="#fff" stroke="#2d3239" stroke-width="1.5">
      <path d="M0,0H23a0,0,0,0,1,0,0V10a5,5,0,0,1-5,5H5a5,5,0,0,1-5-5V0A0,0,0,0,1,0,0Z" stroke="none"/>
      <path d="M.75.75h21.5a0,0,0,0,1,0,0V10A4.25,4.25,0,0,1,18,14.25H5A4.25,4.25,0,0,1,.75,10V.75A0,0,0,0,1,.75.75Z" fill="none"/>
    </g>
    <g id="사각형_17870" data-name="사각형 17870" transform="translate(834 909.598)" fill="#fff" stroke="#2d3239" stroke-width="1.5">
      <rect width="26" height="7" rx="2" stroke="none"/>
      <rect x="0.75" y="0.75" width="24.5" height="5.5" rx="1.25" fill="none"/>
    </g>
    <line id="선_952" data-name="선 952" y2="19" transform="translate(847 909.662)" fill="none" stroke="#2d3239" stroke-width="1.5"/>
    <g id="패스_13838" data-name="패스 13838" transform="translate(850.787 901.964) rotate(45)" fill="#fff">
      <path d="M 3.486207008361816 8.100569725036621 C 2.272186279296875 6.813426494598389 0.7500007748603821 4.832865238189697 0.7500007748603821 3.72299337387085 C 0.7500007748603821 2.083683490753174 2.083680868148804 0.7500033974647522 3.722990751266479 0.7500033974647522 C 5.362300872802734 0.7500033974647522 6.695980548858643 2.083683490753174 6.695980548858643 3.72299337387085 C 6.695980548858643 4.772607326507568 4.960526466369629 6.761640071868896 3.486207008361816 8.100569725036621 Z" stroke="none"/>
      <path d="M 3.527983427047729 7.023013591766357 C 3.781628608703613 6.775221824645996 4.060330390930176 6.49143648147583 4.338770866394043 6.186493396759033 C 5.610070705413818 4.794173240661621 5.945980548858643 3.966253519058228 5.945980548858643 3.72299337387085 C 5.945980548858643 2.497233390808105 4.948750972747803 1.500003457069397 3.722990751266479 1.500003457069397 C 2.497230768203735 1.500003457069397 1.500000715255737 2.497233390808105 1.500000715255737 3.72299337387085 C 1.500000715255737 3.800663471221924 1.538800716400146 4.531283378601074 2.882890701293945 6.245643615722656 C 3.10217809677124 6.525341987609863 3.323059320449829 6.788514137268066 3.527983427047729 7.023013591766357 M 3.446960687637329 9.130743026733398 C 3.446960687637329 9.130743026733398 7.512664979003603e-07 5.779143333435059 7.512664979003603e-07 3.72299337387085 C 7.512664979003603e-07 1.666843414306641 1.666840791702271 3.420715302127064e-06 3.722990751266479 3.420715302127064e-06 C 5.779140949249268 3.420715302127064e-06 7.445980548858643 1.666843414306641 7.445980548858643 3.72299337387085 C 7.445980548858643 5.779143333435059 3.446960687637329 9.130743026733398 3.446960687637329 9.130743026733398 Z" stroke="none" fill="#2d3239"/>
    </g>
    <g id="패스_13839" data-name="패스 13839" transform="translate(849.67 908.421) rotate(135)" fill="#fff">
      <path d="M 3.723038196563721 8.38078784942627 L 3.723018169403076 8.38078784942627 C 2.083698272705078 8.38078784942627 0.7500081658363342 7.047098159790039 0.749998152256012 5.407768249511719 C 0.749998152256012 4.295489311218262 2.271784067153931 2.316026926040649 3.485697031021118 1.030166983604431 C 4.960043907165527 2.370251655578613 6.696009159088135 4.360270023345947 6.696018218994141 5.407788276672363 C 6.696018218994141 7.047108173370361 5.362348079681396 8.38078784942627 3.723038196563721 8.38078784942627 Z" stroke="none"/>
      <path d="M 3.527618646621704 2.107764720916748 C 3.32939338684082 2.334741592407227 3.115777969360352 2.589145660400391 2.902198314666748 2.860517978668213 C 1.539348125457764 4.592148303985596 1.499998092651367 5.329408168792725 1.499998092651367 5.407758235931396 C 1.500008106231689 6.633538246154785 2.497258186340332 7.630788326263428 3.723038196563721 7.630788326263428 C 4.948798179626465 7.630788326263428 5.946018218994141 6.63355827331543 5.946018218994141 5.407798290252686 C 5.946018218994141 5.166647911071777 5.614357948303223 4.34609842300415 4.359148025512695 2.966618061065674 C 4.074906349182129 2.654232025146484 3.788286924362183 2.362292289733887 3.527618646621704 2.107764720916748 M 3.446958065032959 -1.9073486328125e-06 C 3.446958065032959 -1.9073486328125e-06 7.446008205413818 3.351628303527832 7.446018218994141 5.407788276672363 C 7.446018218994141 7.463822841644287 5.77902364730835 9.13078784942627 3.723036766052246 9.13078784942627 C 3.72291111946106 9.13078784942627 3.723143577575684 9.13078784942627 3.723018169403076 9.13078784942627 C 1.666858196258545 9.13078784942627 8.106231689453125e-06 7.46392822265625 -1.9073486328125e-06 5.407768249511719 C -1.9073486328125e-06 3.351608276367188 3.446958065032959 -1.9073486328125e-06 3.446958065032959 -1.9073486328125e-06 Z" stroke="none" fill="#2d3239"/>
    </g>
    <g id="그룹_14337" data-name="그룹 14337" transform="translate(491.309 -1845.536)">
      <path id="다각형_128" data-name="다각형 128" d="M6.832.947a.5.5,0,0,1,.9,0L9.35,4.337a.5.5,0,0,0,.39.281l3.758.466a.5.5,0,0,1,.278.863L11.023,8.492a.5.5,0,0,0-.151.462l.711,3.661a.5.5,0,0,1-.729.535L7.522,11.343a.5.5,0,0,0-.477,0L3.713,13.151a.5.5,0,0,1-.729-.535l.711-3.661a.5.5,0,0,0-.151-.462L.791,5.947a.5.5,0,0,1,.278-.863l3.758-.466a.5.5,0,0,0,.39-.281Z" transform="translate(359.25 2764.344)" fill="#fff"/>
      <path id="다각형_129" data-name="다각형 129" d="M6.515.947a.5.5,0,0,1,.9,0L8.939,4.138a.5.5,0,0,0,.39.281l3.536.438a.5.5,0,0,1,.278.863l-2.59,2.394a.5.5,0,0,0-.151.462l.669,3.445a.5.5,0,0,1-.729.535l-3.136-1.7a.5.5,0,0,0-.477,0l-3.136,1.7a.5.5,0,0,1-.729-.535l.669-3.445a.5.5,0,0,0-.151-.462L.791,5.72a.5.5,0,0,1,.278-.863L4.6,4.419a.5.5,0,0,0,.39-.281Z" transform="translate(361.199 2765.11)" fill="#7dedf3"/>
      <path id="다각형_127" data-name="다각형 127" d="M6.832.947a.5.5,0,0,1,.9,0L9.35,4.337a.5.5,0,0,0,.39.281l3.758.466a.5.5,0,0,1,.278.863L11.023,8.492a.5.5,0,0,0-.151.462l.711,3.661a.5.5,0,0,1-.729.535L7.522,11.343a.5.5,0,0,0-.477,0L3.713,13.151a.5.5,0,0,1-.729-.535l.711-3.661a.5.5,0,0,0-.151-.462L.791,5.947a.5.5,0,0,1,.278-.863l3.758-.466a.5.5,0,0,0,.39-.281Z" transform="translate(359.25 2764.344)" fill="none" stroke="#2d3239" stroke-width="1.5"/>
    </g>
  </g>
</svg>
