<svg xmlns="http://www.w3.org/2000/svg" width="16" height="16" viewBox="0 0 45 45.6">
  <g id="ic-benefit-default" transform="translate(-966 -318.4)">
    <rect id="사각형_17513" data-name="사각형 17513" width="45" height="45" transform="translate(966 319)" fill="rgba(149,149,149,0.45)" opacity="0"/>
    <g id="사각형_17849" data-name="사각형 17849" transform="translate(968 329)" fill="none" stroke="#111" stroke-width="3">
      <rect width="41" height="13" rx="4" stroke="none"/>
      <rect x="1.5" y="1.5" width="38" height="10" rx="2.5" fill="none"/>
    </g>
    <g id="사각형_17850" data-name="사각형 17850" transform="translate(970 339)" fill="none" stroke="#111" stroke-width="3">
      <path d="M0,0H37a0,0,0,0,1,0,0V16a6,6,0,0,1-6,6H6a6,6,0,0,1-6-6V0A0,0,0,0,1,0,0Z" stroke="none"/>
      <path d="M1.5,1.5h34a0,0,0,0,1,0,0V16A4.5,4.5,0,0,1,31,20.5H6A4.5,4.5,0,0,1,1.5,16V1.5A0,0,0,0,1,1.5,1.5Z" fill="none"/>
    </g>
    <g id="패스_13834" data-name="패스 13834" transform="translate(994.167 318.4) rotate(45)" fill="none">
      <path d="M5.146,13.632s5.971-5,5.971-8.074A5.558,5.558,0,1,0,0,5.558C0,8.628,5.146,13.632,5.146,13.632Z" stroke="none"/>
      <path d="M 5.311812400817871 9.363739967346191 C 5.460214614868164 9.211129188537598 5.611136436462402 9.052715301513672 5.762860298156738 8.889412879943848 C 7.824822902679443 6.670115947723389 8.090518951416016 5.648757934570312 8.116354942321777 5.524389743804932 C 8.107761383056641 4.85368824005127 7.84254789352417 4.224400997161865 7.367340564727783 3.74919319152832 C 6.884180545806885 3.266033172607422 6.241770267486572 2.999953269958496 5.558440685272217 2.999963283538818 C 4.149356365203857 2.999993085861206 3.002663135528564 4.145140171051025 2.999975442886353 5.553623676300049 C 3.003437042236328 5.597845554351807 3.102293491363525 6.572434902191162 4.944080352783203 8.908263206481934 C 5.066952228546143 9.064095497131348 5.189997673034668 9.21623420715332 5.311812400817871 9.363739967346191 M 5.146000385284424 13.63188362121582 C 5.146000385284424 13.63188362121582 -9.954559209290892e-05 8.628143310546875 -2.954559386125766e-05 5.558382987976074 C 3.045440644200426e-05 2.488613128662109 2.488620519638062 2.317321741429623e-05 5.558380603790283 -3.682678288896568e-05 C 8.62814998626709 -9.6826785011217e-05 11.11664009094238 2.488393068313599 11.11657047271729 5.558163166046143 C 11.11651039123535 8.627923011779785 5.146000385284424 13.63188362121582 5.146000385284424 13.63188362121582 Z" stroke="none" fill="#111"/>
    </g>
    <g id="패스_13835" data-name="패스 13835" transform="translate(992.5 328.039) rotate(135)" fill="none">
      <path d="M5.146,0s5.971,5,5.971,8.074A5.558,5.558,0,0,1,0,8.074C0,5,5.146,0,5.146,0Z" stroke="none"/>
      <path d="M 5.311812400817871 4.268280982971191 C 5.190063953399658 4.415709495544434 5.066963672637939 4.567914009094238 4.944159984588623 4.723658561706543 C 3.102363586425781 7.059506416320801 3.00351619720459 8.034095764160156 3.000055313110352 8.078317642211914 C 3.002742767333984 9.486822128295898 4.149466037750244 10.63198852539062 5.558640003204346 10.63201904296875 C 6.241869926452637 10.63201904296875 6.88424015045166 10.3659086227417 7.367430210113525 9.882708549499512 C 7.842667579650879 9.407471656799316 8.107900619506836 8.778220176696777 8.116494178771973 8.107595443725586 C 8.090821266174316 7.984035015106201 7.828465461730957 6.975429534912109 5.80295991897583 4.785658836364746 C 5.638199329376221 4.607535362243652 5.473624229431152 4.434566497802734 5.311812400817871 4.268280982971191 M 5.146090030670166 2.86102294921875e-05 C 5.146090030670166 2.86102294921875e-05 11.11664009094238 5.0040283203125 11.11670970916748 8.073808670043945 C 11.11678028106689 11.14340114593506 8.628161430358887 13.63201904296875 5.558639526367188 13.63201904296875 C 5.558452129364014 13.63201904296875 5.558697700500488 13.63201904296875 5.558510303497314 13.63201904296875 C 2.488730430603027 13.63194847106934 0.0001201629638671875 11.14333915710449 5.054473876953125e-05 8.073558807373047 C -2.002716064453125e-05 5.003778457641602 5.146090030670166 2.86102294921875e-05 5.146090030670166 2.86102294921875e-05 Z" stroke="none" fill="#111"/>
    </g>
    <rect id="사각형_17851" data-name="사각형 17851" width="3" height="31" transform="translate(987 329)" fill="#111"/>
  </g>
</svg>
