<svg xmlns="http://www.w3.org/2000/svg" width="59" height="30" viewBox="0 0 59 30">
    <path data-name="사각형 8725" style="fill:none" d="M0 0h59v30H0z"/>
    <g data-name="그룹 6361">
        <path data-name="패스 5183" d="M3.091-12.035v4.846h1.1a2.643 2.643 0 0 0 1.793-.63 2.459 2.459 0 0 0 .728-1.962 2.257 2.257 0 0 0-.612-1.6 2.419 2.419 0 0 0-1.855-.657zm0 6.213v4.757H1.156v-12.426h3.338a4.446 4.446 0 0 1 3.089.994 3.519 3.519 0 0 1 1.1 2.751A3.707 3.707 0 0 1 7.52-6.914a4.681 4.681 0 0 1-3.328 1.092zm12.284 3.657a3.025 3.025 0 0 1-1.4 1.047 4.751 4.751 0 0 1-1.475.249 2.678 2.678 0 0 1-1-.2 2.539 2.539 0 0 1-.861-.568 2.764 2.764 0 0 1-.621-.9 2.9 2.9 0 0 1-.231-1.18 3.315 3.315 0 0 1 .834-2.263 3.764 3.764 0 0 1 2.429-1.156L15.3-7.4a1.971 1.971 0 0 0-.6-1.464 1.955 1.955 0 0 0-1.314-.47 3.115 3.115 0 0 0-1.473.355 6.9 6.9 0 0 0-1.189.781l-.337-1.512a5.914 5.914 0 0 1 1.447-.754 5.131 5.131 0 0 1 1.731-.275 4.634 4.634 0 0 1 1.243.178 3.228 3.228 0 0 1 1.154.586A2.914 2.914 0 0 1 16.8-8.92a3.646 3.646 0 0 1 .333 1.62v3.959a7.564 7.564 0 0 0 .1 1.172 3.935 3.935 0 0 0 .328 1.1h-1.795a1.52 1.52 0 0 1-.249-.444 1.687 1.687 0 0 1-.142-.652zM15.3-6.017l-1.491.2a2.881 2.881 0 0 0-1.589.675 1.776 1.776 0 0 0-.537 1.342 1.482 1.482 0 0 0 .4 1.083 1.264 1.264 0 0 0 .932.408 2.135 2.135 0 0 0 .843-.186 2.061 2.061 0 0 0 .79-.63 3.374 3.374 0 0 0 .533-1.145 5.286 5.286 0 0 0 .119-1.747zm6.178 4.828-3.5-9.373h1.953l2.592 7.243 2.777-7.243h1.669L22.866-.23A4.107 4.107 0 0 1 21.26 1.8a4.577 4.577 0 0 1-2.512.683H18V1.048h.444q.337 0 .754-.027A2.381 2.381 0 0 0 20.044.8a2.676 2.676 0 0 0 .79-.666 3.768 3.768 0 0 0 .648-1.323z" transform="translate(30.632 22.358)" style="fill:#00b2a6"/>
        <g data-name="그룹 6359">
            <g data-name="그룹 6345">
                <g data-name="그룹 6344">
                    <g data-name="그룹 6343">
                        <path data-name="패스 5172" d="m259.48 371.366-5.673-7.386a1.47 1.47 0 0 0-1.2-.548 1.653 1.653 0 0 0-1.4 2.564l2.376 3-4.913 1.037v-14.26l7.2 1.483v8.47l2.932 3.807v-12.952a2.21 2.21 0 0 0-1.492-2.108l-10.171-2.718a3.219 3.219 0 0 0-.682-.075 1.768 1.768 0 0 0-1.972 1.807v18.474a1.9 1.9 0 0 0 2.037 1.936 3.056 3.056 0 0 0 .611-.064l8.591-2.144 1.414 1.783a1.4 1.4 0 0 0 1.087.411 1.578 1.578 0 0 0 1.186-.441 1.671 1.671 0 0 0 .069-2.076z" transform="translate(-232.535 -348.015)" style="fill:#00b2a6"/>
                        <path data-name="패스 5173" d="M222.78 374.077c-.8 0-2.76-.935-2.76-2.346V358.5l-1.28 1.177a1.632 1.632 0 0 1-1.063.362 1.9 1.9 0 0 1-1.524-.743 2.224 2.224 0 0 1 .424-2.8l4.115-3.646a3.15 3.15 0 0 1 2.024-.859 1.276 1.276 0 0 1 1.43 1.316V372.9a1.214 1.214 0 0 1-1.366 1.177z" transform="translate(-213.902 -348.214)" style="fill:#ef4567"/>
                    </g>
                </g>
            </g>
        </g>
    </g>
</svg>
