<svg xmlns="http://www.w3.org/2000/svg" width="16" height="16">
    <defs>
        <style>
            .cls-1{fill:none}.cls-3,.cls-4{stroke:#ccc}.cls-3{fill:#a2a2a2}.cls-4{fill:#fff}.cls-5{stroke:none}
        </style>
    </defs>
    <g id="ic_calendar_d" transform="translate(-147 -1333)">
        <path id="사각형_8188" data-name="사각형 8188" class="cls-1" transform="translate(147 1333)" d="M0 0h16v16H0z"/>
        <g id="사각형_9309" data-name="사각형 9309" transform="translate(147 1335)" style="stroke-width:1.5px;stroke:#ccc;fill:none">
            <rect class="cls-5" width="16" height="14" rx="3"/>
            <rect class="cls-1" x=".75" y=".75" width="14.5" height="12.5" rx="2.25"/>
        </g>
        <g id="사각형_9315" data-name="사각형 9315" class="cls-3" transform="translate(150.5 1340.5)">
            <rect class="cls-5" width="6" height="1.5" rx=".75"/>
            <rect class="cls-1" x=".5" y=".5" width="5" height=".5" rx=".25"/>
        </g>
        <g id="사각형_9316" data-name="사각형 9316" class="cls-3" transform="translate(150.5 1343)">
            <rect class="cls-5" width="4" height="1.5" rx=".75"/>
            <rect class="cls-1" x=".5" y=".5" width="3" height=".5" rx=".25"/>
        </g>
        <g id="사각형_9311" data-name="사각형 9311" class="cls-4" transform="translate(150.5 1333)">
            <rect class="cls-5" width="1.5" height="4.5" rx=".75"/>
            <rect class="cls-1" x=".5" y=".5" width=".5" height="3.5" rx=".25"/>
        </g>
        <g id="사각형_9312" data-name="사각형 9312" class="cls-4" transform="translate(158 1333)">
            <rect class="cls-5" width="1.5" height="4.5" rx=".75"/>
            <rect class="cls-1" x=".5" y=".5" width=".5" height="3.5" rx=".25"/>
        </g>
    </g>
</svg>
