<svg xmlns="http://www.w3.org/2000/svg" width="50" height="50" viewBox="0 0 50 50">
    <g data-name="사각형 13986" style="fill:#fff;stroke:#e5e5e5">
        <rect width="50" height="50" rx="15" style="stroke:none"/>
        <rect x=".5" y=".5" width="49" height="49" rx="14.5" style="fill:none"/>
    </g>
    <path data-name="사각형 17177" transform="translate(12 12.675)" style="fill:none" d="M0 0h26.19v26.19H0z"/>
    <g data-name="그룹 14932">
        <path data-name="패스 5113" d="M2.1-12.78v2.365h.537a1.29 1.29 0 0 0 .875-.307 1.2 1.2 0 0 0 .355-.957 1.1 1.1 0 0 0-.3-.78 1.18 1.18 0 0 0-.905-.32zm0 3.032v2.321h-.944v-6.063h1.629a2.169 2.169 0 0 1 1.507.485 1.717 1.717 0 0 1 .537 1.343 1.809 1.809 0 0 1-.567 1.382 2.284 2.284 0 0 1-1.624.533zm5.995 1.784a1.476 1.476 0 0 1-.684.511 2.318 2.318 0 0 1-.719.121 1.307 1.307 0 0 1-.489-.1 1.239 1.239 0 0 1-.42-.277 1.349 1.349 0 0 1-.3-.437 1.414 1.414 0 0 1-.113-.576 1.618 1.618 0 0 1 .407-1.1 1.836 1.836 0 0 1 1.183-.568l1.1-.13a.962.962 0 0 0-.295-.715.954.954 0 0 0-.641-.23 1.52 1.52 0 0 0-.719.173 3.364 3.364 0 0 0-.58.381l-.165-.736a2.886 2.886 0 0 1 .706-.368 2.5 2.5 0 0 1 .845-.134 2.261 2.261 0 0 1 .606.087 1.575 1.575 0 0 1 .563.286 1.422 1.422 0 0 1 .411.515 1.779 1.779 0 0 1 .16.793v1.932A3.691 3.691 0 0 0 9-7.964a1.92 1.92 0 0 0 .16.537h-.875a.742.742 0 0 1-.121-.217.823.823 0 0 1-.069-.32zm-.035-1.88-.728.1a1.406 1.406 0 0 0-.775.329.867.867 0 0 0-.264.658.723.723 0 0 0 .195.528.617.617 0 0 0 .455.2 1.042 1.042 0 0 0 .411-.091 1.006 1.006 0 0 0 .385-.307A1.646 1.646 0 0 0 8-8.991a2.579 2.579 0 0 0 .06-.853zm3.014 2.356-1.706-4.573h.953l1.265 3.534 1.351-3.534h.814l-2 5.041a2 2 0 0 1-.784.992 2.234 2.234 0 0 1-1.226.333h-.364v-.7h.217q.165 0 .368-.013a1.162 1.162 0 0 0 .411-.108 1.306 1.306 0 0 0 .385-.325 1.838 1.838 0 0 0 .316-.647z" transform="translate(18.605 47.704)" style="fill:#14aba3"/>
        <path data-name="패스 3465" d="m682.074 457.377-5.409-7.042a1.4 1.4 0 0 0-1.143-.522 1.576 1.576 0 0 0-1.332 2.445l2.265 2.856-4.683.989V442.51l6.861 1.414V452l2.8 3.629V443.28a2.108 2.108 0 0 0-1.423-2.009l-9.7-2.592a3.08 3.08 0 0 0-.65-.071 1.685 1.685 0 0 0-1.879 1.722v17.614a1.814 1.814 0 0 0 1.942 1.846 2.95 2.95 0 0 0 .583-.061l8.191-2.045 1.348 1.7a1.333 1.333 0 0 0 1.036.392 1.5 1.5 0 0 0 1.131-.421 1.592 1.592 0 0 0 .064-1.98" transform="translate(-645.206 -428.608)" style="fill:#14aba3"/>
        <path data-name="패스 3466" d="M653.136 459.9c-.759 0-2.631-.891-2.631-2.237v-12.621l-1.22 1.121a1.557 1.557 0 0 1-1.014.346 1.812 1.812 0 0 1-1.453-.708 2.121 2.121 0 0 1 .4-2.67l3.922-3.476a3 3 0 0 1 1.93-.819 1.217 1.217 0 0 1 1.363 1.254v18.68a1.158 1.158 0 0 1-1.3 1.127" transform="translate(-633.494 -428.733)" style="fill:#ee4467"/>
    </g>
</svg>
