<svg xmlns="http://www.w3.org/2000/svg" width="120" height="60" viewBox="0 0 120 60">
    <path data-name="사각형 8725" style="fill:none" d="M0 0h120v60H0z"/>
    <g data-name="그룹 6361">
        <path data-name="패스 5183" d="M4.744-10.791v8.986h2.041a4.9 4.9 0 0 0 3.325-1.169 4.559 4.559 0 0 0 1.35-3.637 4.185 4.185 0 0 0-1.136-2.963 4.485 4.485 0 0 0-3.44-1.218zm0 11.521v8.821H1.156v-23.042h6.189a8.244 8.244 0 0 1 5.728 1.843 6.526 6.526 0 0 1 2.041 5.1 6.874 6.874 0 0 1-2.156 5.25A8.681 8.681 0 0 1 6.785.73zm22.779 6.78a5.609 5.609 0 0 1-2.6 1.942 8.81 8.81 0 0 1-2.732.461 4.965 4.965 0 0 1-1.86-.362 4.708 4.708 0 0 1-1.6-1.053 5.126 5.126 0 0 1-1.152-1.662 5.374 5.374 0 0 1-.428-2.189A6.147 6.147 0 0 1 18.7.45a6.979 6.979 0 0 1 4.51-2.156l4.18-.494a3.654 3.654 0 0 0-1.119-2.716 3.626 3.626 0 0 0-2.436-.872 5.776 5.776 0 0 0-2.735.658 12.785 12.785 0 0 0-2.2 1.449l-.625-2.8a10.967 10.967 0 0 1 2.683-1.4 9.515 9.515 0 0 1 3.209-.51 8.592 8.592 0 0 1 2.3.329 5.986 5.986 0 0 1 2.14 1.086 5.4 5.4 0 0 1 1.564 1.959A6.76 6.76 0 0 1 30.782-2v7.338a14.026 14.026 0 0 0 .181 2.173 7.3 7.3 0 0 0 .609 2.041h-3.325a2.818 2.818 0 0 1-.461-.823 3.128 3.128 0 0 1-.263-1.219zM27.391.367 24.626.73a5.343 5.343 0 0 0-2.946 1.25 3.294 3.294 0 0 0-1 2.5 2.748 2.748 0 0 0 .741 2.008 2.344 2.344 0 0 0 1.728.757 3.958 3.958 0 0 0 1.56-.345 3.821 3.821 0 0 0 1.465-1.169 6.256 6.256 0 0 0 .988-2.123 9.8 9.8 0 0 0 .229-3.241zm11.455 8.954-6.484-17.38h3.621l4.806 13.43 5.135-13.43h3.094L41.414 11.1a7.615 7.615 0 0 1-2.979 3.769 8.488 8.488 0 0 1-4.658 1.267h-1.382v-2.668h.823q.625 0 1.4-.049a4.416 4.416 0 0 0 1.564-.411 4.963 4.963 0 0 0 1.465-1.234 6.986 6.986 0 0 0 1.199-2.453z" transform="translate(62.224 32.135)" style="fill:#00b2a6"/>
        <g data-name="그룹 6359">
            <g data-name="그룹 6345">
                <g data-name="그룹 6344">
                    <g data-name="그룹 6343">
                        <path data-name="패스 5172" d="m272.289 388.184-10.52-13.7a2.727 2.727 0 0 0-2.222-1.016 3.065 3.065 0 0 0-2.591 4.755l4.405 5.555-9.109 1.923v-26.432l13.346 2.75v15.707l5.437 7.06v-24.019a4.1 4.1 0 0 0-2.767-3.908l-18.861-5.039a5.971 5.971 0 0 0-1.265-.138c-1.767 0-3.656.88-3.656 3.351v34.257a3.528 3.528 0 0 0 3.778 3.59 5.662 5.662 0 0 0 1.134-.118l15.93-3.977 2.623 3.306a2.593 2.593 0 0 0 2.015.763 2.926 2.926 0 0 0 2.2-.818 3.1 3.1 0 0 0 .123-3.852z" transform="translate(-217.89 -342.681)" style="fill:#00b2a6"/>
                        <path data-name="패스 5173" d="M228.722 392.949c-1.477 0-5.117-1.734-5.117-4.35v-24.541l-2.373 2.182a3.026 3.026 0 0 1-1.972.671 3.52 3.52 0 0 1-2.827-1.377 4.125 4.125 0 0 1 .786-5.192l7.63-6.761a5.841 5.841 0 0 1 3.753-1.593 2.367 2.367 0 0 1 2.651 2.44v36.331a2.251 2.251 0 0 1-2.531 2.19z" transform="translate(-207.825 -342.788)" style="fill:#ef4567"/>
                    </g>
                </g>
            </g>
        </g>
    </g>
</svg>
