<svg xmlns="http://www.w3.org/2000/svg" width="58" height="26" viewBox="0 0 58 26">
    <g data-name="그룹 14112">
        <g data-name="그룹 14110">
            <path data-name="패스 12603" d="M438.707 232.47v-7.736h-9.518a3.565 3.565 0 0 0-3.681 3.413v17.189a3.565 3.565 0 0 0 3.681 3.413h16.635a3.565 3.565 0 0 0 3.681-3.413v-9.816H442a3.179 3.179 0 0 1-3.293-3.05z" transform="translate(-392.673 -223.645)" style="fill:#009a90"/>
            <path data-name="패스 12604" d="M511.331 233.261h7.509v-5.114a3.565 3.565 0 0 0-3.681-3.413h-4.682v7.736a.825.825 0 0 0 .854.791z" transform="translate(-462.009 -223.645)" style="fill:#de234b"/>
            <path data-name="패스 12605" d="M500.532 233.261a.825.825 0 0 1-.853-.791v-7.736h-2.435v7.736a3.179 3.179 0 0 0 3.288 3.05h7.509v-2.258z" transform="translate(-451.21 -223.645)" style="fill:#fff"/>
        </g>
        <path data-name="패스 12606" d="M502.411 296.166h-2.731v-2.031h-2.436v6.93a1.785 1.785 0 0 0 1.846 1.713h5.756v-8.643h-2.436zm-2.731 4.426v-2.24h2.731v2.24z" transform="translate(-451.21 -280.276)" style="fill:#fff"/>
        <path data-name="패스 12607" d="M445.19 241.248v-4.627h-2.436v4.079h-5.782v2.258h6.372a1.785 1.785 0 0 0 1.846-1.71z" transform="translate(-402.028 -233.345)" style="fill:#fff"/>
        <path data-name="패스 12608" d="M447.116 278.291a4.05 4.05 0 1 0 4.05 4.05 4.05 4.05 0 0 0-4.05-4.05zm0 5.669a1.619 1.619 0 1 1 1.619-1.619 1.619 1.619 0 0 1-1.619 1.619z" transform="translate(-407 -267.348)" style="fill:#fff"/>
        <g data-name="그룹 14111">
            <path data-name="패스 12609" d="M255.771 252.53v-1.63h1.788v1.625h3.283v1.3h-1.706a5.134 5.134 0 0 1 1.3 3.575c0 2.893-1.739 4.713-3.77 4.713-2.064 0-3.8-1.82-3.786-4.713a5.024 5.024 0 0 1 1.316-3.575h-1.642v-1.3zm.894 1.332c-1.089 0-2.08 1.3-2.08 3.543 0 2.145.975 3.413 2.064 3.413 1.1 0 2.064-1.267 2.08-3.413-.017-2.275-.943-3.542-2.064-3.542zm7.589 2.892v8.552h-1.706V250.9h1.706v4.55h2.275v1.3z" transform="translate(-251.541 -245.001)" style="fill:#009a90"/>
            <path data-name="패스 12610" d="M338.949 260.005h4.29a5.431 5.431 0 0 0 2.632-.39V250.9h1.706v4.55h2.275v1.3h-2.275v8.552h-1.706v-4.452a6.145 6.145 0 0 1-2.632.455h-5.184a1.766 1.766 0 0 1-1.609-1.934v-7.817h1.706v7.784a.717.717 0 0 0 .797.667z" transform="translate(-319.999 -245.001)" style="fill:#009a90"/>
        </g>
    </g>
</svg>
