<svg xmlns="http://www.w3.org/2000/svg" width="9.004" height="27.006" viewBox="0 0 9.004 27.006">
    <defs>
        <clipPath id="a">
            <path data-name="사각형 13913" style="fill:none" d="M0 0h9v27H0z"/>
        </clipPath>
    </defs>
    <g data-name="마스크 그룹 181" transform="translate(.002 .002)" style="clip-path:url(#a)">
        <g data-name="빼기 267" style="fill:none">
            <path d="M292 177H20a20 20 0 0 1-20-20V20A20 20 0 0 1 20 0h272a20 20 0 0 1 20 20v54.65a8.011 8.011 0 0 1-3.787 6.8 8 8 0 0 0 0 14.1 8.007 8.007 0 0 1 3.786 6.8V157a20 20 0 0 1-20 20z" style="stroke:none" transform="rotate(180 156 51)"/>
            <path d="M292 176c5.075 0 9.846-1.976 13.435-5.565A18.876 18.876 0 0 0 311 157v-54.65a7.013 7.013 0 0 0-3.29-5.936 8.994 8.994 0 0 1-4.71-7.913 8.994 8.994 0 0 1 4.71-7.914A7.011 7.011 0 0 0 311 74.65V20c0-5.075-1.976-9.846-5.565-13.435A18.877 18.877 0 0 0 292 1H20A18.875 18.875 0 0 0 6.565 6.565 18.875 18.875 0 0 0 1 20v137c0 5.075 1.976 9.846 5.565 13.435A18.875 18.875 0 0 0 20 176h272m0 1H20a19.868 19.868 0 0 1-14.142-5.858A19.87 19.87 0 0 1 0 157V20C0 14.658 2.08 9.635 5.858 5.858A19.869 19.869 0 0 1 20 0h272a19.87 19.87 0 0 1 14.142 5.858A19.868 19.868 0 0 1 312 20v54.65a8.013 8.013 0 0 1-3.787 6.802A7.995 7.995 0 0 0 304 88.5c0 2.949 1.615 5.65 4.213 7.048a8.016 8.016 0 0 1 3.786 6.8v-5.848L312 157a19.87 19.87 0 0 1-5.858 14.142A19.87 19.87 0 0 1 292 177z" style="fill:#f3f0eb;stroke:none" transform="rotate(180 156 51)"/>
        </g>
    </g>
    <path data-name="제외 5" d="M9 0H0v.006h9V0zm0 .006a7.986 7.986 0 0 1-3.858 6.486 8 8 0 0 0 .078 14.059A8.058 8.058 0 0 1 9 27.006V0z" transform="rotate(180 4.502 13.503)" style="fill:#fff"/>
</svg>
