<svg xmlns="http://www.w3.org/2000/svg" width="9.004" height="27.006" viewBox="0 0 9.004 27.006">
    <defs>
        <clipPath id="a">
            <path data-name="사각형 13913" transform="translate(327 312)" style="fill:none" d="M0 0h9v27H0z"/>
        </clipPath>
    </defs>
    <g data-name="마스크 그룹 181" style="clip-path:url(#a)" transform="translate(-326.999 -311.998)">
        <g data-name="빼기 267" style="fill:none">
            <path d="M1481 5122h-272a20 20 0 0 1-20-20v-137a20 20 0 0 1 20-20h272a20 20 0 0 1 20 20v54.649a8.009 8.009 0 0 1-3.781 6.8 8 8 0 0 0 0 14.1 8.012 8.012 0 0 1 3.781 6.8V5102a20 20 0 0 1-20 20z" style="stroke:none" transform="translate(-1165 -4708)"/>
            <path d="M1481 5121c5.075 0 9.846-1.977 13.435-5.565A18.876 18.876 0 0 0 1500 5102v-54.65a7.015 7.015 0 0 0-3.284-5.933 8.995 8.995 0 0 1-4.716-7.918 8.994 8.994 0 0 1 4.717-7.916 7.012 7.012 0 0 0 3.283-5.933V4965c0-5.075-1.976-9.846-5.565-13.435A18.875 18.875 0 0 0 1481 4946h-272a18.875 18.875 0 0 0-13.435 5.565A18.876 18.876 0 0 0 1190 4965v137c0 5.075 1.976 9.846 5.565 13.435A18.877 18.877 0 0 0 1209 5121h272m0 1h-272a19.87 19.87 0 0 1-14.142-5.858A19.869 19.869 0 0 1 1189 5102v-137c0-5.342 2.08-10.365 5.858-14.142A19.868 19.868 0 0 1 1209 4945h272c5.342 0 10.365 2.08 14.142 5.858A19.869 19.869 0 0 1 1501 4965v54.65a8.013 8.013 0 0 1-3.78 6.797 7.996 7.996 0 0 0-4.22 7.052 7.997 7.997 0 0 0 4.22 7.053 8.014 8.014 0 0 1 3.78 6.797V5102c0 5.343-2.08 10.365-5.858 14.143A19.87 19.87 0 0 1 1481 5122z" style="fill:#6a4bcb;stroke:none" transform="translate(-1165 -4708)"/>
        </g>
    </g>
    <path data-name="제외 5" d="M1792 24041h-9 9v.006zm.007-.006H1792a7.986 7.986 0 0 0-3.855-6.486 8 8 0 0 1 .078-14.059A8.058 8.058 0 0 0 1792 24014h.006v27z" transform="translate(-1783 -24013.998)" style="fill:#fff"/>
</svg>
