<svg xmlns="http://www.w3.org/2000/svg" width="103" height="32" viewBox="0 0 103 32">
    <defs>
        <style>
            .cls-2{fill:#0f0f0f;stroke:#0f0f0f;stroke-miterlimit:10;stroke-width:.16px}
        </style>
    </defs>
    <g id="ic_googleplay" transform="translate(.087 .038)">
        <path id="사각형_7669" data-name="사각형 7669" transform="translate(-.087 -.038)" style="fill:none" d="M0 0h103v32H0z"/>
        <path id="path20" class="cls-2" d="M273.209 330.643a2.211 2.211 0 0 1-.613 1.633 2.426 2.426 0 0 1-1.821.725 2.517 2.517 0 0 1-1.82-.733 2.587 2.587 0 0 1 0-3.642 2.5 2.5 0 0 1 1.82-.737 2.615 2.615 0 0 1 1.016.207 2.012 2.012 0 0 1 .773.545l-.431.43a1.69 1.69 0 0 0-1.358-.577 1.9 1.9 0 0 0-1.353.541 2.038 2.038 0 0 0 0 2.823 1.92 1.92 0 0 0 1.353.541 1.893 1.893 0 0 0 1.382-.545 1.527 1.527 0 0 0 .414-.992h-1.8v-.589h2.4a1.658 1.658 0 0 1 .038.37z" transform="translate(-239.381 -322.433)"/>
        <path id="path24" class="cls-2" d="M315.174 329.324h-2.251v1.549h2.029v.589h-2.029v1.549h2.251v.6h-2.889v-4.888h2.889z" transform="translate(-277.543 -323.157)"/>
        <path id="path28" class="cls-2" d="M340.777 333.612h-.637v-4.288h-1.381v-.6h3.4v.6h-1.382z" transform="translate(-300.463 -323.157)"/>
        <path id="path32" class="cls-2" d="M382.416 333.612v-4.888h.636v4.888z" transform="translate(-338.259 -323.157)"/>
        <path id="path36" class="cls-2" d="M395.151 333.612h-.632v-4.288h-1.386v-.6h3.4v.6h-1.386z" transform="translate(-347.538 -323.157)"/>
        <path id="path40" class="cls-2" d="M438.33 332.259a2.593 2.593 0 0 1-3.63 0 2.624 2.624 0 0 1 0-3.63 2.583 2.583 0 0 1 3.626 0 2.614 2.614 0 0 1 0 3.626zm-3.159-.41a1.918 1.918 0 0 0 2.687 0 2.066 2.066 0 0 0 0-2.811 1.918 1.918 0 0 0-2.687 0 2.066 2.066 0 0 0 0 2.811z" transform="translate(-382.893 -322.433)"/>
        <path id="path44" class="cls-2" d="M478.535 333.612v-4.888h.773l2.4 3.8h.028l-.028-.94v-2.862h.636v4.888h-.664l-2.518-3.989h-.028l.028.944v3.045z" transform="translate(-421.476 -323.157)"/>
        <path id="path46" d="M288.638 393.568a3.468 3.468 0 1 0 3.525 3.468 3.439 3.439 0 0 0-3.525-3.468zm0 5.57a2.106 2.106 0 1 1 1.982-2.1 2.015 2.015 0 0 1-1.982 2.1zm-7.681-5.57a3.468 3.468 0 1 0 3.52 3.468 3.437 3.437 0 0 0-3.52-3.468zm0 5.57a2.106 2.106 0 1 1 1.978-2.1 2.018 2.018 0 0 1-1.978 2.1zm-9.141-4.507v1.469h3.561a3.043 3.043 0 0 1-.809 1.851 3.681 3.681 0 0 1-2.751 1.075 3.914 3.914 0 0 1 0-7.827 3.8 3.8 0 0 1 2.683 1.051l1.051-1.039a5.227 5.227 0 0 0-3.734-1.485 5.388 5.388 0 1 0 0 10.773 5.012 5.012 0 0 0 3.8-1.513 5.248 5.248 0 0 0 1.208-4.36zm37.377 1.143a3.251 3.251 0 0 0-3-2.206 3.313 3.313 0 0 0-3.307 3.468 3.412 3.412 0 0 0 3.48 3.467 3.488 3.488 0 0 0 2.925-1.537l-1.2-.788a2.011 2.011 0 0 1-1.728.959 1.786 1.786 0 0 1-1.7-1.051l4.693-1.919zm-4.785 1.155a1.913 1.913 0 0 1 1.832-2.022 1.366 1.366 0 0 1 1.306.736zm-3.814 3.364h1.543V390.1h-1.543zm-2.526-5.952h-.052a2.445 2.445 0 0 0-1.845-.772 3.469 3.469 0 0 0 0 6.936 2.408 2.408 0 0 0 1.845-.788h.052v.5a1.786 1.786 0 0 1-1.873 2.038 1.946 1.946 0 0 1-1.769-1.238l-1.342.553a3.348 3.348 0 0 0 3.11 2.051c1.809 0 3.335-1.052 3.335-3.611v-6.227h-1.462zm-1.764 4.8a2.108 2.108 0 0 1 0-4.2 2.116 2.116 0 0 1 0 4.2zm20.113-9.037h-3.69v10.192h1.539v-3.862h2.151a3.172 3.172 0 1 0 0-6.33zm.04 4.913h-2.191v-3.495h2.191a1.748 1.748 0 1 1 0 3.495zm9.511-1.465a2.892 2.892 0 0 0-2.743 1.56l1.365.566a1.461 1.461 0 0 1 1.405-.749 1.478 1.478 0 0 1 1.62 1.311v.107a3.412 3.412 0 0 0-1.608-.394c-1.47 0-2.969.8-2.969 2.293a2.371 2.371 0 0 0 2.558 2.245 2.184 2.184 0 0 0 1.965-1h.053v.788h1.486v-3.909c0-1.81-1.364-2.821-3.133-2.821zm-.186 5.585c-.5 0-1.2-.247-1.2-.863 0-.789.875-1.092 1.631-1.092a2.785 2.785 0 0 1 1.407.343 1.86 1.86 0 0 1-1.839 1.609zm8.733-5.362-1.768 4.418h-.053l-1.828-4.418h-1.659l2.747 6.174-1.567 3.436h1.608l4.233-9.61zm-13.869 6.521h1.543V390.1h-1.543z" transform="translate(-237.718 -375.975)" style="fill:#0f0f0f"/>
        <g id="그룹_11096" data-name="그룹 11096" transform="translate(1.105 4.215)">
            <path id="패스_11958" data-name="패스 11958" d="M83.437 67.55a.646.646 0 0 0-.437.613v21.4a.646.646 0 0 0 .431.611L94.8 78.858z" transform="translate(-83 -67.513)" style="fill:#00d6ff"/>
            <path id="패스_11959" data-name="패스 11959" d="M101.614 75.361 87.586 67.29a.636.636 0 0 0-.536-.05l11.361 11.309z" transform="translate(-86.613 -67.203)" style="fill:#00f076"/>
            <path id="패스_11960" data-name="패스 11960" d="m87.533 183.587 14.033-8.074-3.208-3.193-11.368 11.313a.634.634 0 0 0 .543-.046z" transform="translate(-86.559 -160.977)" style="fill:#ff3a44"/>
            <path id="패스_11961" data-name="패스 11961" d="m195.538 149.18 4.564-2.625a.649.649 0 0 0 0-1.126l-4.569-2.629-3.2 3.188z" transform="translate(-180.532 -134.642)" style="fill:#ffd000"/>
        </g>
    </g>
</svg>
