<svg xmlns="http://www.w3.org/2000/svg" width="103" height="32" viewBox="0 0 103 32">
    <path data-name="사각형 7668" style="fill:none" d="M0 0h103v32H0z"/>
    <g data-name="그룹 14187">
        <path data-name="패스 3888" d="M106.12 98.222a4.48 4.48 0 0 1 2.134-3.759 4.589 4.589 0 0 0-3.614-1.954c-1.52-.16-2.995.91-3.769.91-.79 0-1.982-.894-3.268-.868a4.812 4.812 0 0 0-4.05 2.47c-1.751 3.032-.445 7.487 1.233 9.938.839 1.2 1.82 2.54 3.1 2.493 1.256-.051 1.725-.8 3.241-.8s1.942.8 3.251.77c1.348-.021 2.2-1.206 3.006-2.417a9.906 9.906 0 0 0 1.375-2.8 4.334 4.334 0 0 1-2.639-3.983z" transform="translate(-83.958 -82.737)" style="fill:#0f0f0f"/>
        <path data-name="패스 3889" d="M159.1 57.813a4.409 4.409 0 0 0 1.009-3.16 4.492 4.492 0 0 0-2.9 1.5 4.2 4.2 0 0 0-1.036 3.044 3.711 3.711 0 0 0 2.927-1.384z" transform="translate(-139.409 -49.653)" style="fill:#0f0f0f"/>
    </g>
    <g data-name="그룹 1827">
        <path data-name="패스 3890" d="M283.651 138.6H281.9l-.961-3.021h-3.342l-.916 3.021h-1.709l3.312-10.285h2.045zm-3.006-4.288-.87-2.686q-.138-.412-.519-1.937h-.031q-.153.656-.488 1.938l-.855 2.686z" transform="translate(-242.351 -118.161)" style="fill:#0f0f0f"/>
        <path data-name="패스 3891" d="M362.01 153.69a4.2 4.2 0 0 1-1.028 2.99 3.014 3.014 0 0 1-2.286.977 2.289 2.289 0 0 1-2.118-1.052v3.895h-1.648v-7.986q0-1.188-.061-2.437h1.449l.092 1.175h.031a2.931 2.931 0 0 1 4.692-.291 4.1 4.1 0 0 1 .877 2.729zm-1.679.06a3.057 3.057 0 0 0-.488-1.786 1.688 1.688 0 0 0-1.434-.732 1.714 1.714 0 0 0-1.106.4 1.876 1.876 0 0 0-.649 1.061 2.154 2.154 0 0 0-.076.5v1.237a1.985 1.985 0 0 0 .5 1.366 1.648 1.648 0 0 0 1.289.557 1.689 1.689 0 0 0 1.449-.717 3.157 3.157 0 0 0 .515-1.886z" transform="translate(-312.209 -137.053)" style="fill:#0f0f0f"/>
        <path data-name="패스 3892" d="M429.871 153.69a4.2 4.2 0 0 1-1.028 2.99 3.015 3.015 0 0 1-2.287.977 2.289 2.289 0 0 1-2.118-1.052v3.895h-1.648v-7.986q0-1.188-.061-2.437h1.449l.092 1.175h.031a2.932 2.932 0 0 1 4.693-.291 4.105 4.105 0 0 1 .877 2.729zm-1.68.06a3.057 3.057 0 0 0-.489-1.786 1.685 1.685 0 0 0-1.433-.732 1.721 1.721 0 0 0-1.107.4 1.874 1.874 0 0 0-.648 1.061 2.2 2.2 0 0 0-.077.5v1.237a1.991 1.991 0 0 0 .5 1.366 1.651 1.651 0 0 0 1.291.557 1.687 1.687 0 0 0 1.449-.717 3.157 3.157 0 0 0 .515-1.886z" transform="translate(-371.541 -137.053)" style="fill:#0f0f0f"/>
        <path data-name="패스 3893" d="M511.052 134.653a2.747 2.747 0 0 1-.914 2.137 4.053 4.053 0 0 1-2.8.9 4.891 4.891 0 0 1-2.663-.641l.381-1.373a4.584 4.584 0 0 0 2.38.642 2.246 2.246 0 0 0 1.449-.42 1.371 1.371 0 0 0 .52-1.121 1.436 1.436 0 0 0-.428-1.053 3.969 3.969 0 0 0-1.419-.793q-2.7-1.007-2.7-2.946a2.6 2.6 0 0 1 .954-2.075 3.771 3.771 0 0 1 2.526-.809 4.99 4.99 0 0 1 2.335.488l-.413 1.343a4.084 4.084 0 0 0-1.976-.473 2.01 2.01 0 0 0-1.363.427 1.222 1.222 0 0 0-.413.932 1.26 1.26 0 0 0 .474 1.007 5.337 5.337 0 0 0 1.495.793 5.068 5.068 0 0 1 1.953 1.251 2.606 2.606 0 0 1 .622 1.784z" transform="translate(-443.185 -117.102)" style="fill:#0f0f0f"/>
        <path data-name="패스 3894" d="M567.465 139.509h-1.816v3.6q0 1.374.961 1.373a2.893 2.893 0 0 0 .732-.077l.046 1.251a3.733 3.733 0 0 1-1.281.182 1.975 1.975 0 0 1-1.527-.6 2.922 2.922 0 0 1-.55-2V139.5h-1.082v-1.237h1.082v-1.358l1.619-.488v1.846h1.816z" transform="translate(-494.135 -125.252)" style="fill:#0f0f0f"/>
        <path data-name="패스 3895" d="M613.421 153.737a4.069 4.069 0 0 1-.977 2.808 3.483 3.483 0 0 1-2.716 1.129 3.32 3.32 0 0 1-2.6-1.082 3.945 3.945 0 0 1-.969-2.731 4.035 4.035 0 0 1 1-2.822 3.464 3.464 0 0 1 2.694-1.1 3.389 3.389 0 0 1 2.624 1.083 3.893 3.893 0 0 1 .944 2.715zm-1.708.038a3.322 3.322 0 0 0-.441-1.75 1.631 1.631 0 0 0-1.481-.883 1.654 1.654 0 0 0-1.511.883 3.376 3.376 0 0 0-.442 1.781 3.311 3.311 0 0 0 .442 1.751 1.69 1.69 0 0 0 2.978-.015 3.336 3.336 0 0 0 .455-1.767z" transform="translate(-531.913 -137.07)" style="fill:#0f0f0f"/>
        <path data-name="패스 3896" d="M678.972 151.522a2.865 2.865 0 0 0-.519-.046 1.555 1.555 0 0 0-1.343.657 2.475 2.475 0 0 0-.411 1.465v3.891h-1.649v-5.081q0-1.281-.048-2.335h1.435l.06 1.419h.045a2.545 2.545 0 0 1 .824-1.176 1.992 1.992 0 0 1 1.191-.4 2.639 2.639 0 0 1 .412.03v1.572z" transform="translate(-592.105 -137.053)" style="fill:#0f0f0f"/>
        <path data-name="패스 3897" d="M719.367 153.35a3.873 3.873 0 0 1-.06.747h-4.943a2.151 2.151 0 0 0 .717 1.68 2.453 2.453 0 0 0 1.617.518 5.467 5.467 0 0 0 2-.35l.258 1.143a6.185 6.185 0 0 1-2.486.458 3.6 3.6 0 0 1-2.71-1.014 3.749 3.749 0 0 1-.984-2.723 4.248 4.248 0 0 1 .917-2.792 3.158 3.158 0 0 1 2.593-1.189 2.764 2.764 0 0 1 2.428 1.189 4 4 0 0 1 .653 2.333zm-1.571-.427a2.23 2.23 0 0 0-.32-1.267 1.439 1.439 0 0 0-1.312-.688 1.562 1.562 0 0 0-1.312.672 2.462 2.462 0 0 0-.488 1.281z" transform="translate(-625.131 -136.973)" style="fill:#0f0f0f"/>
    </g>
</svg>
