<svg xmlns="http://www.w3.org/2000/svg" width="103" height="32" viewBox="0 0 103 32">
    <path data-name="사각형 7669" style="fill:none" d="M0 0h103v32H0z"/>
    <path d="M289.578 393.73a3.614 3.614 0 1 0 3.673 3.614 3.584 3.584 0 0 0-3.673-3.614zm0 5.8a2.194 2.194 0 1 1 2.065-2.19 2.1 2.1 0 0 1-2.065 2.193zm-8-5.8a3.614 3.614 0 1 0 3.668 3.614 3.581 3.581 0 0 0-3.672-3.614zm0 5.8a2.195 2.195 0 1 1 2.061-2.19 2.1 2.1 0 0 1-2.065 2.193zm-9.525-4.7v1.536h3.71a3.171 3.171 0 0 1-.843 1.929 3.836 3.836 0 0 1-2.867 1.12 4.078 4.078 0 0 1 0-8.156 3.96 3.96 0 0 1 2.8 1.095l1.095-1.082a5.447 5.447 0 0 0-3.891-1.547 5.615 5.615 0 1 0 0 11.226 5.222 5.222 0 0 0 3.963-1.576 5.468 5.468 0 0 0 1.259-4.543zM311 396.028a3.387 3.387 0 0 0-3.131-2.3 3.453 3.453 0 0 0-3.446 3.614 3.556 3.556 0 0 0 3.627 3.613 3.635 3.635 0 0 0 3.047-1.6l-1.247-.821a2.1 2.1 0 0 1-1.8 1 1.861 1.861 0 0 1-1.771-1.095l4.89-2zm-4.986 1.2a1.993 1.993 0 0 1 1.909-2.107 1.423 1.423 0 0 1 1.36.767zm-3.975 3.506h1.608v-10.62h-1.608zm-2.633-6.2h-.054a2.547 2.547 0 0 0-1.922-.8 3.615 3.615 0 0 0 0 7.227 2.51 2.51 0 0 0 1.922-.821h.054v.518a1.861 1.861 0 0 1-1.951 2.124 2.028 2.028 0 0 1-1.843-1.29l-1.4.577a3.489 3.489 0 0 0 3.241 2.137c1.885 0 3.475-1.1 3.475-3.763v-6.489H299.4zm-1.839 5a2.2 2.2 0 0 1 0-4.381 2.2 2.2 0 0 1 0 4.381zm20.958-9.417h-3.845v10.62h1.6v-4.024h2.242a3.306 3.306 0 1 0 0-6.6zm.042 5.119h-2.284v-3.642h2.284a1.822 1.822 0 1 1 0 3.642zm9.911-1.526a3.013 3.013 0 0 0-2.858 1.626l1.423.589a1.522 1.522 0 0 1 1.465-.78 1.54 1.54 0 0 1 1.688 1.366v.111a3.555 3.555 0 0 0-1.675-.411c-1.532 0-3.093.834-3.093 2.389a2.471 2.471 0 0 0 2.666 2.34 2.275 2.275 0 0 0 2.048-1.041h.055v.821h1.548v-4.074c-.004-1.883-1.426-2.937-3.269-2.937zm-.193 5.82c-.524 0-1.255-.257-1.255-.9 0-.822.911-1.138 1.7-1.138a2.9 2.9 0 0 1 1.466.357 1.939 1.939 0 0 1-1.914 1.68zm9.1-5.587-1.843 4.6h-.055l-1.905-4.6h-1.729l2.863 6.434-1.633 3.58h1.675l4.411-10.014zm-14.452 6.795h1.608v-10.62h-1.608z" transform="translate(-238.631 -379.731)" style="fill:#0f0f0f"/>
    <g data-name="그룹 11096">
        <path data-name="패스 11958" d="M83.381 67.55a.564.564 0 0 0-.381.535v18.676a.564.564 0 0 0 .376.533L93.3 77.42z" transform="translate(-80.278 -60.518)" style="fill:#00d6ff"/>
        <path data-name="패스 11959" d="m99.762 74.323-12.244-7.044a.555.555 0 0 0-.468-.043l9.916 9.87z" transform="translate(-83.947 -60.204)" style="fill:#00f076"/>
        <path data-name="패스 11960" d="m87.464 182.154 12.248-7.047-2.8-2.787-9.922 9.874a.554.554 0 0 0 .474-.04z" transform="translate(-83.892 -155.421)" style="fill:#ff3a44"/>
        <path data-name="패스 11961" d="m195.13 148.368 3.983-2.292a.567.567 0 0 0 0-.982l-3.988-2.294-2.8 2.782z" transform="translate(-179.31 -128.681)" style="fill:#ffd000"/>
    </g>
</svg>
