<svg xmlns="http://www.w3.org/2000/svg" width="103" height="32" viewBox="0 0 103 32">
    <defs>
        <style>
            .cls-2{fill:#0f0f0f}
        </style>
    </defs>
    <g id="btn_appstore" transform="translate(-.002 -.962)">
        <path id="사각형_7668" data-name="사각형 7668" transform="translate(.002 .962)" style="fill:none" d="M0 0h103v32H0z"/>
        <path id="패스_3888" data-name="패스 3888" class="cls-2" d="M106.12 98.222a4.48 4.48 0 0 1 2.134-3.759 4.589 4.589 0 0 0-3.614-1.954c-1.52-.16-2.995.91-3.769.91-.79 0-1.982-.894-3.268-.868a4.812 4.812 0 0 0-4.05 2.47c-1.751 3.032-.445 7.487 1.233 9.938.839 1.2 1.82 2.54 3.1 2.493 1.256-.051 1.725-.8 3.241-.8s1.942.8 3.251.77c1.348-.021 2.2-1.206 3.006-2.417a9.906 9.906 0 0 0 1.375-2.8 4.334 4.334 0 0 1-2.639-3.983z" transform="translate(-90.297 -81.743)"/>
        <path id="패스_3889" data-name="패스 3889" class="cls-2" d="M159.1 57.813a4.409 4.409 0 0 0 1.009-3.16 4.492 4.492 0 0 0-2.9 1.5 4.2 4.2 0 0 0-1.036 3.044 3.711 3.711 0 0 0 2.927-1.384z" transform="translate(-145.749 -48.659)"/>
        <g id="그룹_1827" data-name="그룹 1827" transform="translate(26.278 15.099)">
            <path id="패스_3890" data-name="패스 3890" class="cls-2" d="M283.651 138.6H281.9l-.961-3.021h-3.342l-.916 3.021h-1.709l3.312-10.285h2.045zm-3.006-4.288-.87-2.686q-.138-.412-.519-1.937h-.031q-.153.656-.488 1.938l-.855 2.686z" transform="translate(-274.968 -128.16)"/>
            <path id="패스_3891" data-name="패스 3891" class="cls-2" d="M362.01 153.69a4.2 4.2 0 0 1-1.028 2.99 3.014 3.014 0 0 1-2.286.977 2.289 2.289 0 0 1-2.118-1.052v3.895h-1.648v-7.986q0-1.188-.061-2.437h1.449l.092 1.175h.031a2.931 2.931 0 0 1 4.692-.291 4.1 4.1 0 0 1 .877 2.729zm-1.679.06a3.057 3.057 0 0 0-.488-1.786 1.688 1.688 0 0 0-1.434-.732 1.714 1.714 0 0 0-1.106.4 1.876 1.876 0 0 0-.649 1.061 2.154 2.154 0 0 0-.076.5v1.237a1.985 1.985 0 0 0 .5 1.366 1.648 1.648 0 0 0 1.289.557 1.689 1.689 0 0 0 1.449-.717 3.157 3.157 0 0 0 .515-1.886z" transform="translate(-344.826 -147.052)"/>
            <path id="패스_3892" data-name="패스 3892" class="cls-2" d="M429.871 153.69a4.2 4.2 0 0 1-1.028 2.99 3.015 3.015 0 0 1-2.287.977 2.289 2.289 0 0 1-2.118-1.052v3.895h-1.648v-7.986q0-1.188-.061-2.437h1.449l.092 1.175h.031a2.932 2.932 0 0 1 4.693-.291 4.105 4.105 0 0 1 .877 2.729zm-1.68.06a3.057 3.057 0 0 0-.489-1.786 1.685 1.685 0 0 0-1.433-.732 1.721 1.721 0 0 0-1.107.4 1.874 1.874 0 0 0-.648 1.061 2.2 2.2 0 0 0-.077.5v1.237a1.991 1.991 0 0 0 .5 1.366 1.651 1.651 0 0 0 1.291.557 1.687 1.687 0 0 0 1.449-.717 3.157 3.157 0 0 0 .515-1.886z" transform="translate(-404.158 -147.052)"/>
            <path id="패스_3893" data-name="패스 3893" class="cls-2" d="M511.052 134.653a2.747 2.747 0 0 1-.914 2.137 4.053 4.053 0 0 1-2.8.9 4.891 4.891 0 0 1-2.663-.641l.381-1.373a4.584 4.584 0 0 0 2.38.642 2.246 2.246 0 0 0 1.449-.42 1.371 1.371 0 0 0 .52-1.121 1.436 1.436 0 0 0-.428-1.053 3.969 3.969 0 0 0-1.419-.793q-2.7-1.007-2.7-2.946a2.6 2.6 0 0 1 .954-2.075 3.771 3.771 0 0 1 2.526-.809 4.99 4.99 0 0 1 2.335.488l-.413 1.343a4.084 4.084 0 0 0-1.976-.473 2.01 2.01 0 0 0-1.363.427 1.222 1.222 0 0 0-.413.932 1.26 1.26 0 0 0 .474 1.007 5.337 5.337 0 0 0 1.495.793 5.068 5.068 0 0 1 1.953 1.251 2.606 2.606 0 0 1 .622 1.784z" transform="translate(-475.802 -127.101)"/>
            <path id="패스_3894" data-name="패스 3894" class="cls-2" d="M567.465 139.509h-1.816v3.6q0 1.374.961 1.373a2.893 2.893 0 0 0 .732-.077l.046 1.251a3.733 3.733 0 0 1-1.281.182 1.975 1.975 0 0 1-1.527-.6 2.922 2.922 0 0 1-.55-2V139.5h-1.082v-1.237h1.082v-1.358l1.619-.488v1.846h1.816z" transform="translate(-526.752 -135.251)"/>
            <path id="패스_3895" data-name="패스 3895" class="cls-2" d="M613.421 153.737a4.069 4.069 0 0 1-.977 2.808 3.483 3.483 0 0 1-2.716 1.129 3.32 3.32 0 0 1-2.6-1.082 3.945 3.945 0 0 1-.969-2.731 4.035 4.035 0 0 1 1-2.822 3.464 3.464 0 0 1 2.694-1.1 3.389 3.389 0 0 1 2.624 1.083 3.893 3.893 0 0 1 .944 2.715zm-1.708.038a3.322 3.322 0 0 0-.441-1.75 1.631 1.631 0 0 0-1.481-.883 1.654 1.654 0 0 0-1.511.883 3.376 3.376 0 0 0-.442 1.781 3.311 3.311 0 0 0 .442 1.751 1.69 1.69 0 0 0 2.978-.015 3.336 3.336 0 0 0 .455-1.767z" transform="translate(-564.53 -147.069)"/>
            <path id="패스_3896" data-name="패스 3896" class="cls-2" d="M678.972 151.522a2.865 2.865 0 0 0-.519-.046 1.555 1.555 0 0 0-1.343.657 2.475 2.475 0 0 0-.411 1.465v3.891h-1.649v-5.081q0-1.281-.048-2.335h1.435l.06 1.419h.045a2.545 2.545 0 0 1 .824-1.176 1.992 1.992 0 0 1 1.191-.4 2.639 2.639 0 0 1 .412.03v1.572z" transform="translate(-624.722 -147.052)"/>
            <path id="패스_3897" data-name="패스 3897" class="cls-2" d="M719.367 153.35a3.873 3.873 0 0 1-.06.747h-4.943a2.151 2.151 0 0 0 .717 1.68 2.453 2.453 0 0 0 1.617.518 5.467 5.467 0 0 0 2-.35l.258 1.143a6.185 6.185 0 0 1-2.486.458 3.6 3.6 0 0 1-2.71-1.014 3.749 3.749 0 0 1-.984-2.723 4.248 4.248 0 0 1 .917-2.792 3.158 3.158 0 0 1 2.593-1.189 2.764 2.764 0 0 1 2.428 1.189 4 4 0 0 1 .653 2.333zm-1.571-.427a2.23 2.23 0 0 0-.32-1.267 1.439 1.439 0 0 0-1.312-.688 1.562 1.562 0 0 0-1.312.672 2.462 2.462 0 0 0-.488 1.281z" transform="translate(-657.748 -146.972)"/>
        </g>
        <g id="그룹_1828" data-name="그룹 1828" transform="translate(26.891 6.253)">
            <path id="패스_3898" data-name="패스 3898" class="cls-2" d="M284.12 63.858h-.863l-.472-1.485h-1.642l-.451 1.485h-.84l1.628-5.055h1zm-1.478-2.107-.427-1.32c-.045-.135-.127-.45-.255-.952h-.015c-.053.217-.127.532-.24.952l-.42 1.32z" transform="translate(-279.851 -58.541)"/>
            <path id="패스_3899" data-name="패스 3899" class="cls-2" d="m321.822 70.025-1.38 3.645h-.788l-1.336-3.645h.87l.623 1.927c.105.322.195.63.262.922h.022c.06-.262.15-.57.262-.922l.615-1.927z" transform="translate(-313.484 -68.353)"/>
            <path id="패스_3900" data-name="패스 3900" class="cls-2" d="m353.814 73.149-.06-.42h-.022a1.243 1.243 0 0 1-1.065.5 1.061 1.061 0 0 1-1.118-1.073c0-.9.78-1.365 2.13-1.365v-.067c0-.48-.255-.72-.757-.72a1.7 1.7 0 0 0-.952.27l-.165-.532a2.333 2.333 0 0 1 1.253-.315c.952 0 1.433.5 1.433 1.508v1.342a5.412 5.412 0 0 0 .053.87zm-.113-1.815c-.9 0-1.35.218-1.35.735a.516.516 0 0 0 .555.57.775.775 0 0 0 .8-.742z" transform="translate(-342.537 -67.832)"/>
            <path id="패스_3901" data-name="패스 3901" class="cls-2" d="M385.965 58.517a.484.484 0 1 1 .51-.488.476.476 0 0 1-.51.488zm.42 4.245h-.81v-3.645h.81z" transform="translate(-372.208 -57.445)"/>
            <path id="패스_3902" data-name="패스 3902" class="cls-2" d="M404.909 62.036h-.81v-5.317h.81z" transform="translate(-388.482 -56.719)"/>
            <path id="패스_3903" data-name="패스 3903" class="cls-2" d="m422.173 73.143-.06-.42h-.022a1.242 1.242 0 0 1-1.065.5 1.061 1.061 0 0 1-1.118-1.073c0-.9.78-1.365 2.13-1.365v-.067c0-.48-.255-.72-.757-.72a1.7 1.7 0 0 0-.952.27l-.165-.533a2.332 2.332 0 0 1 1.253-.315c.952 0 1.433.5 1.433 1.508v1.342a5.616 5.616 0 0 0 .052.87zm-.113-1.815c-.9 0-1.35.218-1.35.735a.516.516 0 0 0 .555.57.775.775 0 0 0 .8-.742z" transform="translate(-402.304 -67.826)"/>
            <path id="패스_3904" data-name="패스 3904" class="cls-2" d="M456.2 62.119a1.237 1.237 0 0 1-1.146-.645h-.016l-.046.563h-.69c.022-.292.03-.623.03-.982v-4.336h.811v2.206h.015a1.25 1.25 0 0 1 1.162-.607c.878 0 1.493.75 1.493 1.845a1.754 1.754 0 0 1-1.613 1.956zm-.165-3.165a.932.932 0 0 0-.893.967v.638a.893.893 0 0 0 .879.915c.607 0 .968-.495.968-1.282.004-.736-.371-1.239-.949-1.239z" transform="translate(-432.379 -56.719)"/>
            <path id="패스_3905" data-name="패스 3905" class="cls-2" d="M492.587 62.036h-.809v-5.317h.809z" transform="translate(-465.141 -56.719)"/>
            <path id="패스_3906" data-name="패스 3906" class="cls-2" d="M510.948 71.467h-2.431a1.046 1.046 0 0 0 1.148 1.08 2.733 2.733 0 0 0 .982-.172l.126.563a3.039 3.039 0 0 1-1.222.225 1.692 1.692 0 0 1-1.815-1.837 1.78 1.78 0 0 1 1.724-1.958 1.808 1.808 0 0 1 1.488 2.1zm-.743-.577c0-.563-.285-.96-.8-.96a.962.962 0 0 0-.886.96z" transform="translate(-479.093 -67.777)"/>
            <path id="패스_3907" data-name="패스 3907" class="cls-2" d="M560.146 73.231a1.735 1.735 0 0 1-1.755-1.875 1.775 1.775 0 0 1 1.816-1.927 1.721 1.721 0 0 1 1.755 1.868 1.786 1.786 0 0 1-1.816 1.934zm.031-3.21c-.585 0-.96.547-.96 1.312s.382 1.3.952 1.3.951-.585.951-1.313-.373-1.299-.943-1.299z" transform="translate(-523.382 -67.832)"/>
            <path id="패스_3908" data-name="패스 3908" class="cls-2" d="M599.23 73.143h-.809v-2.092c0-.645-.247-.968-.735-.968a.842.842 0 0 0-.811.893v2.168h-.809v-2.6c0-.322-.009-.668-.03-1.043h.713l.038.563h.022a1.308 1.308 0 0 1 1.155-.638c.764 0 1.267.585 1.267 1.537v2.183z" transform="translate(-556.295 -67.826)"/>
            <path id="패스_3909" data-name="패스 3909" class="cls-2" d="M648.189 64.316h-.889v1.77q0 .676.471.675a1.607 1.607 0 0 0 .36-.038l.022.615a1.807 1.807 0 0 1-.629.09c-.638 0-1.019-.352-1.019-1.275v-1.837h-.532v-.608h.532v-.668l.794-.24v.907h.891z" transform="translate(-599.955 -62.036)"/>
            <path id="패스_3910" data-name="패스 3910" class="cls-2" d="M675.721 62.036h-.811v-2.077c0-.652-.247-.982-.735-.982a.793.793 0 0 0-.809.863v2.2h-.811v-5.321h.811v2.189h.015a1.226 1.226 0 0 1 1.1-.593c.772 0 1.244.6 1.244 1.553z" transform="translate(-623.197 -56.719)"/>
            <path id="패스_3911" data-name="패스 3911" class="cls-2" d="M708.321 71.467h-2.431a1.045 1.045 0 0 0 1.147 1.08 2.731 2.731 0 0 0 .982-.172l.127.563a3.042 3.042 0 0 1-1.223.225 1.692 1.692 0 0 1-1.815-1.837 1.78 1.78 0 0 1 1.724-1.958 1.532 1.532 0 0 1 1.516 1.733 1.561 1.561 0 0 1-.027.366zm-.743-.577c0-.563-.284-.96-.8-.96a.961.961 0 0 0-.886.96z" transform="translate(-651.658 -67.777)"/>
        </g>
    </g>
</svg>
