<svg xmlns="http://www.w3.org/2000/svg" width="400" height="60" viewBox="0 0 400 60">
    <defs>
        <clipPath id="clip-path">
            <path id="패스_3557" d="M1103.466 184.686a13 13 0 1 0-13-13 13 13 0 0 0 13 13z" class="cls-1" transform="translate(-1090.462 -158.689)"/>
        </clipPath>
        <style>
            .cls-1{fill:none}.cls-2{fill:#ebecef}.cls-3{fill:#a4a6a8}.cls-4{fill:#939597}
        </style>
    </defs>
    <g id="logo_bank" transform="translate(20 -1939)">
        <g id="logo_kakaobank" transform="translate(111 -122)">
            <rect id="사각형_561" width="60" height="60" class="cls-2" rx="20" transform="translate(39 2061)"/>
            <g id="logo_kakaobank-2">
                <path id="사각형_8025" d="M0 0H60V60H0z" class="cls-1" transform="translate(39 2061)"/>
                <path id="패스_3491" d="M377.76 224.77a6.95 6.95 0 0 0-3.819-12.756h-11.648a.4.4 0 0 0-.4.4v24.706a.4.4 0 0 0 .4.4h11.649a6.95 6.95 0 0 0 3.819-12.756zm-5.718 5.806h-2.188v-11.612h2.188z" class="cls-3" transform="translate(-300.89 1866.236)"/>
            </g>
        </g>
        <g id="logo_nh" transform="translate(-203 -122)">
            <rect id="사각형_7946" width="60" height="60" class="cls-2" rx="20" transform="translate(183 2061)"/>
            <g id="logo_nh-2" transform="translate(-198.983 1905.656)">
                <path id="사각형_8023" d="M0 0H60V60H0z" class="cls-1" transform="translate(381.983 155.344)"/>
                <path id="패스_3559" d="M435.236 171.345l-5.6 2.814-5.6-2.814 5.6 10.653z" class="cls-3" transform="translate(-17.647)"/>
                <path id="패스_3560" d="M419.548 182.146l-.085-.075 4-1.679v-5.62l-6.946 2.959-3.848 7.29a5.842 5.842 0 1 1-1.367 0l-3.844-7.29-6.937-2.959v5.62l3.995 1.679-.088.075a11.5 11.5 0 1 0 15.122 0z" class="cls-3" transform="translate(0 -2.569)"/>
            </g>
        </g>
        <g id="logo_kb" transform="translate(98 -122)">
            <rect id="사각형_588" width="60" height="60" class="cls-2" rx="20" transform="translate(-33 2061)"/>
            <g id="logo_kb-2">
                <path id="사각형_8024" d="M0 0H60V60H0z" class="cls-1" transform="translate(-33 2061)"/>
                <path id="패스_3117" d="M279.637 107.414a43.6 43.6 0 0 0 .566 7.176.088.088 0 0 0 .014.04c.329.482.671 2.395.941 2.994a.2.2 0 0 0 .06.059 2.417 2.417 0 0 0 1.25.331.051.051 0 0 0 .053-.047 7.735 7.735 0 0 0-.023-1.867c-.147-2.234-.31-5.788-.285-7.942 1.748.973 8.3 5.674 11.722 6.645a.227.227 0 0 0 .217-.046 1.185 1.185 0 0 1 .5-.31.667.667 0 0 0 .182-.585c2.164-.08 5.169-.911 6.744-2.892 1.085-1.362 1.067-3.257.39-3.9a2.554 2.554 0 0 1-.284-.18 4.916 4.916 0 0 0-3.937-1.216 7.731 7.731 0 0 0-3.7 1.328s-.01 0-.012-.006c-.081-1.459.5-3.312-.009-4.511a.1.1 0 0 0-.106-.064 3.728 3.728 0 0 0-1.536.5.189.189 0 0 0-.07.156 9.515 9.515 0 0 1-.279 2.283c-.031.032-.022.066-.031.138a26.16 26.16 0 0 0-.014 5.476.927.927 0 0 0 .461.356 3.54 3.54 0 0 0 1.429-.3.859.859 0 0 1 .226-.039c.059-.005.083-.074.078-.145a2.755 2.755 0 0 1 .015-.5 4.753 4.753 0 0 1 3.456-3.383 2.45 2.45 0 0 1 2.35.767 3 3 0 0 1-.339 2.413 4.8 4.8 0 0 1-2.611 2.069 9.9 9.9 0 0 1-3.971.551c-1.323-.8-3.543-2.646-5.489-3.383a6.2 6.2 0 0 1-1.106-.8c-.945-.761-2.966-2.077-4.166-2.886-.008-.007-.008-.015-.008-.033a.56.56 0 0 1 .016-.253.177.177 0 0 1 .093-.105 25.579 25.579 0 0 0 2.35-1.479 1.035 1.035 0 0 1 .2-.136c2.669-1.617 7.352-3.809 9.4-5.927a.18.18 0 0 0 .029-.124.947.947 0 0 1 .039-.256 1.328 1.328 0 0 0 .022-.791.13.13 0 0 0-.08-.087 5.547 5.547 0 0 0-3.9 1.824 4.7 4.7 0 0 1-1.079.718c-1.53.87-5.156 3.12-6.885 4.233-.023.015-.044 0-.044-.021a58.642 58.642 0 0 1 .927-7.171.227.227 0 0 0-.03-.162c-.141-.213-.223-.466-.275-.519a.067.067 0 0 0-.024-.019.984.984 0 0 0-.744-.043c-.216.049-.486.222-.829.305a.119.119 0 0 0-.091.071 29.038 29.038 0 0 0-1.732 8.3c0 .009 0 .029-.019.017a40.23 40.23 0 0 0-4.216-2.342.266.266 0 0 0-.065-.016 3.126 3.126 0 0 1-1.033-.479c-.379-.23-1.126-.758-1.593-1.028a.221.221 0 0 0-.159-.038 2.944 2.944 0 0 0-1.366.92c-.069.1.074.336.057.479a.044.044 0 0 0 .013.041 13.828 13.828 0 0 0 2.794 1.888c1.407.76 2.841 1.48 3.435 1.857a.112.112 0 0 1 .035.037 1.075 1.075 0 0 0 .319.24 3.077 3.077 0 0 1 .42.26c.038.035.02.074-.019.1-1.49 1.037-4.448 2.957-5.861 3.9a12.6 12.6 0 0 1-1.171.56 1.527 1.527 0 0 0-.807.657c-.025.051.009.078.046.09.227.064.283.225.44.286a.566.566 0 0 0 .178.02 5.434 5.434 0 0 0 1.74-.6c1.058-.47 4.348-2.488 4.746-2.72a.039.039 0 0 1 .027-.008.993.993 0 0 0 .544-.277 5.7 5.7 0 0 1 .934-.557l.537-.3z" class="cls-3" transform="translate(-289.445 1984.706)"/>
            </g>
        </g>
        <g id="logo_kbank" transform="translate(-2 -122)">
            <rect id="사각형_7949" width="60" height="60" class="cls-2" rx="20" transform="translate(322 2061)"/>
            <g id="logo_kbank-2" transform="translate(4.999 1.29)">
                <path id="사각형_8027" d="M0 0H60V60H0z" class="cls-1" transform="translate(317.001 2059.71)"/>
                <path id="패스_3567" d="M412.587 191.7l-12.5-9.291v24.111h4.974v-14.312l7.524 5.727 7.527-5.726v14.314h4.974v-24.108z" class="cls-3" transform="translate(-65.587 1895.298)"/>
            </g>
        </g>
        <g id="logo_woori" transform="translate(-835.089 1800.689)">
            <rect id="사각형_7947" width="60" height="60" class="cls-2" rx="20" transform="translate(1070.089 138.311)"/>
            <g id="logo_woori-2">
                <path id="사각형_8026" d="M0 0H60V60H0z" class="cls-1" transform="translate(1070.089 138.311)"/>
                <path id="패스_3493" d="M1103.466 184.631a13 13 0 1 0-13-13 13 13 0 0 0 13 13z" class="cls-4" transform="translate(-3.373 -3.312)"/>
                <g id="그룹_5761" clip-path="url(#clip-path)" transform="translate(1087.089 155.322)">
                    <g id="그룹_5760" transform="translate(-0.676 4.361)">
                        <g id="그룹_5759">
                            <path id="패스_3494" d="M1100.063 200.648c5.721 0 10.612 1.6 12.718 3.857a13.276 13.276 0 0 0 1.082-5.259 13.8 13.8 0 0 0-27.593.005 13.264 13.264 0 0 0 1.084 5.254c2.101-2.259 6.999-3.857 12.709-3.857z" class="cls-4" transform="translate(-1086.27 -185.743)"/>
                            <path id="패스_3495" d="M1100.235 201.263c5.706 0 10.585 1.584 12.685 3.826a13.1 13.1 0 0 0 1.079-5.217 13.766 13.766 0 0 0-27.523.005 13.087 13.087 0 0 0 1.082 5.212c2.096-2.241 6.982-3.826 12.677-3.826z" class="cls-4" transform="translate(-1086.443 -186.344)"/>
                            <path id="패스_3496" d="M1100.407 201.878c5.691 0 10.558 1.571 12.652 3.794a12.925 12.925 0 0 0 1.077-5.175 13.732 13.732 0 0 0-27.453 0 12.9 12.9 0 0 0 1.08 5.17c2.09-2.218 6.964-3.789 12.644-3.789z" class="cls-4" transform="translate(-1086.617 -186.943)"/>
                            <path id="패스_3497" d="M1100.58 202.493c5.677 0 10.531 1.558 12.62 3.763a12.749 12.749 0 0 0 1.075-5.133 13.7 13.7 0 0 0-27.382 0 12.736 12.736 0 0 0 1.078 5.128c2.082-2.2 6.943-3.758 12.609-3.758z" class="cls-4" transform="translate(-1086.791 -187.544)"/>
                            <path id="패스_3498" d="M1100.752 203.107c5.662 0 10.5 1.545 12.587 3.732a12.577 12.577 0 0 0 1.072-5.09 13.666 13.666 0 0 0-27.312 0 12.568 12.568 0 0 0 1.075 5.086c2.079-2.183 6.926-3.728 12.578-3.728z" class="cls-4" transform="translate(-1086.966 -188.144)"/>
                            <path id="패스_3499" d="M1100.924 203.722c5.647 0 10.477 1.532 12.554 3.7a12.4 12.4 0 0 0 1.07-5.048c0-7.164-6.1-13.054-13.624-13.054s-13.617 5.892-13.617 13.058a12.4 12.4 0 0 0 1.072 5.044c2.074-2.168 6.91-3.7 12.545-3.7z" class="cls-4" transform="translate(-1087.14 -188.744)"/>
                            <path id="패스_3500" d="M1101.1 204.337c5.633 0 10.45 1.519 12.522 3.67a12.232 12.232 0 0 0 1.068-5.006c0-7.1-6.087-12.964-13.589-12.964s-13.587 5.863-13.587 12.963a12.227 12.227 0 0 0 1.07 5c2.068-2.145 6.891-3.663 12.516-3.663z" class="cls-4" transform="translate(-1087.314 -189.344)"/>
                            <path id="패스_3501" d="M1101.268 204.952c5.618 0 10.423 1.506 12.489 3.638a12.063 12.063 0 0 0 1.065-4.964c0-7.044-6.071-12.874-13.554-12.874s-13.547 5.833-13.547 12.878a12.061 12.061 0 0 0 1.067 4.96c2.063-2.133 6.873-3.638 12.48-3.638z" class="cls-4" transform="translate(-1087.487 -189.944)"/>
                            <path id="패스_3502" d="M1101.441 205.566c5.6 0 10.4 1.493 12.456 3.607a11.894 11.894 0 0 0 1.063-4.922c0-6.984-6.055-12.784-13.519-12.784s-13.512 5.8-13.512 12.788a11.894 11.894 0 0 0 1.065 4.919c2.056-2.115 6.855-3.608 12.447-3.608z" class="cls-4" transform="translate(-1087.661 -190.544)"/>
                            <path id="패스_3503" d="M1101.612 206.181c5.589 0 10.369 1.479 12.423 3.576a11.721 11.721 0 0 0 1.06-4.88c0-6.924-6.039-12.695-13.484-12.695s-13.476 5.773-13.476 12.7a11.727 11.727 0 0 0 1.063 4.877c2.052-2.098 6.838-3.578 12.414-3.578z" class="cls-4" transform="translate(-1087.835 -191.145)"/>
                            <path id="패스_3504" d="M1101.784 206.8c5.574 0 10.342 1.466 12.391 3.545a11.553 11.553 0 0 0 1.058-4.838c0-6.863-6.023-12.6-13.448-12.6s-13.441 5.743-13.441 12.607a11.56 11.56 0 0 0 1.06 4.835c2.045-2.087 6.819-3.549 12.38-3.549z" class="cls-4" transform="translate(-1088.009 -191.744)"/>
                            <path id="패스_3505" d="M1101.957 207.411c5.559 0 10.315 1.453 12.358 3.514a11.385 11.385 0 0 0 1.056-4.8c0-6.8-6.008-12.515-13.413-12.515s-13.406 5.713-13.406 12.517a11.4 11.4 0 0 0 1.057 4.793c2.04-2.056 6.801-3.509 12.348-3.509z" class="cls-4" transform="translate(-1088.183 -192.345)"/>
                            <path id="패스_3506" d="M1102.129 208.025c5.544 0 10.288 1.44 12.325 3.482a11.218 11.218 0 0 0 1.053-4.753c0-6.743-5.992-12.425-13.378-12.425s-13.371 5.684-13.371 12.427a11.227 11.227 0 0 0 1.055 4.751c2.035-2.042 6.787-3.482 12.316-3.482z" class="cls-4" transform="translate(-1088.357 -192.945)"/>
                            <path id="패스_3507" d="M1102.3 208.64c5.529 0 10.261 1.427 12.292 3.451a11.055 11.055 0 0 0 1.051-4.711c0-6.683-5.976-12.335-13.343-12.335s-13.336 5.654-13.336 12.337a11.067 11.067 0 0 0 1.053 4.709c2.031-2.024 6.767-3.451 12.283-3.451z" class="cls-4" transform="translate(-1088.531 -193.545)"/>
                            <path id="패스_3508" d="M1102.473 209.254c5.515 0 10.234 1.414 12.259 3.42a10.889 10.889 0 0 0 1.048-4.669c0-6.623-5.96-12.245-13.308-12.245s-13.3 5.624-13.3 12.247a10.9 10.9 0 0 0 1.05 4.667c2.025-2.006 6.749-3.42 12.251-3.42z" class="cls-4" transform="translate(-1088.705 -194.145)"/>
                            <path id="패스_3509" d="M1102.645 209.869c5.5 0 10.207 1.4 12.226 3.389a10.729 10.729 0 0 0 1.046-4.627c0-6.563-5.944-12.155-13.273-12.155s-13.265 5.594-13.265 12.157a10.747 10.747 0 0 0 1.048 4.626c2.02-1.989 6.731-3.39 12.218-3.39z" class="cls-4" transform="translate(-1088.879 -194.746)"/>
                            <path id="패스_3510" d="M1102.818 210.485c5.485 0 10.18 1.388 12.194 3.358a10.567 10.567 0 0 0 1.044-4.585c0-6.5-5.928-12.066-13.238-12.066-7.294 0-13.23 5.564-13.23 12.067a10.585 10.585 0 0 0 1.045 4.584c2.014-1.971 6.712-3.358 12.185-3.358z" class="cls-4" transform="translate(-1089.053 -195.346)"/>
                            <path id="패스_3511" d="M1102.99 211.1c5.47 0 10.152 1.374 12.161 3.327a10.4 10.4 0 0 0 1.041-4.543c0-6.442-5.913-11.976-13.2-11.976-7.275 0-13.2 5.534-13.2 11.977a10.424 10.424 0 0 0 1.043 4.542c2.011-1.954 6.697-3.327 12.155-3.327z" class="cls-4" transform="translate(-1089.227 -195.946)"/>
                            <path id="패스_3512" d="M1103.162 211.714c5.456 0 10.125 1.361 12.128 3.3a10.243 10.243 0 0 0 1.039-4.5c0-6.382-5.9-11.886-13.167-11.886-7.255 0-13.16 5.5-13.16 11.886a10.272 10.272 0 0 0 1.04 4.5c2.003-1.939 6.677-3.3 12.12-3.3z" class="cls-4" transform="translate(-1089.4 -196.547)"/>
                            <path id="패스_3513" d="M1103.335 212.328c5.441 0 10.1 1.348 12.1 3.264a10.085 10.085 0 0 0 1.037-4.458c0-6.322-5.881-11.8-13.132-11.8-7.235 0-13.125 5.475-13.125 11.8a10.109 10.109 0 0 0 1.038 4.458c1.992-1.915 6.653-3.264 12.082-3.264z" class="cls-4" transform="translate(-1089.575 -197.146)"/>
                            <path id="패스_3514" d="M1103.506 212.943c5.426 0 10.071 1.335 12.063 3.233a9.925 9.925 0 0 0 1.034-4.416c0-6.262-5.865-11.706-13.1-11.706-7.215 0-13.089 5.445-13.089 11.706a9.948 9.948 0 0 0 1.036 4.416c1.994-1.897 6.643-3.233 12.056-3.233z" class="cls-4" transform="translate(-1089.749 -197.747)"/>
                            <path id="패스_3515" d="M1103.678 213.558c5.411 0 10.044 1.322 12.03 3.2a9.771 9.771 0 0 0 1.032-4.374c0-6.2-5.849-11.616-13.062-11.616-7.2 0-13.054 5.415-13.054 11.616a9.8 9.8 0 0 0 1.033 4.374c1.986-1.878 6.622-3.2 12.021-3.2z" class="cls-4" transform="translate(-1089.922 -198.347)"/>
                            <path id="패스_3516" d="M1103.851 214.173c5.4 0 10.017 1.309 12 3.17a9.613 9.613 0 0 0 1.03-4.332c0-6.142-5.834-11.526-13.026-11.526-7.176 0-13.019 5.385-13.019 11.526a9.639 9.639 0 0 0 1.031 4.332c1.977-1.861 6.6-3.17 11.984-3.17z" class="cls-4" transform="translate(-1090.097 -198.947)"/>
                            <path id="패스_3517" d="M1104.023 214.787c5.382 0 9.99 1.3 11.964 3.139a9.457 9.457 0 0 0 1.027-4.29c0-6.082-5.818-11.437-12.991-11.437-7.157 0-12.984 5.356-12.984 11.436a9.485 9.485 0 0 0 1.028 4.29c1.975-1.842 6.586-3.138 11.956-3.138z" class="cls-4" transform="translate(-1090.27 -199.547)"/>
                            <path id="패스_3518" d="M1104.2 215.4c5.367 0 9.963 1.283 11.931 3.108a9.308 9.308 0 0 0 1.025-4.248c0-6.021-5.8-11.347-12.956-11.347-7.137 0-12.948 5.326-12.948 11.346a9.337 9.337 0 0 0 1.025 4.248c1.966-1.822 6.564-3.107 11.923-3.107z" class="cls-4" transform="translate(-1090.445 -200.147)"/>
                            <path id="패스_3519" d="M1104.367 216.017c5.352 0 9.936 1.27 11.9 3.077a9.148 9.148 0 0 0 1.022-4.205c0-5.961-5.786-11.257-12.921-11.257-7.117 0-12.914 5.3-12.914 11.256a9.184 9.184 0 0 0 1.023 4.207c1.965-1.809 6.551-3.078 11.89-3.078z" class="cls-4" transform="translate(-1090.618 -200.747)"/>
                            <path id="패스_3520" d="M1104.539 216.632c5.338 0 9.909 1.257 11.866 3.046a9 9 0 0 0 1.02-4.163c0-5.9-5.771-11.167-12.886-11.167-7.1 0-12.878 5.266-12.878 11.166a9.033 9.033 0 0 0 1.021 4.165c1.959-1.791 6.533-3.047 11.857-3.047z" class="cls-4" transform="translate(-1090.792 -201.348)"/>
                            <path id="패스_3521" d="M1104.712 217.246c5.323 0 9.882 1.243 11.833 3.014a8.848 8.848 0 0 0 1.018-4.121c0-5.841-5.754-11.077-12.851-11.077-7.078 0-12.843 5.237-12.843 11.076a8.885 8.885 0 0 0 1.018 4.123c1.954-1.772 6.513-3.015 11.825-3.015z" class="cls-4" transform="translate(-1090.966 -201.947)"/>
                            <path id="패스_3522" d="M1104.884 217.861c5.308 0 9.855 1.23 11.8 2.983a8.7 8.7 0 0 0 1.016-4.079c0-5.781-5.739-10.987-12.816-10.987-7.059 0-12.808 5.207-12.808 10.985a8.738 8.738 0 0 0 1.016 4.081c1.948-1.752 6.497-2.983 11.792-2.983z" class="cls-4" transform="translate(-1091.14 -202.548)"/>
                            <path id="패스_3523" d="M1105.055 218.475c5.294 0 9.828 1.217 11.768 2.952a8.551 8.551 0 0 0 1.013-4.037c0-5.721-5.723-10.9-12.781-10.9-7.039 0-12.772 5.177-12.772 10.9a8.592 8.592 0 0 0 1.013 4.039c1.944-1.736 6.479-2.954 11.759-2.954z" class="cls-4" transform="translate(-1091.314 -203.148)"/>
                            <path id="패스_3524" d="M1105.228 219.09c5.279 0 9.8 1.2 11.735 2.921a8.4 8.4 0 0 0 1.011-3.995c0-5.661-5.707-10.808-12.745-10.808-7.02 0-12.737 5.147-12.737 10.805a8.442 8.442 0 0 0 1.011 4c1.936-1.718 6.46-2.923 11.725-2.923z" class="cls-4" transform="translate(-1091.488 -203.748)"/>
                            <path id="패스_3525" d="M1105.4 219.7c5.264 0 9.774 1.191 11.7 2.89a8.257 8.257 0 0 0 1.008-3.953c0-5.6-5.691-10.718-12.71-10.718-7 0-12.7 5.117-12.7 10.715a8.3 8.3 0 0 0 1.008 3.955c1.932-1.689 6.443-2.889 11.694-2.889z" class="cls-4" transform="translate(-1091.662 -204.348)"/>
                            <path id="패스_3526" fill="#95989a" d="M1105.49 220.29c5.257 0 9.761 1.183 11.686 2.871a8.177 8.177 0 0 0 1.007-3.927c0-5.564-5.684-10.652-12.693-10.652-6.991 0-12.685 5.088-12.685 10.649a8.214 8.214 0 0 0 1.007 3.93c1.929-1.688 6.435-2.871 11.678-2.871z" transform="translate(-1091.751 -204.9)"/>
                            <path id="패스_3527" fill="#989a9c" d="M1105.58 220.874c5.25 0 9.748 1.176 11.67 2.852a8.091 8.091 0 0 0 1.006-3.9c0-5.528-5.676-10.586-12.676-10.586-6.982 0-12.668 5.058-12.668 10.584a8.128 8.128 0 0 0 1.005 3.9c1.927-1.674 6.426-2.85 11.663-2.85z" transform="translate(-1091.841 -205.451)"/>
                            <path id="패스_3528" fill="#9b9d9f" d="M1105.67 221.458c5.243 0 9.734 1.168 11.654 2.833a8.007 8.007 0 0 0 1-3.875c0-5.492-5.668-10.52-12.658-10.52-6.973 0-12.651 5.028-12.651 10.518a8.043 8.043 0 0 0 1 3.878c1.932-1.666 6.425-2.834 11.655-2.834z" transform="translate(-1091.931 -206.002)"/>
                            <path id="패스_3529" fill="#9ea0a1" d="M1105.759 222.043c5.235 0 9.721 1.161 11.638 2.815a7.926 7.926 0 0 0 1-3.849c0-5.456-5.661-10.455-12.641-10.455-6.964 0-12.633 5-12.633 10.452a7.959 7.959 0 0 0 1 3.852c1.926-1.658 6.414-2.814 11.636-2.815z" transform="translate(-1092.021 -206.554)"/>
                            <path id="패스_3530" fill="#a1a2a4" d="M1105.849 222.627c5.228 0 9.708 1.153 11.622 2.8a7.841 7.841 0 0 0 1-3.823c0-5.42-5.653-10.389-12.624-10.389-6.954 0-12.616 4.969-12.616 10.386a7.872 7.872 0 0 0 1 3.827c1.921-1.647 6.403-2.8 11.618-2.801z" transform="translate(-1092.11 -207.105)"/>
                            <path id="패스_3531" fill="#a4a5a7" d="M1105.939 223.212c5.221 0 9.7 1.146 11.607 2.777a7.759 7.759 0 0 0 1-3.8c0-5.384-5.646-10.323-12.607-10.323-6.944 0-12.6 4.939-12.6 10.32a7.79 7.79 0 0 0 1 3.8c1.915-1.629 6.391-2.774 11.6-2.774z" transform="translate(-1092.2 -207.656)"/>
                            <path id="패스_3532" fill="#a7a8a9" d="M1106.028 223.8c5.214 0 9.682 1.138 11.591 2.758a7.675 7.675 0 0 0 1-3.772c0-5.347-5.638-10.257-12.589-10.257-6.936 0-12.582 4.91-12.582 10.254a7.707 7.707 0 0 0 1 3.775c1.909-1.623 6.379-2.758 11.58-2.758z" transform="translate(-1092.29 -208.208)"/>
                            <path id="패스_3533" fill="#aaabac" d="M1106.118 224.381c5.207 0 9.669 1.13 11.575 2.74a7.594 7.594 0 0 0 1-3.746c0-5.311-5.63-10.191-12.572-10.191-6.926 0-12.564 4.88-12.564 10.189a7.625 7.625 0 0 0 1 3.749c1.903-1.611 6.367-2.741 11.561-2.741z" transform="translate(-1092.38 -208.759)"/>
                            <path id="패스_3534" fill="#adaeaf" d="M1106.208 224.965c5.2 0 9.656 1.123 11.559 2.721a7.512 7.512 0 0 0 1-3.72c0-5.275-5.623-10.126-12.555-10.126-6.917 0-12.547 4.851-12.547 10.123a7.546 7.546 0 0 0 .995 3.724c1.902-1.599 6.361-2.721 11.548-2.722z" transform="translate(-1092.469 -209.31)"/>
                            <path id="패스_3535" fill="#b0b1b2" d="M1106.3 225.549c5.193 0 9.643 1.115 11.543 2.7a7.431 7.431 0 0 0 .995-3.694c0-5.239-5.615-10.06-12.538-10.06s-12.53 4.821-12.53 10.057a7.458 7.458 0 0 0 .993 3.7c1.901-1.588 6.354-2.702 11.537-2.703z" transform="translate(-1092.559 -209.861)"/>
                            <path id="패스_3536" fill="#b3b4b5" d="M1106.387 226.134c5.185 0 9.63 1.108 11.527 2.683a7.354 7.354 0 0 0 .993-3.668c0-5.2-5.608-9.994-12.52-9.994s-12.513 4.791-12.513 9.991a7.379 7.379 0 0 0 .992 3.672c1.901-1.576 6.348-2.683 11.521-2.684z" transform="translate(-1092.648 -210.413)"/>
                            <path id="패스_3537" fill="#b7b7b8" d="M1106.476 226.718c5.178 0 9.617 1.1 11.511 2.664a7.272 7.272 0 0 0 .992-3.642c0-5.166-5.6-9.928-12.5-9.928s-12.5 4.762-12.5 9.925a7.3 7.3 0 0 0 .99 3.646c1.9-1.565 6.341-2.664 11.507-2.665z" transform="translate(-1092.738 -210.964)"/>
                            <path id="패스_3538" fill="#bababb" d="M1106.566 227.3c5.171 0 9.6 1.093 11.5 2.646a7.19 7.19 0 0 0 .99-3.617c0-5.13-5.592-9.862-12.486-9.862s-12.478 4.732-12.478 9.86a7.219 7.219 0 0 0 .988 3.621c1.892-1.553 6.327-2.648 11.486-2.648z" transform="translate(-1092.828 -211.516)"/>
                            <path id="패스_3539" fill="#bdbdbe" d="M1106.656 227.887c5.164 0 9.591 1.085 11.479 2.627a7.109 7.109 0 0 0 .99-3.591c0-5.094-5.585-9.8-12.469-9.8s-12.461 4.7-12.461 9.794a7.131 7.131 0 0 0 .988 3.595c1.892-1.54 6.317-2.623 11.473-2.625z" transform="translate(-1092.917 -212.067)"/>
                            <path id="패스_3540" fill="#c0c0c1" d="M1106.746 228.471c5.157 0 9.578 1.077 11.464 2.608a7.031 7.031 0 0 0 .988-3.565c0-5.058-5.577-9.731-12.451-9.731s-12.444 4.673-12.444 9.728a7.057 7.057 0 0 0 .985 3.569c1.889-1.531 6.312-2.607 11.458-2.609z" transform="translate(-1093.007 -212.619)"/>
                            <path id="패스_3541" fill="#c3c3c4" d="M1106.835 229.056c5.15 0 9.565 1.07 11.448 2.589a6.953 6.953 0 0 0 .987-3.539c0-5.022-5.57-9.665-12.434-9.665s-12.426 4.643-12.426 9.662a6.979 6.979 0 0 0 .984 3.543c1.885-1.521 6.306-2.589 11.441-2.59z" transform="translate(-1093.097 -213.17)"/>
                            <path id="패스_3542" fill="#c7c6c7" d="M1106.925 229.64c5.142 0 9.552 1.062 11.432 2.57a6.875 6.875 0 0 0 .985-3.513c0-4.986-5.562-9.6-12.416-9.6s-12.409 4.613-12.409 9.6a6.9 6.9 0 0 0 .982 3.518c1.883-1.515 6.296-2.574 11.426-2.575z" transform="translate(-1093.187 -213.721)"/>
                            <path id="패스_3543" fill="#cacaca" d="M1107.015 230.225c5.135 0 9.539 1.055 11.416 2.552a6.8 6.8 0 0 0 .984-3.487c0-4.949-5.554-9.533-12.4-9.533s-12.392 4.584-12.392 9.53a6.815 6.815 0 0 0 .981 3.492c1.881-1.499 6.288-2.552 11.411-2.554z" transform="translate(-1093.276 -214.273)"/>
                            <path id="패스_3544" fill="#cdcdcd" d="M1107.1 230.809c5.129 0 9.526 1.047 11.4 2.533a6.719 6.719 0 0 0 .982-3.462c0-4.913-5.547-9.467-12.382-9.467s-12.375 4.554-12.375 9.465a6.736 6.736 0 0 0 .979 3.466c1.884-1.488 6.284-2.533 11.396-2.535z" transform="translate(-1093.366 -214.824)"/>
                            <path id="패스_3545" fill="#d1d0d1" d="M1107.194 231.393c5.121 0 9.513 1.039 11.384 2.514a6.641 6.641 0 0 0 .981-3.436c0-4.877-5.539-9.4-12.365-9.4s-12.357 4.524-12.357 9.4a6.659 6.659 0 0 0 .978 3.44c1.875-1.478 6.27-2.516 11.379-2.518z" transform="translate(-1093.456 -215.375)"/>
                            <path id="패스_3546" fill="#d5d4d4" d="M1107.284 231.978c5.114 0 9.5 1.032 11.368 2.5a6.566 6.566 0 0 0 .979-3.41c0-4.841-5.531-9.336-12.348-9.336s-12.34 4.495-12.34 9.333a6.581 6.581 0 0 0 .976 3.414c1.874-1.469 6.263-2.499 11.365-2.501z" transform="translate(-1093.546 -215.927)"/>
                            <path id="패스_3547" fill="#d8d7d8" d="M1107.374 232.562c5.107 0 9.487 1.024 11.352 2.477a6.491 6.491 0 0 0 .978-3.384c0-4.8-5.524-9.27-12.33-9.27s-12.323 4.465-12.323 9.267a6.5 6.5 0 0 0 .975 3.389c1.874-1.454 6.253-2.477 11.348-2.479z" transform="translate(-1093.635 -216.478)"/>
                            <path id="패스_3548" fill="#dcdbdb" d="M1107.464 233.147c5.1 0 9.473 1.017 11.336 2.458a6.41 6.41 0 0 0 .977-3.358c0-4.769-5.516-9.2-12.313-9.2s-12.306 4.436-12.306 9.2a6.429 6.429 0 0 0 .973 3.363c1.869-1.447 6.244-2.461 11.333-2.463z" transform="translate(-1093.725 -217.029)"/>
                            <path id="패스_3549" fill="#e0dfdf" d="M1107.553 233.732c5.092 0 9.461 1.009 11.32 2.439a6.336 6.336 0 0 0 .975-3.332c0-4.732-5.508-9.138-12.3-9.138s-12.289 4.406-12.289 9.135a6.351 6.351 0 0 0 .972 3.337c1.869-1.432 6.241-2.439 11.322-2.441z" transform="translate(-1093.814 -217.581)"/>
                            <path id="패스_3550" fill="#e3e2e2" d="M1107.642 234.316c5.085 0 9.447 1 11.3 2.42a6.26 6.26 0 0 0 .974-3.306c0-4.7-5.5-9.072-12.279-9.072s-12.271 4.376-12.271 9.07a6.275 6.275 0 0 0 .97 3.311c1.864-1.422 6.232-2.421 11.306-2.423z" transform="translate(-1093.904 -218.132)"/>
                            <path id="패스_3551" fill="#e7e6e6" d="M1107.732 234.9c5.078 0 9.434.994 11.289 2.4a6.187 6.187 0 0 0 .973-3.281c0-4.66-5.493-9.007-12.261-9.007s-12.254 4.347-12.254 9a6.2 6.2 0 0 0 .969 3.286c1.857-1.404 6.217-2.398 11.284-2.398z" transform="translate(-1093.994 -218.683)"/>
                            <path id="패스_3552" fill="#ebeaea" d="M1107.822 235.484c5.071 0 9.421.986 11.273 2.383a6.111 6.111 0 0 0 .971-3.255c0-4.624-5.486-8.941-12.244-8.941s-12.237 4.317-12.237 8.938a6.126 6.126 0 0 0 .967 3.26c1.856-1.398 6.21-2.383 11.27-2.385z" transform="translate(-1094.083 -219.234)"/>
                            <path id="패스_3553" fill="#efeeee" d="M1107.912 236.069c5.064 0 9.408.979 11.256 2.364a6.037 6.037 0 0 0 .97-3.229c0-4.588-5.478-8.875-12.227-8.875s-12.22 4.287-12.22 8.872a6.047 6.047 0 0 0 .966 3.234c1.853-1.387 6.202-2.364 11.255-2.366z" transform="translate(-1094.173 -219.786)"/>
                            <path id="패스_3554" fill="#f3f2f2" d="M1108 236.653c5.057 0 9.4.971 11.241 2.345a5.966 5.966 0 0 0 .968-3.2c0-4.552-5.47-8.809-12.209-8.809s-12.2 4.258-12.2 8.806a5.975 5.975 0 0 0 .964 3.208c1.849-1.378 6.192-2.347 11.236-2.35z" transform="translate(-1094.263 -220.337)"/>
                            <path id="패스_3555" fill="#f8f8f8" d="M1108.091 237.238c5.05 0 9.382.964 11.225 2.326a5.89 5.89 0 0 0 .967-3.177c0-4.515-5.463-8.743-12.192-8.743s-12.185 4.228-12.185 8.741a5.9 5.9 0 0 0 .963 3.183c1.847-1.368 6.183-2.328 11.222-2.33z" transform="translate(-1094.352 -220.888)"/>
                            <path id="패스_3556" fill="#fff" d="M1108.181 237.822c5.043 0 9.369.956 11.209 2.307a5.815 5.815 0 0 0 .966-3.151c0-4.479-5.455-8.678-12.175-8.678s-12.168 4.2-12.168 8.675a5.826 5.826 0 0 0 .961 3.157c1.844-1.354 6.175-2.307 11.207-2.31z" transform="translate(-1094.442 -221.44)"/>
                        </g>
                    </g>
                </g>
                <path id="패스_3558" d="M1109.285 259.645a34.181 34.181 0 0 0-11.882 2.019 13.013 13.013 0 0 0 23.76 0 34.192 34.192 0 0 0-11.878-2.019z" class="cls-4" transform="translate(-9.195 -88.048)"/>
            </g>
        </g>
    </g>
</svg>
