<svg xmlns="http://www.w3.org/2000/svg" width="50" height="50" viewBox="0 0 50 50">
    <g data-name="사각형 17925" style="stroke-width:1.5px;stroke:#2d3239;fill:#fff">
        <path d="M5 0h14a8 8 0 0 1 8 8v19a5 5 0 0 1-5 5H7a7 7 0 0 1-7-7V5a5 5 0 0 1 5-5z" style="stroke:none" transform="translate(7.23 12.945)"/>
        <path d="M5 .75h14A7.25 7.25 0 0 1 26.25 8v19A4.25 4.25 0 0 1 22 31.25H7A6.25 6.25 0 0 1 .75 25V5A4.25 4.25 0 0 1 5 .75z" style="fill:none" transform="translate(7.23 12.945)"/>
    </g>
    <g data-name="사각형 17162" style="stroke-width:1.5px;stroke:#2d3239;fill:#fff">
        <path d="M5 0h14a8 8 0 0 1 8 8v21a5 5 0 0 1-5 5H5a5 5 0 0 1-5-5V5a5 5 0 0 1 5-5z" style="stroke:none" transform="translate(11.734 7)"/>
        <path d="M5 .75h14A7.25 7.25 0 0 1 26.25 8v21A4.25 4.25 0 0 1 22 33.25H5A4.25 4.25 0 0 1 .75 29V5A4.25 4.25 0 0 1 5 .75z" style="fill:none" transform="translate(11.734 7)"/>
    </g>
    <g data-name="교차 34" style="fill:none">
        <path d="M4 9a4 4 0 0 1-4-4V0h1a8 8 0 0 1 8 8v1z" style="stroke:none" transform="translate(29.73 7)"/>
        <path d="M7.483 7.5A6.51 6.51 0 0 0 1.5 1.519V5C1.5 6.38 2.622 7.5 4 7.5h3.482M9.002 9H4a4 4 0 0 1-4-4V0h1a8 8 0 0 1 8 8v1z" style="fill:#2d3239;stroke:none" transform="translate(29.73 7)"/>
    </g>
    <g data-name="사각형 17865" transform="rotate(90 2.867 24.867)" style="fill:none;stroke:#2d3239">
        <rect width="1.5" height="10" rx=".75" style="stroke:none"/>
        <rect x=".5" y=".5" width=".5" height="9" rx=".25" style="fill:none"/>
    </g>
    <g data-name="사각형 17939" transform="rotate(90 5.117 22.617)" style="fill:none;stroke:#2d3239">
        <rect width="1.5" height="10" rx=".75" style="stroke:none"/>
        <rect x=".5" y=".5" width=".5" height="9" rx=".25" style="fill:none"/>
    </g>
    <g data-name="사각형 17864" transform="rotate(90 -.883 25.617)" style="fill:none;stroke:#2d3239">
        <rect width="1.5" height="7" rx=".75" style="stroke:none"/>
        <rect x=".5" y=".5" width=".5" height="6" rx=".25" style="fill:none"/>
    </g>
    <g data-name="그룹 14343">
        <g data-name="그룹 14328" transform="translate(-195.068 -511.25)">
            <circle data-name="타원 2008" cx="7.141" cy="7.141" r="7.141" transform="translate(225.256 533.831)" style="fill:#fff"/>
            <circle data-name="타원 1877" cx="6.641" cy="6.641" r="6.641" transform="translate(227.969 534.65)" style="fill:#7dedf3"/>
            <g data-name="타원 1878" transform="translate(225.027 533.25)" style="fill:none;stroke-width:1.5px;stroke:#2d3239">
                <circle cx="7.589" cy="7.589" r="7.589" style="stroke:none"/>
                <circle cx="7.589" cy="7.589" r="6.839" style="fill:none"/>
            </g>
            <g data-name="사각형 14362" transform="rotate(-45 777.378 -11.171)" style="stroke:#2d3239;fill:#fff">
                <rect width="1.897" height="6.325" rx=".949" style="stroke:none"/>
                <rect x=".5" y=".5" width=".897" height="5.325" rx=".449" style="fill:none"/>
            </g>
        </g>
        <path data-name="패스 13286" d="m52.728 794.339 2.123 2.1 3.841-3.739" transform="translate(-18.267 -765.057)" style="stroke-linecap:round;stroke-linejoin:round;fill:none;stroke-width:1.5px;stroke:#2d3239"/>
    </g>
</svg>
