<svg xmlns="http://www.w3.org/2000/svg" width="90" height="90" viewBox="0 0 90 90">
  <g id="ic-com-abroad-02" transform="translate(19508 -17065)">
    <g id="그룹_11930" data-name="그룹 11930">
      <circle id="타원_1876" data-name="타원 1876" cx="45" cy="45" r="45" transform="translate(-19508 17065)" fill="#f8f8f8"/>
      <g id="그룹_11928" data-name="그룹 11928" transform="translate(55.002 -91.453)">
        <g id="사각형_11123" data-name="사각형 11123" transform="translate(-19529.002 17175.453)" fill="#fff" stroke="#2d3239" stroke-width="2">
          <rect width="23" height="40" rx="11.5" stroke="none"/>
          <rect x="1" y="1" width="21" height="38" rx="10.5" fill="none"/>
        </g>
        <g id="사각형_13948" data-name="사각형 13948" transform="translate(-19529.002 17175.453)" fill="#fff" stroke="#2d3239" stroke-width="2">
          <rect width="23" height="40" rx="11.5" stroke="none"/>
          <rect x="1" y="1" width="21" height="38" rx="10.5" fill="none"/>
        </g>
        <g id="사각형_11100" data-name="사각형 11100" transform="translate(-19538.002 17186.453)" fill="#fff" stroke="#2d3239" stroke-width="2">
          <rect width="40" height="37" rx="6" stroke="none"/>
          <rect x="1" y="1" width="38" height="35" rx="5" fill="none"/>
        </g>
        <rect id="사각형_11101" data-name="사각형 11101" width="5" height="13" transform="translate(-19502.002 17195.453)" fill="#fff"/>
        <rect id="사각형_18390" data-name="사각형 18390" width="5" height="13" transform="translate(-19498.002 17195.453)" fill="#f8f8f8"/>
        <rect id="사각형_11102" data-name="사각형 11102" width="2" height="4" rx="1" transform="translate(-19500.002 17194.453)" fill="#2d3239"/>
        <g id="그룹_11927" data-name="그룹 11927" transform="translate(60.884 3.951)">
          <g id="합치기_156" data-name="합치기 156" transform="translate(-19558.84 17193.949) rotate(45)" fill="#7dedf3" stroke-linejoin="round">
            <path d="M 5.494330406188965 18.90615081787109 L 5.386400699615479 18.25346946716309 C 5.36284065246582 18.11100006103516 5.177290439605713 16.83988952636719 5.906200408935547 16.08926963806152 C 6.077988624572754 15.91292667388916 6.366372108459473 15.68341255187988 6.784600734710693 15.39035892486572 L 6.784600734710693 14.49540042877197 L 6.784600734710693 13.6038703918457 L 6.785500526428223 13.60441970825195 L 6.785500526428223 9.602607727050781 L 4.18988037109375 10.4337797164917 C 4.09428071975708 10.46385955810547 1.892590522766113 11.15194034576416 0.679670512676239 11.15198993682861 C 0.2164705097675323 11.15200996398926 -0.09258949011564255 11.05533981323242 -0.2929494976997375 10.84776020050049 C -0.4329594969749451 10.70271968841553 -0.506059467792511 10.5097599029541 -0.4987894892692566 10.30440998077393 C -0.4827194809913635 9.851300239562988 -0.17306949198246 9.291399955749512 3.39184045791626 7.44133996963501 C 4.795303344726562 6.712983131408691 6.193317413330078 6.054123401641846 6.785500526428223 5.778926372528076 L 6.785500526428223 4.593599796295166 C 6.785500526428223 4.558261394500732 6.786849975585938 4.522158622741699 6.789620399475098 4.483946800231934 C 6.786814212799072 4.332696914672852 6.785500526428223 4.202504634857178 6.785500526428223 4.076099872589111 C 6.785500526428223 2.951859951019287 6.884500503540039 1.889729976654053 7.06428050994873 1.085360050201416 C 7.216290473937988 0.4051700234413147 7.499030590057373 -0.4990999698638916 8.196300506591797 -0.4990999698638916 C 8.893570899963379 -0.4990999698638916 9.176310539245605 0.4051700234413147 9.328320503234863 1.085360050201416 C 9.508100509643555 1.889729976654053 9.607100486755371 2.951859951019287 9.607100486755371 4.076099872589111 C 9.607100486755371 4.202504634857178 9.60578727722168 4.332696914672852 9.602980613708496 4.483946800231934 C 9.605751037597656 4.522158622741699 9.607100486755371 4.558261394500732 9.607100486755371 4.593599796295166 L 9.607100486755371 5.778924942016602 C 10.19929027557373 6.054121494293213 11.59733009338379 6.712981224060059 13.00087070465088 7.441329956054688 C 16.56571960449219 9.291250228881836 16.87576103210449 9.850979804992676 16.89227104187012 10.30389022827148 C 16.89937019348145 10.51010036468506 16.82615089416504 10.70291042327881 16.68614959716797 10.84782028198242 C 16.48569107055664 11.05531024932861 16.1766300201416 11.1519603729248 15.7135009765625 11.15198993682861 C 14.50050067901611 11.15206050872803 12.29916095733643 10.4638500213623 12.20604038238525 10.43455028533936 L 9.607100486755371 9.60254955291748 L 9.607100486755371 13.62423038482666 L 9.608000755310059 14.49540042877197 L 9.608000755310059 15.38986206054688 C 10.02671718597412 15.68313407897949 10.31528663635254 15.91271495819092 10.48673057556152 16.08868026733398 C 11.21531009674072 16.84013938903809 11.02976036071777 18.11103057861328 11.00620079040527 18.25346946716309 L 10.89828014373779 18.9061393737793 L 10.2998104095459 18.62421989440918 C 10.28824710845947 18.61877250671387 9.167527198791504 18.09156608581543 8.230084419250488 17.71249961853027 L 8.162497520446777 17.71249961853027 C 7.225064754486084 18.09156608581543 6.104363441467285 18.61877250671387 6.092790603637695 18.62421989440918 L 5.494330406188965 18.90615081787109 Z" stroke="none"/>
            <path d="M 10.51290035247803 18.17189979553223 C 10.51290035247803 18.17189979553223 10.70190048217773 17.02890014648438 10.12860012054443 16.43759918212891 C 9.931720733642578 16.23551940917969 9.539690971374512 15.94618988037109 9.108000755310059 15.65229988098145 L 9.108000755310059 14.49540042877197 C 9.108000755310059 14.49540042877197 9.107630729675293 14.49561977386475 9.107100486755371 14.49592971801758 L 9.107100486755371 8.917490005493164 L 12.35610008239746 9.957599639892578 C 12.35610008239746 9.957599639892578 16.42410087585449 11.23740386962891 16.39260101318359 10.32209968566895 C 16.35951042175293 9.414230346679688 9.195430755615234 6.139150142669678 9.107100486755371 6.098810195922852 L 9.107100486755371 4.593599796295166 C 9.107100486755371 4.561200141906738 9.105300903320312 4.529699802398682 9.10260009765625 4.499100208282471 C 9.105300903320312 4.359600067138672 9.107100486755371 4.219200134277344 9.107100486755371 4.076099872589111 C 9.107100486755371 1.825200080871582 8.699400901794434 0.0009000320569612086 8.196300506591797 0.0009000320569612086 C 7.693200588226318 0.0009000320569612086 7.285500526428223 1.825200080871582 7.285500526428223 4.076099872589111 C 7.285500526428223 4.219200134277344 7.287300586700439 4.359600067138672 7.290000438690186 4.499100208282471 C 7.287300586700439 4.529699802398682 7.285500526428223 4.561200141906738 7.285500526428223 4.593599796295166 L 7.285500526428223 6.098810195922852 C 7.197170734405518 6.139150142669678 0.03310050815343857 9.414230346679688 0.0009005065658129752 10.32209968566895 C -0.03149949386715889 11.23740005493164 4.037400722503662 9.957599639892578 4.037400722503662 9.957599639892578 L 7.285500526428223 8.917490005493164 L 7.285500526428223 14.49592971801758 C 7.284960269927979 14.49561977386475 7.284600734710693 14.49540042877197 7.284600734710693 14.49540042877197 L 7.284600734710693 15.65274047851562 C 6.853320598602295 15.94647026062012 6.461670398712158 16.23562049865723 6.264900684356689 16.43759918212891 C 5.690700531005859 17.02890014648438 5.879700660705566 18.17189979553223 5.879700660705566 18.17189979553223 C 5.879700660705566 18.17189979553223 7.086140632629395 17.6035099029541 8.065810203552246 17.21249961853027 L 8.326780319213867 17.21249961853027 C 9.306440353393555 17.6035099029541 10.51290035247803 18.17189979553223 10.51290035247803 18.17189979553223 M 10.51286697387695 19.1718921661377 C 10.36742782592773 19.1718921661377 10.22183990478516 19.14018821716309 10.08674049377441 19.0765495300293 C 10.07591915130615 19.07145500183105 9.084712982177734 18.60521507263184 8.196294784545898 18.23880195617676 C 7.307870864868164 18.6052131652832 6.3166823387146 19.07144737243652 6.305870532989502 19.0765495300293 C 6.022301197052002 19.21011161804199 5.692501068115234 19.20301246643066 5.414960384368896 19.05732917785645 C 5.137430667877197 18.91165924072266 4.944230556488037 18.64429092407227 4.893100738525391 18.33503913879395 C 4.865330696105957 18.16708946228027 4.647760391235352 16.66748046875 5.547500610351562 15.74094009399414 C 5.711148738861084 15.57296180725098 5.949893474578857 15.37564659118652 6.284600734710693 15.13265037536621 L 6.284600734710693 14.49540042877197 C 6.284600734710693 14.48118209838867 6.28490161895752 14.4670352935791 6.285500526428223 14.45291137695312 L 6.285500526428223 10.28772926330566 L 4.342370510101318 10.90995979309082 C 4.340720653533936 10.91049003601074 4.339070320129395 10.91100978851318 4.337430477142334 10.91153049468994 C 4.096470355987549 10.9873104095459 1.946740508079529 11.65192985534668 0.6796904802322388 11.65198993682861 C 0.4592311978340149 11.65200042724609 -0.211589515209198 11.65200996398926 -0.6527194976806641 11.19499969482422 C -0.8877995014190674 10.95145034790039 -1.010589480400085 10.62887001037598 -0.9984694719314575 10.28670024871826 C -0.973799467086792 9.591139793395996 -0.3686694800853729 9.065790176391602 0.5997204780578613 8.443570137023926 C 1.225590467453003 8.041430473327637 2.08750057220459 7.554920196533203 3.161520481109619 6.99753999710083 C 4.378859996795654 6.365782260894775 5.592260837554932 5.785925388336182 6.285500526428223 5.460615158081055 L 6.285500526428223 4.593599796295166 C 6.285500526428223 4.55369234085083 6.286758899688721 4.513437747955322 6.289320945739746 4.471771717071533 C 6.286749362945557 4.327652931213379 6.285500526428223 4.197802066802979 6.285500526428223 4.076099872589111 C 6.285500526428223 2.916270017623901 6.38878059387207 1.815400004386902 6.576310634613037 0.976300060749054 C 6.685510635375977 0.4877200424671173 7.017800331115723 -0.9990999698638916 8.196300506591797 -0.9990999698638916 C 9.374800682067871 -0.9990999698638916 9.707090377807617 0.4877200424671173 9.816290855407715 0.976300060749054 C 10.00382041931152 1.815400004386902 10.10710048675537 2.916270017623901 10.10710048675537 4.076099872589111 C 10.10710048675537 4.197802066802979 10.10585117340088 4.327652931213379 10.10328006744385 4.471771717071533 C 10.10584259033203 4.513437747955322 10.10710048675537 4.55369234085083 10.10710048675537 4.593599796295166 L 10.10710048675537 5.46061372756958 C 10.80034732818604 5.785922527313232 12.01377105712891 6.365778923034668 13.23117065429688 6.997529983520508 C 14.30524063110352 7.554900169372559 15.1672306060791 8.041399955749512 15.79319095611572 8.443530082702637 C 16.76143074035645 9.065529823303223 17.36660003662109 9.590649604797363 17.39194107055664 10.28567981719971 C 17.40377998352051 10.62961006164551 17.28081130981445 10.9519100189209 17.04576110839844 11.19521999359131 C 16.60453987121582 11.65192031860352 15.93392086029053 11.65196990966797 15.71354007720947 11.65198993682861 C 14.44635009765625 11.65207004547119 12.29690074920654 10.98729991912842 12.05598068237305 10.91149997711182 C 12.0543909072876 10.91100025177002 12.05280017852783 10.91049957275391 12.05121040344238 10.90999031066895 L 10.10710048675537 10.28761768341064 L 10.10710048675537 14.45291709899902 C 10.10769844055176 14.46702194213867 10.10800075531006 14.481201171875 10.10800075531006 14.49540042877197 L 10.10800075531006 15.132080078125 C 10.44309043884277 15.3752326965332 10.68187522888184 15.57247543334961 10.8448600769043 15.73976993560791 C 11.74480056762695 16.66795921325684 11.52727031707764 18.16714096069336 11.4995002746582 18.33503913879395 C 11.44837093353271 18.64429092407227 11.25518035888672 18.91165924072266 10.97764015197754 19.05732917785645 C 10.83233165740967 19.13360214233398 10.67269039154053 19.1718921661377 10.51286697387695 19.1718921661377 Z" stroke="none" fill="#7dedf3"/>
          </g>
          <g id="합치기_156-2" data-name="합치기 156" transform="translate(-19559.672 17192.5) rotate(45)" fill="none" stroke-linejoin="round">
            <path d="M8.327,17.212H8.066c-.98.391-2.186.959-2.186.959a2.316,2.316,0,0,1,.385-1.734,7.706,7.706,0,0,1,1.02-.785V14.5h0V8.917L4.037,9.958S-.032,11.237,0,10.322,7.2,6.139,7.286,6.1V4.594c0-.032,0-.064,0-.095,0-.14,0-.28,0-.423C7.286,1.825,7.693,0,8.2,0s.911,1.824.911,4.075c0,.143,0,.284,0,.423,0,.031,0,.062,0,.095V6.1c.088.04,7.252,3.315,7.286,4.223s-4.037-.365-4.037-.365L9.107,8.917V14.5h0v1.157a7.706,7.706,0,0,1,1.021.785,2.318,2.318,0,0,1,.384,1.734S9.306,17.6,8.327,17.212Z" stroke="none"/>
            <path d="M 10.51290035247803 18.17189979553223 C 10.51290035247803 18.17189979553223 10.70190048217773 17.02890014648438 10.12860012054443 16.43759918212891 C 9.931720733642578 16.23551940917969 9.539690971374512 15.94618988037109 9.108000755310059 15.65229988098145 L 9.108000755310059 14.49540042877197 C 9.108000755310059 14.49540042877197 9.107630729675293 14.49561977386475 9.107100486755371 14.49592971801758 L 9.107100486755371 8.917490005493164 L 12.35610008239746 9.957599639892578 C 12.35610008239746 9.957599639892578 16.42410087585449 11.23740386962891 16.39260101318359 10.32209968566895 C 16.35951042175293 9.414230346679688 9.195430755615234 6.139150142669678 9.107100486755371 6.098810195922852 L 9.107100486755371 4.593599796295166 C 9.107100486755371 4.561200141906738 9.105300903320312 4.529699802398682 9.10260009765625 4.499100208282471 C 9.105300903320312 4.359600067138672 9.107100486755371 4.219200134277344 9.107100486755371 4.076099872589111 C 9.107100486755371 1.825200080871582 8.699400901794434 0.0009000320569612086 8.196300506591797 0.0009000320569612086 C 7.693200588226318 0.0009000320569612086 7.285500526428223 1.825200080871582 7.285500526428223 4.076099872589111 C 7.285500526428223 4.219200134277344 7.287300586700439 4.359600067138672 7.290000438690186 4.499100208282471 C 7.287300586700439 4.529699802398682 7.285500526428223 4.561200141906738 7.285500526428223 4.593599796295166 L 7.285500526428223 6.098810195922852 C 7.197170734405518 6.139150142669678 0.03310050815343857 9.414230346679688 0.0009005065658129752 10.32209968566895 C -0.03149949386715889 11.23740005493164 4.037400722503662 9.957599639892578 4.037400722503662 9.957599639892578 L 7.285500526428223 8.917490005493164 L 7.285500526428223 14.49592971801758 C 7.284960269927979 14.49561977386475 7.284600734710693 14.49540042877197 7.284600734710693 14.49540042877197 L 7.284600734710693 15.65274047851562 C 6.853320598602295 15.94647026062012 6.461670398712158 16.23562049865723 6.264900684356689 16.43759918212891 C 5.690700531005859 17.02890014648438 5.879700660705566 18.17189979553223 5.879700660705566 18.17189979553223 C 5.879700660705566 18.17189979553223 7.086140632629395 17.6035099029541 8.065810203552246 17.21249961853027 L 8.326780319213867 17.21249961853027 C 9.306440353393555 17.6035099029541 10.51290035247803 18.17189979553223 10.51290035247803 18.17189979553223 M 10.51286125183105 20.17189788818359 C 10.22194194793701 20.17189788818359 9.930753707885742 20.10848236083984 9.660520553588867 19.98117065429688 C 9.646288871765137 19.9744701385498 8.938424110412598 19.64168357849121 8.196290969848633 19.3237133026123 C 7.451381206512451 19.64287376403809 6.741013526916504 19.97695732116699 6.731970310211182 19.98122024536133 C 6.164841651916504 20.24831008911133 5.505240917205811 20.23407173156738 4.95020055770874 19.94272041320801 C 4.395150661468506 19.65135955810547 4.008760452270508 19.11664962768555 3.906490564346313 18.4981803894043 C 3.847440481185913 18.14105033874512 3.614440441131592 16.29614067077637 4.830090522766113 15.04428958892822 C 4.953667163848877 14.91743755340576 5.102275848388672 14.78403186798096 5.284600734710693 14.6372013092041 L 5.284600734710693 14.49540042877197 C 5.284600734710693 14.47530937194824 5.284901142120361 14.45531177520752 5.285500526428223 14.43531322479248 L 5.285500526428223 11.65797424316406 L 4.647330284118652 11.86233043670654 C 4.644040584564209 11.86338043212891 4.640750408172607 11.86443042755127 4.637450695037842 11.86546039581299 C 4.219890594482422 11.99678993225098 2.066640615463257 12.65192985534668 0.6797404885292053 12.65198993682861 C -0.1934594959020615 12.65200996398926 -0.8838294744491577 12.39546966552734 -1.372219443321228 11.88949012756348 C -1.79746949672699 11.44892024993896 -2.019659519195557 10.86713027954102 -1.997849464416504 10.25131034851074 C -1.953389525413513 8.997949600219727 -0.9127594828605652 8.226750373840332 0.0591605082154274 7.602270126342773 C 0.7108405232429504 7.183549880981445 1.599640488624573 6.681459903717041 2.70089054107666 6.109950065612793 C 3.642484903335571 5.621294021606445 4.58171558380127 5.163336753845215 5.285500526428223 4.827561855316162 L 5.285500526428223 4.593599796295166 C 5.285500526428223 4.547070980072021 5.286606311798096 4.500566482543945 5.288851261138916 4.453369140625 C 5.286598682403564 4.317541122436523 5.285500526428223 4.193427562713623 5.285500526428223 4.076099872589111 C 5.285500526428223 2.845080137252808 5.397330284118652 1.666760087013245 5.600390434265137 0.7581900358200073 C 5.724520683288574 0.2027600258588791 5.879270553588867 -0.2458699643611908 6.073480606079102 -0.6133599877357483 C 6.734450340270996 -1.864069938659668 7.778220653533936 -1.999099969863892 8.196300506591797 -1.999099969863892 C 8.614380836486816 -1.999099969863892 9.658150672912598 -1.864069938659668 10.31912040710449 -0.6133599877357483 C 10.51333045959473 -0.2458699643611908 10.66808032989502 0.2027600258588791 10.79221057891846 0.7581900358200073 C 10.99527072906494 1.666760087013245 11.10710048675537 2.845080137252808 11.10710048675537 4.076099872589111 C 11.10710048675537 4.193427562713623 11.10600280761719 4.317541122436523 11.10375022888184 4.453369140625 C 11.10599422454834 4.500566482543945 11.10710048675537 4.547070980072021 11.10710048675537 4.593599796295166 L 11.10710048675537 4.827554225921631 C 11.81089401245117 5.163325309753418 12.75015068054199 5.621279239654541 13.69178009033203 6.109920024871826 C 14.79306030273438 6.68140983581543 15.68192005157471 7.183480262756348 16.33368110656738 7.602180004119873 C 17.30525970458984 8.226320266723633 18.34563064575195 8.997079849243164 18.39126968383789 10.2492504119873 C 18.41259956359863 10.86865997314453 18.19012069702148 11.44993019104004 17.76494979858398 11.89002990722656 C 17.27655982971191 12.3955602645874 16.58639144897461 12.65192985534668 15.71362018585205 12.65198993682861 C 14.32646083831787 12.65207004547119 12.17338085174561 11.99676990509033 11.75585079193115 11.86540031433105 C 11.75267028808594 11.86439990997314 11.74949073791504 11.86338996887207 11.7463207244873 11.862380027771 L 11.10710048675537 11.65774536132812 L 11.10710048675537 14.43532276153564 C 11.10769844055176 14.45528984069824 11.10800075531006 14.475341796875 11.10800075531006 14.49540042877197 L 11.10800075531006 14.6364221572876 C 11.29020690917969 14.78304576873779 11.43843555450439 14.9160099029541 11.56112003326416 15.0419397354126 C 12.77810096740723 16.297119140625 12.54513072967529 18.14121055603027 12.48611068725586 18.4981803894043 C 12.38383007049561 19.11669921875 11.99745082855225 19.65147018432617 11.44235038757324 19.94281005859375 C 11.15175151824951 20.0953254699707 10.8324728012085 20.17189788818359 10.51286125183105 20.17189788818359 Z" stroke="none" fill="#2d3239"/>
          </g>
        </g>
        <path id="다각형_89" data-name="다각형 89" d="M8.549.947a.5.5,0,0,1,.9,0l2.131,4.471a.5.5,0,0,0,.39.281l4.96.615a.5.5,0,0,1,.278.863l-3.636,3.362a.5.5,0,0,0-.151.462l.939,4.834a.5.5,0,0,1-.729.535L9.238,13.986a.5.5,0,0,0-.477,0L4.369,16.37a.5.5,0,0,1-.729-.535L4.578,11a.5.5,0,0,0-.151-.462L.791,7.177a.5.5,0,0,1,.278-.863L6.028,5.7a.5.5,0,0,0,.39-.281Z" transform="translate(-19527.002 17195.738)" fill="none" stroke="#2d3239" stroke-width="2"/>
      </g>
    </g>
  </g>
</svg>
