<svg xmlns="http://www.w3.org/2000/svg" width="90" height="90" viewBox="0 0 90 90">
  <g id="ic-com-signing" transform="translate(-246 -255)">
    <circle id="타원_1315" data-name="타원 1315" cx="45" cy="45" r="45" transform="translate(246 255)" fill="#f8f8f8"/>
    <g id="그룹_9341" data-name="그룹 9341" transform="translate(-548.5 7434.757)">
      <g id="그룹_8120" data-name="그룹 8120" transform="translate(807.5 -7140.074)">
        <g id="그룹_8119" data-name="그룹 8119" transform="translate(3 0)">
          <path id="패스_183" data-name="패스 183" d="M8.973,16A.993.993,0,0,0,8,17V34.8a.988.988,0,0,0,.988.988h4.2a.992.992,0,0,0,.953-.718l4.378-15.43a1.978,1.978,0,0,0-1.226-2.4A23.083,23.083,0,0,0,8.973,16Z" transform="translate(-8 -16)" fill="#fff" stroke="#2d3239" stroke-width="2"/>
          <path id="패스_184" data-name="패스 184" d="M45.3,24.494c-3.956,0-11.872,5.01-15.828,5.01s-8.411-3.033-8.411-3.033,5.1,2.98,8.181,2.98S33.2,28.4,33.2,26.979c0-3.464-4.154-4-8.63-6.444s-4.437-2.912-9.275-3.321a5.239,5.239,0,0,1-.151.843L11.167,32.065c4.5,2.045,12.254,5.289,16.323,5.289,5.936,0,21.764-7.915,21.764-9.892S47.274,24.494,45.3,24.494Z" transform="translate(-0.725 -11.326)" fill="#fff" stroke="#2d3239" stroke-width="2"/>
        </g>
      </g>
      <g id="그룹_8116" data-name="그룹 8116" transform="translate(841.202 -7157.956)">
        <g id="합치기_394" data-name="합치기 394" transform="translate(-0.276)" fill="#fff">
          <path d="M 13.40010070800781 20.59370040893555 L 6.05880069732666 20.59370040893555 L 0.9478771686553955 20.59370040893555 C 0.947864830493927 20.59367561340332 0.9478524327278137 20.59365081787109 0.9478400945663452 20.59362602233887 L 3.417460680007935 17.13581085205078 L 3.603700637817383 16.87504959106445 L 3.603700637817383 16.55460929870605 L 3.603700637817383 10.79640007019043 C 3.603700637817383 5.394649982452393 7.998350620269775 1.000000238418579 13.40010070800781 1.000000238418579 C 18.8023509979248 1.000000238418579 23.19740104675293 5.394649982452393 23.19740104675293 10.79640007019043 C 23.19740104675293 16.19865036010742 18.8023509979248 20.59370040893555 13.40010070800781 20.59370040893555 Z" stroke="none"/>
          <path d="M 13.40010070800781 19.59370040893555 C 18.25094985961914 19.59370040893555 22.19740104675293 15.64725017547607 22.19740104675293 10.79640007019043 C 22.19740104675293 5.94605016708374 18.25094985961914 2.000000238418579 13.40010070800781 2.000000238418579 C 8.549750328063965 2.000000238418579 4.603700637817383 5.94605016708374 4.603700637817383 10.79640007019043 L 4.603700637817383 17.19548988342285 L 2.890867233276367 19.59370040893555 L 13.40010070800781 19.59370040893555 M 13.40010070800781 21.59370040893555 L 0.947700560092926 21.59370040893555 C 0.1341005861759186 21.59370040893555 -0.3383994102478027 20.67390060424805 0.1341005861759186 20.01239967346191 L 2.603700637817383 16.55460929870605 L 2.603700637817383 10.79640007019043 C 2.603700637817383 4.833899974822998 7.437600612640381 2.044677671619866e-07 13.40010070800781 2.044677671619866e-07 C 19.36350059509277 2.044677671619866e-07 24.19740104675293 4.833899974822998 24.19740104675293 10.79640007019043 C 24.19740104675293 16.75979995727539 19.36350059509277 21.59370040893555 13.40010070800781 21.59370040893555 Z" stroke="none" fill="#2d3239"/>
        </g>
        <path id="합치기_123" data-name="합치기 123" d="M8.005,13.5A6.748,6.748,0,0,1,1.257,6.748v-3.7A1,1,0,0,1,1.008,2.8L.135,1.582A1,1,0,0,1,.948,0h7.1a6.748,6.748,0,1,1,0,13.5Z" transform="translate(31.048 18.13) rotate(180)" fill="#7dedf3"/>
        <g id="합치기_122" data-name="합치기 122" transform="translate(-0.276)" fill="none">
          <path d="M6.059,21.594H.948a1,1,0,0,1-.814-1.581L2.6,16.555V10.8a10.8,10.8,0,1,1,10.8,10.8Z" stroke="none"/>
          <path d="M 13.40010070800781 19.59370040893555 C 18.25094985961914 19.59370040893555 22.19740104675293 15.64725017547607 22.19740104675293 10.79640007019043 C 22.19740104675293 5.94605016708374 18.25094985961914 2.000000238418579 13.40010070800781 2.000000238418579 C 8.549750328063965 2.000000238418579 4.603700637817383 5.94605016708374 4.603700637817383 10.79640007019043 L 4.603700637817383 17.19548988342285 L 2.890867233276367 19.59370040893555 L 13.40010070800781 19.59370040893555 M 13.40010070800781 21.59370040893555 L 0.947700560092926 21.59370040893555 C 0.1341005861759186 21.59370040893555 -0.3383994102478027 20.67390060424805 0.1341005861759186 20.01239967346191 L 2.603700637817383 16.55460929870605 L 2.603700637817383 10.79640007019043 C 2.603700637817383 4.833899974822998 7.437600612640381 2.044677671619866e-07 13.40010070800781 2.044677671619866e-07 C 19.36350059509277 2.044677671619866e-07 24.19740104675293 4.833899974822998 24.19740104675293 10.79640007019043 C 24.19740104675293 16.75979995727539 19.36350059509277 21.59370040893555 13.40010070800781 21.59370040893555 Z" stroke="none" fill="#2d3239"/>
        </g>
        <g id="그룹_8101" data-name="그룹 8101" transform="translate(7.196 9.289)">
          <circle id="타원_1323" data-name="타원 1323" cx="1.327" cy="1.327" r="1.327" fill="#2d3239"/>
          <circle id="타원_1325" data-name="타원 1325" cx="1.327" cy="1.327" r="1.327" transform="translate(4.645)" fill="#2d3239"/>
          <circle id="타원_1326" data-name="타원 1326" cx="1.327" cy="1.327" r="1.327" transform="translate(9.289)" fill="#2d3239"/>
        </g>
      </g>
    </g>
  </g>
</svg>
