<svg xmlns="http://www.w3.org/2000/svg" width="90" height="90" viewBox="0 0 90 90">
  <g id="ic-com-gorvermentvoucher" transform="translate(-135 -151)">
    <circle id="타원_1315" data-name="타원 1315" cx="45" cy="45" r="45" transform="translate(135 151)" fill="#f8f8f8"/>
    <g id="그룹_8078" data-name="그룹 8078" transform="translate(2 2)">
      <g id="다각형_77" data-name="다각형 77" transform="translate(150 167)" fill="#fff">
        <path d="M 47.89023208618164 23.00000381469727 L 8.109771728515625 23.00000381469727 C 7.083002090454102 23.00000381469727 6.467581748962402 22.32531547546387 6.234002113342285 21.69389533996582 C 6.000432014465332 21.06248474121094 6.02861213684082 20.14969444274902 6.808191776275635 19.48148536682129 L 26.69841194152832 2.432724714279175 C 27.0606517791748 2.122234582901001 27.52290153503418 1.951234579086304 28.00000190734863 1.951234579086304 C 28.47710227966309 1.951234579086304 28.9393424987793 2.122234582901001 29.30158233642578 2.432724714279175 L 49.19182205200195 19.48149490356445 C 49.97140121459961 20.14970397949219 49.99958038330078 21.06248474121094 49.7660026550293 21.69389533996582 C 49.53243255615234 22.32530403137207 48.9170036315918 23.00000381469727 47.89023208618164 23.00000381469727 Z" stroke="none"/>
        <path d="M 28.00000190734863 2.951225280761719 C 27.83124160766602 2.951225280761719 27.58135223388672 2.99299430847168 27.34920120239258 3.191974639892578 L 7.458980560302734 20.2407341003418 C 6.981822967529297 20.64973449707031 7.099250793457031 21.15058517456055 7.171890258789062 21.34694480895996 C 7.244522094726562 21.54329490661621 7.481311798095703 21.9999942779541 8.109771728515625 21.9999942779541 L 47.89023208618164 21.9999942779541 C 48.51869201660156 21.9999942779541 48.7554817199707 21.54329490661621 48.82812118530273 21.34694480895996 C 48.90075302124023 21.15058517456055 49.01818084716797 20.64973449707031 48.54103088378906 20.24074554443359 L 28.65078163146973 3.191965103149414 C 28.41864204406738 2.99299430847168 28.16875267028809 2.951225280761719 28.00000190734863 2.951225280761719 M 28 0.9512290954589844 C 28.69532203674316 0.9512290954589844 29.3906421661377 1.191974639892578 29.95237159729004 1.673463821411133 L 49.84261322021484 18.72223472595215 C 51.95730209350586 20.53482437133789 50.67545318603516 23.9999942779541 47.89023208618164 23.9999942779541 L 8.109771728515625 23.9999942779541 C 5.324550628662109 23.9999942779541 4.042701721191406 20.53482437133789 6.157402038574219 18.72222518920898 L 26.04762268066406 1.673463821411133 C 26.6093578338623 1.191974639892578 27.30467987060547 0.9512290954589844 28 0.9512290954589844 Z" stroke="none" fill="#2d3239"/>
      </g>
      <g id="사각형_11963" data-name="사각형 11963" transform="translate(160 189)" fill="#fff" stroke="#2d3239" stroke-width="2">
        <rect width="8" height="20" rx="2" stroke="none"/>
        <rect x="1" y="1" width="6" height="18" rx="1" fill="none"/>
      </g>
      <g id="사각형_11973" data-name="사각형 11973" transform="translate(174 189)" fill="#fff" stroke="#2d3239" stroke-width="2">
        <rect width="8" height="20" rx="2" stroke="none"/>
        <rect x="1" y="1" width="6" height="18" rx="1" fill="none"/>
      </g>
      <g id="사각형_11972" data-name="사각형 11972" transform="translate(156 207)" fill="#fff" stroke="#2d3239" stroke-width="2">
        <rect width="42" height="8" rx="3" stroke="none"/>
        <rect x="1" y="1" width="40" height="6" rx="2" fill="none"/>
      </g>
      <g id="사각형_11965" data-name="사각형 11965" transform="translate(188 189)" fill="#fff" stroke="#2d3239" stroke-width="2">
        <rect width="8" height="20" rx="2" stroke="none"/>
        <rect x="1" y="1" width="6" height="18" rx="1" fill="none"/>
      </g>
      <g id="사각형_11971" data-name="사각형 11971" transform="translate(174 178)" fill="#fff" stroke="#2d3239" stroke-width="2">
        <rect width="8" height="8" rx="4" stroke="none"/>
        <rect x="1" y="1" width="6" height="6" rx="3" fill="none"/>
      </g>
      <g id="빼기_168" data-name="빼기 168" transform="translate(9965 4922)" fill="#fff">
        <path d="M -9762.9990234375 -4703.00048828125 L -9783 -4703.00048828125 C -9784.654296875 -4703.00048828125 -9786.0009765625 -4704.345703125 -9786.0009765625 -4705.99951171875 L -9786.0009765625 -4718.00048828125 C -9786.0009765625 -4719.65380859375 -9784.654296875 -4720.9990234375 -9783 -4720.9990234375 L -9762.9990234375 -4720.9990234375 C -9761.345703125 -4720.9990234375 -9760 -4719.65380859375 -9760 -4718.00048828125 L -9760 -4715.8720703125 C -9761.72265625 -4715.42626953125 -9762.9990234375 -4713.85888671875 -9762.9990234375 -4712 C -9762.9990234375 -4710.14013671875 -9761.72265625 -4708.57275390625 -9760 -4708.12744140625 L -9760 -4705.99951171875 C -9760 -4704.345703125 -9761.345703125 -4703.00048828125 -9762.9990234375 -4703.00048828125 Z" stroke="none"/>
        <path d="M -9762.9990234375 -4704.00048828125 C -9761.896484375 -4704.00048828125 -9761 -4704.8974609375 -9761 -4705.99951171875 L -9761 -4707.41845703125 C -9762.763671875 -4708.19140625 -9763.9990234375 -4709.9541015625 -9763.9990234375 -4712 C -9763.9990234375 -4714.044921875 -9762.763671875 -4715.8076171875 -9761 -4716.58056640625 L -9761 -4718.00048828125 C -9761 -4719.1025390625 -9761.896484375 -4719.9990234375 -9762.9990234375 -4719.9990234375 L -9783 -4719.9990234375 C -9784.103515625 -4719.9990234375 -9785.0009765625 -4719.1025390625 -9785.0009765625 -4718.00048828125 L -9785.0009765625 -4705.99951171875 C -9785.0009765625 -4704.8974609375 -9784.103515625 -4704.00048828125 -9783 -4704.00048828125 L -9762.9990234375 -4704.00048828125 M -9762.9990234375 -4702.00048828125 L -9783 -4702.00048828125 C -9785.2060546875 -4702.00048828125 -9787.0009765625 -4703.79443359375 -9787.0009765625 -4705.99951171875 L -9787.0009765625 -4718.00048828125 C -9787.0009765625 -4720.205078125 -9785.2060546875 -4721.9990234375 -9783 -4721.9990234375 L -9762.9990234375 -4721.9990234375 C -9760.7939453125 -4721.9990234375 -9759 -4720.205078125 -9759 -4718.00048828125 L -9759 -4714.9990234375 C -9760.6552734375 -4714.998046875 -9761.9990234375 -4713.6533203125 -9761.9990234375 -4712 C -9761.9990234375 -4710.34619140625 -9760.6533203125 -4709.0009765625 -9759 -4709.0009765625 L -9759 -4705.99951171875 C -9759 -4703.79443359375 -9760.7939453125 -4702.00048828125 -9762.9990234375 -4702.00048828125 Z" stroke="none" fill="#2d3239"/>
      </g>
      <path id="사각형_8718" data-name="사각형 8718" d="M4,0H20a0,0,0,0,1,0,0V18a0,0,0,0,1,0,0H4a4,4,0,0,1-4-4V4A4,4,0,0,1,4,0Z" transform="translate(176 198.5)" fill="#7dedf3"/>
      <g id="빼기_169" data-name="빼기 169" transform="translate(9965 4922)" fill="none">
        <path d="M-9763-4702h-20a4,4,0,0,1-4-4v-12a4,4,0,0,1,4-4h20a4,4,0,0,1,4,4v3a3,3,0,0,0-3,3,3,3,0,0,0,3,3v3A4,4,0,0,1-9763-4702Z" stroke="none"/>
        <path d="M -9762.9990234375 -4704.00048828125 C -9761.896484375 -4704.00048828125 -9761 -4704.8974609375 -9761 -4705.99951171875 L -9761 -4707.41845703125 C -9762.763671875 -4708.19140625 -9763.9990234375 -4709.9541015625 -9763.9990234375 -4712 C -9763.9990234375 -4714.044921875 -9762.763671875 -4715.8076171875 -9761 -4716.58056640625 L -9761 -4718.00048828125 C -9761 -4719.1025390625 -9761.896484375 -4719.9990234375 -9762.9990234375 -4719.9990234375 L -9783 -4719.9990234375 C -9784.103515625 -4719.9990234375 -9785.0009765625 -4719.1025390625 -9785.0009765625 -4718.00048828125 L -9785.0009765625 -4705.99951171875 C -9785.0009765625 -4704.8974609375 -9784.103515625 -4704.00048828125 -9783 -4704.00048828125 L -9762.9990234375 -4704.00048828125 M -9762.9990234375 -4702.00048828125 L -9783 -4702.00048828125 C -9785.2060546875 -4702.00048828125 -9787.0009765625 -4703.79443359375 -9787.0009765625 -4705.99951171875 L -9787.0009765625 -4718.00048828125 C -9787.0009765625 -4720.205078125 -9785.2060546875 -4721.9990234375 -9783 -4721.9990234375 L -9762.9990234375 -4721.9990234375 C -9760.7939453125 -4721.9990234375 -9759 -4720.205078125 -9759 -4718.00048828125 L -9759 -4714.9990234375 C -9760.6552734375 -4714.998046875 -9761.9990234375 -4713.6533203125 -9761.9990234375 -4712 C -9761.9990234375 -4710.34619140625 -9760.6533203125 -4709.0009765625 -9759 -4709.0009765625 L -9759 -4705.99951171875 C -9759 -4703.79443359375 -9760.7939453125 -4702.00048828125 -9762.9990234375 -4702.00048828125 Z" stroke="none" fill="#2d3239"/>
      </g>
      <path id="다각형_53" data-name="다각형 53" d="M4.91.189a.1.1,0,0,1,.181,0L6.476,3.1a.1.1,0,0,0,.078.056l3.232.4a.1.1,0,0,1,.056.173L7.468,5.922a.1.1,0,0,0-.03.092L8.05,9.167a.1.1,0,0,1-.146.107L5.048,7.724a.1.1,0,0,0-.1,0L2.1,9.274a.1.1,0,0,1-.146-.107l.612-3.153a.1.1,0,0,0-.03-.092L.158,3.727a.1.1,0,0,1,.056-.173l3.232-.4A.1.1,0,0,0,3.524,3.1Z" transform="translate(187 205.25)" fill="none" stroke="#2d3239" stroke-width="2"/>
    </g>
  </g>
</svg>
