<svg xmlns="http://www.w3.org/2000/svg" width="90" height="90" viewBox="0 0 90 90">
    <defs>
        <style>
            .cls-10{fill:none}.cls-7{fill:#2d3239}.cls-8{stroke:none}
        </style>
    </defs>
    <g id="ic_camera_fail" transform="translate(-24 -164)">
        <circle id="타원_1315" data-name="타원 1315" cx="45" cy="45" r="45" transform="translate(24 164)" style="fill:#f8f8f8"/>
        <g id="그룹_8348" data-name="그룹 8348" transform="translate(0 1)">
            <g id="합치기_131" data-name="합치기 131" style="fill:#fff">
                <path class="cls-8" d="M-1725-3401h-30c-2.757 0-5-2.243-5-5v-18c0-2.757 2.243-5 5-5h6.053l.25-.632.386-.974.256-.562c.98-2.152 1.345-2.832 2.517-2.832h11.077c1.174 0 1.492.49 2.595 2.992l.174.394.388.982.25.632H-1725c2.757 0 5 2.243 5 5v18c0 2.757-2.243 5-5 5z" transform="translate(1809 3623)"/>
                <path d="M-1725-3402c2.205 0 4-1.794 4-4v-18c0-2.206-1.795-4-4-4h-6.734l-.88-2.227-.167-.377c-.426-.968-.795-1.803-1.12-2.19-.115-.138-.172-.206-.56-.206h-11.077c-.347 0-.41.073-.534.22-.324.38-.67 1.143-1.073 2.026-.08.175-.161.356-.247.541l-.875 2.213H-1755c-2.206 0-4 1.794-4 4v18c0 2.206 1.794 4 4 4h30m0 2h-30a6 6 0 0 1-6-6v-18a6 6 0 0 1 6-6h5.373l.396-1c1.119-2.423 1.653-4 3.693-4h11.077c2.038 0 2.541 1.406 3.692 4l.395 1h5.374a6 6 0 0 1 6 6v18a6 6 0 0 1-6 6z" style="fill:#2d3239;stroke:none" transform="translate(1809 3623)"/>
            </g>
            <path id="사각형_11710" data-name="사각형 11710" transform="translate(85 208)" style="fill:#fff" d="M0 0h5v5H0z"/>
            <g id="타원_1418" data-name="타원 1418" transform="translate(60.5 199)" style="stroke-width:2px;stroke:#2d3239;fill:#fff">
                <circle class="cls-8" cx="8.5" cy="8.5" r="8.5"/>
                <circle class="cls-10" cx="8.5" cy="8.5" r="7.5"/>
            </g>
            <g id="타원_1318" data-name="타원 1318" transform="translate(77 212)" style="fill:#ffd1dc;stroke:#fff;stroke-width:2px">
                <circle class="cls-8" cx="8" cy="8" r="8"/>
                <circle class="cls-10" cx="8" cy="8" r="9"/>
            </g>
            <g id="타원_1317" data-name="타원 1317" transform="translate(79 212)" style="fill:none;stroke-width:2px;stroke:#2d3239">
                <circle class="cls-8" cx="8.5" cy="8.5" r="8.5"/>
                <circle class="cls-10" cx="8.5" cy="8.5" r="7.5"/>
            </g>
            <rect id="사각형_11126" data-name="사각형 11126" class="cls-7" width="2" height="9" rx="1" transform="rotate(45 -216.955 217.11)"/>
            <rect id="사각형_11127" data-name="사각형 11127" class="cls-7" width="1.999" height="8.999" rx="1" transform="rotate(135 -.566 130.609)"/>
        </g>
    </g>
</svg>
