<svg xmlns="http://www.w3.org/2000/svg" width="50" height="50" viewBox="0 0 50 50">
    <defs>
        <style>
            .cls-1,.cls-2{fill:none}.cls-2{stroke:#2d3239;stroke-width:1.5px}.cls-3{fill:#2d3239}.cls-7{stroke:none}
        </style>
    </defs>
    <g id="ic_cardissuance_8" transform="translate(102.5 -622)">
        <path id="사각형_12182" data-name="사각형 12182" class="cls-1" transform="translate(-102.5 622)" d="M0 0h50v50H0z"/>
        <g id="사각형_12097" data-name="사각형 12097" class="cls-2" transform="translate(-86.5 633.5)">
            <rect class="cls-7" width="18" height="27" rx="5"/>
            <rect class="cls-1" x=".75" y=".75" width="16.5" height="25.5" rx="4.25"/>
        </g>
        <rect id="사각형_12101" data-name="사각형 12101" class="cls-3" width="9" height="1.5" rx=".75" transform="translate(-85.5 655)"/>
        <rect id="사각형_12139" data-name="사각형 12139" class="cls-3" width="16" height="1.5" rx=".75" transform="translate(-85.5 637.5)"/>
        <circle id="타원_1498" data-name="타원 1498" cx="5" cy="5" r="5" transform="translate(-73.499 648.5)" style="fill:#7dedf3"/>
        <g id="타원_1499" data-name="타원 1499" class="cls-2" transform="translate(-75.5 647.5)">
            <circle class="cls-7" cx="5.5" cy="5.5" r="5.5"/>
            <circle class="cls-1" cx="5.5" cy="5.5" r="4.75"/>
        </g>
        <path id="패스_11052" data-name="패스 11052" d="m-10169.5 5361.863 1.415 1.3 2.585-2.5" transform="translate(10097.5 -4708.916)" style="stroke-linecap:round;stroke-linejoin:round;stroke-width:1.5px;stroke:#2d3239;fill:none"/>
        <g id="사각형_12140" data-name="사각형 12140" transform="rotate(90 -363 286.5)" style="stroke:#2d3239;fill:none">
            <rect class="cls-7" width="1.5" height="5.5" rx=".75"/>
            <rect class="cls-1" x=".5" y=".5" width=".5" height="4.5" rx=".25"/>
        </g>
        <g id="사각형_12141" data-name="사각형 12141" class="cls-2" transform="translate(-81.501 641.5)">
            <rect class="cls-7" width="7" height="7" rx="3.5"/>
            <rect class="cls-1" x=".75" y=".75" width="5.5" height="5.5" rx="2.75"/>
        </g>
    </g>
</svg>
