<svg xmlns="http://www.w3.org/2000/svg" width="90" height="90" viewBox="0 0 90 90">
  <g id="ic-com-send-money" transform="translate(17701 -3774)">
    <circle id="타원_1315" data-name="타원 1315" cx="45" cy="45" r="45" transform="translate(-17701 3774)" fill="#f8f8f8"/>
    <rect id="사각형_18343" data-name="사각형 18343" width="30" height="46" rx="6" transform="translate(-17671 3796)" fill="#fff"/>
    <circle id="타원_2436" data-name="타원 2436" cx="8.5" cy="8.5" r="8.5" transform="translate(-17646 3822)" fill="#fff"/>
    <g id="빼기_419" data-name="빼기 419" transform="translate(2024 -8558)" fill="#fff">
      <path d="M -19670.998046875 12399.0009765625 L -19689 12399.0009765625 C -19691.7578125 12399.0009765625 -19694 12396.7578125 -19694 12394 L -19694 12359.9990234375 C -19694 12357.2412109375 -19691.7578125 12354.998046875 -19689 12354.998046875 L -19670.998046875 12354.998046875 C -19668.240234375 12354.998046875 -19665.998046875 12357.2412109375 -19665.998046875 12359.9990234375 L -19665.998046875 12374 L -19666 12374 L -19666 12359.9990234375 C -19666 12357.2421875 -19668.2421875 12355 -19670.998046875 12355 L -19689 12355 C -19691.755859375 12355 -19693.998046875 12357.2421875 -19693.998046875 12359.9990234375 L -19693.998046875 12394 C -19693.998046875 12396.7568359375 -19691.755859375 12398.9990234375 -19689 12398.9990234375 L -19670.998046875 12398.9990234375 C -19669.908203125 12398.9990234375 -19668.857421875 12398.6435546875 -19668 12398.0009765625 L -19667.998046875 12398.0009765625 C -19668.853515625 12398.6455078125 -19669.8984375 12399.0009765625 -19670.998046875 12399.0009765625 Z" stroke="none"/>
      <path d="M -19670.998046875 12400.0009765625 L -19689 12400.0009765625 C -19692.30859375 12400.0009765625 -19695 12397.30859375 -19695 12394 L -19695 12359.9990234375 C -19695 12356.6904296875 -19692.30859375 12353.998046875 -19689 12353.998046875 L -19670.998046875 12353.998046875 C -19667.689453125 12353.998046875 -19664.998046875 12356.6904296875 -19664.998046875 12359.9990234375 L -19664.998046875 12375 L -19667 12375 L -19667 12359.9990234375 C -19667 12357.7939453125 -19668.79296875 12356 -19670.998046875 12356 L -19689 12356 C -19691.205078125 12356 -19692.998046875 12357.7939453125 -19692.998046875 12359.9990234375 L -19692.998046875 12394 C -19692.998046875 12396.205078125 -19691.205078125 12397.9990234375 -19689 12397.9990234375 L -19670.998046875 12397.9990234375 C -19669.849609375 12397.9990234375 -19668.755859375 12397.505859375 -19667.998046875 12396.64453125 L -19667.998046875 12397.0009765625 L -19666.435546875 12397.0009765625 C -19666.478515625 12397.0908203125 -19666.5 12397.1826171875 -19666.5 12397.27734375 C -19666.5 12397.44921875 -19666.4296875 12397.611328125 -19666.30078125 12397.7314453125 C -19667.44921875 12399.1748046875 -19669.162109375 12400.0009765625 -19670.998046875 12400.0009765625 Z" stroke="none" fill="#2d3239"/>
    </g>
    <path id="교차_41" data-name="교차 41" d="M-19674,12388a10,10,0,0,1,9-9.95V12394a5.965,5.965,0,0,1-1.307,3.736A10,10,0,0,1-19674,12388Z" transform="translate(2024 -8558)" fill="#fff"/>
    <circle id="타원_1318" data-name="타원 1318" cx="8" cy="8" r="8" transform="translate(-17648 3822)" fill="#7dedf3"/>
    <g id="타원_1317" data-name="타원 1317" transform="translate(-17646 3822)" fill="none" stroke="#2d3239" stroke-width="2">
      <circle cx="8.5" cy="8.5" r="8.5" stroke="none"/>
      <circle cx="8.5" cy="8.5" r="7.5" fill="none"/>
    </g>
    <rect id="사각형_11508" data-name="사각형 11508" width="2" height="6" rx="1" transform="translate(-17643 3813)" fill="#2d3239"/>
    <rect id="사각형_11705" data-name="사각형 11705" width="6" height="2" rx="1" transform="translate(-17659 3801)" fill="#2d3239"/>
    <g id="그룹_14308" data-name="그룹 14308" transform="translate(-17663.75 3813.703)">
      <path id="패스_2252" data-name="패스 2252" d="M3649.637,5413.027l3.007,8.595,3.008-8.595,3.008,8.595,3.008-8.595" transform="translate(-3647.917 -5413.027)" fill="none" stroke="#2d3239" stroke-linecap="round" stroke-linejoin="round" stroke-width="2"/>
      <line id="선_11" data-name="선 11" x2="2.578" transform="translate(0 3.437)" fill="none" stroke="#2d3239" stroke-linecap="round" stroke-width="2"/>
      <line id="선_166" data-name="선 166" x2="2.578" transform="translate(12.891 3.437)" fill="none" stroke="#2d3239" stroke-linecap="round" stroke-width="2"/>
    </g>
    <g id="그룹_14314" data-name="그룹 14314" transform="translate(-73.297 0.174)">
      <line id="선_952" data-name="선 952" x2="5.658" transform="translate(-17567.5 3830.326)" fill="none" stroke="#2d3239" stroke-linecap="round" stroke-width="2"/>
      <path id="패스_13287" data-name="패스 13287" d="M0,2.881,2.881,0,5.764,2.881" transform="translate(-17560.773 3827.445) rotate(90)" fill="none" stroke="#2d3239" stroke-linecap="round" stroke-linejoin="round" stroke-width="2"/>
    </g>
  </g>
</svg>
