<svg xmlns="http://www.w3.org/2000/svg" xmlns:xlink="http://www.w3.org/1999/xlink" width="90" height="90" viewBox="0 0 90 90">
  <defs>
    <clipPath id="clip-path">
      <rect id="사각형_11477" data-name="사각형 11477" width="39.187" height="30.144" rx="4" fill="none" stroke="#2d3239" stroke-width="2"/>
    </clipPath>
    <clipPath id="clip-path-2">
      <path id="패스_14320" data-name="패스 14320" d="M6.154,0H33.846C37.245,0,40,2.462,40,5.5V23.993c0,3.037-2.755,5.5-6.154,5.5H6.154c-3.4,0-6.154-2.462-6.154-5.5V5.5C0,2.462,2.755,0,6.154,0Z" transform="translate(47 198.509)" fill="#fff" stroke="#2d3239" stroke-width="2"/>
    </clipPath>
  </defs>
  <g id="ic-com-email" transform="translate(-24 -164)">
    <circle id="타원_1315" data-name="타원 1315" cx="45" cy="45" r="45" transform="translate(24 164)" fill="#f8f8f8"/>
    <g id="그룹_8348" data-name="그룹 8348" transform="translate(2 1)">
      <path id="합치기_395" data-name="합치기 395" d="M6.154,40C2.756,40,0,37.538,0,34.5V16.007a5.391,5.391,0,0,1,2.875-4.654L16.837,1.246a4.64,4.64,0,0,1,6.326,0L37.127,11.354A5.391,5.391,0,0,1,40,16.007V34.5c0,3.037-2.755,5.5-6.154,5.5Z" transform="translate(47 188)" fill="#fff"/>
      <g id="합치기_129" data-name="합치기 129" transform="translate(47 188)" fill="none">
        <path d="M6.154,40C2.756,40,0,37.538,0,34.5V16.007a5.391,5.391,0,0,1,2.875-4.654L16.837,1.246a4.64,4.64,0,0,1,6.326,0L37.127,11.354A5.391,5.391,0,0,1,40,16.007V34.5c0,3.037-2.755,5.5-6.154,5.5Z" stroke="none"/>
        <path d="M 33.84629821777344 38.0004997253418 C 36.13692855834961 38.0004997253418 38.0004997253418 36.43085861206055 38.0004997253418 34.50149917602539 L 38.0004997253418 16.00739860534668 C 38.0004997253418 14.83996868133545 37.3065299987793 13.75154876708984 36.14413070678711 13.0958890914917 L 36.04558181762695 13.04029941558838 L 21.88909912109375 2.79223895072937 L 21.79763984680176 2.706748962402344 C 21.3101692199707 2.251138925552368 20.67197036743164 2.000228881835938 20.00058937072754 2.000228881835938 C 19.32901954650879 2.000228881835938 18.69043922424316 2.251269102096558 18.20249938964844 2.707098960876465 L 18.11120986938477 2.79236888885498 L 3.956500053405762 13.0397891998291 L 3.857810020446777 13.09543895721436 C 2.695070028305054 13.75110912322998 2.000900030136108 14.83968925476074 2.000900030136108 16.00739860534668 L 2.000900030136108 34.50149917602539 C 2.000900030136108 36.43085861206055 3.864059925079346 38.0004997253418 6.154200077056885 38.0004997253418 L 33.84629821777344 38.0004997253418 M 33.84629821777344 40.0004997253418 L 6.154200077056885 40.0004997253418 C 2.755800008773804 40.0004997253418 0.0008999969577416778 37.5380973815918 0.0008999969577416778 34.50149917602539 L 0.0008999969577416778 16.00739860534668 C 0.0008999969577416778 14.04780864715576 1.148339986801147 12.32723903656006 2.875439882278442 11.35332870483398 L 16.83720016479492 1.245599031448364 C 18.61470031738281 -0.4149010181427002 21.38669967651367 -0.4149010181427002 23.16329956054688 1.245599031448364 L 37.126708984375 11.3538990020752 C 38.85350036621094 12.32790946960449 40.0004997253418 14.04817867279053 40.0004997253418 16.00739860534668 L 40.0004997253418 34.50149917602539 C 40.0004997253418 37.5380973815918 37.24560165405273 40.0004997253418 33.84629821777344 40.0004997253418 Z" stroke="none" fill="#2d3239"/>
      </g>
      <path id="빼기_160" data-name="빼기 160" d="M5.117,25.661h0L0,20.417V4.9A4.9,4.9,0,0,1,4.9,0H19.97a4.9,4.9,0,0,1,4.9,4.9V20.417L19.67,25.6l-.454-.354L14.276,21.4a3,3,0,0,0-3.684,0L5.651,25.246l-.533.415Z" transform="translate(54.66 188.073)" fill="#fff" stroke="#2d3239" stroke-width="2"/>
      <g id="그룹_8243" data-name="그룹 8243" transform="translate(47.5 196.855)">
        <g id="마스크_그룹_166" data-name="마스크 그룹 166" transform="translate(0)" clip-path="url(#clip-path)">
          <g id="다각형_74" data-name="다각형 74" transform="translate(-12.536 10.057)" fill="none">
            <path d="M30.108,1.537a3,3,0,0,1,3.784,0l23.55,19.135A3,3,0,0,1,55.55,26H8.45a3,3,0,0,1-1.892-5.328Z" stroke="none"/>
            <path d="M 31.99999809265137 2.865411758422852 C 31.83802795410156 2.865411758422852 31.59714889526367 2.904253005981445 31.36940765380859 3.089302062988281 L 7.819149017333984 22.2238826751709 C 7.324516296386719 22.62576293945312 7.436328887939453 23.13450241088867 7.507369995117188 23.3345832824707 C 7.578399658203125 23.53465270996094 7.812427520751953 24.00000190734863 8.449737548828125 24.00000190734863 L 55.55025863647461 24.00000190734863 C 56.18756866455078 24.00000190734863 56.42158889770508 23.53465270996094 56.49263000488281 23.3345832824707 C 56.56365966796875 23.13451194763184 56.67547607421875 22.62577247619629 56.18084716796875 22.22389221191406 L 32.63058853149414 3.089292526245117 C 32.40284729003906 2.904253005981445 32.16196823120117 2.865411758422852 31.99999809265137 2.865411758422852 M 31.99999809265137 0.8654098510742188 C 32.67033386230469 0.8654098510742188 33.34067535400391 1.089298248291016 33.89177703857422 1.537073135375977 L 57.44203948974609 20.67166328430176 C 59.63414001464844 22.45274353027344 58.37472915649414 26.00000190734863 55.55025863647461 26.00000190734863 L 8.449737548828125 26.00000190734863 C 5.625267028808594 26.00000190734863 4.365848541259766 22.45274353027344 6.557956695556641 20.67165374755859 L 30.10821914672852 1.537073135375977 C 30.65932464599609 1.089298248291016 31.32966232299805 0.8654098510742188 31.99999809265137 0.8654098510742188 Z" stroke="none" fill="#2d3239"/>
          </g>
        </g>
        <path id="패스_10971" data-name="패스 10971" d="M10.739-1.209-.618,10.22" transform="translate(27.261 6.854)" fill="none" stroke="#2d3239" stroke-width="2"/>
        <path id="패스_10972" data-name="패스 10972" d="M-.618-1.209,10.739,10.22" transform="translate(1.261 6.354)" fill="none" stroke="#2d3239" stroke-width="2"/>
      </g>
      <g id="마스크_그룹_14712" data-name="마스크 그룹 14712" clip-path="url(#clip-path-2)">
        <circle id="타원_2418" data-name="타원 2418" cx="10" cy="10" r="10" transform="translate(75 210)" fill="#fff"/>
      </g>
      <rect id="사각형_18373" data-name="사각형 18373" width="4" height="20" rx="2" transform="translate(84 205)" fill="#fff"/>
      <rect id="사각형_11480" data-name="사각형 11480" width="12" height="2" rx="1" transform="translate(61 203)" fill="#2d3239"/>
      <rect id="사각형_18374" data-name="사각형 18374" width="3" height="20" transform="translate(87 205)" fill="#f8f8f8"/>
      <g id="사각형_11482" data-name="사각형 11482" transform="translate(61 192)" fill="none" stroke="#2d3239" stroke-width="2">
        <rect width="12" height="9" rx="2" stroke="none"/>
        <rect x="1" y="1" width="10" height="7" rx="1" fill="none"/>
      </g>
      <circle id="타원_1318" data-name="타원 1318" cx="8" cy="8" r="8" transform="translate(77 212)" fill="#7dedf3"/>
      <g id="타원_1317" data-name="타원 1317" transform="translate(79 212)" fill="none" stroke="#2d3239" stroke-width="2">
        <circle cx="8.5" cy="8.5" r="8.5" stroke="none"/>
        <circle cx="8.5" cy="8.5" r="7.5" fill="none"/>
      </g>
      <path id="패스_3490" data-name="패스 3490" d="M-10169.5,5363l2.476,2.5,4.524-5" transform="translate(10253.5 -5142.5)" fill="none" stroke="#2d3239" stroke-linecap="round" stroke-linejoin="round" stroke-width="2"/>
      <rect id="사각형_11508" data-name="사각형 11508" width="2" height="6" rx="1" transform="translate(85 204)" fill="#2d3239"/>
    </g>
  </g>
</svg>
