<svg xmlns="http://www.w3.org/2000/svg" width="90" height="90" viewBox="0 0 90 90">
  <g id="ic-com-voucher-register" transform="translate(-135 -151)">
    <circle id="타원_1315" data-name="타원 1315" cx="45" cy="45" r="45" transform="translate(135 151)" fill="#f8f8f8"/>
    <g id="그룹_8078" data-name="그룹 8078" transform="translate(2 1)">
      <g id="빼기_170" data-name="빼기 170" transform="translate(155 178)" fill="#fff">
        <path d="M 40.00139999389648 33.00110244750977 L 6.002100944519043 33.00110244750977 C 3.244930982589722 33.00110244750977 1.001800894737244 30.75797080993652 1.001800894737244 28.00080108642578 L 1.001800894737244 5.998500823974609 C 1.001800894737244 3.241330862045288 3.244930982589722 0.9982009530067444 6.002100944519043 0.9982009530067444 L 40.00139999389648 0.9982009530067444 C 42.75857162475586 0.9982009530067444 45.00170135498047 3.241330862045288 45.00170135498047 5.998500823974609 L 45.00170135498047 11.34177684783936 C 42.64070510864258 12.17631721496582 41.00030136108398 14.4377908706665 41.00030136108398 17.00010108947754 C 41.00030136108398 19.56266212463379 42.64073944091797 21.8244743347168 45.00170135498047 22.65922927856445 L 45.00170135498047 28.00080108642578 C 45.00170135498047 30.75797080993652 42.75857162475586 33.00110244750977 40.00139999389648 33.00110244750977 Z" stroke="none"/>
        <path d="M 40.00139999389648 32.00110244750977 C 42.20717239379883 32.00110244750977 44.00170135498047 30.20657157897949 44.00170135498047 28.00080108642578 L 44.00170135498047 23.32632446289062 C 41.61007690429688 22.18815040588379 40.00030136108398 19.74160385131836 40.00030136108398 17.00010108947754 C 40.00030136108398 14.25880432128906 41.61001968383789 11.81257343292236 44.00170135498047 10.67462158203125 L 44.00170135498047 5.998500823974609 C 44.00170135498047 3.792731046676636 42.20717239379883 1.998201012611389 40.00139999389648 1.998201012611389 L 6.002100944519043 1.998201012611389 C 3.79633092880249 1.998201012611389 2.001801013946533 3.792731046676636 2.001801013946533 5.998500823974609 L 2.001801013946533 28.00080108642578 C 2.001801013946533 30.20657157897949 3.79633092880249 32.00110244750977 6.002100944519043 32.00110244750977 L 40.00139999389648 32.00110244750977 M 40.00139999389648 34.00110244750977 L 6.002100944519043 34.00110244750977 C 2.693521022796631 34.00110244750977 0.001800946076400578 31.30938148498535 0.001800946076400578 28.00080108642578 L 0.001800946076400578 5.998500823974609 C 0.001800946076400578 2.689920902252197 2.693521022796631 -0.001799044781364501 6.002100944519043 -0.001799044781364501 L 40.00139999389648 -0.001799044781364501 C 43.30998229980469 -0.001799044781364501 46.00170135498047 2.689920902252197 46.00170135498047 5.998500823974609 L 46.00170135498047 12.10029125213623 C 43.68279266357422 12.57006072998047 42.00030136108398 14.63032054901123 42.00030136108398 17.00010108947754 C 42.00030136108398 19.3698616027832 43.68313217163086 21.4308910369873 46.00170135498047 21.90077018737793 L 46.00170135498047 28.00080108642578 C 46.00170135498047 31.30938148498535 43.30998229980469 34.00110244750977 40.00139999389648 34.00110244750977 Z" stroke="none" fill="#2d3239"/>
      </g>
      <path id="다각형_78" data-name="다각형 78" d="M8.549.947a.5.5,0,0,1,.9,0l2.131,4.471a.5.5,0,0,0,.39.281l4.96.615a.5.5,0,0,1,.278.863l-3.636,3.362a.5.5,0,0,0-.151.462l.939,4.834a.5.5,0,0,1-.729.535L9.238,13.986a.5.5,0,0,0-.477,0L4.369,16.37a.5.5,0,0,1-.729-.535L4.578,11a.5.5,0,0,0-.151-.462L.791,7.177a.5.5,0,0,1,.278-.863L6.028,5.7a.5.5,0,0,0,.39-.281Z" transform="translate(168 185.996)" fill="none" stroke="#2d3239" stroke-width="2"/>
      <g id="타원_1455" data-name="타원 1455" transform="translate(187 198)" fill="#7dedf3" stroke="#fff" stroke-width="2">
        <circle cx="8" cy="8" r="8" stroke="none"/>
        <circle cx="8" cy="8" r="9" fill="none"/>
      </g>
      <rect id="사각형_11983" data-name="사각형 11983" width="5" height="2" transform="translate(186 212)" fill="#f8f8f8"/>
      <path id="빼기_172" data-name="빼기 172" d="M-13415-4659a10.965,10.965,0,0,1-9.8-6h8.8a5.007,5.007,0,0,0,5-5v-5.339a6.016,6.016,0,0,1-4-5.659,10.926,10.926,0,0,1,7.777,3.221A10.925,10.925,0,0,1-13404-4670,11.012,11.012,0,0,1-13415-4659Z" transform="translate(13612.103 4876.998)" fill="#f8f8f8"/>
      <circle id="타원_1456" data-name="타원 1456" cx="8" cy="8" r="8" transform="translate(187 198)" fill="#7dedf3"/>
      <g id="타원_1317" data-name="타원 1317" transform="translate(189 198)" fill="none" stroke="#2d3239" stroke-width="2">
        <circle cx="8.5" cy="8.5" r="8.5" stroke="none"/>
        <circle cx="8.5" cy="8.5" r="7.5" fill="none"/>
      </g>
      <path id="패스_3490" data-name="패스 3490" d="M-10169.5,5363l2.476,2.5,4.524-5" transform="translate(10363.5 -5156.5)" fill="none" stroke="#2d3239" stroke-linecap="round" stroke-linejoin="round" stroke-width="2"/>
    </g>
  </g>
</svg>
