<svg xmlns="http://www.w3.org/2000/svg" width="90" height="90" viewBox="0 0 90 90">
  <g id="ic-com-abroad" transform="translate(24381 -16560)">
    <circle id="타원_1870" data-name="타원 1870" cx="45" cy="45" r="45" transform="translate(-24381 16560)" fill="#f8f8f8"/>
    <g id="그룹_11922" data-name="그룹 11922" transform="translate(114.5 -96.984)">
      <circle id="타원_1857" data-name="타원 1857" cx="25" cy="25" r="25" transform="translate(-24476 16677)" fill="#fff"/>
      <g id="교차_25" data-name="교차 25" transform="translate(-24476 16645)" fill="#fff">
        <path d="M 25.00020408630371 43.00010299682617 C 18.75165176391602 43.00010299682617 12.73887157440186 41.84762573242188 8.247821807861328 39.81321334838867 C 10.26741504669189 37.84106826782227 12.59165000915527 36.25790405273438 15.1734447479248 35.09771347045898 C 18.27038383483887 33.7060432434082 21.57658386230469 33.00040054321289 25.00020408630371 33.00040054321289 C 28.42382431030273 33.00040054321289 31.73001480102539 33.7060432434082 34.82694625854492 35.09771347045898 C 37.40873718261719 36.25790405273438 39.73297500610352 37.84106826782227 41.75256729125977 39.81321334838867 C 37.26152038574219 41.84762573242188 31.24874877929688 43.00010299682617 25.00020408630371 43.00010299682617 Z" stroke="none"/>
        <path d="M 25.00020408630371 42.00010299682617 C 30.47316360473633 42.00010299682617 35.74812698364258 41.10203170776367 39.92268753051758 39.4948844909668 C 38.26546096801758 38.07834625244141 36.42235946655273 36.91097640991211 34.41705322265625 36.00985336303711 C 31.44987487792969 34.67648315429688 28.28158378601074 34.00040054321289 25.00020408630371 34.00040054321289 C 21.71882438659668 34.00040054321289 18.55052375793457 34.67648315429688 15.58333492279053 36.00985336303711 C 13.57803153991699 36.91097640991211 11.73492813110352 38.07834625244141 10.07770347595215 39.4948844909668 C 14.25226211547852 41.10203170776367 19.52722930908203 42.00010299682617 25.00020408630371 42.00010299682617 M 25.00020408630371 44.00010299682617 C 17.70573425292969 44.00010299682617 11.14032459259033 42.5001106262207 6.570104598999023 40.10811996459961 C 11.14032459259033 35.12497329711914 17.70573425292969 32.00040054321289 25.00020408630371 32.00040054321289 C 32.2946662902832 32.00040054321289 38.86006546020508 35.12497329711914 43.4302864074707 40.10811996459961 C 38.86006546020508 42.5001106262207 32.2946662902832 44.00010299682617 25.00020408630371 44.00010299682617 Z" stroke="none" fill="#2d3239"/>
      </g>
      <g id="교차_26" data-name="교차 26" transform="translate(-24469.43 16715)" fill="#fff">
        <path d="M 18.4296875 11 C 15.00615787506104 11 11.70003795623779 10.29434967041016 8.603187561035156 8.902640342712402 C 6.021444797515869 7.742420673370361 3.697217464447021 6.159173965454102 1.677670359611511 4.186980247497559 C 6.168612003326416 2.15251898765564 12.18128108978271 1 18.4296875 1 C 24.67810249328613 1 30.69077110290527 2.152518272399902 35.18170547485352 4.186979293823242 C 33.16215896606445 6.159173011779785 30.83793067932129 7.742420673370361 28.25619697570801 8.902640342712402 C 25.15933799743652 10.29434967041016 21.85322761535645 11 18.4296875 11 Z" stroke="none"/>
        <path d="M 18.4296875 2 C 12.95684432983398 2 7.681924819946289 2.89812183380127 3.507476806640625 4.50530481338501 C 5.164661407470703 5.921876907348633 7.007833480834961 7.089364051818848 9.013088226318359 7.990509986877441 C 11.98019790649414 9.323909759521484 15.14839744567871 10 18.4296875 10 C 21.71097755432129 10 24.87918853759766 9.323909759521484 27.84629821777344 7.990509986877441 C 29.8515453338623 7.089364051818848 31.69471549987793 5.921877384185791 33.35189819335938 4.50530481338501 C 29.17745018005371 2.89812183380127 23.90253067016602 2 18.4296875 2 M 18.4296875 0 C 25.72399711608887 0 32.28925704956055 1.500020027160645 36.85937881469727 3.892080307006836 C 32.28925704956055 8.875349998474121 25.72399711608887 12 18.4296875 12 C 11.1353874206543 12 4.570117950439453 8.875349998474121 -3.814697265625e-06 3.892080307006836 C 4.570117950439453 1.500020027160645 11.1353874206543 0 18.4296875 0 Z" stroke="none" fill="#2d3239"/>
      </g>
      <g id="빼기_417" data-name="빼기 417" transform="translate(2783.5 -8772.984)" fill="none">
        <path d="M-27234.5,25499.984a24.832,24.832,0,0,1-9.729-1.965,24.909,24.909,0,0,1-7.945-5.357,24.9,24.9,0,0,1-5.357-7.947,24.832,24.832,0,0,1-1.965-9.729,24.873,24.873,0,0,1,1.965-9.732,24.9,24.9,0,0,1,5.357-7.947,24.862,24.862,0,0,1,7.945-5.359,24.792,24.792,0,0,1,9.729-1.967,24.912,24.912,0,0,1,17,6.666,24.922,24.922,0,0,1,7.928,16.307h-2.012a23.136,23.136,0,0,0-22.912-20.967,23.024,23.024,0,0,0-23,23,23.024,23.024,0,0,0,23,23,22.875,22.875,0,0,0,8.736-1.717,4,4,0,0,0,1.773,1.406A24.823,24.823,0,0,1-27234.5,25499.984Z" stroke="none"/>
        <path d="M -27234.50390625 25499.984375 C -27237.880859375 25499.984375 -27241.15234375 25499.322265625 -27244.232421875 25498.01953125 C -27247.2109375 25496.759765625 -27249.8828125 25494.95703125 -27252.177734375 25492.662109375 C -27254.474609375 25490.365234375 -27256.27734375 25487.69140625 -27257.53515625 25484.71484375 C -27258.837890625 25481.634765625 -27259.5 25478.36328125 -27259.5 25474.986328125 C -27259.5 25471.611328125 -27258.837890625 25468.337890625 -27257.53515625 25465.25390625 C -27256.27734375 25462.27734375 -27254.474609375 25459.603515625 -27252.177734375 25457.306640625 C -27249.884765625 25455.009765625 -27247.2109375 25453.20703125 -27244.232421875 25451.947265625 C -27241.154296875 25450.642578125 -27237.880859375 25449.98046875 -27234.50390625 25449.98046875 C -27228.177734375 25449.98046875 -27222.140625 25452.34765625 -27217.5078125 25456.646484375 C -27212.8984375 25460.919921875 -27210.083984375 25466.7109375 -27209.580078125 25472.953125 L -27211.591796875 25472.953125 C -27212.619140625 25461.1953125 -27222.681640625 25451.986328125 -27234.50390625 25451.986328125 C -27247.1875 25451.986328125 -27257.50390625 25462.302734375 -27257.50390625 25474.986328125 C -27257.50390625 25487.669921875 -27247.1875 25497.986328125 -27234.50390625 25497.986328125 C -27231.478515625 25497.986328125 -27228.5390625 25497.408203125 -27225.767578125 25496.26953125 C -27225.3203125 25496.90234375 -27224.70703125 25497.388671875 -27223.994140625 25497.67578125 C -27227.298828125 25499.20703125 -27230.8359375 25499.984375 -27234.50390625 25499.984375 Z" stroke="none" fill="#2d3239"/>
      </g>
      <g id="빼기_418" data-name="빼기 418" transform="translate(2795.5 -8773.016)" fill="none">
        <path d="M-27246.5,25499.984c-3.471,0-6.734-2.6-9.189-7.322s-3.809-11-3.809-17.676,1.354-12.957,3.809-17.68,5.717-7.326,9.189-7.326c3.291,0,6.434,2.371,8.844,6.676a37.3,37.3,0,0,1,4.119,16.324h-2.051a36.578,36.578,0,0,0-3.5-14.91c-2.033-3.924-4.674-6.084-7.437-6.084-6.055,0-10.98,10.316-10.98,23s4.926,23,10.98,23c1.9,0,3.777-1.039,5.426-3h2.4C-27240.963,25498.256-27243.662,25499.984-27246.5,25499.984Z" stroke="none"/>
        <path d="M -27246.501953125 25499.984375 C -27249.97265625 25499.984375 -27253.236328125 25497.3828125 -27255.69140625 25492.662109375 C -27258.146484375 25487.939453125 -27259.5 25481.662109375 -27259.5 25474.986328125 C -27259.5 25468.306640625 -27258.146484375 25462.029296875 -27255.69140625 25457.306640625 C -27253.23828125 25452.58203125 -27249.974609375 25449.98046875 -27246.501953125 25449.98046875 C -27243.2109375 25449.98046875 -27240.068359375 25452.3515625 -27237.658203125 25456.65625 C -27235.259765625 25460.93359375 -27233.798828125 25466.73046875 -27233.5390625 25472.98046875 L -27235.58984375 25472.98046875 C -27235.82421875 25467.265625 -27237.06640625 25461.97265625 -27239.0859375 25458.0703125 C -27241.119140625 25454.146484375 -27243.759765625 25451.986328125 -27246.5234375 25451.986328125 C -27252.578125 25451.986328125 -27257.50390625 25462.302734375 -27257.50390625 25474.986328125 C -27257.50390625 25487.669921875 -27252.578125 25497.986328125 -27246.5234375 25497.986328125 C -27244.623046875 25497.986328125 -27242.74609375 25496.947265625 -27241.09765625 25494.982421875 L -27238.697265625 25494.982421875 C -27240.962890625 25498.255859375 -27243.662109375 25499.984375 -27246.501953125 25499.984375 Z" stroke="none" fill="#2d3239"/>
      </g>
      <rect id="사각형_18267" data-name="사각형 18267" width="13" height="5" transform="translate(-24447 16714.984)" fill="#fff"/>
      <circle id="타원_1865" data-name="타원 1865" cx="1" cy="1" r="1" transform="translate(-24428.5 16695.969)" fill="#2d3239"/>
      <circle id="타원_1866" data-name="타원 1866" cx="1" cy="1" r="1" transform="translate(-24440.301 16695.969)" fill="#2d3239"/>
      <rect id="사각형_14164" data-name="사각형 14164" width="4" height="3" transform="matrix(0.788, 0.616, -0.616, 0.788, -24444.652, 16718.586)" fill="#fff"/>
      <g id="그룹_11920" data-name="그룹 11920" transform="translate(-24505.5 14632.092)">
        <rect id="사각형_11637" data-name="사각형 11637" width="16" height="13" rx="4" transform="translate(64.5 2077.877)" fill="#7dedf3"/>
        <g id="사각형_11631" data-name="사각형 11631" transform="translate(61.5 2075.877)" fill="none" stroke="#2d3239" stroke-width="2">
          <rect width="17" height="14" rx="4" stroke="none"/>
          <rect x="1" y="1" width="15" height="12" rx="3" fill="none"/>
        </g>
        <g id="사각형_11632" data-name="사각형 11632" transform="translate(65.5 2069.877)" fill="none" stroke="#2d3239" stroke-width="2">
          <path d="M4.5,0h0A4.5,4.5,0,0,1,9,4.5V8A0,0,0,0,1,9,8H0A0,0,0,0,1,0,8V4.5A4.5,4.5,0,0,1,4.5,0Z" stroke="none"/>
          <path d="M4.5,1h0A3.5,3.5,0,0,1,8,4.5V7A0,0,0,0,1,8,7H1A0,0,0,0,1,1,7V4.5A3.5,3.5,0,0,1,4.5,1Z" fill="none"/>
        </g>
        <rect id="사각형_11636" data-name="사각형 11636" width="2" height="4" rx="1" transform="translate(69 2080.377)" fill="#2d3239"/>
      </g>
      <circle id="타원_1871" data-name="타원 1871" cx="1" cy="1" r="1" transform="translate(-24428.1 16699)" fill="#2d3239"/>
      <circle id="타원_1872" data-name="타원 1872" cx="1" cy="1" r="1" transform="translate(-24440.051 16699)" fill="#2d3239"/>
      <circle id="타원_1874" data-name="타원 1874" cx="1" cy="1" r="1" transform="translate(-24448 16715.15)" fill="#2d3239"/>
      <circle id="타원_1875" data-name="타원 1875" cx="1" cy="1" r="1" transform="translate(-24445.801 16721.484)" fill="#2d3239"/>
      <circle id="타원_1867" data-name="타원 1867" cx="1" cy="1" r="1" transform="translate(-24449.301 16701)" fill="#2d3239"/>
      <circle id="타원_1873" data-name="타원 1873" cx="1" cy="1" r="1" transform="translate(-24444 16701)" fill="#2d3239"/>
      <rect id="사각형_14161" data-name="사각형 14161" width="33" height="2" transform="translate(-24476 16701)" fill="#2d3239"/>
    </g>
  </g>
</svg>
