<svg xmlns="http://www.w3.org/2000/svg" width="90" height="90" viewBox="0 0 90 90">
  <g id="ic-com-id-fail" transform="translate(-135 -164)">
    <circle id="타원_1315" data-name="타원 1315" cx="45" cy="45" r="45" transform="translate(135 164)" fill="#f8f8f8"/>
    <g id="그룹_8077" data-name="그룹 8077" transform="translate(2)">
      <g id="사각형_11123" data-name="사각형 11123" transform="translate(157 186)" fill="#fff" stroke="#2d3239" stroke-width="2">
        <rect width="33" height="40" rx="6" stroke="none"/>
        <rect x="1" y="1" width="31" height="38" rx="5" fill="none"/>
      </g>
      <g id="사각형_11100" data-name="사각형 11100" transform="translate(163 192)" fill="#fff" stroke="#2d3239" stroke-width="2">
        <rect width="33" height="40" rx="6" stroke="none"/>
        <rect x="1" y="1" width="31" height="38" rx="5" fill="none"/>
      </g>
      <rect id="사각형_6085" data-name="사각형 6085" width="17" height="2" rx="1" transform="translate(171 218)" fill="#2d3239"/>
      <rect id="사각형_6086" data-name="사각형 6086" width="12" height="2" rx="1" transform="translate(171 223)" fill="#2d3239"/>
      <rect id="사각형_11102" data-name="사각형 11102" width="2" height="4" rx="1" transform="translate(194 203)" fill="#2d3239"/>
      <g id="타원_878" data-name="타원 878" transform="translate(174.5 197)" fill="none" stroke="#2d3239" stroke-width="2">
        <circle cx="4.5" cy="4.5" r="4.5" stroke="none"/>
        <circle cx="4.5" cy="4.5" r="3.5" fill="none"/>
      </g>
      <g id="사각형_7242" data-name="사각형 7242" transform="translate(171 207.5)" fill="none" stroke="#2d3239" stroke-width="2">
        <path d="M4,0h8a4,4,0,0,1,4,4V9.5a0,0,0,0,1,0,0H0a0,0,0,0,1,0,0V4A4,4,0,0,1,4,0Z" stroke="none"/>
        <path d="M4,1h8a3,3,0,0,1,3,3V8.5a0,0,0,0,1,0,0H1a0,0,0,0,1,0,0V4A3,3,0,0,1,4,1Z" fill="none"/>
      </g>
      <rect id="사각형_11124" data-name="사각형 11124" width="18" height="4" transform="translate(169 214)" fill="#fff"/>
      <rect id="사각형_18380" data-name="사각형 18380" width="6" height="15" transform="translate(192 206)" fill="#fff"/>
      <rect id="사각형_18381" data-name="사각형 18381" width="6" height="15" transform="translate(196 206)" fill="#f8f8f8"/>
      <circle id="타원_2423" data-name="타원 2423" cx="8.5" cy="8.5" r="8.5" transform="translate(186 210)" fill="#fff"/>
      <path id="교차_48" data-name="교차 48" d="M-2392,8976a10,10,0,0,1,10-10,9.969,9.969,0,0,1,4,.832V8984a6.026,6.026,0,0,1-.124,1.22A9.964,9.964,0,0,1-2382,8986,10,10,0,0,1-2392,8976Z" transform="translate(2574 -8758)" fill="#fff"/>
      <circle id="타원_1320" data-name="타원 1320" cx="1" cy="1" r="1" transform="translate(171 213)" fill="#2d3239"/>
      <circle id="타원_1318" data-name="타원 1318" cx="8" cy="8" r="8" transform="translate(184 210)" fill="#ffd1dc"/>
      <g id="타원_1317" data-name="타원 1317" transform="translate(186 210)" fill="none" stroke="#2d3239" stroke-width="2">
        <circle cx="8.5" cy="8.5" r="8.5" stroke="none"/>
        <circle cx="8.5" cy="8.5" r="7.5" fill="none"/>
      </g>
      <rect id="사각형_11126" data-name="사각형 11126" width="2" height="9" rx="1" transform="translate(196.964 214.6) rotate(45)" fill="#2d3239"/>
      <rect id="사각형_11127" data-name="사각형 11127" width="1.999" height="8.999" rx="1" transform="translate(198.377 220.963) rotate(135)" fill="#2d3239"/>
    </g>
  </g>
</svg>
