<svg xmlns="http://www.w3.org/2000/svg" width="90" height="90" viewBox="0 0 90 90">
  <g id="ic-com-lockopen" transform="translate(-133 -166)">
    <circle id="타원_1315" data-name="타원 1315" cx="45" cy="45" r="45" transform="translate(133 166)" fill="#f8f8f8"/>
    <rect id="사각형_18370" data-name="사각형 18370" width="38" height="31" rx="8" transform="translate(158 201)" fill="#fff"/>
    <g id="빼기_424" data-name="빼기 424" transform="translate(1799 -8765)" fill="#fff">
      <path d="M -1632.999145507812 8996 L -1633.100708007812 8996 C -1636.880249023438 8996 -1639.959716796875 8992.943359375 -1639.998657226562 8989.171875 C -1639.906982421875 8992.953125 -1636.802368164062 8996 -1632.999145507812 8996 Z M -1607.318237304688 8995 L -1607.397705078125 8995 C -1605.635375976562 8993.9375 -1604.376342773438 8992.12109375 -1604.071655273438 8990 L -1604.05810546875 8990 C -1604.199096679688 8991.0849609375 -1604.594970703125 8992.1162109375 -1605.2236328125 8993.0244140625 C -1605.782104492188 8993.830078125 -1606.494506835938 8994.5 -1607.318237304688 8995 Z M -1604 8977 L -1604.00048828125 8977 L -1604.00048828125 8974.0009765625 C -1604.00048828125 8970.2041015625 -1607.037719726562 8967.1025390625 -1610.809692382812 8967.001953125 C -1607.046508789062 8967.05078125 -1604 8970.1259765625 -1604 8973.8994140625 L -1604 8977 Z M -1639.998657226562 8973.830078125 C -1639.9619140625 8970.0869140625 -1636.928466796875 8967.0478515625 -1633.1875 8967.001953125 C -1636.904907226562 8967.099609375 -1639.909301757812 8970.1103515625 -1639.998657226562 8973.830078125 Z" stroke="none"/>
      <path d="M -1613.00048828125 8997 L -1633.100708007812 8997 C -1637.455810546875 8997 -1640.9990234375 8993.4560546875 -1640.9990234375 8989.099609375 L -1640.9990234375 8973.8994140625 C -1640.9990234375 8969.5439453125 -1637.455810546875 8966.0009765625 -1633.100708007812 8966.0009765625 L -1610.900512695312 8966.0009765625 C -1606.544189453125 8966.0009765625 -1603 8969.5439453125 -1603 8973.8994140625 L -1603 8978 L -1605.00048828125 8978 L -1605.00048828125 8974.0009765625 C -1605.00048828125 8970.69140625 -1607.691772460938 8967.9990234375 -1610.999877929688 8967.9990234375 L -1632.999145507812 8967.9990234375 C -1636.308471679688 8967.9990234375 -1639.000732421875 8970.69140625 -1639.000732421875 8974.0009765625 L -1639.000732421875 8989 C -1639.000732421875 8992.30859375 -1636.308471679688 8995 -1632.999145507812 8995 L -1610.999877929688 8995 C -1607.691772460938 8995 -1605.00048828125 8992.30859375 -1605.00048828125 8989 L -1603 8989 L -1603 8989.099609375 C -1603 8990.7158203125 -1603.484619140625 8992.26953125 -1604.401489257812 8993.59375 C -1605.2978515625 8994.88671875 -1606.541870117188 8995.875 -1607.9990234375 8996.4501953125 L -1607.9990234375 8996 L -1613.00048828125 8996 L -1613.00048828125 8997 Z" stroke="none" fill="#2d3239"/>
    </g>
    <rect id="사각형_11102" data-name="사각형 11102" width="2" height="4" rx="1" transform="translate(194 211)" fill="#2d3239"/>
    <path id="교차_45" data-name="교차 45" d="M-1613,8997a9.957,9.957,0,0,1-2-6,10,10,0,0,1,10-10,10.061,10.061,0,0,1,2,.2v7.8a8,8,0,0,1-8,8Z" transform="translate(1799 -8765)" fill="#fff"/>
    <circle id="타원_2419" data-name="타원 2419" cx="8.5" cy="8.5" r="8.5" transform="translate(188 218)" fill="#fff"/>
    <circle id="타원_1318" data-name="타원 1318" cx="8" cy="8" r="8" transform="translate(186 218)" fill="#7dedf3"/>
    <g id="타원_1317" data-name="타원 1317" transform="translate(188 218)" fill="none" stroke="#2d3239" stroke-width="2">
      <circle cx="8.5" cy="8.5" r="8.5" stroke="none"/>
      <circle cx="8.5" cy="8.5" r="7.5" fill="none"/>
    </g>
    <path id="패스_3490" data-name="패스 3490" d="M-10169.5,5363l2.476,2.5,4.524-5" transform="translate(10362.5 -5136.5)" fill="none" stroke="#2d3239" stroke-linecap="round" stroke-linejoin="round" stroke-width="2"/>
    <g id="사각형_11651" data-name="사각형 11651" transform="translate(168 187)" fill="none" stroke="#2d3239" stroke-width="2">
      <path d="M9,0H9a9,9,0,0,1,9,9v7a0,0,0,0,1,0,0H0a0,0,0,0,1,0,0V9A9,9,0,0,1,9,0Z" stroke="none"/>
      <path d="M9,1H9a8,8,0,0,1,8,8v6a0,0,0,0,1,0,0H1a0,0,0,0,1,0,0V9A8,8,0,0,1,9,1Z" fill="none"/>
    </g>
    <rect id="사각형_11652" data-name="사각형 11652" width="12" height="2" rx="1" transform="translate(165 212)" fill="#2d3239"/>
    <rect id="사각형_11653" data-name="사각형 11653" width="8" height="2" rx="1" transform="translate(165 217)" fill="#2d3239"/>
  </g>
</svg>
