<svg xmlns="http://www.w3.org/2000/svg" width="90" height="90" viewBox="0 0 90 90">
  <g id="ic-com-talk" transform="translate(-24 -164)">
    <circle id="타원_1315" data-name="타원 1315" cx="45" cy="45" r="45" transform="translate(24 164)" fill="#f8f8f8"/>
    <rect id="사각형_18353" data-name="사각형 18353" width="30" height="46" rx="6" transform="translate(54 186)" fill="#fff"/>
    <circle id="타원_2427" data-name="타원 2427" cx="8.5" cy="8.5" r="8.5" transform="translate(79 212)" fill="#fff"/>
    <g id="빼기_421" data-name="빼기 421" transform="translate(19749 -12168)" fill="#fff">
      <path d="M -19670.998046875 12399.0009765625 L -19689 12399.0009765625 C -19691.7578125 12399.0009765625 -19694 12396.7578125 -19694 12394 L -19694 12359.9990234375 C -19694 12357.2412109375 -19691.7578125 12354.998046875 -19689 12354.998046875 L -19670.998046875 12354.998046875 C -19668.240234375 12354.998046875 -19665.998046875 12357.2412109375 -19665.998046875 12359.9990234375 L -19665.998046875 12374 L -19666 12374 L -19666 12359.9990234375 C -19666 12357.2421875 -19668.2421875 12355 -19670.998046875 12355 L -19689 12355 C -19691.755859375 12355 -19693.998046875 12357.2421875 -19693.998046875 12359.9990234375 L -19693.998046875 12394 C -19693.998046875 12396.7568359375 -19691.755859375 12398.9990234375 -19689 12398.9990234375 L -19670.998046875 12398.9990234375 C -19669.908203125 12398.9990234375 -19668.857421875 12398.6435546875 -19668 12398.0009765625 L -19667.998046875 12398.0009765625 C -19668.853515625 12398.6455078125 -19669.8984375 12399.0009765625 -19670.998046875 12399.0009765625 Z" stroke="none"/>
      <path d="M -19670.998046875 12400.0009765625 L -19689 12400.0009765625 C -19692.30859375 12400.0009765625 -19695 12397.30859375 -19695 12394 L -19695 12359.9990234375 C -19695 12356.6904296875 -19692.30859375 12353.998046875 -19689 12353.998046875 L -19670.998046875 12353.998046875 C -19667.689453125 12353.998046875 -19664.998046875 12356.6904296875 -19664.998046875 12359.9990234375 L -19664.998046875 12375 L -19667 12375 L -19667 12359.9990234375 C -19667 12357.7939453125 -19668.79296875 12356 -19670.998046875 12356 L -19689 12356 C -19691.205078125 12356 -19692.998046875 12357.7939453125 -19692.998046875 12359.9990234375 L -19692.998046875 12394 C -19692.998046875 12396.205078125 -19691.205078125 12397.9990234375 -19689 12397.9990234375 L -19670.998046875 12397.9990234375 C -19669.849609375 12397.9990234375 -19668.755859375 12397.505859375 -19667.998046875 12396.64453125 L -19667.998046875 12397.0009765625 L -19666.435546875 12397.0009765625 C -19666.478515625 12397.0908203125 -19666.5 12397.1826171875 -19666.5 12397.27734375 C -19666.5 12397.44921875 -19666.4296875 12397.611328125 -19666.30078125 12397.7314453125 C -19667.44921875 12399.1748046875 -19669.162109375 12400.0009765625 -19670.998046875 12400.0009765625 Z" stroke="none" fill="#2d3239"/>
    </g>
    <path id="교차_44" data-name="교차 44" d="M-19674,12388a10,10,0,0,1,9-9.95V12394a5.965,5.965,0,0,1-1.307,3.736A10,10,0,0,1-19674,12388Z" transform="translate(19749 -12168)" fill="#fff"/>
    <circle id="타원_2415" data-name="타원 2415" cx="8" cy="8" r="8" transform="translate(77 212)" fill="#7dedf3"/>
    <g id="타원_2416" data-name="타원 2416" transform="translate(79 212)" fill="none" stroke="#2d3239" stroke-width="2">
      <circle cx="8.5" cy="8.5" r="8.5" stroke="none"/>
      <circle cx="8.5" cy="8.5" r="7.5" fill="none"/>
    </g>
    <rect id="사각형_18358" data-name="사각형 18358" width="2" height="6" rx="1" transform="translate(82 203)" fill="#2d3239"/>
    <rect id="사각형_18359" data-name="사각형 18359" width="6" height="2" rx="1" transform="translate(66 191)" fill="#2d3239"/>
    <path id="패스_3490" data-name="패스 3490" d="M-10169.5,5363l2.476,2.5,4.524-5" transform="translate(10253.5 -5142.5)" fill="none" stroke="#2d3239" stroke-linecap="round" stroke-linejoin="round" stroke-width="2"/>
    <g id="합치기_133" data-name="합치기 133" transform="translate(-3404 -1851)" fill="none">
      <path d="M3468.57,2069.371l-.375-2.371H3468a4,4,0,0,1-4-4v-6a4,4,0,0,1,4-4h10a4,4,0,0,1,4,4v6a4,4,0,0,1-4,4h-5.175l-2.514,2.873a.982.982,0,0,1-.747.343A1,1,0,0,1,3468.57,2069.371Z" stroke="none"/>
      <path d="M 3470.2109375 2066.949462890625 L 3471.9169921875 2065.000244140625 L 3477.999755859375 2065.000244140625 C 3479.102783203125 2065.000244140625 3480.000244140625 2064.102783203125 3480.000244140625 2062.999755859375 L 3480.000244140625 2056.99951171875 C 3480.000244140625 2055.89697265625 3479.102783203125 2055 3477.999755859375 2055 L 3467.999755859375 2055 C 3466.897216796875 2055 3466.000244140625 2055.89697265625 3466.000244140625 2056.99951171875 L 3466.000244140625 2062.999755859375 C 3466.000244140625 2064.102783203125 3466.897216796875 2065.000244140625 3467.999755859375 2065.000244140625 L 3469.90234375 2065.000244140625 L 3470.2109375 2066.949462890625 M 3469.5625 2070.215576171875 C 3469.10205078125 2070.215576171875 3468.653076171875 2069.89990234375 3468.569580078125 2069.370849609375 L 3468.194091796875 2067.000244140625 L 3467.999755859375 2067.000244140625 C 3465.791259765625 2067.000244140625 3464.000244140625 2065.209228515625 3464.000244140625 2062.999755859375 L 3464.000244140625 2056.99951171875 C 3464.000244140625 2054.791015625 3465.791259765625 2053 3467.999755859375 2053 L 3477.999755859375 2053 C 3480.209228515625 2053 3482.000244140625 2054.791015625 3482.000244140625 2056.99951171875 L 3482.000244140625 2062.999755859375 C 3482.000244140625 2065.209228515625 3480.209228515625 2067.000244140625 3477.999755859375 2067.000244140625 L 3472.824462890625 2067.000244140625 L 3470.31005859375 2069.873046875 C 3470.104248046875 2070.108154296875 3469.83154296875 2070.215576171875 3469.56298828125 2070.215576171875 C 3469.562744140625 2070.215576171875 3469.562744140625 2070.215576171875 3469.5625 2070.215576171875 Z" stroke="none" fill="#2d3239"/>
    </g>
    <circle id="타원_1434" data-name="타원 1434" cx="1.25" cy="1.25" r="1.25" transform="translate(64 208)" fill="#2d3239"/>
    <circle id="타원_1435" data-name="타원 1435" cx="1.25" cy="1.25" r="1.25" transform="translate(67.75 208)" fill="#2d3239"/>
    <circle id="타원_1436" data-name="타원 1436" cx="1.25" cy="1.25" r="1.25" transform="translate(71.5 208)" fill="#2d3239"/>
  </g>
</svg>
