<svg xmlns="http://www.w3.org/2000/svg" width="90" height="90" viewBox="0 0 90 90">
  <g id="ic-com-alarmservice" transform="translate(-137 -174)">
    <circle id="타원_1315" data-name="타원 1315" cx="45" cy="45" r="45" transform="translate(137 174)" fill="#f8f8f8"/>
    <g id="ic_alarmservice" transform="translate(1.832)">
      <g id="사각형_11423" data-name="사각형 11423" transform="translate(176.168 197)" fill="#fff" stroke="#2d3239" stroke-width="2">
        <path d="M4,0H4A4,4,0,0,1,8,4V8A0,0,0,0,1,8,8H0A0,0,0,0,1,0,8V4A4,4,0,0,1,4,0Z" stroke="none"/>
        <path d="M4,1H4A3,3,0,0,1,7,4V7A0,0,0,0,1,7,7H1A0,0,0,0,1,1,7V4A3,3,0,0,1,4,1Z" fill="none"/>
      </g>
      <g id="사각형_7719" data-name="사각형 7719" transform="translate(174.168 233)" fill="#fff" stroke="#2d3239" stroke-width="2">
        <path d="M0,0H12a0,0,0,0,1,0,0V2A6,6,0,0,1,6,8H6A6,6,0,0,1,0,2V0A0,0,0,0,1,0,0Z" stroke="none"/>
        <path d="M1,1H11a0,0,0,0,1,0,0V2A5,5,0,0,1,6,7H6A5,5,0,0,1,1,2V1A0,0,0,0,1,1,1Z" fill="none"/>
      </g>
      <g id="패스_3446" data-name="패스 3446" transform="translate(162.152 201)" fill="#fff">
        <path d="M 2.033198833465576 33.00038528442383 C 1.47977888584137 33.00038528442383 1.330498933792114 32.79676818847656 1.274308919906616 32.72011566162109 C 1.148398876190186 32.54836654663086 0.8794388771057129 31.98910713195801 1.100688934326172 30.50889778137207 C 1.257468938827515 29.46001625061035 1.591618895530701 28.40079689025879 1.771138906478882 27.83173751831055 C 1.976048946380615 27.18218612670898 2.120818853378296 26.77560615539551 2.237138986587524 26.44890785217285 C 2.415408849716187 25.9482364654541 2.544218778610229 25.58649635314941 2.726428985595703 24.83448791503906 C 2.74639892578125 24.75205612182617 2.765239000320435 24.67519760131836 2.783008813858032 24.60272789001465 C 3.047568798065186 23.52350616455078 3.096958875656128 23.2490062713623 3.083548784255981 20.99404716491699 C 3.069658994674683 18.65795707702637 3.083418846130371 15.16066741943359 3.083558797836304 15.12561702728271 C 3.083568811416626 11.35711669921875 4.611128807067871 7.815806865692139 7.38486909866333 5.150016784667969 C 10.16940879821777 2.473836898803711 13.8744592666626 0.9999970197677612 17.8174991607666 0.9999970197677612 C 21.76053810119629 0.9999970197677612 25.46558952331543 2.473836898803711 28.2501392364502 5.150016784667969 C 31.02386856079102 7.815806865692139 32.55143737792969 11.35711669921875 32.55143737792969 15.12160682678223 L 32.55143737792969 20.99999618530273 C 32.55143737792969 23.29758644104004 32.60118865966797 23.55816650390625 32.86540985107422 24.55629730224609 C 32.90539932250977 24.70738792419434 32.95072937011719 24.87863731384277 33.00183868408203 25.08319664001465 L 33.0087890625 25.11103630065918 L 33.01733779907227 25.13843727111816 C 33.24000930786133 25.85271644592285 33.50432968139648 26.49361610412598 33.81039047241211 27.2357177734375 C 33.9504280090332 27.57525634765625 34.09523010253906 27.92636680603027 34.25172805786133 28.32175636291504 C 35.03627014160156 30.3039379119873 35.23324966430664 31.88662719726562 34.77865982055664 32.55544662475586 C 34.70392990112305 32.66539764404297 34.47650909423828 32.99999618530273 33.55143737792969 32.99999618530273 C 32.62674713134766 32.99999618530273 30.53182983398438 32.99712753295898 27.87955856323242 32.99349594116211 C 22.98899841308594 32.98679733276367 16.29113960266113 32.97761535644531 10.84740924835205 32.97761535644531 C 5.934838771820068 32.97761535644531 3.063178777694702 32.98497772216797 2.068358898162842 33.00011825561523 C 2.056648969650269 33.00028610229492 2.044728994369507 33.00038528442383 2.033198833465576 33.00038528442383 Z" stroke="none"/>
        <path d="M 17.8174991607666 1.999996185302734 C 14.13409805297852 1.999996185302734 10.67514801025391 3.374746322631836 8.077808380126953 5.871007919311523 C 5.502079010009766 8.34649658203125 4.083568572998047 11.63175773620605 4.083568572998047 15.12160682678223 L 4.083549499511719 15.1296272277832 C 4.083408355712891 15.16463661193848 4.069679260253906 18.65712738037109 4.083530426025391 20.98810577392578 C 4.097110748291016 23.27173614501953 4.050537109375 23.63211822509766 3.754280090332031 24.84072685241699 C 3.736709594726562 24.91239738464355 3.718067169189453 24.98841667175293 3.698307037353516 25.06998825073242 C 3.503799438476562 25.87272644042969 3.360557556152344 26.2750072479248 3.179218292236328 26.78431701660156 C 3.059700012207031 27.11997604370117 2.924240112304688 27.50041770935059 2.724807739257812 28.13259696960449 C 2.564937591552734 28.63935661315918 2.267368316650391 29.58262634277344 2.113578796386719 30.5057373046875 C 1.974502563476562 31.34061813354492 2.011440277099609 31.79109191894531 2.052326202392578 32.0002326965332 L 2.053138732910156 32.00022888183594 C 3.052909851074219 31.98501777648926 5.929538726806641 31.97761726379395 10.84740829467773 31.97761726379395 C 16.29182815551758 31.97761726379395 22.99007797241211 31.98679733276367 27.88092803955078 31.99349594116211 C 30.53281784057617 31.99712753295898 32.62743759155273 31.99999618530273 33.55143737792969 31.99999618530273 C 33.78033828735352 31.99999618530273 33.90828704833984 31.97214698791504 33.96767807006836 31.95382881164551 C 34.06177520751953 31.68253707885742 34.10713577270508 30.67368125915527 33.32191848754883 28.68978691101074 C 33.16804885864258 28.30102729797363 33.02462768554688 27.95328712463379 32.88592910766602 27.61698722839355 C 32.57075881958008 26.85280609130859 32.29858016967773 26.19283676147461 32.06264877319336 25.43605804443359 L 32.04557037353516 25.38125610351562 L 32.03165817260742 25.3255672454834 C 31.98223876953125 25.12778663635254 31.93785858154297 24.96012687683105 31.8986988067627 24.81219673156738 C 31.60390853881836 23.69856643676758 31.55143928527832 23.31524658203125 31.55143928527832 20.99999618530273 L 31.55143928527832 15.12160682678223 C 31.55143928527832 11.63175773620605 30.13291931152344 8.34649658203125 27.55719757080078 5.871007919311523 C 24.9598503112793 3.374746322631836 21.50090026855469 1.999996185302734 17.8174991607666 1.999996185302734 M 17.8174991607666 -3.814697265625e-06 C 26.50710868835449 -3.814697265625e-06 33.55143737792969 6.770177841186523 33.55143737792969 15.12160682678223 C 33.55143737792969 15.12160682678223 33.55143737792969 18.36919784545898 33.55143737792969 20.99999618530273 C 33.55143737792969 23.63080596923828 33.61650848388672 23.41778564453125 33.97201919555664 24.84081649780273 C 34.27827072143555 25.82317733764648 34.67821884155273 26.68206787109375 35.18154907226562 27.95373725891113 C 35.68486785888672 29.22540664672852 37.44535064697266 33.99999618530273 33.55143737792969 33.99999618530273 C 29.65752029418945 33.99999618530273 5.392911911010742 33.94964599609375 2.083568572998047 33.99999618530273 C -1.225837707519531 34.05035400390625 0.3054466247558594 29.15392684936523 0.8174705505371094 27.53088760375977 C 1.329479217529297 25.9078369140625 1.466110229492188 25.78942680358887 1.754558563232422 24.59899711608887 C 2.042987823486328 23.40856742858887 2.097648620605469 23.3682861328125 2.083568572998047 20.99999618530273 C 2.069488525390625 18.63171768188477 2.083568572998047 15.12160682678223 2.083568572998047 15.12160682678223 C 2.083568572998047 6.770177841186523 9.127889633178711 -3.814697265625e-06 17.8174991607666 -3.814697265625e-06 Z" stroke="none" fill="#2d3239"/>
      </g>
      <g id="타원_1412" data-name="타원 1412" transform="translate(186.168 201)" fill="none" stroke="#fff" stroke-width="2">
        <circle cx="8" cy="8" r="8" stroke="none"/>
        <circle cx="8" cy="8" r="9" fill="none"/>
      </g>
      <circle id="타원_1411" data-name="타원 1411" cx="10" cy="10" r="10" transform="translate(184.168 199)" fill="#fff"/>
      <path id="빼기_161" data-name="빼기 161" d="M-21973.295,4316.882h0v-2.76a15.161,15.161,0,0,0-9.066-13.7,10.009,10.009,0,0,1,7.531-3.42,9.921,9.921,0,0,1,7.068,2.93,9.945,9.945,0,0,1,2.928,7.072,10,10,0,0,1-2.434,6.539,9.991,9.991,0,0,1-6.025,3.342Z" transform="translate(22169 -4098)" fill="#f8f8f8"/>
      <circle id="타원_1318" data-name="타원 1318" cx="8" cy="8" r="8" transform="translate(186.168 201)" fill="#7dedf3"/>
      <g id="타원_1317" data-name="타원 1317" transform="translate(188.168 201)" fill="none" stroke="#2d3239" stroke-width="2">
        <circle cx="8.5" cy="8.5" r="8.5" stroke="none"/>
        <circle cx="8.5" cy="8.5" r="7.5" fill="none"/>
      </g>
      <path id="패스_3490" data-name="패스 3490" d="M-10169.5,5363l2.476,2.5,4.524-5" transform="translate(10362.668 -5153.5)" fill="none" stroke="#2d3239" stroke-linecap="round" stroke-linejoin="round" stroke-width="2"/>
    </g>
  </g>
</svg>
