<svg xmlns="http://www.w3.org/2000/svg" width="90" height="90" viewBox="0 0 90 90">
  <g id="ic-card-service" transform="translate(-246 -225)">
    <circle id="타원_1315" data-name="타원 1315" cx="45" cy="45" r="45" transform="translate(246 225)" fill="#f8f8f8"/>
    <g id="그룹_15054" data-name="그룹 15054" transform="translate(113 75)">
      <g id="사각형_11123" data-name="사각형 11123" transform="translate(157 172)" fill="#fff" stroke="#2d3239" stroke-width="2">
        <rect width="33" height="40" rx="6" stroke="none"/>
        <rect x="1" y="1" width="31" height="38" rx="5" fill="none"/>
      </g>
      <g id="사각형_11100" data-name="사각형 11100" transform="translate(163 178)" fill="#fff" stroke="#2d3239" stroke-width="2">
        <rect width="33" height="40" rx="6" stroke="none"/>
        <rect x="1" y="1" width="31" height="38" rx="5" fill="none"/>
      </g>
      <rect id="사각형_18383" data-name="사각형 18383" width="6" height="15" transform="translate(192 196)" fill="#fff"/>
      <rect id="사각형_18384" data-name="사각형 18384" width="6" height="15" transform="translate(196 196)" fill="#f8f8f8"/>
      <circle id="타원_2425" data-name="타원 2425" cx="8.5" cy="8.5" r="8.5" transform="translate(186 200)" fill="#fff"/>
      <path id="교차_49" data-name="교차 49" d="M-2392,8976a10,10,0,0,1,10-10,9.969,9.969,0,0,1,4,.832V8984a6.026,6.026,0,0,1-.124,1.22A9.964,9.964,0,0,1-2382,8986,10,10,0,0,1-2392,8976Z" transform="translate(2574 -8768)" fill="#fff"/>
      <rect id="사각형_11102" data-name="사각형 11102" width="2" height="4" rx="1" transform="translate(194 193)" fill="#2d3239"/>
      <circle id="타원_1318" data-name="타원 1318" cx="8" cy="8" r="8" transform="translate(184 200)" fill="#7dedf3"/>
      <g id="타원_1317" data-name="타원 1317" transform="translate(186 200)" fill="none" stroke="#2d3239" stroke-width="2">
        <circle cx="8.5" cy="8.5" r="8.5" stroke="none"/>
        <circle cx="8.5" cy="8.5" r="7.5" fill="none"/>
      </g>
      <path id="패스_3490" data-name="패스 3490" d="M-10169.5,5363l2.476,2.5,4.524-5" transform="translate(10360.5 -5154.5)" fill="none" stroke="#2d3239" stroke-linecap="round" stroke-linejoin="round" stroke-width="2"/>
      <g id="그룹_14065" data-name="그룹 14065" transform="translate(170.043 187.154)">
        <rect id="사각형_17224" data-name="사각형 17224" width="2" height="10.226" rx="1" transform="translate(19.957 9.378) rotate(90)" fill="#2d3239"/>
        <rect id="사각형_17225" data-name="사각형 17225" width="2" height="10.226" rx="1" transform="translate(19.957 1.128) rotate(90)" fill="#2d3239"/>
        <path id="패스_12934" data-name="패스 12934" d="M52.728,794.752l2.657,2.625,4.807-4.68" transform="translate(-52.728 -784.531)" fill="none" stroke="#2d3239" stroke-linecap="round" stroke-linejoin="round" stroke-width="2"/>
        <path id="패스_12935" data-name="패스 12935" d="M52.728,794.752l2.657,2.625,4.807-4.68" transform="translate(-52.728 -792.696)" fill="none" stroke="#2d3239" stroke-linecap="round" stroke-linejoin="round" stroke-width="2"/>
      </g>
    </g>
  </g>
</svg>
