<svg id="ic-congratulation-com" xmlns="http://www.w3.org/2000/svg" width="90" height="90" viewBox="0 0 90 90">
  <circle id="타원_1315" data-name="타원 1315" cx="45" cy="45" r="45" transform="translate(0 0)" fill="#f8f8f8"/>
  <g id="그룹_14648" data-name="그룹 14648">
    <g id="패스_13876" data-name="패스 13876">
      <path id="패스_14279" data-name="패스 14279" d="M61.5,36.349a1,1,0,0,1-.492-1.871l9.64-5.431a1,1,0,1,1,.983,1.742l-9.641,5.432A1,1,0,0,1,61.5,36.349Z" fill="#2d3239"/>
    </g>
    <g id="그룹_14647" data-name="그룹 14647">
      <g id="합치기_378" data-name="합치기 378">
        <path id="패스_14280" data-name="패스 14280" d="M24.213,69.928C23.3,64.707,30.772,38.2,32.1,34.492a1.669,1.669,0,0,1,.259-.592c1.585-2.261,8.738.018,15.974,5.089C55.519,44.024,60.09,49.914,58.6,52.217h0a.531.531,0,0,1-.115.154,1.728,1.728,0,0,1-.265.255c-3.2,2.873-25.51,18.7-30.739,19.592a3.086,3.086,0,0,1-2.135-.5A2.807,2.807,0,0,1,24.213,69.928Z" fill="#fff"/>
      </g>
      <g id="빼기_386" data-name="빼기 386">
        <path id="패스_14281" data-name="패스 14281" d="M25.347,73.218a2.78,2.78,0,0,1-1.137-1.8,13,13,0,0,1,.067-3.286c7.163-3,25.907-16.282,28.945-19.012a1.732,1.732,0,0,0,.268-.253.611.611,0,0,0,.108-.154l0,0c.734-1.136.024-3.17-2-5.734a30.989,30.989,0,0,1,5.929,6.276c1.3,1.976,1.676,3.519,1.072,4.456l0,.005a.644.644,0,0,1-.111.158,1.535,1.535,0,0,1-.269.253c-3.256,2.925-25.516,18.7-30.736,19.589A3.058,3.058,0,0,1,25.347,73.218Z" fill="#7dedf3"/>
      </g>
      <g id="빼기_384" data-name="빼기 384">
        <g id="그룹_15035" data-name="그룹 15035">
          <path id="패스_14282" data-name="패스 14282" d="M25.348,71.721a2.814,2.814,0,0,1-1.134-1.794c-.542-3.114,1.951-13.744,3.486-19.8,2.109-8.33,4.335-15.77,4.579-16.054.455-.521,1.159-.875,1.706-.492l1.638,1.148c-.847-.13-1.4-.025-1.638.317-.95,1.355,3.421,6.062,9.744,10.493s12.238,6.934,13.188,5.579c.24-.342.151-.9-.262-1.648l1.668,1.169c.512.359.564.656.283,1.589-.138.459-6.424,5.158-13.561,9.987-5.18,3.5-14.349,9.465-17.551,10.013A3.083,3.083,0,0,1,25.348,71.721Z" fill="none"/>
        </g>
        <g id="그룹_15036" data-name="그룹 15036">
          <path id="패스_14283" data-name="패스 14283" d="M26.5,70.083a1.079,1.079,0,0,0,.714.157c.875-.176,4.469-1.407,16.711-9.687,4.177-2.826,7.89-5.491,10.3-7.3a17.2,17.2,0,0,1-2.667-.917,51.6,51.6,0,0,1-8.979-5.164,51.627,51.627,0,0,1-7.915-6.676,17.7,17.7,0,0,1-1.694-2.077c-.853,2.882-2.082,7.278-3.329,12.2-2.94,11.611-3.713,17.4-3.457,18.951a.818.818,0,0,0,.315.517m-1.148,1.638a2.809,2.809,0,0,1-1.134-1.794c-.542-3.114,1.951-13.744,3.486-19.8,2.109-8.33,4.334-15.773,4.579-16.054.455-.521,1.159-.875,1.706-.492l1.634,1.146c-.847-.131-1.4-.026-1.637.315-.95,1.355,3.421,6.061,9.742,10.492s12.24,6.935,13.19,5.58c.24-.342.151-.9-.263-1.647l1.668,1.17c.512.358.564.655.283,1.588-.138.459-6.424,5.159-13.561,9.987-5.18,3.5-14.349,9.465-17.551,10.014A3.082,3.082,0,0,1,25.348,71.721Z" fill="#2d3239"/>
        </g>
      </g>
      <g id="빼기_383" data-name="빼기 383">
        <g id="그룹_15037" data-name="그룹 15037">
          <path id="패스_14284" data-name="패스 14284" d="M43.168,46.364c-.232-.162-.463-.326-.689-.492.221.159.444.319.67.477.282.2.563.392.846.583Q43.581,46.653,43.168,46.364Z" fill="#fff"/>
        </g>
        <g id="그룹_15038" data-name="그룹 15038">
          <path id="패스_14285" data-name="패스 14285" d="M42.594,47.183C35.368,42.119,30.778,36.161,32.361,33.9c.8-1.139,2.993-1.175,6.182-.1l-1.016,1.45c-1.929-.7-3.155-.769-3.547-.21C33.031,36.393,37.4,41.1,43.723,45.53s12.24,6.935,13.189,5.58c.389-.555-.087-1.671-1.379-3.226l1.024-1.46c2.1,2.632,2.81,4.708,2.012,5.847C56.986,54.529,49.819,52.247,42.594,47.183Z" fill="#2d3239"/>
        </g>
      </g>
      <g id="패스_13897" data-name="패스 13897">
        <path id="패스_14286" data-name="패스 14286" d="M47.586,58.419a24.121,24.121,0,0,1-3.81-5.258,34.189,34.189,0,0,1-2.4-7.479l1.963-.385a32.154,32.154,0,0,0,2.225,6.982,22.141,22.141,0,0,0,3.464,4.759Z" fill="#2d3239"/>
      </g>
      <g id="패스_13898" data-name="패스 13898">
        <path id="패스_14287" data-name="패스 14287" d="M42.378,62.754a45.545,45.545,0,0,1-7.319-10.48A62.5,62.5,0,0,1,30.8,38.631l1.965-.373a60.486,60.486,0,0,0,4.1,13.159,43.509,43.509,0,0,0,6.975,9.974Z" fill="#2d3239"/>
      </g>
      <g id="패스_13899" data-name="패스 13899">
        <path id="패스_14288" data-name="패스 14288" d="M36.4,67.657a34.455,34.455,0,0,1-5.478-7.683A41.542,41.542,0,0,1,27.8,50.483l1.962-.391a39.438,39.438,0,0,0,2.954,8.994,32.413,32.413,0,0,0,5.14,7.2Z" fill="#2d3239"/>
      </g>
      <g id="패스_13900" data-name="패스 13900">
        <path id="패스_14289" data-name="패스 14289" d="M30.239,70.92a21.626,21.626,0,0,1-3.195-4.039,19.712,19.712,0,0,1-1.937-4.822l1.938-.494a17.717,17.717,0,0,0,1.723,4.3A19.661,19.661,0,0,0,31.649,69.5Z" fill="#2d3239"/>
      </g>
      <g id="사각형_17976" data-name="사각형 17976">
        <path id="패스_14290" data-name="패스 14290" d="M38.186,33.684l.306.094a.84.84,0,0,1,.557,1.049h0A.84.84,0,0,1,38,35.384l-.788-.241a.335.335,0,0,1-.223-.42l.147-.482A.841.841,0,0,1,38.186,33.684Z" fill="#2d3239"/>
      </g>
      <g id="사각형_17977" data-name="사각형 17977">
        <path id="패스_14291" data-name="패스 14291" d="M55.661,48.055l-.513-.591a.869.869,0,0,1,.086-1.227h0a.87.87,0,0,1,1.228.086l.17.2a.871.871,0,0,1-.086,1.228l-.394.342A.348.348,0,0,1,55.661,48.055Z" fill="#2d3239"/>
      </g>
    </g>
    <g id="타원_2312" data-name="타원 2312">
      <g id="그룹_15039" data-name="그룹 15039">
        <circle id="타원_2409" data-name="타원 2409" cx="3.913" cy="3.913" r="3.913" transform="translate(23.494 18.031)" fill="#fff"/>
      </g>
      <g id="그룹_15040" data-name="그룹 15040">
        <path id="패스_14292" data-name="패스 14292" d="M27.407,25.857a3.913,3.913,0,1,1,3.913-3.913A3.918,3.918,0,0,1,27.407,25.857Zm0-6.326a2.413,2.413,0,1,0,2.413,2.413A2.416,2.416,0,0,0,27.407,19.531Z" fill="#2d3239"/>
      </g>
    </g>
    <g id="타원_2307" data-name="타원 2307">
      <g id="그룹_15041" data-name="그룹 15041">
        <circle id="타원_2410" data-name="타원 2410" cx="3.913" cy="3.913" r="3.913" transform="translate(23.494 18.031)" fill="none"/>
      </g>
      <g id="그룹_15042" data-name="그룹 15042">
        <path id="패스_14293" data-name="패스 14293" d="M27.407,25.857a3.913,3.913,0,1,1,3.913-3.913A3.918,3.918,0,0,1,27.407,25.857Zm0-5.826a1.913,1.913,0,1,0,1.913,1.913A1.916,1.916,0,0,0,27.407,20.031Z" fill="#2d3239"/>
      </g>
    </g>
    <g id="패스_13874" data-name="패스 13874">
      <path id="패스_14294" data-name="패스 14294" d="M47.5,42.505a1,1,0,0,1-.877-1.479l7.8-14.288a1,1,0,1,1,1.756.958l-7.8,14.288A1,1,0,0,1,47.5,42.505Z" fill="#2d3239"/>
    </g>
    <g id="패스_13877" data-name="패스 13877">
      <path id="패스_14295" data-name="패스 14295" d="M42.364,38.449a1,1,0,0,1-.925-1.38c.137-.338,3.267-8.343-4.23-15.595A1,1,0,0,1,38.6,20.037c8.5,8.221,4.728,17.7,4.689,17.792A1,1,0,0,1,42.364,38.449Z" fill="#2d3239"/>
    </g>
    <g id="패스_13904" data-name="패스 13904">
      <path id="패스_14296" data-name="패스 14296" d="M65.6,50.195a2.857,2.857,0,0,1-2.739-1.936,4.413,4.413,0,0,1,.36-3.847,6.084,6.084,0,0,1,.9-1.264q-.3-.1-.622-.19c-3.357-.916-8.375,2.026-8.425,2.056a1,1,0,0,1-1.021-1.72c.233-.139,5.795-3.4,9.971-2.266a10.162,10.162,0,0,1,2.121.821,6.3,6.3,0,0,1,7.89,4.491,1,1,0,1,1-1.935.5,4.371,4.371,0,0,0-2.251-2.8,5.034,5.034,0,0,0-1.622-.445,4.423,4.423,0,0,1,.362.605,4.581,4.581,0,0,1,.026,3.851A3.172,3.172,0,0,1,65.6,50.195Zm.42-6.051a3.558,3.558,0,0,0-1.041,1.222A2.479,2.479,0,0,0,64.7,47.48a1.211,1.211,0,0,0,.728.708,1.18,1.18,0,0,0,1.31-.824,2.674,2.674,0,0,0,.055-2.275A2.909,2.909,0,0,0,66.021,44.144Z" fill="#2d3239"/>
    </g>
    <g id="사각형_17978" data-name="사각형 17978">
      <rect id="사각형_18337" data-name="사각형 18337" width="6.367" height="6.367" rx="2" transform="translate(54.933 19.132) rotate(-30)" fill="#fff"/>
    </g>
    <g id="사각형_17979" data-name="사각형 17979">
      <g id="그룹_15043" data-name="그룹 15043">
        <rect id="사각형_18338" data-name="사각형 18338" width="7.428" height="7.428" rx="2" transform="translate(54.402 18.214) rotate(-30)" fill="none"/>
      </g>
      <g id="그룹_15044" data-name="그룹 15044">
        <path id="패스_14297" data-name="패스 14297" d="M58.852,23.915a2.028,2.028,0,0,1-.522-.068,1.989,1.989,0,0,1-1.214-.933L55.4,19.946a2.005,2.005,0,0,1,.733-2.732h0L59.1,15.5a2,2,0,0,1,2.732.731l1.714,2.97a2,2,0,0,1-.734,2.732l-2.967,1.714A1.985,1.985,0,0,1,58.852,23.915Zm-1.718-4.969h0l1.716,2.968L61.816,20.2,60.1,17.232Z" fill="#2d3239"/>
      </g>
    </g>
    <g id="다각형_127" data-name="다각형 127">
      <path id="패스_14298" data-name="패스 14298" d="M67.087,53.623a1,1,0,0,1,1.826,0l.809,1.811a1,1,0,0,0,.778.583l1.969.26a1,1,0,0,1,.571,1.7l-1.509,1.5a1,1,0,0,0-.282.891l.38,2.088A1,1,0,0,1,70.144,63.5L68.5,62.545a1,1,0,0,0-1,0l-1.644.952a1,1,0,0,1-1.486-1.045l.38-2.088a1,1,0,0,0-.282-.891L62.956,57.98a1,1,0,0,1,.571-1.7l1.973-.263a1,1,0,0,0,.782-.583Z" fill="#fff"/>
    </g>
    <g id="다각형_125" data-name="다각형 125">
      <g id="그룹_15045" data-name="그룹 15045">
        <path id="패스_14299" data-name="패스 14299" d="M66.63,54.645a1.5,1.5,0,0,1,2.739,0l.239.534a1.5,1.5,0,0,0,1.173.875l.679.09a1.5,1.5,0,0,1,.857,2.555l-.6.589a1.5,1.5,0,0,0-.417,1.336l.139.763a1.5,1.5,0,0,1-2.227,1.567l-.457-.265a1.5,1.5,0,0,0-1.5,0l-.457.265a1.5,1.5,0,0,1-2.234-1.567l.136-.763a1.5,1.5,0,0,0-.42-1.337l-.6-.589a1.5,1.5,0,0,1,.86-2.554l.679-.09a1.5,1.5,0,0,0,1.173-.874Z" fill="none"/>
      </g>
      <g id="그룹_15046" data-name="그룹 15046">
        <path id="패스_14300" data-name="패스 14300" d="M68,56.4a3.533,3.533,0,0,1-2.2,1.575,3.494,3.494,0,0,1,.909,2.756,3.5,3.5,0,0,1,2.588,0A3.494,3.494,0,0,1,70.2,57.98,3.533,3.533,0,0,1,68,56.4m0-2.648a1.482,1.482,0,0,1,1.37.888l.238.534a1.5,1.5,0,0,0,1.173.875l.679.09a1.5,1.5,0,0,1,.857,2.555l-.6.588a1.5,1.5,0,0,0-.423,1.337l.139.763a1.5,1.5,0,0,1-2.227,1.567l-.458-.264a1.494,1.494,0,0,0-1.5,0l-.458.264a1.5,1.5,0,0,1-2.227-1.567l.139-.763a1.5,1.5,0,0,0-.423-1.337l-.6-.588a1.5,1.5,0,0,1,.857-2.555l.679-.09a1.5,1.5,0,0,0,1.173-.875l.238-.534A1.482,1.482,0,0,1,68,53.757Z" fill="#2d3239"/>
      </g>
    </g>
  </g>
</svg>
