<svg xmlns="http://www.w3.org/2000/svg" width="90" height="90" viewBox="0 0 90 90">
  <g id="ic-com-fail" transform="translate(-246 -235)">
    <circle id="타원_1315" data-name="타원 1315" cx="45" cy="45" r="45" transform="translate(246 235)" fill="#f8f8f8"/>
    <g id="그룹_10598" data-name="그룹 10598" transform="translate(93)">
      <g id="사각형_11123" data-name="사각형 11123" transform="translate(177 257)" fill="#fff" stroke="#2d3239" stroke-width="2">
        <rect width="33" height="40" rx="6" stroke="none"/>
        <rect x="1" y="1" width="31" height="38" rx="5" fill="none"/>
      </g>
      <g id="사각형_11100" data-name="사각형 11100" transform="translate(183 263)" fill="#fff" stroke="#2d3239" stroke-width="2">
        <rect width="33" height="40" rx="6" stroke="none"/>
        <rect x="1" y="1" width="31" height="38" rx="5" fill="none"/>
      </g>
      <rect id="사각형_6085" data-name="사각형 6085" width="17" height="2" rx="1" transform="translate(191 275)" fill="#2d3239"/>
      <rect id="사각형_6086" data-name="사각형 6086" width="8" height="2" rx="1" transform="translate(191 281)" fill="#2d3239"/>
      <rect id="사각형_11101" data-name="사각형 11101" width="6" height="15" transform="translate(212 276)" fill="#fff"/>
      <rect id="사각형_18386" data-name="사각형 18386" width="6" height="15" transform="translate(216 276)" fill="#f8f8f8"/>
      <rect id="사각형_11102" data-name="사각형 11102" width="2" height="4" rx="1" transform="translate(214 273)" fill="#2d3239"/>
    </g>
    <g id="그룹_10596" data-name="그룹 10596" transform="translate(0 23)">
      <rect id="사각형_11340" data-name="사각형 11340" width="4" height="6" transform="translate(309 273)" fill="#fff"/>
      <rect id="사각형_11662" data-name="사각형 11662" width="11" height="6" transform="translate(296 261)" fill="#fff"/>
      <path id="다각형_55" data-name="다각형 55" d="M8.836,3.737a2.5,2.5,0,0,1,4.327,0l6.664,11.51A2.5,2.5,0,0,1,17.664,19H4.336a2.5,2.5,0,0,1-2.164-3.753Z" transform="translate(295 253.5)" fill="#ffd1dc" stroke="#fff" stroke-width="2"/>
      <g id="다각형_54" data-name="다각형 54" transform="translate(297 254)" fill="none">
        <path d="M8.9,4.523a3,3,0,0,1,5.2,0L20.415,15.5a3,3,0,0,1-2.6,4.5H5.186a3,3,0,0,1-2.6-4.5Z" stroke="none"/>
        <path d="M 11.5 5.018407821655273 C 11.3260498046875 5.018407821655273 10.89336967468262 5.067277908325195 10.63309001922607 5.519927978515625 L 4.318670272827148 16.50152778625488 C 4.05919075012207 16.95280647277832 4.233160018920898 17.35065650939941 4.319999694824219 17.50076675415039 C 4.406839370727539 17.6508674621582 4.665019989013672 17.99999618530273 5.185579299926758 17.99999618530273 L 17.81442070007324 17.99999618530273 C 18.33498001098633 17.99999618530273 18.59316062927246 17.6508674621582 18.68000030517578 17.50076675415039 C 18.7668399810791 17.35065650939941 18.94081115722656 16.95280647277832 18.68132972717285 16.50152778625488 L 12.36690998077393 5.519927978515625 C 12.10663032531738 5.067277908325195 11.6739501953125 5.018407821655273 11.5 5.018407821655273 M 11.5 3.018404006958008 C 12.5119800567627 3.018404006958008 13.52396011352539 3.519931793212891 14.10072040557861 4.522987365722656 L 20.41514015197754 15.50458717346191 C 21.56513023376465 17.50457763671875 20.12146949768066 19.99999618530273 17.81442070007324 19.99999618530273 L 5.185579299926758 19.99999618530273 C 2.878530502319336 19.99999618530273 1.434869766235352 17.50457763671875 2.584859848022461 15.50458717346191 L 8.899279594421387 4.522987365722656 C 9.476039886474609 3.519931793212891 10.4880199432373 3.018404006958008 11.5 3.018404006958008 Z" stroke="none" fill="#2d3239"/>
      </g>
      <rect id="사각형_11660" data-name="사각형 11660" width="2" height="5" rx="1" transform="translate(307.5 262.5)" fill="#2d3239"/>
      <rect id="사각형_11661" data-name="사각형 11661" width="2" height="2" rx="1" transform="translate(307.5 268.5)" fill="#2d3239"/>
    </g>
  </g>
</svg>
