<svg xmlns="http://www.w3.org/2000/svg" width="90" height="90" viewBox="0 0 90 90">
    <g transform="translate(-133 -166)">
        <circle data-name="타원 1315" cx="45" cy="45" r="45" transform="translate(133 166)" style="fill:#f8f8f8"/>
        <g data-name="사각형 11100" transform="translate(161 188)" style="stroke-width:2px;stroke:#2d3239;fill:#fff">
            <rect width="34" height="46" rx="6" style="stroke:none"/>
            <rect x="1" y="1" width="32" height="44" rx="5" style="fill:none"/>
        </g>
        <path data-name="사각형 11340" transform="translate(191 208)" style="fill:#fff" d="M0 0h4v20H0z"/>
        <rect data-name="사각형 11102" width="2" height="4" rx="1" transform="translate(193 206)" style="fill:#2d3239"/>
        <g data-name="타원 1318" transform="translate(183 213)" style="fill:#7dedf3;stroke:#fff;stroke-width:2px">
            <circle cx="8" cy="8" r="8" style="stroke:none"/>
            <circle cx="8" cy="8" r="9" style="fill:none"/>
        </g>
        <path data-name="사각형 11341" transform="translate(199 207)" style="fill:#f8f8f8" d="M0 0h6v4H0z"/>
        <g data-name="타원 1317" transform="translate(185 213)" style="fill:none;stroke-width:2px;stroke:#2d3239">
            <circle cx="8.5" cy="8.5" r="8.5" style="stroke:none"/>
            <circle cx="8.5" cy="8.5" r="7.5" style="fill:none"/>
        </g>
        <g data-name="사각형 11654" transform="translate(174 196)" style="stroke-width:2px;stroke:#2d3239;fill:#fff">
            <rect width="8" height="8" rx="2" style="stroke:none"/>
            <rect x="1" y="1" width="6" height="6" rx="1" style="fill:none"/>
        </g>
        <rect data-name="사각형 13468" width="2" height="2" rx="1" transform="translate(192.5 220.5)" style="fill:#2d3239"/>
        <rect data-name="사각형 17356" width="2" height="2" rx="1" transform="translate(189.3 220.5)" style="fill:#2d3239"/>
        <rect data-name="사각형 17355" width="2" height="2" rx="1" transform="translate(195.7 220.5)" style="fill:#2d3239"/>
    </g>
</svg>
