<svg xmlns="http://www.w3.org/2000/svg" width="80" height="80" viewBox="0 0 80 80">
    <defs>
        <clipPath id="clip-path">
            <circle id="타원_907" data-name="타원 907" cx="40" cy="40" r="40" transform="translate(23.901 93.901)" style="fill:#fff"/>
        </clipPath>
        <style>
            .cls-7{stroke:#000;stroke-width:1.5px;fill:none}.cls-6{fill:#111}.cls-8,.cls-9{stroke:none}.cls-9{fill:#111}
        </style>
    </defs>
    <g id="img_profile_1" transform="translate(-23.901 -93.901)" style="clip-path:url(#clip-path)">
        <g id="그룹_5415" data-name="그룹 5415" transform="translate(38.903 103.936)">
            <path id="패스_3193" data-name="패스 3193" d="M38.928 231.548s24.5-4.568 28.031 16.819c0 0 2.907 20.764-25.539 21.387 0 0-22.633 2.284-24.086-17.649-.001-.005-2.285-17.027 21.594-20.557z" transform="translate(-17.274 -215.848)" style="stroke-width:1.5px;stroke-miterlimit:10;stroke:#000;fill:#fff"/>
            <path id="패스_3194" data-name="패스 3194" d="m51.8 222.684 8.825-6.022s1.557-.934 1.315-1.9c0 0 .069-1-2.423-1.385l-9.69-.8s-2.076-8.859-4.152-9.585c0 0-1.592-1.385-6.679 9.274l-10.313.381s-1.592.069-1.661.8c0 0-.069.9 1.834 2.526l6.022 5.433s-5.295 8.755-3.738 10.763c0 0 1.038 2.007 11.593-4.534 0 0 8.1 6.852 10.485 5.918 0-.003 2.249-.176-1.418-10.869z" transform="translate(-21.736 -202.934)" style="stroke:#111;stroke-linecap:round;fill:#00a49d;stroke-linejoin:round;stroke-width:1.5px;stroke-miterlimit:10"/>
            <path id="패스_3195" data-name="패스 3195" d="M-15249.573 4045.738s5.628 4.3 10.964 3.111a11.2 11.2 0 0 0 8.291-6.37" transform="translate(15263.426 -4001.496)" style="fill:none;stroke:#111;stroke-linecap:round;stroke-width:1.5px"/>
            <g id="합치기_82" data-name="합치기 82" class="cls-6">
                <path class="cls-8" d="M1.033 3.283a4.411 4.411 0 0 1-.261-1.19v-.004L.77 2.086a3.892 3.892 0 0 1 .007-.877 3.915 3.915 0 0 1 .208 1.073l.008.12.045.112c.05.125.072.285.06.45a1.131 1.131 0 0 1-.066.319z" transform="translate(11.915 33.138)"/>
                <path class="cls-9" d="m.95 4.252-.039-.001C.498 4.22.117 3.208.025 2.158-.087 1.011.19.05.65.002c.466-.049.943.856 1.065 2.02.008.071.014.141.018.21.09.223.134.495.114.785-.049.694-.446 1.235-.897 1.235z" transform="translate(11.915 33.138)"/>
            </g>
            <g id="합치기_83" data-name="합치기 83" class="cls-6">
                <path class="cls-8" d="M1.14 3.407a1.554 1.554 0 0 1-.252-.641L.887 2.76l-.005-.027-.007-.029a4.34 4.34 0 0 1-.097-1.498c.071.203.138.464.18.783l.018.143.07.125c.072.13.125.287.155.454.054.307 0 .555-.06.696z" transform="translate(33.3 32.29)"/>
                <path class="cls-9" d="M1.17 4.244a.56.56 0 0 1-.167-.026c-.135-.02-.27-.119-.394-.276C.393 3.696.224 3.32.15 2.896l-.002-.012A5.092 5.092 0 0 1 .03 2.2C-.093 1.035.185.05.65.002c.448-.047.907.79 1.05 1.89.11.198.193.432.238.689.142.802-.182 1.568-.677 1.655a.532.532 0 0 1-.092.008z" transform="translate(33.3 32.29)"/>
            </g>
        </g>
        <path id="패스_3462" data-name="패스 3462" class="cls-7" d="M-14460.011 20048.83a24.94 24.94 0 0 0-4.2 5.482 25.4 25.4 0 0 0-2.519 6.7" transform="translate(14508.782 -19893.16)"/>
        <path id="패스_3463" data-name="패스 3463" class="cls-7" d="M-14452.225 20048.631a38.369 38.369 0 0 1 5.112 5.844 34.27 34.27 0 0 1 3.213 6.365" transform="translate(14530.311 -19893.445)"/>
    </g>
</svg>
