<svg xmlns="http://www.w3.org/2000/svg" xmlns:xlink="http://www.w3.org/1999/xlink" width="130" height="80" viewBox="0 0 130 80">
    <defs>
        <linearGradient id="de62usmtcb" x1="-.116" y1=".878" x2=".676" y2="-.115" gradientUnits="objectBoundingBox">
            <stop offset="0" stop-color="#ffa800"/>
            <stop offset="1" stop-color="#ffc759"/>
        </linearGradient>
        <linearGradient id="fxezjpil9c" x1=".332" y1=".693" x2=".991" y2="-.027" gradientUnits="objectBoundingBox">
            <stop offset="0" stop-color="#ffe29e"/>
            <stop offset="1" stop-color="#ffd279"/>
        </linearGradient>
        <linearGradient id="oljfbh6v7d" x1=".027" y1=".945" x2=".85" y2=".186" gradientUnits="objectBoundingBox">
            <stop offset="0" stop-color="#ffd178"/>
            <stop offset="1" stop-color="#ffc759"/>
        </linearGradient>
        <linearGradient id="9sc6yo3hvf" x1=".253" y1=".054" x2=".666" y2=".834" gradientUnits="objectBoundingBox">
            <stop offset="0" stop-color="#b4d1ff"/>
            <stop offset="1" stop-color="#4784de"/>
        </linearGradient>
        <linearGradient id="eiqfs7xhvh" x1=".5" x2=".5" y2="1" gradientUnits="objectBoundingBox">
            <stop offset="0" stop-color="#f8ea4f"/>
            <stop offset="1" stop-color="#ffbf1e"/>
        </linearGradient>
        <linearGradient id="z4gj2cseva" x1=".937" y1=".277" x2=".215" y2=".648" gradientUnits="objectBoundingBox">
            <stop offset="0" stop-color="#d1d1ec"/>
            <stop offset="1" stop-color="#f8f8f8"/>
        </linearGradient>
        <linearGradient id="zob9o99dpi" x1=".061" y1=".316" x2=".777" y2=".637" xlink:href="#z4gj2cseva"/>
        <linearGradient id="lg7g5pobnj" x1=".5" x2=".5" y2="1" gradientUnits="objectBoundingBox">
            <stop offset="0" stop-color="#e6e6ee"/>
            <stop offset="1" stop-color="#fefefe"/>
        </linearGradient>
        <linearGradient id="lriswa85fk" x1=".5" x2=".5" y2="1" gradientUnits="objectBoundingBox">
            <stop offset="0" stop-color="#f8ea4f"/>
            <stop offset="1" stop-color="#f6ba24"/>
        </linearGradient>
        <linearGradient id="cmljdcfknl" x1=".274" y1=".128" x2=".748" y2="1" gradientUnits="objectBoundingBox">
            <stop offset="0" stop-color="#f6f0a4"/>
            <stop offset="1" stop-color="#ffc640"/>
        </linearGradient>
        <linearGradient id="x76zop7gem" x1=".108" y1=".428" x2=".439" y2=".776" xlink:href="#de62usmtcb"/>
        <linearGradient id="b41cjik9vn" x1=".332" y1=".307" x2=".991" y2="1.027" xlink:href="#fxezjpil9c"/>
        <linearGradient id="z2rwi6by2o" x1=".027" y1=".055" x2=".85" y2=".814" xlink:href="#oljfbh6v7d"/>
        <linearGradient id="c8xnpbg84p" x1="-.008" y1=".144" x2=".439" y2=".776" xlink:href="#oljfbh6v7d"/>
        <clipPath id="cn8fj7mkde">
            <path data-name="사각형 14155" transform="translate(206 189)" style="fill:#f5f5f5" d="M0 0h130v80H0z"/>
        </clipPath>
        <filter id="bj8v8l9qeg" x="30.739" y="-12.015" width="77.258" height="77.258" filterUnits="userSpaceOnUse">
            <feOffset dy="3"/>
            <feGaussianBlur stdDeviation="1.5" result="blur"/>
            <feFlood flood-opacity=".161"/>
            <feComposite operator="in" in2="blur"/>
            <feComposite in="SourceGraphic"/>
        </filter>
    </defs>
    <g transform="translate(-206 -189)" style="clip-path:url(#cn8fj7mkde)">
        <g data-name="그룹 13274">
            <path data-name="패스 11097" d="M.112 6.973a1.035 1.035 0 0 0 .137.218 1.042 1.042 0 0 0 .133.135l.2.2.053-.039C1.668 8 3.8 7.461 5.95 6.055c2.6-1.7 4.273-4.039 3.791-5.282l.074-.054-.289-.288-.043-.043L9.475.38A1.191 1.191 0 0 0 9.222.2C8.2-.33 6.051.2 3.874 1.622 1.223 3.353-.461 5.748.112 6.973" transform="rotate(-112.03 237.096 6.19)" style="fill:url(#de62usmtcb)"/>
            <path data-name="패스 11098" d="M5.95 6.056C3.3 7.786.685 8.2.112 6.973s1.111-3.62 3.762-5.351S9.139-.519 9.712.7 8.6 4.325 5.95 6.056" transform="rotate(-112.03 237.046 5.93)" style="fill:url(#fxezjpil9c)"/>
            <path data-name="패스 11099" d="M3.41 1.447A10.448 10.448 0 0 0 .717 3.914C.076 4.8-.145 5.572.094 6.093a1.01 1.01 0 0 0 .682.544c.978.282 2.712-.257 4.416-1.373A10.444 10.444 0 0 0 7.884 2.8c.641-.884.863-1.658.623-2.179a1.01 1.01 0 0 0-.681-.547A2.114 2.114 0 0 0 7.242 0 7.794 7.794 0 0 0 3.41 1.447m-2.58 5a.825.825 0 0 1-.559-.438c-.206-.448.015-1.171.6-1.984A10.249 10.249 0 0 1 3.516 1.61 7.688 7.688 0 0 1 7.248.2a1.9 1.9 0 0 1 .523.066.825.825 0 0 1 .56.434c.205.448-.015 1.171-.6 1.984A10.247 10.247 0 0 1 5.085 5.1a7.689 7.689 0 0 1-3.732 1.415 1.9 1.9 0 0 1-.524-.065" transform="rotate(-112.03 236.916 5.464)" style="fill:url(#oljfbh6v7d)"/>
        </g>
        <g data-name="그룹 13386" transform="translate(241.239 178.485)">
            <circle data-name="타원 1919" cx="32.541" cy="32.541" transform="translate(6.845 22.156)" style="fill:url(#9sc6yo3hvf)" r="32.541"/>
            <g data-name="그룹 13288">
                <g data-name="그룹 13289">
                    <path data-name="패스 12479" d="M48.559 32.576v-.162a44.707 44.707 0 0 0-2.6-15.073 42.127 42.127 0 0 0 11.4-5.839 33.215 33.215 0 0 0-.8-.917 40.918 40.918 0 0 1-11.028 5.625A36.539 36.539 0 0 0 33.489.024C33.173.015 32.858 0 32.54 0s-.66.015-.99.025a36.635 36.635 0 0 0-11.98 16.142 40.961 40.961 0 0 1-10.985-5.645c-.275.3-.541.606-.8.915A42.128 42.128 0 0 0 19.144 17.3a44.7 44.7 0 0 0-2.624 15.111v.164H0c0 .406.015.807.031 1.209h16.527A44.47 44.47 0 0 0 19.6 48.74a42.542 42.542 0 0 0-11.193 5.63c.275.3.557.6.843.887a41.362 41.362 0 0 1 10.821-5.395 36.158 36.158 0 0 0 11.81 15.2c.22 0 .438.017.659.017s.412-.012.618-.015a36.084 36.084 0 0 0 11.871-15.239A41.313 41.313 0 0 1 55.884 55.2c.285-.293.568-.588.841-.892A42.589 42.589 0 0 0 45.5 48.7a44.43 44.43 0 0 0 3.03-14.915h16.521c.014-.4.03-.8.03-1.209zM32.519.8A35.179 35.179 0 0 1 44.37 16.551 40.819 40.819 0 0 1 32.68 18.3h-.133a40.85 40.85 0 0 1-11.82-1.789A35.293 35.293 0 0 1 32.519.8m0 63.233a34.914 34.914 0 0 1-11.277-14.504 40.664 40.664 0 0 1 22.614-.029 34.845 34.845 0 0 1-11.335 14.534m11.81-15.661a41.867 41.867 0 0 0-23.567.035 43.275 43.275 0 0 1-3-14.624h29.55a43.233 43.233 0 0 1-2.986 14.588m3.019-15.8H17.733v-.164A43.481 43.481 0 0 1 20.3 17.667a42.093 42.093 0 0 0 12.25 1.845h.135A42.032 42.032 0 0 0 44.8 17.685a43.48 43.48 0 0 1 2.556 14.729v.162" style="mix-blend-mode:multiply;isolation:isolate;fill:#d4dfe9" transform="translate(6.845 22.156)"/>
                </g>
            </g>
            <g data-name="그룹 13375">
                <g data-name="그룹 13381">
                    <path data-name="패스 12639" d="M45.442 45.448a.271.271 0 0 1-.026.026l-.027.027a.267.267 0 0 0-.026.026l-.025.023-.026.027a.269.269 0 0 0-.026.026l-.027.026-.022.022-.026.026-.027.027-.026.026-.026.026-.022.021-.022.021-.026.025-.028.028-.034.042-.027.027-.026.025-.027.027-.032.028-.026.026-.019.019-.007.007-.027.027-.026.025-.026.026-.027.026c-.008.008-.016.018-.026.026l-.027.027a.32.32 0 0 0-.028.028l-.027.026c-.011.009-.019.019-.028.028l-.027.026-.026.026-.027.026c-.25.246-.5.486-.751.727a.881.881 0 0 1-1.218-1.273 125.89 125.89 0 0 0 1.653-1.62.753.753 0 0 1 .063-.059c.018-.021.038-.043.058-.063.544-.545 1.088-1.1 1.619-1.656a.881.881 0 1 1 1.273 1.22q-.506.527-1.021 1.052l-.052.052-.052.052c-.018.016-.034.034-.051.051l-.025.025-.027.027-.024.023c-.008.008-.016.018-.026.026l-.364.368a.896.896 0 0 1-.065.058.746.746 0 0 1-.059.065m-4.224 4.019c-.009.011-.02.02-.029.029q-.516.467-1.033.922l-.025.021-.025.022-.026.022-.027.023-.026.022-.03.029a.258.258 0 0 1-.027.024l-.025.022c-.174.153-.349.3-.523.456a.881.881 0 0 1-1.154-1.332c.577-.5 1.16-1.016 1.732-1.533a.881.881 0 0 1 1.214 1.276m-4.423 3.793a.811.811 0 0 1-.067.06q-.827.672-1.653 1.315l-.007.006-.013.009-.013.011-.012.009-.142.11a.881.881 0 0 1-1.08-1.394c.6-.465 1.21-.948 1.81-1.435a.881.881 0 0 1 1.18 1.307M32.169 56.8a.9.9 0 0 1-.107.092q-.39.278-.778.552l-.013.008-.038.026-.009.007-.014.009-.01.006-.014.009-.027.019-.014.011-.015.011-.015.011q-.488.342-.975.672a.881.881 0 1 1-.991-1.457 87.737 87.737 0 0 0 1.888-1.32.881.881 0 0 1 1.132 1.344m-4.832 3.23a.949.949 0 0 1-.16.127q-.428.264-.855.521l-.047.028-.047.028-.014.008-.013.008-.029.018-.012.007-.013.008-.015.009-.012.007-.015.009-.029.019-.016.011-.014.008-.015.009-.013.008-.014.008h-.006l-.013.007-.015.008-.014.008-.014.008h-.006l-.013.008-.015.008-.014.009-.015.008-.013.007-.014.008-.015.009-.013.008-.045.033-.013.008-.015.008-.013.008-.019.012-.014.008-.014.007-.033.02-.012.006-.047.028-.11.065-.012.007-.307.179a.881.881 0 0 1-.88-1.528 70.92 70.92 0 0 0 1.969-1.177.882.882 0 0 1 1.088 1.372m-5.051 2.847a.922.922 0 0 1-.224.162l-.04.02-.032.018-.013.007-.014.007-.013.006-.015.008h-.006l-.014.007-.015.007q-.92.462-1.819.873l-.017.015H20.048l-.014.006-.014.007h-.009l-.058.026a.881.881 0 1 1-.727-1.605c.67-.3 1.361-.636 2.05-.985a.882.882 0 0 1 1.021 1.41M17 65.187a.878.878 0 0 1-.32.2q-.673.243-1.328.454l-.031.011h-.024l-.021.006H15.215l-.022.007h-.014l-.042.013c-.226.07-.448.139-.67.2a.881.881 0 1 1-.49-1.693c.685-.2 1.4-.432 2.122-.694A.881.881 0 0 1 17 65.187m-5.5 1.453a.882.882 0 0 1-.494.248q-.324.048-.642.085H10.009a16.52 16.52 0 0 1-1.343.079.881.881 0 0 1-.029-1.762 16.354 16.354 0 0 0 2.111-.182.882.882 0 0 1 .752 1.5m-5.441-.2a.884.884 0 0 1-.875.222H5.031L5 66.6h-.008l-.026-.009a7.432 7.432 0 0 1-1.9-.926.881.881 0 1 1 1-1.453 5.792 5.792 0 0 0 1.626.759.882.882 0 0 1 .592 1.1.868.868 0 0 1-.22.37M2.23 63.255a.914.914 0 0 1-.244.172.881.881 0 0 1-1.176-.416l-.055-.119-.007-.016v-.007l-.007-.015V62.703l-.007-.016v-.006l-.007-.018-.007-.018v-.006l-.007-.018a8.774 8.774 0 0 1-.474-1.67l-.019-.1a.881.881 0 0 1 1.737-.3 6.865 6.865 0 0 0 .55 1.781.882.882 0 0 1-.172 1m-.725-5.3a.881.881 0 0 1-1.5-.7l.016-.183V56.983Q.1 56.3.222 55.573V55.475c.032-.18.066-.361.1-.543a.881.881 0 0 1 1.728.344 19.8 19.8 0 0 0-.308 2.133.876.876 0 0 1-.255.548M2.7 52.42a.881.881 0 0 1-1.463-.892v-.024l.009-.028.007-.019q.337-1.045.759-2.141a.881.881 0 0 1 1.644.635c-.277.723-.53 1.437-.75 2.122a.883.883 0 0 1-.215.354M57.79 1.505a.884.884 0 0 1-.543.254 19.826 19.826 0 0 0-2.131.322.881.881 0 1 1-.354-1.726H54.843A21.458 21.458 0 0 1 57.087 0a.882.882 0 0 1 .7 1.5m5.319.663a.88.88 0 0 1-.986.181 7.177 7.177 0 0 0-1.8-.525.881.881 0 0 1 .28-1.736c.277.046.546.1.808.165h.008l.027.007H61.567L61.6.3H61.765l.035.054h.006l.016.006h.011l.018.006h.006l.043.019h.012l.024.015h.05L62 .418h.012l.018.006h.016l.018.006h.011l.016.006H62.336l.015.006h.015l.016.007h.008l.033.013c.133.052.262.106.39.165a.881.881 0 0 1 .441 1.166.869.869 0 0 1-.18.26m3.278 3.749a.871.871 0 0 1-.354.215.881.881 0 0 1-1.109-.57 5.666 5.666 0 0 0-.792-1.6.881.881 0 0 1 1.463-.918 7.424 7.424 0 0 1 1.043 2.1.881.881 0 0 1-.216.893m.27 5.427a.881.881 0 0 1-1.5-.745 15.936 15.936 0 0 0 .161-2.108.881.881 0 0 1 1.762.011 17.783 17.783 0 0 1-.179 2.342.874.874 0 0 1-.249.5m-1.419 5.5a.882.882 0 0 1-1.453-.92c.26-.724.49-1.439.684-2.126a.881.881 0 0 1 1.7.478q-.31 1.095-.721 2.243a.875.875 0 0 1-.206.324m-2.29 5.289a.882.882 0 0 1-1.411-1.019c.347-.691.676-1.382.978-2.053a.881.881 0 1 1 1.607.723q-.3.661-.623 1.335l-.007.015-.008.016-.007.014-.006.012-.006.012-.007.014v.007l-.006.012-.007.015v.011l-.011.021q-.153.314-.311.629a.878.878 0 0 1-.162.224M60.114 27.2a.882.882 0 0 1-1.374-1.087c.405-.658.8-1.322 1.173-1.972a.881.881 0 0 1 1.53.875l-.007.012-.008.014-.007.013-.008.014-.008.014q-.238.414-.485.831l-.019.033-.007.012-.009.014v.008l-.007.011-.008.015-.009.014-.008.014-.008.014-.009.015-.009.015q-.282.472-.577.951a.911.911 0 0 1-.127.162M56.9 32.029a.881.881 0 0 1-1.349-1.129c.45-.629.893-1.265 1.316-1.891a.881.881 0 0 1 1.461.991c-.119.175-.237.35-.358.525l-.009.013-.011.016-.02.028-.008.013-.009.013-.009.013-.007.011q-.446.647-.909 1.295a.862.862 0 0 1-.094.11m-3.529 4.632a.881.881 0 0 1-1.308-1.179c.485-.6.967-1.21 1.432-1.813a.881.881 0 0 1 1.4 1.076q-.5.645-1.013 1.29l-.009.013-.011.012-.011.014-.009.012q-.2.252-.405.5c-.02.025-.041.048-.062.07M49.576 41.1a.881.881 0 0 1-1.276-1.218c.516-.572 1.032-1.156 1.531-1.734a.881.881 0 1 1 1.333 1.152q-.654.756-1.331 1.512l-.024.026-.022.025a.2.2 0 0 1-.021.024l-.159.177-.031.032" style="fill:#fec625" transform="rotate(180 35.818 42.173)"/>
                </g>
            </g>
            <g data-name="그룹 13380">
                <g style="filter:url(#bj8v8l9qeg)">
                    <path data-name="패스 12664" d="m42.586 26.614-15.255-9.006.369-9.176C27.684 5.04 24.467 0 21.379 0s-6.015 5.041-6.034 8.433l.373 9.175L.463 26.614A.993.993 0 0 0 0 27.45v7.8a1.009 1.009 0 0 0 .088.411.994.994 0 0 0 1.316.492l14.814-6.242.513 12.631-7.562 2.934a1.261 1.261 0 0 0-.844 1.191v5.553a1.262 1.262 0 0 0 1.65 1.2l8.716-2.82c.025.052.043.106.068.158a3.159 3.159 0 0 0 5.707-.085l.01-.024 8.561 2.77a1.261 1.261 0 0 0 1.65-1.2v-5.556a1.261 1.261 0 0 0-.845-1.19l-7.525-2.909.513-12.652 14.815 6.241a.993.993 0 0 0 1.4-.9v-7.8a.993.993 0 0 0-.463-.836" transform="rotate(45 19.043 45.81)" style="fill:#e0e0eb"/>
                </g>
                <g data-name="그룹 13378">
                    <path data-name="패스 12640" d="M10.892.135.845 4.031A1.262 1.262 0 0 0 0 5.221v5.553a1.261 1.261 0 0 0 1.65 1.2l11.143-3.608a1.258 1.258 0 0 1 .777 0l11.143 3.607a1.262 1.262 0 0 0 1.65-1.2V5.219a1.262 1.262 0 0 0-.844-1.191L15.1 0z" transform="rotate(45 -35.28 34.978)" style="fill:url(#eiqfs7xhvh)"/>
                    <path data-name="패스 12642" d="M1.289 4.326A1.29 1.29 0 0 1 0 3.036V1.289a1.289 1.289 0 1 1 2.579 0v1.747a1.29 1.29 0 0 1-1.29 1.29" transform="rotate(45 -8.44 47.45)" style="fill:#7d7d91"/>
                    <path data-name="패스 12644" d="M1.289 4.326A1.29 1.29 0 0 1 0 3.036V1.289a1.289 1.289 0 1 1 2.579 0v1.747a1.29 1.29 0 0 1-1.29 1.29" transform="rotate(45 -9.454 39.387)" style="fill:#7d7d91"/>
                    <path data-name="패스 12646" d="M1.289 4.326a1.29 1.29 0 0 0 1.29-1.29V1.289a1.289 1.289 0 1 0-2.579 0v1.747a1.29 1.29 0 0 0 1.289 1.29" transform="rotate(45 -19.393 73.89)" style="fill:#7d7d91"/>
                    <path data-name="패스 12648" d="M1.289 4.326a1.29 1.29 0 0 0 1.29-1.29V1.289a1.289 1.289 0 1 0-2.579 0v1.747a1.29 1.29 0 0 0 1.289 1.29" transform="rotate(45 -25.812 78.878)" style="fill:#7d7d91"/>
                    <path data-name="패스 12650" d="M.463 10.426 17.86.156a.992.992 0 0 1 1.525.838V11.73a.993.993 0 0 1-.582.9L1.4 19.966a.993.993 0 0 1-1.4-.9v-7.8a.993.993 0 0 1 .463-.836" transform="rotate(45 -.632 37.556)" style="fill:url(#z4gj2cseva)"/>
                    <path data-name="패스 12654" d="M19.386 11.262v7.8a.993.993 0 0 1-1.4.9L.582 12.635A.993.993 0 0 1 0 11.73V.994A.992.992 0 0 1 1.525.156l17.4 10.27a.993.993 0 0 1 .463.836" transform="rotate(45 -12.463 66.12)" style="fill:url(#zob9o99dpi)"/>
                    <path data-name="패스 12658" d="M6.034 0C2.946 0 .018 5.041 0 8.433l1.4 34.405a19.7 19.7 0 0 0 2.015 7.916 3.158 3.158 0 0 0 5.706-.085l.064-.139a19.719 19.719 0 0 0 1.764-7.389l1.41-34.712C12.338 5.04 9.119 0 6.034 0" transform="rotate(45 11.236 64.175)" style="fill:url(#lg7g5pobnj)"/>
                    <path data-name="패스 12660" d="M7.163 2.283a.628.628 0 0 1-.363-.117 5.093 5.093 0 0 0-5.8 0 .631.631 0 1 1-.73-1.028 6.374 6.374 0 0 1 7.265.005.631.631 0 0 1-.367 1.144" transform="rotate(45 4.302 64.53)" style="fill:#9595a4"/>
                    <path data-name="패스 12661" d="M.463 2.233A.993.993 0 0 0 0 3.069v7.8a.993.993 0 0 0 1.4.9l2.841-1.2V0z" transform="rotate(45 -10.594 33.43)" style="fill:url(#lriswa85fk)"/>
                    <path data-name="패스 12663" d="M3.782 2.233 0 0v10.575l2.841 1.2a.993.993 0 0 0 1.4-.9v-7.8a.993.993 0 0 0-.463-.836" transform="rotate(45 -29.996 80.27)" style="fill:url(#lriswa85fk)"/>
                </g>
            </g>
        </g>
        <g data-name="그룹 14085" transform="translate(295.051 233.734)">
            <circle data-name="타원 2257" cx="16" cy="16" r="16" transform="translate(-.05 .266)" style="fill:url(#cmljdcfknl)"/>
            <g data-name="타원 2258" transform="translate(2.95 3.266)" style="stroke:#ffd582;fill:none;mix-blend-mode:multiply;isolation:isolate">
                <circle cx="13" cy="13" r="13" style="stroke:none"/>
                <circle cx="13" cy="13" r="12.5" style="fill:none"/>
            </g>
            <path data-name="패스 13099" d="M1.365-11.1V2.227h2.4v-5.565c0-1.243-.2-3.134-.342-4.376h.067l1.063 3.133 2.071 5.6h1.531l2.053-5.6 1.081-3.134h.072c-.144 1.243-.324 3.134-.324 4.376v5.566h2.431V-11.1h-2.954L8.3-4.869c-.288.846-.522 1.711-.81 2.575H7.4c-.27-.864-.522-1.729-.81-2.575L4.319-11.1z" transform="translate(8.534 20.47)" style="fill:#ffd582;stroke-width:.5px;stroke:#ffd582;mix-blend-mode:multiply;isolation:isolate"/>
        </g>
        <g data-name="그룹 13272">
            <path data-name="패스 11097" d="M.174 1.1A1.608 1.608 0 0 1 .387.757 1.618 1.618 0 0 1 .6.546L.908.229l.082.06C2.592-.495 5.9.336 9.243 2.52c4.043 2.639 6.638 6.274 5.89 8.205l.114.084-.449.448a1.387 1.387 0 0 1-.067.066l-.013.013a1.851 1.851 0 0 1-.389.271c-1.581.828-4.923 0-8.3-2.2C1.9 6.718-.717 3 .174 1.1" transform="rotate(-67.97 307.432 -50.36)" style="fill:url(#x76zop7gem)"/>
            <path data-name="패스 11098" d="M9.244 2.52C5.125-.169 1.065-.807.174 1.1S1.9 6.719 6.018 9.407s8.179 3.327 9.069 1.425-1.725-5.623-5.843-8.312" transform="rotate(-67.97 306.835 -50.476)" style="fill:url(#b41cjik9vn)"/>
            <path data-name="패스 11099" d="M5.3 8.176a16.23 16.23 0 0 1-4.186-3.831C.118 2.972-.226 1.769.146.96A1.569 1.569 0 0 1 1.2.115c1.52-.438 4.213.4 6.86 2.133a16.225 16.225 0 0 1 4.182 3.831c1 1.373 1.34 2.576.969 3.385a1.569 1.569 0 0 1-1.059.845 3.284 3.284 0 0 1-.906.115A12.107 12.107 0 0 1 5.3 8.176M1.289.405a1.282 1.282 0 0 0-.868.68c-.319.7.023 1.819.939 3.082a15.921 15.921 0 0 0 4.1 3.756 11.942 11.942 0 0 0 5.8 2.2 2.958 2.958 0 0 0 .813-.1 1.281 1.281 0 0 0 .868-.681c.319-.7-.023-1.819-.939-3.082A15.918 15.918 0 0 0 7.9 2.5 11.944 11.944 0 0 0 2.1.3a2.954 2.954 0 0 0-.813.1" transform="rotate(-67.97 306.874 -51.528)" style="fill:url(#z2rwi6by2o)"/>
        </g>
        <g data-name="그룹 13273">
            <path data-name="패스 11097" d="M.1.621A.912.912 0 0 1 .219.429a.918.918 0 0 1 .119-.12L.515.13l.046.034C1.469-.28 3.344.191 5.24 1.429 7.532 2.925 9 4.985 8.579 6.08l.065.048-.255.254-.038.038-.007.007a1.049 1.049 0 0 1-.22.153c-.9.47-2.791 0-4.708-1.25C1.077 3.809-.406 1.7.1.621" transform="rotate(-67.97 292.64 -52.522)" style="fill:url(#c8xnpbg84p)"/>
            <path data-name="패스 11098" d="M5.24 1.429C2.905-.1.6-.457.1.621s.979 3.188 3.313 4.712 4.637 1.886 5.141.808-.979-3.188-3.314-4.712" transform="rotate(-67.97 292.3 -52.587)" style="fill:url(#b41cjik9vn)"/>
            <path data-name="패스 11099" d="M3 4.635A9.2 9.2 0 0 1 .632 2.463C.067 1.685-.128 1 .083.544a.889.889 0 0 1 .6-.479c.862-.248 2.388.227 3.889 1.209a9.2 9.2 0 0 1 2.371 2.172c.565.778.76 1.46.549 1.919a.889.889 0 0 1-.6.479 1.862 1.862 0 0 1-.514.065A6.863 6.863 0 0 1 3 4.635M.73.23a.727.727 0 0 0-.492.385C.057 1.01.251 1.647.77 2.363A9.025 9.025 0 0 0 3.1 4.492a6.77 6.77 0 0 0 3.283 1.246 1.677 1.677 0 0 0 .461-.058.726.726 0 0 0 .492-.386c.181-.394-.012-1.031-.536-1.747a9.024 9.024 0 0 0-2.322-2.129A6.771 6.771 0 0 0 1.192.172 1.674 1.674 0 0 0 .73.23" transform="rotate(-67.97 292.322 -53.184)" style="fill:url(#z2rwi6by2o)"/>
        </g>
    </g>
</svg>
