<svg xmlns="http://www.w3.org/2000/svg" width="420" height="60" viewBox="0 0 420 60">
    <defs>
        <clipPath id="milugd9d2a">
            <path data-name="패스 7533" d="M336.063 203.823a14.763 14.763 0 1 0-14.763-14.761 14.76 14.76 0 0 0 14.763 14.761z" transform="translate(-321.296 -174.298)" style="fill:none"/>
        </clipPath>
    </defs>
    <path data-name="패스 13868" d="M20 0h20a20 20 0 0 1 20 20v20a20 20 0 0 1-20 20H20A20 20 0 0 1 0 40V20A20 20 0 0 1 20 0z" transform="translate(180)" style="fill:#ffe400"/>
    <path data-name="패스 7457" d="M649.968 592.464a8.207 8.207 0 0 0-2.841-5.224c-.236-.2-.483-.4-.762-.623.23-.174.423-.308.6-.458a8.642 8.642 0 0 0 2.53-3.516 8.269 8.269 0 0 0-1.638-8.546 8.241 8.241 0 0 0-2.962-2.108 8.938 8.938 0 0 0-3.456-.658h-13.265a2.492 2.492 0 0 0-.275.006.558.558 0 0 0-.531.573v29.061c0 .145-.008.291 0 .435a.513.513 0 0 0 .44.482 1.682 1.682 0 0 0 .275.01h13.738a7.76 7.76 0 0 0 3.945-1.058 8.421 8.421 0 0 0 3.734-4.34 7.95 7.95 0 0 0 .468-4.036zM639.41 593.5h-2.479v-13.739h2.451s-.01-.006 0-.006v.006h.028z" transform="translate(-428.138 -557.032)" style="fill:#1e1719"/>
    <path data-name="패스 13869" d="M20 0h20a20 20 0 0 1 20 20v20a20 20 0 0 1-20 20H20A20 20 0 0 1 0 40V20A20 20 0 0 1 20 0z" style="fill:#0050ff"/>
    <path data-name="패스 7535" d="M274.456 247.474a15.112 15.112 0 0 0-6.7 1.56c-11.24 5.02-14.2 23.127-14.2 23.127a19.943 19.943 0 0 1 7.254-3.263 15.073 15.073 0 1 0 13.647-21.42z" transform="translate(-241.554 -232.474)" style="fill:#fff"/>
    <path data-name="패스 13867" d="M20 0h20a20 20 0 0 1 20 20v20a20 20 0 0 1-20 20H20A20 20 0 0 1 0 40V20A20 20 0 0 1 20 0z" transform="translate(90)" style="fill:#004b8c"/>
    <g data-name="그룹 7343">
        <path data-name="패스 6882" d="M101.808 178.7a3.577 3.577 0 0 0-1.8 2.081l-5.756 17.307a3.6 3.6 0 0 0 2.277 4.553l18.881 6.339a3.6 3.6 0 0 0 4.554-2.279l5.758-17.3a3.606 3.606 0 0 0-2.281-4.559l-18.879-6.342a3.572 3.572 0 0 0-2.754.2" transform="translate(10.396 -163.357)" style="fill:#fff"/>
        <path data-name="패스 6883" d="M111.272 195.558a9.886 9.886 0 0 1-3.788 2.639l-.851.331v-8.019l.84.328a9.878 9.878 0 0 1 3.8 2.629 8.679 8.679 0 0 0-4.2-12.64l-2.727-.908a2.331 2.331 0 0 0-2.948 1.5l-5.775 17.316a2.364 2.364 0 0 0 1.514 2.974l13.1 4.375a8.67 8.67 0 0 0 1.031-10.523m-7.577-5.527v8.991h-1.3v-8.991z" transform="translate(10.166 -163.594)" style="fill:#0082bd"/>
        <path data-name="패스 6884" d="M112.865 196.9a8.767 8.767 0 0 0-2.637-2.107v4.226a8.714 8.714 0 0 0 2.637-2.119" transform="translate(7.814 -165.987)" style="fill:#db2422"/>
        <path data-name="패스 6885" d="m126.243 186.69-12.026-4.02a9.905 9.905 0 0 1 .872 12.3 9.9 9.9 0 0 1-.576 12l4.518 1.509a2.331 2.331 0 0 0 2.95-1.5l5.777-17.316a2.367 2.367 0 0 0-1.515-2.975m-3.186 12.761h-1.625l-3.343-4.5 3.4-4.493 1.639-.008-3.4 4.508z" transform="translate(7.174 -164.052)" style="fill:#004b8c"/>
    </g>
    <g>
        <path data-name="패스 13866" d="M20 0h20a20 20 0 0 1 20 20v20a20 20 0 0 1-20 20H20A20 20 0 0 1 0 40V20A20 20 0 0 1 20 0z" transform="translate(270)" style="fill:#776c61"/>
        <path data-name="패스 6897" d="m129.607 362.4-.314-.2a5.554 5.554 0 0 0-4.532-1.427 8.491 8.491 0 0 0-3.962 1.381v-.045a16.012 16.012 0 0 1 .116-1.643 16.392 16.392 0 0 0 .117-1.669 3.929 3.929 0 0 0-.249-1.519.294.294 0 0 0-.284-.181 4.312 4.312 0 0 0-1.827.606l-.136.3a12.194 12.194 0 0 1-.271 2.469c.005-.005-.07.2-.07.2a30.3 30.3 0 0 0-.022 6.276c.022.182.364.453.628.548a3.962 3.962 0 0 0 1.721-.336l.2-.031a.307.307 0 0 0 .255-.35l.013-.518a5.127 5.127 0 0 1 3.713-3.684 2.56 2.56 0 0 1 2.468.8 3.441 3.441 0 0 1-.4 2.531 5.166 5.166 0 0 1-2.823 2.252 10.705 10.705 0 0 1-4.32.616l-1.589-1.087a23.077 23.077 0 0 0-4.534-2.728 5.523 5.523 0 0 1-1.033-.743l-.154-.131c-.876-.711-2.539-1.831-3.874-2.732l-.721-.489v-.152c.041-.044.88-.552.88-.552a9.1 9.1 0 0 0 1.833-1.213c-.024.029.156-.093.156-.093l2.908-1.656c2.8-1.553 5.966-3.322 7.632-5.063l.079-.267.038-.236a1.651 1.651 0 0 0 .024-.99.308.308 0 0 0-.227-.226c-1.3-.133-2.975.658-4.5 2.106a4.153 4.153 0 0 1-.939.657l-.232.128c-1.683.968-5.473 3.349-7.458 4.634a68.329 68.329 0 0 1 1.01-7.79l-.053-.305c-.007-.01-.205-.387-.205-.387l-.155-.278-.045-.011a1.25 1.25 0 0 0-.957-.06l-.4.15-.528.194a.284.284 0 0 0-.219.188 32.9 32.9 0 0 0-1.926 9.175 45.153 45.153 0 0 0-4.5-2.517l-.023-.015-.1-.022a3.184 3.184 0 0 1-1.047-.491 318.51 318.51 0 0 1-.721-.473l-1.1-.712a7.761 7.761 0 0 1-.291-.067 3.442 3.442 0 0 0-1.649 1.118.356.356 0 0 0-.049.18 1.059 1.059 0 0 0 .049.264l.051.227.051.137a15.8 15.8 0 0 0 3.161 2.167l1.515.812 2.314 1.273c0 .011.4.316.4.316l.272.16s.031.019.049.032c-.618.415-4.212 2.844-4.212 2.844l-2.214 1.485a12.869 12.869 0 0 1-1.277.618 1.835 1.835 0 0 0-.994.832l-.06.129.06.085.17.129c-.008 0 .227.152.227.152l.245.168.23.038a5.83 5.83 0 0 0 2.041-.688c.99-.444 3.679-2.086 4.829-2.785l.491-.3c.2.019.426-.155.625-.307a6.006 6.006 0 0 1 1.038-.634c.009 0 .184-.1.349-.194v.133a47.9 47.9 0 0 0 .637 8.139l.005.033.038.082a8.927 8.927 0 0 1 .595 1.867l.439 1.486c.01.018.123.14.123.14a2.873 2.873 0 0 0 1.521.406l.128-.015.08-.181a3.578 3.578 0 0 0 .059-.68c0-.271-.021-.572-.044-.937l-.035-.535c-.162-2.484-.321-6.074-.321-8.455v-.19l2.241 1.426c3.106 2.039 7.8 5.12 10.633 5.933a.412.412 0 0 0 .41-.093c0-.008.438-.284.438-.284l.079-.037a.8.8 0 0 0 .293-.656c2.388-.12 5.721-1.05 7.5-3.321a4.752 4.752 0 0 0 1-2.875 2.463 2.463 0 0 0-.584-1.768" transform="translate(188.19 -331.748)" style="fill:#fcaf17"/>
    </g>
    <g>
        <path data-name="패스 13870" d="M20.25 0h19.5A20.25 20.25 0 0 1 60 20.25v19.5A20.25 20.25 0 0 1 39.75 60h-19.5A20.25 20.25 0 0 1 0 39.75v-19.5A20.25 20.25 0 0 1 20.25 0z" transform="translate(360)" style="fill:#cbe5f6"/>
        <g data-name="그룹 7379">
            <path data-name="패스 7468" d="M351.259 188.764a15.5 15.5 0 1 1-15.495-15.5 15.506 15.506 0 0 1 15.495 15.5z" transform="translate(54.24 -158.769)" style="fill:#fff"/>
            <g data-name="그룹 7374">
                <path data-name="패스 7469" d="M336.063 203.823a14.763 14.763 0 1 0-14.763-14.761 14.76 14.76 0 0 0 14.763 14.761z" transform="translate(53.941 -159.066)" style="fill:#0072c0"/>
            </g>
            <g data-name="그룹 7378">
                <g data-name="그룹 7377" style="clip-path:url(#milugd9d2a)" transform="translate(375.237 15.232)">
                    <g data-name="그룹 7376">
                        <g data-name="그룹 7375">
                            <path data-name="패스 7470" d="M335.769 198.209c6.485 0 12.047 1.807 14.429 4.371a14.906 14.906 0 0 0 1.24-5.976 15.67 15.67 0 0 0-31.332 0 14.919 14.919 0 0 0 1.24 5.976c2.375-2.564 7.938-4.371 14.423-4.371z" transform="translate(-320.952 -176.313)" style="fill:#0072c0"/>
                            <path data-name="패스 7471" d="M335.783 198.278c6.468 0 12.016 1.793 14.391 4.335a14.717 14.717 0 0 0 1.237-5.928 15.631 15.631 0 0 0-31.252 0 14.726 14.726 0 0 0 1.236 5.928c2.37-2.542 7.919-4.335 14.388-4.335z" transform="translate(-320.968 -176.366)" style="fill:#0074c1"/>
                            <path data-name="패스 7472" d="M335.8 198.348c6.451 0 11.985 1.778 14.354 4.3a14.518 14.518 0 0 0 1.234-5.88 15.593 15.593 0 0 0-31.171 0 14.542 14.542 0 0 0 1.232 5.88c2.361-2.522 7.895-4.3 14.351-4.3z" transform="translate(-320.983 -176.42)" style="fill:#0075c2"/>
                            <path data-name="패스 7473" d="M335.81 198.418c6.434 0 11.955 1.764 14.318 4.265a14.358 14.358 0 0 0 1.231-5.832 15.555 15.555 0 0 0-31.091 0 14.356 14.356 0 0 0 1.229 5.832c2.356-2.502 7.877-4.265 14.313-4.265z" transform="translate(-320.999 -176.473)" style="fill:#0077c3"/>
                            <path data-name="패스 7474" d="M335.823 198.487c6.417 0 11.925 1.749 14.281 4.229a14.166 14.166 0 0 0 1.228-5.784c0-8.2-6.949-14.924-15.509-14.924s-15.5 6.729-15.5 14.924a14.178 14.178 0 0 0 1.227 5.784c2.35-2.48 7.85-4.229 14.273-4.229z" transform="translate(-321.014 -176.526)" style="fill:#0079c4"/>
                            <path data-name="패스 7475" d="M335.838 198.558c6.4 0 11.894 1.734 14.243 4.193a13.97 13.97 0 0 0 1.225-5.735c0-8.13-6.931-14.822-15.468-14.822s-15.463 6.695-15.463 14.822a13.979 13.979 0 0 0 1.223 5.735c2.345-2.46 7.837-4.193 14.24-4.193z" transform="translate(-321.03 -176.579)" style="fill:#007ac5"/>
                            <path data-name="패스 7476" d="M335.85 198.626c6.384 0 11.864 1.72 14.208 4.159a13.8 13.8 0 0 0 1.221-5.688c0-8.062-6.912-14.72-15.428-14.72s-15.421 6.661-15.421 14.72a13.786 13.786 0 0 0 1.22 5.688c2.338-2.439 7.815-4.159 14.2-4.159z" transform="translate(-321.045 -176.633)" style="fill:#007cc6"/>
                            <path data-name="패스 7477" d="M335.864 198.7c6.366 0 11.832 1.705 14.169 4.125a13.606 13.606 0 0 0 1.22-5.639c0-7.994-6.9-14.619-15.389-14.619s-15.383 6.626-15.383 14.619a13.615 13.615 0 0 0 1.217 5.639c2.334-2.425 7.797-4.125 14.166-4.125z" transform="translate(-321.06 -176.686)" style="fill:#007ec7"/>
                            <path data-name="패스 7478" d="M335.878 198.766c6.35 0 11.8 1.69 14.133 4.089a13.424 13.424 0 0 0 1.215-5.592c0-7.927-6.877-14.516-15.348-14.516s-15.342 6.592-15.342 14.516a13.434 13.434 0 0 0 1.214 5.592c2.326-2.399 7.776-4.089 14.128-4.089z" transform="translate(-321.076 -176.739)" style="fill:#0080c8"/>
                            <path data-name="패스 7479" d="M335.892 198.835c6.333 0 11.771 1.675 14.1 4.053a13.248 13.248 0 0 0 1.212-5.542c0-7.859-6.859-14.415-15.308-14.415s-15.3 6.559-15.3 14.415a13.238 13.238 0 0 0 1.21 5.542c2.315-2.377 7.75-4.053 14.086-4.053z" transform="translate(-321.092 -176.792)" style="fill:#0081c8"/>
                            <path data-name="패스 7480" d="M335.905 198.9c6.315 0 11.739 1.66 14.059 4.018a13.064 13.064 0 0 0 1.209-5.495c0-7.79-6.84-14.313-15.268-14.313s-15.262 6.525-15.262 14.313a13.054 13.054 0 0 0 1.207 5.495c2.315-2.353 7.736-4.018 14.055-4.018z" transform="translate(-321.107 -176.845)" style="fill:#0083c9"/>
                            <path data-name="패스 7481" d="M335.918 198.974c6.3 0 11.709 1.646 14.022 3.982a12.874 12.874 0 0 0 1.207-5.446c0-7.723-6.823-14.212-15.229-14.212s-15.222 6.49-15.222 14.212a12.874 12.874 0 0 0 1.2 5.446c2.314-2.335 7.72-3.982 14.022-3.982z" transform="translate(-321.122 -176.899)" style="fill:#0085ca"/>
                            <path data-name="패스 7482" d="M335.933 199.044c6.282 0 11.677 1.632 13.985 3.947a12.716 12.716 0 0 0 1.2-5.4c0-7.655-6.8-14.11-15.187-14.11s-15.183 6.457-15.183 14.11a12.708 12.708 0 0 0 1.2 5.4c2.306-2.315 7.698-3.947 13.985-3.947z" transform="translate(-321.138 -176.952)" style="fill:#0087cb"/>
                            <path data-name="패스 7483" d="M335.947 199.114c6.264 0 11.647 1.617 13.947 3.913a12.519 12.519 0 0 0 1.2-5.351c0-7.587-6.786-14.008-15.147-14.008s-15.147 6.423-15.147 14.008a12.531 12.531 0 0 0 1.2 5.351c2.3-2.296 7.677-3.913 13.947-3.913z" transform="translate(-321.154 -177.005)" style="fill:#0089cc"/>
                            <path data-name="패스 7484" d="M335.959 199.183c6.248 0 11.617 1.6 13.911 3.877a12.351 12.351 0 0 0 1.2-5.3c0-7.519-6.769-13.906-15.109-13.906s-15.1 6.389-15.1 13.906a12.35 12.35 0 0 0 1.195 5.3c2.287-2.275 7.65-3.877 13.903-3.877z" transform="translate(-321.169 -177.058)" style="fill:#008bce"/>
                            <path data-name="패스 7485" d="M335.973 199.253c6.23 0 11.585 1.588 13.873 3.841a12.163 12.163 0 0 0 1.194-5.254c0-7.452-6.75-13.8-15.067-13.8s-15.063 6.355-15.063 13.8a12.164 12.164 0 0 0 1.193 5.254c2.284-2.253 7.633-3.841 13.87-3.841z" transform="translate(-321.184 -177.111)" style="fill:#008ccf"/>
                            <path data-name="패스 7486" d="M335.987 199.323c6.214 0 11.555 1.572 13.837 3.806a12 12 0 0 0 1.191-5.205c0-7.384-6.732-13.7-15.028-13.7s-15.022 6.32-15.022 13.7a11.989 11.989 0 0 0 1.188 5.205c2.279-2.229 7.614-3.806 13.834-3.806z" transform="translate(-321.2 -177.165)" style="fill:#008ed0"/>
                            <path data-name="패스 7487" d="M336 199.392c6.2 0 11.524 1.558 13.8 3.771a11.822 11.822 0 0 0 1.188-5.157c0-7.316-6.713-13.6-14.988-13.6s-14.982 6.286-14.982 13.6a11.813 11.813 0 0 0 1.185 5.157c2.273-2.213 7.597-3.771 13.797-3.771z" transform="translate(-321.215 -177.218)" style="fill:#0090d1"/>
                            <path data-name="패스 7488" d="M336.014 199.461c6.179 0 11.493 1.543 13.762 3.736a11.641 11.641 0 0 0 1.185-5.109c0-7.248-6.7-13.5-14.947-13.5s-14.943 6.252-14.943 13.5a11.642 11.642 0 0 0 1.183 5.109c2.267-2.197 7.573-3.736 13.76-3.736z" transform="translate(-321.231 -177.271)" style="fill:#0092d2"/>
                            <path data-name="패스 7489" d="M336.027 199.531c6.163 0 11.463 1.529 13.726 3.7a11.487 11.487 0 0 0 1.182-5.061c0-7.18-6.678-13.4-14.908-13.4s-14.9 6.218-14.9 13.4a11.474 11.474 0 0 0 1.179 5.061c2.259-2.171 7.552-3.7 13.721-3.7z" transform="translate(-321.246 -177.325)" style="fill:#0094d3"/>
                            <path data-name="패스 7490" d="M336.041 199.6c6.146 0 11.432 1.515 13.688 3.666a11.3 11.3 0 0 0 1.179-5.013c0-7.113-6.659-13.3-14.867-13.3s-14.862 6.184-14.862 13.3a11.3 11.3 0 0 0 1.176 5.013c2.254-2.151 7.533-3.666 13.686-3.666z" transform="translate(-321.262 -177.378)" style="fill:#0097d4"/>
                            <path data-name="패스 7491" d="M336.055 199.671c6.128 0 11.4 1.5 13.651 3.63a11.124 11.124 0 0 0 1.176-4.965c0-7.044-6.64-13.193-14.827-13.193s-14.823 6.15-14.823 13.193a11.125 11.125 0 0 0 1.173 4.965c2.248-2.131 7.513-3.63 13.65-3.63z" transform="translate(-321.277 -177.431)" style="fill:#0099d5"/>
                            <path data-name="패스 7492" d="M336.068 199.74c6.112 0 11.37 1.485 13.614 3.6a10.964 10.964 0 0 0 1.173-4.917c0-6.977-6.623-13.091-14.787-13.091s-14.782 6.116-14.782 13.091a10.947 10.947 0 0 0 1.171 4.917c2.243-2.115 7.491-3.6 13.611-3.6z" transform="translate(-321.293 -177.484)" style="fill:#009bd6"/>
                            <path data-name="패스 7493" d="M336.082 199.81c6.1 0 11.34 1.471 13.577 3.56a10.786 10.786 0 0 0 1.171-4.869c0-6.909-6.606-12.989-14.748-12.989s-14.742 6.081-14.742 12.988a10.8 10.8 0 0 0 1.166 4.869c2.237-2.089 7.473-3.559 13.576-3.559z" transform="translate(-321.308 -177.538)" style="fill:#009dd7"/>
                            <path data-name="패스 7494" d="M336.1 199.879c6.079 0 11.31 1.456 13.54 3.525a10.621 10.621 0 0 0 1.167-4.821c0-6.841-6.587-12.888-14.707-12.888s-14.7 6.048-14.7 12.888a10.622 10.622 0 0 0 1.163 4.821c2.225-2.069 7.446-3.525 13.537-3.525z" transform="translate(-321.324 -177.591)" style="fill:#009fd8"/>
                            <path data-name="패스 7495" d="M336.108 199.949c6.062 0 11.279 1.441 13.5 3.489a10.458 10.458 0 0 0 1.163-4.772c0-6.773-6.568-12.787-14.667-12.787s-14.661 6.014-14.661 12.787a10.45 10.45 0 0 0 1.16 4.772c2.228-2.048 7.436-3.489 13.505-3.489z" transform="translate(-321.339 -177.644)" style="fill:#00a1d9"/>
                            <path data-name="패스 7496" d="M336.122 200.018c6.044 0 11.247 1.426 13.466 3.454a10.29 10.29 0 0 0 1.161-4.724c0-6.705-6.55-12.684-14.627-12.684s-14.622 5.98-14.622 12.684a10.283 10.283 0 0 0 1.158 4.724c2.218-2.027 7.411-3.454 13.464-3.454z" transform="translate(-321.355 -177.697)" style="fill:#00a4da"/>
                            <path data-name="패스 7497" d="M336.136 200.088c6.027 0 11.216 1.412 13.429 3.419a10.129 10.129 0 0 0 1.158-4.676c0-6.638-6.532-12.583-14.587-12.583s-14.582 5.946-14.582 12.583a10.114 10.114 0 0 0 1.155 4.676c2.211-2.007 7.391-3.419 13.427-3.419z" transform="translate(-321.37 -177.75)" style="fill:#00a6dc"/>
                            <path data-name="패스 7498" d="M336.15 200.157c6.01 0 11.185 1.4 13.393 3.384a9.958 9.958 0 0 0 1.154-4.629c0-6.569-6.515-12.481-14.547-12.481s-14.542 5.912-14.542 12.481a9.952 9.952 0 0 0 1.152 4.629c2.204-1.986 7.369-3.384 13.39-3.384z" transform="translate(-321.386 -177.804)" style="fill:#00a8dd"/>
                            <path data-name="패스 7499" d="M336.164 200.227c5.993 0 11.154 1.383 13.355 3.349A9.8 9.8 0 0 0 350.67 199c0-6.5-6.5-12.379-14.506-12.379s-14.5 5.877-14.5 12.379a9.8 9.8 0 0 0 1.148 4.58c2.197-1.97 7.347-3.353 13.352-3.353z" transform="translate(-321.401 -177.857)" style="fill:#00aade"/>
                            <path data-name="패스 7500" d="M336.177 200.3c5.976 0 11.123 1.368 13.318 3.314a9.642 9.642 0 0 0 1.148-4.532c0-6.434-6.478-12.278-14.466-12.278s-14.462 5.843-14.462 12.278a9.636 9.636 0 0 0 1.145 4.532c2.194-1.949 7.33-3.314 13.317-3.314z" transform="translate(-321.417 -177.91)" style="fill:#00addf"/>
                            <path data-name="패스 7501" d="M336.191 200.366c5.959 0 11.093 1.353 13.282 3.278a9.48 9.48 0 0 0 1.145-4.484c0-6.366-6.46-12.176-14.427-12.176s-14.422 5.81-14.422 12.176a9.471 9.471 0 0 0 1.141 4.484c2.19-1.924 7.31-3.278 13.281-3.278z" transform="translate(-321.432 -177.963)" style="fill:#09afe0"/>
                            <path data-name="패스 7502" d="M336.2 200.453c5.951 0 11.078 1.345 13.263 3.257a9.377 9.377 0 0 0 1.144-4.454c0-6.325-6.452-12.1-14.407-12.1s-14.4 5.776-14.4 12.1a9.368 9.368 0 0 0 1.139 4.454c2.183-1.91 7.298-3.257 13.261-3.257z" transform="translate(-321.44 -178.012)" style="fill:#1db1e1"/>
                            <path data-name="패스 7503" d="M336.207 200.539c5.944 0 11.063 1.335 13.245 3.235a9.278 9.278 0 0 0 1.142-4.425c0-6.283-6.443-12.027-14.387-12.027s-14.382 5.744-14.382 12.027a9.262 9.262 0 0 0 1.138 4.425c2.181-1.899 7.29-3.235 13.244-3.235z" transform="translate(-321.448 -178.061)" style="fill:#29b3e2"/>
                            <path data-name="패스 7504" d="M336.214 200.625c5.936 0 11.048 1.327 13.226 3.214a9.166 9.166 0 0 0 1.141-4.4c0-6.242-6.434-11.951-14.368-11.951s-14.363 5.71-14.363 11.951a9.174 9.174 0 0 0 1.136 4.4c2.18-1.887 7.283-3.214 13.228-3.214z" transform="translate(-321.456 -178.11)" style="fill:#34b5e2"/>
                            <path data-name="패스 7505" d="M336.222 200.712c5.929 0 11.033 1.318 13.209 3.192a9.085 9.085 0 0 0 1.139-4.366c0-6.2-6.426-11.877-14.348-11.877s-14.343 5.678-14.343 11.877a9.056 9.056 0 0 0 1.135 4.366c2.175-1.875 7.271-3.192 13.208-3.192z" transform="translate(-321.464 -178.159)" style="fill:#3db7e3"/>
                            <path data-name="패스 7506" d="M336.231 200.8c5.92 0 11.017 1.309 13.191 3.171a8.991 8.991 0 0 0 1.137-4.336c0-6.159-6.417-11.8-14.328-11.8s-14.325 5.643-14.325 11.8a8.961 8.961 0 0 0 1.134 4.336c2.172-1.863 7.26-3.171 13.191-3.171z" transform="translate(-321.472 -178.208)" style="fill:#45b9e4"/>
                            <path data-name="패스 7507" d="M336.239 200.885c5.912 0 11 1.3 13.172 3.15a8.892 8.892 0 0 0 1.136-4.307c0-6.118-6.409-11.728-14.308-11.728s-14.3 5.612-14.3 11.728a8.875 8.875 0 0 0 1.129 4.307c2.167-1.85 7.25-3.15 13.171-3.15z" transform="translate(-321.48 -178.256)" style="fill:#4dbbe5"/>
                            <path data-name="패스 7508" d="M336.247 200.97c5.9 0 10.987 1.291 13.154 3.128a8.8 8.8 0 0 0 1.134-4.278c0-6.076-6.4-11.652-14.288-11.652s-14.285 5.577-14.285 11.652a8.766 8.766 0 0 0 1.129 4.278c2.166-1.836 7.243-3.128 13.156-3.128z" transform="translate(-321.488 -178.305)" style="fill:#54bde6"/>
                            <path data-name="패스 7509" d="M336.255 201.057c5.9 0 10.972 1.282 13.136 3.107a8.7 8.7 0 0 0 1.132-4.248c0-6.035-6.391-11.579-14.268-11.579s-14.266 5.545-14.266 11.579a8.674 8.674 0 0 0 1.127 4.248c2.164-1.825 7.234-3.107 13.139-3.107z" transform="translate(-321.496 -178.354)" style="fill:#5cbfe6"/>
                            <path data-name="패스 7510" d="M336.264 201.143c5.889 0 10.957 1.274 13.117 3.086a8.608 8.608 0 0 0 1.131-4.22c0-5.994-6.383-11.5-14.248-11.5s-14.246 5.512-14.246 11.5a8.571 8.571 0 0 0 1.125 4.22c2.157-1.812 7.224-3.086 13.121-3.086z" transform="translate(-321.504 -178.403)" style="fill:#63c1e7"/>
                            <path data-name="패스 7511" d="M336.271 201.23c5.882 0 10.942 1.264 13.1 3.064a8.506 8.506 0 0 0 1.129-4.19c0-5.952-6.374-11.429-14.229-11.429s-14.226 5.478-14.226 11.429a8.477 8.477 0 0 0 1.123 4.19c2.157-1.8 7.215-3.064 13.103-3.064z" transform="translate(-321.512 -178.452)" style="fill:#6ac4e8"/>
                            <path data-name="패스 7512" d="M336.279 201.316c5.874 0 10.927 1.256 13.081 3.044a8.409 8.409 0 0 0 1.128-4.161c0-5.911-6.365-11.354-14.209-11.354s-14.207 5.446-14.207 11.354a8.393 8.393 0 0 0 1.121 4.161c2.156-1.788 7.207-3.044 13.086-3.044z" transform="translate(-321.52 -178.5)" style="fill:#71c6e9"/>
                            <path data-name="패스 7513" d="M336.288 201.4c5.866 0 10.911 1.247 13.063 3.022a8.321 8.321 0 0 0 1.126-4.132c0-5.869-6.358-11.278-14.189-11.278s-14.188 5.413-14.188 11.28a8.278 8.278 0 0 0 1.119 4.132c2.152-1.774 7.197-3.024 13.069-3.024z" transform="translate(-321.528 -178.55)" style="fill:#77c8ea"/>
                            <path data-name="패스 7514" d="M336.3 201.489c5.858 0 10.9 1.238 13.045 3a8.231 8.231 0 0 0 1.125-4.1c0-5.828-6.349-11.2-14.17-11.2s-14.168 5.379-14.168 11.2a8.188 8.188 0 0 0 1.117 4.1c2.146-1.762 7.184-3 13.051-3z" transform="translate(-321.536 -178.598)" style="fill:#7ecbeb"/>
                            <path data-name="패스 7515" d="M336.3 201.575c5.85 0 10.881 1.23 13.026 2.979a8.129 8.129 0 0 0 1.123-4.073c0-5.786-6.34-11.129-14.149-11.129s-14.149 5.346-14.149 11.129a8.081 8.081 0 0 0 1.117 4.073c2.149-1.754 7.18-2.979 13.032-2.979z" transform="translate(-321.544 -178.647)" style="fill:#85cdec"/>
                            <path data-name="패스 7516" d="M336.311 201.66c5.843 0 10.866 1.221 13.009 2.958a8.044 8.044 0 0 0 1.121-4.043c0-5.745-6.331-11.055-14.129-11.055s-14.129 5.313-14.129 11.055a7.993 7.993 0 0 0 1.114 4.043c2.143-1.737 7.167-2.958 13.014-2.958z" transform="translate(-321.552 -178.696)" style="fill:#8ccfec"/>
                            <path data-name="패스 7517" d="M336.319 201.748c5.835 0 10.851 1.212 12.99 2.936a7.953 7.953 0 0 0 1.12-4.014c0-5.7-6.323-10.98-14.11-10.98s-14.109 5.279-14.109 10.98a7.9 7.9 0 0 0 1.112 4.014c2.141-1.724 7.159-2.936 12.997-2.936z" transform="translate(-321.56 -178.745)" style="fill:#93d2ed"/>
                            <path data-name="패스 7518" d="M336.327 201.834c5.827 0 10.836 1.2 12.972 2.914a7.852 7.852 0 0 0 1.118-3.984c0-5.663-6.314-10.906-14.09-10.906s-14.09 5.246-14.09 10.906a7.812 7.812 0 0 0 1.111 3.984c2.137-1.711 7.152-2.914 12.979-2.914z" transform="translate(-321.568 -178.794)" style="fill:#9ad5ee"/>
                            <path data-name="패스 7519" d="M336.336 201.921c5.819 0 10.821 1.193 12.955 2.893a7.775 7.775 0 0 0 1.116-3.955c0-5.621-6.306-10.83-14.071-10.83s-14.07 5.213-14.07 10.83a7.711 7.711 0 0 0 1.108 3.955c2.134-1.7 7.14-2.893 12.962-2.893z" transform="translate(-321.576 -178.842)" style="fill:#a0d7ef"/>
                            <path data-name="패스 7520" d="M336.343 202.007c5.812 0 10.806 1.185 12.936 2.872a7.676 7.676 0 0 0 1.115-3.925c0-5.579-6.3-10.756-14.051-10.756s-14.05 5.18-14.05 10.756a7.613 7.613 0 0 0 1.107 3.925c2.131-1.687 7.13-2.872 12.943-2.872z" transform="translate(-321.584 -178.891)" style="fill:#a7daf0"/>
                            <path data-name="패스 7521" d="M336.351 202.093c5.8 0 10.791 1.176 12.918 2.85a7.581 7.581 0 0 0 1.113-3.9c0-5.538-6.289-10.681-14.031-10.681s-14.031 5.146-14.031 10.681a7.522 7.522 0 0 0 1.106 3.9c2.128-1.674 7.12-2.85 12.925-2.85z" transform="translate(-321.592 -178.94)" style="fill:#aeddf1"/>
                            <path data-name="패스 7522" d="M336.359 202.18c5.8 0 10.776 1.167 12.9 2.829a7.5 7.5 0 0 0 1.111-3.867c0-5.5-6.28-10.606-14.011-10.606s-14.011 5.114-14.011 10.606a7.434 7.434 0 0 0 1.1 3.867c2.129-1.662 7.114-2.829 12.911-2.829z" transform="translate(-321.6 -178.989)" style="fill:#b5dff2"/>
                            <path data-name="패스 7523" d="M336.368 202.265c5.788 0 10.761 1.158 12.881 2.808a7.408 7.408 0 0 0 1.11-3.838c0-5.456-6.272-10.532-13.991-10.532s-13.992 5.08-13.992 10.532a7.344 7.344 0 0 0 1.1 3.838c2.124-1.649 7.103-2.808 12.892-2.808z" transform="translate(-321.608 -179.038)" style="fill:#bce2f3"/>
                            <path data-name="패스 7524" d="M336.376 202.352c5.781 0 10.745 1.15 12.864 2.787a7.324 7.324 0 0 0 1.108-3.809c0-5.415-6.263-10.457-13.971-10.457S322.4 195.92 322.4 201.33a7.258 7.258 0 0 0 1.1 3.809c2.122-1.639 7.1-2.787 12.876-2.787z" transform="translate(-321.616 -179.087)" style="fill:#c2e5f5"/>
                            <path data-name="패스 7525" d="M336.384 202.438c5.773 0 10.73 1.141 12.845 2.765a7.234 7.234 0 0 0 1.107-3.779c0-5.373-6.254-10.382-13.952-10.382s-13.953 5.014-13.953 10.382a7.162 7.162 0 0 0 1.1 3.779c2.114-1.624 7.081-2.765 12.853-2.765z" transform="translate(-321.624 -179.135)" style="fill:#c9e8f6"/>
                            <path data-name="패스 7526" d="M336.392 202.524c5.765 0 10.715 1.132 12.827 2.744a7.145 7.145 0 0 0 1.105-3.75c0-5.331-6.247-10.308-13.932-10.308s-13.933 4.981-13.933 10.308a7.078 7.078 0 0 0 1.1 3.75c2.109-1.612 7.069-2.744 12.833-2.744z" transform="translate(-321.632 -179.184)" style="fill:#d0ebf7"/>
                            <path data-name="패스 7527" d="M336.4 202.611c5.757 0 10.7 1.123 12.808 2.723a7.052 7.052 0 0 0 1.1-3.721c0-5.29-6.237-10.233-13.912-10.233s-13.915 4.948-13.915 10.233a6.988 6.988 0 0 0 1.094 3.721c2.115-1.6 7.069-2.723 12.825-2.723z" transform="translate(-321.64 -179.233)" style="fill:#d7eef8"/>
                            <path data-name="패스 7528" d="M336.409 202.7c5.749 0 10.685 1.114 12.79 2.7a6.971 6.971 0 0 0 1.1-3.691c0-5.249-6.229-10.158-13.892-10.158-7.679 0-13.895 4.915-13.895 10.158a6.9 6.9 0 0 0 1.092 3.691c2.11-1.588 7.057-2.7 12.805-2.7z" transform="translate(-321.648 -179.282)" style="fill:#def1f9"/>
                            <path data-name="패스 7529" d="M336.416 202.783c5.742 0 10.67 1.106 12.772 2.68a6.887 6.887 0 0 0 1.1-3.662c0-5.207-6.22-10.084-13.872-10.084-7.669 0-13.875 4.882-13.875 10.084a6.812 6.812 0 0 0 1.09 3.662c2.105-1.574 7.045-2.68 12.785-2.68z" transform="translate(-321.655 -179.331)" style="fill:#e5f4fb"/>
                            <path data-name="패스 7530" d="M336.425 202.87c5.734 0 10.654 1.1 12.754 2.659a6.794 6.794 0 0 0 1.1-3.632c0-5.166-6.212-10.009-13.853-10.009-7.658 0-13.856 4.848-13.856 10.009a6.717 6.717 0 0 0 1.089 3.632c2.1-1.563 7.034-2.659 12.766-2.659z" transform="translate(-321.664 -179.379)" style="fill:#edf7fc"/>
                            <path data-name="패스 7531" d="M336.433 202.956c5.726 0 10.64 1.088 12.736 2.637a6.711 6.711 0 0 0 1.1-3.6c0-5.124-6.2-9.934-13.833-9.934-7.647 0-13.836 4.816-13.836 9.934a6.632 6.632 0 0 0 1.087 3.6c2.095-1.549 7.023-2.637 12.746-2.637z" transform="translate(-321.672 -179.428)" style="fill:#f4fafd"/>
                            <path data-name="패스 7532" d="M336.44 203.042c5.719 0 10.624 1.079 12.718 2.616a6.624 6.624 0 0 0 1.1-3.573c0-5.083-6.194-9.86-13.813-9.86-7.637 0-13.816 4.782-13.816 9.86a6.55 6.55 0 0 0 1.084 3.573c2.087-1.537 7.013-2.616 12.727-2.616z" transform="translate(-321.679 -179.477)" style="fill:#fff"/>
                        </g>
                    </g>
                </g>
            </g>
            <path data-name="패스 7534" d="M336.57 200.3a39.012 39.012 0 0 0-13.487 2.278 14.762 14.762 0 0 0 26.97 0 38.913 38.913 0 0 0-13.483-2.278z" transform="translate(53.425 -166.578)" style="fill:#0072c0"/>
        </g>
    </g>
</svg>
