<svg xmlns="http://www.w3.org/2000/svg" width="60" height="60" viewBox="0 0 60 60">
    <defs>
        <filter id="tmei6xdyya" x="5.352" y="7" width="49.509" height="50.173" filterUnits="userSpaceOnUse">
            <feOffset dy="3"/>
            <feGaussianBlur stdDeviation="3" result="blur"/>
            <feFlood flood-opacity=".161"/>
            <feComposite operator="in" in2="blur"/>
            <feComposite in="SourceGraphic"/>
        </filter>
    </defs>
    <g transform="translate(14 16.221)">
        <g style="filter:url(#tmei6xdyya)">
            <rect data-name="사각형 17739" width="25" height="26" rx="4" transform="rotate(17 14.748 24.987)" style="fill:#abaaaa"/>
        </g>
        <rect data-name="사각형 11098" width="26" height="30" rx="4" transform="translate(0 -.075)" style="fill:#525266"/>
        <rect data-name="사각형 11100" width="16" height="3" rx="1.5" transform="translate(5 4.924)" style="fill:#ced3d8;opacity:.2"/>
        <rect data-name="사각형 17701" width="8" height="3" rx="1.5" transform="translate(5 10.926)" style="fill:#ced3d8;opacity:.2"/>
        <g data-name="그룹 14212" transform="translate(3.5 8)">
            <rect data-name="사각형 17702" width="9" height="2.5" rx="1.25" transform="rotate(45 -5.88 33.125)" style="fill:#8665ef"/>
            <g data-name="패스 13767" style="fill:#525266">
                <path d="M6 11c-2.757 0-5-2.243-5-5s2.243-5 5-5 5 2.243 5 5-2.243 5-5 5z" style="stroke:none" transform="translate(13 6.926)"/>
                <path d="M6 2C3.794 2 2 3.794 2 6s1.794 4 4 4 4-1.794 4-4-1.794-4-4-4m0-2a6 6 0 1 1 0 12A6 6 0 0 1 6 0z" style="fill:#aeb1ff;stroke:none" transform="translate(13 6.926)"/>
            </g>
        </g>
    </g>
</svg>
