<svg xmlns="http://www.w3.org/2000/svg" width="27" height="27" viewBox="0 0 27 27">
    <path data-name="사각형 17231" style="fill:none" d="M0 0h27v27H0z"/>
    <g data-name="빼기 362">
        <g data-name="그룹 13975">
            <path data-name="패스 12590" d="M12 16.939c-4.057-.337-7-2-7-3.939 0-2.207 3.813-4 8.5-4s8.5 1.8 8.5 4c0 1.568-1.962 3-5 3.646v-1.482c2.16-.445 3.5-1.273 3.5-2.164 0-1.379-3.141-2.5-7-2.5s-7 1.119-7 2.5c0 1.168 2.313 2.2 5.5 2.439z" style="fill:#fff"/>
        </g>
        <g data-name="그룹 13976">
            <path data-name="패스 12591" d="M12 16.939c-4.056-.337-7-2-7-3.939 0-2.207 3.813-4 8.5-4s8.5 1.8 8.5 4c0 1.568-1.962 3-5 3.646v-1.482c2.16-.445 3.5-1.273 3.5-2.164 0-1.379-3.14-2.5-7-2.5s-7 1.119-7 2.5c0 1.168 2.313 2.195 5.5 2.439z" style="fill:#fff"/>
        </g>
    </g>
    <g data-name="패스 12392">
        <path data-name="패스 12592" d="M10.214 18.658a.75.75 0 0 1-.469-1.335l1.689-1.355-1.6-1.513a.749.749 0 1 1 1.032-1.087l2.218 2.1a.749.749 0 0 1-.046 1.129l-2.359 1.893a.754.754 0 0 1-.465.168z" style="fill:#fff" transform="translate(0 .038)"/>
    </g>
    <g data-name="사각형 16672">
        <g data-name="그룹 13977">
            <path data-name="패스 12593" d="m16.558 15.265.536-.124a.725.725 0 0 1 .87.543.725.725 0 0 1-.544.87l-.535.124a.725.725 0 0 1-.87-.544.724.724 0 0 1 .543-.869z" style="fill:#fff"/>
        </g>
        <g data-name="그룹 13978">
            <path data-name="패스 12594" d="M16.724 16.7a.725.725 0 0 1-.618-1.109.718.718 0 0 1 .455-.322l.534-.124a.725.725 0 0 1 .327 1.413l-.536.124a.758.758 0 0 1-.162.018zm.6-.58z" style="fill:#fff"/>
        </g>
    </g>
</svg>
