<svg xmlns="http://www.w3.org/2000/svg" xmlns:xlink="http://www.w3.org/1999/xlink" width="18" height="18" viewBox="0 0 18 18">
  <defs>
    <clipPath id="clip-path">
      <rect id="사각형_11737" data-name="사각형 11737" width="18" height="18" fill="#be3737"/>
    </clipPath>
  </defs>
  <g id="btn_reload" transform="translate(-66.5 -242)">
    <rect id="사각형_2470" data-name="사각형 2470" width="18" height="18" transform="translate(66.5 242)" fill="none"/>
    <g id="마스크_그룹_168" data-name="마스크 그룹 168" transform="translate(66.5 242)" clip-path="url(#clip-path)">
      <path id="패스_1825" data-name="패스 1825" d="M0,0,2.126,2.126,0,4.252" transform="translate(16.552 12.409) rotate(115)" fill="none" stroke="#111" stroke-linecap="round" stroke-linejoin="round" stroke-width="1.5"/>
      <g id="빼기_367" data-name="빼기 367" transform="translate(-15148 12370.5)" fill="none" stroke-linecap="round">
        <path d="M15156-12354.015h0a7.514,7.514,0,0,1-7-7.484,7.51,7.51,0,0,1,7.5-7.5,7.51,7.51,0,0,1,7.5,7.5,7.481,7.481,0,0,1-1.155,4h-1.874a5.988,5.988,0,0,0,1.53-4,6.009,6.009,0,0,0-6-6,6.008,6.008,0,0,0-6,6,6.032,6.032,0,0,0,5.5,5.979v1.5Z" stroke="none"/>
        <path d="M 15156.001953125 -12354.0146484375 L 15156.0009765625 -12354.0146484375 C 15152.07421875 -12354.2724609375 15148.9990234375 -12357.5595703125 15148.9990234375 -12361.4990234375 C 15148.9990234375 -12365.634765625 15152.3642578125 -12369 15156.5 -12369 C 15160.6357421875 -12369 15164.0009765625 -12365.634765625 15164.0009765625 -12361.4990234375 C 15164.0009765625 -12360.0791015625 15163.6015625 -12358.6962890625 15162.845703125 -12357.4990234375 L 15160.9716796875 -12357.4990234375 C 15161.9580078125 -12358.6005859375 15162.501953125 -12360.0205078125 15162.501953125 -12361.4990234375 C 15162.501953125 -12364.80859375 15159.8095703125 -12367.5009765625 15156.5 -12367.5009765625 C 15153.19140625 -12367.5009765625 15150.4990234375 -12364.80859375 15150.4990234375 -12361.4990234375 C 15150.4990234375 -12358.4013671875 15152.916015625 -12355.775390625 15156.001953125 -12355.5205078125 L 15156.001953125 -12354.0146484375 Z" stroke="none" fill="#111"/>
      </g>
      <path id="패스_12585" data-name="패스 12585" d="M.75,0h.5a.75.75,0,0,1,0,1.5H.75A.75.75,0,0,1,.75,0Z" transform="matrix(0.998, 0.07, -0.07, 0.998, 7.055, 14.912)" fill="#111"/>
    </g>
  </g>
</svg>
