<svg xmlns="http://www.w3.org/2000/svg" width="15" height="15" viewBox="0 0 15 15">
    <path data-name="사각형 14209" style="fill:none" d="M0 0h15v15H0z"/>
    <g data-name="↳Color" style="stroke-miterlimit:10;fill:none">
        <path d="m6.5 11.7-.942-.842C2.21 7.881 0 5.917 0 3.507A3.507 3.507 0 0 1 3.575 0 4.147 4.147 0 0 1 6.5 1.55 4.147 4.147 0 0 1 9.425 0 3.507 3.507 0 0 1 13 3.507c0 2.41-2.21 4.374-5.558 7.358z" style="stroke:none" transform="translate(1 1.75)"/>
        <path d="M6.504 9.692C9.514 7.01 11.5 5.232 11.5 3.507c0-1.144-.892-2.007-2.075-2.007-.544 0-1.247.406-1.792 1.033L6.5 3.838 5.367 2.533C4.822 1.906 4.12 1.5 3.575 1.5 2.392 1.5 1.5 2.363 1.5 3.507c0 1.727 1.989 3.504 5.004 6.185M6.5 11.7l-.943-.842C2.21 7.881 0 5.917 0 3.507 0 1.543 1.573 0 3.575 0 4.706 0 5.792.734 6.5 1.55 7.208.734 8.294 0 9.425 0 11.427 0 13 1.543 13 3.507c0 2.41-2.21 4.374-5.557 7.358L6.5 11.7z" style="fill:#111;stroke:none" transform="translate(1 1.75)"/>
    </g>
</svg>
