<svg xmlns="http://www.w3.org/2000/svg" width="60" height="60" viewBox="0 0 60 60">
    <defs>
        <style>
            .cls-1,.cls-2{fill:#fff}.cls-9{stroke:#2d3239;stroke-linecap:round}.cls-4{fill:#2d3239}.cls-12,.cls-9{fill:none}.cls-9{stroke-width:1.5px}.cls-10,.cls-11{stroke:none}.cls-11{fill:#2d3239}
        </style>
    </defs>
    <g id="ic_autocashback" transform="translate(-281 -349.557)">
        <g id="그룹_10603" data-name="그룹 10603" transform="translate(256 158.557)">
            <g id="그룹_9717" data-name="그룹 9717" transform="translate(-236 -68)">
                <g id="패스_10993" data-name="패스 10993" class="cls-2">
                    <path class="cls-10" d="M30.667 11H1.333L2.96 5.423c.416-1.434 1.024-2.53 1.808-3.257C5.613 1.38 6.67 1 8 1h16c1.292 0 2.384.412 3.244 1.226.794.75 1.398 1.825 1.796 3.196L30.667 11z" transform="translate(273 270)"/>
                    <path class="cls-11" d="M8 2c-1.4 0-3.127.42-4.08 3.703L2.667 10h26.666L28.08 5.7c-.342-1.18-.869-2.13-1.522-2.748C25.88 2.312 25.043 2 24 2H8m0-2h16c3.314 0 5.17 2.283 6 5.143L32 12H0l2-6.857C2.881 2.107 4.686 0 8 0z" transform="translate(273 270)"/>
                </g>
                <g id="패스_10994" data-name="패스 10994" class="cls-2">
                    <path class="cls-10" d="M41 21H3c-1.103 0-2-.897-2-2v-9c0-4.963 4.037-9 9-9h24c4.963 0 9 4.037 9 9v9c0 1.103-.897 2-2 2z" transform="translate(267 280)"/>
                    <path class="cls-11" d="M10 2c-4.411 0-8 3.589-8 8v9c0 .551.449 1 1 1h38c.551 0 1-.449 1-1v-9c0-4.411-3.589-8-8-8H10m0-2h24c5.523 0 10 4.477 10 10v9a3 3 0 0 1-3 3H3a3 3 0 0 1-3-3v-9C0 4.477 4.477 0 10 0z" transform="translate(267 280)"/>
                </g>
                <g id="사각형_5282" data-name="사각형 5282" style="stroke-width:2px;stroke-linejoin:round;stroke-linecap:round;stroke:#2d3239;fill:#fff">
                    <path class="cls-10" d="M0 0h6v6a3 3 0 0 1-3 3 3 3 0 0 1-3-3V0z" transform="translate(273 300)"/>
                    <path class="cls-12" d="M1.02 1h3.96a.02.02 0 0 1 .02.02V6a2 2 0 0 1-2 2h0a2 2 0 0 1-2-2V1.02A.02.02 0 0 1 1.02 1z" transform="translate(273 300)"/>
                </g>
                <rect id="사각형_5280" data-name="사각형 5280" class="cls-4" width="5" height="2" rx="1" transform="translate(267 277.5)"/>
                <rect id="사각형_12006" data-name="사각형 12006" class="cls-4" width="5" height="2" rx="1" transform="translate(306 277.5)"/>
                <rect id="사각형_12005" data-name="사각형 12005" class="cls-4" width="29" height="2" rx="1" transform="translate(268 295)"/>
                <g id="그룹_9716" data-name="그룹 9716" transform="translate(0 .5)">
                    <rect id="사각형_11993" data-name="사각형 11993" class="cls-4" width="6" height="2" rx="1" transform="translate(272 287)"/>
                    <rect id="사각형_11994" data-name="사각형 11994" class="cls-4" width="12" height="2" rx="1" transform="translate(283 287)"/>
                    <g id="사각형_11995" data-name="사각형 11995" transform="translate(300 287)" style="stroke:#2a2d33;stroke-linejoin:round;stroke-linecap:round;fill:#fff">
                        <rect class="cls-10" width="4" height="2" rx="1"/>
                        <rect class="cls-12" x=".5" y=".5" width="3" height="1" rx=".5"/>
                    </g>
                </g>
                <path id="사각형_11997" data-name="사각형 11997" class="cls-4" d="M0 0h1a1 1 0 0 1 1 1 1 1 0 0 1-1 1H0V0z" transform="translate(295 300)"/>
            </g>
            <g id="그룹_10597" data-name="그룹 10597" transform="translate(-199 -870.042)">
                <path id="다각형_87" data-name="다각형 87" class="cls-1" d="M4.473 2.806a2.5 2.5 0 0 1 4.053 0l1.611 2.23A2.5 2.5 0 0 1 8.111 9H4.889a2.5 2.5 0 0 1-2.026-3.964z" transform="rotate(180 139.002 548.271)"/>
                <g id="다각형_8" data-name="다각형 8" class="cls-2">
                    <path class="cls-10" d="M8.11 8H4.89a1.475 1.475 0 0 1-1.336-.817 1.475 1.475 0 0 1 .12-1.561l1.61-2.23A1.484 1.484 0 0 1 6.5 2.77c.487 0 .93.227 1.216.622l1.61 2.23c.337.466.382 1.05.12 1.56-.261.513-.76.818-1.335.818z" transform="rotate(180 139.002 549.242)"/>
                    <path class="cls-11" d="M6.5 3.77a.483.483 0 0 0-.405.207l-1.611 2.23a.475.475 0 0 0-.04.52A.475.475 0 0 0 4.89 7h3.222a.475.475 0 0 0 .445-.272.475.475 0 0 0-.04-.52l-1.61-2.23A.483.483 0 0 0 6.5 3.77m0-2c.764 0 1.528.345 2.027 1.036l1.61 2.23C11.331 6.69 10.15 9 8.111 9H4.889C2.85 9 1.67 6.69 2.863 5.036l1.61-2.23A2.484 2.484 0 0 1 6.5 1.77z" transform="rotate(180 139.002 549.242)"/>
                </g>
                <path id="사각형_12394" data-name="사각형 12394" class="cls-1" transform="translate(268.176 1094.542)" d="M0 0h6v3H0z"/>
                <path id="사각형_12126" data-name="사각형 12126" d="M8.356 0a8.356 8.356 0 0 1 8.356 8.356v2.175a5.57 5.57 0 0 1-5.57 5.57H5.57A5.57 5.57 0 0 1 0 10.531V8.356A8.356 8.356 0 0 1 8.356 0z" transform="translate(265.004 1094.94)" style="fill:#7dedf3"/>
                <path id="사각형_12127" data-name="사각형 12127" class="cls-1" d="M7.821 0h.839a7.821 7.821 0 0 1 7.82 7.821 5.865 5.865 0 0 1-5.865 5.865h-4.75A5.865 5.865 0 0 1 0 7.821 7.821 7.821 0 0 1 7.821 0z" transform="translate(260 1093.985)"/>
                <g id="사각형_5285" data-name="사각형 5285" style="fill:none;stroke-width:2px;stroke:#2d3239">
                    <path class="cls-10" d="M9.5 0A9.5 9.5 0 0 1 19 9.5v2.071A5.429 5.429 0 0 1 13.571 17H5.429A5.429 5.429 0 0 1 0 11.571V9.5A9.5 9.5 0 0 1 9.5 0z" transform="translate(262 1093.485)"/>
                    <path class="cls-12" d="M9.5 1A8.5 8.5 0 0 1 18 9.5v1.923A4.577 4.577 0 0 1 13.423 16H5.577A4.577 4.577 0 0 1 1 11.423V9.5A8.5 8.5 0 0 1 9.5 1z" transform="translate(262 1093.485)"/>
                </g>
            </g>
        </g>
        <g id="그룹_10604" data-name="그룹 10604" transform="translate(324.424 389.053)">
            <path id="패스_2252" data-name="패스 2252" d="m3649.637 5413.028 1.5 4.5 1.5-4.5 1.5 4.5 1.5-4.5" transform="translate(-3648.36 -5413.581)" style="stroke-width:1.5px;fill:none;stroke-linejoin:round;stroke-linecap:round;stroke:#2d3239"/>
            <path id="선_166" data-name="선 166" class="cls-9" transform="translate(7.276 1.447)" d="M0 0h1.2"/>
            <path id="선_242" data-name="선 242" class="cls-9" transform="translate(.076 1.447)" d="M0 0h1.2"/>
        </g>
    </g>
</svg>
