<svg xmlns="http://www.w3.org/2000/svg" width="44" height="44" viewBox="0 0 44 44">
    <g data-name="패스 12373">
        <g data-name="패스 12382" style="fill:#7dedf3">
            <path d="m1070.48 297.341-9.513-4.323.514-4.01 9.495 6.043-.497 2.29z" style="stroke:none" transform="rotate(41 904.297 -1229.847)"/>
            <path d="m1069.943 296.274.19-.871-8.058-5.128-.294 2.29 8.162 3.709m.655 1.887a.6.6 0 0 1-.25-.055l-9.795-4.452a.603.603 0 0 1-.353-.55l.557-4.348c0-.475.524-.764.926-.508l9.795 6.233c.173.11.279.302.279.508l-.557 2.569a.603.603 0 0 1-.602.603z" style="fill:#7dedf3;stroke:none" transform="rotate(41 904.297 -1229.847)"/>
        </g>
    </g>
    <g data-name="패스 12373">
        <g data-name="패스 12382" style="fill:#7dedf3">
            <path d="M1.24 9.115.765 5.133l8.02-3.6L8.63 4.44 1.24 9.115z" style="stroke:none" transform="rotate(-137.99 13.211 9.073)"/>
            <path d="m7.97 2.721-6.395 2.87.268 2.254 6.059-3.833.069-1.29M8.99.668c.295 0 .56.256.56.603L9.377 4.51a.615.615 0 0 1-.26.508L1.381 9.913c-.374.256-.862-.033-.862-.508L0 5.056c0-.237.128-.451.329-.549L8.757.724A.527.527 0 0 1 8.99.67z" style="fill:#7dedf3;stroke:none" transform="rotate(-137.99 13.211 9.073)"/>
        </g>
    </g>
    <g data-name="패스 12373">
        <g data-name="패스 12382" style="fill:none">
            <path d="m1061.036 294.481 9.8-6.233a.6.6 0 0 1 .926.508v6.514a.6.6 0 0 1-.353.549l-9.8 4.452a.6.6 0 0 1-.852-.548v-4.734a.6.6 0 0 1 .279-.508z" style="stroke:none" transform="rotate(41 915.114 -1246.508)"/>
            <path d="m1062.257 298.329 8-3.636v-4.302l-8 5.091v2.847m-.898 1.997a.603.603 0 0 1-.602-.603v-4.734c0-.206.106-.398.279-.508l9.795-6.233a.602.602 0 0 1 .926.508v6.514a.603.603 0 0 1-.353.549l-9.795 4.452a.6.6 0 0 1-.25.055z" style="fill:#2d3239;stroke:none" transform="rotate(41 915.114 -1246.508)"/>
        </g>
        <g data-name="패스 12383" style="fill:none">
            <path d="m1061.757 299.105 8.647-3.93a.6.6 0 0 0 .353-.548v-4.049a.6.6 0 0 0-.926-.509l-7.8 4.961a.6.6 0 0 0-.279.508v3.567m-1 .618v-4.734a.6.6 0 0 1 .279-.508l9.8-6.233a.6.6 0 0 1 .926.508v6.514a.6.6 0 0 1-.353.549l-9.8 4.452a.6.6 0 0 1-.847-.548z" style="stroke:none" transform="rotate(41 915.114 -1246.508)"/>
            <path d="M1061.359 300.326a.603.603 0 0 1-.602-.603v-4.734c0-.206.106-.398.279-.508l9.795-6.233a.602.602 0 0 1 .926.508v6.514a.603.603 0 0 1-.353.549l-9.795 4.452a.6.6 0 0 1-.25.055zm8.794-10.352c-.108 0-.219.03-.322.095l-7.795 4.961a.603.603 0 0 0-.279.508v3.567l8.647-3.93a.602.602 0 0 0 .353-.548v-4.049a.603.603 0 0 0-.604-.604z" style="fill:#2d3239;stroke:none" transform="rotate(41 915.114 -1246.508)"/>
        </g>
    </g>
    <g data-name="패스 12373">
        <g data-name="패스 12382" style="fill:none">
            <path d="m1071.478 294.481-9.8-6.233a.6.6 0 0 0-.926.508v6.514a.6.6 0 0 0 .353.549l9.8 4.452a.6.6 0 0 0 .852-.548v-4.734a.6.6 0 0 0-.279-.508z" style="stroke:none" transform="rotate(41 908.116 -1227.786)"/>
            <path d="M1070.257 298.329v-2.847l-8-5.09v4.3l8 3.637m.898 1.997a.6.6 0 0 1-.25-.055l-9.795-4.452a.603.603 0 0 1-.353-.549v-6.514c0-.475.524-.764.926-.508l9.795 6.233c.173.11.279.302.279.508v4.734a.603.603 0 0 1-.602.603z" style="fill:#2d3239;stroke:none" transform="rotate(41 908.116 -1227.786)"/>
        </g>
        <g data-name="패스 12383" style="fill:none">
            <path d="m1070.757 299.105-8.647-3.93a.6.6 0 0 1-.353-.548v-4.049a.6.6 0 0 1 .926-.509l7.8 4.961a.6.6 0 0 1 .279.508v3.567m1 .618v-4.734a.6.6 0 0 0-.279-.508l-9.8-6.233a.6.6 0 0 0-.926.508v6.514a.6.6 0 0 0 .353.549l9.8 4.452a.6.6 0 0 0 .847-.548z" style="stroke:none" transform="rotate(41 908.116 -1227.786)"/>
            <path d="M1071.155 300.326a.6.6 0 0 1-.25-.055l-9.795-4.452a.603.603 0 0 1-.353-.549v-6.514c0-.475.524-.764.926-.508l9.795 6.233c.173.11.279.302.279.508v4.734a.603.603 0 0 1-.602.603zm-8.794-10.352a.603.603 0 0 0-.604.604v4.049c0 .236.138.45.353.548l8.647 3.93v-3.567a.603.603 0 0 0-.28-.508l-7.794-4.961a.598.598 0 0 0-.322-.095z" style="fill:#2d3239;stroke:none" transform="rotate(41 908.116 -1227.786)"/>
        </g>
    </g>
    <path data-name="합치기 222" d="m-2104 29.1-8 1.4v-4.2l5.307-1.858a7.345 7.345 0 0 1-.058-.942v-.04l-1-18.979c.011-2.059 1.964-5.118 3.838-5.118s3.651 3.059 3.662 5.118l-1 18.979v.04a7.345 7.345 0 0 1-.058.942L-2096 26.3v4.2z" transform="rotate(41 -1047.059 2862.809)" style="stroke:#2d3239;stroke-linecap:round;stroke-linejoin:round;stroke-width:1.5px;fill:#fff"/>
</svg>
