<svg xmlns="http://www.w3.org/2000/svg" width="44" height="44" viewBox="0 0 44 44">
  <g id="ic-affiliated" transform="translate(-252 -1403)">
    <rect id="사각형_11493" data-name="사각형 11493" width="44" height="44" transform="translate(252 1403)" fill="#fff" opacity="0"/>
    <g id="그룹_11778" data-name="그룹 11778" transform="translate(0 1)">
      <g id="사각형_11970" data-name="사각형 11970" transform="translate(261 1410.5)" fill="#fff" stroke="#2d3239" stroke-width="1.5">
        <rect width="20" height="27" rx="5" stroke="none"/>
        <rect x="0.75" y="0.75" width="18.5" height="25.5" rx="4.25" fill="none"/>
      </g>
      <g id="사각형_12122" data-name="사각형 12122" transform="translate(268.5 1415)" fill="#fff" stroke="#2d3239" stroke-width="1.5">
        <rect width="5" height="5" rx="1.5" stroke="none"/>
        <rect x="0.75" y="0.75" width="3.5" height="3.5" rx="0.75" fill="none"/>
      </g>
      <g id="그룹_9780" data-name="그룹 9780" transform="translate(-3.3 148.5)">
        <g id="타원_2295" data-name="타원 2295" transform="translate(276 1272)" fill="#fff" stroke="#2d3239" stroke-width="1.5">
          <circle cx="8" cy="8" r="8" stroke="none"/>
          <circle cx="8" cy="8" r="7.25" fill="none"/>
        </g>
        <path id="패스_10995" data-name="패스 10995" d="M7,0A7,7,0,1,1,0,7,7,7,0,0,1,7,0Z" transform="translate(278.701 1274)" fill="#7dedf3"/>
        <g id="타원_1441" data-name="타원 1441" transform="translate(276 1272)" fill="none" stroke="#2d3239" stroke-width="1.5">
          <circle cx="8" cy="8" r="8" stroke="none"/>
          <circle cx="8" cy="8" r="7.25" fill="none"/>
        </g>
        <g id="그룹_9779" data-name="그룹 9779" transform="translate(279.51 1276.973)">
          <path id="패스_2252" data-name="패스 2252" d="M3649.636,5413.028l1.75,5,1.75-5,1.75,5,1.75-5" transform="translate(-3648.646 -5412)" fill="none" stroke="#2d3239" stroke-linecap="round" stroke-linejoin="round" stroke-width="1.5"/>
          <line id="선_11" data-name="선 11" x2="1.5" transform="translate(-0.01 3.027)" fill="none" stroke="#2d3239" stroke-linecap="round" stroke-width="1.5"/>
          <line id="선_166" data-name="선 166" x2="1.5" transform="translate(7.49 3.027)" fill="none" stroke="#2d3239" stroke-linecap="round" stroke-width="1.5"/>
        </g>
      </g>
    </g>
  </g>
</svg>
