<svg xmlns="http://www.w3.org/2000/svg" width="44" height="44" viewBox="0 0 44 44">
    <g data-name="그룹 11783" transform="translate(-253 -1398.5)">
        <rect data-name="사각형 14078" width="28" height="21" rx="5" transform="translate(262 1411.5)" style="fill:#7dedf3"/>
        <rect data-name="사각형 14079" width="24" height="17" rx="3" transform="translate(262 1411.5)" style="fill:#fff"/>
        <g data-name="사각형 14074" transform="translate(261 1410.5)" style="stroke:#2d3239;stroke-width:1.5px;fill:none">
            <rect width="28" height="21" rx="5" style="stroke:none"/>
            <rect x=".75" y=".75" width="26.5" height="19.5" rx="4.25" style="fill:none"/>
        </g>
        <g data-name="그룹 7338">
            <path data-name="패스 6871" d="M426.047 283.759a2.011 2.011 0 0 0-.144-.486 2.4 2.4 0 0 0-.965-1.118 2.171 2.171 0 0 0-2.237.013 1.982 1.982 0 0 0-.738.789 2.5 2.5 0 0 0-.139.346 2.423 2.423 0 0 0 .152 1.887.959.959 0 0 0 .453.394.658.658 0 0 0 .585-.045.621.621 0 0 0 .219-.655 1.7 1.7 0 0 1 .022-.913.709.709 0 0 1 .161-.26.69.69 0 0 1 .156-.107.652.652 0 0 1 .386-.062.743.743 0 0 1 .518.423 1.715 1.715 0 0 1 .14.677 10.162 10.162 0 0 1-.451 3.026c-.025.1-.053.2-.081.3-.022.077-.061.175-.013.249a.2.2 0 0 0 .09.069c.15.06.272-.031.373-.133a5.386 5.386 0 0 0 1.23-2.155 6.761 6.761 0 0 0 .237-.9 3.965 3.965 0 0 0 .046-1.339" transform="translate(-149.15 1138.279)" style="fill:#00857e"/>
            <path data-name="패스 6872" d="M420.831 271.4a.256.256 0 0 0-.277-.246 1.352 1.352 0 0 0-.416.132 16.757 16.757 0 0 1-8.272.782c-.469-.067-.944-.162-1.416-.236-.295-.046-.585-.112-.884-.136a1.055 1.055 0 0 0-.773.15.819.819 0 0 0-.1.969 2.195 2.195 0 0 0 .842.816 2.021 2.021 0 0 0 1.1.376q1.57-.1 3.132-.3a20.854 20.854 0 0 0 5.3-1.139 6.565 6.565 0 0 0 1.549-.871c.086-.064.207-.169.207-.293" transform="translate(-139.707 1145.957)" style="fill:#00857e"/>
            <path data-name="패스 6873" d="M425.656 266.175a1.025 1.025 0 0 0 2.05 0 .578.578 0 0 0-.056-.245c-.088-.186-.186-.277-.177-.5.013-.3-.373-.306-.581-.306a1.512 1.512 0 0 0-.672.135 1.042 1.042 0 0 0-.4.361 1.023 1.023 0 0 0-.162.53.185.185 0 0 0 0 .025" transform="translate(-151.99 1150.293)" style="fill:#e4003f"/>
        </g>
    </g>
</svg>
