<svg xmlns="http://www.w3.org/2000/svg" width="36" height="36" viewBox="0 0 36 36">
    <defs>
        <style>
            .cls-1,.cls-6{fill:none}.cls-3{fill:#2d3239}.cls-4{fill:#43444e;stroke:#2d3239}.cls-6{stroke:#2d3239;stroke-width:1.5px}.cls-7{stroke:none}
        </style>
    </defs>
    <g id="ic_benefit" transform="translate(-26.33 -750.768)">
        <path id="사각형_7870" data-name="사각형 7870" class="cls-1" transform="translate(26.33 750.768)" d="M0 0h36v36H0z"/>
        <g id="빼기_84" data-name="빼기 84" style="fill:none">
            <path class="cls-7" d="M15915.332-7266.234h-19a4 4 0 0 1-4-4v-16a4 4 0 0 1 4-4h19a4 4 0 0 1 4 4v3h-1.5v-3.5a2 2 0 0 0-2-2h-20a2 2 0 0 0-2 2v17a2 2 0 0 0 2 2h20a2 2 0 0 0 2-2v-4.5h1.5v4a4 4 0 0 1-4 4z" transform="translate(-15862 8048)"/>
            <path d="M15915.332-7266.234h-19c-2.207 0-4-1.794-4-4v-16a4.004 4.004 0 0 1 4-4h19a4.004 4.004 0 0 1 4 4v3h-1.503v-3.5a2 2 0 0 0-1.998-1.997h-20a2.002 2.002 0 0 0-2 1.998v17.003c0 1.102.897 1.998 2 1.998h20a2 2 0 0 0 1.998-1.998v-4.502h1.502v3.999c0 2.205-1.794 4-3.999 4z" style="fill:#2d3239;stroke:none" transform="translate(-15862 8048)"/>
        </g>
        <path id="사각형_7262" data-name="사각형 7262" class="cls-3" transform="translate(30.331 763.768)" d="M0 0h26v1.5H0z"/>
        <g id="사각형_7082" data-name="사각형 7082" class="cls-4" transform="rotate(180 18.665 379.634)">
            <rect class="cls-7" width="1.5" height="5" rx=".75"/>
            <rect class="cls-1" x=".5" y=".5" width=".5" height="4" rx=".25"/>
        </g>
        <g id="사각형_7210" data-name="사각형 7210" class="cls-4" transform="rotate(180 25.915 379.634)">
            <rect class="cls-7" width="1.5" height="5" rx=".75"/>
            <rect class="cls-1" x=".5" y=".5" width=".5" height="4" rx=".25"/>
        </g>
        <circle id="타원_952" data-name="타원 952" cx="7" cy="7" r="7" transform="translate(47.879 768.767)" style="fill:#7dedf3"/>
        <g id="타원_953" data-name="타원 953" class="cls-6" transform="translate(45.83 767.767)">
            <circle class="cls-7" cx="7.5" cy="7.5" r="7.5"/>
            <circle class="cls-1" cx="7.5" cy="7.5" r="6.75"/>
        </g>
        <path id="다각형_58" data-name="다각형 58" class="cls-6" d="M3.91.189a.1.1 0 0 1 .181 0l1.085 2.279a.1.1 0 0 0 .078.056l2.532.314a.1.1 0 0 1 .056.173L5.983 4.73a.1.1 0 0 0-.03.092l.479 2.47a.1.1 0 0 1-.146.107L4.048 6.184a.1.1 0 0 0-.1 0L1.714 7.4a.1.1 0 0 1-.146-.107l.479-2.47a.1.1 0 0 0-.03-.092L.158 3.011a.1.1 0 0 1 .056-.173l2.532-.314a.1.1 0 0 0 .078-.056z" transform="translate(49.33 771.267)"/>
        <rect id="사각형_8472" data-name="사각형 8472" class="cls-3" width="8" height="1.5" rx=".75" transform="translate(35.33 769.768)"/>
        <rect id="사각형_8474" data-name="사각형 8474" class="cls-3" width="5" height="1.5" rx=".75" transform="translate(36.329 773.268)"/>
        <rect id="사각형_8477" data-name="사각형 8477" class="cls-3" width="1.5" height="3" rx=".75" transform="translate(55.83 763.768)"/>
    </g>
</svg>
