<svg xmlns="http://www.w3.org/2000/svg" width="18" height="18" viewBox="0 0 18 18">
    <defs>
        <style>
            .cls-5{stroke:none}
        </style>
    </defs>
    <g id="ic_bulb" transform="translate(-24 -180)">
        <g id="그룹_11361" data-name="그룹 11361" transform="translate(0 2)">
            <g id="사각형_13599" data-name="사각형 13599" transform="translate(30 194.5)" style="stroke:#111;fill:#fff">
                <rect class="cls-5" width="6" height="1.5" rx=".75"/>
                <rect x=".5" y=".5" width="5" height=".5" rx=".25" style="fill:none"/>
            </g>
        </g>
        <g id="그룹_11368" data-name="그룹 11368" transform="translate(28.25 180.25)">
            <g id="그룹_11369" data-name="그룹 11369" transform="translate(.75 .75)">
                <path id="패스_11980" data-name="패스 11980" d="M12.75 6.75a6 6 0 1 0-9.862 4.587 1.282 1.282 0 0 1 .434.985 1.714 1.714 0 0 0 1.714 1.714h3.428a1.714 1.714 0 0 0 1.714-1.714v-.084a1.206 1.206 0 0 1 .449-.914A5.978 5.978 0 0 0 12.75 6.75z" transform="translate(-.75 -.75)" style="fill:#7dedf3"/>
            </g>
        </g>
        <g id="그룹_11370" data-name="그룹 11370" transform="translate(25.25 179.25)">
            <g id="그룹_11369-2" data-name="그룹 11369">
                <g id="패스_11980-2" data-name="패스 11980" style="stroke-miterlimit:10;fill:none">
                    <path class="cls-5" d="M14.75 7.75A7 7 0 1 0 3.244 13.1a1.5 1.5 0 0 1 .506 1.15 2 2 0 0 0 2 2h4a2 2 0 0 0 2-2v-.1a1.407 1.407 0 0 1 .524-1.066A6.975 6.975 0 0 0 14.75 7.75z"/>
                    <path d="M7.75 2.25c-.369 0-.745.037-1.118.11a5.368 5.368 0 0 0-2.796 1.51 5.393 5.393 0 0 0-1.487 2.814c-.372 2.006.324 3.976 1.863 5.27.66.558 1.038 1.395 1.038 2.296a.5.5 0 0 0 .5.5h4a.5.5 0 0 0 .5-.5v-.098c0-.836.384-1.641 1.054-2.21A5.486 5.486 0 0 0 13.25 7.75c0-3.032-2.467-5.5-5.5-5.5m0-1.5a7 7 0 0 1 7 7c0 2.14-.962 4.053-2.476 5.336-.318.27-.524.648-.524 1.066v.098a2 2 0 0 1-2 2h-4a2 2 0 0 1-2-2c0-.437-.172-.867-.506-1.149C1.409 11.556.378 9.089.874 6.411c.512-2.757 2.72-4.99 5.472-5.524A7.356 7.356 0 0 1 7.751.75z" style="fill:#111;stroke:none"/>
                </g>
            </g>
        </g>
    </g>
</svg>
