<svg xmlns="http://www.w3.org/2000/svg" width="21" height="21" viewBox="0 0 21 21">
  <g id="ic_benefit_4" transform="translate(5659 -738)">
    <rect id="사각형_7186" data-name="사각형 7186" width="21" height="21" transform="translate(-5659 738)" fill="none"/>
    <g id="사각형_14385" data-name="사각형 14385" transform="translate(-5655 747)" fill="none" stroke="#888" stroke-width="1.5">
      <path d="M0,0H12a1,1,0,0,1,1,1V7a2,2,0,0,1-2,2H2A2,2,0,0,1,0,7V0A0,0,0,0,1,0,0Z" stroke="none"/>
      <path d="M1.5.75H12a.25.25,0,0,1,.25.25V7A1.25,1.25,0,0,1,11,8.25H2A1.25,1.25,0,0,1,.75,7V1.5A.75.75,0,0,1,1.5.75Z" fill="none"/>
    </g>
    <g id="그룹_12183" data-name="그룹 12183" transform="matrix(0.966, -0.259, 0.259, 0.966, -6374.467, 682.599)">
      <g id="사각형_14167" data-name="사각형 14167" transform="translate(678 245.614)" fill="none" stroke="#888" stroke-width="1.5">
        <path d="M2,0h9a2,2,0,0,1,2,2V4a0,0,0,0,1,0,0H0A0,0,0,0,1,0,4V2A2,2,0,0,1,2,0Z" stroke="none"/>
        <path d="M2,.75h9A1.25,1.25,0,0,1,12.25,2v.5a.75.75,0,0,1-.75.75H1.5A.75.75,0,0,1,.75,2.5V2A1.25,1.25,0,0,1,2,.75Z" fill="none"/>
      </g>
      <line id="선_328" data-name="선 328" x2="3" y2="2.5" transform="translate(681.204 246.5)" fill="none" stroke="#888" stroke-width="1.5"/>
      <line id="선_329" data-name="선 329" x2="3" y2="2.5" transform="translate(685.704 246.5)" fill="none" stroke="#888" stroke-width="1.5"/>
    </g>
    <g id="다각형_4" data-name="다각형 4" transform="translate(-5644.704 748.5) rotate(90)" fill="none">
      <path d="M2.122,1.608a1,1,0,0,1,1.755,0L5.193,4.016A1,1,0,0,1,4.315,5.5H1.685A1,1,0,0,1,.807,4.016Z" stroke="none"/>
      <path d="M 2.999999284744263 3.130565166473389 L 2.527780532836914 3.995604753494263 L 3.472221374511719 3.995604753494263 L 2.999999284744263 3.130565166473389 M 3 1.087042331695557 C 3.344089984893799 1.087042331695557 3.688179969787598 1.260659694671631 3.877729892730713 1.607894897460938 L 5.192550182342529 4.016454696655273 C 5.556320190429688 4.682844638824463 5.074019908905029 5.495604515075684 4.314809799194336 5.495604515075684 L 1.685190200805664 5.495604515075684 C 0.9259800910949707 5.495604515075684 0.4436798095703125 4.682844638824463 0.8074498176574707 4.016454696655273 L 2.122270107269287 1.607894897460938 C 2.311820030212402 1.260659694671631 2.655910015106201 1.087042331695557 3 1.087042331695557 Z" stroke="none" fill="#888"/>
    </g>
  </g>
</svg>
