<svg xmlns="http://www.w3.org/2000/svg" width="36" height="36" viewBox="0 0 36 36">
  <g id="ic_box" transform="translate(-24 -271)">
    <path id="패스_12318" data-name="패스 12318" d="M0,0H36V36H0Z" transform="translate(24 271)" fill="none"/>
    <g id="패스_12319" data-name="패스 12319" transform="translate(28.5 276.5)" fill="#fff">
      <path d="M 22 24.25 L 5 24.25 C 2.656539916992188 24.25 0.75 22.34346008300781 0.75 20 L 0.75 5 C 0.75 2.656539916992188 2.656539916992188 0.75 5 0.75 L 22 0.75 C 24.34346008300781 0.75 26.25 2.656539916992188 26.25 5 L 26.25 20 C 26.25 22.34346008300781 24.34346008300781 24.25 22 24.25 Z" stroke="none"/>
      <path d="M 5 1.5 C 3.070089340209961 1.5 1.5 3.070089340209961 1.5 5 L 1.5 20 C 1.5 21.92991065979004 3.070089340209961 23.5 5 23.5 L 22 23.5 C 23.92991065979004 23.5 25.5 21.92991065979004 25.5 20 L 25.5 5 C 25.5 3.070089340209961 23.92991065979004 1.5 22 1.5 L 5 1.5 M 5 0 L 22 0 C 24.76141929626465 0 27 2.238580703735352 27 5 L 27 20 C 27 22.76141929626465 24.76141929626465 25 22 25 L 5 25 C 2.238580703735352 25 0 22.76141929626465 0 20 L 0 5 C 0 2.238580703735352 2.238580703735352 0 5 0 Z" stroke="none" fill="#2d3239"/>
    </g>
    <path id="패스_12320" data-name="패스 12320" d="M0,0H6V6.5a2,2,0,0,1-2,2H2a2,2,0,0,1-2-2Z" transform="translate(41 278)" fill="#7dedf3"/>
    <g id="패스_12321" data-name="패스 12321" transform="translate(38 276.5)" fill="none">
      <path d="M0,0H8V7a3,3,0,0,1-3,3H3A3,3,0,0,1,0,7Z" stroke="none"/>
      <path d="M 1.5 1.5 L 1.5 7 C 1.5 7.827099800109863 2.172900199890137 8.5 3 8.5 L 5 8.5 C 5.827099800109863 8.5 6.5 7.827099800109863 6.5 7 L 6.5 1.5 L 1.5 1.5 M 0 0 L 8 0 L 8 7 C 8 8.65684986114502 6.65684986114502 10 5 10 L 3 10 C 1.34315013885498 10 0 8.65684986114502 0 7 L 0 0 Z" stroke="none" fill="#2d3239"/>
    </g>
    <g id="패스_12322" data-name="패스 12322" transform="translate(42 292)" fill="#fff">
      <path d="M.75,0h7.5a.75.75,0,0,1,0,1.5H.75A.75.75,0,0,1,.75,0Z" stroke="none"/>
      <path d="M 0.75 0 L 8.25 0 C 8.664210319519043 0 9 0.3357900381088257 9 0.75 C 9 1.164209961891174 8.664210319519043 1.5 8.25 1.5 L 0.75 1.5 C 0.335789680480957 1.5 0 1.164209961891174 0 0.75 C 0 0.3357900381088257 0.335789680480957 0 0.75 0 Z" stroke="none" fill="#2d3239"/>
    </g>
    <g id="패스_12323" data-name="패스 12323" transform="translate(42.5 295)" fill="#fff">
      <path d="M.75,0h5.5a.75.75,0,0,1,0,1.5H.75A.75.75,0,0,1,.75,0Z" stroke="none"/>
      <path d="M 0.75 0 L 6.25 0 C 6.664209842681885 0 7 0.3357900381088257 7 0.75 C 7 1.164209961891174 6.664209842681885 1.5 6.25 1.5 L 0.75 1.5 C 0.3357901573181152 1.5 0 1.164209961891174 0 0.75 C 0 0.3357900381088257 0.3357901573181152 0 0.75 0 Z" stroke="none" fill="#2d3239"/>
    </g>
  </g>
</svg>
