<svg xmlns="http://www.w3.org/2000/svg" width="21" height="21" viewBox="0 0 21 21">
  <g id="ic_benefit_2_on" transform="translate(5978 -737)">
    <rect id="사각형_7186" data-name="사각형 7186" width="21" height="21" transform="translate(-5978 737)" fill="none"/>
    <rect id="사각형_14373" data-name="사각형 14373" width="15" height="15" transform="translate(-5975 740)" fill="rgba(255,255,255,0)"/>
    <path id="패스_12010" data-name="패스 12010" d="M3.771,2.839H14.666l-1.6,5.753h-7.7L3.4,1.546A1.086,1.086,0,0,0,2.357.75H1.21" transform="translate(-5975.445 740.204)" fill="none" stroke="#111" stroke-linecap="round" stroke-linejoin="round" stroke-width="1.5"/>
    <path id="패스_12011" data-name="패스 12011" d="M7.756,11.619A1.161,1.161,0,1,1,6.6,10.458,1.161,1.161,0,0,1,7.756,11.619Z" transform="translate(-5975.512 741.15)" fill="none" stroke="#111" stroke-linecap="round" stroke-linejoin="round" stroke-width="1.5"/>
    <path id="패스_12012" data-name="패스 12012" d="M12.007,11.619a1.161,1.161,0,1,1-1.161-1.161A1.161,1.161,0,0,1,12.007,11.619Z" transform="translate(-5974.701 741.15)" fill="none" stroke="#111" stroke-linecap="round" stroke-linejoin="round" stroke-width="1.5"/>
    <path id="패스_12013" data-name="패스 12013" d="M5.191,7.961H4.56a1.358,1.358,0,0,0,0,2.716h9.387" transform="translate(-5975.27 740.836)" fill="none" stroke="#111" stroke-linecap="round" stroke-linejoin="round" stroke-width="1.5"/>
  </g>
</svg>
