<svg xmlns="http://www.w3.org/2000/svg" width="44" height="44" viewBox="0 0 44 44">
    <defs>
        <style>
            .cls-3,.cls-6{stroke:#2d3239}.cls-6{stroke-width:1.5px}.cls-3,.cls-6,.cls-9{fill:none}.cls-8{stroke:none}
        </style>
    </defs>
    <g id="ic_certificate" transform="translate(-252 -1081)">
        <g id="사각형_13455" data-name="사각형 13455" transform="translate(260 1091)" style="stroke-width:1.5px;stroke:#2d3239;fill:#fff">
            <rect class="cls-8" width="28" height="21" rx="5"/>
            <rect class="cls-9" x=".75" y=".75" width="26.5" height="19.5" rx="4.25"/>
        </g>
        <g id="사각형_13452" data-name="사각형 13452" class="cls-3" transform="rotate(90 -411.565 686.935)">
            <rect class="cls-8" width="1.5" height="10.371" rx=".75"/>
            <rect class="cls-9" x=".5" y=".5" width=".5" height="9.371" rx=".25"/>
        </g>
        <g id="사각형_13811" data-name="사각형 13811" class="cls-3" transform="rotate(90 -414.815 687.185)">
            <rect class="cls-8" width="1.5" height="6.371" rx=".75"/>
            <rect class="cls-9" x=".5" y=".5" width=".5" height="5.371" rx=".25"/>
        </g>
        <rect id="사각형_14130" data-name="사각형 14130" width="14" height="12" rx="4" transform="translate(276.5 1101.5)" style="fill:#fff"/>
        <rect id="사각형_14126" data-name="사각형 14126" width="13" height="11" rx="4" transform="translate(278.5 1103.5)" style="fill:#7dedf3"/>
        <g id="사각형_14127" data-name="사각형 14127" class="cls-6" transform="translate(276.5 1101.5)">
            <rect class="cls-8" width="14" height="12" rx="4"/>
            <rect class="cls-9" x=".75" y=".75" width="12.5" height="10.5" rx="3.25"/>
        </g>
        <g id="사각형_14128" data-name="사각형 14128" class="cls-6">
            <path class="cls-8" d="M4 0a4 4 0 0 1 4 4v3H0V4a4 4 0 0 1 4-4z" transform="translate(279.5 1096)"/>
            <path class="cls-9" d="M4 .75A3.25 3.25 0 0 1 7.25 4v1.676a.574.574 0 0 1-.574.574H1.324a.574.574 0 0 1-.574-.574V4A3.25 3.25 0 0 1 4 .75z" transform="translate(279.5 1096)"/>
        </g>
        <rect id="사각형_14129" data-name="사각형 14129" width="1.5" height="3" rx=".75" transform="translate(282.75 1106)" style="fill:#2d3239"/>
    </g>
</svg>
