<svg xmlns="http://www.w3.org/2000/svg" width="44" height="44" viewBox="0 0 44 44">
    <defs>
        <style>
            .cls-1,.cls-5{fill:none}.cls-5{stroke:#2d3239}.cls-7{stroke:none}
        </style>
    </defs>
    <g id="ic_creditgrade_01" transform="translate(-19.33 -746.768)">
        <path id="사각형_7870" data-name="사각형 7870" class="cls-1" transform="translate(19.33 746.768)" d="M0 0h44v44H0z"/>
        <g id="그룹_12505" data-name="그룹 12505" transform="translate(-1.511 -1.368)">
            <path id="빼기_325" data-name="빼기 325" d="M26.8 28.535a3.118 3.118 0 0 1-2.064-.774 68.713 68.713 0 0 1-1.8-1.8 189.035 189.035 0 0 0-1.789-1.815 2.433 2.433 0 0 1-.2-3.431 6.051 6.051 0 1 0-8.951-.076 2.447 2.447 0 0 1-.162 3.484c-.655.655-1.229 1.243-1.735 1.762-.749.767-1.341 1.373-1.858 1.857a3.11 3.11 0 0 1-2.063.774 2.5 2.5 0 0 1-1.857-.774 1.322 1.322 0 0 0-.131-.122 16.64 16.64 0 0 1 .642-22.762 16.444 16.444 0 0 1 23.336 0 16.64 16.64 0 0 1 .647 22.76 1.257 1.257 0 0 0-.159.144 2.5 2.5 0 0 1-1.856.773z" transform="translate(26.331 755.901)" style="fill:#fff"/>
            <path id="빼기_72" data-name="빼기 72" d="M8.013 12.635a6.587 6.587 0 0 0-5.153-1.577L0 .384A17.738 17.738 0 0 1 3.675 0a17.511 17.511 0 0 1 10.043 3.143l-5.7 9.492z" transform="rotate(19 -2231.51 512.584)" style="fill:#7dedf3"/>
            <g id="빼기_71" data-name="빼기 71" style="stroke-linecap:round;stroke-linejoin:round;fill:none">
                <path class="cls-7" d="M26.8 28.535a3.118 3.118 0 0 1-2.064-.774 68.713 68.713 0 0 1-1.8-1.8 189.035 189.035 0 0 0-1.789-1.815 2.433 2.433 0 0 1-.2-3.431 6.051 6.051 0 1 0-8.951-.076 2.447 2.447 0 0 1-.162 3.484c-.655.655-1.229 1.243-1.735 1.762-.749.767-1.341 1.373-1.858 1.857a3.11 3.11 0 0 1-2.063.774 2.5 2.5 0 0 1-1.857-.774 1.322 1.322 0 0 0-.131-.122 16.64 16.64 0 0 1 .642-22.762 16.444 16.444 0 0 1 23.336 0 16.64 16.64 0 0 1 .647 22.76 1.257 1.257 0 0 0-.159.144 2.5 2.5 0 0 1-1.856.773z" transform="translate(26.331 755.901)"/>
                <path d="M26.8 27.035c.478 0 .696-.23.767-.305a2.91 2.91 0 0 1 .202-.195 15.104 15.104 0 0 0 3.731-9.953c0-4.03-1.56-7.818-4.396-10.666A14.863 14.863 0 0 0 16.5 1.5 14.863 14.863 0 0 0 5.895 5.916 15.022 15.022 0 0 0 1.5 16.582c0 3.677 1.328 7.212 3.742 9.966.055.05.11.103.162.159.072.075.29.305.768.305.38 0 .806-.15 1.038-.37.493-.46 1.074-1.055 1.81-1.81.51-.52 1.087-1.111 1.748-1.774.355-.355.604-.712.052-1.483a7.586 7.586 0 0 1-1.87-4.993c0-4.18 3.387-7.58 7.55-7.58 4.164 0 7.551 3.4 7.551 7.58a7.573 7.573 0 0 1-1.935 5.068c-.176.258-.278.505-.289.7-.005.092-.019.336.376.73.684.684 1.278 1.292 1.802 1.829.713.73 1.277 1.308 1.757 1.758.23.217.658.368 1.038.368m0 1.5c-.765 0-1.556-.296-2.064-.774a62.209 62.209 0 0 1-1.805-1.804 199.826 199.826 0 0 0-1.788-1.815c-1.284-1.284-.818-2.575-.2-3.431a6.077 6.077 0 0 0 1.608-4.13c0-3.352-2.714-6.079-6.05-6.079-3.337 0-6.051 2.727-6.051 6.08 0 1.498.547 2.937 1.54 4.053.646.87 1.142 2.181-.161 3.484a213.41 213.41 0 0 0-1.736 1.762c-.749.767-1.34 1.373-1.858 1.857-.507.478-1.298.774-2.063.774-.513 0-1.252-.134-1.857-.774a1.322 1.322 0 0 0-.13-.122A16.601 16.601 0 0 1-.002 16.582c0-4.429 1.716-8.593 4.833-11.724A16.352 16.352 0 0 1 16.5 0c4.407 0 8.551 1.725 11.668 4.857A16.513 16.513 0 0 1 33 16.582c0 4.077-1.486 7.996-4.185 11.036a1.257 1.257 0 0 0-.159.143c-.606.64-1.344.774-1.857.774z" style="fill:#2d3239;stroke:none" transform="translate(26.331 755.901)"/>
            </g>
            <g id="사각형_8000" data-name="사각형 8000" class="cls-5">
                <path class="cls-7" d="M0 0h1.651v9.907H0z" transform="rotate(-45 934.575 344.21)"/>
                <path class="cls-1" d="M.5.5h.651v8.907H.5z" transform="rotate(-45 934.575 344.21)"/>
            </g>
            <g id="사각형_8001" data-name="사각형 8001" class="cls-5">
                <path class="cls-7" d="M0 0h1.651v9.907H0z" transform="translate(42.005 755.902)"/>
                <path class="cls-1" d="M.5.5h.651v8.907H.5z" transform="translate(42.005 755.902)"/>
            </g>
            <g id="사각형_8002" data-name="사각형 8002" class="cls-5">
                <path class="cls-7" d="M0 0h1.651v9.791H0z" transform="rotate(45 -891.059 445.562)"/>
                <path class="cls-1" d="M.5.5h.651v8.791H.5z" transform="rotate(45 -891.059 445.562)"/>
            </g>
            <g id="사각형_8003" data-name="사각형 8003" class="cls-5">
                <path class="cls-7" d="M0 0h8.256v1.651H0z" transform="translate(49.975 772.49)"/>
                <path class="cls-1" d="M.5.5h7.256v.651H.5z" transform="translate(49.975 772.49)"/>
            </g>
            <g id="사각형_8004" data-name="사각형 8004" class="cls-5">
                <path class="cls-7" d="M0 0h8.806v1.651H0z" transform="translate(26.88 772.49)"/>
                <path class="cls-1" d="M.5.5h7.806v.651H.5z" transform="translate(26.88 772.49)"/>
            </g>
            <g id="타원_921" data-name="타원 921" transform="translate(39.333 768.989)" style="stroke-width:1.5px;stroke:#2d3239;fill:none">
                <circle class="cls-7" cx="3.5" cy="3.5" r="3.5"/>
                <circle class="cls-1" cx="3.5" cy="3.5" r="2.75"/>
            </g>
            <g id="사각형_8005" data-name="사각형 8005" class="cls-5" transform="rotate(22 -1932.197 501.636)">
                <rect class="cls-7" width="1.651" height="10.855" rx=".826"/>
                <rect class="cls-1" x=".5" y=".5" width=".651" height="9.855" rx=".326"/>
            </g>
        </g>
    </g>
</svg>
