<svg xmlns="http://www.w3.org/2000/svg" width="27" height="27" viewBox="0 0 27 27">
    <g transform="translate(-135 -166)">
        <rect data-name="사각형 7186" width="27" height="27" rx="8" transform="translate(135 166)" style="fill:#f5f6f8"/>
        <path data-name="사각형 14097" transform="translate(141.35 171.5)" style="fill:transparent" d="M0 0h15v15H0z"/>
        <g data-name="합치기 365" style="stroke-linejoin:round;fill:none">
            <path d="M5.5 9.621a4.1 4.1 0 0 1-3.6-.073C-.166 8.4-.616 5.438.9 2.926A6.231 6.231 0 0 1 3.74.393 3.708 3.708 0 0 1 5.5 0a3.706 3.706 0 0 1 1.762.392 6.229 6.229 0 0 1 2.845 2.534C11.618 5.438 11.168 8.4 9.1 9.548A3.677 3.677 0 0 1 7.3 10a4.693 4.693 0 0 1-1.8-.379z" style="stroke:none" transform="translate(142.999 176.708)"/>
            <path d="M7.306 9c.48 0 .92-.11 1.311-.327.784-.434 1.118-1.158 1.26-1.688.295-1.1.066-2.391-.626-3.543-.582-.967-1.428-1.724-2.38-2.13a.997.997 0 0 1-.062-.028A2.707 2.707 0 0 0 5.483 1a2.707 2.707 0 0 0-1.29.284c-.02.01-.04.02-.061.028-.953.407-1.798 1.163-2.38 2.13-.693 1.152-.921 2.443-.627 3.543.142.53.476 1.254 1.26 1.688.391.217.832.326 1.311.326.463 0 .94-.101 1.419-.301a1 1 0 0 1 .772 0c.478.2.955.302 1.419.302m0 1A4.693 4.693 0 0 1 5.5 9.62c-1.217.51-2.522.526-3.6-.072C-.166 8.403-.616 5.438.895 2.926 1.611 1.737 2.638.862 3.74.393A3.708 3.708 0 0 1 5.5 0a3.706 3.706 0 0 1 1.761.392c1.103.47 2.13 1.345 2.845 2.534 1.512 2.512 1.061 5.477-1.005 6.622A3.677 3.677 0 0 1 7.306 10z" style="fill:#111;stroke:none" transform="translate(142.999 176.708)"/>
        </g>
        <g data-name="타원 2208" transform="translate(141.05 174.999)" style="stroke:#111;fill:none">
            <ellipse cx="1.75" cy="2" rx="1.75" ry="2" style="stroke:none"/>
            <ellipse cx="1.75" cy="2" rx="1.25" ry="1.5" style="fill:none"/>
        </g>
        <g data-name="타원 2348" transform="translate(144.75 171.999)" style="stroke:#111;fill:none">
            <ellipse cx="1.75" cy="2" rx="1.75" ry="2" style="stroke:none"/>
            <ellipse cx="1.75" cy="2" rx="1.25" ry="1.5" style="fill:none"/>
        </g>
        <g data-name="타원 2349" transform="translate(148.75 171.999)" style="stroke:#111;fill:none">
            <ellipse cx="1.75" cy="2" rx="1.75" ry="2" style="stroke:none"/>
            <ellipse cx="1.75" cy="2" rx="1.25" ry="1.5" style="fill:none"/>
        </g>
        <g data-name="타원 2347" transform="translate(152.45 174.999)" style="stroke:#111;fill:none">
            <ellipse cx="1.75" cy="2" rx="1.75" ry="2" style="stroke:none"/>
            <ellipse cx="1.75" cy="2" rx="1.25" ry="1.5" style="fill:none"/>
        </g>
        <path data-name="선 959" transform="translate(148.5 179.799)" style="stroke-linecap:round;stroke:#111;stroke-linejoin:round;fill:none" d="M0 0v4"/>
        <path data-name="선 960" transform="translate(146.5 181.854)" style="stroke-linecap:round;stroke:#111;stroke-linejoin:round;fill:none" d="M4 0H0"/>
    </g>
</svg>
