<svg xmlns="http://www.w3.org/2000/svg" width="36" height="36" viewBox="0 0 36 36">
    <defs>
        <style>
            .cls-3{fill:#2d3239}.cls-6,.cls-7{stroke:none}.cls-7{fill:#2d3239}
        </style>
    </defs>
    <g id="ic_certificate_fail" transform="translate(-42 -2053)">
        <path id="사각형_7871" data-name="사각형 7871" transform="translate(42 2053)" style="fill:none" d="M0 0h36v36H0z"/>
        <g id="빼기_162" data-name="빼기 162" style="fill:#fff">
            <path class="cls-6" d="M-4479.25-1489v-16a3.254 3.254 0 0 1 3.25-3.25h22a3.254 3.254 0 0 1 3.25 3.25v3.25-3.25a3.253 3.253 0 0 0-3.25-3.25h-22a3.254 3.254 0 0 0-3.25 3.25v16z" transform="translate(4525 3567)"/>
            <path class="cls-7" d="M-4467-1485h-9c-2.206 0-4-1.795-4-4v-16c0-2.206 1.794-4 4-4h22c2.206 0 4 1.794 4 4v4h-1.5v-4c0-1.378-1.122-2.5-2.5-2.5h-22a2.503 2.503 0 0 0-2.5 2.5v16c0 1.378 1.122 2.5 2.5 2.5h9v1.5z" transform="translate(4525 3567)"/>
        </g>
        <rect id="사각형_11630" data-name="사각형 11630" class="cls-3" width="13" height="1.5" rx=".75" transform="translate(51 2066)"/>
        <rect id="사각형_11633" data-name="사각형 11633" class="cls-3" width="7" height="1.5" rx=".75" transform="translate(52 2070.25)"/>
        <rect id="사각형_11638" data-name="사각형 11638" class="cls-3" width="1.5" height="2" rx=".75" transform="translate(73.5 2065)"/>
        <rect id="사각형_11639" data-name="사각형 11639" class="cls-3" width="2" height="1.5" rx=".75" transform="translate(57 2080.5)"/>
        <g id="그룹_11613" data-name="그룹 11613" transform="translate(3.168 1770.01)">
            <path id="패스_10987" data-name="패스 10987" d="M7.5 3.455a2.072 2.072 0 0 1 3.5 0l5.4 8.912a1.937 1.937 0 0 1-1.752 2.905H3.86a1.937 1.937 0 0 1-1.752-2.905z" transform="translate(56 295.5)" style="fill:#ffd1dc"/>
            <g id="패스_10988" data-name="패스 10988" style="fill:none">
                <path class="cls-6" d="M7.622 4.185a2.485 2.485 0 0 1 4.212 0l5.114 8.515a2.328 2.328 0 0 1-2.106 3.485H4.614A2.328 2.328 0 0 1 2.508 12.7z" transform="translate(57.557 295.806)"/>
                <path class="cls-7" d="M9.728 4.518c-.167 0-.582.043-.82.44L3.794 13.47a.714.714 0 0 0-.011.755c.162.287.473.458.831.458h10.228c.358 0 .67-.171.831-.458a.714.714 0 0 0-.01-.755l-5.115-8.514c-.237-.396-.652-.439-.82-.439m0-1.5c.82 0 1.64.39 2.106 1.167l5.114 8.514c.931 1.55-.238 3.485-2.106 3.485H4.614c-1.868 0-3.037-1.935-2.106-3.485l5.114-8.514c.467-.778 1.287-1.167 2.106-1.167z" transform="translate(57.557 295.806)"/>
            </g>
            <path id="패스_10989" data-name="패스 10989" class="cls-3" d="M.75 0a.782.782 0 0 1 .75.811v2.434a.782.782 0 0 1-.75.811.782.782 0 0 1-.75-.811V.811A.782.782 0 0 1 .75 0z" transform="translate(66.534 303.347)"/>
            <path id="패스_10990" data-name="패스 10990" class="cls-3" d="M.75 0a.782.782 0 0 1 .75.811.782.782 0 0 1-.75.811A.782.782 0 0 1 0 .811.782.782 0 0 1 .75 0z" transform="translate(66.534 308.048)"/>
        </g>
    </g>
</svg>
