<svg xmlns="http://www.w3.org/2000/svg" width="44" height="44" viewBox="0 0 44 44">
  <g id="ic-creditgrade-s" transform="translate(-2 -564)">
    <rect id="사각형_11493" data-name="사각형 11493" width="44" height="44" transform="translate(2 564)" fill="#fff" opacity="0"/>
    <g id="사각형_15775" data-name="사각형 15775" transform="translate(11.5 572)" fill="#fff" stroke="#2d3239" stroke-width="1.5">
      <rect width="21" height="25" rx="5" stroke="none"/>
      <rect x="0.75" y="0.75" width="19.5" height="23.5" rx="4.25" fill="none"/>
    </g>
    <rect id="사각형_18422" data-name="사각형 18422" width="21" height="25" rx="5" transform="translate(13.5 574)" fill="#fff"/>
    <g id="사각형_13455" data-name="사각형 13455" transform="translate(14.5 575)" fill="#fff" stroke="#2d3239" stroke-width="1.5">
      <rect width="21" height="25" rx="5" stroke="none"/>
      <rect x="0.75" y="0.75" width="19.5" height="23.5" rx="4.25" fill="none"/>
    </g>
    <g id="사각형_13454" data-name="사각형 13454" transform="translate(21.75 580.25)" fill="none" stroke="#2d3239" stroke-width="1.5">
      <rect width="6.5" height="6.5" rx="3.25" stroke="none"/>
      <rect x="0.75" y="0.75" width="5" height="5" rx="2.5" fill="none"/>
    </g>
    <g id="사각형_13807" data-name="사각형 13807" transform="translate(19.5 587.5)" fill="none" stroke="#2d3239" stroke-width="1.5">
      <path d="M4,0H7a4,4,0,0,1,4,4V7a0,0,0,0,1,0,0H0A0,0,0,0,1,0,7V4A4,4,0,0,1,4,0Z" stroke="none"/>
      <path d="M4,.75H7A3.25,3.25,0,0,1,10.25,4V6.25a0,0,0,0,1,0,0H.75a0,0,0,0,1,0,0V4A3.25,3.25,0,0,1,4,.75Z" fill="none"/>
    </g>
    <rect id="사각형_13808" data-name="사각형 13808" width="13" height="3" transform="translate(18.5 592)" fill="#fff"/>
    <rect id="사각형_13809" data-name="사각형 13809" width="1.5" height="2" rx="0.75" transform="translate(19.5 591)" fill="#2d3239"/>
    <rect id="사각형_13810" data-name="사각형 13810" width="1.5" height="2" rx="0.75" transform="translate(29 591)" fill="#2d3239"/>
    <rect id="사각형_15771" data-name="사각형 15771" width="5" height="16" rx="2.5" transform="translate(37.889 580.429) rotate(45)" fill="#fff"/>
    <rect id="사각형_15772" data-name="사각형 15772" width="4" height="15" rx="2" transform="translate(38.596 582.41) rotate(45)" fill="#7dedf3"/>
    <g id="사각형_15773" data-name="사각형 15773" transform="translate(37.889 580.429) rotate(45)" fill="none" stroke="#2d3239" stroke-width="1.5">
      <rect width="5" height="16" rx="2.5" stroke="none"/>
      <rect x="0.75" y="0.75" width="3.5" height="14.5" rx="1.75" fill="none"/>
    </g>
  </g>
</svg>
