<svg xmlns="http://www.w3.org/2000/svg" width="27" height="27" viewBox="0 0 27 27">
    <g transform="translate(-135 -166)">
        <rect data-name="사각형 7186" width="27" height="27" rx="8" transform="translate(135 166)" style="fill:#f5f6f8"/>
        <path data-name="패스 14032" d="M118.473 408.39a1.688 1.688 0 0 0-1.406.971c-.248.375-.371.527-.579.527s-.331-.153-.579-.527a1.5 1.5 0 0 0-2.811 0c-.248.375-.369.527-.577.527s-.331-.153-.579-.527a1.5 1.5 0 0 0-2.809 0c-.248.375-.369.527-.577.527s-.329-.153-.577-.527a1.5 1.5 0 0 0-2.807 0c-.248.375-.369.527-.577.527s-.329-.153-.577-.527a1.684 1.684 0 0 0-1.4-.971.5.5 0 1 0 0 .991c.208 0 .329.153.577.527a1.5 1.5 0 0 0 2.807 0c.248-.375.369-.527.577-.527s.329.153.577.527a1.5 1.5 0 0 0 2.807 0c.248-.375.369-.527.577-.527s.331.153.579.527a1.5 1.5 0 0 0 2.809 0c.248-.375.369-.527.579-.527s.331.153.579.527a1.5 1.5 0 0 0 2.811 0c.248-.375.371-.527.579-.527a.5.5 0 1 0 0-.991z" transform="translate(37.882 -224.386)" style="fill:#111"/>
        <path data-name="패스 14033" d="M256.625 89.051a.5.5 0 0 0 .5-.5v-8.309a.969.969 0 1 1 1.939 0 .5.5 0 0 0 .991 0 1.961 1.961 0 0 0-3.922 0v1.471h-5.236v-1.471a.969.969 0 1 1 1.939 0 .5.5 0 1 0 .991 0 1.961 1.961 0 1 0-3.922 0v8.313a.5.5 0 1 0 .991 0v-.619h5.236v.619a.5.5 0 0 0 .5.5zm-5.732-6.351h5.236v1.63h-5.236zm0 4.241v-1.62h5.236v1.624z" transform="translate(-104.879 94.504)" style="fill:#111"/>
    </g>
</svg>
