<svg xmlns="http://www.w3.org/2000/svg" width="44" height="44" viewBox="0 0 44 44">
    <defs>
        <style>
            .cls-2{fill:#fff;stroke:#2d3239;stroke-width:1.5px}.cls-10{fill:none}.cls-9{stroke:none}
        </style>
    </defs>
    <g id="ic_contract_l" transform="translate(-24 -652)">
        <g id="그룹_9460" data-name="그룹 9460" transform="translate(-4 -5)">
            <g id="사각형_11970" data-name="사각형 11970" class="cls-2">
                <path class="cls-9" d="M4 0h17a4 4 0 0 1 4 4v20a5 5 0 0 1-5 5H4a4 4 0 0 1-4-4V4a4 4 0 0 1 4-4z" transform="translate(39 666)"/>
                <path class="cls-10" d="M4 .75h17A3.25 3.25 0 0 1 24.25 4v20A4.25 4.25 0 0 1 20 28.25H4A3.25 3.25 0 0 1 .75 25V4A3.25 3.25 0 0 1 4 .75z" transform="translate(39 666)"/>
            </g>
            <rect id="사각형_11974" data-name="사각형 11974" width="25" height="30" rx="3" transform="translate(37 663)" style="fill:#fff"/>
            <g id="그룹_9458" data-name="그룹 9458" transform="translate(36 662)">
                <g id="사각형_11970-2" data-name="사각형 11970" class="cls-2">
                    <path class="cls-9" d="M4 0h15a6 6 0 0 1 6 6v20a4 4 0 0 1-4 4H4a4 4 0 0 1-4-4V4a4 4 0 0 1 4-4z"/>
                    <path class="cls-10" d="M4 .75h15A5.25 5.25 0 0 1 24.25 6v20A3.25 3.25 0 0 1 21 29.25H4A3.25 3.25 0 0 1 .75 26V4A3.25 3.25 0 0 1 4 .75z"/>
                </g>
                <g id="교차_2" data-name="교차 2" style="fill:#fff">
                    <path class="cls-9" d="M6.25 5.756H2c-.69 0-1.25-.56-1.25-1.25V1.41c0-.237.065-.463.187-.659h.067a5.22 5.22 0 0 1 3.683 1.508A5.217 5.217 0 0 1 6.25 5.756z" transform="translate(17.906 .052)"/>
                    <path d="M5.395 5.006a4.474 4.474 0 0 0-1.234-2.213A4.47 4.47 0 0 0 1.5 1.527v2.98a.5.5 0 0 0 .5.5h3.395m1.609 1.5H2a2 2 0 0 1-2-2V1.408C0 .859.222.36.58 0h.424a6 6 0 0 1 6 5.897v.61z" style="fill:#2d3239;stroke:none" transform="translate(17.906 .052)"/>
                </g>
            </g>
            <g id="그룹_9459" data-name="그룹 9459" transform="translate(40 667.455)">
                <g id="사각형_11973" data-name="사각형 11973" transform="rotate(90 0 8)" style="fill:none;stroke:#2d3239">
                    <rect class="cls-9" width="1.5" height="8" rx=".75"/>
                    <rect class="cls-10" x=".5" y=".5" width=".5" height="7" rx=".25"/>
                </g>
                <g id="그룹_8253" data-name="그룹 8253" transform="translate(.5)">
                    <rect id="사각형_11488" data-name="사각형 11488" width="6" height="6" rx="3" transform="translate(2.5 .5)" style="fill:#7dedf3"/>
                    <g id="사각형_11489" data-name="사각형 11489" style="fill:none;stroke-width:1.5px;stroke:#2d3239">
                        <rect class="cls-9" width="7" height="7" rx="3.5"/>
                        <rect class="cls-10" x=".75" y=".75" width="5.5" height="5.5" rx="2.75"/>
                    </g>
                </g>
            </g>
            <path id="패스_3490" data-name="패스 3490" d="m-10170.5 5361.5 2.77 3 4.23-4.833" transform="translate(10219.557 -4678.606)" style="stroke-linecap:round;stroke-linejoin:round;fill:none;stroke-width:1.5px;stroke:#2d3239"/>
        </g>
    </g>
</svg>
