<svg xmlns="http://www.w3.org/2000/svg" width="36" height="36" viewBox="0 0 36 36">
    <defs>
        <style>
            .cls-1{fill:none}.cls-2,.cls-4{fill:#fff}.cls-4{stroke-linecap:round;stroke-linejoin:round;stroke:#2a2d33}.cls-10,.cls-11{stroke:none}.cls-11{fill:#2d3239}
        </style>
    </defs>
    <g id="ic_car_insurance" data-name="ic_car insurance" transform="translate(-23.33 -750.768)">
        <path id="사각형_7870" data-name="사각형 7870" class="cls-1" transform="translate(23.33 750.768)" d="M0 0h36v36H0z"/>
        <g id="패스_10993" data-name="패스 10993" class="cls-2">
            <path class="cls-10" d="M20.991 7.25H1.01l1.084-3.605c.282-.94.692-1.657 1.22-2.132C3.881.999 4.597.75 5.5.75h11c.876 0 1.615.27 2.196.802.534.49.942 1.194 1.21 2.092l1.085 3.606z" transform="translate(28.33 754.268)"/>
            <path class="cls-11" d="M5.5 1.5c-.709 0-1.26.186-1.686.57-.424.382-.761.984-1.003 1.79L2.018 6.5h17.964l-.794-2.641c-.226-.756-.572-1.362-.999-1.754-.444-.407-.997-.605-1.689-.605h-11m0-1.5h11c2.278 0 3.554 1.522 4.125 3.429L22 8H0l1.375-4.571C1.981 1.405 3.222 0 5.5 0z" transform="translate(28.33 754.268)"/>
        </g>
        <g id="패스_10994" data-name="패스 10994" class="cls-2">
            <path class="cls-10" d="M27.955 14.25H2.045A1.297 1.297 0 0 1 .75 12.955V6.818A6.075 6.075 0 0 1 6.818.75h16.364a6.075 6.075 0 0 1 6.068 6.068v6.137c0 .714-.581 1.295-1.295 1.295z" transform="translate(24.33 760.768)"/>
            <path class="cls-11" d="M6.818 1.5A5.324 5.324 0 0 0 1.5 6.818v6.137c0 .3.245.545.545.545h25.91c.3 0 .545-.245.545-.545V6.818A5.324 5.324 0 0 0 23.182 1.5H6.818m0-1.5h16.364A6.818 6.818 0 0 1 30 6.818v6.137c0 1.13-.916 2.045-2.045 2.045H2.045A2.045 2.045 0 0 1 0 12.955V6.818A6.818 6.818 0 0 1 6.818 0z" transform="translate(24.33 760.768)"/>
        </g>
        <g id="사각형_5282" data-name="사각형 5282" style="stroke-linecap:round;stroke-linejoin:round;stroke:#2d3239;stroke-width:1.5px;fill:#fff">
            <path class="cls-10" d="M0 0h5v3.5A2.5 2.5 0 0 1 2.5 6 2.5 2.5 0 0 1 0 3.5V0z" transform="translate(28.33 774.268)"/>
            <path class="cls-1" d="M.75.75h3.5V3.5A1.75 1.75 0 0 1 2.5 5.25h0A1.75 1.75 0 0 1 .75 3.5V.75h0z" transform="translate(28.33 774.268)"/>
        </g>
        <g id="사각형_14430" data-name="사각형 14430" class="cls-4" transform="translate(50.83 758.768)">
            <rect class="cls-10" width="3.5" height="1.5" rx=".75"/>
            <rect class="cls-1" x=".5" y=".5" width="2.5" height=".5" rx=".25"/>
        </g>
        <g id="사각형_14431" data-name="사각형 14431" class="cls-4" transform="translate(24.33 758.768)">
            <rect class="cls-10" width="3.5" height="1.5" rx=".75"/>
            <rect class="cls-1" x=".5" y=".5" width="2.5" height=".5" rx=".25"/>
        </g>
        <g id="사각형_14428" data-name="사각형 14428" class="cls-4" transform="translate(28.33 768.268)">
            <rect class="cls-10" width="3" height="1.5" rx=".75"/>
            <rect class="cls-1" x=".5" y=".5" width="2" height=".5" rx=".25"/>
        </g>
        <g id="사각형_14429" data-name="사각형 14429" class="cls-4" transform="translate(33.33 768.268)">
            <rect class="cls-10" width="12" height="1.5" rx=".75"/>
            <rect class="cls-1" x=".5" y=".5" width="11" height=".5" rx=".25"/>
        </g>
        <path id="사각형_11997" data-name="사각형 11997" d="M0 0h.5a.5.5 0 0 1 .5.5.5.5 0 0 1-.5.5H0V0z" transform="translate(44.33 774.768)" style="fill:#2d3239"/>
        <g id="그룹_12254" data-name="그룹 12254" transform="translate(3 -2)">
            <path id="패스_12225" data-name="패스 12225" d="M0 2.2C.328 1.264 6.228-1 7.158-1s6.708 2.551 7.154 3.2-.422 5.6-1.683 8S8.258 15 7.158 15s-4.246-2.583-5.471-4.8S-.32 3.136 0 2.2z" transform="translate(40.4 770.768)" style="fill:#fff"/>
            <path id="패스_12149" data-name="패스 12149" d="M0 2c.29-.877 5.58-3 6.415-3s6.014 2.392 6.414 3-.379 5.252-1.509 7.5S7.132 14 6.411 14 2.6 11.578 1.506 9.5-.295 2.877 0 2z" transform="translate(43.4 771.268)" style="fill:#7dedf3"/>
            <path id="패스_12150" data-name="패스 12150" d="m-10170 5361.4 2.063 2.1 3.437-3.5" transform="translate(10215.08 -4584.232)" style="stroke-linecap:round;stroke-linejoin:round;stroke:#2d3239;stroke-width:1.5px;fill:none"/>
            <g id="패스_12151" data-name="패스 12151" style="fill:none">
                <path class="cls-10" d="M0 2.2C.328 1.264 6.228-1 7.158-1s6.708 2.551 7.154 3.2-.422 5.6-1.683 8S8.258 15 7.158 15s-4.246-2.583-5.471-4.8S-.32 3.136 0 2.2z" transform="translate(40.4 770.768)"/>
                <path class="cls-11" d="M7.146.51c-.368.074-1.477.41-2.997 1.033-1.541.633-2.364 1.093-2.72 1.331.001.46.078 1.417.35 2.77C2.1 7.24 2.557 8.671 3 9.474c.44.797 1.284 1.79 2.257 2.655.92.816 1.616 1.225 1.91 1.346.295-.112.983-.497 1.873-1.272.985-.859 1.809-1.843 2.26-2.701.454-.862.923-2.302 1.256-3.852.272-1.268.362-2.158.373-2.621-.467-.278-1.404-.763-2.71-1.34C8.642.99 7.527.598 7.146.51M7.158-1c.93 0 6.709 2.551 7.154 3.2.445.649-.422 5.602-1.683 8-1.261 2.398-4.371 4.8-5.47 4.8-1.1 0-4.247-2.583-5.471-4.8C.463 7.983-.32 3.136.004 2.2.328 1.264 6.228-1 7.158-1z" transform="translate(40.4 770.768)"/>
            </g>
        </g>
    </g>
</svg>
