<svg xmlns="http://www.w3.org/2000/svg" width="44" height="44" viewBox="0 0 44 44">
    <defs>
        <clipPath id="clip-path">
            <path id="사각형_12165" data-name="사각형 12165" class="cls-1" d="M0 0h16v16H0z"/>
        </clipPath>
        <style>
            .cls-1{fill:#2d3239}.cls-3{fill:#fff}.cls-3,.cls-6,.cls-7{stroke:#2d3239;stroke-width:1.5px}.cls-11,.cls-6,.cls-7{fill:none}.cls-6,.cls-7{stroke-linecap:round}.cls-6{stroke-linejoin:round}.cls-10{stroke:none}
        </style>
    </defs>
    <g id="ic_cashback" transform="translate(-252 -1666)">
        <g id="그룹_9800" data-name="그룹 9800" transform="translate(-1 -3)">
            <g id="사각형_12167" data-name="사각형 12167" class="cls-3">
                <path class="cls-10" d="M5 0h12a5 5 0 0 1 5 5v6H0V5a5 5 0 0 1 5-5z" transform="rotate(-17 5761.553 -24.789)"/>
                <path class="cls-11" d="M5 .75h12A4.25 4.25 0 0 1 21.25 5v4.5a.75.75 0 0 1-.75.75h-19a.75.75 0 0 1-.75-.75V5A4.25 4.25 0 0 1 5 .75z" transform="rotate(-17 5761.553 -24.789)"/>
            </g>
            <g id="사각형_11970" data-name="사각형 11970" class="cls-3" transform="translate(260 1683)">
                <rect class="cls-10" width="26" height="22" rx="5"/>
                <rect class="cls-11" x=".75" y=".75" width="24.5" height="20.5" rx="4.25"/>
            </g>
            <path id="패스_11011" data-name="패스 11011" d="M7 0a7 7 0 1 1-7 7 7 7 0 0 1 7-7z" transform="translate(277.563 1690.625)" style="fill:#fff"/>
            <path id="패스_10995" data-name="패스 10995" d="M7 0a7 7 0 1 1-7 7 7 7 0 0 1 7-7z" transform="translate(277.5 1692)" style="fill:#7dedf3"/>
            <g id="그룹_9779" data-name="그룹 9779" transform="translate(279 1696.5)">
                <path id="패스_2252" data-name="패스 2252" class="cls-6" d="m3649.636 5413.028 1.75 5 1.75-5 1.75 5 1.75-5" transform="translate(-3648.636 -5413.028)"/>
                <path id="선_11" data-name="선 11" class="cls-7" transform="translate(0 2)" d="M0 0h1.5"/>
                <path id="선_166" data-name="선 166" class="cls-7" transform="translate(7.5 2)" d="M0 0h1.5"/>
            </g>
            <path id="패스_11010" data-name="패스 11010" class="cls-6" d="m18921.184-8536.331.484 2.531 2.7-.641" transform="translate(-18645.137 10229.425)"/>
            <g id="사각형_12164" data-name="사각형 12164" class="cls-3">
                <path class="cls-10" d="M2.4 0H8a4 4 0 0 1 4 4 4 4 0 0 1-4 4H2.4A2.4 2.4 0 0 1 0 5.6V2.4A2.4 2.4 0 0 1 2.4 0z" transform="translate(258 1690)"/>
                <path class="cls-11" d="M2.471.75H8A3.25 3.25 0 0 1 11.25 4 3.25 3.25 0 0 1 8 7.25H2.471A1.721 1.721 0 0 1 .75 5.529V2.471A1.721 1.721 0 0 1 2.471.75z" transform="translate(258 1690)"/>
            </g>
            <g id="타원_1441" data-name="타원 1441" transform="translate(265 1693)" style="fill:none;stroke:#2d3239;stroke-width:1.5px">
                <circle class="cls-10" cx="1" cy="1" r="1"/>
                <circle class="cls-11" cx="1" cy="1" r=".25"/>
            </g>
            <g id="그룹_9799" data-name="그룹 9799" transform="translate(275.5 1690.5)">
                <g id="그룹_9798" data-name="그룹 9798" style="clip-path:url(#clip-path)">
                    <path id="패스_11012" data-name="패스 11012" class="cls-1" d="M7.914 16a8.114 8.114 0 0 1-7.9-6.272.685.685 0 0 1 .528-.816.688.688 0 0 1 .826.522A6.708 6.708 0 0 0 14.614 8a6.8 6.8 0 0 0-6.706-6.629c-3.569-.032-5.742 3.111-6.1 3.89a.7.7 0 0 1-.916.339.683.683 0 0 1-.345-.9C1 3.7 3.614-.027 7.919 0A8.2 8.2 0 0 1 16 8a8.052 8.052 0 0 1-8.086 8"/>
                </g>
            </g>
        </g>
    </g>
</svg>
