<svg xmlns="http://www.w3.org/2000/svg" width="27" height="27" viewBox="0 0 27 27">
    <g transform="translate(-104 -166)">
        <rect data-name="사각형 7186" width="27" height="27" rx="8" transform="translate(104 166)" style="fill:#f5f6f8"/>
        <path data-name="사각형 14096" transform="translate(110 172)" style="fill:transparent" d="M0 0h15v15H0z"/>
        <g data-name="빼기 388" style="fill:none">
            <path d="M13939.956 18272h-11a2.075 2.075 0 0 1-1.621-.848 1.675 1.675 0 0 1-.24-1.541c.339-1.043.684-2.074.813-2.463l.049-.146h5.5a1 1 0 1 0 2 0h5.5c0 .012.39 1.254.862 2.609a1.614 1.614 0 0 1-.2 1.535 2.1 2.1 0 0 1-1.663.854z" style="stroke:none" transform="translate(-13816.956 -18085)"/>
            <path d="M13939.956 18271c.32 0 .669-.178.852-.436.131-.183.152-.376.065-.623a95.442 95.442 0 0 1-.65-1.939h-4.035a1.999 1.999 0 0 1-3.463 0h-4.05c-.165.498-.4 1.21-.633 1.924a.673.673 0 0 0 .1.64c.186.256.52.434.812.434h11.002m0 1h-11.002c-.612 0-1.249-.334-1.621-.848a1.675 1.675 0 0 1-.24-1.54c.339-1.044.683-2.075.813-2.464.03-.09.048-.144.05-.146h5.502c.001.268.104.52.293.707a1 1 0 0 0 1.706-.707h5.498c.004.012.39 1.254.862 2.61.246.699.029 1.22-.196 1.534a2.095 2.095 0 0 1-1.665.854z" style="fill:#111;stroke:none" transform="translate(-13816.956 -18085)"/>
        </g>
        <g data-name="빼기 387" style="fill:none">
            <path d="M13933.5 18277h-6.5v-9a1.884 1.884 0 0 1 1.733-2h9.532a1.884 1.884 0 0 1 1.733 2v9h-6.493a1 1 0 1 0-.007 0z" style="stroke:none" transform="translate(-13816 -18094)"/>
            <path d="M13931.5 18276.002v-.002c0-1.104.897-2 2-2s2 .896 2 2l3.5-.002V18268c0-.543-.336-1-.733-1h-9.533c-.397 0-.733.457-.733 1v8l3.499.002m2 1.002-6.499-.004v-9c0-1.102.777-2 1.733-2h9.533c.956 0 1.733.898 1.733 2v8.998l-6.493.002a1 1 0 1 0-.007 0v.004z" style="fill:#111;stroke:none" transform="translate(-13816 -18094)"/>
        </g>
        <g data-name="타원 2352" transform="translate(115.5 180)" style="stroke:#111;fill:none">
            <circle cx="2" cy="2" r="2" style="stroke:none"/>
            <circle cx="2" cy="2" r="1.5" style="fill:none"/>
        </g>
        <rect data-name="사각형 18072" width="1" height="2" rx=".5" transform="translate(117 183)" style="fill:#111"/>
        <path data-name="패스 14040" d="M4710.465-7303.841s6.566-2.2 11.8-.78" transform="translate(-4598.864 7483.84)" style="stroke:#111;fill:none"/>
        <path data-name="선 963" transform="translate(118.5 175.915)" style="stroke-linecap:round;stroke-linejoin:round;stroke:#111;fill:none" d="M0 2.59V0"/>
        <path data-name="패스 14042" d="M7.942 1.952 5.722.75v2.4z" transform="translate(112.778 173.871)" style="stroke-linecap:round;stroke-linejoin:round;stroke:#111;fill:none"/>
    </g>
</svg>
