<svg xmlns="http://www.w3.org/2000/svg" width="36" height="36" viewBox="0 0 36 36">
    <defs>
        <style>
            .cls-1,.cls-5{fill:none}.cls-3{fill:#2d3239}.cls-5{stroke:#2d3239;stroke-width:1.5px}.cls-6{stroke:none}
        </style>
    </defs>
    <g id="ic_certificate" transform="translate(-42 -2053)">
        <path id="사각형_7871" data-name="사각형 7871" class="cls-1" transform="translate(42 2053)" d="M0 0h36v36H0z"/>
        <g id="빼기_162" data-name="빼기 162" style="fill:#fff">
            <path class="cls-6" d="M-4479.25-1489v-16a3.254 3.254 0 0 1 3.25-3.25h22a3.254 3.254 0 0 1 3.25 3.25v3.25-3.25a3.253 3.253 0 0 0-3.25-3.25h-22a3.254 3.254 0 0 0-3.25 3.25v16z" transform="translate(4525 3567)"/>
            <path d="M-4467-1485h-9c-2.206 0-4-1.795-4-4v-16c0-2.206 1.794-4 4-4h22c2.206 0 4 1.794 4 4v4h-1.5v-4c0-1.378-1.122-2.5-2.5-2.5h-22a2.503 2.503 0 0 0-2.5 2.5v16c0 1.378 1.122 2.5 2.5 2.5h9v1.5z" style="fill:#2d3239;stroke:none" transform="translate(4525 3567)"/>
        </g>
        <rect id="사각형_11630" data-name="사각형 11630" class="cls-3" width="13" height="1.5" rx=".75" transform="translate(51 2066)"/>
        <rect id="사각형_11633" data-name="사각형 11633" class="cls-3" width="7" height="1.5" rx=".75" transform="translate(52 2070.25)"/>
        <rect id="사각형_11637" data-name="사각형 11637" width="13" height="11" rx="4" transform="translate(63.5 2075.5)" style="fill:#7dedf3"/>
        <g id="사각형_11631" data-name="사각형 11631" class="cls-5" transform="translate(61.5 2073.5)">
            <rect class="cls-6" width="14" height="12" rx="4"/>
            <rect class="cls-1" x=".75" y=".75" width="12.5" height="10.5" rx="3.25"/>
        </g>
        <g id="사각형_11632" data-name="사각형 11632" class="cls-5">
            <path class="cls-6" d="M4 0a4 4 0 0 1 4 4v3H0V4a4 4 0 0 1 4-4z" transform="translate(64.5 2068)"/>
            <path class="cls-1" d="M4 .75A3.25 3.25 0 0 1 7.25 4v1.676a.574.574 0 0 1-.574.574H1.324a.574.574 0 0 1-.574-.574V4A3.25 3.25 0 0 1 4 .75z" transform="translate(64.5 2068)"/>
        </g>
        <rect id="사각형_11636" data-name="사각형 11636" class="cls-3" width="1.5" height="3" rx=".75" transform="translate(67.75 2078)"/>
        <rect id="사각형_11638" data-name="사각형 11638" class="cls-3" width="1.5" height="2" rx=".75" transform="translate(73.5 2065)"/>
        <rect id="사각형_11639" data-name="사각형 11639" class="cls-3" width="2" height="1.5" rx=".75" transform="translate(57 2080.5)"/>
    </g>
</svg>
