<svg xmlns="http://www.w3.org/2000/svg" xmlns:xlink="http://www.w3.org/1999/xlink" width="36" height="36" viewBox="0 0 36 36">
    <defs>
        <clipPath id="clip">
            <use xlink:href="#fill"/>
        </clipPath>
        <style>
            .cls-1,.cls-6{fill:none}.cls-6{stroke:#2d3239;stroke-width:1.5px}.cls-7{stroke:none}
        </style>
    </defs>
    <g id="ic_coupon" transform="translate(-26.33 -750.768)">
        <path id="사각형_7870" data-name="사각형 7870" class="cls-1" transform="translate(26.33 750.768)" d="M0 0h36v36H0z"/>
        <path id="빼기_83" data-name="빼기 83" d="M15830.33-7268.231h-7a3 3 0 0 1-3-3v-3.5a4.748 4.748 0 0 0 4.95-4.5 4.747 4.747 0 0 0-4.95-4.5v-3.5a3 3 0 0 1 3-3h7v22z" transform="translate(-15792 8049)" style="fill:#7dedf3"/>
        <g id="빼기_48" data-name="빼기 48" style="fill:none">
            <path class="cls-7" d="M28 23H4a3 3 0 0 1-3-3v-4.536a3.5 3.5 0 0 0 0-6.929V4a3 3 0 0 1 3-3h24a3 3 0 0 1 3 3v16a3 3 0 0 1-3 3z" transform="translate(28.33 756.768)"/>
            <path d="M28 21.5c.827 0 1.5-.673 1.5-1.5V4c0-.827-.673-1.5-1.5-1.5H4c-.827 0-1.5.673-1.5 1.5v3.418A5.03 5.03 0 0 1 5.5 12a5.03 5.03 0 0 1-3 4.581V20c0 .827.673 1.5 1.5 1.5h24m0 1.5H4c-1.654 0-3-1.346-3-3v-4.536C2.71 15.22 4 13.731 4 12c0-1.73-1.29-3.22-3-3.465V4c0-1.654 1.346-3 3-3h24c1.654 0 3 1.346 3 3v16c0 1.654-1.346 3-3 3z" style="fill:#2d3239;stroke:none" transform="translate(28.33 756.768)"/>
        </g>
        <path id="패스_2245" data-name="패스 2245" d="M4714.756 4512.812v15.466" transform="translate(-4676.426 -3752.044)" style="stroke-dasharray:2.5 4;stroke-linecap:round;stroke:#2d3239;stroke-width:1.5px;fill:none"/>
        <g id="그룹_5874" data-name="그룹 5874" transform="translate(1 .023)">
            <g id="사각형_5603" data-name="사각형 5603" transform="rotate(45 -896.655 444.493)" style="fill:#fff;stroke-linecap:round;stroke:#2d3239;stroke-width:1.5px">
                <rect id="fill" class="cls-7" width="1.358" height="11.765" rx=".679"/>
                <path d="M0 .75h1.358M.75 0v11.765m.608-.75H0m.608.75V0" style="clip-path:url(#clip);fill:none"/>
            </g>
            <g id="타원_115" data-name="타원 115" class="cls-6" transform="translate(42.83 763.768)">
                <circle class="cls-7" cx="2.25" cy="2.25" r="2.25"/>
                <circle class="cls-1" cx="2.25" cy="2.25" r="1.5"/>
            </g>
            <g id="타원_116" data-name="타원 116" class="cls-6" transform="translate(49.165 769.198)">
                <circle class="cls-7" cx="2.25" cy="2.25" r="2.25"/>
                <circle class="cls-1" cx="2.25" cy="2.25" r="1.5"/>
            </g>
        </g>
    </g>
</svg>
