<svg xmlns="http://www.w3.org/2000/svg" width="27" height="27" viewBox="0 0 27 27">
    <defs>
        <style>
            .cls-4{fill:#fff}.cls-3,.cls-6{fill:none}.cls-3,.cls-4{stroke:#111;stroke-width:1.5px}.cls-5{stroke:none}
        </style>
    </defs>
    <g id="card_d_s_ic_05" transform="translate(5217 -1077)">
        <g id="그룹_12300" data-name="그룹 12300" transform="translate(-5461 -141)">
            <rect id="사각형_7186" data-name="사각형 7186" width="27" height="27" rx="8" transform="translate(244 1218)" style="fill:#f5f6f8"/>
        </g>
        <path id="사각형_14468" data-name="사각형 14468" transform="translate(-5211 1083)" style="fill:#fff" d="M0 0h15v15H0z"/>
        <g id="사각형_14469" data-name="사각형 14469" class="cls-3" transform="translate(-5209.5 1085.45)">
            <rect class="cls-5" width="12" height="12" rx="2"/>
            <rect class="cls-6" x=".75" y=".75" width="10.5" height="10.5" rx="1.25"/>
        </g>
        <g id="사각형_14470" data-name="사각형 14470" class="cls-4">
            <path class="cls-5" d="M1 0h3.5v3a2 2 0 0 1-2 2H2a2 2 0 0 1-2-2V1a1 1 0 0 1 1-1z" transform="translate(-5210.25 1085.95)"/>
            <path class="cls-6" d="M1 .75h2.75V3A1.25 1.25 0 0 1 2.5 4.25H2A1.25 1.25 0 0 1 .75 3V1A.25.25 0 0 1 1 .75z" transform="translate(-5210.25 1085.95)"/>
        </g>
        <g id="사각형_14471" data-name="사각형 14471" class="cls-4">
            <path class="cls-5" d="M0 0h4.5v3a2 2 0 0 1-2 2H2a2 2 0 0 1-2-2V0z" transform="translate(-5204.25 1085.95)"/>
            <path class="cls-6" d="M.75.75h3V3A1.25 1.25 0 0 1 2.5 4.25H2A1.25 1.25 0 0 1 .75 3V.75z" transform="translate(-5204.25 1085.95)"/>
        </g>
        <g id="사각형_14472" data-name="사각형 14472" class="cls-4">
            <path class="cls-5" d="M0 0h4.5v3a2 2 0 0 1-2 2H2a2 2 0 0 1-2-2V0z" transform="translate(-5207.25 1085.95)"/>
            <path class="cls-6" d="M.75.75h3V3A1.25 1.25 0 0 1 2.5 4.25H2A1.25 1.25 0 0 1 .75 3V.75z" transform="translate(-5207.25 1085.95)"/>
        </g>
        <g id="사각형_14473" data-name="사각형 14473" class="cls-4">
            <path class="cls-5" d="M0 0h3.5a1 1 0 0 1 1 1v2a2 2 0 0 1-2 2H2a2 2 0 0 1-2-2V0z" transform="translate(-5201.25 1085.95)"/>
            <path class="cls-6" d="M.75.75H3.5a.25.25 0 0 1 .25.25v2A1.25 1.25 0 0 1 2.5 4.25H2A1.25 1.25 0 0 1 .75 3V.75z" transform="translate(-5201.25 1085.95)"/>
        </g>
        <g id="사각형_14474" data-name="사각형 14474" class="cls-3">
            <path class="cls-5" d="M1 0h2a1 1 0 0 1 1 1v4H0V1a1 1 0 0 1 1-1z" transform="translate(-5205.5 1092.45)"/>
            <path class="cls-6" d="M1 .75h2a.25.25 0 0 1 .25.25v3.25H.75V1A.25.25 0 0 1 1 .75z" transform="translate(-5205.5 1092.45)"/>
        </g>
        <g id="사각형_14475" data-name="사각형 14475" class="cls-4">
            <path class="cls-5" d="M2 0h9.5a2 2 0 0 1 2 2v2H0V2a2 2 0 0 1 2-2z" transform="translate(-5210.25 1083.55)"/>
            <path class="cls-6" d="M2 .75h9.5A1.25 1.25 0 0 1 12.75 2v1.25h-12V2A1.25 1.25 0 0 1 2 .75z" transform="translate(-5210.25 1083.55)"/>
        </g>
    </g>
</svg>
