<svg xmlns="http://www.w3.org/2000/svg" width="24" height="24" viewBox="0 0 24 24">
  <g id="ic_card_add" transform="translate(-298 -571.244)">
    <rect id="사각형_14083" data-name="사각형 14083" width="24" height="24" transform="translate(298 571.244)" fill="none"/>
    <g id="합치기_174" data-name="합치기 174" transform="translate(15405 -6585.998)" fill="none">
      <path d="M-15103,7179.243a2,2,0,0,1-2-2v-12a2,2,0,0,1,2-2h16a2,2,0,0,1,2,2v12a2,2,0,0,1-2,2Zm0-2h16v-12h-16Zm7-3v-2h-2a1,1,0,0,1-1-1,1,1,0,0,1,1-1h2v-2a1,1,0,0,1,1-1,1,1,0,0,1,1,1v2h2a1,1,0,0,1,1,1,1,1,0,0,1-1,1h-2v2a1,1,0,0,1-1,1A1,1,0,0,1-15096,7174.243Zm-5-13a1,1,0,0,1-1-1,1,1,0,0,1,1-1h12a1,1,0,0,1,1,1,1,1,0,0,1-1,1Z" stroke="none"/>
      <path d="M -15087.0009765625 7179.24267578125 L -15103.001953125 7179.24267578125 C -15104.1044921875 7179.24267578125 -15105 7178.34423828125 -15105 7177.2451171875 L -15105 7165.2431640625 C -15105 7164.14013671875 -15104.1044921875 7163.2451171875 -15103.001953125 7163.2451171875 L -15087.0009765625 7163.2451171875 C -15085.8974609375 7163.2451171875 -15084.9990234375 7164.14013671875 -15084.9990234375 7165.2431640625 L -15084.9990234375 7177.2451171875 C -15084.9990234375 7178.34423828125 -15085.8974609375 7179.24267578125 -15087.0009765625 7179.24267578125 Z M -15103.001953125 7165.2431640625 L -15103.001953125 7177.2451171875 L -15087.0009765625 7177.2451171875 L -15087.0009765625 7165.2431640625 L -15103.001953125 7165.2431640625 Z M -15094.9990234375 7175.23974609375 C -15095.552734375 7175.23974609375 -15096 7174.79248046875 -15096 7174.24267578125 L -15096 7172.2412109375 L -15097.998046875 7172.2412109375 C -15098.5517578125 7172.2412109375 -15098.9990234375 7171.7900390625 -15098.9990234375 7171.244140625 C -15098.9990234375 7170.68701171875 -15098.5517578125 7170.2392578125 -15097.998046875 7170.2392578125 L -15096 7170.2392578125 L -15096 7168.23779296875 C -15096 7167.68798828125 -15095.552734375 7167.24072265625 -15094.9990234375 7167.24072265625 C -15094.4462890625 7167.24072265625 -15093.9990234375 7167.68798828125 -15093.9990234375 7168.23779296875 L -15093.9990234375 7170.2392578125 L -15092.0009765625 7170.2392578125 C -15091.447265625 7170.2392578125 -15091 7170.68701171875 -15091 7171.244140625 C -15091 7171.7900390625 -15091.447265625 7172.2412109375 -15092.0009765625 7172.2412109375 L -15093.9990234375 7172.2412109375 L -15093.9990234375 7174.24267578125 C -15093.9990234375 7174.79248046875 -15094.4462890625 7175.23974609375 -15094.9990234375 7175.23974609375 Z M -15089.001953125 7161.23974609375 L -15101 7161.23974609375 C -15101.5537109375 7161.23974609375 -15102.0009765625 7160.79248046875 -15102.0009765625 7160.2431640625 C -15102.0009765625 7159.693359375 -15101.5537109375 7159.24609375 -15101 7159.24609375 L -15089.001953125 7159.24609375 C -15088.4482421875 7159.24609375 -15088.0009765625 7159.693359375 -15088.0009765625 7160.2431640625 C -15088.0009765625 7160.79248046875 -15088.4482421875 7161.23974609375 -15089.001953125 7161.23974609375 Z" stroke="none" fill="#111"/>
    </g>
  </g>
</svg>
