<svg xmlns="http://www.w3.org/2000/svg" width="36" height="36" viewBox="0 0 36 36">
  <g id="ic-creditloan-02" transform="translate(-24 -2341)">
    <rect id="사각형_7872" data-name="사각형 7872" width="36" height="36" transform="translate(24 2341)" fill="none"/>
    <path id="패스_13835" data-name="패스 13835" d="M16.047,23.652C20.707,21.476,26,17.123,26,6.9A6.543,6.543,0,0,0,19.5.311H6.5A6.543,6.543,0,0,0,0,6.9v3.951c0,6.022,5.2,10.818,9.619,12.72A26.062,26.062,0,0,0,16.047,23.652Z" transform="translate(50.001 2373.812) rotate(180)" fill="#fff"/>
    <g id="그룹_5868" data-name="그룹 5868" transform="translate(33.01 2354.972)">
      <path id="패스_2252" data-name="패스 2252" d="M3649.636,5413.028l1.5,5,2-5,2,5,1.5-5" transform="translate(-3648.646 -5412)" fill="none" stroke="#2d3239" stroke-linecap="round" stroke-linejoin="round" stroke-width="1.5"/>
      <line id="선_11" data-name="선 11" x2="1.5" transform="translate(-0.01 3.527)" fill="none" stroke="#2d3239" stroke-linecap="round" stroke-width="1.5"/>
      <line id="선_166" data-name="선 166" x2="1.5" transform="translate(7.49 3.527)" fill="none" stroke="#2d3239" stroke-linecap="round" stroke-width="1.5"/>
    </g>
    <g id="그룹_12119" data-name="그룹 12119">
      <g id="빼기_85" data-name="빼기 85" transform="translate(50.002 2373.502) rotate(180)" fill="none" stroke-linecap="round" stroke-linejoin="round">
        <path d="M13.343,23.5a20.517,20.517,0,0,1-3.723-.245,18.2,18.2,0,0,1-6.467-4.814A12.279,12.279,0,0,1,0,10.536V6.586A6.55,6.55,0,0,1,6.5,0h13A6.55,6.55,0,0,1,26,6.586a19.069,19.069,0,0,1-3.229,11.4,16.737,16.737,0,0,1-6.724,5.359A15.755,15.755,0,0,1,13.343,23.5ZM7.28,1.5A5.733,5.733,0,0,0,1.517,7.189v3.446c0,5.52,5.149,9.739,8.609,11.227a14.349,14.349,0,0,0,2.674.173,17.526,17.526,0,0,0,2.92-.173c3.964-1.85,8.708-5.954,8.8-15a5.064,5.064,0,0,0-1.375-3.772A5.962,5.962,0,0,0,18.835,1.5l-.209,0Z" stroke="none"/>
        <path d="M 13.34323120117188 23.50128364562988 C 11.95812034606934 23.50128364562988 10.20222091674805 23.42452239990234 9.620100975036621 23.25600242614746 C 7.228240966796875 22.22668266296387 4.871250629425049 20.47190284729004 3.153380870819092 18.44157218933105 C 1.091010808944702 16.00407218933105 0.0009008133201859891 13.27047252655029 0.0009008133201859891 10.53630256652832 L 0.0009008133201859891 6.586203098297119 C 0.0009008133201859891 2.955052852630615 2.916700839996338 0.000902910775039345 6.500700950622559 0.000902910775039345 L 19.50120162963867 0.000902910775039345 C 23.08520126342773 0.000902910775039345 26.00100135803223 2.955052852630615 26.00100135803223 6.586203098297119 C 26.00100135803223 11.18245315551758 24.91460990905762 15.01708316802979 22.77202033996582 17.98358345031738 C 21.14483070373535 20.23648262023926 18.94535064697266 21.98937225341797 16.04790115356445 23.34240341186523 C 15.61304092407227 23.44191360473633 14.60202121734619 23.50128364562988 13.34323120117188 23.50128364562988 Z M 7.28010082244873 1.501202940940857 C 4.102040767669678 1.501202940940857 1.51650083065033 4.052833080291748 1.51650083065033 7.189202785491943 L 1.51650083065033 10.63530254364014 C 1.51650083065033 16.15511322021484 6.665180683135986 20.37387275695801 10.125901222229 21.86280250549316 C 10.56882095336914 21.99019241333008 11.79759120941162 22.03560256958008 12.79980087280273 22.03560256958008 C 14.1140308380127 22.03560256958008 15.26004123687744 21.9677734375 15.71940040588379 21.86280250549316 C 19.68330001831055 20.01327323913574 24.42746162414551 15.9091329574585 24.51690101623535 6.860702991485596 C 24.53542137145996 5.299542903900146 24.0728816986084 4.030412673950195 23.14214134216309 3.088562965393066 C 22.12888145446777 2.063222885131836 20.59936141967773 1.498542904853821 18.8353099822998 1.498542904853821 C 18.76568031311035 1.498542904853821 18.69629096984863 1.499422907829285 18.62639999389648 1.501202940940857 L 7.28010082244873 1.501202940940857 Z" stroke="none" fill="#2d3239"/>
      </g>
      <g id="패스_2251" data-name="패스 2251" transform="translate(33.001 2344)" fill="#fff">
        <path d="M 4.208177089691162 6.750005722045898 C 4.20807933807373 6.750005722045898 4.208047389984131 6.750005722045898 4.207949638366699 6.750005722045898 C 3.071969509124756 6.749966144561768 2.216339588165283 6.547515869140625 1.995749473571777 6.410706043243408 C 0.5460495352745056 5.524866104125977 -0.2500004768371582 4.369075775146484 -0.2500004768371582 3.153625965118408 L -0.2500004768371582 2.365216016769409 C -0.2500004768371582 1.474575877189636 0.3748295307159424 0.7499959468841553 1.142859578132629 0.7499959468841553 L 6.857139587402344 0.7499959468841553 C 7.62516975402832 0.7499959468841553 8.25 1.474575877189636 8.25 2.365216016769409 L 8.25 3.153625965118408 C 8.25 4.721005916595459 6.954649448394775 6.009706020355225 5.751119613647461 6.543796062469482 C 5.527876853942871 6.644413471221924 5.008430480957031 6.750005722045898 4.208177089691162 6.750005722045898 Z" stroke="none"/>
        <path d="M 1.14285945892334 1.499995708465576 C 0.7943897247314453 1.499995708465576 0.4999995231628418 1.896215915679932 0.4999995231628418 2.36521577835083 L 0.4999995231628418 3.153625965118408 C 0.4999995231628418 4.421899795532227 1.669032096862793 5.330405235290527 2.373173236846924 5.762369155883789 C 2.558284282684326 5.847254753112793 3.269178867340088 6.000005722045898 4.207929611206055 6.000005722045898 C 4.958919525146484 6.000005722045898 5.358279228210449 5.897655963897705 5.438899517059326 5.861835956573486 L 5.4468994140625 5.858255863189697 C 6.435729503631592 5.419456005096436 7.499999523162842 4.385915756225586 7.499999523162842 3.153625965118408 L 7.499999523162842 2.36521577835083 C 7.499999523162842 1.896215915679932 7.205609321594238 1.499995708465576 6.857139587402344 1.499995708465576 L 1.14285945892334 1.499995708465576 M 1.14285945892334 -4.291534423828125e-06 L 6.857139587402344 -4.291534423828125e-06 C 8.040609359741211 -4.291534423828125e-06 9 1.058946132659912 9 2.36521577835083 L 9 3.153625965118408 C 9 4.958895683288574 7.635769367218018 6.5279860496521 6.055319786071777 7.229325771331787 C 5.051429748535156 7.68185567855835 2.377139091491699 7.529786109924316 1.600449562072754 7.048075675964355 C -0.002050399780273438 6.068885803222656 -1.000000953674316 4.697646141052246 -1.000000953674316 3.153625965118408 L -1.000000953674316 2.36521577835083 C -1.000000953674316 1.058946132659912 -0.04061031341552734 -4.291534423828125e-06 1.14285945892334 -4.291534423828125e-06 Z" stroke="none" fill="#2d3239"/>
      </g>
      <g id="그룹_12118" data-name="그룹 12118" transform="translate(37 2363)">
        <g id="사각형_17847" data-name="사각형 17847" transform="translate(2.001 7)" fill="#fff" stroke="#2d3239" stroke-width="1.5">
          <rect width="15" height="5" rx="2.5" stroke="none"/>
          <rect x="0.75" y="0.75" width="13.5" height="3.5" rx="1.75" fill="none"/>
        </g>
        <rect id="사각형_5634" data-name="사각형 5634" width="13.919" height="4.761" rx="2.38" transform="translate(4.042 7.238)" fill="#7dedf3"/>
        <rect id="사각형_5635" data-name="사각형 5635" width="13.602" height="4.761" rx="2.38" transform="translate(6.399 3.619)" fill="#7dedf3"/>
        <rect id="사각형_5636" data-name="사각형 5636" width="13.602" height="4.761" rx="2.38" transform="translate(2.001)" fill="#7dedf3"/>
        <g id="사각형_5637" data-name="사각형 5637" transform="translate(2.001 7)" fill="none" stroke="#2d3239" stroke-width="1.5">
          <rect width="15" height="5" rx="2.5" stroke="none"/>
          <rect x="0.75" y="0.75" width="13.5" height="3.5" rx="1.75" fill="none"/>
        </g>
        <g id="사각형_5638" data-name="사각형 5638" transform="translate(4.001 3.5)" fill="none" stroke="#2d3239" stroke-width="1.5">
          <rect width="15" height="5" rx="2.5" stroke="none"/>
          <rect x="0.75" y="0.75" width="13.5" height="3.5" rx="1.75" fill="none"/>
        </g>
        <g id="사각형_5639" data-name="사각형 5639" fill="none" stroke="#2d3239" stroke-width="1.5">
          <rect width="15" height="5" rx="2.5" stroke="none"/>
          <rect x="0.75" y="0.75" width="13.5" height="3.5" rx="1.75" fill="none"/>
        </g>
      </g>
      <rect id="사각형_8479" data-name="사각형 8479" width="1.5" height="2" rx="0.75" transform="translate(49.521 2359.523) rotate(155)" fill="#2d3239"/>
    </g>
  </g>
</svg>
