<svg xmlns="http://www.w3.org/2000/svg" width="27" height="27" viewBox="0 0 27 27">
    <g transform="translate(-135 -166)">
        <rect data-name="사각형 7186" width="27" height="27" rx="8" transform="translate(135 166)" style="fill:#f5f6f8"/>
        <path data-name="사각형 14097" transform="translate(141 172)" style="fill:transparent" d="M0 0h15v15H0z"/>
        <path data-name="패스 14043" d="M-8.9-5.579V0h.784v-.994l.651-.749L-6.419 0h.875L-7-2.289l1.309-1.561h-.889l-1.512 1.869h-.021v-3.6zm4.588 5.67A1.875 1.875 0 0 0-3.087-.42h.021L-3 0h.658v-2.317c0-1.043-.441-1.631-1.4-1.631a2.888 2.888 0 0 0-1.54.476l.238.588a2.194 2.194 0 0 1 1.166-.406c.567 0 .735.385.735.84a4.557 4.557 0 0 0-1.764.336 1.21 1.21 0 0 0-.539 1.092A1.064 1.064 0 0 0-4.312.091zm.245-.637c-.343 0-.6-.14-.6-.532a.6.6 0 0 1 .175-.532c.245-.224.609-.224 1.351-.315v.952a1.326 1.326 0 0 1-.926.427zm2.52-5.033V0h.784v-.994l.651-.749L.931 0h.875L.35-2.289 1.659-3.85H.77L-.742-1.981h-.021v-3.6zM3.038.091A1.875 1.875 0 0 0 4.263-.42h.021l.07.42h.658v-2.317c0-1.043-.441-1.631-1.4-1.631a2.888 2.888 0 0 0-1.54.476l.238.588a2.194 2.194 0 0 1 1.162-.406c.567 0 .735.385.735.84a4.557 4.557 0 0 0-1.764.336A1.21 1.21 0 0 0 1.9-1.022 1.064 1.064 0 0 0 3.038.091zm.245-.637c-.343 0-.6-.14-.6-.532a.6.6 0 0 1 .175-.532c.245-.224.609-.224 1.351-.315v.952a1.326 1.326 0 0 1-.926.427zM7.35.091a1.853 1.853 0 0 0 1.813-2.009 1.86 1.86 0 0 0-1.813-2.03 1.86 1.86 0 0 0-1.813 2.03A1.853 1.853 0 0 0 7.35.091zm0-.658c-.6 0-.98-.539-.98-1.351s.364-1.365.98-1.365.987.546.987 1.365S7.959-.567 7.35-.567z" transform="translate(148.397 182.249)" style="fill:#111;stroke:#111;stroke-width:.2px"/>
    </g>
</svg>
