<svg xmlns="http://www.w3.org/2000/svg" width="36" height="36" viewBox="0 0 36 36">
  <g id="ic-creditgrade" transform="translate(-26.33 -750.768)">
    <rect id="사각형_7870" data-name="사각형 7870" width="36" height="36" transform="translate(26.33 750.768)" fill="none"/>
    <path id="빼기_426" data-name="빼기 426" d="M10245.691-4494.419a2.835,2.835,0,0,1-1.875-.7c-.467-.437-.994-.973-1.662-1.653l-.121-.124c-.436-.443-.93-.945-1.484-1.5a2.191,2.191,0,0,1-.183-3.1,5.488,5.488,0,0,0,1.464-3.736,5.507,5.507,0,0,0-5.5-5.5,5.506,5.506,0,0,0-5.5,5.5,5.487,5.487,0,0,0,1.4,3.662,2.209,2.209,0,0,1-.144,3.157c-.6.6-1.13,1.136-1.595,1.61l-.026.026-.026.027c-.652.663-1.167,1.187-1.618,1.61a2.839,2.839,0,0,1-1.876.7,2.286,2.286,0,0,1-1.69-.7,1.026,1.026,0,0,0-.112-.105,14.969,14.969,0,0,1-3.809-9.986,14.909,14.909,0,0,1,4.393-10.607,14.9,14.9,0,0,1,10.605-4.394,14.9,14.9,0,0,1,10.607,4.394,14.905,14.905,0,0,1,4.394,10.607,14.976,14.976,0,0,1-3.8,9.982,1.235,1.235,0,0,0-.146.13A2.281,2.281,0,0,1,10245.691-4494.419Z" transform="translate(-10192 5276)" fill="#fff"/>
    <path id="빼기_72" data-name="빼기 72" d="M10240.272-4509.754h0a5.989,5.989,0,0,0-3.94-1.479,5.892,5.892,0,0,0-.739.046l-2.6-9.7a16.114,16.114,0,0,1,3.338-.349,15.907,15.907,0,0,1,9.124,2.855l-5.182,8.623Z" transform="translate(-11100.866 1697.808) rotate(19)" fill="#7dedf3"/>
    <g id="빼기_71" data-name="빼기 71" transform="translate(-10192 5276)" fill="none" stroke-linecap="round" stroke-linejoin="round">
      <path d="M10245.691-4494.419a2.835,2.835,0,0,1-1.875-.7c-.467-.437-.994-.973-1.662-1.653l-.121-.124c-.436-.443-.93-.945-1.484-1.5a2.191,2.191,0,0,1-.183-3.1,5.488,5.488,0,0,0,1.464-3.736,5.507,5.507,0,0,0-5.5-5.5,5.506,5.506,0,0,0-5.5,5.5,5.487,5.487,0,0,0,1.4,3.662,2.209,2.209,0,0,1-.144,3.157c-.6.6-1.13,1.136-1.595,1.61l-.026.026-.026.027c-.652.663-1.167,1.187-1.618,1.61a2.839,2.839,0,0,1-1.876.7,2.286,2.286,0,0,1-1.69-.7,1.026,1.026,0,0,0-.112-.105,14.969,14.969,0,0,1-3.809-9.986,14.909,14.909,0,0,1,4.393-10.607,14.9,14.9,0,0,1,10.605-4.394,14.9,14.9,0,0,1,10.607,4.394,14.905,14.905,0,0,1,4.394,10.607,14.976,14.976,0,0,1-3.8,9.982,1.235,1.235,0,0,0-.146.13A2.281,2.281,0,0,1,10245.691-4494.419Z" stroke="none"/>
      <path d="M 10245.69140625 -4495.91943359375 C 10246.03125 -4495.91943359375 10246.197265625 -4496.05322265625 10246.29296875 -4496.15380859375 C 10246.296875 -4496.15771484375 10246.30078125 -4496.16162109375 10246.3046875 -4496.16552734375 C 10246.36328125 -4496.22607421875 10246.421875 -4496.28173828125 10246.48046875 -4496.33251953125 C 10248.6416015625 -4498.79541015625 10249.830078125 -4501.951171875 10249.830078125 -4505.23193359375 C 10249.830078125 -4508.837890625 10248.42578125 -4512.228515625 10245.8759765625 -4514.77880859375 C 10243.326171875 -4517.32861328125 10239.935546875 -4518.73291015625 10236.3291015625 -4518.73291015625 C 10232.7236328125 -4518.73291015625 10229.333984375 -4517.32861328125 10226.7841796875 -4514.77880859375 C 10224.2353515625 -4512.22802734375 10222.8310546875 -4508.83740234375 10222.8310546875 -4505.23193359375 C 10222.8310546875 -4501.94091796875 10224.025390625 -4498.77783203125 10226.197265625 -4496.3134765625 C 10226.25 -4496.26611328125 10226.298828125 -4496.2177734375 10226.3447265625 -4496.16748046875 C 10226.4423828125 -4496.0673828125 10226.6103515625 -4495.93994140625 10226.9423828125 -4495.93994140625 C 10227.2939453125 -4495.93994140625 10227.63671875 -4496.0888671875 10227.79296875 -4496.23388671875 C 10228.2119140625 -4496.626953125 10228.703125 -4497.12646484375 10229.3251953125 -4497.7587890625 L 10229.392578125 -4497.8271484375 C 10229.3955078125 -4497.83056640625 10229.3994140625 -4497.833984375 10229.40234375 -4497.8369140625 L 10229.4228515625 -4497.85791015625 C 10229.8623046875 -4498.30615234375 10230.4091796875 -4498.86328125 10231.025390625 -4499.47607421875 C 10231.3427734375 -4499.79150390625 10231.330078125 -4499.97265625 10231.3251953125 -4500.0322265625 C 10231.3134765625 -4500.1923828125 10231.2197265625 -4500.40283203125 10231.05859375 -4500.62841796875 C 10229.943359375 -4501.9033203125 10229.330078125 -4503.53515625 10229.330078125 -4505.23193359375 C 10229.330078125 -4509.09228515625 10232.4697265625 -4512.23291015625 10236.3291015625 -4512.23291015625 C 10240.189453125 -4512.23291015625 10243.330078125 -4509.09228515625 10243.330078125 -4505.23193359375 C 10243.330078125 -4503.49951171875 10242.6943359375 -4501.84228515625 10241.5380859375 -4500.5546875 C 10241.396484375 -4500.3466796875 10241.314453125 -4500.15380859375 10241.306640625 -4500.00537109375 C 10241.3037109375 -4499.94677734375 10241.29296875 -4499.76806640625 10241.6064453125 -4499.4560546875 C 10242.189453125 -4498.87646484375 10242.716796875 -4498.33984375 10243.1044921875 -4497.94580078125 L 10243.224609375 -4497.8232421875 C 10243.876953125 -4497.15869140625 10244.3935546875 -4496.63330078125 10244.841796875 -4496.2138671875 C 10244.998046875 -4496.06787109375 10245.33984375 -4495.91943359375 10245.69140625 -4495.91943359375 M 10245.69140625 -4494.41943359375 C 10244.99609375 -4494.41943359375 10244.27734375 -4494.6875 10243.81640625 -4495.119140625 C 10243.349609375 -4495.5556640625 10242.822265625 -4496.09228515625 10242.154296875 -4496.7724609375 L 10242.033203125 -4496.89599609375 C 10241.59765625 -4497.3388671875 10241.103515625 -4497.8408203125 10240.548828125 -4498.392578125 C 10239.380859375 -4499.5556640625 10239.8046875 -4500.72216796875 10240.3662109375 -4501.49560546875 C 10241.310546875 -4502.5166015625 10241.830078125 -4503.84375 10241.830078125 -4505.23193359375 C 10241.830078125 -4508.26513671875 10239.3623046875 -4510.73291015625 10236.3291015625 -4510.73291015625 C 10233.296875 -4510.73291015625 10230.830078125 -4508.26513671875 10230.830078125 -4505.23193359375 C 10230.830078125 -4503.87890625 10231.326171875 -4502.57861328125 10232.2275390625 -4501.5703125 C 10232.81640625 -4500.7822265625 10233.2705078125 -4499.59423828125 10232.083984375 -4498.4130859375 C 10231.4814453125 -4497.814453125 10230.9541015625 -4497.27685546875 10230.4892578125 -4496.802734375 L 10230.4365234375 -4496.74951171875 C 10229.7841796875 -4496.08642578125 10229.26953125 -4495.5625 10228.818359375 -4495.1396484375 C 10228.3564453125 -4494.7080078125 10227.6376953125 -4494.43994140625 10226.9423828125 -4494.43994140625 C 10226.4755859375 -4494.43994140625 10225.8037109375 -4494.5615234375 10225.251953125 -4495.14013671875 C 10225.2197265625 -4495.17578125 10225.1826171875 -4495.21044921875 10225.1396484375 -4495.24560546875 C 10222.68359375 -4497.99462890625 10221.3310546875 -4501.541015625 10221.3310546875 -4505.23193359375 C 10221.3310546875 -4509.23828125 10222.8916015625 -4513.00537109375 10225.7236328125 -4515.83935546875 C 10228.556640625 -4518.6728515625 10232.3232421875 -4520.23291015625 10236.3291015625 -4520.23291015625 C 10240.3359375 -4520.23291015625 10244.103515625 -4518.6728515625 10246.9365234375 -4515.83935546875 C 10249.76953125 -4513.005859375 10251.330078125 -4509.23828125 10251.330078125 -4505.23193359375 C 10251.330078125 -4501.54443359375 10249.978515625 -4497.99951171875 10247.525390625 -4495.25 C 10247.4794921875 -4495.2158203125 10247.431640625 -4495.1728515625 10247.3798828125 -4495.11962890625 C 10246.8291015625 -4494.541015625 10246.158203125 -4494.41943359375 10245.69140625 -4494.41943359375 Z" stroke="none" fill="#2d3239"/>
    </g>
    <g id="사각형_8000" data-name="사각형 8000" transform="translate(32.971 760.97) rotate(-45)" fill="none" stroke="#2d3239" stroke-width="1">
      <rect width="1.5" height="9" stroke="none"/>
      <rect x="0.5" y="0.5" width="0.5" height="8" fill="none"/>
    </g>
    <g id="사각형_8001" data-name="사각형 8001" transform="translate(43.58 755.767)" fill="none" stroke="#2d3239" stroke-width="1">
      <rect width="1.5" height="9" stroke="none"/>
      <rect x="0.5" y="0.5" width="0.5" height="8" fill="none"/>
    </g>
    <g id="사각형_8002" data-name="사각형 8002" transform="translate(54.555 759.984) rotate(45)" fill="none" stroke="#2d3239" stroke-width="1">
      <rect width="1.5" height="8.895" stroke="none"/>
      <rect x="0.5" y="0.5" width="0.5" height="7.895" fill="none"/>
    </g>
    <g id="사각형_8003" data-name="사각형 8003" transform="translate(50.831 770.768)" fill="none" stroke="#2d3239" stroke-width="1">
      <rect width="7.5" height="1.5" stroke="none"/>
      <rect x="0.5" y="0.5" width="6.5" height="0.5" fill="none"/>
    </g>
    <g id="사각형_8004" data-name="사각형 8004" transform="translate(29.831 770.768)" fill="none" stroke="#2d3239" stroke-width="1">
      <rect width="8" height="1.5" stroke="none"/>
      <rect x="0.5" y="0.5" width="7" height="0.5" fill="none"/>
    </g>
    <g id="타원_921" data-name="타원 921" transform="translate(41.33 767.768)" fill="#fff" stroke="#2d3239" stroke-width="1.5">
      <circle cx="3" cy="3" r="3" stroke="none"/>
      <circle cx="3" cy="3" r="2.25" fill="none"/>
    </g>
    <g id="사각형_8005" data-name="사각형 8005" transform="translate(48.321 759.768) rotate(22)" fill="none" stroke="#2d3239" stroke-width="1">
      <rect width="1.5" height="9.862" rx="0.75" stroke="none"/>
      <rect x="0.5" y="0.5" width="0.5" height="8.862" rx="0.25" fill="none"/>
    </g>
  </g>
</svg>
