<svg xmlns="http://www.w3.org/2000/svg" width="44" height="44" viewBox="0 0 44 44">
    <g data-name="그룹 13196">
        <g data-name="그룹 11899" transform="translate(8 8)">
            <g data-name="사각형 14112" style="stroke:#2d3239;stroke-width:1.5px;fill:#fff">
                <path d="M5 0h10a8 8 0 0 1 8 8v19a2 2 0 0 1-2 2H5a5 5 0 0 1-5-5V5a5 5 0 0 1 5-5z" style="stroke:none"/>
                <path d="M5 .75h10A7.25 7.25 0 0 1 22.25 8v19A1.25 1.25 0 0 1 21 28.25H5A4.25 4.25 0 0 1 .75 24V5A4.25 4.25 0 0 1 5 .75z" style="fill:none"/>
            </g>
            <g data-name="교차 25" style="fill:none">
                <path d="M4 8a4 4 0 0 1-4-4V0a8 8 0 0 1 8 8z" style="stroke:none" transform="translate(15)"/>
                <path d="M6.325 6.5A6.523 6.523 0 0 0 1.5 1.674V4c0 1.378 1.122 2.5 2.5 2.5h2.325M8 8H4a4 4 0 0 1-4-4V0a8 8 0 0 1 8 8z" style="fill:#2d3239;stroke:none" transform="translate(15)"/>
            </g>
            <rect data-name="사각형 6085" width="6.267" height="1.567" rx=".783" transform="translate(5.222 7.311)" style="fill:#2d3239"/>
            <rect data-name="사각형 6086" width="8.356" height="1.567" rx=".783" transform="translate(5.222 11.489)" style="fill:#2d3239"/>
        </g>
        <g data-name="그룹 14032">
            <path data-name="패스 12225" d="M0 2.127C.319 1.213 6.085-1 6.994-1s6.556 2.493 6.991 3.127-.412 5.473-1.645 7.819-4.272 4.691-5.346 4.691-4.15-2.525-5.346-4.691S-.315 3.042 0 2.127z" transform="translate(22.433 22.363)" style="fill:#fff"/>
            <path data-name="패스 12149" d="M-.006 1.932C.278 1.075 5.448-1 6.263-1s5.878 2.338 6.268 2.932-.37 5.133-1.475 7.33-4.088 4.4-4.793 4.4-3.721-2.367-4.793-4.4-1.759-6.473-1.476-7.33z" transform="translate(25.365 22.852)" style="fill:#7dedf3"/>
            <path data-name="패스 12150" d="m-10170 5361.367 2.018 2.053 3.357-3.42" transform="translate(10197.006 -5332.773)" style="stroke-linecap:round;stroke-linejoin:round;fill:none;stroke:#2d3239;stroke-width:1.5px"/>
            <g data-name="패스 12151" style="fill:none">
                <path d="M0 2.127C.319 1.213 6.085-1 6.994-1s6.556 2.493 6.991 3.127-.412 5.473-1.645 7.819-4.272 4.691-5.346 4.691-4.15-2.525-5.346-4.691S-.315 3.042 0 2.127z" style="stroke:none" transform="translate(22.433 22.363)"/>
                <path d="M6.981.51C6.617.586 5.54.913 4.068 1.517c-1.485.61-2.286 1.055-2.638 1.289.002.453.078 1.383.342 2.688.313 1.553.757 2.946 1.189 3.727.427.774 1.247 1.738 2.193 2.58.885.787 1.559 1.187 1.85 1.31.292-.115.958-.49 1.814-1.238.957-.835 1.757-1.791 2.195-2.624.44-.84.898-2.24 1.223-3.75.263-1.222.351-2.085.364-2.542-.46-.272-1.368-.74-2.628-1.297C8.443.982 7.358.599 6.982.51M6.993-1c.91 0 6.556 2.493 6.991 3.127.436.634-.412 5.475-1.645 7.819-1.232 2.343-4.271 4.69-5.346 4.69-1.074 0-4.15-2.524-5.346-4.69C.45 7.779-.315 3.042.002 2.127.319 1.213 6.085-1 6.994-1z" style="fill:#2d3239;stroke:none" transform="translate(22.433 22.363)"/>
            </g>
        </g>
    </g>
</svg>
