<svg xmlns="http://www.w3.org/2000/svg" width="36" height="36" viewBox="0 0 36 36">
  <g id="ic_car" transform="translate(-24 -407)">
    <path id="패스_12324" data-name="패스 12324" d="M0,0H36V36H0Z" transform="translate(24 407)" fill="none"/>
    <path id="패스_12325" data-name="패스 12325" d="M11.5,0C17.851,0,23,2.686,23,6s-5.149,6-11.5,6S0,9.314,0,6,5.149,0,11.5,0Z" transform="translate(31.51 416.249)" fill="#fff"/>
    <path id="패스_11006" data-name="패스 11006" d="M7.5,0h25A1.5,1.5,0,0,1,34,1.5V6a3,3,0,0,1-3,3H1.5A1.5,1.5,0,0,1,0,7.5,7.226,7.226,0,0,1,.584,3.667C1.7,1.583,4.642,0,7.5,0Z" transform="translate(24.51 420.249)" fill="#fff"/>
    <g id="합치기_175" data-name="합치기 175" transform="translate(10698.499 5960.249)" fill="none">
      <path d="M-10672.488-5529a1.5,1.5,0,0,1-1.5-1.5c0-1.283-.136-4.506.584-5.832,1.07-2,3.825-3.541,6.573-3.66.906-2.84,5.64-5.006,11.344-5.006s10.428,2.163,11.341,5h3.649a1.5,1.5,0,0,1,1.5,1.5v6.5a3,3,0,0,1-3,3Z" stroke="none"/>
      <path d="M -10641.998046875 -5530.5009765625 C -10641.171875 -5530.5009765625 -10640.5 -5531.1728515625 -10640.5 -5531.99853515625 L -10640.498046875 -5538.50048828125 L -10645.240234375 -5538.50048828125 L -10645.5751953125 -5539.54052734375 C -10645.8828125 -5540.49755859375 -10646.998046875 -5541.46435546875 -10648.6337890625 -5542.19287109375 C -10650.5234375 -5543.03515625 -10652.9580078125 -5543.4990234375 -10655.48828125 -5543.4990234375 C -10658.021484375 -5543.4990234375 -10660.45703125 -5543.03466796875 -10662.3486328125 -5542.19091796875 C -10663.984375 -5541.4609375 -10665.09765625 -5540.49365234375 -10665.4033203125 -5539.53662109375 L -10665.7216796875 -5538.53955078125 L -10666.7666015625 -5538.494140625 C -10668.9736328125 -5538.3984375 -10671.2587890625 -5537.1650390625 -10672.0830078125 -5535.62548828125 L -10672.0869140625 -5535.6171875 C -10672.1474609375 -5535.505859375 -10672.3525390625 -5535.03857421875 -10672.4462890625 -5533.705078125 C -10672.51171875 -5532.7763671875 -10672.5009765625 -5531.78466796875 -10672.4931640625 -5531.06103515625 C -10672.4912109375 -5530.85009765625 -10672.4892578125 -5530.6611328125 -10672.48828125 -5530.5009765625 L -10641.998046875 -5530.5009765625 M -10641.998046875 -5529.0009765625 L -10672.48828125 -5529.0009765625 C -10673.3193359375 -5529.0009765625 -10673.9892578125 -5529.6708984375 -10673.9892578125 -5530.50146484375 C -10673.9892578125 -5531.78466796875 -10674.125 -5535.00732421875 -10673.4052734375 -5536.3330078125 C -10672.3349609375 -5538.33447265625 -10669.580078125 -5539.87353515625 -10666.83203125 -5539.99267578125 C -10665.92578125 -5542.83251953125 -10661.1923828125 -5544.9990234375 -10655.48828125 -5544.9990234375 C -10649.7900390625 -5544.9990234375 -10645.060546875 -5542.83642578125 -10644.1474609375 -5540.00048828125 L -10640.498046875 -5540.00048828125 C -10639.669921875 -5540.00048828125 -10639 -5539.328125 -10639 -5538.50048828125 L -10639 -5531.99853515625 C -10639 -5530.34326171875 -10640.3427734375 -5529.0009765625 -10641.998046875 -5529.0009765625 Z" stroke="none" fill="#2d3239"/>
    </g>
    <path id="패스_11005" data-name="패스 11005" d="M5.479-.228c4,.088,6.15,1,7.332,1.708s-.016.141-1.795,2.542H-1.875C-1.875,3.615,1.481-.316,5.479-.228Z" transform="translate(38.053 417.268)" fill="#7dedf3"/>
    <g id="패스_12327" data-name="패스 12327" transform="translate(43.262 415.666) rotate(90)" fill="none">
      <path d="M.75,0h13.5a.75.75,0,0,1,0,1.5H.75A.75.75,0,0,1,.75,0Z" stroke="none"/>
      <path d="M 0.75 0 L 14.25 0 C 14.66421031951904 0 15 0.3357900381088257 15 0.75 C 15 1.164209961891174 14.66421031951904 1.5 14.25 1.5 L 0.75 1.5 C 0.335789680480957 1.5 0 1.164209961891174 0 0.75 C 0 0.3357900381088257 0.335789680480957 0 0.75 0 Z" stroke="none" fill="#2d3239"/>
    </g>
    <g id="패스_12328" data-name="패스 12328" transform="translate(28.512 426.749)" fill="#fff">
      <path d="M 4 7.25 C 2.207940101623535 7.25 0.75 5.792059898376465 0.75 4 C 0.75 2.207940101623535 2.207940101623535 0.75 4 0.75 C 5.792059898376465 0.75 7.25 2.207940101623535 7.25 4 C 7.25 5.792059898376465 5.792059898376465 7.25 4 7.25 Z" stroke="none"/>
      <path d="M 4 1.5 C 2.621500015258789 1.5 1.5 2.621500015258789 1.5 4 C 1.5 5.378499984741211 2.621500015258789 6.5 4 6.5 C 5.378499984741211 6.5 6.5 5.378499984741211 6.5 4 C 6.5 2.621500015258789 5.378499984741211 1.5 4 1.5 M 4 0 C 6.209139823913574 0 8 1.790860176086426 8 4 C 8 6.209139823913574 6.209139823913574 8 4 8 C 1.790860176086426 8 0 6.209139823913574 0 4 C 0 1.790860176086426 1.790860176086426 0 4 0 Z" stroke="none" fill="#2d3239"/>
    </g>
    <g id="패스_12329" data-name="패스 12329" transform="translate(47.512 426.749)" fill="#fff">
      <path d="M 4 7.25 C 2.207940101623535 7.25 0.75 5.792059898376465 0.75 4 C 0.75 2.207940101623535 2.207940101623535 0.75 4 0.75 C 5.792059898376465 0.75 7.25 2.207940101623535 7.25 4 C 7.25 5.792059898376465 5.792059898376465 7.25 4 7.25 Z" stroke="none"/>
      <path d="M 4 1.5 C 2.621500015258789 1.5 1.5 2.621500015258789 1.5 4 C 1.5 5.378499984741211 2.621500015258789 6.5 4 6.5 C 5.378499984741211 6.5 6.5 5.378499984741211 6.5 4 C 6.5 2.621500015258789 5.378499984741211 1.5 4 1.5 M 4 0 C 6.209139823913574 0 8 1.790860176086426 8 4 C 8 6.209139823913574 6.209139823913574 8 4 8 C 1.790860176086426 8 0 6.209139823913574 0 4 C 0 1.790860176086426 1.790860176086426 0 4 0 Z" stroke="none" fill="#2d3239"/>
    </g>
    <g id="패스_12330" data-name="패스 12330" transform="translate(31.512 429.749)" fill="#fff">
      <path d="M 1 1.25 C 0.8621500134468079 1.25 0.75 1.137850046157837 0.75 1 C 0.75 0.8621500134468079 0.8621500134468079 0.75 1 0.75 C 1.137850046157837 0.75 1.25 0.8621500134468079 1.25 1 C 1.25 1.137850046157837 1.137850046157837 1.25 1 1.25 Z" stroke="none"/>
      <path d="M 1 0 C 1.552279949188232 0 2 0.4477200508117676 2 1 C 2 1.552279949188232 1.552279949188232 2 1 2 C 0.4477200508117676 2 0 1.552279949188232 0 1 C 0 0.4477200508117676 0.4477200508117676 0 1 0 Z" stroke="none" fill="#2d3239"/>
    </g>
    <g id="패스_12331" data-name="패스 12331" transform="translate(50.512 429.749)" fill="#fff">
      <path d="M 1 1.25 C 0.8621500134468079 1.25 0.75 1.137850046157837 0.75 1 C 0.75 0.8621500134468079 0.8621500134468079 0.75 1 0.75 C 1.137850046157837 0.75 1.25 0.8621500134468079 1.25 1 C 1.25 1.137850046157837 1.137850046157837 1.25 1 1.25 Z" stroke="none"/>
      <path d="M 1 0 C 1.552279949188232 0 2 0.4477200508117676 2 1 C 2 1.552279949188232 1.552279949188232 2 1 2 C 0.4477200508117676 2 0 1.552279949188232 0 1 C 0 0.4477200508117676 0.4477200508117676 0 1 0 Z" stroke="none" fill="#2d3239"/>
    </g>
    <g id="패스_12332" data-name="패스 12332" transform="translate(35.512 423.208)" fill="#fff">
      <path d="M.75,0h2.5a.75.75,0,0,1,0,1.5H.75A.75.75,0,0,1,.75,0Z" stroke="none"/>
      <path d="M 0.75 0 L 3.25 0 C 3.664210081100464 0 4 0.3357900381088257 4 0.75 C 4 1.164209961891174 3.664210081100464 1.5 3.25 1.5 L 0.75 1.5 C 0.3357899188995361 1.5 0 1.164209961891174 0 0.75 C 0 0.3357900381088257 0.3357899188995361 0 0.75 0 Z" stroke="none" fill="#2d3239"/>
    </g>
    <g id="패스_12333" data-name="패스 12333" transform="translate(55.5 423.208)" fill="#fff">
      <path d="M.75,0h2.5a.75.75,0,0,1,0,1.5H.75A.75.75,0,0,1,.75,0Z" stroke="none"/>
      <path d="M 0.75 0 L 3.25 0 C 3.664210081100464 0 4 0.3357900381088257 4 0.75 C 4 1.164209961891174 3.664210081100464 1.5 3.25 1.5 L 0.75 1.5 C 0.3357899188995361 1.5 0 1.164209961891174 0 0.75 C 0 0.3357900381088257 0.3357899188995361 0 0.75 0 Z" stroke="none" fill="#2d3239"/>
    </g>
    <path id="패스_11007" data-name="패스 11007" d="M18507.166-9048.25h17.584l2.822-1.835" transform="translate(-18474.488 9469.249)" fill="none" stroke="#2d3239" stroke-width="1.5"/>
  </g>
</svg>
