<svg xmlns="http://www.w3.org/2000/svg" width="27" height="27" viewBox="0 0 27 27">
    <defs>
        <style>
            .cls-3,.cls-5,.cls-7{fill:none}.cls-3,.cls-5{stroke:#111;stroke-width:1.5px}.cls-5{stroke-linecap:round}.cls-6{stroke:none}
        </style>
    </defs>
    <g id="card_d_s_ic_01" transform="translate(-74 -166)">
        <g id="그룹_11808" data-name="그룹 11808" transform="translate(-170 -1052)">
            <rect id="사각형_7186" data-name="사각형 7186" width="27" height="27" rx="8" transform="translate(244 1218)" style="fill:#f5f6f8"/>
        </g>
        <path id="사각형_14083" data-name="사각형 14083" transform="translate(80 172)" style="fill:transparent" d="M0 0h15v15H0z"/>
        <g id="사각형_14079" data-name="사각형 14079" class="cls-3" transform="rotate(180 47.25 91.75)">
            <rect class="cls-6" width="14" height="11" rx="2"/>
            <rect class="cls-7" x=".75" y=".75" width="12.5" height="9.5" rx="1.25"/>
        </g>
        <g id="사각형_14080" data-name="사각형 14080" class="cls-3" transform="rotate(180 46.25 93.25)">
            <rect class="cls-6" width="10" height="1.5" rx=".75"/>
            <rect class="cls-7" x=".75" y=".75" width="8.5"/>
        </g>
        <g id="사각형_14082" data-name="사각형 14082" class="cls-3" transform="rotate(90 -47.15 135.4)">
            <rect class="cls-6" width="3.748" height="1.5" rx=".75"/>
            <rect class="cls-7" x=".75" y=".75" width="2.248"/>
        </g>
        <path id="패스_12151" data-name="패스 12151" d="m1358.917 173.577 1.34 3.462 1.381-3.462 1.433 3.462 1.227-3.462" transform="translate(-1274.107 2.7)" style="stroke-linejoin:round;stroke-linecap:round;stroke:#111;stroke-width:1.5px;fill:none"/>
        <path id="선_308" data-name="선 308" class="cls-5" transform="translate(84.445 178.008)" d="M0 0h.365"/>
        <path id="선_314" data-name="선 314" class="cls-5" transform="translate(90.191 178.008)" d="M0 0h.365"/>
    </g>
</svg>
