<svg xmlns="http://www.w3.org/2000/svg" xmlns:xlink="http://www.w3.org/1999/xlink" width="28" height="28" viewBox="0 0 28 28">
  <defs>
    <clipPath id="clip-path">
      <rect id="사각형_18188" data-name="사각형 18188" width="28" height="28" transform="translate(243 554)" fill="#fff"/>
    </clipPath>
    <linearGradient id="linear-gradient" x1="0.1" y1="0.894" x2="0.687" gradientUnits="objectBoundingBox">
      <stop offset="0" stop-color="#54c3be" stop-opacity="0.502"/>
      <stop offset="1" stop-color="#d8f3f2" stop-opacity="0.4"/>
    </linearGradient>
    <filter id="합치기_384" x="3.871" y="14.5" width="15.258" height="11" filterUnits="userSpaceOnUse">
      <feOffset dy="1" input="SourceAlpha"/>
      <feGaussianBlur stdDeviation="0.5" result="blur"/>
      <feFlood flood-color="#008882" flood-opacity="0.302"/>
      <feComposite operator="in" in2="blur"/>
      <feComposite in="SourceGraphic"/>
    </filter>
  </defs>
  <g id="tab_ic_04_s" transform="translate(-243 -554)">
    <g id="tab_ic_04_s-2" data-name="tab_ic_04_s" clip-path="url(#clip-path)">
      <path id="합치기_386" data-name="합치기 386" d="M-226.333,449.052A6.668,6.668,0,0,1-233,442.385v-.175a10,10,0,0,1,6.623-9.415,3.311,3.311,0,0,1-.833-2.14v-.663A1.9,1.9,0,0,1-225.4,428h4.812a1.9,1.9,0,0,1,1.8,1.992v.663a3.442,3.442,0,0,1-.808,2.15,10,10,0,0,1,6.6,9.406v.175a6.667,6.667,0,0,1-6.666,6.667Z" transform="translate(672.887 298.25) rotate(30)" fill="#00a49d"/>
      <g id="그룹_14709" data-name="그룹 14709" transform="translate(5487 22857)">
        <g id="합치기_385" data-name="합치기 385" transform="translate(-5009.5 -22725)" fill="url(#linear-gradient)">
          <path d="M-226.333,449.052A6.667,6.667,0,0,1-233,442.386v-.176a10,10,0,0,1,6.623-9.415,3.311,3.311,0,0,1-.833-2.14v-.663A1.9,1.9,0,0,1-225.4,428h4.812a1.9,1.9,0,0,1,1.8,1.992v.663a3.443,3.443,0,0,1-.807,2.15,10,10,0,0,1,6.6,9.405v.176a6.666,6.666,0,0,1-6.666,6.666Z" stroke="none"/>
          <path d="M -219.6666107177734 448.5523071289062 C -216.2665100097656 448.5523071289062 -213.5003051757812 445.7861022949219 -213.5003051757812 442.3860168457031 L -213.5003051757812 442.2105102539062 C -213.5003051757812 440.2191162109375 -214.1095886230469 438.3128662109375 -215.2622985839844 436.6978454589844 C -216.3907470703125 435.1168518066406 -217.9480285644531 433.933349609375 -219.7658081054688 433.2752990722656 L -220.4240570068359 433.0369873046875 L -219.9851226806641 432.4916381835938 C -219.6671905517578 432.0966491699219 -219.2882080078125 431.4574279785156 -219.2882080078125 430.6553955078125 L -219.2882080078125 429.9920959472656 C -219.2882080078125 429.1695556640625 -219.8733978271484 428.5003967285156 -220.5927124023438 428.5003967285156 L -225.4049987792969 428.5003967285156 C -226.1242980957031 428.5003967285156 -226.7095031738281 429.1695556640625 -226.7095031738281 429.9920959472656 L -226.7095031738281 430.6553955078125 C -226.7095031738281 431.2947387695312 -226.4685363769531 431.9066162109375 -225.9933013916016 432.4740295410156 L -225.5329437255859 433.023681640625 L -226.2078094482422 433.2657165527344 C -229.9714202880859 434.6156005859375 -232.5001068115234 438.2102355957031 -232.5001068115234 442.2105102539062 L -232.5001068115234 442.3860168457031 C -232.5001068115234 445.7861022949219 -229.7335205078125 448.5523071289062 -226.3329010009766 448.5523071289062 L -219.6666107177734 448.5523071289062 M -219.6666107177734 449.0523071289062 L -226.3329010009766 449.0523071289062 C -230.0148010253906 449.0523071289062 -233.0001068115234 446.0679016113281 -233.0001068115234 442.3860168457031 L -233.0001068115234 442.2105102539062 C -233.0001068115234 437.8728637695312 -230.2380065917969 434.1800231933594 -226.3766174316406 432.7950744628906 C -226.9080657958984 432.1605529785156 -227.2095031738281 431.43408203125 -227.2095031738281 430.6553955078125 L -227.2095031738281 429.9920959472656 C -227.2095031738281 428.8914184570312 -226.4013061523438 428.0003967285156 -225.4049987792969 428.0003967285156 L -220.5927124023438 428.0003967285156 C -219.5964050292969 428.0003967285156 -218.7882080078125 428.8914184570312 -218.7882080078125 429.9920959472656 L -218.7882080078125 430.6553955078125 C -218.7882080078125 431.4519348144531 -219.1038208007812 432.1941223144531 -219.5956115722656 432.8051452636719 C -215.7486267089844 434.1978149414062 -213.0003051757812 437.8833312988281 -213.0003051757812 442.2105102539062 L -213.0003051757812 442.3860168457031 C -213.0003051757812 446.0679016113281 -215.9847106933594 449.0523071289062 -219.6666107177734 449.0523071289062 Z" stroke="none" fill="rgba(255,255,255,0.2)"/>
        </g>
        <g transform="matrix(1, 0, 0, 1, -5244, -22303)" filter="url(#합치기_384)">
          <path id="합치기_384-2" data-name="합치기 384" d="M7.817,7.483,6.126,3.049,4.435,7.483a.766.766,0,0,1-.781.51.79.79,0,0,1-.732-.58l-.9-3.147H.8a.8.8,0,0,1,0-1.6h.766l-.47-1.648A.8.8,0,0,1,1.642.029a.809.809,0,0,1,.991.552L3.8,4.666,5.381.515a.827.827,0,0,1,1.489,0L8.457,4.666,9.619.581a.809.809,0,0,1,.99-.552.8.8,0,0,1,.547.989l-.471,1.648h.772a.8.8,0,0,1,0,1.6H10.23l-.9,3.147a.788.788,0,0,1-.732.58A.074.074,0,0,1,8.561,8,.8.8,0,0,1,7.817,7.483Z" transform="translate(5.37 15)" fill="#fff"/>
        </g>
      </g>
    </g>
  </g>
</svg>
