<svg xmlns="http://www.w3.org/2000/svg" width="28" height="28" viewBox="0 0 28 28">
  <g id="tab_ic_04_n" transform="translate(-238 -474)">
    <rect id="사각형_7865" data-name="사각형 7865" width="28" height="28" transform="translate(238 474)" fill="none"/>
    <g id="그룹_14742" data-name="그룹 14742" transform="translate(0 102)">
      <rect id="사각형_7864" data-name="사각형 7864" width="24" height="24" transform="translate(240 374)" fill="none"/>
      <g id="그룹_14709" data-name="그룹 14709" transform="translate(5485 22672)">
        <path id="패스_13882" data-name="패스 13882" d="M5.286,0H.714A1.81,1.81,0,0,0-1,1.892v.631A3.785,3.785,0,0,0,1.08,5.638a5.759,5.759,0,0,0,3.564.145A3.787,3.787,0,0,0,7,2.523V1.892A1.81,1.81,0,0,0,5.286,0Z" transform="translate(-5235.499 -22296)" fill="#a2a2a2"/>
        <path id="사각형_18006" data-name="사각형 18006" d="M9.6,0h.8A9.6,9.6,0,0,1,20,9.6v0A6.4,6.4,0,0,1,13.6,16H6.4A6.4,6.4,0,0,1,0,9.6v0A9.6,9.6,0,0,1,9.6,0Z" transform="translate(-5242.5 -22292)" fill="#a2a2a2"/>
        <path id="합치기_387" data-name="합치기 387" d="M7.817,7.483,6.126,3.049,4.435,7.483a.766.766,0,0,1-.781.51.79.79,0,0,1-.732-.58l-.9-3.147H.8a.8.8,0,0,1,0-1.6h.766l-.47-1.648A.8.8,0,0,1,1.642.029a.809.809,0,0,1,.991.552L3.8,4.666,5.381.515a.827.827,0,0,1,1.489,0L8.457,4.666,9.619.581a.809.809,0,0,1,.99-.552.8.8,0,0,1,.547.989l-.471,1.648h.772a.8.8,0,0,1,0,1.6H10.23l-.9,3.147a.788.788,0,0,1-.732.58A.074.074,0,0,1,8.561,8,.8.8,0,0,1,7.817,7.483Z" transform="translate(-5238.629 -22287.5)" fill="#fff"/>
      </g>
    </g>
  </g>
</svg>
