<svg xmlns="http://www.w3.org/2000/svg" width="28" height="28" viewBox="0 0 28 28">
  <g id="tab_ic_01_n" transform="translate(-22 -314)">
    <rect id="사각형_18025" data-name="사각형 18025" width="28" height="28" transform="translate(22 314)" fill="none"/>
    <g id="그룹_14736" data-name="그룹 14736" transform="translate(-2.04 -33)">
      <path id="패스_13886" data-name="패스 13886" d="M409.811,79.657a9.872,9.872,0,1,0,19.744,0,5.6,5.6,0,0,0-.531-2.37c-.849-1.79-1.8-2.663-1.7-4.814.128-2.9-3.592-2.938-5.6-2.938a14.532,14.532,0,0,0-6.473,1.292,9.86,9.86,0,0,0-5.446,8.6v.226" transform="translate(-381.771 281.465)" fill="#a2a2a2"/>
    </g>
    <g id="그룹_14750" data-name="그룹 14750" transform="translate(0.351 2.25)">
      <circle id="타원_2316" data-name="타원 2316" cx="1.25" cy="1.25" r="1.25" transform="translate(31.399 323)" fill="#fff"/>
      <circle id="타원_2317" data-name="타원 2317" cx="1.25" cy="1.25" r="1.25" transform="translate(37.399 323)" fill="#fff"/>
    </g>
    <g id="그룹_14751" data-name="그룹 14751" transform="translate(32.55 329.75)">
      <path id="패스_13893" data-name="패스 13893" d="M3.522,3A4,4,0,0,1,.11,1.11a.721.721,0,0,1,.248-1A.758.758,0,0,1,1.384.349a2.511,2.511,0,0,0,2.138,1.19A2.515,2.515,0,0,0,5.625.4.758.758,0,0,1,6.658.186.721.721,0,0,1,6.88,1.2,4.012,4.012,0,0,1,3.522,3" transform="translate(0 0)" fill="#fff"/>
    </g>
  </g>
</svg>
