<svg xmlns="http://www.w3.org/2000/svg" width="28" height="28" viewBox="0 0 28 28">
  <g id="tab_ic_02_n" transform="translate(-94 -205)">
    <rect id="사각형_17998" data-name="사각형 17998" width="28" height="28" transform="translate(94 205)" fill="none"/>
    <g id="그룹_14698" data-name="그룹 14698" transform="translate(4 -3.5)">
      <path id="패스_13876" data-name="패스 13876" d="M5,0H15a5,5,0,0,1,5,5V15a5,5,0,0,1-5,5H5a5,5,0,0,1-5-5V5A5,5,0,0,1,5,0Z" transform="translate(94 212.5)" fill="#a2a2a2"/>
      <g id="그룹_14696" data-name="그룹 14696" transform="translate(-121.025 -2981)">
        <path id="사각형_7232" d="M0,0H1.5V20H0Z" transform="translate(224.025 3193.5)" fill="#fff"/>
        <path id="사각형_7232-2" data-name="사각형_7232" d="M0,0H1.5V5.679H0Z" transform="translate(220.704 3202.75) rotate(90)" fill="#fff"/>
        <path id="사각형_7232-3" data-name="사각형_7232" d="M0,0H1.5V6H0Z" transform="translate(235.025 3202.75) rotate(90)" fill="#fff"/>
        <g id="그룹_14697" data-name="그룹 14697">
          <g id="패스_3185" transform="translate(-0.809 5.695)">
            <path id="패스_13862" data-name="패스 13862" d="M2.25,7A2.293,2.293,0,0,0,4.5,4.667C4.5,1.045,2.25,0,2.25,0S0,1.045,0,4.667A2.293,2.293,0,0,0,2.25,7Z" transform="matrix(-0.643, 0.766, -0.766, -0.643, 227.089, 3198.553)" fill="none"/>
            <path id="패스_13863" data-name="패스 13863" d="M2.25,5.5a.71.71,0,0,0,.511-.225A.868.868,0,0,0,3,4.667a4.434,4.434,0,0,0-.75-2.693A4.494,4.494,0,0,0,1.5,4.667a.8.8,0,0,0,.75.833m0,1.5A2.293,2.293,0,0,1,0,4.667C0,1.045,2.25,0,2.25,0S4.5,1.045,4.5,4.667A2.293,2.293,0,0,1,2.25,7Z" transform="matrix(-0.643, 0.766, -0.766, -0.643, 227.339, 3198.553)" fill="#fff"/>
          </g>
          <g id="패스_3186" transform="translate(0.064 5.695)">
            <path id="패스_13864" data-name="패스 13864" d="M2.25,0A2.293,2.293,0,0,1,4.5,2.333C4.5,5.955,2.25,7,2.25,7S0,5.955,0,2.333A2.293,2.293,0,0,1,2.25,0Z" transform="matrix(0.643, 0.766, -0.766, 0.643, 228.324, 3194.053)" fill="none"/>
            <path id="패스_13865" data-name="패스 13865" d="M2.25,1.5a.8.8,0,0,0-.75.833,4.423,4.423,0,0,0,.75,2.692A4.423,4.423,0,0,0,3,2.333a.867.867,0,0,0-.239-.608A.712.712,0,0,0,2.25,1.5m0-1.5A2.293,2.293,0,0,1,4.5,2.333C4.5,5.955,2.25,7,2.25,7S0,5.955,0,2.333A2.293,2.293,0,0,1,2.25,0Z" transform="matrix(0.643, 0.766, -0.766, 0.643, 228.324, 3194.053)" fill="#fff"/>
          </g>
        </g>
      </g>
    </g>
  </g>
</svg>
