<?xml version="1.0" encoding="utf-8"?>
<!-- Generator: Adobe Illustrator 26.1.0, SVG Export Plug-In . SVG Version: 6.00 Build 0)  -->
<svg version="1.1" id="Layer_1" xmlns="http://www.w3.org/2000/svg" xmlns:xlink="http://www.w3.org/1999/xlink" x="0px" y="0px"
	 viewBox="0 0 44 44" style="enable-background:new 0 0 44 44;" xml:space="preserve">
<style type="text/css">
	.st0{fill:#FFFFFF;}
	.st1{fill:none;stroke:#2D3239;stroke-width:1.5;}
	.st2{fill:#2D3239;}
	.st3{fill:#7DEDF3;}
	.st4{fill:none;}
</style>
<g transform="rotate(180 19 16)">
	<path class="st0" d="M5,0h22c2.8,0,5,2.2,5,5v14c0,2.8-2.2,5-5,5H5c-2.8,0-5-2.2-5-5V5C0,2.2,2.2,0,5,0z"/>
	<path class="st1" d="M5,0.8h22c2.3,0,4.2,1.9,4.2,4.2v14c0,2.3-1.9,4.2-4.2,4.2H5c-2.3,0-4.2-1.9-4.2-4.2V5C0.8,2.7,2.7,0.8,5,0.8z
		"/>
</g>
<path class="st2" d="M28.8,38H15.2c-0.4,0-0.8-0.3-0.8-0.8l0,0c0-0.4,0.3-0.8,0.8-0.8h13.5c0.4,0,0.8,0.3,0.8,0.8l0,0
	C29.5,37.7,29.2,38,28.8,38z"/>
<path class="st2" d="M22.8,31.8v4.4c0,0.4-0.3,0.8-0.8,0.8l0,0c-0.4,0-0.8-0.3-0.8-0.8v-4.4c0-0.4,0.3-0.8,0.8-0.8l0,0
	C22.4,31.1,22.8,31.4,22.8,31.8z"/>
<path class="st0" d="M17.5,5h8c2.8,0,5,2.2,5,5v10c0,2.8-2.2,5-5,5h-8c-2.8,0-5-2.2-5-5V10C12.5,7.2,14.7,5,17.5,5z"/>
<path class="st3" d="M20.5,5h6c2.8,0,5,2.2,5,5v10c0,2.8-2.2,5-5,5h-6c-2.8,0-5-2.2-5-5V10C15.5,7.2,17.7,5,20.5,5z"/>
<g transform="translate(12.5 5)">
	<path class="st4" d="M5,0h8c2.8,0,5,2.2,5,5v10c0,2.8-2.2,5-5,5H5c-2.8,0-5-2.2-5-5V5C0,2.2,2.2,0,5,0z"/>
	<path class="st1" d="M5,0.8h8c2.3,0,4.2,1.9,4.2,4.2v10c0,2.3-1.9,4.2-4.2,4.2H5c-2.3,0-4.2-1.9-4.2-4.2V5C0.8,2.7,2.7,0.8,5,0.8z"
		/>
</g>
<g transform="translate(15.5 9.1)">
	<path class="st4" d="M2,0h2c1.1,0,2,0.9,2,2l0,0c0,1.1-0.9,2-2,2H2C0.9,4,0,3.1,0,2l0,0C0,0.9,0.9,0,2,0z"/>
	<path class="st1" d="M2,0.8h2c0.7,0,1.2,0.6,1.2,1.3l0,0c0,0.7-0.6,1.2-1.2,1.2H2C1.3,3.3,0.8,2.7,0.8,2l0,0C0.8,1.3,1.3,0.8,2,0.8
		z"/>
</g>
<path class="st2" d="M16.8,14.9h4.5c0.4,0,0.8,0.3,0.8,0.8l0,0c0,0.4-0.3,0.7-0.8,0.7h-4.5c-0.4,0-0.8-0.3-0.8-0.7l0,0
	C16.1,15.2,16.4,14.9,16.8,14.9z"/>
<path class="st2" d="M16.8,18.2h6.5c0.4,0,0.8,0.3,0.8,0.8l0,0c0,0.4-0.3,0.8-0.8,0.8h-6.5c-0.4,0-0.8-0.3-0.8-0.8l0,0
	C16,18.5,16.4,18.2,16.8,18.2z"/>
</svg>
