<svg xmlns="http://www.w3.org/2000/svg" width="90" height="90">
    <defs>
        <style>
            .cls-1{fill:#f8f8f8}.cls-2,.cls-4{fill:#fff}.cls-2,.cls-5{stroke:#2d3239;stroke-width:2px}.cls-3{fill:#2d3239}.cls-5,.cls-8{fill:none}.cls-7{stroke:none}
        </style>
    </defs>
    <g id="ic_find_error" transform="translate(-135 -164)">
        <circle id="타원_1315" data-name="타원 1315" class="cls-1" cx="45" cy="45" r="45" transform="translate(135 164)"/>
        <g id="그룹_8077" data-name="그룹 8077" transform="translate(2)">
            <g id="사각형_11123" data-name="사각형 11123" class="cls-2" transform="translate(157 186)">
                <rect class="cls-7" width="33" height="40" rx="6"/>
                <rect class="cls-8" x="1" y="1" width="31" height="38" rx="5"/>
            </g>
            <g id="사각형_11100" data-name="사각형 11100" class="cls-2" transform="translate(163 192)">
                <rect class="cls-7" width="33" height="40" rx="6"/>
                <rect class="cls-8" x="1" y="1" width="31" height="38" rx="5"/>
            </g>
            <rect id="사각형_6085" data-name="사각형 6085" class="cls-3" width="17" height="2" rx="1" transform="translate(171 218)"/>
            <rect id="사각형_6086" data-name="사각형 6086" class="cls-3" width="12" height="2" rx="1" transform="translate(171 223)"/>
            <path id="사각형_11101" data-name="사각형 11101" class="cls-4" transform="translate(192 206)" d="M0 0h4v15H0z"/>
            <rect id="사각형_11102" data-name="사각형 11102" class="cls-3" width="2" height="4" rx="1" transform="translate(194 203)"/>
            <g id="타원_878" data-name="타원 878" class="cls-5" transform="translate(174.5 197)">
                <circle class="cls-7" cx="4.5" cy="4.5" r="4.5"/>
                <circle class="cls-8" cx="4.5" cy="4.5" r="3.5"/>
            </g>
            <g id="사각형_7242" data-name="사각형 7242" class="cls-5">
                <path class="cls-7" d="M4 0h8a4 4 0 0 1 4 4v5.5H0V4a4 4 0 0 1 4-4z" transform="translate(171 207.5)"/>
                <path class="cls-8" d="M4 1h8a3 3 0 0 1 3 3v3.5a1 1 0 0 1-1 1H2a1 1 0 0 1-1-1V4a3 3 0 0 1 3-3z" transform="translate(171 207.5)"/>
            </g>
            <path id="사각형_11124" data-name="사각형 11124" class="cls-4" transform="translate(171 214)" d="M0 0h16v3H0z"/>
            <circle id="타원_1320" data-name="타원 1320" class="cls-3" cx="1" cy="1" r="1" transform="translate(171 213)"/>
            <circle id="타원_1321" data-name="타원 1321" class="cls-3" cx="1" cy="1" r="1" transform="translate(185 213)"/>
            <g id="타원_1318" data-name="타원 1318" transform="translate(184 210)" style="fill:#ffd1dc;stroke:#fff;stroke-width:2px">
                <circle class="cls-7" cx="8" cy="8" r="8"/>
                <circle class="cls-8" cx="8" cy="8" r="9"/>
            </g>
            <path id="사각형_11128" data-name="사각형 11128" class="cls-1" transform="translate(196 208)" d="M0 0h7v4H0z"/>
            <g id="타원_1317" data-name="타원 1317" class="cls-5" transform="translate(186 210)">
                <circle class="cls-7" cx="8.5" cy="8.5" r="8.5"/>
                <circle class="cls-8" cx="8.5" cy="8.5" r="7.5"/>
            </g>
            <rect id="사각형_11126" data-name="사각형 11126" class="cls-3" width="2" height="9" rx="1" transform="rotate(45 -160.846 345.74)"/>
            <rect id="사각형_11127" data-name="사각형 11127" class="cls-3" width="1.999" height="8.999" rx="1" transform="rotate(135 53.543 151.85)"/>
        </g>
    </g>
</svg>
