<svg xmlns="http://www.w3.org/2000/svg" width="44" height="44" viewBox="0 0 44 44">
    <defs>
        <style>
            .cls-3{fill:#fff}.cls-11,.cls-4{fill:none}.cls-3,.cls-4{stroke:#2d3239}.cls-3{stroke-width:1.5px}.cls-6{fill:#2d3239}.cls-10,.cls-9{stroke:none}.cls-10{fill:#2d3239}
        </style>
    </defs>
    <g id="ic_fax" transform="translate(-24 -514)">
        <g id="그룹_9457" data-name="그룹 9457">
            <g id="그룹_9456" data-name="그룹 9456">
                <g id="그룹_9452" data-name="그룹 9452" transform="translate(0 .75)">
                    <g id="패스_10991" data-name="패스 10991" style="fill:none">
                        <path class="cls-9" d="M4 0h18a3.881 3.881 0 0 1 4 3.75v7.5A3.881 3.881 0 0 1 22 15H4a3.881 3.881 0 0 1-4-3.75v-7.5A3.881 3.881 0 0 1 4 0z" transform="translate(33 529)"/>
                        <path class="cls-10" d="M4 1.5c-1.378 0-2.5 1.01-2.5 2.25v7.5c0 1.24 1.122 2.25 2.5 2.25h18c1.378 0 2.5-1.01 2.5-2.25v-7.5c0-1.24-1.122-2.25-2.5-2.25H4M4 0h18c2.21 0 4 1.679 4 3.75v7.5c0 2.071-1.79 3.75-4 3.75H4c-2.21 0-4-1.679-4-3.75v-7.5C0 1.679 1.79 0 4 0z" transform="translate(33 529)"/>
                    </g>
                    <g id="사각형_11963" data-name="사각형 11963" class="cls-3">
                        <path class="cls-9" d="M3 0h7a6 6 0 0 1 6 6v2H0V3a3 3 0 0 1 3-3z" transform="translate(38 522.5)"/>
                        <path class="cls-11" d="M3 .75h7A5.25 5.25 0 0 1 15.25 6v.5a.75.75 0 0 1-.75.75h-13a.75.75 0 0 1-.75-.75V3A2.25 2.25 0 0 1 3 .75z" transform="translate(38 522.5)"/>
                    </g>
                    <g id="사각형_11964" data-name="사각형 11964" class="cls-3">
                        <path class="cls-9" d="M0 0h16v7a3 3 0 0 1-3 3H3a3 3 0 0 1-3-3V0z" transform="translate(38 539)"/>
                        <path class="cls-11" d="M1.5.75h13a.75.75 0 0 1 .75.75V7A2.25 2.25 0 0 1 13 9.25H3A2.25 2.25 0 0 1 .75 7V1.5A.75.75 0 0 1 1.5.75z" transform="translate(38 539)"/>
                    </g>
                    <g id="사각형_11969" data-name="사각형 11969" class="cls-4" transform="rotate(90 -241.5 297.5)">
                        <rect class="cls-9" width="1.5" height="20" rx=".75"/>
                        <rect class="cls-11" x=".5" y=".5" width=".5" height="19" rx=".25"/>
                    </g>
                    <g id="그룹_9454" data-name="그룹 9454" transform="translate(0 -.25)">
                        <g id="사각형_11486" data-name="사각형 11486" class="cls-4" transform="matrix(0 1 -1 0 49 542.25)">
                            <rect class="cls-9" width="1.5" height="6" rx=".75"/>
                            <rect class="cls-11" x=".5" y=".5" width=".5" height="5" rx=".25"/>
                        </g>
                        <g id="사각형_11965" data-name="사각형 11965" class="cls-4" transform="matrix(0 1 -1 0 49 544.75)">
                            <rect class="cls-9" width="1.5" height="6" rx=".75"/>
                            <rect class="cls-11" x=".5" y=".5" width=".5" height="5" rx=".25"/>
                        </g>
                    </g>
                    <g id="교차_1" data-name="교차 1" style="fill:#fff">
                        <path class="cls-9" d="M-23960.902 10229.25h-3.096c-.691 0-1.254-.56-1.254-1.248v-2.004c0-.24.066-.467.193-.664a5.247 5.247 0 0 1 4.157 3.916z" transform="translate(24013.906 -9702)"/>
                        <path class="cls-10" d="M-23961.969 10228.5a4.499 4.499 0 0 0-2.533-2.245v1.747c0 .274.227.498.504.498h2.03m1.945 1.5h-3.975a2.002 2.002 0 0 1-2.004-1.998v-2.004c0-.577.248-1.099.643-1.464a5.995 5.995 0 0 1 5.336 5.466z" transform="translate(24013.906 -9702)"/>
                    </g>
                </g>
                <circle id="타원_1434" data-name="타원 1434" class="cls-6" cx="1" cy="1" r="1" transform="translate(37 535)"/>
                <circle id="타원_1435" data-name="타원 1435" class="cls-6" cx="1" cy="1" r="1" transform="translate(41 535)"/>
            </g>
            <g id="그룹_9455" data-name="그룹 9455">
                <g id="그룹_8253" data-name="그룹 8253" transform="translate(3 152.5)">
                    <rect id="사각형_11488" data-name="사각형 11488" width="8.5" height="5.5" rx="1.5" transform="translate(44.5 381)" style="fill:#7dedf3"/>
                    <g id="사각형_11489" data-name="사각형 11489" transform="translate(42 380)" style="stroke-width:1.5px;stroke:#2d3239;fill:none">
                        <rect class="cls-9" width="10" height="6" rx="2"/>
                        <rect class="cls-11" x=".75" y=".75" width="8.5" height="4.5" rx="1.25"/>
                    </g>
                </g>
            </g>
        </g>
    </g>
</svg>
