<svg xmlns="http://www.w3.org/2000/svg" width="36" height="36" viewBox="0 0 36 36">
    <defs>
        <style>
            .cls-1{fill:none}.cls-10{stroke:none}
        </style>
    </defs>
    <g id="ic_goverment_tax" data-name="ic_goverment tax" transform="translate(-22.33 -750.768)">
        <path id="사각형_7870" data-name="사각형 7870" class="cls-1" transform="translate(22.33 750.768)" d="M0 0h36v36H0z"/>
        <g id="사각형_13455" data-name="사각형 13455" style="stroke-width:1.5px;stroke:#2d3239;fill:#fff">
            <path class="cls-10" d="M5 0h10a8 8 0 0 1 8 8v15a5 5 0 0 1-5 5H5a5 5 0 0 1-5-5V5a5 5 0 0 1 5-5z" transform="translate(27.33 753.768)"/>
            <path class="cls-1" d="M5 .75h10A7.25 7.25 0 0 1 22.25 8v15A4.25 4.25 0 0 1 18 27.25H5A4.25 4.25 0 0 1 .75 23V5A4.25 4.25 0 0 1 5 .75z" transform="translate(27.33 753.768)"/>
        </g>
        <g id="교차_10" data-name="교차 10" style="fill:none">
            <path class="cls-10" d="M4 8.5a4 4 0 0 1-4-4V0h.5a8 8 0 0 1 8 8v.5z" transform="translate(41.83 753.768)"/>
            <path d="M6.923 7A6.516 6.516 0 0 0 1.5 1.578V4.5C1.5 5.879 2.622 7 4 7h2.923M8.5 8.5H4a4 4 0 0 1-4-4V0h.5a8 8 0 0 1 8 8v.5z" style="fill:#2d3239;stroke:none" transform="translate(41.83 753.768)"/>
        </g>
        <g id="사각형_13452" data-name="사각형 13452" transform="rotate(90 -363.344 403.424)" style="stroke:#2d3239;fill:none">
            <rect class="cls-10" width="1.5" height="8.5" rx=".75"/>
            <rect class="cls-1" x=".5" y=".5" width=".5" height="7.5" rx=".25"/>
        </g>
        <rect id="사각형_15635" data-name="사각형 15635" width="5.5" height="5.5" rx="2.75" transform="translate(34.33 760.268)" style="fill:#7dedf3"/>
        <g id="사각형_13454" data-name="사각형 13454" transform="translate(32.33 758.767)" style="stroke-width:1.5px;stroke:#2d3239;fill:none">
            <rect class="cls-10" width="7" height="7" rx="3.5"/>
            <rect class="cls-1" x=".75" y=".75" width="5.5" height="5.5" rx="2.75"/>
        </g>
        <g id="그룹_12700" data-name="그룹 12700" transform="translate(-126.419 469.016)">
            <circle id="타원_1918" data-name="타원 1918" cx="7" cy="7" r="7" transform="translate(167.749 301.752)" style="fill:#fff"/>
            <g id="그룹_12701" data-name="그룹 12701" transform="translate(-.75 -1)">
                <path id="패스_12273" data-name="패스 12273" d="M179.48 309.16a2.8 2.8 0 0 0-3.98.835 2.8 2.8 0 0 1-5.063-.77c0-.011-.005-.019-.008-.03l-.01-.035a3.588 3.588 0 0 1-.144-1.113c0-2.51 2.575-5.305 6.285-5.305a7.076 7.076 0 0 1 6.533 4.5l-.028-.085a8 8 0 0 0-15.566 2.6c0 3.948 2.846 7.329 6.8 7.329a6.425 6.425 0 0 0 6.24-4.2 3.083 3.083 0 0 0-1.056-3.718" style="fill:#002a56"/>
                <path id="패스_12274" data-name="패스 12274" d="M190.322 309.957a7.055 7.055 0 0 0-6.583-4.655c-3.71 0-6.285 2.795-6.285 5.305a3.6 3.6 0 0 0 .143 1.113 2.37 2.37 0 0 1-.073-.571c0-2.615 2.617-4.426 5.307-4.426a6.6 6.6 0 0 1 6.6 6.6 7.272 7.272 0 0 1-4.031 6.515 8 8 0 0 0 5.276-7.524 7.907 7.907 0 0 0-.352-2.354" transform="translate(-7.179 -2.56)" style="fill:#dc0021"/>
            </g>
        </g>
    </g>
</svg>
