<svg xmlns="http://www.w3.org/2000/svg" width="36" height="36" viewBox="0 0 36 36">
    <defs>
        <style>
            .cls-3{fill:none}.cls-4{fill:#2d3239}.cls-5,.cls-6{stroke:none}.cls-6{fill:#2d3239}
        </style>
    </defs>
    <g id="ic_gas" transform="translate(-206 -750)">
        <path id="패스_3480" data-name="패스 3480" d="M5.479 0c.842 0 .252 1.492 1.541 2.99 1.361 1.579 3.132 3.488 3.16 5.46A4.7 4.7 0 0 1 5.479 13C2.5 13 .187 11.011.187 8.45.112 7.546.7 5.121 1.206 5.578s.936 1.838 1.41 1.271c.231-.3-.444-1 .181-2.638S4.637 0 5.479 0z" transform="translate(218.82 764.5)" style="fill:#7dedf3"/>
        <g id="패스_3477" data-name="패스 3477" class="cls-3">
            <path class="cls-5" d="M11.3 0c1.512 0 .529 2.984 3.236 5.98 2.858 3.158 6.576 6.977 6.635 10.92S17.551 26 11.3 26 .193 22.022.193 16.9c-.158-1.807.865-4.943 2.14-5.743S4.3 14.832 5.294 13.7c.484-.6-.632-1.952.38-5.276S9.793 0 11.3 0z" transform="translate(213.323 751.5)"/>
            <path class="cls-6" d="M10.95 1.952c-.39.409-.95 1.105-1.632 2.212-.951 1.543-1.798 3.342-2.21 4.695-.527 1.733-.377 2.776-.267 3.538.096.67.216 1.503-.378 2.241l-.042.05c-.531.605-1.14.695-1.456.695-1.265 0-1.87-1.162-2.355-2.096l-.05-.095a6.903 6.903 0 0 0-.422.962c-.331.931-.508 1.958-.45 2.615l.005.065v.066c0 2.018.946 3.904 2.664 5.31 1.804 1.477 4.271 2.29 6.948 2.29 3.016 0 4.987-1.358 6.109-2.497 1.42-1.443 2.288-3.39 2.262-5.08-.02-1.345-.598-2.845-1.768-4.584-1.106-1.645-2.535-3.215-3.917-4.733l-.563-.62c-1.694-1.875-2.157-3.74-2.463-4.973l-.015-.06M11.305 0c1.512 0 .529 2.984 3.236 5.98 2.858 3.158 6.576 6.977 6.635 10.92.06 3.943-3.625 9.1-9.871 9.1S.193 22.022.193 16.9c-.158-1.807.865-4.943 2.14-5.743 1.13-.71 1.801 2.726 2.632 2.726.107 0 .216-.056.329-.185.484-.602-.632-1.952.38-5.276C6.683 5.098 9.792 0 11.303 0z" transform="translate(213.323 751.5)"/>
        </g>
        <g id="빼기_318" data-name="빼기 318" class="cls-3">
            <path class="cls-5" d="M24 5h-1.5V3A1.5 1.5 0 0 0 21 1.5h-2.85V0H21a3 3 0 0 1 3 3v2zM1.5 5H0V3a3 3 0 0 1 3-3h2.75v1.5H3A1.5 1.5 0 0 0 1.5 3v2z" transform="translate(212 779)"/>
            <path class="cls-6" d="M24 5h-1.5V3c0-.827-.673-1.5-1.5-1.5h-2.85V0H21c1.654 0 3 1.346 3 3v2zM1.5 5H0V3c0-1.654 1.346-3 3-3h2.75v1.5H3c-.827 0-1.5.673-1.5 1.5v2z" transform="translate(212 779)"/>
        </g>
        <rect id="사각형_8409" data-name="사각형 8409" class="cls-4" width="1.5" height="5" rx=".75" transform="translate(223.25 780)"/>
        <path id="합치기_157" data-name="합치기 157" class="cls-4" d="M22.487 5.252a.75.75 0 1 1 .751.75.751.751 0 0 1-.751-.75zM0 5.252A.75.75 0 1 1 .749 6 .751.751 0 0 1 0 5.252zM17.5 1a.75.75 0 1 1 .751.75A.75.75 0 0 1 17.5 1zM5 1a.75.75 0 1 1 .75.75A.75.75 0 0 1 5 1z" transform="translate(212.001 778.749)"/>
    </g>
</svg>
