<svg xmlns="http://www.w3.org/2000/svg" width="26" height="26" viewBox="0 0 26 26">
    <defs>
        <style>
            .cls-3{fill:none}.cls-4{fill:#2d3239}.cls-5,.cls-6{stroke:none}.cls-6{fill:#2d3239}
        </style>
    </defs>
    <g id="ic_gas_s" transform="translate(-262 -1407.5)">
        <path id="사각형_14313" data-name="사각형 14313" transform="translate(262 1407.5)" style="fill:none" d="M0 0h26v26H0z"/>
        <path id="패스_3480" data-name="패스 3480" d="M4.284 0c.652 0 .2 1.155 1.194 2.315C6.532 3.538 7.9 5.016 7.925 6.542a3.642 3.642 0 0 1-3.641 3.523c-2.3 0-4.1-1.54-4.1-3.523-.058-.7.4-2.577.789-2.223S1.7 5.741 2.067 5.3c.179-.233-.344-.776.14-2.042S3.632 0 4.284 0z" transform="translate(270.945 1417.79)" style="fill:#7dedf3"/>
        <g id="패스_3477" data-name="패스 3477" class="cls-3">
            <path class="cls-5" d="M8.385 0c1.115 0 .39 2.222 2.387 4.452 2.108 2.351 4.85 5.194 4.894 8.129a7.147 7.147 0 0 1-7.281 6.774c-4.607 0-8.2-2.961-8.2-6.774C.072 11.235.827 8.9 1.767 8.305s1.45 2.736 2.184 1.892c.357-.448-.466-1.453.28-3.928S7.27 0 8.385 0z" transform="translate(267.074 1408.5)"/>
            <path class="cls-6" d="M7.935 2.288c-.214.285-.463.65-.74 1.112-.668 1.112-1.24 2.346-1.528 3.303-.365 1.21-.265 1.91-.185 2.473.077.54.182 1.279-.358 1.956l-.041.05c-.367.421-.855.653-1.374.653-.855 0-1.367-.54-1.73-1.123a6.314 6.314 0 0 0-.012.035c-.209.62-.32 1.288-.284 1.704l.006.065v.065c0 1.388.648 2.688 1.825 3.66 1.26 1.041 2.99 1.614 4.871 1.614 2.072 0 3.429-.935 4.202-1.72.992-1.007 1.597-2.36 1.58-3.532-.033-2.183-2.286-4.681-4.096-6.688-.14-.156-.28-.31-.416-.463C8.64 4.32 8.19 3.167 7.935 2.288M8.385 0c1.116 0 .39 2.222 2.387 4.452 2.108 2.35 4.85 5.193 4.894 8.129.044 2.935-2.673 6.774-7.28 6.774-4.608 0-8.197-2.961-8.197-6.774-.117-1.346.638-3.68 1.578-4.276.834-.528 1.329 2.03 1.942 2.03.078 0 .159-.042.242-.138.358-.448-.466-1.453.28-3.927C4.977 3.795 7.27 0 8.385 0z" transform="translate(267.074 1408.5)"/>
        </g>
        <g id="빼기_318" data-name="빼기 318" class="cls-3">
            <path class="cls-5" d="M4949.621-10332.731h-1.5v-1.5a.5.5 0 0 0-.5-.5h-2v-1.5h2a2 2 0 0 1 2 2v1.5zm-16.5 0h-1.5v-1.5a2 2 0 0 1 2-2h2v1.5h-2a.5.5 0 0 0-.5.5v1.5z" transform="translate(-4665.621 11764.732)"/>
            <path class="cls-6" d="M4949.621-10332.731h-1.5v-1.502a.5.5 0 0 0-.5-.498h-2v-1.502h2c1.103 0 2 .897 2 2v1.502zm-16.5 0h-1.5v-1.502c0-1.103.897-2 2-2h2v1.502h-2a.5.5 0 0 0-.5.498v1.502z" transform="translate(-4665.621 11764.732)"/>
        </g>
        <rect id="사각형_8409" data-name="사각형 8409" class="cls-4" width="1.5" height="3.79" rx=".75" transform="translate(274.25 1429.21)"/>
        <path id="합치기_157" data-name="합치기 157" class="cls-4" d="M4945.5-10723.5a.747.747 0 0 1 .749-.748.749.749 0 0 1 .751.748.751.751 0 0 1-.751.751.749.749 0 0 1-.749-.751zm-16.5 0a.747.747 0 0 1 .749-.748.749.749 0 0 1 .751.748.751.751 0 0 1-.751.751.749.749 0 0 1-.749-.751zm13.248-2.748a.752.752 0 0 1 .751-.752.752.752 0 0 1 .751.752.749.749 0 0 1-.751.748.749.749 0 0 1-.75-.749zm-10 0a.751.751 0 0 1 .749-.752.752.752 0 0 1 .751.752.749.749 0 0 1-.751.748.749.749 0 0 1-.747-.749z" transform="translate(-4663 12155.5)"/>
    </g>
</svg>
