<svg xmlns="http://www.w3.org/2000/svg" width="40" height="40" viewBox="0 0 40 40">
    <g transform="translate(-166 -2048)">
        <path data-name="사각형 15576" transform="translate(166 2048)" style="fill:none" d="M0 0h40v40H0z"/>
        <path data-name="패스 14044" d="m14.722 5.25-9-4.5v9z" transform="translate(181.278 2054.25)" style="stroke-linecap:round;stroke-linejoin:round;stroke:#2d3239;stroke-width:1.5px;fill:#fff"/>
        <ellipse data-name="타원 1778" cx="13" cy="6" rx="13" ry="6" transform="translate(173 2070)" style="stroke-linecap:round;stroke-linejoin:round;stroke:#2d3239;stroke-width:1.5px;fill:#fff"/>
        <path data-name="선 288" transform="translate(187.001 2055.5)" style="stroke-linecap:round;stroke-linejoin:round;stroke:#2d3239;stroke-width:1.5px;fill:none" d="M0 20V0"/>
        <path data-name="패스 13077" d="m1183.912 189.855-5.895-3.1a.553.553 0 0 0-.814.477v6.2a.552.552 0 0 0 .814.476l5.895-3.1a.536.536 0 0 0 0-.953z" transform="translate(-990.203 1870.309)" style="fill:#7dedf3"/>
        <path data-name="패스 12115" d="m14.722 5.25-9-4.5v9z" transform="translate(181.278 2054.25)" style="stroke-linecap:round;stroke-linejoin:round;stroke:#2d3239;stroke-width:1.5px;fill:none"/>
        <g data-name="사각형 17439" transform="translate(184 2054)" style="stroke:#2d3239;stroke-width:1.5px;fill:#fff">
            <rect width="4" height="23" rx="2" style="stroke:none"/>
            <rect x=".75" y=".75" width="2.5" height="21.5" rx="1.25" style="fill:none"/>
        </g>
    </g>
</svg>
