<?xml version="1.0" encoding="utf-8"?>
<!-- Generator: Adobe Illustrator 26.1.0, SVG Export Plug-In . SVG Version: 6.00 Build 0)  -->
<svg version="1.1" id="Layer_1" xmlns="http://www.w3.org/2000/svg" xmlns:xlink="http://www.w3.org/1999/xlink" x="0px" y="0px"
	 viewBox="0 0 44 44" style="enable-background:new 0 0 44 44;" xml:space="preserve">
<style type="text/css">
	.st0{fill:#FFFFFF;}
	.st1{fill:none;stroke:#2D3239;stroke-width:1.5;}
	.st2{fill:none;stroke:#2D3239;stroke-width:1.5;stroke-linecap:round;stroke-miterlimit:10;}
	.st3{fill:none;}
	.st4{fill:#7DEDF3;}
	.st5{fill:#2D3239;}
</style>
<g>
	<g>
		<g>
			<path class="st0" d="M15.3,6.1h12.2c2.7,0,4.9,2.2,4.9,4.9v26.9c0,0.7-0.5,1.2-1.2,1.2H15.3c-2.7,0-4.9-2.2-4.9-4.9V11
				C10.4,8.3,12.6,6.1,15.3,6.1z"/>
			<path class="st1" d="M15.3,7h12.2c2.2,0,4,1.8,4,4v26.9c0,0.2-0.1,0.3-0.3,0.3H15.3c-2.2,0-4-1.8-4-4V11C11.3,8.8,13.1,7,15.3,7z
				"/>
		</g>
		<path class="st2" d="M17.1,14.1h8.6"/>
		<path class="st2" d="M17.1,20.8h8.6"/>
		<g>
			<path class="st0" d="M9.2,17.1h7.3c2.7,0,4.9,2.2,4.9,4.9v15.9c0,0.7-0.5,1.2-1.2,1.2h-11c-2.7,0-4.9-2.2-4.9-4.9V22
				C4.3,19.3,6.5,17.1,9.2,17.1z"/>
			<path class="st1" d="M9.2,18h7.3c2.2,0,4,1.8,4,4v15.9c0,0.2-0.1,0.3-0.3,0.3h-11c-2.2,0-4-1.8-4-4V22C5.2,19.8,7,18,9.2,18z"/>
		</g>
		<g>
			<path class="st3" d="M12.2,30.6h1.2c1.4,0,2.4,1.1,2.4,2.4v6.1H9.8V33C9.8,31.6,10.9,30.6,12.2,30.6z"/>
			<path class="st1" d="M12.2,31.5h1.2c0.8,0,1.5,0.7,1.5,1.5v5.2h-4.3V33C10.7,32.2,11.4,31.5,12.2,31.5z"/>
		</g>
		<path class="st2" d="M10.4,24.4h4.9"/>
		<path class="st4" d="M32.4,39.1h-3.8c-0.6,0-1.1-0.5-1.1-1.1c0,0,0,0,0,0v-6.9c0-2.4,1.9-4.3,4.3-4.3l0,0c2.4,0,4.3,1.9,4.3,4.3
			l0,0v0.6c2.7,0,4.9,2.2,4.9,4.9v1.2c0,0.7-0.5,1.2-1.2,1.2L32.4,39.1z"/>
		<g>
			<path class="st3" d="M29.9,39.1h-4.9c-0.7,0-1.2-0.5-1.2-1.2v-6.1c0-2.7,2.2-4.9,4.9-4.9s4.9,2.2,4.9,4.9c2.7,0,4.9,2.2,4.9,4.9
				v1.2c0,0.7-0.5,1.2-1.2,1.2H29.9z"/>
			<path class="st5" d="M36.7,37.3v-0.6c0-1.7-1.4-3.1-3.1-3.1h-1.8v-1.8c0-1.7-1.4-3.1-3.1-3.1c-1.7,0-3.1,1.4-3.1,3.1v5.5H36.7
				 M37.3,39.1H25.1c-0.7,0-1.2-0.5-1.2-1.2c0,0,0,0,0,0v-6.1c0-2.7,2.3-4.9,5-4.8c2.6,0,4.8,2.2,4.8,4.8c2.7,0,4.9,2.2,4.9,4.9v1.2
				C38.5,38.6,38,39.1,37.3,39.1C37.3,39.1,37.3,39.1,37.3,39.1z"/>
		</g>
	</g>
	<rect class="st3" width="44" height="44"/>
</g>
</svg>
