<svg xmlns="http://www.w3.org/2000/svg" width="36" height="36" viewBox="0 0 36 36">
    <g data-name="그룹 13293">
        <g data-name="타원 2268" transform="translate(8.421 1.5)" style="stroke-width:1.5px;stroke:#2d3239;fill:#fff">
            <circle cx="9.5" cy="9.5" r="9.5" style="stroke:none"/>
            <circle cx="9.5" cy="9.5" r="8.75" style="fill:none"/>
        </g>
        <path data-name="패스 10995" d="M8.534 0A8.534 8.534 0 1 1 0 8.534 8.534 8.534 0 0 1 8.534 0z" transform="translate(12.073 2.929)" style="fill:#7dedf3"/>
        <g data-name="타원 1441" transform="translate(8.421 1.5)" style="fill:none;stroke-width:1.5px;stroke:#2d3239">
            <circle cx="9.5" cy="9.5" r="9.5" style="stroke:none"/>
            <circle cx="9.5" cy="9.5" r="8.75" style="fill:none"/>
        </g>
        <g data-name="사각형 14387" transform="translate(4 16.5)" style="stroke-width:1.5px;stroke:#2d3239;fill:#fff">
            <rect width="28" height="18" rx="5" style="stroke:none"/>
            <rect x=".75" y=".75" width="26.5" height="16.5" rx="4.25" style="fill:none"/>
        </g>
        <path data-name="패스 4064" d="m-464.484 67.324-3.326-3.66a2.371 2.371 0 0 1 0-3.132 1.923 1.923 0 0 1 1.426-.651 1.922 1.922 0 0 1 1.425.651l.476.521.477-.526a1.925 1.925 0 0 1 1.426-.646 1.922 1.922 0 0 1 1.426.646 2.377 2.377 0 0 1 0 3.137l-2.852 3.138v0z" transform="translate(482.483 -38.02)" style="stroke-linecap:round;stroke-linejoin:round;fill:none;stroke-width:1.5px;stroke:#2d3239"/>
        <path data-name="패스 13083" d="M1.732-6.453a1.7 1.7 0 0 1 .36.033.619.619 0 0 1 .27.132A1.07 1.07 0 0 1 2.588-6a4.483 4.483 0 0 1 .241.511l1.3 3.236 1.24-3.227a3.274 3.274 0 0 1 .222-.5 1.044 1.044 0 0 1 .237-.293.709.709 0 0 1 .284-.142 1.558 1.558 0 0 1 .364-.038h.2a.9.9 0 0 1 .629.17.848.848 0 0 1 .175.615v5.526a.423.423 0 0 1-.17.374.7.7 0 0 1-.41.118.686.686 0 0 1-.395-.118.419.419 0 0 1-.175-.374v-5.251q-.085.36-.161.591t-.151.431L4.769-1.3a.926.926 0 0 1-.26.4.644.644 0 0 1-.383.1.735.735 0 0 1-.44-.1.957.957 0 0 1-.27-.421L2.2-4.371q-.08-.19-.156-.429t-.18-.6v5.258a.419.419 0 0 1-.175.374.7.7 0 0 1-.4.118A.664.664 0 0 1 .9.232a.423.423 0 0 1-.17-.374v-5.526a.848.848 0 0 1 .17-.615.9.9 0 0 1 .629-.17z" transform="translate(13.818 13.653)" style="fill:#2d3239;stroke-width:.5px;stroke:#2d3239"/>
    </g>
</svg>
