<svg xmlns="http://www.w3.org/2000/svg" width="36" height="36" viewBox="0 0 36 36">
    <g data-name="그룹 13294" transform="translate(-39.4 -686)">
        <ellipse data-name="타원 2266" cx="8" cy="3" rx="8" ry="3" transform="translate(44.4 691)" style="fill:#fff"/>
        <ellipse data-name="타원 2267" cx="8" cy="3" rx="8" ry="3" transform="translate(44.4 710)" style="fill:#fff"/>
        <path data-name="사각형 17821" transform="translate(44.4 693)" style="fill:#fff" d="M0 0h16v22H0z"/>
        <g data-name="타원 1971" transform="translate(44 690)" style="stroke-width:1.5px;stroke:#2d3239;fill:none">
            <ellipse cx="8.5" cy="4" rx="8.5" ry="4" style="stroke:none"/>
            <ellipse cx="8.5" cy="4" rx="7.75" ry="3.25" style="fill:none"/>
        </g>
        <path data-name="선 479" transform="translate(44.75 694.054)" style="stroke-width:1.5px;stroke:#2d3239;fill:none" d="M0 0v19.105"/>
        <path data-name="선 480" transform="translate(60.281 694.054)" style="stroke-width:1.5px;stroke:#2d3239;fill:none" d="M0 0v19.105"/>
        <path data-name="패스 12457" d="M1037.227 273.186c0 1.706-3.477 3.091-7.765 3.091s-7.765-1.385-7.765-3.091" transform="translate(-976.946 425.645)" style="stroke-width:1.5px;stroke:#2d3239;fill:none"/>
        <path data-name="패스 12458" d="M1037.227 273.186c0 1.706-3.477 3.091-7.765 3.091s-7.766-1.385-7.766-3.091" transform="translate(-976.946 430.421)" style="stroke-width:1.5px;stroke:#2d3239;fill:none"/>
        <path data-name="패스 12459" d="M1037.227 273.186c0 1.706-3.477 3.091-7.765 3.091s-7.766-1.385-7.766-3.091" transform="translate(-976.946 435.197)" style="stroke-width:1.5px;stroke:#2d3239;fill:none"/>
        <path data-name="패스 12460" d="M1037.235 273.186c0 1.706-3.479 3.091-7.77 3.091s-7.77-1.385-7.77-3.091" transform="translate(-976.955 439.973)" style="stroke-width:1.5px;stroke:#2d3239;fill:none"/>
        <g data-name="그룹 13180">
            <path data-name="패스 12489" d="M7.5 0A7.5 7.5 0 1 1 0 7.5 7.5 7.5 0 0 1 7.5 0z" transform="translate(54.432 703.805)" style="fill:#fff"/>
            <path data-name="패스 12488" d="M7 0a7 7 0 1 1-7 7 7 7 0 0 1 7-7z" transform="translate(56.8 704.3)" style="fill:#7dedf3"/>
            <g data-name="타원 1986" transform="translate(53.78 702.752)" style="stroke-width:1.5px;stroke:#2d3239;fill:none">
                <circle cx="8" cy="8" r="8" style="stroke:none"/>
                <circle cx="8" cy="8" r="7.25" style="fill:none"/>
            </g>
            <path data-name="패스 13081" d="M1.683-6.453a1.62 1.62 0 0 1 .342.031.589.589 0 0 1 .257.126 1.017 1.017 0 0 1 .216.274 4.264 4.264 0 0 1 .23.486L3.96-2.457l1.179-3.069A3.114 3.114 0 0 1 5.351-6a.993.993 0 0 1 .225-.279.674.674 0 0 1 .27-.135 1.482 1.482 0 0 1 .347-.036h.189a.856.856 0 0 1 .6.162.807.807 0 0 1 .166.585V-.45a.4.4 0 0 1-.162.356.661.661 0 0 1-.386.112.652.652 0 0 1-.373-.113.4.4 0 0 1-.17-.355v-5q-.081.342-.153.563t-.144.41L4.572-1.548a.881.881 0 0 1-.247.383.612.612 0 0 1-.364.095.7.7 0 0 1-.418-.1.91.91 0 0 1-.257-.4l-1.161-2.9q-.072-.18-.144-.405t-.171-.567v5a.4.4 0 0 1-.166.356.667.667 0 0 1-.384.104.631.631 0 0 1-.369-.113.4.4 0 0 1-.162-.355v-5.256A.807.807 0 0 1 .9-6.291a.856.856 0 0 1 .6-.162z" transform="translate(57.871 713.953)" style="fill:#2d3239;stroke-width:.5px;stroke:#2d3239"/>
        </g>
    </g>
</svg>
