<svg xmlns="http://www.w3.org/2000/svg" width="36" height="36" viewBox="0 0 36 36">
    <defs>
        <style>
            .cls-4{fill:none}.cls-5,.cls-6{stroke:none}.cls-6{fill:#2d3239}
        </style>
    </defs>
    <g id="ic_health_insurance" data-name="ic_health insurance" transform="translate(0 -.117)">
        <path id="사각형_7870" data-name="사각형 7870" transform="translate(0 .117)" style="fill:none" d="M0 0h36v36H0z"/>
        <path id="패스_12154" data-name="패스 12154" d="M.067 4.8C.67 3.1 11.657-1 13.389-1S25.881 3.624 26.71 4.8s-.786 10.153-3.134 14.5-8.14 8.7-10.187 8.7S5.482 23.318 3.2 19.3-.537 6.5.067 4.8z" transform="translate(5.07 5)" style="fill:#fff"/>
        <path id="빼기_329" data-name="빼기 329" d="M2.881 29.638a6.118 6.118 0 0 1-2.765-1.205c2.523-.795 7.134-4.649 9.076-8.246a31.791 31.791 0 0 0 2.657-8.125c.6-2.951.743-5.3.363-5.835-.392-.555-3.016-1.856-5.34-2.89A50.21 50.21 0 0 0 0 .733 12.915 12.915 0 0 1 2.881 0c.911 0 4.172 1.263 7 2.515 2.632 1.165 5.868 2.758 6.319 3.414.395.573.243 3.063-.377 6.2a34.287 34.287 0 0 1-2.759 8.623c-2.373 4.493-8.164 8.886-10.183 8.886z" transform="translate(16.577 3.36)" style="fill:#7dedf3"/>
        <g id="패스_12157" data-name="패스 12157" class="cls-4">
            <path class="cls-5" d="M.077 5.23C.725 3.408 12.525-1 14.386-1S27.8 3.967 28.694 5.23s-.845 10.905-3.367 15.57-8.742 9.344-10.941 9.344S5.894 25.119 3.445 20.8-.571 7.051.077 5.23z" transform="translate(3.57 3.5)"/>
            <path class="cls-6" d="M14.382.5c-.583.027-3.281.813-6.69 2.18-1.624.65-3.078 1.304-4.203 1.887-1.36.705-1.859 1.113-2.017 1.263-.032.213-.082.78.018 1.986.096 1.168.31 2.614.6 4.07.673 3.371 1.667 6.428 2.66 8.177 1.025 1.807 2.969 3.998 5.2 5.863 2.447 2.044 4.046 2.716 4.436 2.722.404 0 2.012-.631 4.4-2.583 2.269-1.853 4.171-4.03 5.221-5.974 1.006-1.861 2.021-4.922 2.717-8.188.698-3.275.763-5.21.68-5.833-.626-.462-2.793-1.63-6.28-3.131C17.348 1.313 14.918.537 14.383.5m.004-1.5c1.861 0 13.417 4.967 14.308 6.23.89 1.262-.845 10.905-3.367 15.574-2.522 4.668-8.742 9.344-10.94 9.344-2.2 0-8.493-5.03-10.942-9.344C.997 16.488-.57 7.05.077 5.23.725 3.408 12.525-1 14.387-1z" transform="translate(3.57 3.5)"/>
        </g>
        <g id="합치기_160" data-name="합치기 160" class="cls-4">
            <path class="cls-5" d="M6.25 14a2 2 0 0 1-2-2V9.75H2a2 2 0 0 1-2-2v-1.5a2 2 0 0 1 2-2h2.25V2a2 2 0 0 1 2-2h1.5a2 2 0 0 1 2 2v2.25H12a2 2 0 0 1 2 2v1.5a2 2 0 0 1-2 2H9.749V12a2 2 0 0 1-2 2z" transform="translate(11 10.117)"/>
            <path class="cls-6" d="M7.749 12.499a.5.5 0 0 0 .5-.5v-3.75h3.749a.5.5 0 0 0 .5-.5V6.252a.5.5 0 0 0-.5-.5h-3.75V2a.5.5 0 0 0-.499-.5h-1.5a.5.5 0 0 0-.5.5v3.75H2.002a.5.5 0 0 0-.5.5V7.75a.5.5 0 0 0 .5.5H5.75v3.749a.5.5 0 0 0 .5.5h1.499m0 1.5h-1.5a2 2 0 0 1-2-2v-2.25H2.002a2 2 0 0 1-2-2V6.252a2 2 0 0 1 2-2H4.25V2a2 2 0 0 1 2-2h1.499a2 2 0 0 1 2 2v2.25h2.249a2 2 0 0 1 2 2V7.75a2 2 0 0 1-2 2h-2.25v2.249a2 2 0 0 1-1.999 2z" transform="translate(11 10.117)"/>
        </g>
    </g>
</svg>
