<?xml version="1.0" encoding="utf-8"?>
<!-- Generator: Adobe Illustrator 26.1.0, SVG Export Plug-In . SVG Version: 6.00 Build 0)  -->
<svg version="1.1" id="Layer_1" xmlns="http://www.w3.org/2000/svg" xmlns:xlink="http://www.w3.org/1999/xlink" x="0px" y="0px"
	 viewBox="0 0 44 44" style="enable-background:new 0 0 44 44;" xml:space="preserve">
<style type="text/css">
	.st0{fill:none;}
	.st1{fill:#FFFFFF;}
	.st2{fill:#2D3239;}
	.st3{fill:#7DEDF3;}
	.st4{fill:none;stroke:#2D3239;stroke-width:1.5;}
</style>
<path class="st0" d="M-0.2,0.1H44v44.2H-0.2V0.1z"/>
<path class="st1" d="M23.1,11.5c7.8,0,14.1,3.3,14.1,7.4s-6.3,7.4-14.1,7.4S9,22.9,9,18.8S15.4,11.5,23.1,11.5z"/>
<path class="st1" d="M9.6,16.4h30.7c1,0,1.8,0.8,1.8,1.8v5.5c0,2-1.6,3.7-3.7,3.7H2.3c-1,0-1.8-0.8-1.8-1.8
	c-0.2-1.6,0.1-3.2,0.7-4.7C2.5,18.3,6.1,16.4,9.6,16.4z"/>
<g>
	<path class="st0" d="M2.3,29.9c-1,0-1.8-0.8-1.8-1.8c0-1.6-0.2-5.5,0.7-7.2c1.3-2.5,4.7-4.3,8.1-4.5c1.1-3.5,6.9-6.1,13.9-6.1
		s12.8,2.7,13.9,6.1h4.5c1,0,1.8,0.8,1.8,1.8v8c0,2-1.6,3.7-3.7,3.7L2.3,29.9z"/>
	<path class="st2" d="M39.7,28c1,0,1.8-0.8,1.8-1.8l0-8h-5.8l-0.4-1.3c-0.4-1.2-1.7-2.4-3.8-3.3c-2.3-1-5.3-1.6-8.4-1.6
		c-3.1,0-6.1,0.6-8.4,1.6c-2,0.9-3.4,2.1-3.7,3.3l-0.4,1.2l-1.3,0.1c-2.7,0.1-5.5,1.6-6.5,3.5l0,0c-0.1,0.1-0.3,0.7-0.4,2.3
		c-0.1,1.1-0.1,2.4-0.1,3.2l0,0.7H39.7 M39.7,29.9H2.3c-1,0-1.8-0.8-1.8-1.8c0-1.6-0.2-5.5,0.7-7.2c1.3-2.5,4.7-4.3,8.1-4.5
		c1.1-3.5,6.9-6.1,13.9-6.1c7,0,12.8,2.7,13.9,6.1h4.5c1,0,1.8,0.8,1.8,1.8v8C43.4,28.2,41.7,29.9,39.7,29.9L39.7,29.9z"/>
</g>
<path class="st3" d="M23.8,12.4c4.9,0.1,7.5,1.2,9,2.1c1.5,0.9,0,0.2-2.2,3.1H14.8C14.8,17.1,18.9,12.3,23.8,12.4z"/>
<g>
	<path class="st0" d="M23.5,11.7v16.6c0,0.5-0.4,0.9-0.9,0.9c-0.5,0-0.9-0.4-0.9-0.9V11.7c0-0.5,0.4-0.9,0.9-0.9
		C23,10.7,23.5,11.1,23.5,11.7z"/>
	<path class="st2" d="M23.5,11.7v16.6c0,0.5-0.4,0.9-0.9,0.9c-0.5,0-0.9-0.4-0.9-0.9V11.7c0-0.5,0.4-0.9,0.9-0.9
		C23,10.7,23.5,11.1,23.5,11.7z"/>
</g>
<g>
	<path class="st1" d="M10.3,33.2c-2.2,0-4-1.8-4-4c0-2.2,1.8-4,4-4c2.2,0,4,1.8,4,4C14.2,31.5,12.5,33.2,10.3,33.2z"/>
	<path class="st2" d="M10.3,26.2c-1.7,0-3.1,1.4-3.1,3.1c0,1.7,1.4,3.1,3.1,3.1s3.1-1.4,3.1-3.1C13.3,27.6,12,26.2,10.3,26.2
		 M10.3,24.3c2.7,0,4.9,2.2,4.9,4.9s-2.2,4.9-4.9,4.9S5.4,32,5.4,29.2S7.5,24.3,10.3,24.3z"/>
</g>
<g>
	<path class="st1" d="M33.6,33.2c-2.2,0-4-1.8-4-4c0-2.2,1.8-4,4-4c2.2,0,4,1.8,4,4C37.6,31.5,35.8,33.2,33.6,33.2z"/>
	<path class="st2" d="M33.6,26.2c-1.7,0-3.1,1.4-3.1,3.1c0,1.7,1.4,3.1,3.1,3.1s3.1-1.4,3.1-3.1C36.7,27.6,35.3,26.2,33.6,26.2
		 M33.6,24.3c2.7,0,4.9,2.2,4.9,4.9s-2.2,4.9-4.9,4.9s-4.9-2.2-4.9-4.9S30.9,24.3,33.6,24.3z"/>
</g>
<g>
	<path class="st1" d="M10.3,29.6c-0.2,0-0.3-0.1-0.3-0.3s0.1-0.3,0.3-0.3s0.3,0.1,0.3,0.3S10.4,29.6,10.3,29.6z"/>
	<path class="st2" d="M10.3,28c0.7,0,1.2,0.5,1.2,1.2c0,0.7-0.5,1.2-1.2,1.2S9,29.9,9,29.2C9,28.6,9.6,28,10.3,28z"/>
</g>
<g>
	<path class="st1" d="M33.6,29.6c-0.2,0-0.3-0.1-0.3-0.3s0.1-0.3,0.3-0.3c0.2,0,0.3,0.1,0.3,0.3S33.8,29.6,33.6,29.6z"/>
	<path class="st2" d="M33.6,28c0.7,0,1.2,0.5,1.2,1.2c0,0.7-0.5,1.2-1.2,1.2s-1.2-0.5-1.2-1.2C32.4,28.6,32.9,28,33.6,28z"/>
</g>
<g>
	<path class="st1" d="M14.9,20h3.1c0.5,0,0.9,0.4,0.9,0.9c0,0.5-0.4,0.9-0.9,0.9h-3.1c-0.5,0-0.9-0.4-0.9-0.9
		C13.9,20.4,14.4,20,14.9,20z"/>
	<path class="st2" d="M14.9,20h3.1c0.5,0,0.9,0.4,0.9,0.9c0,0.5-0.4,0.9-0.9,0.9h-3.1c-0.5,0-0.9-0.4-0.9-0.9
		C13.9,20.4,14.4,20,14.9,20z"/>
</g>
<g>
	<path class="st1" d="M39.4,20h3.1c0.5,0,0.9,0.4,0.9,0.9c0,0.5-0.4,0.9-0.9,0.9h-3.1c-0.5,0-0.9-0.4-0.9-0.9
		C38.5,20.4,38.9,20,39.4,20z"/>
	<path class="st2" d="M39.4,20h3.1c0.5,0,0.9,0.4,0.9,0.9c0,0.5-0.4,0.9-0.9,0.9h-3.1c-0.5,0-0.9-0.4-0.9-0.9
		C38.5,20.4,38.9,20,39.4,20z"/>
</g>
<path class="st4" d="M10.5,17.3H32l3.5-2.3"/>
</svg>
