<svg id="ic_home" xmlns="http://www.w3.org/2000/svg" width="24" height="24" viewBox="0 0 24 24">
  <rect id="사각형_11757" data-name="사각형 11757" width="24" height="24" fill="none"/>
  <path id="패스_5327" data-name="패스 5327" d="M5028.5-579.007l-8,10.5,8,10.5" transform="translate(-556.508 -5018.002) rotate(90)" fill="none" stroke="#111" stroke-linecap="round" stroke-linejoin="round" stroke-width="2"/>
  <path id="패스_5328" data-name="패스 5328" d="M51.3,246.8v9.459a2.305,2.305,0,0,0,1.952,2.541h11.1A2.305,2.305,0,0,0,66.3,256.26v-9.379" transform="translate(-46.803 -238.301)" fill="none" stroke="#111" stroke-width="2"/>
  <g id="패스_10950" data-name="패스 10950" transform="translate(9 14)" fill="none">
    <path d="M1,0H5A.97.97,0,0,1,6,.938V7.5H0V.938A.97.97,0,0,1,1,0Z" stroke="none"/>
    <path d="M 2 2 L 2 5.5 L 4 5.5 L 4 2 L 2 2 M 1 0 L 5 0 C 5.552279949188232 0 6 0.4197301864624023 6 0.9375 L 6 7.5 L 0 7.5 L 0 0.9375 C 0 0.4197301864624023 0.4477200508117676 0 1 0 Z" stroke="none" fill="#111"/>
  </g>
</svg>
