<svg xmlns="http://www.w3.org/2000/svg" width="36" height="36" viewBox="0 0 36 36">
    <g data-name="그룹 13295">
        <g data-name="그룹 9783">
            <g data-name="사각형 11970" style="stroke-width:1.5px;stroke:#2d3239;fill:#fff">
                <path d="M5 0h14a5 5 0 0 1 5 5v19H5a5 5 0 0 1-5-5V5a5 5 0 0 1 5-5z" style="stroke:none" transform="translate(1.65 7.5)"/>
                <path d="M5 .75h14A4.25 4.25 0 0 1 23.25 5v18.25H5A4.25 4.25 0 0 1 .75 19V5A4.25 4.25 0 0 1 5 .75z" style="fill:none" transform="translate(1.65 7.5)"/>
            </g>
            <g data-name="사각형 12120" transform="rotate(90 1.575 6.575)" style="fill:none;stroke:#2d3239">
                <rect width="6" height="1.5" rx=".75" style="stroke:none"/>
                <rect x=".5" y=".5" width="5" height=".5" rx=".25" style="fill:none"/>
            </g>
            <g data-name="사각형 12121" transform="rotate(90 7.825 12.825)" style="fill:none;stroke:#2d3239">
                <rect width="6" height="1.5" rx=".75" style="stroke:none"/>
                <rect x=".5" y=".5" width="5" height=".5" rx=".25" style="fill:none"/>
            </g>
            <g data-name="사각형 11973" transform="rotate(90 5.825 18.825)" style="fill:none;stroke:#2d3239">
                <rect width="1.5" height="22" rx=".75" style="stroke:none"/>
                <rect x=".5" y=".5" width=".5" height="21" rx=".25" style="fill:none"/>
            </g>
            <g data-name="그룹 9780">
                <path data-name="패스 12510" d="M7 0a7 7 0 1 1-7 7 7 7 0 0 1 7-7z" transform="translate(18.349 17)" style="fill:#fff"/>
                <path data-name="패스 10995" d="M7 0a7 7 0 1 1-7 7 7 7 0 0 1 7-7z" transform="translate(20.349 17)" style="fill:#7dedf3"/>
                <g data-name="타원 1441" style="fill:none;stroke-width:1.5px;stroke:#2d3239" transform="translate(17.35 15.5)">
                    <circle cx="8" cy="8" r="8" style="stroke:none"/>
                    <circle cx="8" cy="8" r="7.25" style="fill:none"/>
                </g>
                <g data-name="그룹 9779">
                    <path data-name="패스 2252" d="m3649.636 5413.028 1.75 5 1.75-5 1.75 5 1.75-5" transform="translate(-3627.786 -5391.528)" style="stroke-linejoin:round;stroke-linecap:round;fill:none;stroke-width:1.5px;stroke:#2d3239"/>
                    <path data-name="선 11" transform="translate(20.85 23.5)" style="stroke-linecap:round;fill:none;stroke-width:1.5px;stroke:#2d3239" d="M0 0h1.5"/>
                    <path data-name="선 166" transform="translate(28.35 23.5)" style="stroke-linecap:round;fill:none;stroke-width:1.5px;stroke:#2d3239" d="M0 0h1.5"/>
                </g>
            </g>
            <g data-name="그룹 9782">
                <g data-name="사각형 12122" style="stroke-width:1.5px;stroke:#2d3239;fill:#fff" transform="translate(5.15 16.5)">
                    <rect width="5" height="5" rx="1.5" style="stroke:none"/>
                    <rect x=".75" y=".75" width="3.5" height="3.5" rx=".75" style="fill:none"/>
                </g>
                <g data-name="사각형 12123" transform="translate(11.65 16.5)" style="stroke-width:1.5px;stroke:#2d3239;fill:#fff">
                    <rect width="5" height="5" rx="1.5" style="stroke:none"/>
                    <rect x=".75" y=".75" width="3.5" height="3.5" rx=".75" style="fill:none"/>
                </g>
                <g data-name="그룹 9781">
                    <g data-name="사각형 12124" style="stroke-width:1.5px;stroke:#2d3239;fill:#fff" transform="translate(5.15 23)">
                        <rect width="5" height="5" rx="1.5" style="stroke:none"/>
                        <rect x=".75" y=".75" width="3.5" height="3.5" rx=".75" style="fill:none"/>
                    </g>
                    <g data-name="사각형 12125" transform="translate(11.65 23)" style="stroke-width:1.5px;stroke:#2d3239;fill:#fff">
                        <rect width="5" height="5" rx="1.5" style="stroke:none"/>
                        <rect x=".75" y=".75" width="3.5" height="3.5" rx=".75" style="fill:none"/>
                    </g>
                </g>
            </g>
        </g>
    </g>
</svg>
