<svg xmlns="http://www.w3.org/2000/svg" width="36" height="36" viewBox="0 0 36 36">
    <path data-name="사각형 14073" style="fill:transparent" d="M0 0h36v36H0z"/>
    <g data-name="그룹 12897">
        <g data-name="사각형 5282" style="stroke-width:1.5px;stroke-linecap:round;stroke-linejoin:round;stroke:#2d3239;fill:#fff">
            <path d="M0 0h4.133v2.893A2.067 2.067 0 0 1 2.067 4.96 2.067 2.067 0 0 1 0 2.893V0z" style="stroke:none" transform="translate(8.957 28.3)"/>
            <path d="M.75.75h2.633v2.143A1.317 1.317 0 0 1 2.067 4.21h0A1.317 1.317 0 0 1 .75 2.893V.75h0z" style="fill:none" transform="translate(8.957 28.3)"/>
        </g>
        <g data-name="사각형 15811" style="stroke-width:1.5px;stroke-linecap:round;stroke-linejoin:round;stroke:#2d3239;fill:#fff">
            <path d="M0 0h4.133v2.893A2.067 2.067 0 0 1 2.067 4.96 2.067 2.067 0 0 1 0 2.893V0z" style="stroke:none" transform="translate(22.957 28.3)"/>
            <path d="M.75.75h2.633v2.143A1.317 1.317 0 0 1 2.067 4.21h0A1.317 1.317 0 0 1 .75 2.893V.75h0z" style="fill:none" transform="translate(22.957 28.3)"/>
        </g>
        <g data-name="패스 13807" style="fill:#fff">
            <path d="M17.178 5.863H1.008l.847-2.813C2.472.988 3.687.75 4.547.75h9.093c1.329 0 2.234.774 2.691 2.3l.847 2.813z" style="stroke:none" transform="translate(8.957 12.3)"/>
            <path d="M4.547 1.5c-.75 0-1.51.214-1.974 1.766l-.555 1.847h14.15l-.555-1.849c-.174-.58-.434-1.04-.753-1.332-.321-.295-.709-.432-1.22-.432H4.547m0-1.5h9.093c1.883 0 2.938 1.258 3.41 2.834l1.136 3.78H0l1.137-3.78C1.637 1.161 2.663 0 4.547 0z" style="fill:#2d3239;stroke:none" transform="translate(8.957 12.3)"/>
        </g>
        <path data-name="패스 12397" d="M6.547 0h7.093c2.282-.059 2.813 1.478 3.285 3.054l1.137 3.779H2.008l1.129-4C3.638 1.161 3.491.051 6.547 0z" transform="translate(7.097 14.584)" style="fill:#7dedf3"/>
        <g data-name="패스 10993" style="fill:none">
            <path d="M4.547 0h9.093a3.5 3.5 0 0 1 3.41 2.834l1.137 3.779H0l1.137-3.779C1.638 1.161 2.663 0 4.547 0z" style="stroke:none" transform="translate(8.956 12.3)"/>
            <path d="M4.547 1.5c-.75 0-1.51.214-1.974 1.766l-.555 1.847h14.15l-.555-1.849c-.174-.58-.434-1.04-.753-1.332-.321-.295-.709-.432-1.22-.432H4.547m0-1.5h9.093c1.883 0 2.938 1.258 3.41 2.834l1.136 3.78H0l1.137-3.78C1.637 1.161 2.663 0 4.547 0z" style="fill:#2d3239;stroke:none" transform="translate(8.956 12.3)"/>
        </g>
        <g data-name="패스 10994" style="fill:#fff">
            <path d="M23.109 11.65H1.69a.942.942 0 0 1-.941-.941V5.636A4.892 4.892 0 0 1 5.636.75h13.527a4.892 4.892 0 0 1 4.887 4.886v5.073c0 .519-.423.94-.941.94z" style="stroke:none" transform="translate(5.65 17.38)"/>
            <path d="M5.636 1.5A4.14 4.14 0 0 0 1.5 5.636v5.073c0 .105.086.19.19.19H23.11c.105 0 .19-.085.19-.19V5.636A4.14 4.14 0 0 0 19.164 1.5H5.636m0-1.5h13.527A5.636 5.636 0 0 1 24.8 5.636v5.073a1.69 1.69 0 0 1-1.691 1.69H1.69A1.69 1.69 0 0 1 0 10.71V5.636A5.636 5.636 0 0 1 5.636 0z" style="fill:#2d3239;stroke:none" transform="translate(5.65 17.38)"/>
        </g>
        <g data-name="사각형 14430" transform="translate(27.556 15.727)" style="stroke:#2a2d33;stroke-linecap:round;stroke-linejoin:round;fill:#fff">
            <rect width="2.893" height="1.24" rx=".62" style="stroke:none"/>
            <rect x=".5" y=".5" width="1.893" height=".24" rx=".12" style="fill:none"/>
        </g>
        <g data-name="사각형 14431" transform="translate(5.65 15.727)" style="stroke:#2a2d33;stroke-linecap:round;stroke-linejoin:round;fill:#fff">
            <rect width="2.893" height="1.24" rx=".62" style="stroke:none"/>
            <rect x=".5" y=".5" width="1.893" height=".24" rx=".12" style="fill:none"/>
        </g>
        <g data-name="사각형 14428" transform="translate(8.957 23.58)" style="stroke:#2a2d33;stroke-linecap:round;stroke-linejoin:round;fill:#fff">
            <rect width="2.48" height="1.24" rx=".62" style="stroke:none"/>
            <rect x=".5" y=".5" width="1.48" height=".24" rx=".12" style="fill:none"/>
        </g>
        <g data-name="사각형 15915" transform="translate(24.663 23.58)" style="stroke:#2a2d33;stroke-linecap:round;stroke-linejoin:round;fill:#fff">
            <rect width="2.48" height="1.24" rx=".62" style="stroke:none"/>
            <rect x=".5" y=".5" width="1.48" height=".24" rx=".12" style="fill:none"/>
        </g>
        <g data-name="사각형 14429" transform="translate(13.09 23.58)" style="stroke:#2a2d33;stroke-linecap:round;stroke-linejoin:round;fill:#fff">
            <rect width="9.92" height="1.24" rx=".62" style="stroke:none"/>
            <rect x=".5" y=".5" width="8.92" height=".24" rx=".12" style="fill:none"/>
        </g>
        <path data-name="사각형 11997" d="M0 0v1-1z" transform="translate(22.65 29)" style="fill:#2d3239"/>
        <path data-name="패스 13806" d="M1.08-5.968c-.248 0-.48.128-.48.408v5.152a.448.448 0 0 0 .5.424c.264 0 .5-.136.5-.424v-2.056A.928.928 0 0 1 2.56-3.5c.48 0 .84.2.84.968v2.12a.448.448 0 0 0 .5.424c.264 0 .5-.136.5-.424v-2.332a1.45 1.45 0 0 0-1.528-1.632 1.51 1.51 0 0 0-1.3.6H1.56V-5.56c0-.28-.232-.408-.48-.408zm5.02 1.64a.448.448 0 0 0-.5.424v3.5a.448.448 0 0 0 .5.424c.264 0 .5-.136.5-.424V-3.9c0-.292-.24-.428-.5-.428zm0-1.656a.618.618 0 0 0-.632.608.618.618 0 0 0 .632.608.618.618 0 0 0 .632-.608.618.618 0 0 0-.632-.608zm1.776 2.7c-.232 0-.344.192-.344.424s.112.424.344.424H10c.232 0 .344-.192.344-.424s-.112-.42-.344-.42zm5.592-1.1a1.47 1.47 0 0 0-1.248.576v-.12c0-.28-.232-.408-.488-.408s-.48.128-.48.408v5.072a.448.448 0 0 0 .5.424c.264 0 .5-.136.5-.424V-.48a1.38 1.38 0 0 0 1.16.512c1.064 0 1.768-.712 1.768-2.1v-.212c.004-1.368-.564-2.096-1.716-2.096zm-.2.864c.664 0 .92.432.92 1.256v.16c0 .84-.312 1.272-.9 1.272a1.006 1.006 0 0 1-1.048-.9v-.744a.958.958 0 0 1 1.024-1.036zm4.344 1.664h.988v.208a.678.678 0 0 1-.36.672 1.446 1.446 0 0 1-.744.16c-.392 0-.6-.16-.6-.464v-.016c.004-.336.184-.552.712-.552zm.208-2.528a2.759 2.759 0 0 0-1.488.424.415.415 0 0 0-.112.584.4.4 0 0 0 .568.152 1.964 1.964 0 0 1 1.02-.276c.544 0 .784.224.784.768v.112h-1.008c-1.248 0-1.664.544-1.664 1.272v.128c0 .792.544 1.256 1.5 1.256a1.883 1.883 0 0 0 .78-.18.932.932 0 0 0 .472-.432h.008v.208c0 .264.224.384.456.384s.456-.12.456-.384v-2.6c0-.888-.744-1.408-1.776-1.408zm4.408 0c-1.152 0-1.7.576-1.7 1.216v.032c0 .776.376 1.144 1.5 1.36.84.16.92.248.92.512v.016c0 .24-.184.424-.736.424a2.592 2.592 0 0 1-1.152-.3.4.4 0 0 0-.568.192.429.429 0 0 0 .152.592 3.3 3.3 0 0 0 1.576.36c1.06.012 1.74-.54 1.74-1.26v-.032c0-.808-.344-1.144-1.616-1.392-.736-.144-.816-.224-.816-.48v-.016c0-.2.2-.376.808-.376a2.1 2.1 0 0 1 .824.184.365.365 0 0 0 .52-.176.42.42 0 0 0-.208-.6 2.673 2.673 0 0 0-1.248-.248zm4.1 0c-1.152 0-1.7.576-1.7 1.216v.032c0 .776.376 1.144 1.5 1.36.84.16.92.248.92.512v.016c0 .24-.184.424-.736.424a2.592 2.592 0 0 1-1.152-.3.4.4 0 0 0-.568.192.429.429 0 0 0 .152.592 3.3 3.3 0 0 0 1.576.36c1.072 0 1.752-.552 1.752-1.272v-.032c0-.808-.344-1.144-1.616-1.392-.736-.144-.816-.224-.816-.48v-.004c0-.2.2-.376.808-.376a2.1 2.1 0 0 1 .824.184.365.365 0 0 0 .52-.176.42.42 0 0 0-.208-.6 2.673 2.673 0 0 0-1.256-.248z" transform="translate(3.65 9)" style="stroke-width:.4px;fill:#2d3239;stroke:#2d3239"/>
    </g>
</svg>
