<svg xmlns="http://www.w3.org/2000/svg" width="44" height="44" viewBox="0 0 44 44">
    <defs>
        <style>
            .cls-2{fill:transparent}.cls-5,.cls-9{fill:none}.cls-5{stroke:#2d3239;stroke-width:1.5px}.cls-8{stroke:none}
        </style>
    </defs>
    <g id="ic_insurance_03" transform="translate(-8990 -484)">
        <circle id="타원_2143" data-name="타원 2143" cx="14.5" cy="14.5" r="14.5" transform="translate(8998 491)" style="fill:#fff"/>
        <path id="사각형_17179" data-name="사각형 17179" class="cls-2" transform="translate(8990 484)" d="M0 0h44v44H0z"/>
        <path id="사각형_17180" data-name="사각형 17180" class="cls-2" transform="translate(8994 488)" d="M0 0h36v36H0z"/>
        <path id="패스_12911" data-name="패스 12911" d="m18921.184-8536.332.91 4.746 4.715-1.089" transform="rotate(-165.02 14567.79 -3358.468)" style="stroke-linejoin:round;stroke-linecap:round;stroke:#2d3239;stroke-width:1.5px;fill:none"/>
        <path id="패스_12913" data-name="패스 12913" d="M1.377 9.444a14.509 14.509 0 1 1 13.4 20.071 14.659 14.659 0 0 1-9.141-3.241" transform="rotate(-165.02 4545.693 -332.42)" style="stroke-miterlimit:10;stroke-linecap:round;stroke:#2d3239;stroke-width:1.5px;fill:none"/>
        <g id="타원_2138" data-name="타원 2138" class="cls-5" transform="translate(9026 505.464)">
            <circle class="cls-8" cx="1" cy="1" r="1"/>
            <circle class="cls-9" cx="1" cy="1" r=".25"/>
        </g>
        <g id="타원_2140" data-name="타원 2140" class="cls-5" transform="translate(9026 502.464)">
            <circle class="cls-8" cx="1" cy="1" r="1"/>
            <circle class="cls-9" cx="1" cy="1" r=".25"/>
        </g>
        <g id="타원_2142" data-name="타원 2142" class="cls-5" transform="translate(9025 499.464)">
            <circle class="cls-8" cx="1" cy="1" r="1"/>
            <circle class="cls-9" cx="1" cy="1" r=".25"/>
        </g>
        <g id="패스_12914" data-name="패스 12914" style="fill:#7dedf3">
            <path class="cls-8" d="M1.135.57C.957.57.777.54.6.48A1.4 1.4 0 0 1-.19-.144c-.136-.235-.255-.626-.05-1.15l2.411-6.27c.154-.412.37-.699.657-.876.259-.16.552-.24.87-.24.33 0 .626.082.883.245.276.174.488.455.65.86l.002.003.001.004 2.294 5.912v-5.684c0-.456.188-.836.53-1.07.262-.179.567-.27.906-.27.34 0 .644.091.906.27.342.234.53.614.53 1.07v5.191h2.36c.29 0 .548.087.752.248v-5.44c0-.455.188-.835.53-1.069.263-.179.567-.27.906-.27.34 0 .644.091.906.27.342.234.53.614.53 1.07v5.191h2.36c.414 0 .763.177.984.497.165.241.25.521.25.832 0 .312-.085.592-.25.833-.22.32-.57.496-.983.496h-3.571c-.552 0-.956-.132-1.237-.405a1.226 1.226 0 0 1-.144-.169 1.42 1.42 0 0 1-.05.078c-.22.32-.569.496-.982.496H9.19c-.551 0-.955-.132-1.236-.405a1.263 1.263 0 0 1-.284-.42 1.377 1.377 0 0 1-.879.801 1.703 1.703 0 0 1-.938.036c-.245-.061-.69-.256-.909-.886l-.44-1.217h-1.65L2.4-.32l-.003.006-.002.006c-.224.592-.65.776-.882.833a1.59 1.59 0 0 1-.378.045z" transform="translate(9004.5 509.956)"/>
            <path d="M3.7-7.931a.892.892 0 0 0-.478.129c-.14.085-.256.254-.348.504L.46-1.024c-.078.2-.078.368 0 .504a.65.65 0 0 0 .376.29.885.885 0 0 0 .499.026c.16-.04.28-.163.359-.37l.633-1.759h2.702l.622 1.716c.079.229.206.365.38.408a.96.96 0 0 0 .532-.022.63.63 0 0 0 .386-.31c.078-.15.078-.33 0-.537l-2.413-6.22c-.1-.25-.218-.419-.354-.504a.885.885 0 0 0-.483-.129m.923 4.461H2.734l.568-1.555a12.49 12.49 0 0 0 .375-1.19c.058.186.113.368.167.547.054.179.127.393.22.643l.558 1.555M8.965-7.93a.834.834 0 0 0-.483.14c-.135.092-.203.243-.203.45v6.21c0 .335.066.568.198.696.132.13.37.194.713.194h3.572c.164 0 .286-.058.364-.172a.702.702 0 0 0 .118-.408.702.702 0 0 0-.118-.407c-.078-.115-.2-.172-.364-.172h-3.11V-7.34c0-.207-.068-.358-.204-.45a.834.834 0 0 0-.483-.14m5.984 0a.834.834 0 0 0-.482.14c-.136.092-.204.243-.204.45v6.21c0 .335.066.568.198.696.133.13.37.194.714.194h3.57c.165 0 .287-.058.365-.172a.702.702 0 0 0 .118-.408.702.702 0 0 0-.118-.407c-.078-.115-.2-.172-.364-.172h-3.11V-7.34c0-.207-.068-.358-.204-.45a.834.834 0 0 0-.483-.14M3.7-9.431c.473 0 .905.121 1.284.36.408.258.726.667.946 1.216l.005.014.845 2.177v-1.677c0-.7.312-1.316.856-1.689a2.34 2.34 0 0 1 1.33-.401c.486 0 .946.139 1.33.401.544.373.856.988.856 1.689V-2.9h1.612V-7.34c0-.7.312-1.316.857-1.689a2.341 2.341 0 0 1 1.33-.401c.485 0 .945.139 1.329.401.544.373.857.988.857 1.689V-2.9h1.61c.658 0 1.242.3 1.6.822.25.363.382.798.382 1.257 0 .46-.132.894-.381 1.258a1.907 1.907 0 0 1-1.601.822h-3.571c-.526 0-.975-.104-1.341-.308-.31.2-.677.308-1.072.308H9.19c-.605 0-1.108-.137-1.502-.408-.197.15-.422.268-.668.347-.44.14-.903.158-1.345.05-.668-.164-1.19-.66-1.437-1.362l-.26-.719H3.38l-.285.791c-.252.666-.765 1.139-1.405 1.295a2.394 2.394 0 0 1-1.33-.06A2.14 2.14 0 0 1-.837.23c-.308-.533-.344-1.171-.1-1.797L1.47-7.83c.212-.566.536-.986.965-1.25a2.374 2.374 0 0 1 1.263-.351z" style="fill:#7dedf3;stroke:none" transform="translate(9004.5 509.956)"/>
        </g>
        <g id="패스_12915" data-name="패스 12915" style="fill:none">
            <path class="cls-8" d="M3.784-7.931a.907.907 0 0 1 .5.132 1.052 1.052 0 0 1 .363.517L7.117-.9a.652.652 0 0 1 0 .55.647.647 0 0 1-.4.319.985.985 0 0 1-.544.022.572.572 0 0 1-.391-.418l-.638-1.76H2.376l-.649 1.8a.547.547 0 0 1-.368.379.908.908 0 0 1-.512-.025.667.667 0 0 1-.385-.3.578.578 0 0 1 0-.517l2.475-6.432a.984.984 0 0 1 .358-.518.915.915 0 0 1 .489-.131zm-.022 1.76q-.088.33-.17.589t-.215.633l-.583 1.6H4.73l-.572-1.6q-.143-.385-.225-.66t-.171-.562zm5.423-1.76a.855.855 0 0 1 .495.143.519.519 0 0 1 .209.462v6.094h3.19a.422.422 0 0 1 .374.176.72.72 0 0 1 .121.418.72.72 0 0 1-.121.418.422.422 0 0 1-.374.176H9.416a1.046 1.046 0 0 1-.732-.2.986.986 0 0 1-.2-.715v-6.367a.519.519 0 0 1 .209-.462.855.855 0 0 1 .492-.143zm6.138 0a.855.855 0 0 1 .495.143.519.519 0 0 1 .209.462v6.094h3.19a.422.422 0 0 1 .374.176.72.72 0 0 1 .121.418.72.72 0 0 1-.121.418.422.422 0 0 1-.374.176h-3.663a1.046 1.046 0 0 1-.732-.2.986.986 0 0 1-.2-.715v-6.367a.519.519 0 0 1 .209-.462.855.855 0 0 1 .492-.143z" transform="translate(9002.5 508.8)"/>
            <path d="M3.784-7.931a.915.915 0 0 0-.49.132c-.143.088-.262.26-.357.517L.462-.847c-.08.205-.08.378 0 .517.08.14.209.238.385.297a.908.908 0 0 0 .511.027c.165-.04.288-.166.369-.379l.649-1.804h2.772l.638 1.76c.08.235.21.374.39.418.18.044.362.037.545-.022a.647.647 0 0 0 .396-.319c.08-.154.08-.337 0-.55l-2.475-6.38c-.103-.257-.224-.429-.363-.517a.907.907 0 0 0-.495-.132m.946 4.576H2.794l.583-1.595c.088-.25.16-.46.214-.633.055-.172.112-.368.171-.588.059.19.115.378.17.561.055.183.13.403.226.66l.572 1.595m4.455-4.576a.855.855 0 0 0-.495.143c-.14.095-.209.25-.209.462v6.369c0 .345.068.583.203.715.136.132.38.198.732.198h3.663c.169 0 .293-.059.374-.176a.72.72 0 0 0 .121-.418.72.72 0 0 0-.121-.418c-.08-.117-.205-.176-.374-.176h-3.19v-6.094c0-.213-.07-.367-.209-.462a.855.855 0 0 0-.495-.143m6.138 0a.855.855 0 0 0-.495.143c-.14.095-.209.25-.209.462v6.369c0 .345.068.583.203.715.136.132.38.198.732.198h3.663c.169 0 .293-.059.374-.176a.72.72 0 0 0 .121-.418.72.72 0 0 0-.121-.418c-.08-.117-.205-.176-.374-.176h-3.19v-6.094c0-.213-.07-.367-.209-.462a.855.855 0 0 0-.495-.143m-11.539-1.5c.478 0 .914.122 1.296.364.411.26.733.673.955 1.228l.005.014.941 2.425v-1.926c0-.706.314-1.325.862-1.7a2.363 2.363 0 0 1 1.342-.405c.49 0 .955.14 1.342.405.548.375.862.994.862 1.7v4.594h1.73v-4.594c0-.706.314-1.325.862-1.7a2.363 2.363 0 0 1 1.342-.405c.49 0 .955.14 1.342.405.548.375.862.994.862 1.7v4.594h1.69c.662 0 1.25.301 1.61.826.252.367.385.805.385 1.268 0 .463-.133.902-.385 1.268-.36.525-.948.826-1.61.826h-3.663c-.542 0-1.003-.108-1.377-.322a1.975 1.975 0 0 1-1.098.322H9.416c-.624 0-1.141-.143-1.542-.427-.204.16-.438.284-.696.367-.445.142-.912.16-1.358.05C5.147 1.28 4.62.78 4.372.072l-.276-.761H3.43l-.3.836c-.255.672-.77 1.147-1.415 1.305-.438.107-.9.086-1.342-.062A2.156 2.156 0 0 1-.837.422c-.31-.537-.346-1.18-.1-1.811l2.472-6.425c.214-.572.541-.997.973-1.262a2.397 2.397 0 0 1 1.276-.355z" style="fill:#2d3239;stroke:none" transform="translate(9002.5 508.8)"/>
        </g>
    </g>
</svg>
