<svg xmlns="http://www.w3.org/2000/svg" width="44" height="44" viewBox="0 0 44 44">
    <defs>
        <style>
            .cls-1{fill:#ddd;opacity:0}.cls-2{fill:#fff}.cls-3{fill:#7dedf3}.cls-4{fill:none}.cls-6,.cls-7{stroke:none}.cls-7{fill:#2d3239}
        </style>
    </defs>
    <g id="ic_insurance_01" transform="translate(-713 -468)">
        <g id="그룹_13432" data-name="그룹 13432" transform="translate(439.879 140.713)">
            <path id="패스_12086" data-name="패스 12086" class="cls-2" d="M24.795 2.557a8.048 8.048 0 0 0-2.673.668 4.108 4.108 0 0 1-3.281 0 8.237 8.237 0 0 0-2.673-.668c-4.861-.334-8.567 3.8-8.567 8.9 0 2.795 1.549 4.678 2.856 8.081a53.59 53.59 0 0 1 1.914 7.169c.516 2.157 1.61 4.678 3.828 4.678 2.248 0 2.066-5.924 2.582-8.506a4.872 4.872 0 0 1 1-2.218.892.892 0 0 1 1.367 0 4.31 4.31 0 0 1 1 2.218c.516 2.582.334 8.506 2.582 8.506s3.342-2.521 3.858-4.678a54.948 54.948 0 0 1 1.914-7.169c1.306-3.4 2.856-5.286 2.856-8.081.003-5.103-3.703-9.235-8.563-8.9z" transform="translate(270.641 331.037)"/>
            <path id="패스_12147" data-name="패스 12147" class="cls-2" d="M24.795 2.557a8.048 8.048 0 0 0-2.673.668 4.108 4.108 0 0 1-3.281 0 8.237 8.237 0 0 0-2.673-.668c-4.861-.334-8.567 3.8-8.567 8.9 0 2.795 1.549 4.678 2.856 8.081a53.59 53.59 0 0 1 1.914 7.169c.516 2.157 1.61 4.678 3.828 4.678 2.248 0 2.066-5.924 2.582-8.506a4.872 4.872 0 0 1 1-2.218.892.892 0 0 1 1.367 0 4.31 4.31 0 0 1 1 2.218c.516 2.582.334 8.506 2.582 8.506s3.342-2.521 3.858-4.678a54.948 54.948 0 0 1 1.914-7.169c1.306-3.4 2.856-5.286 2.856-8.081.003-5.103-3.703-9.235-8.563-8.9z" transform="translate(270.641 331.037)"/>
            <path id="빼기_328" data-name="빼기 328" class="cls-3" d="M10.726 28.848A1.392 1.392 0 0 1 9.512 28a7.817 7.817 0 0 0 1.851-3.833c.239-.985.427-1.794.579-2.443A32.5 32.5 0 0 1 13.275 17c.427-1.113.889-2.081 1.3-2.936l.006-.012a11.46 11.46 0 0 0 1.555-5.133 9.662 9.662 0 0 0-1.8-5.69 7.791 7.791 0 0 0-4.62-3.06 7.293 7.293 0 0 1 1.07-.151A8.45 8.45 0 0 1 11.337 0a7.573 7.573 0 0 1 5.728 2.618 9.461 9.461 0 0 1 2.287 6.3 11.474 11.474 0 0 1-1.552 5.14c-.409.856-.871 1.827-1.3 2.942a31.794 31.794 0 0 0-1.32 4.663l-.019.079a294.74 294.74 0 0 1-.577 2.427c-.512 2.131-1.596 4.679-3.858 4.679zm-8.536 0a2.787 2.787 0 0 1-2-.861c.653-1.162.864-3.3 1.05-5.178.092-.932.178-1.807.31-2.468a4.931 4.931 0 0 1 1-2.216.911.911 0 0 1 .7-.319.838.838 0 0 1 .671.319 4.151 4.151 0 0 1 .932 1.866c-.03.112-.056.228-.082.35-.135.659-.22 1.539-.311 2.469-.26 2.69-.594 6.038-2.27 6.038zM3.263 1.029A4.18 4.18 0 0 1 1.61.686 8.632 8.632 0 0 0 0 .171 7.426 7.426 0 0 1 1.6 0c.173 0 .36.006.553.018a8.177 8.177 0 0 1 2.676.668.165.165 0 0 0 .028.014 3.9 3.9 0 0 1-1.594.329z" transform="translate(284.648 333.577)"/>
            <g id="패스_12586" data-name="패스 12586" class="cls-4">
                <path class="cls-6" d="M24.795 2.557a8.048 8.048 0 0 0-2.673.668 4.108 4.108 0 0 1-3.281 0 8.237 8.237 0 0 0-2.673-.668c-4.861-.334-8.567 3.8-8.567 8.9 0 2.795 1.549 4.678 2.856 8.081a53.59 53.59 0 0 1 1.914 7.169c.516 2.157 1.61 4.678 3.828 4.678 2.248 0 2.066-5.924 2.582-8.506a4.872 4.872 0 0 1 1-2.218.892.892 0 0 1 1.367 0 4.31 4.31 0 0 1 1 2.218c.516 2.582.334 8.506 2.582 8.506s3.342-2.521 3.858-4.678a54.948 54.948 0 0 1 1.914-7.169c1.306-3.4 2.856-5.286 2.856-8.081.003-5.103-3.703-9.235-8.563-8.9z" transform="translate(270.641 331.037)"/>
                <path class="cls-7" d="M25.342 2.538v1.5a6.51 6.51 0 0 0-.445.015h-.006c-.707.046-1.418.225-2.173.548a5.502 5.502 0 0 1-2.226.466 5.663 5.663 0 0 1-2.243-.463 6.787 6.787 0 0 0-2.185-.55 6.522 6.522 0 0 0-.446-.016c-1.764 0-3.4.75-4.606 2.113C9.779 7.543 9.1 9.428 9.1 11.458c0 1.539.591 2.777 1.41 4.492.42.881.897 1.88 1.347 3.053.642 1.68.902 2.797 1.421 5.023.155.667.332 1.423.55 2.333.267 1.114.632 2.03 1.056 2.65.488.715.924.847 1.174.872.097-.142.301-.528.497-1.468.2-.963.313-2.107.422-3.214.095-.968.186-1.883.332-2.613l.001-.007c.292-1.423.788-2.172 1.272-2.816l.03-.04.031-.037a2.412 2.412 0 0 1 1.834-.842c.726 0 1.397.32 1.842.88.49.604 1.034 1.376 1.306 2.877.145.727.234 1.636.33 2.598.108 1.107.221 2.25.421 3.214.196.94.4 1.327.498 1.468.257-.023.706-.153 1.202-.875.425-.617.79-1.533 1.058-2.651.232-.96.417-1.748.58-2.444.49-2.102.76-3.26 1.391-4.91.45-1.17.927-2.17 1.347-3.05.818-1.716 1.41-2.954 1.41-4.493 0-2.03-.68-3.915-1.912-5.307-1.207-1.363-2.843-2.113-4.607-2.113v-1.5m-9.725 0c.181 0 .364.006.549.019.911.06 1.823.303 2.673.668a4.108 4.108 0 0 0 3.281 0c.85-.365 1.732-.608 2.674-.668 4.86-.335 8.566 3.797 8.566 8.9 0 2.796-1.549 4.679-2.855 8.081-.79 2.066-.972 3.281-1.914 7.17-.517 2.157-1.61 4.678-3.858 4.678s-2.066-5.924-2.582-8.506c-.213-1.185-.608-1.731-1.003-2.217-.334-.426-1.002-.426-1.367 0-.365.486-.76 1.032-1.003 2.217-.516 2.582-.334 8.506-2.582 8.506-2.217 0-3.311-2.521-3.827-4.678-.942-3.919-1.125-5.104-1.914-7.17-1.307-3.402-2.856-5.285-2.856-8.08 0-4.91 3.43-8.92 8.018-8.92z" transform="translate(270.641 331.037)"/>
            </g>
        </g>
        <g id="그룹_13433" data-name="그룹 13433" transform="translate(695.67 -278.768)">
            <path id="패스_12225" data-name="패스 12225" class="cls-2" d="M0 2.2C.328 1.264 6.228-1 7.158-1s6.708 2.551 7.154 3.2-.422 5.6-1.683 8S8.258 15 7.158 15s-4.246-2.583-5.471-4.8S-.32 3.136 0 2.2z" transform="translate(40.4 770.768)"/>
            <path id="패스_12149" data-name="패스 12149" class="cls-3" d="M0 2c.29-.877 5.58-3 6.415-3s6.014 2.392 6.414 3-.379 5.252-1.509 7.5S7.132 14 6.411 14 2.6 11.578 1.506 9.5-.295 2.877 0 2z" transform="translate(43.4 771.268)"/>
            <path id="패스_12150" data-name="패스 12150" d="m-10170 5361.4 2.063 2.1 3.437-3.5" transform="translate(10215.08 -4584.232)" style="stroke:#2d3239;stroke-linecap:round;stroke-linejoin:round;stroke-width:1.5px;fill:none"/>
            <g id="패스_12151" data-name="패스 12151" class="cls-4">
                <path class="cls-6" d="M0 2.2C.328 1.264 6.228-1 7.158-1s6.708 2.551 7.154 3.2-.422 5.6-1.683 8S8.258 15 7.158 15s-4.246-2.583-5.471-4.8S-.32 3.136 0 2.2z" transform="translate(40.4 770.768)"/>
                <path class="cls-7" d="M7.146.51c-.368.074-1.477.41-2.997 1.033-1.541.633-2.364 1.093-2.72 1.331.001.46.078 1.417.35 2.77C2.1 7.24 2.557 8.671 3 9.474c.44.797 1.284 1.79 2.257 2.655.92.816 1.616 1.225 1.91 1.346.295-.112.983-.497 1.873-1.272.985-.859 1.809-1.843 2.26-2.701.454-.862.923-2.302 1.256-3.852.272-1.268.362-2.158.373-2.621-.467-.278-1.404-.763-2.71-1.34C8.642.99 7.527.598 7.146.51M7.158-1c.93 0 6.709 2.551 7.154 3.2.445.649-.422 5.602-1.683 8-1.261 2.398-4.371 4.8-5.47 4.8-1.1 0-4.247-2.583-5.471-4.8C.463 7.983-.32 3.136.004 2.2.328 1.264 6.228-1 7.158-1z" transform="translate(40.4 770.768)"/>
            </g>
        </g>
    </g>
</svg>
