<svg xmlns="http://www.w3.org/2000/svg" width="44" height="44" viewBox="0 0 44 44">
    <defs>
        <style>
            .cls-1{fill:#d2d2d2;opacity:0}.cls-5{fill:#fff}.cls-12,.cls-3,.cls-6{fill:none}.cls-3,.cls-5,.cls-6{stroke:#2d3239;stroke-width:1.5px}.cls-3,.cls-6{stroke-linecap:round}.cls-6{stroke-linejoin:round}.cls-10,.cls-11{stroke:none}.cls-11{fill:#2d3239}
        </style>
    </defs>
    <g id="ic_insurance_01" transform="translate(-1028 -789)">
        <g id="패스_12844" data-name="패스 12844" style="fill:#fff">
            <path class="cls-10" d="M12.446 14.495C5.888 14.495.75 12.863.75 10.78.75 5.25 5.997.75 12.446.75c6.45 0 11.696 4.5 11.696 10.03 0 2.083-5.137 3.715-11.696 3.715z" transform="translate(1036.496 812.595)"/>
            <path class="cls-11" d="M12.446 1.5C6.41 1.5 1.5 5.663 1.5 10.78c0 .467.745 1.25 2.845 1.92 2.083.664 5.036 1.045 8.101 1.045 3.065 0 6.018-.381 8.101-1.045 2.1-.67 2.845-1.453 2.845-1.92 0-5.117-4.91-9.28-10.946-9.28m0-1.5c6.874 0 12.446 4.826 12.446 10.78 0 5.953-24.892 5.953-24.892 0C0 4.826 5.572 0 12.446 0z" transform="translate(1036.496 812.595)"/>
        </g>
        <path id="패스_12811" data-name="패스 12811" class="cls-3" d="M1346.149 292.584a3.536 3.536 0 0 1-7.048 0" transform="translate(-293.844 521.632)"/>
        <g id="패스_12804" data-name="패스 12804" style="stroke-linejoin:round;fill:#fff">
            <path class="cls-10" d="M9.42 9.224H1.995A1.246 1.246 0 0 1 .75 7.979V2.267c.301-.104 1.149-.278 3.441-.278 1.02 0 2.016.034 2.742.058.414.014.713.024.896.024H8.1l.208-.173L9.681.758a4.242 4.242 0 0 1 3.975 4.229c0 2.336-1.9 4.237-4.236 4.237z" transform="translate(1041.554 793.257)"/>
            <path class="cls-11" d="m9.918 1.536-1.13.939a1.5 1.5 0 0 1-.959.346c-.196 0-.5-.01-.92-.025A80.821 80.821 0 0 0 4.19 2.74c-1.414 0-2.231.069-2.691.135v5.105c0 .273.222.495.495.495H9.42a3.49 3.49 0 0 0 3.486-3.487c0-1.753-1.3-3.209-2.988-3.451M9.42 0a4.987 4.987 0 0 1 0 9.974H1.995A1.995 1.995 0 0 1 0 7.979V1.995C0 .893 6.728 1.32 7.83 1.32L9.42 0z" transform="translate(1041.554 793.257)"/>
        </g>
        <g id="사각형_16925" data-name="사각형 16925" class="cls-5">
            <path class="cls-10" d="M2 0h12.406v10.515a5 5 0 0 1-5 5H5a5 5 0 0 1-5-5V2a2 2 0 0 1 2-2z" transform="translate(1041.554 798.798)"/>
            <path class="cls-12" d="M2 .75h11.656v9.765a4.25 4.25 0 0 1-4.25 4.25H5a4.25 4.25 0 0 1-4.25-4.25V2A1.25 1.25 0 0 1 2 .75z" transform="translate(1041.554 798.798)"/>
        </g>
        <g id="사각형_16926" data-name="사각형 16926" class="cls-5">
            <path class="cls-10" d="M1.267 0a3.166 3.166 0 0 1 3.166 3.166v.317a3.166 3.166 0 0 1-3.166 3.166A1.267 1.267 0 0 1 0 5.383V1.267A1.267 1.267 0 0 1 1.267 0z" transform="translate(1054.499 802.122)"/>
            <path class="cls-12" d="M1.417.75a2.266 2.266 0 0 1 2.266 2.266v.617A2.266 2.266 0 0 1 1.417 5.9a.667.667 0 0 1-.667-.667V1.417A.667.667 0 0 1 1.417.75z" transform="translate(1054.499 802.122)"/>
        </g>
        <g id="사각형_16928" data-name="사각형 16928" class="cls-5">
            <path class="cls-10" d="M3.166 0a1.267 1.267 0 0 1 1.267 1.267v4.116a1.267 1.267 0 0 1-1.267 1.266A3.166 3.166 0 0 1 0 3.483v-.317A3.166 3.166 0 0 1 3.166 0z" transform="translate(1038.629 802.122)"/>
            <path class="cls-12" d="M3.016.75a.667.667 0 0 1 .667.667v3.816a.667.667 0 0 1-.667.667A2.266 2.266 0 0 1 .75 3.633v-.617A2.266 2.266 0 0 1 3.016.75z" transform="translate(1038.629 802.122)"/>
        </g>
        <path id="패스_12807" data-name="패스 12807" class="cls-6" d="M1043.586 804.477v2.582h1.6" transform="translate(4.533 -.496)"/>
        <path id="패스_12805" data-name="패스 12805" class="cls-3" d="M1041.162 802.152v1.33" transform="translate(4.27 1.468)"/>
        <path id="패스_12806" data-name="패스 12806" class="cls-3" d="M1041.162 802.152v1.33" transform="translate(10.919 1.468)"/>
        <path id="패스_12808" data-name="패스 12808" class="cls-3" d="M1041.995 808.888a3.55 3.55 0 0 0 4.941 0" transform="translate(4.36 -.019)"/>
        <g id="그룹_13600" data-name="그룹 13600" transform="translate(1003.966 25.232)">
            <circle id="타원_1896" data-name="타원 1896" cx="8" cy="8" r="8" transform="translate(48.33 786.768)" style="fill:#fff"/>
            <path id="패스_10995" data-name="패스 10995" d="M7 0a7 7 0 1 1-7 7 7 7 0 0 1 7-7z" transform="translate(51.33 788.268)" style="fill:#7dedf3"/>
            <g id="타원_1441" data-name="타원 1441" transform="translate(48.33 786.768)" style="stroke:#2d3239;stroke-width:1.5px;fill:none">
                <circle class="cls-10" cx="8" cy="8" r="8"/>
                <circle class="cls-12" cx="8" cy="8" r="7.25"/>
            </g>
            <g id="그룹_10611" data-name="그룹 10611" transform="translate(52.158 792.632)">
                <path id="패스_2252" data-name="패스 2252" class="cls-6" d="m3649.637 5413.028 1.622 4.635 1.623-4.635 1.622 4.635 1.623-4.635" transform="translate(-3648.709 -5413.028)"/>
                <path id="선_11" data-name="선 11" class="cls-3" transform="translate(0 1.854)" d="M0 0h1.391"/>
                <path id="선_166" data-name="선 166" class="cls-3" transform="translate(6.953 1.854)" d="M0 0h1.391"/>
            </g>
        </g>
    </g>
</svg>
