<svg xmlns="http://www.w3.org/2000/svg" width="44" height="44" viewBox="0 0 44 44">
    <g data-name="패스 13099" style="fill:#fff">
        <path d="M20.217 17.25H1.783a.242.242 0 0 1-.218-.128.242.242 0 0 1 .005-.252l9.217-15.083a.243.243 0 0 1 .213-.12c.052 0 .15.016.213.12L20.43 16.87a.242.242 0 0 1 .005.252.242.242 0 0 1-.218.128z" style="stroke:none" transform="translate(6 20)"/>
        <path d="M11 2.877 2.675 16.5h16.65L11 2.877m0-1.96c.33 0 .658.16.853.48l9.217 15.082A1 1 0 0 1 20.217 18H1.783a1 1 0 0 1-.853-1.521l9.217-15.083A.991.991 0 0 1 11 .918z" style="fill:#2d3239;stroke:none" transform="translate(6 20)"/>
    </g>
    <path data-name="패스 13098" d="M12 24A12 12 0 0 1 3.515 3.515a12 12 0 1 1 16.97 16.97A11.922 11.922 0 0 1 12 24zm0-18.461A6.461 6.461 0 1 0 18.461 12 6.468 6.468 0 0 0 12 5.539z" transform="translate(5 6)" style="fill:#fff"/>
    <path data-name="패스 13097" d="M11 22A11 11 0 0 1 3.222 3.222a11 11 0 1 1 15.556 15.556A10.928 10.928 0 0 1 11 22zm0-16.923A5.923 5.923 0 1 0 16.923 11 5.929 5.929 0 0 0 11 5.077z" transform="translate(8 7)" style="fill:#7dedf3"/>
    <g data-name="패스 13096" style="fill:none">
        <path d="M12 24A12 12 0 0 1 3.515 3.515a12 12 0 1 1 16.97 16.97A11.922 11.922 0 0 1 12 24zm0-18.461A6.461 6.461 0 1 0 18.461 12 6.468 6.468 0 0 0 12 5.539z" style="stroke:none" transform="translate(5 6)"/>
        <path d="M12 22.5c2.804 0 5.441-1.092 7.425-3.075A10.432 10.432 0 0 0 22.5 12a10.43 10.43 0 0 0-3.075-7.425A10.432 10.432 0 0 0 12 1.5a10.43 10.43 0 0 0-7.425 3.075A10.43 10.43 0 0 0 1.5 12c0 2.804 1.092 5.441 3.075 7.425A10.43 10.43 0 0 0 12 22.5m0-18.461c4.39 0 7.961 3.571 7.961 7.96 0 4.39-3.571 7.962-7.961 7.962-4.39 0-7.961-3.571-7.961-7.961 0-4.39 3.571-7.961 7.96-7.961M12 24a11.92 11.92 0 0 1-8.484-3.515A11.922 11.922 0 0 1 0 12C0 8.794 1.248 5.78 3.515 3.515A11.921 11.921 0 0 1 12 0c3.205 0 6.219 1.248 8.485 3.515A11.92 11.92 0 0 1 24 12c0 3.205-1.248 6.219-3.515 8.485A11.922 11.922 0 0 1 12 24zm0-18.461a6.468 6.468 0 0 0-6.46 6.46 6.469 6.469 0 0 0 6.46 6.462A6.469 6.469 0 0 0 18.462 12 6.469 6.469 0 0 0 12 5.539z" style="fill:#2d3239;stroke:none" transform="translate(5 6)"/>
    </g>
    <path data-name="패스 13095" d="M4.929 6.684C.352 5.89 0 .75 0 .75h26a3 3 0 1 1 0 6H5.606a4.023 4.023 0 0 1-.677-.066z" transform="translate(10 18.75)" style="stroke:#2d3239;stroke-width:1.5px;fill:#fff"/>
    <g data-name="패스 13094" style="fill:#fff">
        <path d="M6 12.25H2c-.69 0-1.25-.56-1.25-1.25V.75h6.5V11c0 .69-.56 1.25-1.25 1.25z" style="stroke:none" transform="translate(29 25)"/>
        <path d="M1.5 1.5V11a.5.5 0 0 0 .5.5h4a.5.5 0 0 0 .5-.5V1.5h-5M0 0h8v11a2 2 0 0 1-2 2H2a2 2 0 0 1-2-2V0z" style="fill:#2d3239;stroke:none" transform="translate(29 25)"/>
    </g>
    <path data-name="패스 13093" d="M0 0h5" transform="translate(30.5 31.5)" style="stroke:#2d3239;stroke-width:1.5px;fill:none"/>
    <g data-name="패스 13092" style="fill:#fff">
        <path d="M5.25 5.25H.75V3C.75 1.76 1.76.75 3 .75S5.25 1.76 5.25 3v2.25z" style="stroke:none" transform="translate(14 32)"/>
        <path d="M3 1.5c-.827 0-1.5.673-1.5 1.5v1.5h3V3c0-.827-.673-1.5-1.5-1.5M3 0a3 3 0 0 1 3 3v3H0V3a3 3 0 0 1 3-3z" style="fill:#2d3239;stroke:none" transform="translate(14 32)"/>
    </g>
</svg>
