<svg xmlns="http://www.w3.org/2000/svg" width="36" height="36" viewBox="0 0 36 36">
    <defs>
        <style>
            .cls-1,.cls-3{fill:none}.cls-3{stroke:#2d3239;stroke-width:1.5px}.cls-5{stroke:none}
        </style>
    </defs>
    <g id="ic_internet" transform="translate(-44 -750)">
        <path id="사각형_7870" data-name="사각형 7870" class="cls-1" transform="translate(44 750)" d="M0 0h36v36H0z"/>
        <path id="빼기_339" data-name="빼기 339" d="M-721.157-14489.985a13.485 13.485 0 0 1-3.82-.549 14.075 14.075 0 0 0 12.82-13.953 13.969 13.969 0 0 0-7.532-12.419 13.471 13.471 0 0 1 8.554 4.374 13.471 13.471 0 0 1 3.478 9.047 13.414 13.414 0 0 1-3.953 9.546 13.412 13.412 0 0 1-9.547 3.954z" transform="translate(783.656 15271.986)" style="fill:#7dedf3"/>
        <g id="타원_1893" data-name="타원 1893" class="cls-3" transform="translate(48.5 754.5)">
            <circle class="cls-5" cx="13.5" cy="13.5" r="13.5"/>
            <circle class="cls-1" cx="13.5" cy="13.5" r="12.75"/>
        </g>
        <g id="타원_1417" data-name="타원 1417" class="cls-3" transform="translate(55.5 754.5)">
            <ellipse class="cls-5" cx="6.5" cy="13.5" rx="6.5" ry="13.5"/>
            <ellipse class="cls-1" cx="6.5" cy="13.5" rx="5.75" ry="12.75"/>
        </g>
        <path id="사각형_11694" data-name="사각형 11694" transform="translate(48.5 767.25)" style="fill:#2d3239" d="M0 0h26v1.5H0z"/>
    </g>
</svg>
