<svg xmlns="http://www.w3.org/2000/svg" width="44" height="44" viewBox="0 0 44 44">
    <g data-name="그룹 13488">
        <path data-name="↳Color" d="M13.43 24.174c-.974 0-1.947-1.158-1.947-1.158C4.566 16.7 0 12.542 0 7.433A7.338 7.338 0 0 1 7.386 0c2.337 0 4.58 1.556 6.043 3.285C14.894 1.556 17.137 0 19.473 0a7.338 7.338 0 0 1 7.387 7.433c0 5.109-4.566 9.271-11.483 15.6 0-.004-.977 1.144-1.947 1.141z" transform="translate(7.279 7.638)" style="fill:#fff"/>
        <path data-name="패스 13160" d="M1.974 24.172c-.964 0-1.94-1.147-1.949-1.158A.238.238 0 0 1 0 22.995 79 79 0 0 0 7.828 15.2c2.041-2.538 2.951-4.688 2.951-6.971a7.2 7.2 0 0 0-1.81-4.812 7.041 7.041 0 0 0-4.507-2.3A6.839 6.839 0 0 1 8.013 0 7.329 7.329 0 0 1 15.4 7.433c0 5.1-4.548 9.255-11.432 15.548l-.049.046a3.233 3.233 0 0 1-1.945 1.145z" transform="translate(19.278 7.46)" style="fill:#7dedf3"/>
        <g data-name="↳Color" style="stroke-miterlimit:10;stroke-linejoin:round;stroke-linecap:round;fill:none">
            <path d="M13.43 24.174c-.974 0-1.947-1.158-1.947-1.158C4.566 16.7 0 12.542 0 7.433A7.338 7.338 0 0 1 7.386 0c2.337 0 4.58 1.556 6.043 3.285C14.894 1.556 17.137 0 19.473 0a7.338 7.338 0 0 1 7.387 7.433c0 5.109-4.566 9.271-11.483 15.6 0-.004-.977 1.144-1.947 1.141z" style="stroke:none" transform="translate(7.279 7.638)"/>
            <path d="M13.435 22.67c.181-.053.569-.349.8-.614.043-.051.08-.088.13-.134l.053-.048c3.337-3.052 6.218-5.687 8.144-8.063 1.935-2.386 2.798-4.353 2.798-6.378 0-3.327-2.586-5.933-5.887-5.933-1.893 0-3.771 1.423-4.898 2.754a1.5 1.5 0 0 1-2.29 0C11.158 2.923 9.28 1.5 7.386 1.5 4.086 1.5 1.5 4.106 1.5 7.433c0 2.028.866 3.999 2.807 6.388 1.932 2.38 4.823 5.017 8.17 8.071l.017.016c.051.047.089.085.133.138.234.269.625.57.808.623m0 1.505h-.005c-.974-.003-1.947-1.158-1.947-1.158C4.566 16.704 0 12.542 0 7.433 0 3.271 3.25 0 7.386 0c2.337 0 4.58 1.556 6.044 3.285C14.894 1.555 17.137 0 19.473 0c4.137 0 7.387 3.27 7.387 7.433 0 5.109-4.566 9.271-11.483 15.596 0 0-.97 1.145-1.943 1.145z" style="fill:#2d3239;stroke:none" transform="translate(7.279 7.638)"/>
        </g>
        <path data-name="패스 13159" d="M0 0h6v6H0z" transform="translate(6.375 16.134)" style="fill:#fff"/>
        <path data-name="패스 12869" d="M3217.348 298.014h6.335l1.869-6.37 4.777 11.008 2.077-4.639h4.57" transform="translate(-3211.973 -279.196)" style="stroke:#2d3239;stroke-width:1.5px;stroke-linejoin:round;stroke-linecap:round;fill:none"/>
        <path data-name="패스 13158" d="M0 0v1" transform="rotate(-5.13 177.845 -84.134)" style="stroke:#2d3239;stroke-width:1.5px;stroke-linecap:round;fill:none"/>
        <path data-name="패스 13157" d="m0 0 1.088 1.088" transform="rotate(4.01 -305.453 165.713)" style="stroke:#2d3239;stroke-width:1.5px;stroke-linecap:round;fill:none"/>
    </g>
    <g data-name="그룹 13351">
        <path data-name="패스 12225" d="M0 2.2C.328 1.264 6.228-1 7.158-1s6.708 2.551 7.154 3.2-.422 5.6-1.683 8S8.258 15 7.158 15s-4.246-2.583-5.471-4.8S-.32 3.136 0 2.2z" transform="translate(23.07 21.541)" style="fill:#fff"/>
        <path data-name="패스 12149" d="M0 2c.29-.877 5.58-3 6.415-3s6.014 2.392 6.414 3-.379 5.252-1.509 7.5S7.132 14 6.411 14 2.6 11.578 1.506 9.5-.295 2.877 0 2z" transform="translate(26.07 22.041)" style="fill:#7dedf3"/>
        <path data-name="패스 12150" d="m-10170 5361.4 2.063 2.1 3.437-3.5" transform="translate(10197.75 -5333.459)" style="stroke:#2d3239;stroke-width:1.5px;stroke-linejoin:round;stroke-linecap:round;fill:none"/>
        <g data-name="패스 12151" style="fill:none">
            <path d="M0 2.2C.328 1.264 6.228-1 7.158-1s6.708 2.551 7.154 3.2-.422 5.6-1.683 8S8.258 15 7.158 15s-4.246-2.583-5.471-4.8S-.32 3.136 0 2.2z" style="stroke:none" transform="translate(23.07 21.541)"/>
            <path d="M7.146.51c-.368.074-1.477.41-2.997 1.033-1.541.633-2.364 1.093-2.72 1.331.001.46.078 1.417.35 2.77C2.1 7.24 2.557 8.671 3 9.474c.44.797 1.284 1.79 2.257 2.655.92.816 1.616 1.225 1.91 1.346.295-.112.983-.497 1.873-1.272.985-.859 1.809-1.843 2.26-2.701.454-.862.923-2.302 1.256-3.852.272-1.268.362-2.158.373-2.621-.467-.278-1.404-.763-2.71-1.34C8.642.99 7.527.598 7.146.51M7.158-1c.93 0 6.709 2.551 7.154 3.2.445.649-.422 5.602-1.683 8-1.261 2.398-4.371 4.8-5.47 4.8-1.1 0-4.247-2.583-5.471-4.8C.463 7.983-.32 3.136.004 2.2.328 1.264 6.228-1 7.158-1z" style="fill:#2d3239;stroke:none" transform="translate(23.07 21.541)"/>
        </g>
    </g>
</svg>
