<svg xmlns="http://www.w3.org/2000/svg" width="44" height="44" viewBox="0 0 44 44">
    <defs>
        <style>
            .cls-1{fill:#dedede;opacity:0}.cls-2{fill:#fff}.cls-7,.cls-8,.cls-9{stroke:#2d3239;stroke-width:1.5px}.cls-4{fill:#2d3239}.cls-12,.cls-7,.cls-8,.cls-9{fill:none}.cls-7,.cls-9{stroke-linecap:round}.cls-7{stroke-linejoin:round}.cls-10,.cls-11{stroke:none}.cls-11{fill:#2d3239}
        </style>
    </defs>
    <g id="ic_insurance_03" transform="translate(-298 -987)">
        <g id="합치기_314" data-name="합치기 314" class="cls-2">
            <path class="cls-10" d="M-1978.5 15.25c-.382 0-.745-.12-1.05-.35l-.45-.338-.45.339c-.305.228-.668.35-1.05.35a1.743 1.743 0 0 1-1.479-.815l-.328-.517-.572.218a1.749 1.749 0 0 1-2.342-1.316l-.094-.507-.507-.094a1.748 1.748 0 0 1-1.315-2.342l.218-.571-.517-.328a1.744 1.744 0 0 1-.814-1.48c0-.9.703-1.666 1.6-1.742l.51-.043.146-.492a6.298 6.298 0 0 1 2.222-3.206A6.194 6.194 0 0 1-1981 .75a6.257 6.257 0 0 1 6.25 6.25 6.259 6.259 0 0 1-2.095 4.67l-.461.41.314.531a1.752 1.752 0 0 1-1.507 2.64z" transform="translate(2299 1006)"/>
            <path class="cls-11" d="M-1978.5 14.5a1 1 0 0 0 .862-1.507l-.628-1.063.922-.82A5.508 5.508 0 0 0-1975.5 7c0-3.033-2.467-5.5-5.5-5.5a5.45 5.45 0 0 0-3.32 1.114 5.543 5.543 0 0 0-1.955 2.821l-.29.983-1.022.086c-.512.043-.913.48-.913.996 0 .344.174.66.466.846L-1987 9l-.434 1.144a.998.998 0 0 0 .75 1.338l1.014.188.188 1.014a.999.999 0 0 0 1.338.75l1.144-.434.656 1.033a.997.997 0 0 0 1.444.267l.901-.677.901.677a.99.99 0 0 0 .6.2m0 1.5a2.49 2.49 0 0 1-1.5-.5 2.497 2.497 0 0 1-3.612-.662 2.501 2.501 0 0 1-3.346-1.88 2.5 2.5 0 0 1-1.88-3.347 2.499 2.499 0 0 1 1.124-4.603 7 7 0 1 1 11.366 7.22A2.5 2.5 0 0 1-1978.5 16z" transform="translate(2299 1006)"/>
        </g>
        <g id="타원_2109" data-name="타원 2109" transform="translate(312 1007)" style="stroke:#2d3239;stroke-width:1.5px;fill:#fff">
            <circle class="cls-10" cx="6" cy="6" r="6"/>
            <circle class="cls-12" cx="6" cy="6" r="5.25"/>
        </g>
        <g id="합치기_305" data-name="합치기 305" class="cls-2">
            <path class="cls-10" d="M13.922 20.133a9.807 9.807 0 0 1-5.633-1.761 9.69 9.69 0 0 1-3.536-4.507l-.226-.593-.623.126a2.684 2.684 0 0 1-.53.052C1.928 13.45.75 12.288.75 10.86c0-1.429 1.177-2.591 2.625-2.591.107 0 .215.006.322.02l.632.075.178-.61a9.761 9.761 0 0 1 3.472-5.017A9.775 9.775 0 0 1 13.922.75c2.169 0 4.224.687 5.942 1.986a9.76 9.76 0 0 1 3.473 5.016l.178.611.631-.076c.107-.013.215-.02.322-.02 1.448 0 2.626 1.163 2.626 2.592s-1.178 2.591-2.626 2.591a2.68 2.68 0 0 1-.529-.052l-.623-.126-.226.593a9.689 9.689 0 0 1-3.535 4.507 9.807 9.807 0 0 1-5.633 1.76z" transform="translate(303.182 993.848)"/>
            <path class="cls-11" d="M13.922 19.383a9.06 9.06 0 0 0 5.204-1.627 8.942 8.942 0 0 0 3.263-4.158l.453-1.187 1.245.252c.125.025.253.037.381.037 1.035 0 1.876-.826 1.876-1.841 0-1.015-.841-1.841-1.876-1.841a1.95 1.95 0 0 0-.232.014l-1.264.152-.355-1.222a9.006 9.006 0 0 0-3.205-4.628 9.031 9.031 0 0 0-5.49-1.834 9.03 9.03 0 0 0-5.49 1.834 9.006 9.006 0 0 0-3.205 4.628L4.87 9.184l-1.264-.152a1.954 1.954 0 0 0-.232-.014c-1.034 0-1.875.826-1.875 1.84 0 1.016.841 1.842 1.875 1.842.128 0 .257-.012.381-.037l1.245-.252.453 1.187a8.942 8.942 0 0 0 3.263 4.158 9.06 9.06 0 0 0 5.205 1.627m0 1.5c-4.512 0-8.363-2.805-9.87-6.75a3.426 3.426 0 0 1-.677.067C1.51 14.2 0 12.704 0 10.86c0-1.845 1.511-3.341 3.375-3.341.139 0 .277.008.412.024C5.056 3.186 9.113 0 13.922 0s8.866 3.186 10.135 7.542a3.44 3.44 0 0 1 .411-.024c1.865 0 3.376 1.496 3.376 3.34 0 1.846-1.511 3.342-3.376 3.342a3.42 3.42 0 0 1-.678-.067c-1.506 3.945-5.356 6.75-9.868 6.75z" transform="translate(303.182 993.848)"/>
        </g>
        <circle id="타원_2071" data-name="타원 2071" class="cls-4" cx="1.25" cy="1.25" r="1.25" transform="translate(312.52 1002.782)"/>
        <circle id="타원_2072" data-name="타원 2072" class="cls-4" cx="1.25" cy="1.25" r="1.25" transform="translate(319.628 1002.782)"/>
        <g id="그룹_13416" data-name="그룹 13416" transform="translate(-503.705 -1024.943)">
            <path id="합치기_188" data-name="합치기 188" d="m7 14.456-6.739-4.4A1 1 0 0 1 .8 8.222h.979V2a2 2 0 0 1 2-2H11.3a2 2 0 0 1 2 2v6.222h.978a1 1 0 0 1 .546 1.837l-6.739 4.4a1 1 0 0 1-1.093 0z" transform="translate(824.007 2034)" style="fill:#fff"/>
            <path id="합치기_186" data-name="합치기 186" d="M7.343 15.522.25 10.657a1 1 0 0 1 .565-1.825h1.21V2a2 2 0 0 1 2-2h7.769a2 2 0 0 1 2 2v6.832H15a1 1 0 0 1 .566 1.825l-7.092 4.865a1 1 0 0 1-1.131 0z" transform="translate(825.598 2034.723)" style="fill:#7dedf3"/>
            <path id="합치기_187" data-name="합치기 187" class="cls-7" d="m7 14.456-6.739-4.4A1 1 0 0 1 .8 8.222h.979V2a2 2 0 0 1 2-2H11.3a2 2 0 0 1 2 2v6.222h.978a1 1 0 0 1 .546 1.837l-6.739 4.4a1 1 0 0 1-1.093 0z" transform="translate(824.007 2034)"/>
            <g id="그룹_12813" data-name="그룹 12813" transform="translate(828.752 2037.107)">
                <g id="타원_1796" data-name="타원 1796" class="cls-8">
                    <circle class="cls-10" cx="1.119" cy="1.119" r="1.119"/>
                    <circle class="cls-12" cx="1.119" cy="1.119" r=".369"/>
                </g>
                <g id="타원_1797" data-name="타원 1797" class="cls-8" transform="translate(3.357 3.357)">
                    <circle class="cls-10" cx="1.119" cy="1.119" r="1.119"/>
                    <circle class="cls-12" cx="1.119" cy="1.119" r=".369"/>
                </g>
                <path id="선_313" data-name="선 313" class="cls-9" transform="translate(1.119 1.119)" d="M3.357 0 0 3.357"/>
            </g>
        </g>
        <path id="패스_12814" data-name="패스 12814" class="cls-9" d="M1343.644 292.584a2.279 2.279 0 0 1-4.543 0" transform="translate(-1024.081 715.345)"/>
        <path id="패스_12815" data-name="패스 12815" class="cls-7" d="M313.172 799.086s-3.358 2.068-1.519 4.415 5.4.565 5.006-1.135a1.48 1.48 0 0 0-2.859-.258" transform="translate(3.114 195.505)"/>
    </g>
</svg>
