<svg xmlns="http://www.w3.org/2000/svg" width="44" height="44" viewBox="0 0 44 44">
    <defs>
        <clipPath id="rf3lg6mkya">
            <path data-name="패스 13171" d="M0 0h44v44H0z" transform="translate(9 458)" style="fill:#ddd"/>
        </clipPath>
    </defs>
    <g data-name="마스크 그룹 12624" transform="translate(-9 -458)" style="clip-path:url(#rf3lg6mkya)">
        <g data-name="그룹 13638">
            <path data-name="패스 12916" d="M20.392 2.552a5.988 5.988 0 0 0-1.989.5 3.056 3.056 0 0 1-2.441 0 6.128 6.128 0 0 0-1.989-.5C10.357 2.3 7.6 5.377 7.6 9.174c0 2.079 1.153 3.481 2.124 6.012a39.869 39.869 0 0 1 1.424 5.334C11.533 22.124 12.346 24 14 24c1.672 0 1.537-4.407 1.921-6.328a3.624 3.624 0 0 1 .746-1.65.663.663 0 0 1 1.017 0 3.206 3.206 0 0 1 .746 1.65c.38 1.921.244 6.328 1.917 6.328s2.486-1.876 2.87-3.481a40.879 40.879 0 0 1 1.424-5.334c.972-2.531 2.124-3.933 2.124-6.012.001-3.796-2.757-6.873-6.373-6.621z" transform="translate(-4.682 466.73)" style="fill:#fff"/>
            <path data-name="패스 12917" d="M20.392 2.552a5.988 5.988 0 0 0-1.989.5 3.056 3.056 0 0 1-2.441 0 6.128 6.128 0 0 0-1.989-.5C10.357 2.3 7.6 5.377 7.6 9.174c0 2.079 1.153 3.481 2.124 6.012a39.869 39.869 0 0 1 1.424 5.334C11.533 22.124 12.346 24 14 24c1.672 0 1.537-4.407 1.921-6.328a3.624 3.624 0 0 1 .746-1.65.663.663 0 0 1 1.017 0 3.206 3.206 0 0 1 .746 1.65c.38 1.921.244 6.328 1.917 6.328s2.486-1.876 2.87-3.481a40.879 40.879 0 0 1 1.424-5.334c.972-2.531 2.124-3.933 2.124-6.012.001-3.796-2.757-6.873-6.373-6.621z" transform="translate(-4.682 466.73)" style="fill:#fff"/>
            <path data-name="빼기 357" d="M7.98 21.462a1.036 1.036 0 0 1-.9-.63 5.816 5.816 0 0 0 1.377-2.852c.177-.733.318-1.335.431-1.818a24.176 24.176 0 0 1 .992-3.516 28.84 28.84 0 0 1 .965-2.184v-.009A8.526 8.526 0 0 0 12 6.635 7.188 7.188 0 0 0 10.665 2.4 5.8 5.8 0 0 0 7.229.126a5.425 5.425 0 0 1 .8-.112C8.161 0 8.3 0 8.434 0A5.634 5.634 0 0 1 12.7 1.948a7.039 7.039 0 0 1 1.7 4.687 8.536 8.536 0 0 1-1.156 3.823c-.3.637-.648 1.359-.967 2.189a23.653 23.653 0 0 0-.982 3.469l-.014.059c-.121.515-.257 1.1-.429 1.806-.383 1.588-1.189 3.481-2.872 3.481zm-6.351 0a2.074 2.074 0 0 1-1.488-.64 11.529 11.529 0 0 0 .782-3.852c.068-.693.132-1.344.23-1.836a3.668 3.668 0 0 1 .747-1.648.678.678 0 0 1 .518-.238.623.623 0 0 1 .5.238 3.088 3.088 0 0 1 .694 1.388 5.26 5.26 0 0 0-.061.26c-.1.492-.162 1.144-.23 1.836-.2 2.002-.445 4.492-1.692 4.492zm.8-20.7A3.109 3.109 0 0 1 1.2.51 6.422 6.422 0 0 0 0 .127 5.525 5.525 0 0 1 1.192 0c.129 0 .268 0 .412.014a6.084 6.084 0 0 1 1.989.5l.02.008a2.9 2.9 0 0 1-1.186.244z" transform="translate(7.685 469.269)" style="fill:#7dedf3"/>
            <g data-name="패스 12920" style="fill:none">
                <path d="M20.392 2.552a5.988 5.988 0 0 0-1.989.5 3.056 3.056 0 0 1-2.441 0 6.128 6.128 0 0 0-1.989-.5C10.357 2.3 7.6 5.377 7.6 9.174c0 2.079 1.153 3.481 2.124 6.012a39.869 39.869 0 0 1 1.424 5.334C11.533 22.124 12.346 24 14 24c1.672 0 1.537-4.407 1.921-6.328a3.624 3.624 0 0 1 .746-1.65.663.663 0 0 1 1.017 0 3.206 3.206 0 0 1 .746 1.65c.38 1.921.244 6.328 1.917 6.328s2.486-1.876 2.87-3.481a40.879 40.879 0 0 1 1.424-5.334c.972-2.531 2.124-3.933 2.124-6.012.001-3.796-2.757-6.873-6.373-6.621z" style="stroke:none" transform="translate(-4.682 466.73)"/>
                <path d="M13.565 4.038c-1.2 0-2.316.512-3.14 1.442C9.572 6.446 9.1 7.757 9.1 9.174c0 1.058.424 1.947 1.011 3.177a30.72 30.72 0 0 1 1.015 2.299c.487 1.274.695 2.167 1.072 3.787.116.495.247 1.057.41 1.733.187.784.439 1.422.728 1.845.139.203.26.32.36.39.063-.169.14-.433.218-.836.128-.67.205-1.452.28-2.21.072-.73.14-1.42.252-1.981l.002-.008c.233-1.136.63-1.734 1.015-2.248l.03-.04.031-.036a2.178 2.178 0 0 1 1.656-.761c.657 0 1.265.29 1.67.798.423.521.841 1.163 1.05 2.31.11.558.178 1.242.25 1.966.074.758.151 1.54.279 2.21.078.406.156.67.219.839.49-.302.885-1.298 1.111-2.242.173-.712.31-1.298.43-1.815.37-1.58.573-2.45 1.052-3.703.34-.885.698-1.635 1.014-2.297.586-1.23 1.01-2.12 1.01-3.177 0-1.416-.47-2.728-1.325-3.694-.824-.93-1.939-1.442-3.14-1.442-.1 0-.203.003-.305.01h-.006A4.494 4.494 0 0 0 19 4.426c-.572.251-1.18.378-1.809.378a4.595 4.595 0 0 1-1.82-.375 4.663 4.663 0 0 0-1.5-.38 4.467 4.467 0 0 0-.306-.01m0-1.5c.135 0 .271.004.408.014a6.128 6.128 0 0 1 1.99.497 3.056 3.056 0 0 0 2.44 0 5.988 5.988 0 0 1 1.99-.497c3.615-.249 6.373 2.825 6.373 6.622 0 2.08-1.153 3.48-2.125 6.012-.588 1.537-.723 2.44-1.424 5.333C22.833 22.124 22.02 24 20.347 24c-1.673 0-1.537-4.407-1.921-6.328-.158-.882-.452-1.289-.746-1.65-.249-.317-.746-.317-1.017 0-.271.361-.565.768-.746 1.65-.384 1.92-.248 6.328-1.92 6.328-1.65 0-2.464-1.876-2.849-3.48-.7-2.916-.836-3.797-1.424-5.334C8.753 12.654 7.6 11.253 7.6 9.174c0-3.653 2.552-6.636 5.965-6.636z" style="fill:#2d3239;stroke:none" transform="translate(-4.682 466.73)"/>
            </g>
        </g>
        <g data-name="그룹 13639">
            <path data-name="패스 12921" d="M20.392 2.552a5.988 5.988 0 0 0-1.989.5 3.056 3.056 0 0 1-2.441 0 6.128 6.128 0 0 0-1.989-.5C10.357 2.3 7.6 5.377 7.6 9.174c0 2.079 1.153 3.481 2.124 6.012a39.869 39.869 0 0 1 1.424 5.334C11.533 22.124 12.346 24 14 24c1.672 0 1.537-4.407 1.921-6.328a3.624 3.624 0 0 1 .746-1.65.663.663 0 0 1 1.017 0 3.206 3.206 0 0 1 .746 1.65c.38 1.921.244 6.328 1.917 6.328s2.486-1.876 2.87-3.481a40.879 40.879 0 0 1 1.424-5.334c.972-2.531 2.124-3.933 2.124-6.012.001-3.796-2.757-6.873-6.373-6.621z" transform="translate(32.318 466.73)" style="fill:#fff"/>
            <path data-name="패스 12922" d="M20.392 2.552a5.988 5.988 0 0 0-1.989.5 3.056 3.056 0 0 1-2.441 0 6.128 6.128 0 0 0-1.989-.5C10.357 2.3 7.6 5.377 7.6 9.174c0 2.079 1.153 3.481 2.124 6.012a39.869 39.869 0 0 1 1.424 5.334C11.533 22.124 12.346 24 14 24c1.672 0 1.537-4.407 1.921-6.328a3.624 3.624 0 0 1 .746-1.65.663.663 0 0 1 1.017 0 3.206 3.206 0 0 1 .746 1.65c.38 1.921.244 6.328 1.917 6.328s2.486-1.876 2.87-3.481a40.879 40.879 0 0 1 1.424-5.334c.972-2.531 2.124-3.933 2.124-6.012.001-3.796-2.757-6.873-6.373-6.621z" transform="translate(32.318 466.73)" style="fill:#fff"/>
            <path data-name="패스 13162" d="M7.98 21.462a1.036 1.036 0 0 1-.9-.63 5.816 5.816 0 0 0 1.377-2.852c.177-.733.318-1.335.431-1.818a24.176 24.176 0 0 1 .992-3.516 28.84 28.84 0 0 1 .965-2.184v-.009A8.526 8.526 0 0 0 12 6.635 7.188 7.188 0 0 0 10.665 2.4 5.8 5.8 0 0 0 7.229.126a5.425 5.425 0 0 1 .8-.112C8.161 0 8.3 0 8.434 0A5.634 5.634 0 0 1 12.7 1.948a7.039 7.039 0 0 1 1.7 4.687 8.536 8.536 0 0 1-1.156 3.823c-.3.637-.648 1.359-.967 2.189a23.653 23.653 0 0 0-.982 3.469l-.014.059c-.121.515-.257 1.1-.429 1.806-.383 1.588-1.189 3.481-2.872 3.481zm-6.351 0a2.074 2.074 0 0 1-1.488-.64 11.529 11.529 0 0 0 .782-3.852c.068-.693.132-1.344.23-1.836a3.668 3.668 0 0 1 .747-1.648.678.678 0 0 1 .518-.238.623.623 0 0 1 .5.238 3.088 3.088 0 0 1 .694 1.388 5.26 5.26 0 0 0-.061.26c-.1.492-.162 1.144-.23 1.836-.2 2.002-.445 4.492-1.692 4.492zm.8-20.7A3.109 3.109 0 0 1 1.2.51 6.422 6.422 0 0 0 0 .127 5.525 5.525 0 0 1 1.192 0c.129 0 .268 0 .412.014a6.084 6.084 0 0 1 1.989.5l.02.008a2.9 2.9 0 0 1-1.186.244z" transform="translate(44.685 469.269)" style="fill:#7dedf3"/>
            <g data-name="패스 12925" style="fill:none">
                <path d="M20.392 2.552a5.988 5.988 0 0 0-1.989.5 3.056 3.056 0 0 1-2.441 0 6.128 6.128 0 0 0-1.989-.5C10.357 2.3 7.6 5.377 7.6 9.174c0 2.079 1.153 3.481 2.124 6.012a39.869 39.869 0 0 1 1.424 5.334C11.533 22.124 12.346 24 14 24c1.672 0 1.537-4.407 1.921-6.328a3.624 3.624 0 0 1 .746-1.65.663.663 0 0 1 1.017 0 3.206 3.206 0 0 1 .746 1.65c.38 1.921.244 6.328 1.917 6.328s2.486-1.876 2.87-3.481a40.879 40.879 0 0 1 1.424-5.334c.972-2.531 2.124-3.933 2.124-6.012.001-3.796-2.757-6.873-6.373-6.621z" style="stroke:none" transform="translate(32.318 466.73)"/>
                <path d="M13.565 4.038c-1.2 0-2.316.512-3.14 1.442C9.572 6.446 9.1 7.757 9.1 9.174c0 1.058.424 1.947 1.011 3.177a30.72 30.72 0 0 1 1.015 2.299c.487 1.274.695 2.167 1.072 3.787.116.495.247 1.057.41 1.733.187.784.439 1.422.728 1.845.139.203.26.32.36.39.063-.169.14-.433.218-.836.128-.67.205-1.452.28-2.21.072-.73.14-1.42.252-1.981l.002-.008c.233-1.136.63-1.734 1.015-2.248l.03-.04.031-.036a2.178 2.178 0 0 1 1.656-.761c.657 0 1.265.29 1.67.798.423.521.841 1.163 1.05 2.31.11.558.178 1.242.25 1.966.074.758.151 1.54.279 2.21.078.406.156.67.219.839.49-.302.885-1.298 1.111-2.242.173-.712.31-1.298.43-1.815.37-1.58.573-2.45 1.052-3.703.34-.885.698-1.635 1.014-2.297.586-1.23 1.01-2.12 1.01-3.177 0-1.416-.47-2.728-1.325-3.694-.824-.93-1.939-1.442-3.14-1.442-.1 0-.203.003-.305.01h-.006A4.494 4.494 0 0 0 19 4.426c-.572.251-1.18.378-1.809.378a4.595 4.595 0 0 1-1.82-.375 4.663 4.663 0 0 0-1.5-.38 4.467 4.467 0 0 0-.306-.01m0-1.5c.135 0 .271.004.408.014a6.128 6.128 0 0 1 1.99.497 3.056 3.056 0 0 0 2.44 0 5.988 5.988 0 0 1 1.99-.497c3.615-.249 6.373 2.825 6.373 6.622 0 2.08-1.153 3.48-2.125 6.012-.588 1.537-.723 2.44-1.424 5.333C22.833 22.124 22.02 24 20.347 24c-1.673 0-1.537-4.407-1.921-6.328-.158-.882-.452-1.289-.746-1.65-.249-.317-.746-.317-1.017 0-.271.361-.565.768-.746 1.65-.384 1.92-.248 6.328-1.92 6.328-1.65 0-2.464-1.876-2.849-3.48-.7-2.916-.836-3.797-1.424-5.334C8.753 12.654 7.6 11.253 7.6 9.174c0-3.653 2.552-6.636 5.965-6.636z" style="fill:#2d3239;stroke:none" transform="translate(32.318 466.73)"/>
            </g>
        </g>
        <g data-name="그룹 13640">
            <path data-name="패스 12926" d="M23.827 2.556a7.6 7.6 0 0 0-2.523.631 3.877 3.877 0 0 1-3.1 0 7.774 7.774 0 0 0-2.523-.631C11.1 2.24 7.6 6.139 7.6 10.956c0 2.638 1.462 4.415 2.695 7.626a50.574 50.574 0 0 1 1.805 6.765c.487 2.036 1.519 4.415 3.612 4.415 2.122 0 1.95-5.59 2.437-8.027a4.6 4.6 0 0 1 .946-2.093.842.842 0 0 1 1.29 0 4.067 4.067 0 0 1 .946 2.093c.487 2.437.315 8.027 2.437 8.027s3.154-2.38 3.641-4.415a51.855 51.855 0 0 1 1.806-6.766c1.233-3.211 2.695-4.988 2.695-7.626.001-4.816-3.496-8.715-8.083-8.399z" transform="translate(11.245 464.849)" style="fill:#fff"/>
            <path data-name="패스 12927" d="M23.827 2.556a7.6 7.6 0 0 0-2.523.631 3.877 3.877 0 0 1-3.1 0 7.774 7.774 0 0 0-2.523-.631C11.1 2.24 7.6 6.139 7.6 10.956c0 2.638 1.462 4.415 2.695 7.626a50.574 50.574 0 0 1 1.805 6.765c.487 2.036 1.519 4.415 3.612 4.415 2.122 0 1.95-5.59 2.437-8.027a4.6 4.6 0 0 1 .946-2.093.842.842 0 0 1 1.29 0 4.067 4.067 0 0 1 .946 2.093c.487 2.437.315 8.027 2.437 8.027s3.154-2.38 3.641-4.415a51.855 51.855 0 0 1 1.806-6.766c1.233-3.211 2.695-4.988 2.695-7.626.001-4.816-3.496-8.715-8.083-8.399z" transform="translate(11.245 464.849)" style="fill:#fff"/>
            <path data-name="패스 13163" d="M10.123 27.225a1.314 1.314 0 0 1-1.146-.8 7.377 7.377 0 0 0 1.747-3.617c.225-.929.4-1.693.546-2.306a30.667 30.667 0 0 1 1.259-4.46c.4-1.05.839-1.964 1.224-2.77l.006-.012a10.815 10.815 0 0 0 1.468-4.844 9.118 9.118 0 0 0-1.7-5.37A7.353 7.353 0 0 0 9.169.159a6.882 6.882 0 0 1 1.01-.142A8.24 8.24 0 0 1 10.7 0a7.147 7.147 0 0 1 5.4 2.471 8.929 8.929 0 0 1 2.158 5.946 10.828 10.828 0 0 1-1.467 4.85c-.386.808-.822 1.724-1.226 2.776a30 30 0 0 0-1.246 4.4l-.018.075c-.153.653-.326 1.392-.545 2.29-.476 2.015-1.499 4.417-3.633 4.417zm-8.056 0a2.63 2.63 0 0 1-1.887-.813 14.625 14.625 0 0 0 .991-4.886c.086-.879.168-1.7.292-2.329a4.653 4.653 0 0 1 .945-2.091.86.86 0 0 1 .657-.3.791.791 0 0 1 .633.3 3.918 3.918 0 0 1 .88 1.761 6.443 6.443 0 0 0-.077.33c-.125.624-.206 1.451-.292 2.329-.25 2.54-.561 5.699-2.142 5.699zM3.079.971a3.944 3.944 0 0 1-1.56-.324A8.146 8.146 0 0 0 0 .161 7.008 7.008 0 0 1 1.512 0c.164 0 .339.006.522.017a7.717 7.717 0 0 1 2.523.63.156.156 0 0 0 .026.01 3.682 3.682 0 0 1-1.504.314z" transform="translate(24.892 467.389)" style="fill:#7dedf3"/>
            <g data-name="패스 12930" style="fill:none">
                <path d="M23.827 2.556a7.6 7.6 0 0 0-2.523.631 3.877 3.877 0 0 1-3.1 0 7.774 7.774 0 0 0-2.523-.631C11.1 2.24 7.6 6.139 7.6 10.956c0 2.638 1.462 4.415 2.695 7.626a50.574 50.574 0 0 1 1.805 6.765c.487 2.036 1.519 4.415 3.612 4.415 2.122 0 1.95-5.59 2.437-8.027a4.6 4.6 0 0 1 .946-2.093.842.842 0 0 1 1.29 0 4.067 4.067 0 0 1 .946 2.093c.487 2.437.315 8.027 2.437 8.027s3.154-2.38 3.641-4.415a51.855 51.855 0 0 1 1.806-6.766c1.233-3.211 2.695-4.988 2.695-7.626.001-4.816-3.496-8.715-8.083-8.399z" style="stroke:none" transform="translate(11.245 464.849)"/>
                <path d="M15.167 4.038c-1.64 0-3.162.698-4.284 1.965C9.733 7.302 9.1 9.061 9.1 10.956c0 1.433.554 2.595 1.322 4.203.397.833.848 1.777 1.274 2.887.608 1.59.854 2.647 1.345 4.751.146.63.312 1.343.519 2.201.25 1.042.59 1.897.983 2.474.41.598.77.743.996.779.095-.155.27-.528.437-1.35.183-.897.288-1.959.389-2.985.09-.917.176-1.782.314-2.475l.002-.007c.279-1.36.753-2.076 1.215-2.692l.03-.039.031-.037a2.36 2.36 0 0 1 1.795-.825c.711 0 1.368.314 1.804.863.47.578.99 1.316 1.25 2.752.137.69.222 1.55.312 2.46.101 1.026.206 2.088.389 2.985.168.821.342 1.195.436 1.35.28-.04.627-.205 1.024-.783.395-.574.735-1.428.986-2.474.219-.905.393-1.65.546-2.306.464-1.987.72-3.082 1.317-4.644.426-1.108.876-2.052 1.274-2.885.767-1.608 1.321-2.77 1.321-4.203 0-1.895-.633-3.654-1.782-4.952-1.123-1.268-2.644-1.966-4.285-1.966-.136 0-.276.004-.414.014h-.007c-.657.043-1.319.21-2.022.51a5.276 5.276 0 0 1-2.135.447c-.739 0-1.462-.15-2.15-.444a6.32 6.32 0 0 0-2.034-.513 6.079 6.079 0 0 0-.415-.014m0-1.5c.17 0 .344.006.518.018.86.057 1.72.286 2.523.63 1.003.43 2.121.43 3.096 0 .803-.344 1.634-.573 2.523-.63 4.587-.316 8.084 3.583 8.084 8.4 0 2.637-1.462 4.415-2.694 7.626-.746 1.95-.918 3.096-1.807 6.765-.487 2.036-1.52 4.416-3.64 4.416-2.122 0-1.95-5.591-2.437-8.028-.201-1.118-.574-1.634-.947-2.093-.315-.401-.946-.401-1.29 0-.344.459-.716.975-.946 2.093-.487 2.437-.315 8.028-2.437 8.028-2.092 0-3.125-2.38-3.612-4.416-.889-3.698-1.06-4.816-1.806-6.765C9.062 15.37 7.6 13.593 7.6 10.956c0-4.634 3.237-8.418 7.567-8.418z" style="fill:#2d3239;stroke:none" transform="translate(11.245 464.849)"/>
            </g>
        </g>
        <path data-name="패스 12931" d="M2 0a2 2 0 0 1 2 2v2a2 2 0 0 1-2 2 2 2 0 0 1-2-2V2a2 2 0 0 1 2-2z" transform="translate(11.75 474.107)" style="fill:#7dedf3"/>
        <path data-name="패스 12932" d="M2 0a2 2 0 0 1 2 2v2a2 2 0 0 1-2 2 2 2 0 0 1-2-2V2a2 2 0 0 1 2-2z" transform="translate(48.75 474.107)" style="fill:#7dedf3"/>
        <path data-name="패스 12933" d="M2.666 0a2.589 2.589 0 0 1 2.665 2.505V5.01a2.589 2.589 0 0 1-2.665 2.506A2.589 2.589 0 0 1 0 5.01V2.505A2.589 2.589 0 0 1 2.666 0z" transform="translate(30.169 473.484)" style="fill:#7dedf3"/>
        <g data-name="패스 13170" style="fill:none">
            <path d="M2 0h2a2 2 0 0 1 2 2v2a2 2 0 0 1-2 2H2a2 2 0 0 1-2-2V2a2 2 0 0 1 2-2z" style="stroke:none" transform="translate(9.25 474.107)"/>
            <path d="M2 1.5a.5.5 0 0 0-.5.5v2a.5.5 0 0 0 .5.5h2a.5.5 0 0 0 .5-.5V2a.5.5 0 0 0-.5-.5H2M2 0h2a2 2 0 0 1 2 2v2a2 2 0 0 1-2 2H2a2 2 0 0 1-2-2V2a2 2 0 0 1 2-2z" style="fill:#2d3239;stroke:none" transform="translate(9.25 474.107)"/>
        </g>
        <g data-name="패스 13169" style="fill:none">
            <path d="M2 0h2a2 2 0 0 1 2 2v2a2 2 0 0 1-2 2H2a2 2 0 0 1-2-2V2a2 2 0 0 1 2-2z" style="stroke:none" transform="translate(46.25 474.107)"/>
            <path d="M2 1.5a.5.5 0 0 0-.5.5v2a.5.5 0 0 0 .5.5h2a.5.5 0 0 0 .5-.5V2a.5.5 0 0 0-.5-.5H2M2 0h2a2 2 0 0 1 2 2v2a2 2 0 0 1-2 2H2a2 2 0 0 1-2-2V2a2 2 0 0 1 2-2z" style="fill:#2d3239;stroke:none" transform="translate(46.25 474.107)"/>
        </g>
        <g data-name="패스 13168" style="fill:none">
            <path d="M2 0h4a2 2 0 0 1 2 2v4a2 2 0 0 1-2 2H2a2 2 0 0 1-2-2V2a2 2 0 0 1 2-2z" style="stroke:none" transform="translate(27 473)"/>
            <path d="M2 1.5a.5.5 0 0 0-.5.5v4a.5.5 0 0 0 .5.5h4a.5.5 0 0 0 .5-.5V2a.5.5 0 0 0-.5-.5H2M2 0h4a2 2 0 0 1 2 2v4a2 2 0 0 1-2 2H2a2 2 0 0 1-2-2V2a2 2 0 0 1 2-2z" style="fill:#2d3239;stroke:none" transform="translate(27 473)"/>
        </g>
        <path data-name="패스 13167" d="M0 0h12" transform="translate(34.583 477)" style="stroke:#2d3239;stroke-width:1.5px;fill:none"/>
        <path data-name="패스 13166" d="M0 0h7" transform="translate(51.5 477)" style="stroke:#2d3239;stroke-width:1.5px;fill:none"/>
        <path data-name="패스 13165" d="M0 0h7" transform="translate(3.666 477)" style="stroke:#2d3239;stroke-width:1.5px;fill:none"/>
        <path data-name="패스 13164" d="M0 0h12.917" transform="translate(14.583 477)" style="stroke:#2d3239;stroke-width:1.5px;fill:none"/>
    </g>
</svg>
