<svg xmlns="http://www.w3.org/2000/svg" width="44" height="44" viewBox="0 0 44 44">
    <g data-name="사각형 17119" style="stroke:#2d3239;stroke-width:1.5px;fill:#fff">
        <path d="M5 0h9a8 8 0 0 1 8 8v18a2 2 0 0 1-2 2H5a5 5 0 0 1-5-5V5a5 5 0 0 1 5-5z" style="stroke:none" transform="translate(7.632 5.5)"/>
        <path d="M5 .75h9A7.25 7.25 0 0 1 21.25 8v18A1.25 1.25 0 0 1 20 27.25H5A4.25 4.25 0 0 1 .75 23V5A4.25 4.25 0 0 1 5 .75z" style="fill:none" transform="translate(7.632 5.5)"/>
    </g>
    <g data-name="교차 32" style="fill:none">
        <path d="M4.52 7.21a4 4 0 0 1-4-4v-4a8 8 0 0 1 8 8z" style="stroke:none" transform="translate(21.112 6.291)"/>
        <path d="M6.845 5.71A6.522 6.522 0 0 0 2.019.884V3.21c0 1.38 1.122 2.5 2.5 2.5h2.326m1.674 1.5h-4a4 4 0 0 1-4-4l.001-4a8 8 0 0 1 8 8z" style="fill:#2d3239;stroke:none" transform="translate(21.112 6.291)"/>
    </g>
    <g data-name="그룹 13502">
        <path data-name="패스 6871" d="M426.622 284.011a2.283 2.283 0 0 0-.163-.551 2.723 2.723 0 0 0-1.093-1.266 2.458 2.458 0 0 0-2.533.015 2.245 2.245 0 0 0-.836.894 2.832 2.832 0 0 0-.157.392 2.744 2.744 0 0 0 .173 2.137 1.086 1.086 0 0 0 .513.447.745.745 0 0 0 .662-.051.7.7 0 0 0 .248-.742 1.93 1.93 0 0 1 .025-1.034.8.8 0 0 1 .182-.295.784.784 0 0 1 .176-.121.738.738 0 0 1 .438-.071.842.842 0 0 1 .587.479 1.945 1.945 0 0 1 .159.767 11.5 11.5 0 0 1-.511 3.427c-.029.112-.06.225-.092.337-.025.087-.069.2-.015.282a.226.226 0 0 0 .1.079c.17.068.308-.036.422-.151a6.1 6.1 0 0 0 1.393-2.44 7.682 7.682 0 0 0 .268-1.019 4.493 4.493 0 0 0 .052-1.516" transform="translate(-405.487 -263.013)" style="fill:#00857e"/>
        <path data-name="패스 6872" d="M422.453 271.437a.289.289 0 0 0-.313-.279 1.53 1.53 0 0 0-.471.149 18.978 18.978 0 0 1-9.368.885c-.531-.075-1.069-.183-1.6-.267-.334-.052-.663-.127-1-.154a1.194 1.194 0 0 0-.875.169.928.928 0 0 0-.112 1.1 2.485 2.485 0 0 0 .954.924 2.289 2.289 0 0 0 1.249.426q1.778-.113 3.547-.343a23.61 23.61 0 0 0 6.005-1.29 7.432 7.432 0 0 0 1.755-.986c.1-.072.234-.192.234-.332" transform="translate(-396.532 -255.734)" style="fill:#00857e"/>
        <path data-name="패스 6873" d="M425.656 266.314a1.161 1.161 0 0 0 2.321 0 .652.652 0 0 0-.063-.278c-.1-.211-.211-.314-.2-.566.015-.341-.422-.346-.658-.346a1.712 1.712 0 0 0-.761.152 1.18 1.18 0 0 0-.455.409 1.16 1.16 0 0 0-.183.6.215.215 0 0 0 0 .028" transform="translate(-408.181 -251.623)" style="fill:#e4003f"/>
    </g>
    <g data-name="그룹 13503">
        <path data-name="합치기 188" d="m7 14.456-6.739-4.4A1 1 0 0 1 .8 8.222h.979V2a2 2 0 0 1 2-2H11.3a2 2 0 0 1 2 2v6.222h.978a1 1 0 0 1 .546 1.837l-6.739 4.4a1 1 0 0 1-1.093 0z" transform="translate(19.934 23.579)" style="fill:#fff"/>
        <path data-name="합치기 186" d="M7.343 15.522.25 10.657a1 1 0 0 1 .565-1.825h1.21V2a2 2 0 0 1 2-2h7.769a2 2 0 0 1 2 2v6.832H15a1 1 0 0 1 .566 1.825l-7.092 4.865a1 1 0 0 1-1.131 0z" transform="translate(21.525 24.302)" style="fill:#7dedf3"/>
        <path data-name="합치기 187" d="m7 14.456-6.739-4.4A1 1 0 0 1 .8 8.222h.979V2a2 2 0 0 1 2-2H11.3a2 2 0 0 1 2 2v6.222h.978a1 1 0 0 1 .546 1.837l-6.739 4.4a1 1 0 0 1-1.093 0z" transform="translate(19.934 23.579)" style="stroke-linejoin:round;stroke-linecap:round;fill:none;stroke:#2d3239;stroke-width:1.5px"/>
        <g data-name="그룹 12813" transform="translate(24.679 26.686)">
            <circle data-name="타원 1796" cx="1.119" cy="1.119" r="1.119" style="fill:#2d3239"/>
            <circle data-name="타원 1797" cx="1.119" cy="1.119" r="1.119" transform="translate(3.357 3.357)" style="fill:#2d3239"/>
            <path data-name="선 313" transform="translate(1.119 1.119)" style="stroke-linecap:round;fill:none;stroke:#2d3239;stroke-width:1.5px" d="M3.357 0 0 3.357"/>
        </g>
    </g>
</svg>
