<svg xmlns="http://www.w3.org/2000/svg" width="44" height="44" viewBox="0 0 44 44">
  <g id="ic_insurance_01" transform="translate(-9145 -499)">
    <path id="패스_13046" data-name="패스 13046" d="M0,0H44V44H0Z" transform="translate(9145 499)" fill="rgba(223,223,223,0)"/>
    <path id="패스_13045" data-name="패스 13045" d="M0,0H36V36H0Z" transform="translate(9149 503)" fill="rgba(212,201,201,0)"/>
    <g id="패스_13044" data-name="패스 13044" transform="translate(9160 500.5)" fill="none">
      <path d="M5,0H7a5,5,0,0,1,5,5v5H0V5A5,5,0,0,1,5,0Z" stroke="none"/>
      <path d="M 5 1.5 C 3.070090293884277 1.5 1.5 3.070089817047119 1.5 5 L 1.5 8.5 L 10.5 8.5 L 10.5 5 C 10.5 3.070089817047119 8.929909706115723 1.5 7 1.5 L 5 1.5 M 5 0 L 7 0 C 9.761420249938965 0 12 2.238580226898193 12 5 L 12 10 L 0 10 L 0 5 C 0 2.238580226898193 2.238579750061035 0 5 0 Z" stroke="none" fill="#2d3239"/>
    </g>
    <path id="패스_13043" data-name="패스 13043" d="M4,0H15.908a4,4,0,0,1,4,4V19a4,4,0,0,1-4,4H4a4,4,0,0,1-4-4V4A4,4,0,0,1,4,0Z" transform="translate(9155.592 508.5)" fill="#fff"/>
    <path id="패스_13042" data-name="패스 13042" d="M6723.239-15384.234h-12.907a3.977,3.977,0,0,1-2.8-1.145,3.97,3.97,0,0,1-1.2-2.772,4.008,4.008,0,0,0,2.953,1.3h11.863a4.005,4.005,0,0,0,4-4v-11.862a4.006,4.006,0,0,0-4-4h-11.863a4,4,0,0,0-1.244.2,3.984,3.984,0,0,1,2.292-.72h12.907a4,4,0,0,1,4,4v15A4,4,0,0,1,6723.239-15384.234Z" transform="translate(2449.262 15916.734)" fill="#7dedf3"/>
    <g id="패스_13041" data-name="패스 13041" transform="translate(9154 508.5)" fill="none">
      <path d="M5,0H19a5,5,0,0,1,5,5V19a5,5,0,0,1-5,5H5a5,5,0,0,1-5-5V5A5,5,0,0,1,5,0Z" stroke="none"/>
      <path d="M 5 1.5 C 3.070089340209961 1.5 1.5 3.070089340209961 1.5 5 L 1.5 19 C 1.5 20.92991065979004 3.070089340209961 22.5 5 22.5 L 19 22.5 C 20.92991065979004 22.5 22.5 20.92991065979004 22.5 19 L 22.5 5 C 22.5 3.070089340209961 20.92991065979004 1.5 19 1.5 L 5 1.5 M 5 0 L 19 0 C 21.76141929626465 0 24 2.238580703735352 24 5 L 24 19 C 24 21.76141929626465 21.76141929626465 24 19 24 L 5 24 C 2.238580703735352 24 0 21.76141929626465 0 19 L 0 5 C 0 2.238580703735352 2.238580703735352 0 5 0 Z" stroke="none" fill="#2d3239"/>
    </g>
    <g id="패스_13040" data-name="패스 13040" transform="translate(9158.5 531)" fill="#fff">
      <path d="M 2.5 4.25 C 1.53505003452301 4.25 0.75 3.464950084686279 0.75 2.5 L 0.75 0.75 L 4.25 0.75 L 4.25 2.5 C 4.25 3.464950084686279 3.464950084686279 4.25 2.5 4.25 Z" stroke="none"/>
      <path d="M 1.5 1.5 L 1.5 2.5 C 1.5 3.051399946212769 1.948600053787231 3.5 2.5 3.5 C 3.051399946212769 3.5 3.5 3.051399946212769 3.5 2.5 L 3.5 1.5 L 1.5 1.5 M 0 0 L 5 0 L 5 2.5 C 5 3.880710124969482 3.880710124969482 5 2.5 5 C 1.119290113449097 5 0 3.880710124969482 0 2.5 L 0 0 Z" stroke="none" fill="#2d3239"/>
    </g>
    <g id="패스_13039" data-name="패스 13039" transform="translate(9168.5 531)" fill="#fff">
      <path d="M 2.5 4.25 C 1.53505003452301 4.25 0.75 3.464950084686279 0.75 2.5 L 0.75 0.75 L 4.25 0.75 L 4.25 2.5 C 4.25 3.464950084686279 3.464950084686279 4.25 2.5 4.25 Z" stroke="none"/>
      <path d="M 1.5 1.5 L 1.5 2.5 C 1.5 3.051399946212769 1.948600053787231 3.5 2.5 3.5 C 3.051399946212769 3.5 3.5 3.051399946212769 3.5 2.5 L 3.5 1.5 L 1.5 1.5 M 0 0 L 5 0 L 5 2.5 C 5 3.880710124969482 3.880710124969482 5 2.5 5 C 1.119290113449097 5 0 3.880710124969482 0 2.5 L 0 0 Z" stroke="none" fill="#2d3239"/>
    </g>
    <path id="패스_13038" data-name="패스 13038" d="M.75,0A.75.75,0,0,1,1.5.75v10.5a.75.75,0,0,1-1.5,0V.75A.75.75,0,0,1,.75,0Z" transform="translate(9170.75 514.5)" fill="#2d3239"/>
    <g id="그룹_13561" data-name="그룹 13561" transform="translate(9128.67 -249.768)">
      <path id="패스_12225" data-name="패스 12225" d="M0,2.2C.328,1.264,6.228-1,7.158-1s6.708,2.551,7.154,3.2-.422,5.6-1.683,8S8.258,15,7.158,15s-4.246-2.583-5.471-4.8S-.32,3.136,0,2.2Z" transform="translate(40.4 770.768)" fill="#fff"/>
      <path id="패스_12149" data-name="패스 12149" d="M0,2c.29-.877,5.58-3,6.415-3s6.014,2.392,6.414,3-.379,5.252-1.509,7.5S7.132,14,6.411,14,2.6,11.578,1.506,9.5-.295,2.877,0,2Z" transform="translate(43.4 771.268)" fill="#7dedf3"/>
      <path id="패스_12150" data-name="패스 12150" d="M-10170,5361.4l2.063,2.1,3.437-3.5" transform="translate(10215.08 -4584.232)" fill="none" stroke="#2d3239" stroke-linecap="round" stroke-linejoin="round" stroke-width="1.5"/>
      <g id="패스_12151" data-name="패스 12151" transform="translate(40.4 770.768)" fill="none">
        <path d="M0,2.2C.328,1.264,6.228-1,7.158-1s6.708,2.551,7.154,3.2-.422,5.6-1.683,8S8.258,15,7.158,15s-4.246-2.583-5.471-4.8S-.32,3.136,0,2.2Z" stroke="none"/>
        <path d="M 7.145523071289062 0.5102901458740234 C 6.777740955352783 0.5835685729980469 5.66876220703125 0.9195442199707031 4.148934364318848 1.54314136505127 C 2.607637405395508 2.175555229187012 1.785070419311523 2.636392593383789 1.429620742797852 2.874317169189453 C 1.430325508117676 3.333981513977051 1.50650691986084 4.29139518737793 1.778903961181641 5.644130706787109 C 2.100064277648926 7.239000797271729 2.55683422088623 8.6710205078125 3.000763893127441 9.474790573120117 C 3.440793991088867 10.27149105072021 4.284744262695312 11.26357078552246 5.258343696594238 12.12860107421875 C 6.177313804626465 12.94509792327881 6.873810768127441 13.35404777526855 7.168613433837891 13.47508335113525 C 7.463468074798584 13.36257553100586 8.151453018188477 12.97802829742432 9.041263580322266 12.20266056060791 C 10.02624320983887 11.34436130523682 10.84991359710693 10.35998153686523 11.30107402801514 9.501920700073242 C 11.75450420379639 8.639560699462891 12.22400379180908 7.199551105499268 12.55699348449707 5.649901390075684 C 12.82935428619385 4.382363319396973 12.91877555847168 3.492040634155273 12.93020534515381 3.028757095336914 C 12.46345710754395 2.751070022583008 11.52649307250977 2.266411781311035 10.22002410888672 1.688591003417969 C 8.642412185668945 0.9908475875854492 7.526935577392578 0.5979948043823242 7.145523071289062 0.5102901458740234 M 7.158234119415283 -0.9999990463256836 C 8.088644027709961 -0.9999990463256836 13.86652374267578 1.551421165466309 14.31197357177734 2.200000762939453 C 14.75741386413574 2.848581314086914 13.8896541595459 7.801890850067139 12.62873363494873 10.20000076293945 C 11.36782360076904 12.59811115264893 8.257623672485352 15.00000095367432 7.158234119415283 15.00000095367432 C 6.058843612670898 15.00000095367432 2.911993980407715 12.41662120819092 1.687724113464355 10.20000076293945 C 0.4634637832641602 7.983380794525146 -0.3204660415649414 3.135761260986328 0.003543853759765625 2.200000762939453 C 0.3275642395019531 1.264241218566895 6.227824211120605 -0.9999990463256836 7.158234119415283 -0.9999990463256836 Z" stroke="none" fill="#2d3239"/>
      </g>
    </g>
  </g>
</svg>
