<svg xmlns="http://www.w3.org/2000/svg" width="36" height="36" viewBox="0 0 36 36">
    <defs>
        <style>
            .cls-1,.cls-3,.cls-4{fill:none}.cls-4{stroke:#2d3239}.cls-8,.cls-9{stroke:none}.cls-9{fill:#2d3239}
        </style>
    </defs>
    <g id="ic_insurance" transform="translate(-23.33 -750.768)">
        <path id="사각형_7870" data-name="사각형 7870" class="cls-1" transform="translate(23.33 750.768)" d="M0 0h36v36H0z"/>
        <g id="사각형_14521" data-name="사각형 14521" style="stroke-width:1.5px;stroke:#2d3239;fill:#fff">
            <path class="cls-8" d="M5 0h10a8 8 0 0 1 8 8v15a5 5 0 0 1-5 5H5a5 5 0 0 1-5-5V5a5 5 0 0 1 5-5z" transform="translate(28.33 753.768)"/>
            <path class="cls-1" d="M5 .75h10A7.25 7.25 0 0 1 22.25 8v15A4.25 4.25 0 0 1 18 27.25H5A4.25 4.25 0 0 1 .75 23V5A4.25 4.25 0 0 1 5 .75z" transform="translate(28.33 753.768)"/>
        </g>
        <g id="교차_26" data-name="교차 26" class="cls-3">
            <path class="cls-8" d="M4 8.5a4 4 0 0 1-4-4V0h.5a8 8 0 0 1 8 8v.5z" transform="translate(42.83 753.768)"/>
            <path class="cls-9" d="M6.923 7A6.516 6.516 0 0 0 1.5 1.578V4.5C1.5 5.879 2.622 7 4 7h2.923M8.5 8.5H4a4 4 0 0 1-4-4V0h.5a8 8 0 0 1 8 8v.5z" transform="translate(42.83 753.768)"/>
        </g>
        <g id="사각형_14524" data-name="사각형 14524" class="cls-4" transform="rotate(90 -361.719 404.049)">
            <rect class="cls-8" width="1.5" height="9" rx=".75"/>
            <rect class="cls-1" x=".5" y=".5" width=".5" height="8" rx=".25"/>
        </g>
        <g id="사각형_14525" data-name="사각형 14525" class="cls-4" transform="rotate(90 -360.969 401.299)">
            <rect class="cls-8" width="1.5" height="7" rx=".75"/>
            <rect class="cls-1" x=".5" y=".5" width=".5" height="6" rx=".25"/>
        </g>
        <g id="그룹_12252" data-name="그룹 12252">
            <path id="패스_12225" data-name="패스 12225" d="M0 2.2C.328 1.264 6.228-1 7.158-1s6.708 2.551 7.154 3.2-.422 5.6-1.683 8S8.258 15 7.158 15s-4.246-2.583-5.471-4.8S-.32 3.136 0 2.2z" transform="translate(40.4 770.768)" style="fill:#fff"/>
            <path id="패스_12149" data-name="패스 12149" d="M0 2c.29-.877 5.58-3 6.415-3s6.014 2.392 6.414 3-.379 5.252-1.509 7.5S7.132 14 6.411 14 2.6 11.578 1.506 9.5-.295 2.877 0 2z" transform="translate(43.4 771.268)" style="fill:#7dedf3"/>
            <path id="패스_12150" data-name="패스 12150" d="m-10170 5361.4 2.063 2.1 3.437-3.5" transform="translate(10215.08 -4584.232)" style="stroke-linecap:round;stroke-linejoin:round;stroke-width:1.5px;stroke:#2d3239;fill:none"/>
            <g id="패스_12151" data-name="패스 12151" class="cls-3">
                <path class="cls-8" d="M0 2.2C.328 1.264 6.228-1 7.158-1s6.708 2.551 7.154 3.2-.422 5.6-1.683 8S8.258 15 7.158 15s-4.246-2.583-5.471-4.8S-.32 3.136 0 2.2z" transform="translate(40.4 770.768)"/>
                <path class="cls-9" d="M7.146.51c-.368.074-1.477.41-2.997 1.033-1.541.633-2.364 1.093-2.72 1.331.001.46.078 1.417.35 2.77C2.1 7.24 2.557 8.671 3 9.474c.44.797 1.284 1.79 2.257 2.655.92.816 1.616 1.225 1.91 1.346.295-.112.983-.497 1.873-1.272.985-.859 1.809-1.843 2.26-2.701.454-.862.923-2.302 1.256-3.852.272-1.268.362-2.158.373-2.621-.467-.278-1.404-.763-2.71-1.34C8.642.99 7.527.598 7.146.51M7.158-1c.93 0 6.709 2.551 7.154 3.2.445.649-.422 5.602-1.683 8-1.261 2.398-4.371 4.8-5.47 4.8-1.1 0-4.247-2.583-5.471-4.8C.463 7.983-.32 3.136.004 2.2.328 1.264 6.228-1 7.158-1z" transform="translate(40.4 770.768)"/>
            </g>
        </g>
    </g>
</svg>
