<svg xmlns="http://www.w3.org/2000/svg" width="44" height="44" viewBox="0 0 44 44">
    <defs>
        <style>
            .cls-1{fill:#ddd;opacity:0}.cls-2{fill:#fff}.cls-3{fill:#7dedf3}.cls-10,.cls-6{fill:none}.cls-6{stroke:#2d3239;stroke-width:1.5px}.cls-8{stroke:none}
        </style>
    </defs>
    <g id="ic_insurance_01" transform="translate(-700 -1208)">
        <g id="그룹_13495" data-name="그룹 13495" transform="translate(426.694 882.146)">
            <path id="패스_12086" data-name="패스 12086" class="cls-2" d="M23.059 2.555a7.236 7.236 0 0 0-2.4.6 3.693 3.693 0 0 1-2.95 0 7.406 7.406 0 0 0-2.4-.6c-4.37-.3-7.7 3.414-7.7 8 0 2.513 1.393 4.206 2.567 7.265a48.18 48.18 0 0 1 1.721 6.446c.464 1.939 1.448 4.206 3.441 4.206 2.021 0 1.857-5.326 2.322-7.647a4.38 4.38 0 0 1 .9-1.994.8.8 0 0 1 1.229 0 3.875 3.875 0 0 1 .9 1.994c.464 2.322.3 7.647 2.322 7.647s3-2.267 3.469-4.206a49.4 49.4 0 0 1 1.721-6.446c1.174-3.059 2.567-4.752 2.567-7.265-.008-4.586-3.34-8.301-7.709-8z" transform="translate(270.641 331.037)"/>
            <path id="패스_12147" data-name="패스 12147" class="cls-2" d="M23.059 2.555a7.236 7.236 0 0 0-2.4.6 3.693 3.693 0 0 1-2.95 0 7.406 7.406 0 0 0-2.4-.6c-4.37-.3-7.7 3.414-7.7 8 0 2.513 1.393 4.206 2.567 7.265a48.18 48.18 0 0 1 1.721 6.446c.464 1.939 1.448 4.206 3.441 4.206 2.021 0 1.857-5.326 2.322-7.647a4.38 4.38 0 0 1 .9-1.994.8.8 0 0 1 1.229 0 3.875 3.875 0 0 1 .9 1.994c.464 2.322.3 7.647 2.322 7.647s3-2.267 3.469-4.206a49.4 49.4 0 0 1 1.721-6.446c1.174-3.059 2.567-4.752 2.567-7.265-.008-4.586-3.34-8.301-7.709-8z" transform="translate(270.641 331.037)"/>
            <path id="빼기_328" data-name="빼기 328" class="cls-3" d="M9.643 25.936a1.252 1.252 0 0 1-1.092-.761 7.028 7.028 0 0 0 1.664-3.446c.214-.885.384-1.613.52-2.2a29.215 29.215 0 0 1 1.2-4.249c.384-1 .8-1.871 1.166-2.639l.005-.011a10.3 10.3 0 0 0 1.4-4.615A8.687 8.687 0 0 0 12.888 2.9 7 7 0 0 0 8.735.152 6.556 6.556 0 0 1 9.7.016 7.48 7.48 0 0 1 10.2 0a6.809 6.809 0 0 1 5.15 2.354 8.506 8.506 0 0 1 2.05 5.665 10.315 10.315 0 0 1-1.4 4.62c-.368.77-.783 1.642-1.168 2.645a28.584 28.584 0 0 0-1.187 4.192l-.017.071c-.146.622-.311 1.326-.519 2.182-.458 1.919-1.432 4.207-3.466 4.207zm-7.674 0a2.506 2.506 0 0 1-1.8-.774 13.932 13.932 0 0 0 .944-4.655c.082-.838.16-1.624.278-2.219a4.433 4.433 0 0 1 .9-1.992.819.819 0 0 1 .626-.287.753.753 0 0 1 .6.287 3.732 3.732 0 0 1 .838 1.677c-.027.1-.05.2-.074.315-.119.594-.2 1.383-.278 2.219-.231 2.42-.528 5.429-2.034 5.429zM2.933.925A3.758 3.758 0 0 1 1.447.616 7.76 7.76 0 0 0 0 .154 6.677 6.677 0 0 1 1.44 0c.156 0 .323.005.5.016a7.352 7.352 0 0 1 2.4.6.149.149 0 0 0 .025.009 3.507 3.507 0 0 1-1.432.3z" transform="translate(284.001 333.577)"/>
            <g id="패스_12586" data-name="패스 12586" style="fill:none">
                <path class="cls-8" d="M23.059 2.555a7.236 7.236 0 0 0-2.4.6 3.693 3.693 0 0 1-2.95 0 7.406 7.406 0 0 0-2.4-.6c-4.37-.3-7.7 3.414-7.7 8 0 2.513 1.393 4.206 2.567 7.265a48.18 48.18 0 0 1 1.721 6.446c.464 1.939 1.448 4.206 3.441 4.206 2.021 0 1.857-5.326 2.322-7.647a4.38 4.38 0 0 1 .9-1.994.8.8 0 0 1 1.229 0 3.875 3.875 0 0 1 .9 1.994c.464 2.322.3 7.647 2.322 7.647s3-2.267 3.469-4.206a49.4 49.4 0 0 1 1.721-6.446c1.174-3.059 2.567-4.752 2.567-7.265-.008-4.586-3.34-8.301-7.709-8z" transform="translate(270.641 331.037)"/>
                <path d="M14.809 4.038c-1.542 0-2.973.656-4.028 1.848C9.697 7.11 9.1 8.77 9.1 10.557c0 1.35.525 2.45 1.252 3.974.38.795.81 1.695 1.216 2.755.581 1.52.816 2.528 1.284 4.536.14.6.298 1.279.495 2.096.235.984.556 1.791.926 2.333.35.511.649.66.854.705.09-.163.242-.521.389-1.252.17-.846.268-1.843.363-2.807.087-.875.168-1.701.3-2.365l.002-.007c.27-1.31.726-2 1.171-2.592l.03-.04.031-.037a2.32 2.32 0 0 1 1.764-.81c.699 0 1.345.309 1.774.848.453.558.954 1.27 1.205 2.653.131.66.212 1.481.298 2.35.095.964.193 1.961.363 2.807.148.733.3 1.09.39 1.253.212-.042.522-.19.88-.71.37-.539.691-1.344.928-2.332.208-.863.374-1.571.52-2.197.443-1.896.687-2.94 1.258-4.434.406-1.058.836-1.958 1.215-2.753.727-1.524 1.252-2.625 1.252-3.974 0-1.788-.596-3.446-1.68-4.67-1.056-1.193-2.486-1.85-4.029-1.85-.128 0-.26.005-.39.014h-.006c-.618.04-1.24.198-1.903.48a5.096 5.096 0 0 1-2.062.432 5.242 5.242 0 0 1-2.075-.429 5.95 5.95 0 0 0-1.916-.483 5.718 5.718 0 0 0-.39-.013m0-1.5c.162 0 .327.005.493.017.82.054 1.639.273 2.403.6.956.41 2.021.41 2.95 0 .765-.327 1.557-.546 2.404-.6 4.37-.3 7.701 3.414 7.701 8.002 0 2.513-1.392 4.206-2.567 7.265-.71 1.857-.874 2.95-1.72 6.446-.465 1.939-1.448 4.206-3.47 4.206-2.02 0-1.856-5.326-2.32-7.648-.192-1.065-.547-1.556-.902-1.993-.3-.383-.901-.383-1.229 0-.328.437-.683.928-.901 1.993-.465 2.322-.3 7.648-2.322 7.648-1.994 0-2.977-2.267-3.441-4.206-.847-3.524-1.01-4.589-1.72-6.446C8.992 14.763 7.6 13.07 7.6 10.557c0-4.414 3.084-8.02 7.209-8.02z" style="fill:#2d3239;stroke:none" transform="translate(270.641 331.037)"/>
            </g>
        </g>
        <g id="그룹_13339" data-name="그룹 13339" transform="translate(-102.537 -806.141)">
            <path id="합치기_188" data-name="합치기 188" class="cls-2" d="m7 14.456-6.739-4.4A1 1 0 0 1 .8 8.222h.979V2a2 2 0 0 1 2-2H11.3a2 2 0 0 1 2 2v6.222h.978a1 1 0 0 1 .546 1.837l-6.739 4.4a1 1 0 0 1-1.093 0z" transform="translate(824.007 2034)"/>
            <path id="합치기_186" data-name="합치기 186" class="cls-3" d="M7.343 15.522.25 10.657a1 1 0 0 1 .565-1.825h1.21V2a2 2 0 0 1 2-2h7.769a2 2 0 0 1 2 2v6.832H15a1 1 0 0 1 .566 1.825l-7.092 4.865a1 1 0 0 1-1.131 0z" transform="translate(825.598 2034.723)"/>
            <path id="합치기_187" data-name="합치기 187" d="m7 14.456-6.739-4.4A1 1 0 0 1 .8 8.222h.979V2a2 2 0 0 1 2-2H11.3a2 2 0 0 1 2 2v6.222h.978a1 1 0 0 1 .546 1.837l-6.739 4.4a1 1 0 0 1-1.093 0z" transform="translate(824.007 2034)" style="stroke-linejoin:round;stroke-linecap:round;stroke:#2d3239;stroke-width:1.5px;fill:none"/>
            <g id="그룹_12813" data-name="그룹 12813" transform="translate(828.752 2037.107)">
                <g id="타원_1796" data-name="타원 1796" class="cls-6">
                    <circle class="cls-8" cx="1.119" cy="1.119" r="1.119"/>
                    <circle class="cls-10" cx="1.119" cy="1.119" r=".369"/>
                </g>
                <g id="타원_1797" data-name="타원 1797" class="cls-6" transform="translate(3.357 3.357)">
                    <circle class="cls-8" cx="1.119" cy="1.119" r="1.119"/>
                    <circle class="cls-10" cx="1.119" cy="1.119" r=".369"/>
                </g>
                <path id="선_313" data-name="선 313" transform="translate(1.119 1.119)" style="stroke-linecap:round;stroke:#2d3239;stroke-width:1.5px;fill:none" d="M3.357 0 0 3.357"/>
            </g>
        </g>
    </g>
</svg>
