<svg xmlns="http://www.w3.org/2000/svg" width="44" height="44" viewBox="0 0 44 44">
    <path data-name="사각형 17676" style="fill:transparent" d="M0 0h44v44H0z"/>
    <path data-name="패스 13181" d="M18.889 4.175c.759-.337 3.076-1.725 4.4-2.27S26.645.5 27.858 1.2s.966 2.262-1.034 3.553-16.231 8.4-17.668 9.053a12.5 12.5 0 0 1-6.288 1.071c-2.614-.252-.054-1.937 0-2.271S.1 9.411.085 9.319s-.421-.084.675-.759 1.688-.277 2.868.134a29.4 29.4 0 0 0 3.287 1.215c.927.168 1.917-.339 3.141-1.054s2.845-1.561 2.255-2.4S7.549 1.7 7.13 1.2 5.918.031 7.775 0a6.262 6.262 0 0 1 3.1.463c.521.261 6.662 3.71 6.662 3.71a1.568 1.568 0 0 0 1.352.002z" transform="rotate(6.02 -42.506 83.78)" style="stroke:#2d3239;stroke-width:1.5px;fill:#fff"/>
    <g data-name="그룹 14127">
        <g data-name="그룹 14124" transform="translate(8.001 21.766)">
            <rect data-name="사각형 17678" width="8.146" height="8.146" rx="4.073" transform="translate(2.683)" style="fill:#fff"/>
            <rect data-name="사각형 17523" width="5.63" height="5.63" rx="2.815" transform="translate(4.935 2.167)" style="fill:#7dedf3"/>
            <g data-name="사각형 17080" transform="translate(2.683)" style="fill:none;stroke:#2d3239;stroke-width:1.5px">
                <rect width="8.146" height="8.146" rx="4.073" style="stroke:none"/>
                <rect x=".75" y=".75" width="6.646" height="6.646" rx="3.323" style="fill:none"/>
            </g>
            <path data-name="사각형 17481" d="M6.756 0a6.756 6.756 0 0 1 6.756 6.756v2.283H0V6.756A6.756 6.756 0 0 1 6.756 0z" transform="translate(0 6.5)" style="fill:#fff"/>
            <path data-name="사각형 17524" d="M5.067 0a5.067 5.067 0 0 1 5.067 5.067v2.815H0V5.067A5.067 5.067 0 0 1 5.067 0z" transform="translate(3.114 8.146)" style="fill:#7dedf3"/>
            <g data-name="사각형 17606" style="fill:none;stroke:#2d3239;stroke-width:1.5px">
                <path d="M6.756 0a6.756 6.756 0 0 1 6.756 6.756v3.412H0V6.756A6.756 6.756 0 0 1 6.756 0z" style="stroke:none" transform="translate(0 6.5)"/>
                <path d="M6.756.75a6.006 6.006 0 0 1 6.006 6.006v2.661H.75V6.756A6.006 6.006 0 0 1 6.756.75z" style="fill:none" transform="translate(0 6.5)"/>
            </g>
        </g>
        <g data-name="그룹 14125" transform="translate(17.009 21.766)">
            <rect data-name="사각형 17679" width="8.146" height="8.146" rx="4.073" transform="translate(2.683)" style="fill:#fff"/>
            <rect data-name="사각형 17523" width="5.63" height="5.63" rx="2.815" transform="translate(4.935 2.167)" style="fill:#7dedf3"/>
            <g data-name="사각형 17080" transform="translate(2.683)" style="fill:none;stroke:#2d3239;stroke-width:1.5px">
                <rect width="8.146" height="8.146" rx="4.073" style="stroke:none"/>
                <rect x=".75" y=".75" width="6.646" height="6.646" rx="3.323" style="fill:none"/>
            </g>
            <path data-name="사각형 17481" d="M6.756 0a6.756 6.756 0 0 1 6.756 6.756v2.283H0V6.756A6.756 6.756 0 0 1 6.756 0z" transform="translate(0 6.5)" style="fill:#fff"/>
            <path data-name="사각형 17524" d="M5.067 0a5.067 5.067 0 0 1 5.067 5.067v2.815H0V5.067A5.067 5.067 0 0 1 5.067 0z" transform="translate(3.114 8.146)" style="fill:#7dedf3"/>
            <g data-name="사각형 17606" style="fill:none;stroke:#2d3239;stroke-width:1.5px">
                <path d="M6.756 0a6.756 6.756 0 0 1 6.756 6.756v3.412H0V6.756A6.756 6.756 0 0 1 6.756 0z" style="stroke:none" transform="translate(0 6.5)"/>
                <path d="M6.756.75a6.006 6.006 0 0 1 6.006 6.006v2.661H.75V6.756A6.006 6.006 0 0 1 6.756.75z" style="fill:none" transform="translate(0 6.5)"/>
            </g>
        </g>
        <g data-name="그룹 14126" transform="translate(27.143 26.375)">
            <rect data-name="사각형 17523" width="3.099" height="3.099" rx="1.55" transform="translate(3.704 1.627)" style="fill:#7dedf3"/>
            <g data-name="사각형 17080" transform="translate(2.014)" style="fill:none;stroke:#2d3239;stroke-width:1.5px">
                <rect width="6.114" height="6.114" rx="3.057" style="stroke:none"/>
                <rect x=".75" y=".75" width="4.614" height="4.614" rx="2.307" style="fill:none"/>
            </g>
            <path data-name="사각형 17481" d="M5.071 0a5.071 5.071 0 0 1 5.071 5.071v1.713H0V5.071A5.071 5.071 0 0 1 5.071 0z" transform="translate(0 4.428)" style="fill:#fff"/>
            <path data-name="사각형 17524" d="M3.8 0a3.8 3.8 0 0 1 3.8 3.8v2.116H0V3.8A3.8 3.8 0 0 1 3.8 0z" transform="translate(2.337 5.663)" style="fill:#7dedf3"/>
            <g data-name="사각형 17606" style="fill:none;stroke:#2d3239;stroke-width:1.5px">
                <path d="M5.071 0a5.071 5.071 0 0 1 5.071 5.071v2.56H0v-2.56A5.071 5.071 0 0 1 5.071 0z" style="stroke:none" transform="translate(0 4.428)"/>
                <path d="M5.071.75a4.321 4.321 0 0 1 4.32 4.321v1.81H.75v-1.81A4.321 4.321 0 0 1 5.071.75z" style="fill:none" transform="translate(0 4.428)"/>
            </g>
        </g>
    </g>
</svg>
