<svg xmlns="http://www.w3.org/2000/svg" width="44" height="44" viewBox="0 0 44 44">
    <path data-name="패스 13188" d="M8289.5 10281h-5.5l-1.375-4.572c-.661-2.212-2.125-3.43-4.123-3.43h5.5a3.87 3.87 0 0 1 2.7 1 5.281 5.281 0 0 1 1.422 2.431l1.375 4.571z" transform="translate(-8258.5 -10265.499)" style="fill:#7dedf3"/>
    <g data-name="패스 10994" style="fill:#fff">
        <path d="M27.955 14.25H2.045A1.297 1.297 0 0 1 .75 12.955V6.818A6.075 6.075 0 0 1 6.818.75h16.364a6.075 6.075 0 0 1 6.068 6.068v6.137c0 .714-.581 1.295-1.295 1.295z" style="stroke:none" transform="translate(5 14)"/>
        <path d="M6.818 1.5A5.324 5.324 0 0 0 1.5 6.818v6.137c0 .3.245.545.545.545h25.91c.3 0 .545-.245.545-.545V6.818A5.324 5.324 0 0 0 23.182 1.5H6.818m0-1.5h16.364A6.818 6.818 0 0 1 30 6.818v6.137c0 1.13-.916 2.045-2.045 2.045H2.045A2.045 2.045 0 0 1 0 12.955V6.818A6.818 6.818 0 0 1 6.818 0z" style="fill:#2d3239;stroke:none" transform="translate(5 14)"/>
    </g>
    <g data-name="패스 13187" style="stroke-linecap:round;fill:#fff">
        <path d="M2.5 5.25C1.535 5.25.75 4.465.75 3.5V.75h3.5V3.5c0 .965-.785 1.75-1.75 1.75z" style="stroke:none" transform="translate(9 27.5)"/>
        <path d="M1.5 1.5v2a1.001 1.001 0 0 0 2 0v-2h-2M0 0h5v3.5a2.5 2.5 0 0 1-5 0V0z" style="fill:#2d3239;stroke:none" transform="translate(9 27.5)"/>
    </g>
    <g data-name="패스 13185" style="stroke-linecap:round;fill:#fff">
        <path d="M2.75 1h-2a.25.25 0 0 1 0-.5h2a.25.25 0 0 1 0 .5z" style="stroke:none" transform="translate(31.5 12)"/>
        <path d="M.75 0h2a.75.75 0 0 1 0 1.5h-2a.75.75 0 0 1 0-1.5z" style="fill:#2a2d33;stroke:none" transform="translate(31.5 12)"/>
    </g>
    <g data-name="패스 13184" style="stroke-linecap:round;fill:#fff">
        <path d="M2.75 1h-2a.25.25 0 0 1 0-.5h2a.25.25 0 0 1 0 .5z" style="stroke:none" transform="translate(5 12)"/>
        <path d="M.75 0h2a.75.75 0 0 1 0 1.5h-2a.75.75 0 0 1 0-1.5z" style="fill:#2a2d33;stroke:none" transform="translate(5 12)"/>
    </g>
    <g data-name="패스 13183" style="stroke-linecap:round;fill:#fff">
        <path d="M2.25 1H.75a.25.25 0 0 1 0-.5h1.5a.25.25 0 0 1 0 .5z" style="stroke:none" transform="translate(28 21.5)"/>
        <path d="M.75 0h1.5a.75.75 0 0 1 0 1.5H.75a.75.75 0 0 1 0-1.5z" style="fill:#2a2d33;stroke:none" transform="translate(28 21.5)"/>
    </g>
    <g data-name="패스 13182" style="stroke-linecap:round;fill:#fff">
        <path d="M2.25 1H.75a.25.25 0 0 1 0-.5h1.5a.25.25 0 0 1 0 .5z" style="stroke:none" transform="translate(9 21.5)"/>
        <path d="M.75 0h1.5a.75.75 0 0 1 0 1.5H.75a.75.75 0 0 1 0-1.5z" style="fill:#2a2d33;stroke:none" transform="translate(9 21.5)"/>
    </g>
    <g data-name="패스 13181" style="stroke-linecap:round;fill:#fff">
        <path d="M11.25 1H.75a.25.25 0 0 1 0-.5h10.5a.25.25 0 0 1 0 .5z" style="stroke:none" transform="translate(14 21.5)"/>
        <path d="M.75 0h10.5a.75.75 0 0 1 0 1.5H.75a.75.75 0 0 1 0-1.5z" style="fill:#2a2d33;stroke:none" transform="translate(14 21.5)"/>
    </g>
    <path data-name="패스 13180" d="M0 0h.5a.5.5 0 0 1 0 1H0z" transform="translate(25 28)" style="fill:#2d3239"/>
    <g data-name="그룹 13431">
        <path data-name="패스 12086" d="M19.871 2.551a5.744 5.744 0 0 0-1.908.477 2.932 2.932 0 0 1-2.341 0 5.879 5.879 0 0 0-1.908-.477C10.245 2.313 7.6 5.261 7.6 8.9c0 1.995 1.106 3.339 2.038 5.767A38.245 38.245 0 0 1 11 19.787c.369 1.539 1.149 3.339 2.732 3.339 1.6 0 1.474-4.228 1.843-6.07a3.477 3.477 0 0 1 .715-1.583.636.636 0 0 1 .976 0 3.076 3.076 0 0 1 .715 1.583c.369 1.843.238 6.07 1.843 6.07s2.385-1.8 2.753-3.339a39.213 39.213 0 0 1 1.366-5.116c.932-2.428 2.038-3.772 2.038-5.767.004-3.643-2.641-6.591-6.11-6.353z" transform="translate(14.016 16.298)" style="fill:#fff"/>
        <path data-name="패스 12147" d="M19.871 2.551a5.744 5.744 0 0 0-1.908.477 2.932 2.932 0 0 1-2.341 0 5.879 5.879 0 0 0-1.908-.477C10.245 2.313 7.6 5.261 7.6 8.9c0 1.995 1.106 3.339 2.038 5.767A38.245 38.245 0 0 1 11 19.787c.369 1.539 1.149 3.339 2.732 3.339 1.6 0 1.474-4.228 1.843-6.07a3.477 3.477 0 0 1 .715-1.583.636.636 0 0 1 .976 0 3.076 3.076 0 0 1 .715 1.583c.369 1.843.238 6.07 1.843 6.07s2.385-1.8 2.753-3.339a39.213 39.213 0 0 1 1.366-5.116c.932-2.428 2.038-3.772 2.038-5.767.004-3.643-2.641-6.591-6.11-6.353z" transform="translate(14.016 16.298)" style="fill:#fff"/>
        <path data-name="패스 13179" d="M-212.432-131.837c-.549 0-.946-.5-1.212-1.514a5.775 5.775 0 0 0 1.249-2.662c.169-.7.3-1.26.417-1.758a22.771 22.771 0 0 1 .949-3.358c.306-.8.637-1.49.928-2.1a8.184 8.184 0 0 0 1.109-3.665 7.06 7.06 0 0 0-.737-3.17c1.387.7 3.038 1.965 3.038 4.006a11.731 11.731 0 0 1-1.182 4.644c-.141.355-.286.721-.441 1.124a22.926 22.926 0 0 0-.951 3.364c-.117.5-.249 1.064-.415 1.752-.364 1.522-1.137 3.337-2.752 3.337zm-6.092 0a2.271 2.271 0 0 1-1.947-1.288 9.644 9.644 0 0 0 .852-3.861c.065-.663.127-1.29.221-1.758a3.479 3.479 0 0 1 .716-1.582.651.651 0 0 1 .5-.228.6.6 0 0 1 .48.228 3.081 3.081 0 0 1 .716 1.582c.085.424.143.974.2 1.547a40 40 0 0 0-.111 1.048c-.196 1.922-.431 4.312-1.628 4.312z" transform="translate(246.275 170.261)" style="fill:#7dedf3"/>
        <g data-name="패스 12586" style="fill:none">
            <path d="M19.871 2.551a5.744 5.744 0 0 0-1.908.477 2.932 2.932 0 0 1-2.341 0 5.879 5.879 0 0 0-1.908-.477C10.245 2.313 7.6 5.261 7.6 8.9c0 1.995 1.106 3.339 2.038 5.767A38.245 38.245 0 0 1 11 19.787c.369 1.539 1.149 3.339 2.732 3.339 1.6 0 1.474-4.228 1.843-6.07a3.477 3.477 0 0 1 .715-1.583.636.636 0 0 1 .976 0 3.076 3.076 0 0 1 .715 1.583c.369 1.843.238 6.07 1.843 6.07s2.385-1.8 2.753-3.339a39.213 39.213 0 0 1 1.366-5.116c.932-2.428 2.038-3.772 2.038-5.767.004-3.643-2.641-6.591-6.11-6.353z" style="stroke:none" transform="translate(14.016 16.298)"/>
            <path d="M13.322 4.038c-1.134 0-2.187.484-2.966 1.363C9.546 6.316 9.1 7.56 9.1 8.903c0 1.001.404 1.849.964 3.021.303.637.647 1.357.975 2.21.469 1.227.669 2.084 1.031 3.641.111.476.237 1.014.393 1.662.178.745.417 1.35.69 1.75.1.146.188.244.265.309.054-.161.119-.396.182-.732.12-.635.193-1.378.264-2.096.07-.702.135-1.365.243-1.907l.002-.007c.226-1.103.61-1.682.985-2.182l.029-.039.032-.037a2.15 2.15 0 0 1 1.635-.751c.649 0 1.25.287 1.65.789.41.506.816 1.13 1.019 2.242.106.539.171 1.196.24 1.892.07.718.144 1.46.264 2.096.065.342.13.58.185.74.082-.065.177-.166.284-.32.273-.398.512-1.002.691-1.75.165-.683.297-1.245.413-1.741.354-1.519.55-2.355 1.01-3.56.327-.852.671-1.572.975-2.209.56-1.172.964-2.02.964-3.02 0-1.344-.447-2.588-1.257-3.503-.778-.879-1.831-1.363-2.966-1.363-.095 0-.192.003-.288.01h-.007a4.25 4.25 0 0 0-1.407.356 4.353 4.353 0 0 1-1.76.368 4.469 4.469 0 0 1-1.77-.365 4.412 4.412 0 0 0-1.42-.36 4.23 4.23 0 0 0-.288-.01m0-1.5c.13 0 .26.005.392.014.65.044 1.3.217 1.908.477a2.932 2.932 0 0 0 2.341 0 5.744 5.744 0 0 1 1.908-.477c3.469-.238 6.114 2.71 6.114 6.352 0 1.995-1.106 3.34-2.038 5.767-.564 1.475-.694 2.342-1.366 5.117-.369 1.54-1.15 3.339-2.753 3.339-1.605 0-1.475-4.228-1.843-6.07-.152-.846-.434-1.237-.716-1.584-.238-.303-.715-.303-.975 0-.26.347-.542.738-.716 1.583-.368 1.843-.238 6.07-1.843 6.07-1.582 0-2.363-1.799-2.731-3.338-.672-2.797-.802-3.642-1.366-5.117C8.706 12.242 7.6 10.898 7.6 8.903c0-3.504 2.448-6.365 5.722-6.365z" style="fill:#2d3239;stroke:none" transform="translate(14.016 16.298)"/>
        </g>
    </g>
    <path data-name="패스 12665" d="m0 0 2.432 1.648L4.527 0l2.757 2.309" transform="rotate(120 12.45 21.899)" style="stroke:#2d3239;stroke-linejoin:round;stroke-width:1.5px;fill:none;stroke-linecap:round"/>
    <g data-name="패스 12990" style="fill:none">
        <path d="M5.5 0h11c2.278 0 3.554 1.522 4.125 3.429L22 8H0l1.375-4.571C1.981 1.4 3.222 0 5.5 0z" style="stroke:none" transform="translate(9 7.5)"/>
        <path d="M5.5 1.5c-.709 0-1.26.186-1.686.57-.424.382-.761.984-1.003 1.79L2.018 6.5h17.964l-.794-2.641c-.226-.756-.572-1.362-.999-1.754-.444-.407-.997-.605-1.689-.605h-11m0-1.5h11c2.278 0 3.554 1.522 4.125 3.429L22 8H0l1.375-4.571C1.981 1.405 3.222 0 5.5 0z" style="fill:#2d3239;stroke:none" transform="translate(9 7.5)"/>
    </g>
</svg>
