<svg xmlns="http://www.w3.org/2000/svg" width="44" height="44" viewBox="0 0 44 44">
    <g data-name="패스 12651" style="fill:#fff">
        <path d="M24.25 14.25H2.75V5A4.255 4.255 0 0 1 7 .75h13A4.255 4.255 0 0 1 24.25 5v9.25z" style="stroke:none" transform="translate(5.315 6)"/>
        <path d="M7 1.5C5.07 1.5 3.5 3.07 3.5 5v8.5h20V5c0-1.93-1.57-3.5-3.5-3.5H7M7 0h13a5 5 0 0 1 5 5v10H2V5a5 5 0 0 1 5-5z" style="fill:#2d3239;stroke:none" transform="translate(5.315 6)"/>
    </g>
    <g data-name="패스 12650" style="fill:#fff">
        <path d="M22 13.25H5c-1.267 0-4.201-.312-4.25-3.179L2.616.75h21.77l1.864 9.321c-.048 2.867-2.982 3.179-4.249 3.179z" style="stroke:none" transform="translate(5.315 19)"/>
        <path d="m3.23 1.5-1.727 8.636c.028.753.297 1.291.84 1.684.606.439 1.55.68 2.657.68h17c1.107 0 2.05-.241 2.656-.68.544-.393.813-.93.841-1.684L23.77 1.5H3.23M2 0h23l2 10c0 2.761-2.239 4-5 4H5c-2.761 0-5-1.239-5-4L2 0z" style="fill:#2d3239;stroke:none" transform="translate(5.315 19)"/>
    </g>
    <path data-name="패스 13232" d="M.75 0h4.5a.75.75 0 0 1 0 1.5H.75a.75.75 0 0 1 0-1.5z" transform="translate(10.015 23.068)" style="fill:#2d3239"/>
    <path data-name="패스 13231" d="M.75 0h6.5a.75.75 0 0 1 0 1.5H.75a.75.75 0 0 1 0-1.5z" transform="translate(9.015 26.5)" style="fill:#2d3239"/>
    <g data-name="그룹 13301">
        <path data-name="패스 2252" d="m3649.637 5413.028 1.622 4.635 1.623-4.635 1.622 4.635 1.623-4.635" transform="translate(-3637.237 -5401.846)" style="stroke-linejoin:round;stroke:#2d3239;stroke-linecap:round;stroke-width:1.5px;fill:none"/>
        <path data-name="패스 13234" d="M0 0h1.391" transform="translate(11.472 13.036)" style="stroke:#2d3239;stroke-linecap:round;stroke-width:1.5px;fill:none"/>
        <path data-name="패스 13233" d="M0 0h1.391" transform="translate(18.425 13.036)" style="stroke:#2d3239;stroke-linecap:round;stroke-width:1.5px;fill:none"/>
    </g>
    <g data-name="그룹 13338">
        <path data-name="패스 13230" d="M8 0a8 8 0 1 1-8 8 8 8 0 0 1 8-8z" transform="translate(22 23)" style="fill:#fff"/>
        <path data-name="패스 12624" d="M7 0a7 7 0 1 1-7 7 7 7 0 0 1 7-7z" transform="translate(25 24.5)" style="fill:#7dedf3"/>
        <g data-name="패스 13229" style="fill:none">
            <path d="M8 0a8 8 0 1 1-8 8 8 8 0 0 1 8-8z" style="stroke:none" transform="translate(22 23)"/>
            <path d="M8 1.5A6.507 6.507 0 0 0 1.5 8c0 3.584 2.916 6.5 6.5 6.5s6.5-2.916 6.5-6.5S11.584 1.5 8 1.5M8 0a8 8 0 1 1 0 16A8 8 0 0 1 8 0z" style="fill:#2d3239;stroke:none" transform="translate(22 23)"/>
        </g>
        <path data-name="패스 13228" d="M0 0v6.146" transform="rotate(-45 48.712 -19.176)" style="stroke:#2d3239;stroke-linecap:round;stroke-width:1.5px;fill:none"/>
        <path data-name="패스 13227" d="M0 0v6.146" transform="rotate(45 -18.71 53.251)" style="stroke:#2d3239;stroke-linecap:round;stroke-width:1.5px;fill:none"/>
    </g>
</svg>
