<svg xmlns="http://www.w3.org/2000/svg" width="44" height="44" viewBox="0 0 44 44">
    <g data-name="그룹 13897">
        <g data-name="패스 12963" style="fill:#fff">
            <path d="M12.446 14.495C5.888 14.495.75 12.863.75 10.78.75 5.25 5.997.75 12.446.75c6.45 0 11.696 4.5 11.696 10.03 0 2.083-5.137 3.715-11.696 3.715z" style="stroke:none" transform="translate(7.229 24.595)"/>
            <path d="M12.446 1.5C6.41 1.5 1.5 5.663 1.5 10.78c0 .467.745 1.25 2.845 1.92 2.083.664 5.036 1.045 8.101 1.045 3.065 0 6.018-.381 8.101-1.045 2.1-.67 2.845-1.453 2.845-1.92 0-5.117-4.91-9.28-10.946-9.28m0-1.5c6.874 0 12.446 4.826 12.446 10.78 0 5.953-24.892 5.953-24.892 0C0 4.826 5.572 0 12.446 0z" style="fill:#2d3239;stroke:none" transform="translate(7.229 24.595)"/>
        </g>
        <path data-name="패스 12964" d="M1346.149 292.584a3.536 3.536 0 0 1-7.048 0" transform="translate(-1323.111 -266.368)" style="stroke-linecap:round;stroke:#2d3239;stroke-width:1.5px;fill:none"/>
        <g data-name="패스 13095">
            <path data-name="패스 13096" d="M1230.048 406.96a1.392 1.392 0 0 0 1.392-1.392l-.028-11.77a2.062 2.062 0 0 1 1.555-2.331 1.98 1.98 0 0 1 2.331 1.557 2.067 2.067 0 0 1 0 .777 1.393 1.393 0 1 0 2.733.536 4.871 4.871 0 0 0 0-1.854 4.776 4.776 0 0 0-5.6-3.747c-2.529.5-3.864 2.668-3.769 5.457v11.372a1.392 1.392 0 0 0 1.386 1.395z" transform="translate(-1199.525 -368.338)" style="fill:#7dedf3;stroke:#2d3239;stroke-width:1.5px"/>
        </g>
        <g data-name="그룹 13895">
            <path data-name="패스 12987" d="M10.286 4c5.684 0 9.635.887 9.635 7.469s-3.951 11.467-9.635 11.467S.568 18.05.568 11.467 4.6 4 10.286 4z" transform="translate(9.349 .262)" style="fill:#fff"/>
            <path data-name="패스 13125" d="M8.893 4c4.869 0 8.254.767 8.254 6.464s-3.384 9.925-8.254 9.925S.568 16.158.568 10.462 4.024 4 8.893 4z" transform="translate(11.939 1.272)" style="fill:#7dedf3"/>
            <g data-name="패스 12971" style="fill:none">
                <path d="M10.286 4c5.684 0 9.635.887 9.635 7.469s-3.951 11.467-9.635 11.467S.568 18.05.568 11.467 4.6 4 10.286 4z" style="stroke:none" transform="translate(9.349 .262)"/>
                <path d="M10.286 5.498c-2.219 0-4.692.124-6.211 1.048-.862.523-2.007 1.603-2.007 4.921 0 2.846.844 5.416 2.376 7.238 1.502 1.786 3.522 2.73 5.842 2.73 2.31 0 4.315-.941 5.795-2.723 1.509-1.817 2.34-4.39 2.34-7.245 0-3.328-1.126-4.405-1.972-4.925-1.496-.92-3.955-1.044-6.163-1.044m0-1.5c5.684 0 9.635.887 9.635 7.47 0 6.582-3.951 11.468-9.635 11.468-5.684 0-9.718-4.886-9.718-11.469 0-6.582 4.034-7.47 9.718-7.47z" style="fill:#2d3239;stroke:none" transform="translate(9.349 .262)"/>
            </g>
            <g data-name="빼기 363" style="stroke-linejoin:round;stroke-linecap:round;fill:#fff">
                <path d="M9.557 17.958H5a4.255 4.255 0 0 1-4.25-4.25V4.999c0-.09.003-.18.009-.27.534-.612 1.085-1.435 1.571-2.35.184-.345.352-.692.502-1.036A4.233 4.233 0 0 1 5 .75h4.557c.673 0 1.336.16 1.93.463.164.385.352.776.56 1.167.542 1.021 1.172 1.933 1.76 2.555v8.773a4.255 4.255 0 0 1-4.25 4.25z" style="stroke:none" transform="translate(12.299 7.837)"/>
                <path d="M9.557 17.208c1.93 0 3.5-1.57 3.5-3.5V5.226c-.573-.654-1.153-1.517-1.672-2.494-.17-.32-.328-.641-.471-.96A3.505 3.505 0 0 0 9.557 1.5H5c-.556 0-1.097.13-1.586.379-.13.283-.27.569-.422.852A14.02 14.02 0 0 1 1.5 5.013v8.695c0 1.93 1.57 3.5 3.5 3.5h4.557m0 1.5H5c-2.757 0-5-2.243-5-5V4.999c0-.196.012-.394.034-.589.544-.577 1.124-1.423 1.634-2.382.212-.4.403-.802.567-1.194A4.979 4.979 0 0 1 5 0h4.557c.888 0 1.76.236 2.522.682.177.44.389.893.63 1.346.574 1.08 1.242 2.023 1.833 2.584.01.13.015.26.015.387v8.709c0 2.757-2.243 5-5 5z" style="fill:#2d3239;stroke:none" transform="translate(12.299 7.837)"/>
            </g>
            <g data-name="사각형 17276" style="stroke:#2d3239;stroke-width:1.5px;fill:#fff">
                <path d="M1.28 0a3.2 3.2 0 0 1 3.2 3.2v.32a3.2 3.2 0 0 1-3.2 3.2A1.28 1.28 0 0 1 0 5.439V1.28A1.28 1.28 0 0 1 1.28 0z" style="stroke:none" transform="translate(25.38 14.227)"/>
                <path d="M1.427.75a2.3 2.3 0 0 1 2.3 2.3v.615a2.3 2.3 0 0 1-2.3 2.3.677.677 0 0 1-.677-.673V1.427A.677.677 0 0 1 1.427.75z" style="fill:none" transform="translate(25.38 14.227)"/>
            </g>
            <path data-name="패스 12974" d="M1041.162 802.152h2.828" transform="translate(-1022.998 -788.432)" style="stroke-linecap:round;stroke:#2d3239;stroke-width:1.5px;fill:none"/>
            <path data-name="패스 12975" d="M1041.162 802.152h1.819" transform="translate(-1022.493 -790.847)" style="stroke-linecap:round;stroke:#2d3239;stroke-width:1.5px;fill:none"/>
            <g data-name="사각형 17278" style="stroke:#2d3239;stroke-width:1.5px;fill:#fff">
                <path d="M3.2 0a1.28 1.28 0 0 1 1.28 1.28v4.159a1.28 1.28 0 0 1-1.28 1.28 3.2 3.2 0 0 1-3.2-3.2V3.2A3.2 3.2 0 0 1 3.2 0z" style="stroke:none" transform="translate(9.343 14.227)"/>
                <path d="M3.052.75a.677.677 0 0 1 .677.677v3.865a.677.677 0 0 1-.677.677 2.3 2.3 0 0 1-2.3-2.3v-.617A2.3 2.3 0 0 1 3.052.75z" style="fill:none" transform="translate(9.343 14.227)"/>
            </g>
            <path data-name="패스 13144" d="M1041.162 802.152v.359" transform="translate(-1024.898 -786.028)" style="stroke-linecap:round;stroke:#2d3239;stroke-width:1.5px;fill:none"/>
            <path data-name="패스 13143" d="M1041.162 802.152v.359" transform="translate(-1018.285 -786.028)" style="stroke-linecap:round;stroke:#2d3239;stroke-width:1.5px;fill:none"/>
            <path data-name="패스 13177" d="M0 .241A2.389 2.389 0 0 1 1.227.019" transform="rotate(69 -3.454 27.407)" style="stroke-linecap:round;stroke:#2d3239;stroke-width:1.5px;fill:none"/>
            <path data-name="패스 13178" d="M0 0a2.389 2.389 0 0 0 1.227.221" transform="rotate(111 .89 15.996)" style="stroke-linecap:round;stroke:#2d3239;stroke-width:1.5px;fill:none"/>
            <path data-name="패스 13064" d="M1041.995 808.888a2.236 2.236 0 0 0 3.6 0" transform="translate(-1024.172 -787.031)" style="stroke-linecap:round;stroke:#2d3239;stroke-width:1.5px;fill:none"/>
            <path data-name="패스 13145" d="M1043.586 804.477v2.609h1.615" transform="translate(-1024.405 -787.994)" style="stroke-linejoin:round;stroke-linecap:round;stroke:#2d3239;stroke-width:1.5px;fill:none"/>
        </g>
    </g>
</svg>
