<svg xmlns="http://www.w3.org/2000/svg" width="44" height="44" viewBox="0 0 44 44">
    <defs>
        <style>
            .cls-5{fill:#fff}.cls-4{stroke:#2d3239;stroke-width:1.5px}.cls-11,.cls-4{fill:none}.cls-6{fill:#2d3239}.cls-10{stroke:none}
        </style>
    </defs>
    <g id="ic_insurance_01" transform="translate(-599 -789)">
        <path id="사각형_16930" data-name="사각형 16930" transform="translate(599 789)" style="fill:transparent" d="M0 0h44v44H0z"/>
        <g id="사각형_16932" data-name="사각형 16932" transform="translate(604 796)" style="stroke:#2d3239;stroke-width:1.5px;fill:#fff">
            <rect class="cls-10" width="28" height="28" rx="5"/>
            <rect class="cls-11" x=".75" y=".75" width="26.5" height="26.5" rx="4.25"/>
        </g>
        <g id="그룹_13417" data-name="그룹 13417" transform="translate(611.583 801.125)">
            <g id="사각형_13454" data-name="사각형 13454" class="cls-4" transform="translate(2.625)">
                <rect class="cls-10" width="7.583" height="7.583" rx="3.792"/>
                <rect class="cls-11" x=".75" y=".75" width="6.083" height="6.083" rx="3.042"/>
            </g>
            <g id="사각형_13807" data-name="사각형 13807" class="cls-4">
                <path class="cls-10" d="M4 0h4.833a4 4 0 0 1 4 4v4.167H0V4a4 4 0 0 1 4-4z" transform="translate(0 8.458)"/>
                <path class="cls-11" d="M4 .75h4.833A3.25 3.25 0 0 1 12.083 4v3.417H.75V4A3.25 3.25 0 0 1 4 .75z" transform="translate(0 8.458)"/>
            </g>
            <path id="사각형_13808" data-name="사각형 13808" class="cls-5" transform="translate(0 13.708)" d="M0 0h12.833v3.5H0z"/>
            <rect id="사각형_13809" data-name="사각형 13809" class="cls-6" width="1.5" height="2.333" rx=".75" transform="translate(0 12.542)"/>
            <rect id="사각형_13810" data-name="사각형 13810" class="cls-6" width="1.5" height="2.333" rx=".75" transform="translate(11.337 12.542)"/>
        </g>
        <path id="다각형_110" data-name="다각형 110" class="cls-5" d="M10.9.923a1.5 1.5 0 0 1 2.172.706l.286.693a1.5 1.5 0 0 0 1.272.924l.749.057a1.5 1.5 0 0 1 1.343 1.849l-.176.725a1.5 1.5 0 0 0 .486 1.5l.569.483a1.5 1.5 0 0 1 0 2.286l-.569.483a1.5 1.5 0 0 0-.486 1.5l.176.725a1.5 1.5 0 0 1-1.343 1.846l-.749.057a1.5 1.5 0 0 0-1.272.924l-.286.693a1.5 1.5 0 0 1-2.172.706l-.641-.394a1.5 1.5 0 0 0-1.571 0l-.641.394a1.5 1.5 0 0 1-2.172-.706l-.286-.693a1.5 1.5 0 0 0-1.272-.924l-.749-.057a1.5 1.5 0 0 1-1.343-1.849l.176-.725a1.5 1.5 0 0 0-.486-1.5l-.569-.483a1.5 1.5 0 0 1 0-2.286l.569-.483a1.5 1.5 0 0 0 .486-1.5l-.176-.725A1.5 1.5 0 0 1 3.568 3.3l.749-.057a1.5 1.5 0 0 0 1.272-.924l.286-.693A1.5 1.5 0 0 1 8.047.923l.641.394a1.5 1.5 0 0 0 1.571 0z" transform="translate(619.621 811)"/>
        <path id="다각형_111" data-name="다각형 111" d="M9.665.914a1.5 1.5 0 0 1 2.168.705l.154.37a1.5 1.5 0 0 0 1.272.921l.4.031a1.5 1.5 0 0 1 1.343 1.851l-.09.367a1.5 1.5 0 0 0 .489 1.5l.291.246a1.5 1.5 0 0 1 0 2.292l-.291.246a1.5 1.5 0 0 0-.489 1.5l.09.367a1.5 1.5 0 0 1-1.343 1.851l-.4.031a1.5 1.5 0 0 0-1.272.921l-.154.37a1.5 1.5 0 0 1-2.168.705l-.356-.218a1.5 1.5 0 0 0-1.565 0l-.356.218a1.5 1.5 0 0 1-2.168-.705l-.154-.37a1.5 1.5 0 0 0-1.272-.921l-.4-.031a1.5 1.5 0 0 1-1.343-1.851l.09-.367a1.5 1.5 0 0 0-.489-1.5L1.356 9.2a1.5 1.5 0 0 1 0-2.292l.291-.246a1.5 1.5 0 0 0 .489-1.5l-.09-.367A1.5 1.5 0 0 1 3.39 2.942l.4-.031a1.5 1.5 0 0 0 1.276-.921l.154-.37A1.5 1.5 0 0 1 7.388.914l.356.218a1.5 1.5 0 0 0 1.565 0z" transform="translate(622.747 811.947)" style="fill:#7dedf3"/>
        <path id="패스_12816" data-name="패스 12816" d="m-10169.5 5362.4 2.011 1.895 3.674-3.789" transform="translate(10795.99 -4542.553)" style="stroke-linecap:round;stroke-linejoin:round;fill:none;stroke:#2d3239;stroke-width:1.5px"/>
        <g id="다각형_112" data-name="다각형 112" style="fill:none">
            <path class="cls-10" d="M10.9.923a1.5 1.5 0 0 1 2.172.706l.286.693a1.5 1.5 0 0 0 1.272.924l.749.057a1.5 1.5 0 0 1 1.343 1.849l-.176.725a1.5 1.5 0 0 0 .486 1.5l.569.483a1.5 1.5 0 0 1 0 2.286l-.569.483a1.5 1.5 0 0 0-.486 1.5l.176.725a1.5 1.5 0 0 1-1.343 1.846l-.749.057a1.5 1.5 0 0 0-1.272.924l-.286.693a1.5 1.5 0 0 1-2.172.706l-.641-.394a1.5 1.5 0 0 0-1.571 0l-.641.394a1.5 1.5 0 0 1-2.172-.706l-.286-.693a1.5 1.5 0 0 0-1.272-.924l-.749-.057a1.5 1.5 0 0 1-1.343-1.849l.176-.725a1.5 1.5 0 0 0-.486-1.5l-.569-.483a1.5 1.5 0 0 1 0-2.286l.569-.483a1.5 1.5 0 0 0 .486-1.5l-.176-.725A1.5 1.5 0 0 1 3.568 3.3l.749-.057a1.5 1.5 0 0 0 1.272-.924l.286-.693A1.5 1.5 0 0 1 8.047.923l.641.394a1.5 1.5 0 0 0 1.571 0z" transform="translate(619.621 811)"/>
            <path d="m11.686 2.2-.641.395a2.998 2.998 0 0 1-3.143 0l-.64-.394-.286.693A2.985 2.985 0 0 1 4.43 4.74l-.748.058.175.725a2.985 2.985 0 0 1-.972 2.993L2.316 9l.57.483a2.985 2.985 0 0 1 .972 2.993l-.175.725.748.058a2.985 2.985 0 0 1 2.545 1.847l.285.693.641-.394a2.998 2.998 0 0 1 3.143 0l.642.393.285-.692a2.985 2.985 0 0 1 2.544-1.847l.749-.058-.176-.725a2.985 2.985 0 0 1 .973-2.993L16.63 9l-.57-.483a2.985 2.985 0 0 1-.972-2.993l.176-.725-.749-.058a2.985 2.985 0 0 1-2.544-1.847l-.286-.693M7.263.7c.267 0 .537.071.784.223l.641.394a1.5 1.5 0 0 0 1.571 0L10.9.923a1.5 1.5 0 0 1 2.173.706l.286.693a1.5 1.5 0 0 0 1.272.924l.748.057a1.5 1.5 0 0 1 1.343 1.849l-.175.725a1.5 1.5 0 0 0 .486 1.496l.57.484a1.5 1.5 0 0 1 0 2.286l-.57.484a1.5 1.5 0 0 0-.486 1.496l.175.725a1.5 1.5 0 0 1-1.343 1.85l-.748.056a1.5 1.5 0 0 0-1.272.924l-.286.693a1.5 1.5 0 0 1-2.173.706l-.64-.394a1.5 1.5 0 0 0-1.572 0l-.641.394a1.5 1.5 0 0 1-2.172-.706l-.286-.693a1.5 1.5 0 0 0-1.272-.924l-.749-.057a1.5 1.5 0 0 1-1.343-1.849l.176-.725a1.5 1.5 0 0 0-.487-1.496l-.569-.484a1.5 1.5 0 0 1 0-2.286l.57-.484A1.5 1.5 0 0 0 2.4 5.877l-.176-.725a1.5 1.5 0 0 1 1.343-1.85l.749-.056a1.5 1.5 0 0 0 1.272-.924l.286-.693A1.5 1.5 0 0 1 7.263.7z" style="fill:#2d3239;stroke:none" transform="translate(619.621 811)"/>
        </g>
    </g>
</svg>
