<svg xmlns="http://www.w3.org/2000/svg" width="44" height="44" viewBox="0 0 44 44">
    <g data-name="그룹 13829">
        <g data-name="타원 2189" transform="translate(4.425 5.184)" style="stroke:#2d3239;stroke-width:1.5px;fill:#fff">
            <circle cx="15" cy="15" r="15" style="stroke:none"/>
            <circle cx="15" cy="15" r="14.25" style="fill:none"/>
        </g>
        <g data-name="빼기 370" style="stroke-linecap:round;fill:#fff">
            <path d="M20.603 19.25H3.397A11.23 11.23 0 0 1 .75 12c0-3.005 1.17-5.83 3.295-7.955A11.176 11.176 0 0 1 12 .75c3.005 0 5.83 1.17 7.955 3.295A11.176 11.176 0 0 1 23.25 12a11.23 11.23 0 0 1-2.647 7.25z" style="stroke:none" transform="translate(7.425 8.184)"/>
            <path d="M20.247 18.5A10.481 10.481 0 0 0 22.5 12a10.43 10.43 0 0 0-3.075-7.424A10.432 10.432 0 0 0 12 1.5a10.43 10.43 0 0 0-7.425 3.075A10.43 10.43 0 0 0 1.5 12c0 2.369.796 4.653 2.253 6.5h16.494m.698 1.5H3.055A11.979 11.979 0 0 1 0 12C0 8.795 1.248 5.78 3.515 3.515A11.921 11.921 0 0 1 12 0c3.205 0 6.219 1.248 8.485 3.515A11.92 11.92 0 0 1 24 12a11.98 11.98 0 0 1-3.055 8z" style="fill:#2d3239;stroke:none" transform="translate(7.425 8.184)"/>
        </g>
        <g data-name="그룹 13828">
            <path data-name="합치기 188" d="m7 14.456-6.739-4.4A1 1 0 0 1 .8 8.222h.979V2a2 2 0 0 1 2-2H11.3a2 2 0 0 1 2 2v6.222h.978a1 1 0 0 1 .546 1.837l-6.739 4.4a1 1 0 0 1-1.093 0z" transform="translate(22.981 23.395)" style="fill:#fff"/>
            <path data-name="합치기 186" d="M7.343 15.522.25 10.657a1 1 0 0 1 .565-1.825h1.21V2a2 2 0 0 1 2-2h7.769a2 2 0 0 1 2 2v6.832H15a1 1 0 0 1 .566 1.825l-7.092 4.865a1 1 0 0 1-1.131 0z" transform="translate(24.572 24.118)" style="fill:#7dedf3"/>
            <path data-name="합치기 187" d="m7 14.456-6.739-4.4A1 1 0 0 1 .8 8.222h.979V2a2 2 0 0 1 2-2H11.3a2 2 0 0 1 2 2v6.222h.978a1 1 0 0 1 .546 1.837l-6.739 4.4a1 1 0 0 1-1.093 0z" transform="translate(22.981 23.395)" style="stroke-linejoin:round;fill:none;stroke-linecap:round;stroke:#2d3239;stroke-width:1.5px"/>
            <g data-name="그룹 12813" transform="translate(27.726 26.502)">
                <circle data-name="타원 1796" cx="1.119" cy="1.119" r="1.119" style="fill:#2d3239"/>
                <circle data-name="타원 1797" cx="1.119" cy="1.119" r="1.119" transform="translate(3.357 3.357)" style="fill:#2d3239"/>
                <path data-name="선 313" transform="translate(1.119 1.119)" style="fill:none;stroke-linecap:round;stroke:#2d3239;stroke-width:1.5px" d="M3.357 0 0 3.357"/>
            </g>
        </g>
        <path data-name="선 714" transform="translate(19.425 9.184)" style="fill:none;stroke-linecap:round;stroke:#2d3239;stroke-width:1.5px" d="M0 0v3"/>
        <path data-name="선 712" transform="rotate(135 3.707 10.208)" style="fill:none;stroke-linecap:round;stroke:#2d3239;stroke-width:1.5px" d="M0 3V0"/>
        <path data-name="선 717" transform="rotate(45 -1.538 39.593)" style="fill:none;stroke-linecap:round;stroke:#2d3239;stroke-width:1.5px" d="M0 0v3"/>
        <path data-name="선 716" transform="rotate(90 5.12 25.305)" style="fill:none;stroke-linecap:round;stroke:#2d3239;stroke-width:1.5px" d="M0 0v3"/>
        <path data-name="선 713" transform="rotate(90 -4.38 15.805)" style="fill:none;stroke-linecap:round;stroke:#2d3239;stroke-width:1.5px" d="M0 0v3"/>
        <path data-name="패스 13079" d="M1.715-4.378S3.43-.529 3.43.585A1.885 1.885 0 0 1 1.715 2.6 1.885 1.885 0 0 1 0 .585C0-.529 1.715-4.378 1.715-4.378z" transform="translate(17.71 20.3)" style="stroke-linejoin:round;fill:none;stroke-linecap:round;stroke:#2d3239;stroke-width:1.5px"/>
    </g>
</svg>
