<svg xmlns="http://www.w3.org/2000/svg" width="44" height="44" viewBox="0 0 44 44">
    <g data-name="그룹 13353">
        <path data-name="패스 12086" d="M7.6 10.1c0 2.369 1.313 3.966 2.421 6.85a45.428 45.428 0 0 1 1.622 6.078c.438 1.828 1.365 3.966 3.245 3.966 1.906 0 1.751-5.022 2.189-7.211a4.13 4.13 0 0 1 .85-1.88.756.756 0 0 1 1.159 0 3.653 3.653 0 0 1 .85 1.88c.438 2.189.283 7.211 2.189 7.211s2.833-2.137 3.271-3.966a46.579 46.579 0 0 1 1.622-6.078c1.107-2.884 2.421-4.481 2.421-6.85C29.438 5.773 7.6 5.773 7.6 10.1z" style="fill:#fff" transform="translate(-.719 9.308)"/>
        <path data-name="패스 12147" d="M7.6 10.1c0 2.369 1.313 3.966 2.421 6.85a45.428 45.428 0 0 1 1.622 6.078c.438 1.828 1.365 3.966 3.245 3.966 1.906 0 1.751-5.022 2.189-7.211a4.13 4.13 0 0 1 .85-1.88.756.756 0 0 1 1.159 0 3.653 3.653 0 0 1 .85 1.88c.438 2.189.283 7.211 2.189 7.211s2.833-2.137 3.271-3.966a46.579 46.579 0 0 1 1.622-6.078c1.107-2.884 2.421-4.481 2.421-6.85C29.438 5.773 7.6 5.773 7.6 10.1z" style="fill:#fff" transform="translate(-.719 9.308)"/>
        <g data-name="패스 12586" style="fill:#fff">
            <path d="M22.124 26.243c-.232 0-.489-.426-.687-1.138-.258-.927-.382-2.19-.493-3.306-.079-.805-.154-1.565-.272-2.157-.209-1.156-.609-1.726-1.001-2.21a1.463 1.463 0 0 0-1.155-.55c-.447 0-.869.194-1.159.532l-.016.019-.014.02c-.39.519-.759 1.077-.985 2.178-.12.597-.195 1.36-.274 2.168-.11 1.115-.235 2.38-.493 3.306-.198.712-.455 1.138-.687 1.138-.593 0-1.098-.318-1.544-.97-.395-.578-.73-1.415-.972-2.42-.185-.774-.335-1.415-.467-1.981-.434-1.864-.652-2.8-1.184-4.19-.374-.975-.773-1.812-1.125-2.55-.696-1.458-1.246-2.61-1.246-4.033 0-.461.75-1.153 2.854-1.708 1.892-.5 4.558-.787 7.315-.787 2.757 0 5.423.287 7.315.787 2.104.555 2.854 1.247 2.854 1.708 0 1.423-.55 2.575-1.246 4.033-.352.738-.751 1.575-1.125 2.548-.522 1.365-.748 2.335-1.16 4.094a246.7 246.7 0 0 1-.491 2.076c-.37 1.549-1.112 3.393-2.542 3.393z" style="stroke:none" transform="translate(-.719 9.308)"/>
            <path d="M18.519 8.354c-2.433 0-4.76.221-6.551.623C9.765 9.47 9.2 10.038 9.1 10.163c.017 1.224.503 2.244 1.172 3.646.359.75.765 1.602 1.15 2.605.55 1.438.772 2.39 1.214 4.287.131.565.28 1.206.466 1.976.146.61.664 2.49 1.553 2.778.083-.17.209-.506.331-1.124.156-.786.247-1.71.335-2.605.082-.827.159-1.609.285-2.238l.001-.007c.257-1.253.694-1.912 1.12-2.479l.029-.039.032-.037a2.273 2.273 0 0 1 1.728-.794c.685 0 1.319.303 1.74.832.433.534.913 1.215 1.153 2.538.124.628.2 1.403.282 2.224.088.894.18 1.82.335 2.605.124.627.252.963.335 1.132.18-.054.428-.203.713-.618.344-.5.642-1.25.863-2.171.197-.813.353-1.481.49-2.07.419-1.792.65-2.779 1.19-4.192.384-1.001.79-1.852 1.148-2.603.67-1.402 1.156-2.422 1.172-3.646-.1-.125-.664-.693-2.867-1.186-1.792-.402-4.118-.623-6.551-.623m0-1.5c5.46 0 10.919 1.082 10.919 3.245 0 2.37-1.313 3.966-2.42 6.85-.67 1.751-.825 2.781-1.623 6.078-.438 1.828-1.365 3.966-3.27 3.966-1.906 0-1.752-5.022-2.19-7.211-.18-1.004-.515-1.468-.85-1.88-.283-.36-.85-.36-1.158 0-.31.412-.644.876-.85 1.88-.438 2.189-.283 7.21-2.19 7.21-1.879 0-2.806-2.137-3.244-3.965-.798-3.322-.953-4.327-1.622-6.078C8.913 14.065 7.6 12.47 7.6 10.1c0-2.163 5.46-3.245 10.919-3.245z" style="fill:#2d3239;stroke:none" transform="translate(-.719 9.308)"/>
        </g>
    </g>
    <path data-name="패스 12726" d="M22.951 2.555a7.186 7.186 0 0 0-2.387.6 3.667 3.667 0 0 1-2.929 0 7.354 7.354 0 0 0-2.387-.6C10.909 2.256 7.6 5.945 7.6 10.5c0 1.263 5.832-.971 11.582-.971S30.6 11.734 30.6 10.5c0-4.555-3.309-8.244-7.649-7.945z" transform="translate(-1.32 5.16)" style="fill:#fff"/>
    <path data-name="패스 12727" d="M21.617 2.553a6.561 6.561 0 0 0-2.179.545 3.349 3.349 0 0 1-2.675 0 6.715 6.715 0 0 0-2.179-.545C10.621 2.281 7.6 5.649 7.6 9.809c0 1.153 5.325-.886 10.575-.886S28.6 10.934 28.6 9.809c0-4.16-3.021-7.528-6.983-7.256z" transform="translate(1.68 5.16)" style="fill:#7dedf3"/>
    <g data-name="패스 12728" style="stroke-linecap:round;stroke-linejoin:round;fill:none">
        <path d="M22.951 2.555a7.186 7.186 0 0 0-2.387.6 3.667 3.667 0 0 1-2.929 0 7.354 7.354 0 0 0-2.387-.6C10.909 2.256 7.6 5.945 7.6 10.5c0 1.263 5.832-.971 11.582-.971S30.6 11.734 30.6 10.5c0-4.555-3.309-8.244-7.649-7.945z" style="stroke:none" transform="translate(-1.32 5.16)"/>
        <path d="M14.759 4.038c-1.529 0-2.947.65-3.993 1.832-.83.938-1.372 2.133-1.575 3.445.572-.08 1.303-.214 2.06-.354 2.128-.392 5.044-.93 7.931-.93 2.912 0 5.801.537 7.91.93.7.13 1.375.256 1.914.334-.206-1.304-.746-2.492-1.572-3.425-1.047-1.181-2.465-1.832-3.993-1.832-.127 0-.258.004-.387.013h-.006c-.613.04-1.23.196-1.886.476a5.071 5.071 0 0 1-2.052.43c-.71 0-1.405-.144-2.065-.427a5.898 5.898 0 0 0-1.9-.479 5.662 5.662 0 0 0-.386-.013m0-1.5c.161 0 .325.005.49.017a7.355 7.355 0 0 1 2.386.596c.95.407 2.007.407 2.93 0 .76-.325 1.546-.542 2.386-.596 4.34-.299 7.649 3.39 7.649 7.946 0 1.233-5.668-.97-11.418-.97-5.75 0-11.582 2.233-11.582.97 0-4.383 3.062-7.963 7.159-7.963z" style="fill:#2d3239;stroke:none" transform="translate(-1.32 5.16)"/>
    </g>
    <g data-name="그룹 13605">
        <path data-name="패스 12225" d="M0 2.2C.328 1.264 6.228-1 7.158-1s6.708 2.551 7.154 3.2-.422 5.6-1.683 8S8.258 15 7.158 15s-4.246-2.583-5.471-4.8S-.32 3.136 0 2.2z" transform="translate(23.07 25)" style="fill:#fff"/>
        <path data-name="패스 12149" d="M0 2c.29-.877 5.58-3 6.415-3s6.014 2.392 6.414 3-.379 5.252-1.509 7.5S7.132 14 6.411 14 2.6 11.578 1.506 9.5-.295 2.877 0 2z" transform="translate(26.07 25.5)" style="fill:#7dedf3"/>
        <path data-name="패스 12150" d="m-10170 5361.4 2.063 2.1 3.437-3.5" transform="translate(10197.75 -5330)" style="stroke:#2d3239;stroke-width:1.5px;stroke-linecap:round;stroke-linejoin:round;fill:none"/>
        <g data-name="패스 12151" style="fill:none">
            <path d="M0 2.2C.328 1.264 6.228-1 7.158-1s6.708 2.551 7.154 3.2-.422 5.6-1.683 8S8.258 15 7.158 15s-4.246-2.583-5.471-4.8S-.32 3.136 0 2.2z" style="stroke:none" transform="translate(23.07 25)"/>
            <path d="M7.146.51c-.368.074-1.477.41-2.997 1.033-1.541.633-2.364 1.093-2.72 1.331.001.46.078 1.417.35 2.77C2.1 7.24 2.557 8.671 3 9.474c.44.797 1.284 1.79 2.257 2.655.92.816 1.616 1.225 1.91 1.346.295-.112.983-.497 1.873-1.272.985-.859 1.809-1.843 2.26-2.701.454-.862.923-2.302 1.256-3.852.272-1.268.362-2.158.373-2.621-.467-.278-1.404-.763-2.71-1.34C8.642.99 7.527.598 7.146.51M7.158-1c.93 0 6.709 2.551 7.154 3.2.445.649-.422 5.602-1.683 8-1.261 2.398-4.371 4.8-5.47 4.8-1.1 0-4.247-2.583-5.471-4.8C.463 7.983-.32 3.136.004 2.2.328 1.264 6.228-1 7.158-1z" style="fill:#2d3239;stroke:none" transform="translate(23.07 25)"/>
        </g>
    </g>
</svg>
