<svg xmlns="http://www.w3.org/2000/svg" width="44" height="44" viewBox="0 0 44 44">
    <defs>
        <clipPath id="clip-path">
            <path id="사각형_17012" data-name="사각형 17012" transform="translate(1126 793)" style="fill:#dbdbdb;opacity:.73" d="M0 0h36v36H0z"/>
        </clipPath>
        <style>
            .cls-5{fill:#fff;stroke:#2d3239;stroke-width:1.5px}.cls-12{fill:none}.cls-10,.cls-11{stroke:none}.cls-11{fill:#2d3239}
        </style>
    </defs>
    <g id="ic_insurance_02" transform="translate(-1122 -789)">
        <g id="마스크_그룹_235" data-name="마스크 그룹 235" style="clip-path:url(#clip-path)">
            <g id="그룹_13441" data-name="그룹 13441" transform="rotate(-45 1333.746 -476.87)">
                <g id="합치기_311" data-name="합치기 311" style="fill:#fff">
                    <path class="cls-10" d="M15.5 30.25a2.159 2.159 0 0 1-2.156-2.156V26.177l-.563-.144a10.806 10.806 0 0 1-2.818-1.17l-.45-.267-.405.33a2.159 2.159 0 0 1-3.033-3.033l.33-.407-.267-.45a10.808 10.808 0 0 1-1.17-2.817l-.145-.563H2.906A2.159 2.159 0 0 1 .75 15.5c0-1.19.967-2.156 2.156-2.156h1.917l.145-.563c.254-.989.648-1.937 1.17-2.818l.267-.45-.33-.405a2.159 2.159 0 0 1 3.033-3.033l.406.33.45-.267c.88-.522 1.828-.916 2.817-1.17l.563-.145V2.906c0-1.189.967-2.156 2.156-2.156s2.156.967 2.156 2.156v1.917l.563.145c.989.254 1.937.648 2.818 1.17l.45.267.405-.33a2.159 2.159 0 0 1 3.033 3.033l-.33.406.267.45c.522.88.916 1.828 1.17 2.817l.145.563H28.094c1.189 0 2.157.967 2.157 2.156a2.159 2.159 0 0 1-2.157 2.156h-1.916l-.145.563a10.808 10.808 0 0 1-1.17 2.818l-.267.45.33.405a2.16 2.16 0 0 1-3.033 3.033l-.407-.33-.45.267c-.88.522-1.828.916-2.817 1.17l-.563.146v1.916c0 1.189-.967 2.157-2.156 2.157z" transform="translate(272 282)"/>
                    <path class="cls-11" d="M15.5 29.5c.775 0 1.406-.63 1.406-1.406v-2.498l1.126-.29c.92-.237 1.802-.603 2.622-1.089l.9-.533.81.66a1.409 1.409 0 0 0 1.978-1.978l-.658-.813.533-.899c.486-.82.852-1.702 1.09-2.622l.29-1.126h2.497c.775 0 1.407-.63 1.407-1.406 0-.776-.632-1.406-1.407-1.406h-2.498l-.29-1.126a10.057 10.057 0 0 0-1.089-2.622l-.533-.9.66-.81a1.408 1.408 0 0 0-1.978-1.978l-.813.658-.899-.533a10.059 10.059 0 0 0-2.622-1.089l-1.126-.29V2.906c0-.775-.63-1.406-1.406-1.406-.776 0-1.406.63-1.406 1.406v2.498l-1.126.29c-.92.237-1.802.604-2.622 1.09l-.9.532-.81-.659a1.408 1.408 0 0 0-1.978 1.978l.658.812-.533.899c-.485.82-.852 1.702-1.089 2.622l-.29 1.126H2.906c-.775 0-1.406.63-1.406 1.406 0 .775.63 1.406 1.406 1.406h2.498l.29 1.126c.237.92.604 1.802 1.09 2.622l.532.9-.659.81a1.408 1.408 0 0 0 1.978 1.978l.812-.658.899.533c.82.486 1.702.852 2.622 1.09l1.126.29v2.497c0 .775.63 1.407 1.406 1.407m0 1.5a2.907 2.907 0 0 1-2.906-2.907v-1.335a11.557 11.557 0 0 1-3.013-1.252 2.907 2.907 0 0 1-4.088-4.088 11.56 11.56 0 0 1-1.251-3.013H2.906a2.906 2.906 0 1 1 0-5.812h1.336c.276-1.072.7-2.084 1.251-3.013a2.906 2.906 0 0 1 4.088-4.088c.929-.55 1.94-.975 3.013-1.251V2.906a2.906 2.906 0 0 1 5.812 0v1.336c1.072.275 2.084.7 3.013 1.251a2.907 2.907 0 0 1 4.088 4.088c.55.929.976 1.94 1.252 3.013h1.335a2.907 2.907 0 1 1 0 5.812h-1.335a11.559 11.559 0 0 1-1.252 3.013 2.907 2.907 0 0 1-4.088 4.088c-.929.551-1.941.976-3.013 1.252v1.335c0 1.605-1.3 2.907-2.906 2.907z" transform="translate(272 282)"/>
                </g>
                <g id="타원_2092" data-name="타원 2092" class="cls-5" transform="translate(285.914 289.914)">
                    <circle class="cls-10" cx="3" cy="3" r="3"/>
                    <circle class="cls-12" cx="3" cy="3" r="2.25"/>
                </g>
                <g id="타원_2093" data-name="타원 2093" class="cls-5" transform="translate(289.243 298.586)">
                    <circle class="cls-10" cx="2" cy="2" r="2"/>
                    <circle class="cls-12" cx="2" cy="2" r="1.25"/>
                </g>
                <g id="타원_2094" data-name="타원 2094" class="cls-5" transform="translate(280.914 295.914)">
                    <circle class="cls-10" cx="2.5" cy="2.5" r="2.5"/>
                    <circle class="cls-12" cx="2.5" cy="2.5" r="1.75"/>
                </g>
            </g>
            <g id="그룹_13442" data-name="그룹 13442" transform="translate(1104.17 41.311)">
                <path id="패스_12836" data-name="패스 12836" d="M0 2.2C.328 1.264 6.228-1 7.158-1s6.708 2.551 7.154 3.2-.422 5.6-1.683 8S8.258 15 7.158 15s-4.246-2.583-5.471-4.8S-.32 3.136 0 2.2z" transform="translate(40.4 770.768)" style="fill:#fff"/>
                <path id="패스_12837" data-name="패스 12837" d="M0 2c.29-.877 5.58-3 6.415-3s6.014 2.392 6.414 3-.379 5.252-1.509 7.5S7.132 14 6.411 14 2.6 11.578 1.506 9.5-.295 2.877 0 2z" transform="translate(43.4 771.268)" style="fill:#7dedf3"/>
                <path id="패스_12838" data-name="패스 12838" d="m-10170 5361.4 2.063 2.1 3.437-3.5" transform="translate(10215.08 -4584.232)" style="stroke-linecap:round;stroke-linejoin:round;fill:none;stroke:#2d3239;stroke-width:1.5px"/>
                <g id="패스_12839" data-name="패스 12839" style="fill:none">
                    <path class="cls-10" d="M0 2.2C.328 1.264 6.228-1 7.158-1s6.708 2.551 7.154 3.2-.422 5.6-1.683 8S8.258 15 7.158 15s-4.246-2.583-5.471-4.8S-.32 3.136 0 2.2z" transform="translate(40.4 770.768)"/>
                    <path class="cls-11" d="M7.146.51c-.368.074-1.477.41-2.997 1.033-1.541.633-2.364 1.093-2.72 1.331.001.46.078 1.417.35 2.77C2.1 7.24 2.557 8.671 3 9.474c.44.797 1.284 1.79 2.257 2.655.92.816 1.616 1.225 1.91 1.346.295-.112.983-.497 1.873-1.272.985-.859 1.809-1.843 2.26-2.701.454-.862.923-2.302 1.256-3.852.272-1.268.362-2.158.373-2.621-.467-.278-1.404-.763-2.71-1.34C8.642.99 7.527.598 7.146.51M7.158-1c.93 0 6.709 2.551 7.154 3.2.445.649-.422 5.602-1.683 8-1.261 2.398-4.371 4.8-5.47 4.8-1.1 0-4.247-2.583-5.471-4.8C.463 7.983-.32 3.136.004 2.2.328 1.264 6.228-1 7.158-1z" transform="translate(40.4 770.768)"/>
                </g>
            </g>
        </g>
    </g>
</svg>
