<svg xmlns="http://www.w3.org/2000/svg" width="44" height="44" viewBox="0 0 44 44">
    <g data-name="패스 12963" style="fill:#fff">
        <path d="M12.446 14.495C5.888 14.495.75 12.863.75 10.78.75 5.25 5.997.75 12.446.75c6.45 0 11.696 4.5 11.696 10.03 0 2.083-5.137 3.715-11.696 3.715z" style="stroke:none" transform="translate(6.496 24.595)"/>
        <path d="M12.446 1.5C6.41 1.5 1.5 5.663 1.5 10.78c0 .467.745 1.25 2.845 1.92 2.083.664 5.036 1.045 8.101 1.045 3.065 0 6.018-.381 8.101-1.045 2.1-.67 2.845-1.453 2.845-1.92 0-5.117-4.91-9.28-10.946-9.28m0-1.5c6.874 0 12.446 4.826 12.446 10.78 0 5.953-24.892 5.953-24.892 0C0 4.826 5.572 0 12.446 0z" style="fill:#2d3239;stroke:none" transform="translate(6.496 24.595)"/>
    </g>
    <path data-name="패스 12964" d="M1346.149 292.584a3.536 3.536 0 0 1-7.048 0" transform="translate(-1323.845 -266.368)" style="stroke-width:1.5px;stroke-linecap:round;stroke:#2d3239;fill:none"/>
    <path data-name="패스 12987" d="M10.186 4c5.625 0 9.535.878 9.535 7.392s-3.91 11.35-9.535 11.35S.568 17.9.568 11.39 4.56 4 10.186 4z" transform="translate(8.606 .26)" style="fill:#fff"/>
    <path data-name="패스 13125" d="M8.807 4c4.819 0 8.169.76 8.169 6.4s-3.349 9.822-8.169 9.822S.568 16.033.568 10.4 3.988 4 8.807 4z" transform="translate(11.17 1.26)" style="fill:#7dedf3"/>
    <g data-name="패스 12971" style="fill:none">
        <path d="M10.186 4c5.625 0 9.535.878 9.535 7.392s-3.91 11.35-9.535 11.35S.568 17.9.568 11.39 4.56 4 10.186 4z" style="stroke:none" transform="translate(8.606 .26)"/>
        <path d="M10.186 5.498c-2.194 0-4.639.123-6.14 1.035-.849.516-1.978 1.58-1.978 4.857 0 2.812.834 5.353 2.348 7.153 1.483 1.764 3.479 2.697 5.77 2.697 2.282 0 4.26-.93 5.723-2.69 1.49-1.795 2.312-4.338 2.312-7.16 0-3.286-1.11-4.348-1.944-4.861-1.477-.909-3.908-1.031-6.091-1.031m0-1.5c5.625 0 9.535.878 9.535 7.392 0 6.515-3.91 11.35-9.535 11.35-5.626 0-9.618-4.835-9.618-11.35 0-6.514 3.992-7.392 9.618-7.392z" style="fill:#2d3239;stroke:none" transform="translate(8.606 .26)"/>
    </g>
    <g data-name="빼기 363" style="stroke-linejoin:round;stroke-linecap:round;fill:#fff">
        <path d="M9.407 17.765H5a4.255 4.255 0 0 1-4.25-4.25V5c0-.108.004-.216.012-.323.527-.604 1.071-1.417 1.55-2.319.177-.33.339-.664.484-.993A4.23 4.23 0 0 1 5 .75h4.407c.687 0 1.363.166 1.967.482.16.372.341.75.541 1.126.537 1.01 1.16 1.912 1.74 2.528l.001.114v8.514a4.255 4.255 0 0 1-4.25 4.25z" style="stroke:none" transform="translate(11.53 7.798)"/>
        <path d="M9.407 17.015c1.93 0 3.5-1.57 3.5-3.5V5.176c-.567-.647-1.14-1.501-1.654-2.466a15.971 15.971 0 0 1-.454-.923A3.503 3.503 0 0 0 9.407 1.5H5c-.57 0-1.124.136-1.621.397-.125.27-.26.543-.404.813A13.95 13.95 0 0 1 1.5 4.965v8.549c0 1.93 1.57 3.5 3.5 3.5h4.407m0 1.5H5c-2.757 0-5-2.242-5-5V5c0-.215.014-.431.041-.643.535-.571 1.107-1.406 1.61-2.35.204-.384.388-.77.547-1.148A4.975 4.975 0 0 1 5 0h4.407c.903 0 1.788.243 2.56.704.172.427.378.865.61 1.302.567 1.067 1.227 1.998 1.81 2.553.013.147.02.295.02.44v8.515c0 2.758-2.243 5-5 5z" style="fill:#2d3239;stroke:none" transform="translate(11.53 7.798)"/>
    </g>
    <g data-name="사각형 17276" style="stroke-width:1.5px;stroke:#2d3239;fill:#fff">
        <path d="M1.267 0a3.166 3.166 0 0 1 3.166 3.166v.317a3.166 3.166 0 0 1-3.166 3.166A1.267 1.267 0 0 1 0 5.383V1.267A1.267 1.267 0 0 1 1.267 0z" style="stroke:none" transform="translate(24.477 14.122)"/>
        <path d="M1.417.75a2.266 2.266 0 0 1 2.266 2.266v.617A2.266 2.266 0 0 1 1.417 5.9a.667.667 0 0 1-.667-.667V1.417A.667.667 0 0 1 1.417.75z" style="fill:none" transform="translate(24.477 14.122)"/>
    </g>
    <path data-name="패스 12974" d="M1041.162 802.152h2.8" transform="translate(-1023.826 -788.531)" style="stroke-width:1.5px;stroke-linecap:round;stroke:#2d3239;fill:none"/>
    <path data-name="패스 12975" d="M1041.162 802.152h1.8" transform="translate(-1023.327 -790.922)" style="stroke-width:1.5px;stroke-linecap:round;stroke:#2d3239;fill:none"/>
    <g data-name="사각형 17278" style="stroke-width:1.5px;stroke:#2d3239;fill:#fff">
        <path d="M3.166 0a1.267 1.267 0 0 1 1.267 1.267v4.116a1.267 1.267 0 0 1-1.267 1.266A3.166 3.166 0 0 1 0 3.483v-.317A3.166 3.166 0 0 1 3.166 0z" style="stroke:none" transform="translate(8.606 14.122)"/>
        <path d="M3.016.75a.667.667 0 0 1 .667.667v3.816a.667.667 0 0 1-.667.667A2.266 2.266 0 0 1 .75 3.633v-.617A2.266 2.266 0 0 1 3.016.75z" style="fill:none" transform="translate(8.606 14.122)"/>
    </g>
    <g data-name="그룹 13822" transform="translate(-270 -300)">
        <rect data-name="사각형 17573" width="15" height="15" rx="7.5" transform="translate(294 325)" style="fill:#fff"/>
        <rect data-name="사각형 17436" width="13" height="13" rx="6.5" transform="translate(297 326)" style="fill:#7dedf3"/>
        <g data-name="사각형 17437" transform="translate(294 325)" style="stroke-width:1.5px;stroke:#2d3239;fill:none">
            <rect width="15" height="15" rx="7.5" style="stroke:none"/>
            <rect x=".75" y=".75" width="13.5" height="13.5" rx="6.75" style="fill:none"/>
        </g>
        <path data-name="패스 13809" d="M2.87 1.74a3.234 3.234 0 0 1 1 .14 2.015 2.015 0 0 1 .715.39 1.648 1.648 0 0 1 .43.58 1.721 1.721 0 0 1 .145.7v.05a1.763 1.763 0 0 1-.3.985 1.618 1.618 0 0 1-.385.4 1.839 1.839 0 0 1-.555.275 2.357 2.357 0 0 1 .6.175 1.65 1.65 0 0 1 .485.325 1.459 1.459 0 0 1 .325.485 1.648 1.648 0 0 1 .12.645v.1a2.072 2.072 0 0 1-.155.79 1.811 1.811 0 0 1-.47.665 2.333 2.333 0 0 1-.79.455 3.275 3.275 0 0 1-1.105.17 3.549 3.549 0 0 1-2.05-.58.441.441 0 0 1-.22-.3.491.491 0 0 1 .08-.36.448.448 0 0 1 .275-.22.447.447 0 0 1 .345.07 3.014 3.014 0 0 0 .73.37 2.486 2.486 0 0 0 .79.12 2.289 2.289 0 0 0 .72-.1 1.37 1.37 0 0 0 .485-.27.989.989 0 0 0 .27-.385 1.265 1.265 0 0 0 .085-.46V6.88a1.138 1.138 0 0 0-.12-.55.964.964 0 0 0-.33-.355 1.465 1.465 0 0 0-.5-.2 3.11 3.11 0 0 0-.63-.06h-.57a.3.3 0 0 1-.275-.13.554.554 0 0 1-.085-.31.53.53 0 0 1 .085-.305.308.308 0 0 1 .275-.12h.49a1.7 1.7 0 0 0 1-.28 1.026 1.026 0 0 0 .4-.9v-.03a.929.929 0 0 0-.325-.74 1.478 1.478 0 0 0-.985-.28 1.627 1.627 0 0 0-.725.15 1.872 1.872 0 0 0-.565.44.385.385 0 0 1-.315.125.425.425 0 0 1-.3-.155.4.4 0 0 1-.12-.3.538.538 0 0 1 .125-.31 2.214 2.214 0 0 1 .775-.6 2.551 2.551 0 0 1 1.125-.23z" transform="translate(298.5 327)" style="fill:#2d3239;stroke-width:.5px;stroke:#2d3239"/>
    </g>
    <path data-name="패스 13144" d="M1041.162 802.152v.356" transform="translate(-1025.706 -786.152)" style="stroke-width:1.5px;stroke-linecap:round;stroke:#2d3239;fill:none"/>
    <path data-name="패스 13143" d="M1041.162 802.152v.356" transform="translate(-1019.162 -786.152)" style="stroke-width:1.5px;stroke-linecap:round;stroke:#2d3239;fill:none"/>
    <path data-name="패스 13177" d="M-.056.088a2.364 2.364 0 0 1 1.214-.219" transform="rotate(69 -3.907 26.645)" style="stroke-width:1.5px;stroke-linecap:round;stroke:#2d3239;fill:none"/>
    <path data-name="패스 13178" d="M0 0a2.364 2.364 0 0 0 1.215.219" transform="rotate(111 .547 15.632)" style="stroke-width:1.5px;stroke-linecap:round;stroke:#2d3239;fill:none"/>
    <path data-name="패스 13064" d="M1041.995 808.888a2.213 2.213 0 0 0 3.563 0" transform="translate(-1024.996 -787.215)" style="stroke-width:1.5px;stroke-linecap:round;stroke:#2d3239;fill:none"/>
    <path data-name="패스 13145" d="M1043.586 804.477v2.582h1.6" transform="translate(-1025.244 -788.122)" style="stroke-linejoin:round;stroke-width:1.5px;stroke-linecap:round;stroke:#2d3239;fill:none"/>
</svg>
