<svg xmlns="http://www.w3.org/2000/svg" width="44" height="44" viewBox="0 0 44 44">
    <path data-name="사각형 17216" style="fill:transparent" d="M0 0h44v44H0z"/>
    <path data-name="사각형 17217" transform="translate(4 4)" style="fill:transparent" d="M0 0h36v36H0z"/>
    <g data-name="그룹 13658">
        <g data-name="그룹 13506">
            <g data-name="그룹 13505">
                <path data-name="패스 13108" d="M5 0h18a5 5 0 0 1 5 5v11a5 5 0 0 1-5 5H5a5 5 0 0 1-5-5V5a5 5 0 0 1 5-5z" transform="translate(6 5.911)" style="fill:#7dedf3"/>
                <path data-name="패스 13107" d="M3 0h20a3 3 0 0 1 3 3v13a3 3 0 0 1-3 3H3a3 3 0 0 1-3-3V3a3 3 0 0 1 3-3z" transform="translate(4 3.911)" style="fill:#fff"/>
                <g data-name="그룹 11779">
                    <path data-name="패스 2252" d="m3649.636 5413.028 1.75 5 1.75-5 1.75 5 1.75-5" transform="translate(-3634.286 -5398.616)" style="stroke-linejoin:round;stroke-linecap:round;stroke:#2d3239;stroke-width:1.5px;fill:none"/>
                    <path data-name="패스 13113" d="M0 0h1.5" transform="translate(14.35 16.411)" style="stroke-linecap:round;stroke:#2d3239;stroke-width:1.5px;fill:none"/>
                    <path data-name="패스 13112" d="M0 0h1.5" transform="translate(21.85 16.411)" style="stroke-linecap:round;stroke:#2d3239;stroke-width:1.5px;fill:none"/>
                </g>
                <g data-name="패스 13106" style="fill:#fff">
                    <path d="M.75 0h18.5a.75.75 0 0 1 0 1.5H.75a.75.75 0 0 1 0-1.5z" style="stroke:none" transform="translate(9 9.661)"/>
                    <path d="M.75 0h18.5a.75.75 0 0 1 0 1.5H.75a.75.75 0 0 1 0-1.5z" style="fill:#2d3239;stroke:none" transform="translate(9 9.661)"/>
                </g>
                <g data-name="패스 13105" style="fill:none">
                    <path d="M5 0h18a5 5 0 0 1 5 5v11a5 5 0 0 1-5 5H5a5 5 0 0 1-5-5V5a5 5 0 0 1 5-5z" style="stroke:none" transform="translate(5 4.911)"/>
                    <path d="M5 1.5C3.07 1.5 1.5 3.07 1.5 5v11c0 1.93 1.57 3.5 3.5 3.5h18c1.93 0 3.5-1.57 3.5-3.5V5c0-1.93-1.57-3.5-3.5-3.5H5M5 0h18a5 5 0 0 1 5 5v11a5 5 0 0 1-5 5H5a5 5 0 0 1-5-5V5a5 5 0 0 1 5-5z" style="fill:#2d3239;stroke:none" transform="translate(5 4.911)"/>
                </g>
            </g>
        </g>
        <g data-name="그룹 13507">
            <path data-name="패스 13111" d="M1.485 0a1.485 1.485 0 0 1 1.486 1.485v5.372a1.485 1.485 0 0 1-2.971 0V1.485A1.485 1.485 0 0 1 1.485 0z" transform="rotate(-90 20.028 8.235)" style="stroke:#2d3239;stroke-width:1.5px;fill:#fff"/>
            <path data-name="패스 13110" d="M1.078 14.58C-.76 11.98.142 8.661.928 6.767V2.92a1.919 1.919 0 1 1 3.839 0v2.344h6.148a13.806 13.806 0 0 1-.283 4.943 13.844 13.844 0 0 1-2.339 4.373 7.436 7.436 0 0 1-4.131 1.714 3.648 3.648 0 0 1-3.084-1.714z" transform="translate(15.188 19.961)" style="stroke:#2d3239;stroke-width:1.5px;fill:#fff"/>
            <g data-name="패스 13109" style="fill:#fff">
                <path d="M8.383 3.515H1a.25.25 0 0 1-.25-.25V1A.25.25 0 0 1 1 .75h7.383a.25.25 0 0 1 .25.25v2.265a.25.25 0 0 1-.25.25z" style="stroke:none" transform="translate(15.476 34.123)"/>
                <path d="M1.5 1.5v1.265h6.383V1.5H1.5M1 0h7.383a1 1 0 0 1 1 1v2.265a1 1 0 0 1-1 1H1a1 1 0 0 1-1-1V1a1 1 0 0 1 1-1z" style="fill:#2d3239;stroke:none" transform="translate(15.476 34.123)"/>
            </g>
        </g>
        <path data-name="패스 13104" d="M0 3.412V0" transform="translate(19.938 23.833)" style="stroke-linecap:round;stroke:#2d3239;stroke-width:1.5px;fill:none"/>
    </g>
    <g data-name="그룹 13659">
        <path data-name="패스 13103" d="M8 0a8 8 0 1 1-8 8 8 8 0 0 1 8-8z" transform="translate(23 26)" style="fill:#fff"/>
        <path data-name="패스 12624" d="M7 0a7 7 0 1 1-7 7 7 7 0 0 1 7-7z" transform="translate(26 27.5)" style="fill:#7dedf3"/>
        <g data-name="패스 13102" style="fill:none">
            <path d="M8 0a8 8 0 1 1-8 8 8 8 0 0 1 8-8z" style="stroke:none" transform="translate(23 26)"/>
            <path d="M8 1.5A6.507 6.507 0 0 0 1.5 8c0 3.584 2.916 6.5 6.5 6.5s6.5-2.916 6.5-6.5S11.584 1.5 8 1.5M8 0a8 8 0 1 1 0 16A8 8 0 0 1 8 0z" style="fill:#2d3239;stroke:none" transform="translate(23 26)"/>
        </g>
        <path data-name="패스 13101" d="M0 0v6.146" transform="rotate(-45 52.833 -18.883)" style="stroke-linecap:round;stroke:#2d3239;stroke-width:1.5px;fill:none"/>
        <path data-name="패스 13100" d="M0 0v6.146" transform="rotate(45 -21.832 55.958)" style="stroke-linecap:round;stroke:#2d3239;stroke-width:1.5px;fill:none"/>
    </g>
</svg>
