<svg xmlns="http://www.w3.org/2000/svg" xmlns:xlink="http://www.w3.org/1999/xlink" width="44" height="44" viewBox="0 0 44 44">
    <defs>
        <clipPath id="dhigrbwybb">
            <use xlink:href="#zpnc80qfta"/>
        </clipPath>
    </defs>
    <g data-name="그룹 13222">
        <path data-name="빼기 328" d="M28 23H4a3 3 0 0 1-3-3v-4.536a3.5 3.5 0 0 0 0-6.929V4a3 3 0 0 1 3-3h24a3 3 0 0 1 3 3v16a3 3 0 0 1-3 3z" transform="translate(6 9)" style="fill:#fff"/>
        <path data-name="빼기 83" d="M15830.33-7268.231h-7a3 3 0 0 1-3-3v-3.5a4.748 4.748 0 0 0 4.95-4.5 4.747 4.747 0 0 0-4.95-4.5v-3.5a3 3 0 0 1 3-3h7v22z" transform="translate(-15814.33 7301.232)" style="fill:#7dedf3"/>
        <g data-name="빼기 48" style="fill:none">
            <path d="M28 23H4a3 3 0 0 1-3-3v-4.536a3.5 3.5 0 0 0 0-6.929V4a3 3 0 0 1 3-3h24a3 3 0 0 1 3 3v16a3 3 0 0 1-3 3z" style="stroke:none" transform="translate(6 9)"/>
            <path d="M28 21.5c.827 0 1.5-.673 1.5-1.5V4c0-.827-.673-1.5-1.5-1.5H4c-.827 0-1.5.673-1.5 1.5v3.418A5.03 5.03 0 0 1 5.5 12a5.03 5.03 0 0 1-3 4.581V20c0 .827.673 1.5 1.5 1.5h24m0 1.5H4c-1.654 0-3-1.346-3-3v-4.536C2.71 15.22 4 13.731 4 12c0-1.73-1.29-3.22-3-3.465V4c0-1.654 1.346-3 3-3h24c1.654 0 3 1.346 3 3v16c0 1.654-1.346 3-3 3z" style="fill:#2d3239;stroke:none" transform="translate(6 9)"/>
        </g>
        <path data-name="패스 2245" d="M4714.756 4512.812v15.466" transform="translate(-4698.756 -4499.812)" style="stroke-dasharray:2.5 4;stroke-linecap:round;stroke:#2d3239;stroke-width:1.5px;fill:none"/>
        <g data-name="그룹 5874">
            <g data-name="사각형 5603" transform="rotate(45 -4.712 44.873)" style="stroke-linecap:round;stroke:#2d3239;stroke-width:1.5px;fill:#fff">
                <rect id="zpnc80qfta" width="1.358" height="11.765" rx=".679" style="stroke:none"/>
                <path d="M0 .75h1.358M.75 0v11.765m.608-.75H0m.608.75V0" style="clip-path:url(#dhigrbwybb);fill:none"/>
            </g>
            <g data-name="타원 115" transform="translate(21.5 16.023)" style="stroke:#2d3239;stroke-width:1.5px;fill:none">
                <circle cx="2.25" cy="2.25" r="2.25" style="stroke:none"/>
                <circle cx="2.25" cy="2.25" r="1.5" style="fill:none"/>
            </g>
            <g data-name="타원 116" transform="translate(27.835 21.453)" style="stroke:#2d3239;stroke-width:1.5px;fill:none">
                <circle cx="2.25" cy="2.25" r="2.25" style="stroke:none"/>
                <circle cx="2.25" cy="2.25" r="1.5" style="fill:none"/>
            </g>
        </g>
    </g>
</svg>
