<svg xmlns="http://www.w3.org/2000/svg" width="44" height="44" viewBox="0 0 44 44">
  <g id="ic_insurance_03" transform="translate(-8429.686 -3366)">
    <rect id="사각형_17362" data-name="사각형 17362" width="44" height="44" transform="translate(8429.686 3366)" fill="rgba(255,255,255,0)"/>
    <g id="그룹_13801" data-name="그룹 13801">
      <rect id="사각형_17365" data-name="사각형 17365" width="36" height="36" transform="translate(8433.686 3370)" fill="rgba(243,243,243,0)"/>
      <g id="그룹_13969" data-name="그룹 13969">
        <path id="패스_13629" data-name="패스 13629" d="M13.069,0A13.069,13.069,0,1,1,0,13.069,13.069,13.069,0,0,1,13.069,0Z" transform="translate(8439.617 3374)" fill="#fff"/>
        <path id="패스_13027" data-name="패스 13027" d="M26.891,13.82A13.064,13.064,0,1,1,20.663,2.681" transform="translate(8438.885 3373.691)" fill="none" stroke="#2d3239" stroke-linecap="round" stroke-miterlimit="10.001" stroke-width="1.5"/>
        <g id="패스_13031" data-name="패스 13031" transform="matrix(0.899, -0.438, 0.438, 0.899, 8464.031, 3383.65)" fill="none">
          <path d="M1,0A1,1,0,1,1,0,1,1,1,0,0,1,1,0Z" stroke="none"/>
          <path d="M 1 0 C 1.552279949188232 0 2 0.4477200508117676 2 1 C 2 1.552279949188232 1.552279949188232 2 1 2 C 0.4477200508117676 2 0 1.552279949188232 0 1 C 0 0.4477200508117676 0.4477200508117676 0 1 0 Z" stroke="none" fill="#2d3239"/>
        </g>
        <g id="패스_13628" data-name="패스 13628" transform="matrix(0.899, -0.438, 0.438, 0.899, 8462.693, 3380.37)" fill="none">
          <path d="M1,0A1,1,0,1,1,0,1,1,1,0,0,1,1,0Z" stroke="none"/>
          <path d="M 1 0 C 1.552279949188232 0 2 0.4477200508117676 2 1 C 2 1.552279949188232 1.552279949188232 2 1 2 C 0.4477200508117676 2 0 1.552279949188232 0 1 C 0 0.4477200508117676 0.4477200508117676 0 1 0 Z" stroke="none" fill="#2d3239"/>
        </g>
        <g id="패스_13627" data-name="패스 13627" transform="matrix(0.899, -0.438, 0.438, 0.899, 8460.502, 3377.695)" fill="none">
          <path d="M1,0A1,1,0,1,1,0,1,1,1,0,0,1,1,0Z" stroke="none"/>
          <path d="M 1 0 C 1.552279949188232 0 2 0.4477200508117676 2 1 C 2 1.552279949188232 1.552279949188232 2 1 2 C 0.4477200508117676 2 0 1.552279949188232 0 1 C 0 0.4477200508117676 0.4477200508117676 0 1 0 Z" stroke="none" fill="#2d3239"/>
        </g>
        <path id="패스_13029" data-name="패스 13029" d="M19.733,18.185c-.055,0-.11,0-.165-.006C9.165,17.509.757,10.5.006,1.888A1.586,1.586,0,0,1,.552.574,2.227,2.227,0,0,1,2.04.026L6.316,0a2.022,2.022,0,0,1,2,1.291l.893,2.956a1.558,1.558,0,0,1-.764,1.78L6.728,7.093a15.518,15.518,0,0,0,6.493,5.44l1.328-1.465a2.29,2.29,0,0,1,2.141-.63l3.572.739a1.8,1.8,0,0,1,1.559,1.655v3.647a1.559,1.559,0,0,1-.652,1.24,2.367,2.367,0,0,1-1.438.466Z" transform="translate(8436.835 3380.367) rotate(18)" fill="#fff"/>
        <path id="패스_13028" data-name="패스 13028" d="M17.919,17.431c-.05,0-.1,0-.15-.005C8.323,16.782.687,10.068.005,1.81A1.562,1.562,0,0,1,.5.55,1.961,1.961,0,0,1,1.853.025L5.736,0A1.838,1.838,0,0,1,7.551,1.238l.811,2.834a1.528,1.528,0,0,1-.694,1.706L6.11,6.8a14.314,14.314,0,0,0,5.9,5.214l1.206-1.4a2.01,2.01,0,0,1,1.944-.6l3.244.708A1.688,1.688,0,0,1,19.816,12.3v3.5a1.521,1.521,0,0,1-.592,1.189,2.075,2.075,0,0,1-1.305.447Z" transform="translate(8438.366 3381.84) rotate(13)" fill="#7dedf3"/>
        <path id="패스_10930" data-name="패스 10930" d="M19.733,18.185c-.055,0-.11,0-.165-.006C9.165,17.509.757,10.5.006,1.888A1.586,1.586,0,0,1,.552.574,2.227,2.227,0,0,1,2.04.026L6.316,0a2.022,2.022,0,0,1,2,1.291l.893,2.956a1.558,1.558,0,0,1-.764,1.78L6.728,7.093a15.518,15.518,0,0,0,6.493,5.44l1.328-1.465a2.29,2.29,0,0,1,2.141-.63l3.572.739a1.8,1.8,0,0,1,1.559,1.655v3.647a1.559,1.559,0,0,1-.652,1.24,2.367,2.367,0,0,1-1.438.466Z" transform="translate(8436.835 3380.367) rotate(18)" fill="none" stroke="#2c3138" stroke-width="1.5"/>
        <path id="패스_13626" data-name="패스 13626" d="M3.3-7.986a3.644,3.644,0,0,1,1.161.165,2.331,2.331,0,0,1,.8.44,1.687,1.687,0,0,1,.462.643,2.027,2.027,0,0,1,.149.764v.121a2.64,2.64,0,0,1-.292,1.2A4.5,4.5,0,0,1,4.73-3.509L2.409-1.21H5.742a.427.427,0,0,1,.374.171.694.694,0,0,1,.121.412.694.694,0,0,1-.121.413.427.427,0,0,1-.374.171H1.551A1.213,1.213,0,0,1,.792-.231.692.692,0,0,1,.561-.8a.625.625,0,0,1,.093-.33,2.123,2.123,0,0,1,.27-.341L3.476-4.048a6.485,6.485,0,0,0,.5-.544,2.932,2.932,0,0,0,.3-.446,1.5,1.5,0,0,0,.148-.4,2.043,2.043,0,0,0,.039-.4V-5.9a.75.75,0,0,0-.28-.6,1.3,1.3,0,0,0-.853-.236,1.654,1.654,0,0,0-.825.187,2.082,2.082,0,0,0-.616.561.567.567,0,0,1-.385.242.616.616,0,0,1-.451-.121.7.7,0,0,1-.286-.385.575.575,0,0,1,.1-.484,2.961,2.961,0,0,1,.968-.9A2.85,2.85,0,0,1,3.3-7.986Zm8.129.165a.678.678,0,0,1,.292.374.582.582,0,0,1-.116.506L8.734-2.794h2.277V-4.6a.508.508,0,0,1,.209-.451.836.836,0,0,1,.484-.143.836.836,0,0,1,.484.143A.508.508,0,0,1,12.4-4.6v1.8h.671a.4.4,0,0,1,.363.171.724.724,0,0,1,.11.4.7.7,0,0,1-.11.391.4.4,0,0,1-.363.17H12.4V-.572a.508.508,0,0,1-.209.451A.836.836,0,0,1,11.7.022a.836.836,0,0,1-.484-.143.508.508,0,0,1-.209-.451V-1.661H7.931a1.061,1.061,0,0,1-.666-.165.627.627,0,0,1-.2-.517.646.646,0,0,1,.011-.115A.764.764,0,0,1,7.117-2.6a1.645,1.645,0,0,1,.1-.2q.066-.115.187-.292L10.56-7.656a.564.564,0,0,1,.407-.269A.719.719,0,0,1,11.429-7.821Z" transform="translate(8446.617 3391)" fill="#2d3239" stroke="#2d3239" stroke-width="0.5"/>
      </g>
    </g>
  </g>
</svg>
