<svg xmlns="http://www.w3.org/2000/svg" width="44" height="44" viewBox="0 0 44 44">
    <defs>
        <style>
            .cls-1{fill:#e2e2e2;opacity:0}.cls-3{fill:#7dedf3}.cls-4,.cls-7{fill:none}.cls-7{stroke:#2d3239;stroke-linecap:round;stroke-width:1.5px}.cls-8,.cls-9{stroke:none}.cls-9{fill:#2d3239}
        </style>
    </defs>
    <g id="ic_insurance_01" transform="translate(-1026 -218)">
        <g id="패스_13615" data-name="패스 13615" style="fill:#fff">
            <path class="cls-8" d="M21 22.25H5A4.255 4.255 0 0 1 .75 18V5A4.255 4.255 0 0 1 5 .75h16A4.255 4.255 0 0 1 25.25 5v13A4.255 4.255 0 0 1 21 22.25z" transform="translate(1031.25 228.175)"/>
            <path class="cls-9" d="M5 1.5C3.07 1.5 1.5 3.07 1.5 5v13c0 1.93 1.57 3.5 3.5 3.5h16c1.93 0 3.5-1.57 3.5-3.5V5c0-1.93-1.57-3.5-3.5-3.5H5M5 0h16a5 5 0 0 1 5 5v13a5 5 0 0 1-5 5H5a5 5 0 0 1-5-5V5a5 5 0 0 1 5-5z" transform="translate(1031.25 228.175)"/>
        </g>
        <path id="패스_13614" data-name="패스 13614" class="cls-3" d="M6815.972-15396.234a2 2 0 0 1-2-2v-1.644h-1.644a2 2 0 0 1-2-2v-.716a2 2 0 0 1 2-2h1.644v-1.644a2 2 0 0 1 2-2h.715a2 2 0 0 1 2 2v1.644h1.644a2 2 0 0 1 2 2v.716a2 2 0 0 1-2 2h-1.644v1.644a2 2 0 0 1-2 2z" transform="translate(-5770.08 15641.233)"/>
        <g id="패스_13613" data-name="패스 13613" class="cls-4">
            <path class="cls-8" d="M6816.579-15394.231a2 2 0 0 1-2-2v-2.246h-2.251a2 2 0 0 1-2-2v-1.5a2 2 0 0 1 2-2h2.251v-2.251a2 2 0 0 1 2-2h1.5a2 2 0 0 1 2 2v2.251h2.25a2 2 0 0 1 2 2v1.5a2 2 0 0 1-2 2h-2.25v2.246a2 2 0 0 1-2 2z" transform="translate(-5773.08 15640.233)"/>
            <path class="cls-9" d="M6818.08-15395.731a.501.501 0 0 0 .498-.503v-3.746h3.75a.504.504 0 0 0 .504-.504v-1.496a.504.504 0 0 0-.503-.503h-3.75v-3.751a.5.5 0 0 0-.5-.5h-1.5a.5.5 0 0 0-.5.5v3.75h-3.75a.501.501 0 0 0-.5.504v1.496c0 .278.224.504.5.504h3.75v3.746c0 .277.224.503.5.503h1.5m0 1.5h-1.5a2.002 2.002 0 0 1-2-2.003v-2.246h-2.25a2.003 2.003 0 0 1-2-2.004v-1.496c0-1.107.898-2.003 2-2.003h2.25v-2.251c0-1.102.898-2 2-2h1.5a2 2 0 0 1 2 2v2.25h2.25c1.106 0 2.003.897 2.003 2.004v1.496a2.004 2.004 0 0 1-2.003 2.004h-2.25v2.246a2 2 0 0 1-2 2.003z" transform="translate(-5773.08 15640.233)"/>
        </g>
        <g id="패스_13612" data-name="패스 13612" class="cls-4">
            <path class="cls-8" d="M5.893 0a5.893 5.893 0 0 1 5.893 5.893v.8H0v-.8A5.893 5.893 0 0 1 5.893 0z" transform="translate(1038.355 222.875)"/>
            <path class="cls-9" d="M5.893 1.5a4.4 4.4 0 0 0-4.338 3.695h8.676A4.4 4.4 0 0 0 5.893 1.5m0-1.5a5.893 5.893 0 0 1 5.893 5.893v.802H0v-.802A5.893 5.893 0 0 1 5.893 0z" transform="translate(1038.355 222.875)"/>
        </g>
        <g id="그룹_13261" data-name="그룹 13261" transform="translate(1000.42 -545.768)">
            <path id="패스_13611" data-name="패스 13611" d="M8 0a8 8 0 1 1-8 8 8 8 0 0 1 8-8z" transform="translate(48.33 786.768)" style="fill:#fff"/>
            <path id="패스_10995" data-name="패스 10995" class="cls-3" d="M7 0a7 7 0 1 1-7 7 7 7 0 0 1 7-7z" transform="translate(51.33 788.268)"/>
            <g id="패스_13610" data-name="패스 13610" class="cls-4">
                <path class="cls-8" d="M8 0a8 8 0 1 1-8 8 8 8 0 0 1 8-8z" transform="translate(48.33 786.768)"/>
                <path class="cls-9" d="M8 1.5A6.507 6.507 0 0 0 1.5 8c0 3.584 2.916 6.5 6.5 6.5s6.5-2.916 6.5-6.5S11.584 1.5 8 1.5M8 0a8 8 0 1 1 0 16A8 8 0 0 1 8 0z" transform="translate(48.33 786.768)"/>
            </g>
            <g id="그룹_10611" data-name="그룹 10611" transform="translate(52.158 792.632)">
                <path id="패스_2252" data-name="패스 2252" d="m3649.637 5413.028 1.622 4.635 1.623-4.635 1.622 4.635 1.623-4.635" transform="translate(-3648.709 -5413.028)" style="stroke-linejoin:round;stroke:#2d3239;stroke-linecap:round;stroke-width:1.5px;fill:none"/>
                <path id="패스_13609" data-name="패스 13609" class="cls-7" d="M0 0h1.391" transform="translate(0 1.854)"/>
                <path id="패스_13608" data-name="패스 13608" class="cls-7" d="M0 0h1.391" transform="translate(6.953 1.854)"/>
            </g>
        </g>
    </g>
</svg>
