<svg xmlns="http://www.w3.org/2000/svg" width="44" height="44" viewBox="0 0 44 44">
    <path data-name="사각형 17171" style="fill:transparent" d="M0 0h44v44H0z"/>
    <path data-name="사각형 17172" transform="translate(4 4)" style="fill:transparent" d="M0 0h36v36H0z"/>
    <g data-name="그룹 13538">
        <g data-name="그룹 13506">
            <g data-name="그룹 13505" transform="translate(-256 -1405.589)">
                <rect data-name="사각형 14078" width="28" height="21" rx="5" transform="translate(262 1411.5)" style="fill:#7dedf3"/>
                <rect data-name="사각형 14079" width="24.511" height="17" rx="3" transform="translate(261.489 1411.5)" style="fill:#fff"/>
                <g data-name="그룹 11779">
                    <path data-name="패스 2252" d="m3649.636 5413.028 1.75 5 1.75-5 1.75 5 1.75-5" transform="translate(-3378.286 -3993.027)" style="stroke-width:1.5px;stroke-linejoin:round;stroke-linecap:round;stroke:#2d3239;fill:none"/>
                    <path data-name="선 11" transform="translate(270.35 1422)" style="stroke-width:1.5px;stroke-linecap:round;stroke:#2d3239;fill:none" d="M0 0h1.5"/>
                    <path data-name="선 166" transform="translate(277.85 1422)" style="stroke-width:1.5px;stroke-linecap:round;stroke:#2d3239;fill:none" d="M0 0h1.5"/>
                </g>
                <rect data-name="사각형 14077" width="20" height="1.5" rx=".75" transform="translate(265 1415.25)" style="fill:#2d3239"/>
                <g data-name="사각형 14074" transform="translate(261 1410.5)" style="stroke-width:1.5px;stroke:#2d3239;fill:none">
                    <rect width="28" height="21" rx="5" style="stroke:none"/>
                    <rect x=".75" y=".75" width="26.5" height="19.5" rx="4.25" style="fill:none"/>
                </g>
            </g>
        </g>
        <g data-name="그룹 13507" transform="translate(11.793 19.961)">
            <rect data-name="사각형 17140" width="2.971" height="8.342" rx="1.485" transform="rotate(-90 4.151 4.151)" style="stroke-width:1.5px;stroke:#2d3239;fill:#fff"/>
            <path data-name="합치기 322" d="M1.078 14.58C-.76 11.98.142 8.661.928 6.767V2.92a1.919 1.919 0 1 1 3.839 0v2.344h6.148a13.806 13.806 0 0 1-.283 4.943 13.844 13.844 0 0 1-2.339 4.373 7.436 7.436 0 0 1-4.131 1.714 3.648 3.648 0 0 1-3.084-1.714z" transform="translate(3.395)" style="stroke-width:1.5px;stroke:#2d3239;fill:#fff"/>
            <g data-name="사각형 17139" transform="translate(3.683 14.162)" style="stroke-width:1.5px;stroke:#2d3239;fill:#fff">
                <rect width="9.383" height="4.265" rx="1" style="stroke:none"/>
                <rect x=".75" y=".75" width="7.883" height="2.765" rx=".25" style="fill:none"/>
            </g>
        </g>
        <path data-name="선 597" transform="translate(19.938 23.833)" style="stroke-width:1.5px;stroke-linecap:round;stroke:#2d3239;fill:none" d="M0 3.412V0"/>
    </g>
    <g data-name="그룹 13539" transform="translate(-270 -1723)">
        <circle data-name="타원 2038" cx="8" cy="8" r="8" transform="translate(293 1749)" style="fill:#fff"/>
        <path data-name="패스 12624" d="M7 0a7 7 0 1 1-7 7 7 7 0 0 1 7-7z" transform="translate(296 1750.5)" style="fill:#7dedf3"/>
        <g data-name="타원 2037" transform="translate(293 1749)" style="stroke-width:1.5px;stroke:#2d3239;fill:none">
            <circle cx="8" cy="8" r="8" style="stroke:none"/>
            <circle cx="8" cy="8" r="7.25" style="fill:none"/>
        </g>
        <path data-name="패스 13805" d="M3.4-6.489a.748.748 0 0 1 .432.117.425.425 0 0 1 .171.378v5.517a.425.425 0 0 1-.169.377.7.7 0 0 1-.405.117.7.7 0 0 1-.4-.117.425.425 0 0 1-.171-.378v-4.661l-1.161.666a.481.481 0 0 1-.423.049.58.58 0 0 1-.311-.276.576.576 0 0 1-.063-.385.453.453 0 0 1 .243-.324l1.521-.846a2.424 2.424 0 0 1 .405-.18 1.1 1.1 0 0 1 .331-.054z" transform="translate(297.75 1760.5)" style="stroke-width:.5px;fill:#2d3239;stroke:#2d3239"/>
    </g>
</svg>
