<svg xmlns="http://www.w3.org/2000/svg" width="44" height="44" viewBox="0 0 44 44">
    <g data-name="그룹 14072">
        <g data-name="사각형 12097" transform="translate(9.001 5)" style="stroke-width:1.5px;stroke:#2d3239;fill:#fff">
            <rect width="21" height="34" rx="5.5" style="stroke:none"/>
            <rect x=".75" y=".75" width="19.5" height="32.5" rx="4.75" style="fill:none"/>
        </g>
        <path data-name="사각형 12101" transform="translate(9.812 32.353)" style="fill:#2d3239" d="M0 0h19.557v1.461H0z"/>
        <path data-name="사각형 12139" transform="translate(9.812 10.185)" style="fill:#2d3239" d="M0 0h19.557v1.461H0z"/>
    </g>
    <g data-name="사각형 17637" transform="rotate(90 .625 23.125)" style="fill:none;stroke:#2d3239">
        <rect width="1.5" height="8.5" rx=".75" style="stroke:none"/>
        <rect x=".5" y=".5" width=".5" height="7.5" rx=".25" style="fill:none"/>
    </g>
    <g data-name="사각형 17638" transform="translate(16 14.5)" style="fill:none;stroke-width:1.5px;stroke:#2d3239">
        <rect width="7" height="7" rx="3.5" style="stroke:none"/>
        <rect x=".75" y=".75" width="5.5" height="5.5" rx="2.75" style="fill:none"/>
    </g>
    <path data-name="사각형 12182" style="fill:none" d="M0 0h44v44H0z"/>
    <g data-name="그룹 13089" transform="translate(99.003 -622.767)">
        <path data-name="합치기 157" d="M3.962 13.534H.266a.5.5 0 0 1-.407-.79l1.691-2.368V6.767a6.767 6.767 0 1 1 6.767 6.767z" transform="translate(-75.268 638)" style="fill:#fff"/>
        <path data-name="합치기 123" d="M2.3 10.459H-.082A.5.5 0 0 1-.49 9.67L.68 8.018V5.181a5.181 5.181 0 1 1 10.362 0v.1a5.181 5.181 0 0 1-5.181 5.18z" transform="translate(-71.225 642.074)" style="fill:#7dedf3"/>
        <g data-name="합치기 122" style="fill:none">
            <path d="M3.962 13.534H.266a.5.5 0 0 1-.407-.79l1.691-2.368V6.767a6.767 6.767 0 1 1 6.767 6.767z" style="stroke:none" transform="translate(-75.268 638)"/>
            <path d="M8.317 12.034a5.273 5.273 0 0 0 5.267-5.267A5.273 5.273 0 0 0 8.317 1.5 5.273 5.273 0 0 0 3.05 6.767v4.09l-.841 1.177h6.108m0 1.5H.266c-.407 0-.644-.46-.407-.79l1.69-2.368V6.767A6.767 6.767 0 0 1 8.318 0a6.767 6.767 0 0 1 6.767 6.767 6.767 6.767 0 0 1-6.767 6.767z" style="fill:#2d3239;stroke:none" transform="translate(-75.268 638)"/>
        </g>
        <circle data-name="타원 1359" cx="1" cy="1" r="1" transform="translate(-69.949 644)" style="fill:#2d3239"/>
        <circle data-name="타원 1360" cx="1" cy="1" r="1" transform="translate(-65.949 644)" style="fill:#2d3239"/>
    </g>
</svg>
