<?xml version="1.0" encoding="utf-8"?>
<!-- Generator: Adobe Illustrator 26.1.0, SVG Export Plug-In . SVG Version: 6.00 Build 0)  -->
<svg version="1.1" id="Layer_1" xmlns="http://www.w3.org/2000/svg" xmlns:xlink="http://www.w3.org/1999/xlink" x="0px" y="0px"
	 viewBox="0 0 44 44" style="enable-background:new 0 0 44 44;" xml:space="preserve">
<style type="text/css">
	.st0{fill:none;}
	.st1{fill:#FFFFFF;}
	.st2{fill:#7DEDF3;}
	.st3{fill:#2D3239;}
	.st4{fill:none;stroke:#2D3239;stroke-width:1.5;}
</style>
<g transform="translate(-23.33 -750.768)">
	<path class="st0" d="M23.3,750.8h44v44h-44V750.8z"/>
	<path class="st1" d="M57.6,785.6H31.9c-2.7,0-4.9-2.2-4.9-4.9v-17.1c0-2.7,2.2-4.9,4.9-4.9h25.7c2.7,0,4.9,2.2,4.9,4.9v4.3
		c-2.1,0.3-3.7,2.1-3.7,4.2c0,2.1,1.6,3.9,3.7,4.2v4.3C62.4,783.4,60.3,785.6,57.6,785.6z"/>
	<path class="st2" d="M58.8,786.8h-6.7v-25.7h6.7c2.7,0,4.9,2.2,4.9,4.9v3.7c-1.1,0.1-2,0.6-2.8,1.4c-0.7,0.8-1.1,1.8-1.1,2.9
		c0,1.1,0.4,2.1,1.1,2.9c0.7,0.8,1.7,1.3,2.8,1.4v3.7C63.7,784.6,61.5,786.8,58.8,786.8z"/>
	<g>
		<path class="st0" d="M58.8,785.6H31.9c-2.7,0-4.9-2.2-4.9-4.9v-17.1c0-2.7,2.2-4.9,4.9-4.9h26.9c2.7,0,4.9,2.2,4.9,4.9v4.9
			c-2,0-3.7,1.6-3.7,3.7c0,2,1.6,3.7,3.7,3.7l0,0v4.9C63.7,783.4,61.5,785.6,58.8,785.6z"/>
		<path class="st3" d="M58.8,783.8c1.7,0,3.1-1.4,3.1-3.1v-3.4c-2.2-0.8-3.7-2.9-3.7-5.2c0-2.3,1.5-4.4,3.7-5.2v-3.4
			c0-1.7-1.4-3.1-3.1-3.1H31.9c-1.7,0-3.1,1.4-3.1,3.1v17.1c0,1.7,1.4,3.1,3.1,3.1L58.8,783.8 M58.8,785.6H31.9
			c-2.7,0-4.9-2.2-4.9-4.9v-17.1c0-2.7,2.2-4.9,4.9-4.9h26.9c2.7,0,4.9,2.2,4.9,4.9v4.9c-2,0-3.7,1.6-3.7,3.7c0,2,1.6,3.7,3.7,3.7
			v4.9C63.7,783.4,61.5,785.6,58.8,785.6L58.8,785.6z"/>
	</g>
	<path class="st3" d="M52.4,763L52.4,763c0.5,0,0.9,0.4,0.9,0.9v1.8c0,0.5-0.4,0.9-0.9,0.9l0,0c-0.5,0-0.9-0.4-0.9-0.9v-1.8
		C51.4,763.4,51.9,763,52.4,763z"/>
	<path class="st3" d="M52.4,769.7L52.4,769.7c0.5,0,0.9,0.4,0.9,0.9v1.8c0,0.5-0.4,0.9-0.9,0.9l0,0c-0.5,0-0.9-0.4-0.9-0.9v-1.8
		C51.4,770.1,51.9,769.7,52.4,769.7z"/>
	<path class="st3" d="M52.4,776.4L52.4,776.4c0.5,0,0.9,0.4,0.9,0.9v1.8c0,0.5-0.4,0.9-0.9,0.9l0,0c-0.5,0-0.9-0.4-0.9-0.9v-1.8
		C51.4,776.8,51.9,776.4,52.4,776.4z"/>
	<path class="st4" d="M39.9,766.9c0.1-0.3,0.5-0.4,0.8-0.3c0.1,0.1,0.2,0.2,0.3,0.3l1.3,2.8c0.1,0.2,0.3,0.3,0.5,0.3l3.1,0.4
		c0.3,0,0.6,0.3,0.5,0.7c0,0.1-0.1,0.3-0.2,0.4l-2.2,2.1c-0.2,0.1-0.2,0.4-0.2,0.6l0.6,3c0.1,0.3-0.2,0.7-0.5,0.7
		c-0.1,0-0.3,0-0.4-0.1l-2.7-1.5c-0.2-0.1-0.4-0.1-0.6,0l-2.7,1.5c-0.3,0.2-0.7,0.1-0.8-0.2c-0.1-0.1-0.1-0.3-0.1-0.4l0.6-3
		c0-0.2,0-0.4-0.2-0.6l-2.2-2.1c-0.2-0.2-0.3-0.6,0-0.9c0.1-0.1,0.2-0.2,0.4-0.2l3.1-0.4c0.2,0,0.4-0.2,0.5-0.3L39.9,766.9z"/>
</g>
</svg>
