<svg xmlns="http://www.w3.org/2000/svg" width="15" height="15.021" viewBox="0 0 15 15.021">
    <path data-name="사각형 18023" transform="translate(0 .021)" style="fill:none" d="M0 0h15v15H0z"/>
    <path data-name="패스 13929" d="M-3851.611 270.916a1.867 1.867 0 0 0-1.825 1.81 1.869 1.869 0 0 0 1.807 1.828 1.866 1.866 0 0 0 1.823-1.81 1.866 1.866 0 0 0-1.805-1.828z" transform="translate(3856.956 -267.391)" style="fill:#f9e000"/>
    <path data-name="패스 13930" d="M-4422.963-304.643a5.316 5.316 0 0 0-5.337 5.3 5.227 5.227 0 0 0 1.368 3.435 17.269 17.269 0 0 1 3.535 5.86c.065.2.161.431.438.424.3-.008.383-.264.455-.481a15.383 15.383 0 0 1 3.22-5.411 5.883 5.883 0 0 0 1.637-3.34 5.3 5.3 0 0 0-5.316-5.787zm1.813 5.352a1.865 1.865 0 0 1-1.823 1.81 1.868 1.868 0 0 1-1.807-1.828 1.867 1.867 0 0 1 1.824-1.81 1.866 1.866 0 0 1 1.807 1.827z" transform="translate(4428.3 304.644)" style="fill:#007dfd"/>
</svg>
