<svg xmlns="http://www.w3.org/2000/svg" width="44" height="44" viewBox="0 0 44 44">
    <defs>
        <style>
            .cls-2,.cls-4{fill:#fff}.cls-4{stroke:#2d3239;stroke-width:1.5px}.cls-7,.cls-8{stroke:none}.cls-8{fill:#2d3239}
        </style>
    </defs>
    <g id="ic_love_s" transform="translate(-19.33 -746.768)">
        <path id="사각형_7870" data-name="사각형 7870" transform="translate(19.33 746.768)" style="fill:none" d="M0 0h44v44H0z"/>
        <g id="그룹_10610" data-name="그룹 10610" transform="translate(-266.409 375.04)">
            <path id="_Color" data-name="↳Color" class="cls-2" d="M7 12.6c-.507 0-1.015-.6-1.015-.6C2.38 8.707 0 6.537 0 3.874A3.825 3.825 0 0 1 3.85 0 4.682 4.682 0 0 1 7 1.911 4.682 4.682 0 0 1 10.15 0 3.825 3.825 0 0 1 14 3.874C14 6.537 11.62 8.707 8.015 12c0 0-.508.6-1.015.6z" transform="translate(301.999 379.943)"/>
            <path id="패스_11125" data-name="패스 11125" class="cls-2" d="m-5739.045-208.385 7.079 2.392s1.339 1.649 6.235-.361 10.563-3.246 10.1-4.174-.824-2.679-4.38-1.8-4.483 1.134-4.483 1.134a3.628 3.628 0 0 0-1.7-2.113c-1.495-.979-13.294-3.916-13.294-3.916z" transform="translate(6038.597 614.034)"/>
            <g id="그룹_12803" data-name="그룹 12803" transform="translate(292.279 392.928)">
                <g id="패스_11122" data-name="패스 11122" style="fill:#fff">
                    <path class="cls-7" d="M4.547 13.845H2.728A1.98 1.98 0 0 1 .75 11.87c.001-.168.042-6.171 0-9.107-.008-.58.1-.987.322-1.212.193-.196.528-.296.995-.296.698 0 1.543.218 2.28.423 1.852.514 2.178 1.056 2.178 2.005v8.184a1.98 1.98 0 0 1-1.978 1.978z" transform="translate(0 -.505)"/>
                    <path class="cls-8" d="M2.067 2.005c-.3 0-.438.054-.46.072-.002.001-.115.152-.107.675.042 2.927.002 8.885 0 9.12a1.23 1.23 0 0 0 1.228 1.223h1.819a1.23 1.23 0 0 0 1.228-1.228V3.683c0-.468-.118-.582-.189-.65-.224-.217-.709-.43-1.44-.633-.69-.19-1.475-.395-2.08-.395m0-1.5c.798 0 1.703.234 2.48.45 1.912.53 2.729 1.222 2.729 2.728v8.184a2.728 2.728 0 0 1-2.728 2.728H2.728A2.728 2.728 0 0 1 0 11.867s.043-6.105 0-9.093C-.025 1.002.906.505 2.067.505z" transform="translate(0 -.505)"/>
                </g>
                <path id="패스_11123" data-name="패스 11123" class="cls-4" d="m-5739.933-208.344 7.629 2.732a8.409 8.409 0 0 0 6.8 0c3.454-1.65 8.279-3.377 9.28-3.866s1.2-2.189-.751-2.41a13.033 13.033 0 0 0-4.2.4l-4.331 1.289a6.051 6.051 0 0 1-4.072 0c-2.319-.773-4.588-1.289-4.588-1.289" transform="translate(5746.36 220.628)"/>
                <path id="패스_11124" data-name="패스 11124" class="cls-4" d="m-5739.947-217.089 5.215.854s9.609 1.525 10.107 4.95" transform="translate(5746.361 221.095)"/>
            </g>
            <path id="빼기_344" data-name="빼기 344" d="M2.4 15.078c-.6 0-1.209-.715-1.215-.723H1.18Q.568 13.8 0 13.274c3.977-3.654 6.584-6.281 6.584-9.4A4.885 4.885 0 0 0 4.979.2 3.709 3.709 0 0 1 6.165 0a4.572 4.572 0 0 1 4.607 4.636c0 3.178-2.836 5.771-7.129 9.7l-.034.031c-.009.003-.609.711-1.209.711z" transform="translate(307.168 378.727)" style="fill:#7dedf3"/>
            <g id="_Color-2" data-name="↳Color" style="stroke-linecap:round;stroke-linejoin:round;stroke-miterlimit:10;fill:none">
                <path class="cls-7" d="M8.377 15.078c-.607 0-1.215-.722-1.215-.722C2.848 10.419 0 7.823 0 4.636A4.577 4.577 0 0 1 4.607 0c1.458 0 2.857 1.208 3.77 2.287C9.29 1.208 10.689 0 12.146 0a4.577 4.577 0 0 1 4.607 4.636c0 3.186-2.848 5.783-7.162 9.728 0 0-.607.716-1.214.714z" transform="translate(300.655 378.727)"/>
                <path class="cls-8" d="M8.38 13.46c.026-.024.05-.048.071-.071a1.12 1.12 0 0 1 .128-.132l.033-.03c4-3.657 6.641-6.074 6.641-8.59 0-1.76-1.365-3.137-3.107-3.137-.702 0-1.708.673-2.624 1.756a1.5 1.5 0 0 1-2.29 0C6.315 2.173 5.309 1.5 4.607 1.5 2.865 1.5 1.5 2.878 1.5 4.636c0 2.522 2.65 4.94 6.662 8.602l.011.01a1.5 1.5 0 0 1 .136.14.95.95 0 0 0 .071.072m0 1.618h-.003c-.608-.002-1.215-.723-1.215-.723C2.848 10.42 0 7.823 0 4.636 0 2.04 2.027 0 4.607 0c1.458 0 2.857 1.208 3.77 2.287C9.29 1.208 10.689 0 12.146 0c2.58 0 4.607 2.04 4.607 4.636 0 3.187-2.848 5.783-7.162 9.728 0 0-.605.714-1.212.714z" transform="translate(300.655 378.727)"/>
            </g>
        </g>
    </g>
</svg>
