<?xml version="1.0" encoding="utf-8"?>
<!-- Generator: Adobe Illustrator 26.1.0, SVG Export Plug-In . SVG Version: 6.00 Build 0)  -->
<svg version="1.1" id="Layer_1" xmlns="http://www.w3.org/2000/svg" xmlns:xlink="http://www.w3.org/1999/xlink" x="0px" y="0px"
	 viewBox="0 0 44 44" style="enable-background:new 0 0 44 44;" xml:space="preserve">
<style type="text/css">
	.st0{fill:none;}
	.st1{fill:#FFFFFF;}
	.st2{fill:#2D3239;}
	.st3{fill:#7DEDF3;}
</style>
<path class="st0" d="M0,0h44v44H0V0z"/>
<g>
	<path class="st1" d="M32.4,36.4H11.6c-2.9,0-5.2-2.3-5.2-5.2V12.8c0-2.9,2.3-5.2,5.2-5.2h20.8c2.9,0,5.2,2.3,5.2,5.2v18.3
		C37.6,34,35.3,36.4,32.4,36.4z"/>
	<path class="st2" d="M11.6,8.6c-2.4,0-4.3,1.9-4.3,4.3v18.3c0,2.4,1.9,4.3,4.3,4.3h20.8c2.4,0,4.3-1.9,4.3-4.3V12.8
		c0-2.4-1.9-4.3-4.3-4.3H11.6 M11.6,6.7h20.8c3.4,0,6.1,2.7,6.1,6.1v18.3c0,3.4-2.7,6.1-6.1,6.1H11.6c-3.4,0-6.1-2.7-6.1-6.1V12.8
		C5.5,9.5,8.2,6.7,11.6,6.7z"/>
</g>
<path class="st3" d="M20.8,8.6h7.3v7.9c0,1.4-1.1,2.4-2.4,2.4h-2.4c-1.4,0-2.4-1.1-2.4-2.4V8.6z"/>
<g>
	<path class="st0" d="M17.1,6.7h9.8v8.6c0,2-1.6,3.7-3.7,3.7h-2.4c-2,0-3.7-1.6-3.7-3.7V6.7z"/>
	<path class="st2" d="M18.9,8.6v6.7c0,1,0.8,1.8,1.8,1.8h2.4c1,0,1.8-0.8,1.8-1.8V8.6H18.9 M17.1,6.7h9.8v8.6c0,2-1.6,3.7-3.7,3.7
		h-2.4c-2,0-3.7-1.6-3.7-3.7V6.7z"/>
</g>
<g>
	<path class="st1" d="M22.9,25.7h9.2c0.5,0,0.9,0.4,0.9,0.9c0,0.5-0.4,0.9-0.9,0.9h-9.2c-0.5,0-0.9-0.4-0.9-0.9
		C22,26.1,22.4,25.7,22.9,25.7z"/>
	<path class="st2" d="M22.9,25.7h9.2c0.5,0,0.9,0.4,0.9,0.9c0,0.5-0.4,0.9-0.9,0.9h-9.2c-0.5,0-0.9-0.4-0.9-0.9
		C22,26.1,22.4,25.7,22.9,25.7z"/>
</g>
<g>
	<path class="st1" d="M23.5,29.3h6.7c0.5,0,0.9,0.4,0.9,0.9s-0.4,0.9-0.9,0.9h-6.7c-0.5,0-0.9-0.4-0.9-0.9S23,29.3,23.5,29.3z"/>
	<path class="st2" d="M23.5,29.3h6.7c0.5,0,0.9,0.4,0.9,0.9s-0.4,0.9-0.9,0.9h-6.7c-0.5,0-0.9-0.4-0.9-0.9S23,29.3,23.5,29.3z"/>
</g>
</svg>
