<svg xmlns="http://www.w3.org/2000/svg" width="20" height="20">
    <defs>
        <style>
            .cls-2{fill:none}.cls-3{fill:#2d3239}.cls-8{stroke:none}
        </style>
    </defs>
    <g id="ic_login_app" transform="translate(-108 -505)">
        <g id="사각형_11100" data-name="사각형 11100" transform="translate(108 505)" style="stroke:#2d3239;stroke-width:1.5px;fill:#fff">
            <rect class="cls-8" width="14" height="20" rx="3"/>
            <rect class="cls-2" x=".75" y=".75" width="12.5" height="18.5" rx="2.25"/>
        </g>
        <path id="사각형_7870" data-name="사각형 7870" class="cls-2" transform="translate(108 505)" d="M0 0h20v20H0z"/>
        <rect id="사각형_6086" data-name="사각형 6086" class="cls-3" width="4" height="1.5" rx=".75" transform="translate(113 508)"/>
        <rect id="사각형_11108" data-name="사각형 11108" class="cls-3" width="1.5" height="1.5" rx=".75" transform="translate(114.25 521)"/>
        <path id="사각형_11101" data-name="사각형 11101" transform="translate(120 510)" style="fill:#fff" d="M0 0h2v6H0z"/>
        <rect id="사각형_11102" data-name="사각형 11102" class="cls-3" width="1.5" height="2" rx=".75" transform="translate(120.5 509)"/>
        <circle id="타원_1313" data-name="타원 1313" cx="5" cy="5" r="5" transform="translate(115.5 511.5)" style="fill:#7dedf3"/>
        <g id="타원_1314" data-name="타원 1314" transform="translate(116 510)" style="fill:none;stroke:#2d3239;stroke-width:1.5px">
            <circle class="cls-8" cx="6" cy="6" r="6"/>
            <circle class="cls-2" cx="6" cy="6" r="5.25"/>
        </g>
        <g id="그룹_8062" data-name="그룹 8062">
            <path id="패스_10929" data-name="패스 10929" d="m8440.17-17704.5-1.5 1.5 1.5 1.5" transform="translate(-8318.67 18219)" style="stroke-linecap:round;stroke-linejoin:round;fill:none;stroke:#2d3239;stroke-width:1.5px"/>
            <rect id="사각형_11109" data-name="사각형 11109" class="cls-3" width="5" height="1.5" rx=".75" transform="translate(120 515.25)"/>
        </g>
    </g>
</svg>
