<svg xmlns="http://www.w3.org/2000/svg" width="20" height="20">
    <defs>
        <style>
            .cls-1{fill:#fff;stroke:#2d3239;stroke-width:1.5px}.cls-2{fill:none}.cls-4{fill:#2d3239}.cls-7{stroke:none}
        </style>
    </defs>
    <g id="ic_login_once" transform="translate(-89 -631)">
        <g id="사각형_11110" data-name="사각형 11110" class="cls-1" transform="translate(93 631)">
            <rect class="cls-7" width="8" height="14" rx="4"/>
            <rect class="cls-2" x=".75" y=".75" width="6.5" height="12.5" rx="3.25"/>
        </g>
        <g id="사각형_11100" data-name="사각형 11100" class="cls-1" transform="translate(90 636)">
            <rect class="cls-7" width="14" height="13" rx="3"/>
            <rect class="cls-2" x=".75" y=".75" width="12.5" height="11.5" rx="2.25"/>
        </g>
        <path id="사각형_7870" data-name="사각형 7870" class="cls-2" transform="translate(89 631)" d="M0 0h20v20H0z"/>
        <path id="사각형_11101" data-name="사각형 11101" transform="translate(102 640)" style="fill:#fff" d="M0 0h2v6H0z"/>
        <rect id="사각형_11102" data-name="사각형 11102" class="cls-4" width="1.5" height="2" rx=".75" transform="translate(102.5 639)"/>
        <g id="그룹_8061" data-name="그룹 8061" transform="translate(-19 128)">
            <rect id="사각형_11107" data-name="사각형 11107" width="12.5" height="8" rx="2" transform="translate(113 515)" style="fill:#7dedf3"/>
            <g id="사각형_11103" data-name="사각형 11103" transform="translate(114 514)" style="fill:none;stroke:#2d3239;stroke-width:1.5px">
                <rect class="cls-7" width="14" height="8" rx="2"/>
                <rect class="cls-2" x=".75" y=".75" width="12.5" height="6.5" rx="1.25"/>
            </g>
            <g id="그룹_8064" data-name="그룹 8064" transform="translate(-.5 .25)">
                <rect id="사각형_11104" data-name="사각형 11104" class="cls-4" width="1.5" height="1.5" rx=".75" transform="translate(117 517)"/>
                <rect id="사각형_11105" data-name="사각형 11105" class="cls-4" width="1.5" height="1.5" rx=".75" transform="translate(119.5 517)"/>
                <rect id="사각형_11106" data-name="사각형 11106" class="cls-4" width="1.5" height="1.5" rx=".75" transform="translate(122 517)"/>
                <rect id="사각형_11111" data-name="사각형 11111" class="cls-4" width="1.5" height="1.5" rx=".75" transform="translate(124.5 517)"/>
            </g>
        </g>
    </g>
</svg>
