<svg xmlns="http://www.w3.org/2000/svg" width="36" height="36" viewBox="0 0 36 36">
  <g id="ic-my-loan_2" transform="translate(-24 -2341)">
    <rect id="사각형_7872" data-name="사각형 7872" width="36" height="36" transform="translate(24 2341)" fill="none"/>
    <g id="패스_2250" data-name="패스 2250" transform="translate(32 2349.689)" fill="#fff" stroke-linecap="round" stroke-linejoin="round">
      <path d="M 19.5 23.06082153320312 L 6.5 23.06082153320312 C 3.329440116882324 23.06082153320312 0.75 20.44342041015625 0.75 17.2261905670166 L 0.75 13.27541065216064 C 0.75 10.0484504699707 2.367799997329712 7.459000587463379 3.724970102310181 5.854950428009033 C 5.358699321746826 3.924028873443604 7.594781398773193 2.253780126571655 9.86679744720459 1.265956163406372 C 10.28606986999512 1.163368701934814 11.66385650634766 1.060820698738098 13.33985996246338 1.060820698738098 C 14.66031074523926 1.060820698738098 15.46412563323975 1.123344659805298 15.80895137786865 1.186579346656799 C 18.54839324951172 2.47868824005127 20.62731742858887 4.141360282897949 22.16309928894043 6.267820835113525 C 24.2114200592041 9.103940963745117 25.25 12.79087066650391 25.25 17.2261905670166 C 25.25 20.44342041015625 22.67056083679199 23.06082153320312 19.5 23.06082153320312 Z" stroke="none"/>
      <path d="M 13.33981990814209 1.810821533203125 C 11.73875045776367 1.810821533203125 10.4874382019043 1.906078338623047 10.10145473480225 1.981948852539062 C 7.953733444213867 2.928720474243164 5.843975067138672 4.511623382568359 4.297529220581055 6.339380264282227 C 3.021310806274414 7.847761154174805 1.5 10.27551078796387 1.5 13.27541065216064 L 1.5 17.2261905670166 C 1.5 20.02986145019531 3.742990493774414 22.31082153320312 6.5 22.31082153320312 L 19.5 22.31082153320312 C 22.25700950622559 22.31082153320312 24.5 20.02986145019531 24.5 17.2261905670166 C 24.5 12.95179080963135 23.50918960571289 9.412600517272949 21.55508995056152 6.706930160522461 C 20.1131706237793 4.710433959960938 18.15856742858887 3.139884948730469 15.58371543884277 1.909873962402344 C 15.27962589263916 1.867053985595703 14.5669412612915 1.810821533203125 13.33981990814209 1.810821533203125 M 13.33981800079346 0.3108177185058594 C 14.49184513092041 0.3108177185058594 15.57172870635986 0.3610725402832031 16.04734039306641 0.469970703125 C 20.7071704864502 2.645801544189453 26 6.998661041259766 26 17.2261905670166 C 26 20.8627815246582 23.0898494720459 23.81082153320312 19.5 23.81082153320312 L 6.5 23.81082153320312 C 2.910150527954102 23.81082153320312 0 20.8627815246582 0 17.2261905670166 L 0 13.27541065216064 C 0 7.25322151184082 5.200000762939453 2.457719802856445 9.619270324707031 0.5558700561523438 C 10.16124725341797 0.3990039825439453 11.81380748748779 0.3108177185058594 13.33981800079346 0.3108177185058594 Z" stroke="none" fill="#2d3239"/>
    </g>
    <rect id="사각형_8426" data-name="사각형 8426" width="4" height="4" transform="translate(39 2370)" fill="#fff"/>
    <g id="패스_2251" data-name="패스 2251" transform="translate(41 2344)" fill="#fff">
      <path d="M 3.792069435119629 6.750005722045898 C 2.991589546203613 6.750005722045898 2.472119569778442 6.644405841827393 2.252889633178711 6.545586109161377 C 1.045349478721619 6.009706020355225 -0.2500004768371582 4.721005916595459 -0.2500004768371582 3.153625965118408 L -0.2500004768371582 2.365216016769409 C -0.2500004768371582 1.474575877189636 0.3748295307159424 0.7499959468841553 1.142859578132629 0.7499959468841553 L 6.857139587402344 0.7499959468841553 C 7.62516975402832 0.7499959468841553 8.25 1.474575877189636 8.25 2.365216016769409 L 8.25 3.153625965118408 C 8.25 4.369075775146484 7.453949451446533 5.524866104125977 6.008499622344971 6.408095836639404 C 5.783629417419434 6.54753589630127 4.927979469299316 6.750005722045898 3.792069435119629 6.750005722045898 Z" stroke="none"/>
      <path d="M 1.14285945892334 1.499995708465576 C 0.7943897247314453 1.499995708465576 0.4999995231628418 1.896215915679932 0.4999995231628418 2.36521577835083 L 0.4999995231628418 3.153625965118408 C 0.4999995231628418 4.385915756225586 1.56425952911377 5.419456005096436 2.553099632263184 5.85826587677002 L 2.561009407043457 5.861795902252197 C 2.641699314117432 5.897655963897705 3.041059494018555 6.000005722045898 3.792069435119629 6.000005722045898 C 4.730820655822754 6.000005722045898 5.441714763641357 5.847254753112793 5.62682580947876 5.762369155883789 C 6.330966949462891 5.330405235290527 7.499999523162842 4.421899795532227 7.499999523162842 3.153625965118408 L 7.499999523162842 2.36521577835083 C 7.499999523162842 1.896215915679932 7.205609321594238 1.499995708465576 6.857139587402344 1.499995708465576 L 1.14285945892334 1.499995708465576 M 1.14285945892334 -4.291534423828125e-06 L 6.857139587402344 -4.291534423828125e-06 C 8.040609359741211 -4.291534423828125e-06 9 1.058946132659912 9 2.36521577835083 L 9 3.153625965118408 C 9 4.697646141052246 8.002049446105957 6.068885803222656 6.39954948425293 7.048075675964355 C 5.622859001159668 7.529786109924316 2.948567867279053 7.68185567855835 1.944669723510742 7.229325771331787 C 0.364229679107666 6.5279860496521 -1.000000953674316 4.958895683288574 -1.000000953674316 3.153625965118408 L -1.000000953674316 2.36521577835083 C -1.000000953674316 1.058946132659912 -0.04061031341552734 -4.291534423828125e-06 1.14285945892334 -4.291534423828125e-06 Z" stroke="none" fill="#2d3239"/>
    </g>
    <rect id="사각형_5634" data-name="사각형 5634" width="13.919" height="4.761" rx="2.38" transform="translate(28.04 2369.238)" fill="#7dedf3"/>
    <rect id="사각형_5635" data-name="사각형 5635" width="13.602" height="4.761" rx="2.38" transform="translate(26 2365.619)" fill="#7dedf3"/>
    <rect id="사각형_5636" data-name="사각형 5636" width="13.602" height="4.761" rx="2.38" transform="translate(30.397 2362)" fill="#7dedf3"/>
    <g id="사각형_5637" data-name="사각형 5637" transform="translate(29 2369)" fill="none" stroke="#2d3239" stroke-width="1.5">
      <rect width="15" height="5" rx="2.5" stroke="none"/>
      <rect x="0.75" y="0.75" width="13.5" height="3.5" rx="1.75" fill="none"/>
    </g>
    <g id="사각형_5638" data-name="사각형 5638" transform="translate(27 2365.5)" fill="none" stroke="#2d3239" stroke-width="1.5">
      <rect width="15" height="5" rx="2.5" stroke="none"/>
      <rect x="0.75" y="0.75" width="13.5" height="3.5" rx="1.75" fill="none"/>
    </g>
    <g id="사각형_5639" data-name="사각형 5639" transform="translate(31.001 2362)" fill="none" stroke="#2d3239" stroke-width="1.5">
      <rect width="15" height="5" rx="2.5" stroke="none"/>
      <rect x="0.75" y="0.75" width="13.5" height="3.5" rx="1.75" fill="none"/>
    </g>
    <g id="그룹_5868" data-name="그룹 5868" transform="translate(40.51 2354.472)">
      <path id="패스_2252" data-name="패스 2252" d="M3649.636,5413.028l1.5,5,2-5,2,5,1.5-5" transform="translate(-3648.646 -5412)" fill="none" stroke="#2d3239" stroke-linecap="round" stroke-linejoin="round" stroke-width="1.5"/>
      <line id="선_11" data-name="선 11" x2="1.5" transform="translate(-0.01 3.527)" fill="none" stroke="#2d3239" stroke-linecap="round" stroke-width="1.5"/>
      <line id="선_166" data-name="선 166" x2="1.5" transform="translate(7.49 3.527)" fill="none" stroke="#2d3239" stroke-linecap="round" stroke-width="1.5"/>
    </g>
    <rect id="사각형_8479" data-name="사각형 8479" width="1.5" height="2" rx="0.75" transform="translate(33.325 2357.71) rotate(25)" fill="#2d3239"/>
  </g>
</svg>
