<svg xmlns="http://www.w3.org/2000/svg" width="20" height="20" viewBox="0 0 20 20">
    <defs>
        <style>
            .cls-3,.cls-4{fill:none;stroke:#2d3239;stroke-width:1.5px}.cls-3{stroke-linejoin:round}
        </style>
    </defs>
    <g id="ic_mbti_1_s" transform="translate(38.75 -844.25)">
        <g id="그룹_12556" data-name="그룹 12556" transform="translate(-38 845)">
            <path id="패스_12250" data-name="패스 12250" d="M11.654 15.71a.745.745 0 0 0 .789-.638l.29-5a.731.731 0 0 0-.789-.7H2.535a.731.731 0 0 0-.789.7l.29 5a.746.746 0 0 0 .789.638h8.829" transform="translate(.792 -1.037)" style="fill:#7dedf3"/>
            <path id="패스_12251" data-name="패스 12251" class="cls-3" d="M11.955 3.972H2.16V2.9A1.989 1.989 0 0 1 3.938.75h6.239a1.989 1.989 0 0 1 1.778 2.15z" transform="translate(2.19 .5)"/>
            <path id="패스_12252" data-name="패스 12252" class="cls-4" d="m11.6 18.82-.1 1.737a1.523 1.523 0 0 1-1.5 1.458H4.508a1.523 1.523 0 0 1-1.5-1.458l-.1-1.754" transform="translate(2.088 -4.218)"/>
            <path id="패스_12253" data-name="패스 12253" class="cls-3" d="M2.288 10.046 2.16 6.684h9.8l-.127 3.361" transform="translate(2.19 -2.213)"/>
            <path id="패스_12255" data-name="패스 12255" class="cls-4" d="M11.623 16.451a.771.771 0 0 0 .787-.712l.29-5.589a.767.767 0 0 0-.787-.787h-9.38a.767.767 0 0 0-.787.787l.289 5.589a.772.772 0 0 0 .787.712h8.8" transform="translate(2.007 -2.113)"/>
            <rect id="사각형_16707" data-name="사각형 16707" width="14" height="1.5" rx=".75" transform="translate(2.232 3.722)" style="fill:#2d3239"/>
        </g>
    </g>
</svg>
