<svg xmlns="http://www.w3.org/2000/svg" width="36" height="36" viewBox="0 0 36 36">
  <g id="ic-my-loan-4" transform="translate(-85 -621)">
    <g id="그룹_11900" data-name="그룹 11900">
      <rect id="사각형_7905" data-name="사각형 7905" width="36" height="36" transform="translate(85 621)" fill="none"/>
      <g id="그룹_11899" data-name="그룹 11899" transform="translate(-4 -1)">
        <g id="사각형_14112" data-name="사각형 14112" transform="translate(93 626)" fill="#fff" stroke="#2d3239" stroke-width="1.5">
          <path d="M5,0h9a8,8,0,0,1,8,8V23a5,5,0,0,1-5,5H5a5,5,0,0,1-5-5V5A5,5,0,0,1,5,0Z" stroke="none"/>
          <path d="M5,.75h9A7.25,7.25,0,0,1,21.25,8V23A4.25,4.25,0,0,1,17,27.25H5A4.25,4.25,0,0,1,.75,23V5A4.25,4.25,0,0,1,5,.75Z" fill="none"/>
        </g>
        <g id="교차_25" data-name="교차 25" transform="translate(106.48 626.791)" fill="none">
          <path d="M4.52,7.21a4,4,0,0,1-4-4v-4h0a8,8,0,0,1,8,8Z" stroke="none"/>
          <path d="M 6.8447585105896 5.70989990234375 C 6.280116558074951 3.328036069869995 4.401303291320801 1.449139714241028 2.019300937652588 0.8844338059425354 L 2.019300937652588 3.209399938583374 C 2.019300937652588 4.588180065155029 3.141021013259888 5.70989990234375 4.519801139831543 5.70989990234375 L 6.8447585105896 5.70989990234375 M 8.519400596618652 7.20989990234375 L 4.519801139831543 7.20989990234375 C 2.310301065444946 7.20989990234375 0.5193009972572327 5.418900012969971 0.5193009972572327 3.209399938583374 L 0.5202010273933411 -0.7902001738548279 C 4.938301086425781 -0.7902001738548279 8.519400596618652 2.790899753570557 8.519400596618652 7.20989990234375 Z" stroke="none" fill="#2d3239"/>
        </g>
        <rect id="사각형_6086" data-name="사각형 6086" width="10" height="1.5" rx="0.75" transform="translate(97 635)" fill="#2d3239"/>
      </g>
    </g>
    <circle id="타원_2014" data-name="타원 2014" cx="5.625" cy="5.625" r="5.625" transform="translate(101.5 639)" fill="#fff"/>
    <circle id="타원_2015" data-name="타원 2015" cx="5.25" cy="5.25" r="5.25" transform="translate(106.999 640.25)" fill="#7dedf3"/>
    <g id="타원_2016" data-name="타원 2016" transform="translate(104.027 639)" fill="none" stroke="#2d3239" stroke-width="1.5">
      <circle cx="6" cy="6" r="6" stroke="none"/>
      <circle cx="6" cy="6" r="5.25" fill="none"/>
    </g>
    <g id="사각형_17585" data-name="사각형 17585" transform="translate(112.377 649.409) rotate(-45)" fill="#fff" stroke="#2d3239" stroke-width="1">
      <rect width="1.5" height="5" rx="0.75" stroke="none"/>
      <rect x="0.5" y="0.5" width="0.5" height="4" rx="0.25" fill="none"/>
    </g>
    <g id="그룹_14107" data-name="그룹 14107" transform="translate(93.51 636.972)">
      <path id="패스_2252" data-name="패스 2252" d="M3649.636,5413.028l1.5,5,2-5,2,5,1.5-5" transform="translate(-3648.646 -5412)" fill="none" stroke="#2d3239" stroke-linecap="round" stroke-linejoin="round" stroke-width="1.5"/>
      <line id="선_11" data-name="선 11" x2="1.5" transform="translate(-0.01 3.527)" fill="none" stroke="#2d3239" stroke-linecap="round" stroke-width="1.5"/>
      <line id="선_166" data-name="선 166" x2="1.5" transform="translate(7.49 3.527)" fill="none" stroke="#2d3239" stroke-linecap="round" stroke-width="1.5"/>
    </g>
  </g>
</svg>
