<svg xmlns="http://www.w3.org/2000/svg" width="40" height="40" viewBox="0 0 40 40">
    <defs>
        <style>
            .cls-1,.cls-3{fill:none}.cls-3{stroke:#2d3239;stroke-width:1.5px}
        </style>
    </defs>
    <g id="card_d_l_ic_03" transform="translate(-24 -858)">
        <path id="사각형_15576" data-name="사각형 15576" class="cls-1" transform="translate(24 858)" d="M0 0h40v40H0z"/>
        <g id="그룹_12556" data-name="그룹 12556" transform="translate(-14650 4166)">
            <path id="사각형_15591" data-name="사각형 15591" class="cls-1" transform="translate(14678 -3304)" d="M0 0h32v32H0z"/>
            <path id="패스_12250" data-name="패스 12250" d="M15.2 19.518a1.073 1.073 0 0 0 1.076-1.018l.394-8.008a1.074 1.074 0 0 0-1.07-1.129H2.818a1.074 1.074 0 0 0-1.072 1.127l.394 8.01a1.074 1.074 0 0 0 1.072 1.021H15.2" transform="translate(14683.64 -3298.493)" style="fill:#7dedf3"/>
            <path id="패스_12251" data-name="패스 12251" class="cls-3" d="M19.388 5.44H2.16V3.876A3.127 3.127 0 0 1 5.288.75h10.973a3.127 3.127 0 0 1 3.128 3.126z" transform="translate(14683.226 -3303.987)"/>
            <path id="패스_12252" data-name="패스 12252" class="cls-3" d="m18.167 18.839-.182 3.678a2.969 2.969 0 0 1-2.63 3.089H5.719a2.969 2.969 0 0 1-2.63-3.089L2.906 18.8" transform="translate(14683.463 -3298.363)"/>
            <path id="패스_12253" data-name="패스 12253" class="cls-3" d="m2.384 10.334-.224-3.65h17.227l-.224 3.649" transform="translate(14683.226 -3302.037)"/>
            <path id="패스_12254" data-name="패스 12254" class="cls-3" d="M20.13 7.438H2.314a1.564 1.564 0 0 1 0-3.128H20.13a1.564 1.564 0 0 1 0 3.128z" transform="translate(14682.777 -3302.817)"/>
            <path id="패스_12255" data-name="패스 12255" class="cls-3" d="M18.266 21.829a1.317 1.317 0 0 0 1.316-1.253l.484-9.829a1.318 1.318 0 0 0-1.316-1.383H3.063a1.318 1.318 0 0 0-1.316 1.383l.484 9.829a1.318 1.318 0 0 0 1.316 1.253h14.72" transform="translate(14683.095 -3301.114)"/>
            <circle id="타원_1897" data-name="타원 1897" class="cls-3" cx="3.062" cy="3.062" transform="translate(14690.94 -3288.587)" r="3.062"/>
        </g>
    </g>
</svg>
