<svg xmlns="http://www.w3.org/2000/svg" width="44" height="44" viewBox="0 0 44 44">
    <defs>
        <style>
            .cls-7{fill:none;stroke:#2d3239;stroke-width:1.5px;stroke-linecap:round}.cls-8{stroke:none}
        </style>
    </defs>
    <g id="ic_moneybag_s" transform="translate(-252 -1081)">
        <g id="그룹_9787" data-name="그룹 9787" transform="translate(0 4.5)">
            <g id="다각형_8" data-name="다각형 8" style="fill:#fff">
                <path class="cls-8" d="M11 11.25H7a2.7 2.7 0 0 1-2.46-1.52 2.7 2.7 0 0 1 .26-2.88l2-2.667c.524-.699 1.326-1.1 2.2-1.1.874 0 1.676.401 2.2 1.1l2 2.667a2.7 2.7 0 0 1 .26 2.88A2.7 2.7 0 0 1 11 11.25z" transform="rotate(180 141.5 548)"/>
                <path d="M9 3.833c-.636 0-1.219.292-1.6.8L5.4 7.3a1.964 1.964 0 0 0-.189 2.094A1.964 1.964 0 0 0 7 10.5h4c.774 0 1.443-.413 1.789-1.106A1.964 1.964 0 0 0 12.6 7.3l-2-2.667a1.983 1.983 0 0 0-1.6-.8m0-1.5c1.05 0 2.1.467 2.8 1.4l2 2.667c1.73 2.307.084 5.6-2.8 5.6H7c-2.884 0-4.53-3.293-2.8-5.6l2-2.667a3.48 3.48 0 0 1 2.8-1.4z" style="fill:#2d3239;stroke:none" transform="rotate(180 141.5 548)"/>
            </g>
            <path id="사각형_12126" data-name="사각형 12126" d="M12 0a12 12 0 0 1 12 12v2a8 8 0 0 1-8 8H8a8 8 0 0 1-8-8v-2A12 12 0 0 1 12 0z" transform="translate(263 1091)" style="fill:#7dedf3"/>
            <path id="사각형_12127" data-name="사각형 12127" d="M10 0h1a8 8 0 0 1 8 8v4a6 6 0 0 1-6 6H6a6 6 0 0 1-6-6v-2A10 10 0 0 1 10 0z" transform="translate(262 1091)" style="fill:#fff"/>
            <g id="사각형_5285" data-name="사각형 5285" style="stroke:#2d3239;stroke-width:1.5px;fill:none">
                <path class="cls-8" d="M12.5 0A12.5 12.5 0 0 1 25 12.5v2.357A7.143 7.143 0 0 1 17.857 22H7.143A7.143 7.143 0 0 1 0 14.857V12.5A12.5 12.5 0 0 1 12.5 0z" transform="translate(261.5 1090)"/>
                <path d="M12.5.75A11.75 11.75 0 0 1 24.25 12.5v2.321a6.429 6.429 0 0 1-6.429 6.429H7.179A6.429 6.429 0 0 1 .75 14.821V12.5A11.75 11.75 0 0 1 12.5.75z" style="fill:none" transform="translate(261.5 1090)"/>
            </g>
            <g id="그룹_9779" data-name="그룹 9779" transform="translate(269 1098.5)">
                <path id="패스_2252" data-name="패스 2252" d="m3649.636 5413.027 1.952 5.577 1.952-5.577 1.952 5.577 1.952-5.577" transform="translate(-3648.521 -5413.027)" style="stroke-linejoin:round;stroke-linecap:round;stroke:#2d3239;stroke-width:1.5px;fill:none"/>
                <path id="선_11" data-name="선 11" class="cls-7" transform="translate(0 2.23)" d="M0 0h1.673"/>
                <path id="선_166" data-name="선 166" class="cls-7" transform="translate(8.365 2.23)" d="M0 0h1.673"/>
            </g>
        </g>
    </g>
</svg>
