<svg xmlns="http://www.w3.org/2000/svg" width="36" height="36" viewBox="0 0 36 36">
    <defs>
        <clipPath id="clip-path">
            <path id="사각형_17851" data-name="사각형 17851" d="M5 0h9a8 8 0 0 1 8 8v15a5 5 0 0 1-5 5H5a5 5 0 0 1-5-5V5a5 5 0 0 1 5-5z" transform="translate(206 520)" style="stroke:#2d3239;stroke-width:1.5px;fill:#fff"/>
        </clipPath>
        <style>
            
        </style>
    </defs>
    <g id="ic-manage-04" transform="translate(-206 -516)">
        <path id="사각형_7905" data-name="사각형 7905" transform="translate(206 516)" style="fill:none" d="M0 0h36v36H0z"/>
        <g id="사각형_14112" data-name="사각형 14112" style="stroke:#2d3239;stroke-width:1.5px;fill:#fff">
            <path d="M5 0h9a8 8 0 0 1 8 8v15a5 5 0 0 1-5 5H5a5 5 0 0 1-5-5V5a5 5 0 0 1 5-5z" style="stroke:none" transform="translate(206 520)"/>
            <path d="M5 .75h9A7.25 7.25 0 0 1 21.25 8v15A4.25 4.25 0 0 1 17 27.25H5A4.25 4.25 0 0 1 .75 23V5A4.25 4.25 0 0 1 5 .75z" style="fill:none" transform="translate(206 520)"/>
        </g>
        <g id="교차_25" data-name="교차 25" style="fill:none">
            <path d="M4.52 7.21a4 4 0 0 1-4-4v-4a8 8 0 0 1 8 8z" style="stroke:none" transform="translate(219.48 520.791)"/>
            <path d="M6.845 5.71A6.522 6.522 0 0 0 2.019.884V3.21c0 1.38 1.122 2.5 2.5 2.5h2.326m1.674 1.5h-4a4 4 0 0 1-4-4l.001-4a8 8 0 0 1 8 8z" style="fill:#2d3239;stroke:none" transform="translate(219.48 520.791)"/>
        </g>
        <rect id="사각형_6085" data-name="사각형 6085" width="6" height="1.5" rx=".75" transform="translate(211 537.5)" style="fill:#2d3239"/>
        <rect id="사각형_6086" data-name="사각형 6086" width="8" height="1.5" rx=".75" transform="translate(211 541)" style="fill:#2d3239"/>
        <g id="그룹_9779" data-name="그룹 9779" transform="translate(212.51 527.974)">
            <path id="패스_2252" data-name="패스 2252" d="m3649.636 5413.028 1.75 5 1.75-5 1.75 5 1.75-5" transform="translate(-3648.646 -5412)" style="stroke-linejoin:round;stroke-linecap:round;fill:none;stroke:#2d3239;stroke-width:1.5px"/>
            <path id="선_11" data-name="선 11" transform="translate(-.01 3.027)" style="stroke-linecap:round;fill:none;stroke:#2d3239;stroke-width:1.5px" d="M0 0h1.5"/>
            <path id="선_166" data-name="선 166" transform="translate(7.49 3.027)" style="stroke-linecap:round;fill:none;stroke:#2d3239;stroke-width:1.5px" d="M0 0h1.5"/>
        </g>
        <g id="사각형_17849" data-name="사각형 17849" transform="rotate(-30 1117.187 -138.65)" style="fill:none;stroke:#2d3239;stroke-width:1.5px">
            <rect width="16" height="5" rx="2.5" style="stroke:none"/>
            <rect x=".75" y=".75" width="14.5" height="3.5" rx="1.75" style="fill:none"/>
        </g>
        <g id="그룹_11905" data-name="그룹 11905" transform="translate(139 -233.982)">
            <rect id="사각형_17848" data-name="사각형 17848" width="16" height="5" rx="2.5" transform="rotate(-30 1484.304 237.718)" style="fill:#fff"/>
            <rect id="사각형_12064" data-name="사각형 12064" width="14.629" height="4" rx="2" transform="rotate(-30 1487.17 234.486)" style="fill:#7dedf3"/>
            <g id="사각형_12063" data-name="사각형 12063" transform="rotate(-30 1484.304 237.718)" style="fill:none;stroke:#2d3239;stroke-width:1.5px">
                <rect width="16" height="5" rx="2.5" style="stroke:none"/>
                <rect x=".75" y=".75" width="14.5" height="3.5" rx="1.75" style="fill:none"/>
            </g>
        </g>
        <circle id="타원_1883" data-name="타원 1883" cx=".75" cy=".75" r=".75" transform="translate(226.5 531.3)" style="fill:#2d3239"/>
    </g>
</svg>
