<svg xmlns="http://www.w3.org/2000/svg" width="44" height="44" viewBox="0 0 44 44">
    <g data-name="그룹 9788">
        <g data-name="그룹 9784">
            <g data-name="그룹 9783">
                <g data-name="사각형 11970" style="stroke-width:1.5px;stroke:#2d3239;fill:#fff">
                    <path d="M5 0h14a5 5 0 0 1 5 5v19H5a5 5 0 0 1-5-5V5a5 5 0 0 1 5-5z" style="stroke:none" transform="translate(7 11.5)"/>
                    <path d="M5 .75h14A4.25 4.25 0 0 1 23.25 5v18.25H5A4.25 4.25 0 0 1 .75 19V5A4.25 4.25 0 0 1 5 .75z" style="fill:none" transform="translate(7 11.5)"/>
                </g>
                <g data-name="사각형 12120" transform="rotate(90 2.25 11.25)" style="fill:none;stroke:#2d3239">
                    <rect width="6" height="1.5" rx=".75" style="stroke:none"/>
                    <rect x=".5" y=".5" width="5" height=".5" rx=".25" style="fill:none"/>
                </g>
                <g data-name="사각형 12121" transform="rotate(90 8.5 17.5)" style="fill:none;stroke:#2d3239">
                    <rect width="6" height="1.5" rx=".75" style="stroke:none"/>
                    <rect x=".5" y=".5" width="5" height=".5" rx=".25" style="fill:none"/>
                </g>
                <g data-name="사각형 11973" transform="rotate(90 6.5 23.5)" style="fill:none;stroke:#2d3239">
                    <rect width="1.5" height="22" rx=".75" style="stroke:none"/>
                    <rect x=".5" y=".5" width=".5" height="21" rx=".25" style="fill:none"/>
                </g>
                <g data-name="그룹 9780">
                    <path data-name="패스 10995" d="M7 0a7 7 0 1 1-7 7 7 7 0 0 1 7-7z" transform="translate(25.401 20.5)" style="fill:#7dedf3"/>
                    <g data-name="타원 1441" transform="translate(22.7 19.5)" style="fill:none;stroke-width:1.5px;stroke:#2d3239">
                        <circle cx="8" cy="8" r="8" style="stroke:none"/>
                        <circle cx="8" cy="8" r="7.25" style="fill:none"/>
                    </g>
                    <g data-name="그룹 9779">
                        <path data-name="패스 2252" d="m3649.636 5413.028 1.75 5 1.75-5 1.75 5 1.75-5" transform="translate(-3622.436 -5387.527)" style="stroke-linejoin:round;stroke-linecap:round;fill:none;stroke-width:1.5px;stroke:#2d3239"/>
                        <path data-name="선 11" transform="translate(26.2 27.5)" style="stroke-linecap:round;fill:none;stroke-width:1.5px;stroke:#2d3239" d="M0 0h1.5"/>
                        <path data-name="선 166" transform="translate(33.7 27.5)" style="stroke-linecap:round;fill:none;stroke-width:1.5px;stroke:#2d3239" d="M0 0h1.5"/>
                    </g>
                </g>
                <g data-name="그룹 9782">
                    <g data-name="사각형 12122" transform="translate(10.5 20.5)" style="stroke-width:1.5px;stroke:#2d3239;fill:#fff">
                        <rect width="5" height="5" rx="1.5" style="stroke:none"/>
                        <rect x=".75" y=".75" width="3.5" height="3.5" rx=".75" style="fill:none"/>
                    </g>
                    <g data-name="사각형 12123" transform="translate(17 20.5)" style="stroke-width:1.5px;stroke:#2d3239;fill:#fff">
                        <rect width="5" height="5" rx="1.5" style="stroke:none"/>
                        <rect x=".75" y=".75" width="3.5" height="3.5" rx=".75" style="fill:none"/>
                    </g>
                    <g data-name="그룹 9781">
                        <g data-name="사각형 12124" transform="translate(10.5 27)" style="stroke-width:1.5px;stroke:#2d3239;fill:#fff">
                            <rect width="5" height="5" rx="1.5" style="stroke:none"/>
                            <rect x=".75" y=".75" width="3.5" height="3.5" rx=".75" style="fill:none"/>
                        </g>
                        <g data-name="사각형 12125" transform="translate(17 27)" style="stroke-width:1.5px;stroke:#2d3239;fill:#fff">
                            <rect width="5" height="5" rx="1.5" style="stroke:none"/>
                            <rect x=".75" y=".75" width="3.5" height="3.5" rx=".75" style="fill:none"/>
                        </g>
                    </g>
                </g>
            </g>
        </g>
    </g>
</svg>
