<svg xmlns="http://www.w3.org/2000/svg" width="20" height="20" viewBox="0 0 20 20">
    <defs>
        <style>
            .cls-4{fill:#2d3239}
        </style>
    </defs>
    <g id="ic_mbti_5_s" transform="translate(-23.59 -749.027)">
        <path id="사각형_7870" data-name="사각형 7870" transform="translate(23.59 749.027)" style="fill:none" d="M0 0h20v20H0z"/>
        <path id="빼기_335" data-name="빼기 335" d="M1.186 15.53c-.578 0-1.165-.69-1.171-.7a58.987 58.987 0 0 1-1.048-.98 31.793 31.793 0 0 0 4.73-5.211 8.491 8.491 0 0 0 1.781-4.692A4.266 4.266 0 0 0 3.458.275 3.668 3.668 0 0 1 4.816 0a4.407 4.407 0 0 1 4.44 4.468c0 2.772-2.193 6.068-6.9 10.373-.008.007-.594.688-1.17.689z" transform="translate(32.637 751.229)" style="fill:#7dedf3"/>
        <g id="_Color" data-name="↳Color" style="stroke-linecap:round;stroke-linejoin:round;stroke-miterlimit:10;fill:none">
            <path d="M8 15.5c-.58 0-1.16-.695-1.16-.695C2.72 11.02 0 7.523 0 4.459A4.387 4.387 0 0 1 4.4 0 5.058 5.058 0 0 1 8 1.971 5.058 5.058 0 0 1 11.6 0 4.387 4.387 0 0 1 16 4.459c0 3.064-2.72 6.561-6.84 10.355 0-.001-.58.686-1.16.686z" style="stroke:none" transform="translate(25.59 751.027)"/>
            <path d="M8.003 13.857a1.103 1.103 0 0 1 .14-.147C12.422 9.772 14.5 6.745 14.5 4.459c0-1.66-1.274-2.959-2.9-2.959-.756 0-1.719.564-2.452 1.436a1.5 1.5 0 0 1-2.296 0C6.119 2.064 5.156 1.5 4.4 1.5c-1.626 0-2.9 1.3-2.9 2.959 0 1.14.541 2.504 1.61 4.05 1.056 1.53 2.608 3.229 4.745 5.192a1.5 1.5 0 0 1 .148.156m0 1.643H8c-.58-.002-1.16-.695-1.16-.695C2.72 11.02 0 7.523 0 4.46 0 1.962 1.936 0 4.4 0 5.792 0 7.128.933 8 1.97 8.872.934 10.208 0 11.6 0 14.064 0 16 1.962 16 4.459c0 3.064-2.72 6.56-6.84 10.354 0 0-.578.687-1.157.687z" style="fill:#2d3239;stroke:none" transform="translate(25.59 751.027)"/>
        </g>
        <rect id="사각형_14338" data-name="사각형 14338" class="cls-4" width="6" height="1.5" rx=".75" transform="translate(30.59 757.813)"/>
        <rect id="사각형_14339" data-name="사각형 14339" class="cls-4" width="1.5" height="6" rx=".75" transform="translate(32.844 755.527)"/>
    </g>
</svg>
