<svg xmlns="http://www.w3.org/2000/svg" xmlns:xlink="http://www.w3.org/1999/xlink" width="36" height="36" viewBox="0 0 36 36">
  <defs>
    <clipPath id="clip">
      <use xlink:href="#fill"/>
    </clipPath>
    <clipPath id="clip-2">
      <use xlink:href="#fill-2"/>
    </clipPath>
  </defs>
  <g id="ic-my-loan-1" transform="translate(-42 -2053)">
    <rect id="사각형_7871" data-name="사각형 7871" width="36" height="36" transform="translate(42 2053)" fill="none"/>
    <path id="합치기_101" data-name="합치기 101" d="M15605.75,924.249a4,4,0,0,1-4-4V907h-2.5a4.249,4.249,0,1,1,0-8.5h21.5a4.249,4.249,0,1,1,0,8.5h-2.5v13.25a4,4,0,0,1-4,4Z" transform="translate(-15550 1158)" fill="#fff" stroke="#2d3239" stroke-width="1.5"/>
    <path id="합치기_102" data-name="합치기 102" d="M15608.375,920.188s0-.059,0-.785a4.013,4.013,0,0,1-.871.1h-8.5a4,4,0,0,1-4-4V898h16.5v16.514c.031.289.053.577.066.853v-3.194s-.125-8.368,0-7.906,3.774,5.385,5,8.584,0,7.337,0,7.337Z" transform="translate(-15543.25 1162.75)" fill="#fff"/>
    <path id="사각형_5641" data-name="사각형 5641" d="M0,0H4.217a0,0,0,0,1,0,0V17.892A2.108,2.108,0,0,1,2.108,20h0A2.108,2.108,0,0,1,0,17.892V0A0,0,0,0,1,0,0Z" transform="translate(49.783 2061)" fill="#7dedf3"/>
    <path id="합치기_396" data-name="합치기 396" d="M15608.375,920.188s0-.059,0-.785a4.013,4.013,0,0,1-.871.1h-8.5a4,4,0,0,1-4-4V898h16.5v16.514c.031.289.053.577.066.853v-3.194s-.125-8.368,0-7.906,3.774,5.385,5,8.584,0,7.337,0,7.337Z" transform="translate(-15543.25 1162.75)" fill="none" stroke="#2d3239" stroke-width="1.5"/>
    <g id="사각형_5643" data-name="사각형 5643" transform="translate(49 2060)" fill="#fff" stroke="#2d3239" stroke-width="2">
      <rect id="fill" width="22" height="1.5" rx="0.75" stroke="none"/>
      <path d="M0,0.5h22M21,0v1.5M22,1h-22M1,1.5v-1.5" fill="none" clip-path="url(#clip)"/>
    </g>
    <path id="패스_2253" data-name="패스 2253" d="M3588.123,5164.958c-.124-.464,0,7.9,0,7.9v4.819s.388-5.645-1.776-5.551-1.409,3.739-1.411,5.551c-.01,3.037,0,3.2,0,3.2h8.185s1.223-4.141,0-7.339S3588.247,5165.421,3588.123,5164.958Z" transform="translate(-3519.809 -3097.939)" fill="none" stroke="#2d3239" stroke-linecap="round" stroke-linejoin="round" stroke-width="1.5"/>
    <g id="사각형_5645" data-name="사각형 5645" transform="translate(64.886 2082)" fill="#fff" stroke="#2d3239" stroke-width="2">
      <rect id="fill-2" width="8.599" height="1.5" stroke="none"/>
      <path d="M0,0.5h8.598953247070312M7.5989532470703125,0v1.5M8.598953247070312,1h-8.598953247070312M1,1.5v-1.5" fill="none" clip-path="url(#clip-2)"/>
    </g>
    <g id="사각형_8425" data-name="사각형 8425" transform="translate(64.3 2082)" fill="#fff" stroke="#2d3239" stroke-width="1.5">
      <path d="M0,0H9.7a0,0,0,0,1,0,0V3.5a1,1,0,0,1-1,1H1a1,1,0,0,1-1-1V0A0,0,0,0,1,0,0Z" stroke="none"/>
      <path d="M.75.75h8.2a0,0,0,0,1,0,0V3.5a.25.25,0,0,1-.25.25H1A.25.25,0,0,1,.75,3.5V.75A0,0,0,0,1,.75.75Z" fill="none"/>
    </g>
    <g id="그룹_5863" data-name="그룹 5863" transform="translate(55.51 2065.972)">
      <path id="패스_2252" data-name="패스 2252" d="M3649.636,5413.028l1.5,5,2-5,2,5,1.5-5" transform="translate(-3648.646 -5412)" fill="none" stroke="#2d3239" stroke-linecap="round" stroke-linejoin="round" stroke-width="1.5"/>
      <line id="선_11" data-name="선 11" x2="1.5" transform="translate(-0.01 3.527)" fill="none" stroke="#2d3239" stroke-linecap="round" stroke-width="1.5"/>
      <line id="선_166" data-name="선 166" x2="1.5" transform="translate(7.49 3.527)" fill="none" stroke="#2d3239" stroke-linecap="round" stroke-width="1.5"/>
    </g>
  </g>
</svg>
