<svg xmlns="http://www.w3.org/2000/svg" width="20" height="20" viewBox="0 0 20 20">
    <defs>
        <style>
            .cls-1{fill:none}
        </style>
    </defs>
    <g id="ic_menu_sns2" transform="translate(-69 -639)">
        <g id="그룹_9339" data-name="그룹 9339" transform="translate(8048.166 11179.166)">
            <path id="사각형_11745" data-name="사각형 11745" class="cls-1" transform="translate(-7978.166 -10538.166)" d="M0 0h18v18H0z"/>
            <path id="빼기_164" data-name="빼기 164" d="M8.353 0C3.739 0 0 3.459 0 7.726a6.757 6.757 0 0 0 3.128 6.027h.009v3.7a.212.212 0 0 0 .339.17l3.167-2.353.069.03a9.07 9.07 0 0 0 1.642.149c4.613 0 8.353-3.459 8.353-7.726S12.966 0 8.353 0m-2.8 9.683a1.745 1.745 0 0 0 1.73-1.247h1.21a2.9 2.9 0 0 1-2.941 2.413A3.072 3.072 0 0 1 2.4 7.717a3.072 3.072 0 0 1 3.153-3.131A2.9 2.9 0 0 1 8.5 7.042H7.294a1.722 1.722 0 0 0-1.741-1.308 1.891 1.891 0 0 0-1.965 1.983 1.938 1.938 0 0 0 1.965 1.966m7.98 1.046h-1.11v-2.5a.8.8 0 0 0-.852-.885c-.576 0-.946.352-.946 1.066v2.323h-1.11V4.6h1.11v2.3a1.423 1.423 0 0 1 1.281-.6 1.523 1.523 0 0 1 1.161.473 1.784 1.784 0 0 1 .465 1.307z" transform="translate(-7977.509 -10538)" style="fill:#f8f8f8"/>
        </g>
        <path id="사각형_14072" data-name="사각형 14072" class="cls-1" transform="translate(69 639)" d="M0 0h20v20H0z"/>
    </g>
</svg>
