<svg xmlns="http://www.w3.org/2000/svg" width="36" height="36" viewBox="0 0 36 36">
  <g id="ic-my-shop-3" transform="translate(-26.33 -750.768)">
    <rect id="사각형_7870" data-name="사각형 7870" width="36" height="36" transform="translate(26.33 750.768)" fill="none"/>
    <g id="사각형_8010" data-name="사각형 8010" transform="translate(33.33 754.268)" fill="#fff" stroke="#2d3239" stroke-width="1.5">
      <path d="M4,0H15a4,4,0,0,1,4,4V26a0,0,0,0,1,0,0H0a0,0,0,0,1,0,0V4A4,4,0,0,1,4,0Z" stroke="none"/>
      <path d="M4,.75H15A3.25,3.25,0,0,1,18.25,4V25.25a0,0,0,0,1,0,0H.75a0,0,0,0,1,0,0V4A3.25,3.25,0,0,1,4,.75Z" fill="none"/>
    </g>
    <g id="사각형_8011" data-name="사각형 8011" transform="translate(32.33 778.768)" fill="#fff" stroke="#2d3239" stroke-width="1.5">
      <rect width="21" height="5" rx="2.5" stroke="none"/>
      <rect x="0.75" y="0.75" width="19.5" height="3.5" rx="1.75" fill="none"/>
    </g>
    <rect id="사각형_8022" data-name="사각형 8022" width="9.5" height="8" rx="3" transform="translate(39.83 758.768)" fill="#7dedf3"/>
    <g id="사각형_8012" data-name="사각형 8012" transform="translate(37.33 758.768)" fill="none" stroke="#2d3239" stroke-width="1.5">
      <rect width="11" height="8" rx="3" stroke="none"/>
      <rect x="0.75" y="0.75" width="9.5" height="6.5" rx="2.25" fill="none"/>
    </g>
    <g id="교차_3" data-name="교차 3" transform="translate(-10169.503 5410.063)" fill="#fff">
      <path d="M 10223.580078125 -4635.248046875 L 10223.580078125 -4639.296875 C 10223.580078125 -4639.98486328125 10223.0205078125 -4640.544921875 10222.33203125 -4640.544921875 C 10222.1806640625 -4640.544921875 10222.0361328125 -4640.51806640625 10221.90234375 -4640.46875 C 10222.017578125 -4640.51171875 10222.138671875 -4640.53759765625 10222.2646484375 -4640.54443359375 C 10222.287109375 -4640.54541015625 10222.3095703125 -4640.5458984375 10222.33203125 -4640.5458984375 C 10223.0205078125 -4640.5458984375 10223.5810546875 -4639.9853515625 10223.5810546875 -4639.296875 L 10223.5810546875 -4635.296875 C 10223.5810546875 -4635.28076171875 10223.5810546875 -4635.26416015625 10223.580078125 -4635.248046875 Z" stroke="none"/>
      <path d="M 10222.830078125 -4633.357421875 L 10222.830078125 -4639.296875 C 10222.830078125 -4639.57177734375 10222.6064453125 -4639.794921875 10222.33203125 -4639.794921875 C 10222.0576171875 -4639.794921875 10221.83203125 -4639.57177734375 10221.83203125 -4639.296875 L 10221.83203125 -4633.359375 C 10221.7333984375 -4633.38427734375 10221.638671875 -4633.41650390625 10221.5478515625 -4633.45556640625 C 10221.087890625 -4633.65185546875 10220.716796875 -4634.01611328125 10220.5107421875 -4634.47119140625 C 10220.509765625 -4634.47216796875 10220.509765625 -4634.47314453125 10220.509765625 -4634.47412109375 C 10220.50390625 -4634.4873046875 10220.498046875 -4634.50048828125 10220.4921875 -4634.513671875 C 10220.4912109375 -4634.515625 10220.490234375 -4634.51708984375 10220.490234375 -4634.51904296875 C 10220.484375 -4634.53076171875 10220.4794921875 -4634.54296875 10220.4755859375 -4634.5546875 C 10220.47265625 -4634.560546875 10220.470703125 -4634.56689453125 10220.4677734375 -4634.5732421875 C 10220.4638671875 -4634.5830078125 10220.4599609375 -4634.59326171875 10220.4560546875 -4634.603515625 C 10220.453125 -4634.6123046875 10220.4501953125 -4634.62158203125 10220.4462890625 -4634.630859375 C 10220.4453125 -4634.634765625 10220.443359375 -4634.638671875 10220.4423828125 -4634.64306640625 C 10220.4384765625 -4634.6533203125 10220.435546875 -4634.6630859375 10220.4326171875 -4634.67333984375 C 10220.4306640625 -4634.6767578125 10220.4296875 -4634.6806640625 10220.4287109375 -4634.68408203125 C 10220.42578125 -4634.69482421875 10220.421875 -4634.70556640625 10220.4189453125 -4634.71630859375 C 10220.41796875 -4634.71826171875 10220.41796875 -4634.72021484375 10220.4169921875 -4634.72216796875 C 10220.40234375 -4634.77294921875 10220.388671875 -4634.82421875 10220.3779296875 -4634.8759765625 C 10220.376953125 -4634.87744140625 10220.376953125 -4634.87841796875 10220.376953125 -4634.87939453125 C 10220.3740234375 -4634.89111328125 10220.3720703125 -4634.90283203125 10220.3701171875 -4634.91455078125 C 10220.369140625 -4634.91748046875 10220.369140625 -4634.92041015625 10220.3681640625 -4634.92333984375 C 10220.3662109375 -4634.93505859375 10220.3642578125 -4634.94677734375 10220.361328125 -4634.95849609375 C 10220.361328125 -4634.96044921875 10220.361328125 -4634.96240234375 10220.3603515625 -4634.96435546875 C 10220.3583984375 -4634.9765625 10220.3564453125 -4634.98876953125 10220.35546875 -4635.0009765625 C 10220.3544921875 -4635.0029296875 10220.3544921875 -4635.0048828125 10220.3544921875 -4635.0068359375 C 10220.3515625 -4635.02783203125 10220.3486328125 -4635.048828125 10220.345703125 -4635.06982421875 C 10220.345703125 -4635.0751953125 10220.3447265625 -4635.0810546875 10220.34375 -4635.08642578125 C 10220.34375 -4635.0947265625 10220.3427734375 -4635.10302734375 10220.341796875 -4635.11083984375 C 10220.3408203125 -4635.1181640625 10220.3408203125 -4635.12548828125 10220.33984375 -4635.1328125 C 10220.3388671875 -4635.140625 10220.3388671875 -4635.1484375 10220.337890625 -4635.15625 C 10220.337890625 -4635.1650390625 10220.3369140625 -4635.17333984375 10220.3369140625 -4635.18212890625 C 10220.3359375 -4635.18896484375 10220.3359375 -4635.1953125 10220.3359375 -4635.2021484375 C 10220.3349609375 -4635.2119140625 10220.3349609375 -4635.22216796875 10220.333984375 -4635.232421875 C 10220.333984375 -4635.23779296875 10220.333984375 -4635.24365234375 10220.333984375 -4635.2490234375 C 10220.333984375 -4635.26513671875 10220.3330078125 -4635.28076171875 10220.3330078125 -4635.296875 L 10220.3330078125 -4639.29443359375 C 10220.3330078125 -4639.57080078125 10220.3896484375 -4639.83447265625 10220.490234375 -4640.07373046875 C 10220.78125 -4640.7607421875 10221.4462890625 -4641.25341796875 10222.2294921875 -4641.29345703125 C 10222.263671875 -4641.294921875 10222.2978515625 -4641.2958984375 10222.33203125 -4641.2958984375 C 10223.435546875 -4641.2958984375 10224.3310546875 -4640.39794921875 10224.3310546875 -4639.296875 L 10224.3310546875 -4635.296875 C 10224.3310546875 -4634.65673828125 10224.0283203125 -4634.0732421875 10223.54296875 -4633.70263671875 C 10223.541015625 -4633.701171875 10223.5390625 -4633.69921875 10223.5361328125 -4633.69775390625 C 10223.5302734375 -4633.69287109375 10223.5234375 -4633.68798828125 10223.5166015625 -4633.68310546875 C 10223.5107421875 -4633.67822265625 10223.50390625 -4633.673828125 10223.498046875 -4633.6689453125 C 10223.4931640625 -4633.666015625 10223.48828125 -4633.66259765625 10223.484375 -4633.6591796875 C 10223.474609375 -4633.65283203125 10223.4658203125 -4633.646484375 10223.4560546875 -4633.64013671875 C 10223.453125 -4633.63818359375 10223.451171875 -4633.63671875 10223.4482421875 -4633.63525390625 C 10223.2626953125 -4633.509765625 10223.0537109375 -4633.41455078125 10222.830078125 -4633.357421875 Z" stroke="none" fill="#2d3239"/>
    </g>
    <g id="교차_4" data-name="교차 4" transform="translate(-10169.502 5410.063)" fill="#fff">
      <path d="M 10224.83203125 -4632.04345703125 C 10224.30859375 -4632.04345703125 10223.8583984375 -4632.36376953125 10223.671875 -4632.822265625 C 10223.859375 -4632.36669921875 10224.30859375 -4632.044921875 10224.83203125 -4632.044921875 C 10225.22265625 -4632.044921875 10225.5712890625 -4632.22412109375 10225.8017578125 -4632.50390625 C 10225.5712890625 -4632.22314453125 10225.22265625 -4632.04345703125 10224.83203125 -4632.04345703125 Z" stroke="none"/>
      <path d="M 10224.83203125 -4631.29345703125 C 10223.7626953125 -4631.29345703125 10222.8857421875 -4632.13671875 10222.8330078125 -4633.193359375 L 10222.8330078125 -4634.19091796875 L 10224.3291015625 -4638.16455078125 L 10224.3291015625 -4633.29541015625 C 10224.3291015625 -4633.01806640625 10224.5546875 -4632.794921875 10224.83203125 -4632.794921875 C 10225.109375 -4632.794921875 10225.3349609375 -4633.01806640625 10225.3349609375 -4633.29541015625 L 10225.3349609375 -4644.37060546875 C 10225.6298828125 -4644.486328125 10226.00390625 -4644.6083984375 10226.3232421875 -4644.6328125 C 10226.6435546875 -4644.27490234375 10226.833984375 -4643.8037109375 10226.833984375 -4643.29736328125 L 10226.833984375 -4633.29541015625 C 10226.833984375 -4632.19140625 10225.935546875 -4631.29345703125 10224.83203125 -4631.29345703125 Z" stroke="none" fill="#2d3239"/>
    </g>
    <g id="패스_3488" data-name="패스 3488" transform="translate(53.33 759.768)" fill="#fff" stroke-linecap="round" stroke-linejoin="round">
      <path d="M 4.25 6.25 L 1.91829252243042 6.25 L 0.75 4.358471870422363 L 0.75 0.75 L 4.25 0.75 L 4.25 6.25 Z" stroke="none"/>
      <path d="M 1.5 1.5 L 1.5 4.145524024963379 L 2.33658504486084 5.5 L 3.5 5.5 L 3.5 1.5 L 1.5 1.5 M 0 0 L 5 0 L 5 7 L 1.5 7 L 0 4.571419715881348 L 0 0 Z" stroke="none" fill="#2d3239"/>
    </g>
    <path id="패스_3489" data-name="패스 3489" d="M56.082,753.141l1.984,2.271v3.008" transform="translate(-2 2)" fill="none" stroke="#2d3239" stroke-linecap="round" stroke-linejoin="round" stroke-width="1.5"/>
  </g>
</svg>
