<svg xmlns="http://www.w3.org/2000/svg" width="36" height="36" viewBox="0 0 36 36">
  <g id="ic_mobile" transform="translate(-24 -691)">
    <path id="패스_12234" data-name="패스 12234" d="M0,0H36V36H0Z" transform="translate(24 691)" fill="none"/>
    <path id="패스_12235" data-name="패스 12235" d="M1,0H18a1,1,0,0,1,1,1V21a1,1,0,0,1-1,1H1a1,1,0,0,1-1-1V1A1,1,0,0,1,1,0Z" transform="translate(34 700)" fill="#7dedf3"/>
    <g id="패스_12236" data-name="패스 12236" transform="translate(31 693)" fill="none">
      <path d="M4,0H17a4,4,0,0,1,4,4V29a4,4,0,0,1-4,4H4a4,4,0,0,1-4-4V4A4,4,0,0,1,4,0Z" stroke="none"/>
      <path d="M 4 1.5 C 2.621500015258789 1.5 1.5 2.621500015258789 1.5 4 L 1.5 29 C 1.5 30.37849998474121 2.621500015258789 31.5 4 31.5 L 17 31.5 C 18.37849998474121 31.5 19.5 30.37849998474121 19.5 29 L 19.5 4 C 19.5 2.621500015258789 18.37849998474121 1.5 17 1.5 L 4 1.5 M 4 0 L 17 0 C 19.20914077758789 0 21 1.790859222412109 21 4 L 21 29 C 21 31.20914077758789 19.20914077758789 33 17 33 L 4 33 C 1.790859222412109 33 0 31.20914077758789 0 29 L 0 4 C 0 1.790859222412109 1.790859222412109 0 4 0 Z" stroke="none" fill="#2d3239"/>
    </g>
    <g id="패스_12237" data-name="패스 12237" transform="translate(40 721.5)" fill="#fff">
      <path d="M.75,0h1.5a.75.75,0,0,1,0,1.5H.75A.75.75,0,0,1,.75,0Z" stroke="none"/>
      <path d="M 0.75 0 L 2.25 0 C 2.664210081100464 0 3 0.3357900381088257 3 0.75 C 3 1.164209961891174 2.664210081100464 1.5 2.25 1.5 L 0.75 1.5 C 0.3357899188995361 1.5 0 1.164209961891174 0 0.75 C 0 0.3357900381088257 0.3357899188995361 0 0.75 0 Z" stroke="none" fill="#2d3239"/>
    </g>
    <g id="패스_12238" data-name="패스 12238" transform="translate(31.7 697)" fill="none">
      <path d="M.75,0h18.8a.75.75,0,0,1,0,1.5H.75A.75.75,0,0,1,.75,0Z" stroke="none"/>
      <path d="M 0.7500019073486328 0 L 19.54980278015137 0 C 19.96402168273926 0 20.29980278015137 0.3357900381088257 20.29980278015137 0.75 C 20.29980278015137 1.164209961891174 19.96402168273926 1.5 19.54980278015137 1.5 L 0.7500019073486328 1.5 C 0.3357830047607422 1.5 1.9073486328125e-06 1.164209961891174 1.9073486328125e-06 0.75 C 1.9073486328125e-06 0.3357900381088257 0.3357830047607422 0 0.7500019073486328 0 Z" stroke="none" fill="#2d3239"/>
    </g>
    <g id="패스_12239" data-name="패스 12239" transform="translate(31.7 719)" fill="none">
      <path d="M.75,0h18.8a.75.75,0,0,1,0,1.5H.75A.75.75,0,0,1,.75,0Z" stroke="none"/>
      <path d="M 0.7500019073486328 0 L 19.54980278015137 0 C 19.96402168273926 0 20.29980278015137 0.3357900381088257 20.29980278015137 0.75 C 20.29980278015137 1.164209961891174 19.96402168273926 1.5 19.54980278015137 1.5 L 0.7500019073486328 1.5 C 0.3357830047607422 1.5 1.9073486328125e-06 1.164209961891174 1.9073486328125e-06 0.75 C 1.9073486328125e-06 0.3357900381088257 0.3357830047607422 0 0.7500019073486328 0 Z" stroke="none" fill="#2d3239"/>
    </g>
  </g>
</svg>
