<svg xmlns="http://www.w3.org/2000/svg" width="36" height="36" viewBox="0 0 36 36">
    <defs>
        <clipPath id="bpvelmleoa">
            <path data-name="사각형 16712" transform="translate(272 467)" style="fill:#dedede" d="M0 0h36v36H0z"/>
        </clipPath>
    </defs>
    <g data-name="그룹 13419" transform="translate(-272 -467)" style="clip-path:url(#bpvelmleoa)">
        <g data-name="그룹 12507">
            <g data-name="사각형 12097" transform="translate(277 470)" style="stroke-width:1.5px;stroke:#2d3239;fill:#fff">
                <rect width="18" height="30" rx="4" style="stroke:none"/>
                <rect x=".75" y=".75" width="16.5" height="28.5" rx="3.25" style="fill:none"/>
            </g>
            <path data-name="사각형 12101" transform="translate(277.328 494.05)" style="fill:#2d3239" d="M0 0h14.001v1.5H0z"/>
            <path data-name="사각형 12139" transform="translate(277.328 474.487)" style="fill:#2d3239" d="M0 0h17.258v1.5H0z"/>
        </g>
        <g data-name="사각형 15458" transform="rotate(90 -98.41 387.91)" style="fill:none;stroke:#2d3239">
            <rect width="1.5" height="7" rx=".75" style="stroke:none"/>
            <rect x=".5" y=".5" width=".5" height="6" rx=".25" style="fill:none"/>
        </g>
        <g data-name="사각형 15459" transform="translate(283 479)" style="fill:none;stroke-width:1.5px;stroke:#2d3239">
            <rect width="6" height="6" rx="3" style="stroke:none"/>
            <rect x=".75" y=".75" width="4.5" height="4.5" rx="2.25" style="fill:none"/>
        </g>
        <g data-name="그룹 12510">
            <g data-name="합치기 169" style="fill:#fff">
                <path d="M2.66 13.437a1.025 1.025 0 0 1-1.023-1.023V5.468l-.332-.223A1.25 1.25 0 0 1 .75 4.207V2C.75 1.31 1.31.75 2 .75h1.32c.69 0 1.25.56 1.25 1.25v2.207c0 .417-.207.805-.555 1.038l-.332.223V12.414c0 .564-.459 1.023-1.023 1.023z" style="stroke:none" transform="scale(-1) rotate(37 597.222 -683.276)"/>
                <path d="M2.66 12.687c.15 0 .273-.123.273-.273V5.068l.664-.445a.5.5 0 0 0 .223-.416V2a.5.5 0 0 0-.5-.5H2a.5.5 0 0 0-.5.5v2.207a.5.5 0 0 0 .223.416l.664.445v7.346c0 .15.122.273.273.273m0 1.5c-.98 0-1.773-.794-1.773-1.773V5.868A1.998 1.998 0 0 1 0 4.207V2a2 2 0 0 1 2-2h1.32a2 2 0 0 1 2 2v2.207c0 .692-.352 1.302-.887 1.661v6.546c0 .979-.793 1.773-1.773 1.773z" style="fill:#2d3239;stroke:none" transform="scale(-1) rotate(37 597.222 -683.276)"/>
            </g>
            <path data-name="합치기 171" d="M.887 9.31v-6A1.774 1.774 0 0 1 1.773 0h4.434a1.774 1.774 0 0 1 .886 3.309v6a3.1 3.1 0 1 1-6.207 0z" transform="scale(-1) rotate(37 581.985 -690.583)" style="fill:#f8f8f8"/>
            <path data-name="합치기 170" d="M.887 9.31v-6A1.774 1.774 0 0 1 1.773 0h4.434a1.774 1.774 0 0 1 .886 3.309v6a3.1 3.1 0 1 1-6.207 0z" transform="scale(-1) rotate(37 582.387 -693.424)" style="fill:#7dedf3"/>
            <g data-name="합치기 168" style="fill:none">
                <path d="M.887 9.31v-6A1.774 1.774 0 0 1 1.773 0h4.434a1.774 1.774 0 0 1 .886 3.309v6a3.1 3.1 0 1 1-6.207 0z" style="stroke:none" transform="scale(-1) rotate(37 581.985 -690.583)"/>
                <path d="M3.99 10.914c.884 0 1.604-.72 1.604-1.604V2.445l.748-.434a.273.273 0 0 0-.135-.511H1.773a.273.273 0 0 0-.135.511l.749.434V9.31c0 .884.719 1.604 1.603 1.604m0 1.5A3.104 3.104 0 0 1 .887 9.31v-6A1.774 1.774 0 0 1 1.773 0h4.434a1.773 1.773 0 0 1 .887 3.31v6a3.104 3.104 0 0 1-3.104 3.104z" style="fill:#2d3239;stroke:none" transform="scale(-1) rotate(37 581.985 -690.583)"/>
            </g>
            <path data-name="선 325" transform="scale(-1) rotate(37 574.027 -686.615)" style="stroke-linecap:round;fill:none;stroke-width:1.5px;stroke:#2d3239" d="M0 0v4.433"/>
        </g>
    </g>
</svg>
