<svg xmlns="http://www.w3.org/2000/svg" width="20" height="20" viewBox="0 0 20 20">
    <defs>
        <style>
            .cls-6{fill:#2d3239}
        </style>
    </defs>
    <g id="ic_mbti_4_s" transform="translate(-23.59 -749.027)">
        <path id="사각형_7870" data-name="사각형 7870" transform="translate(23.59 749.027)" style="fill:none" d="M0 0h20v20H0z"/>
        <g id="그룹_12802" data-name="그룹 12802" transform="translate(22.814 751.71)">
            <g id="그룹_2861" data-name="그룹 2861" transform="translate(2.865)">
                <path id="패스_12286" data-name="패스 12286" d="M866.537 745.469a1.925 1.925 0 0 1-.191 1.109 1.211 1.211 0 0 1-1.109.5c-.488.02-4.3.306-4.966 0s-9.354-6.583-9.737-6.9a1.223 1.223 0 0 1-.492-1.136 5.579 5.579 0 0 1 .734-1.483" transform="translate(-849.897 -733.366)" style="stroke-linecap:round;stroke-linejoin:round;stroke:#2d3239;stroke-width:1.5px;fill:#fff"/>
                <path id="빼기_361" data-name="빼기 361" d="M-20423.445 10301.024h-3.955a.516.516 0 0 1-.3-.1l-2.107-1.5-7.652-6c-.238-.218-.141-.365.186-.854l2.5-3.737a.522.522 0 0 1 .436-.243.51.51 0 0 1 .293.094l.625.441a.616.616 0 0 1 .205.282 5.512 5.512 0 0 0 .945 1.659l-1 1.5c-.328.491-.428.64-.189.857l7.652 6 2.109 1.5a.505.505 0 0 0 .252.095z" transform="translate(20438.076 -10289.272)" style="fill:#7dedf3"/>
                <path id="패스_2282" data-name="패스 2282" d="M852.213 735.862c-.239-.205-.145-.343.2-.814l2.562-3.526a.551.551 0 0 1 .749-.141l.641.419a.56.56 0 0 1 .214.266 3.991 3.991 0 0 0 5.1 2.6.554.554 0 0 1 .7.353l.075.234.695 2.166.071.222.695 2.166.018.055a.55.55 0 0 0 .524.381h.621a2.806 2.806 0 0 1 2.811 2.8h-5.349a.55.55 0 0 1-.3-.09l-2.166-1.42z" transform="translate(-851.233 -731.292)" style="stroke:#2d3239;stroke-width:1.5px;fill:none"/>
                <path id="패스_2283" data-name="패스 2283" d="M866.537 745.469a1.925 1.925 0 0 1-.191 1.109 1.211 1.211 0 0 1-1.109.5c-.488.02-4.3.306-4.966 0s-9.354-6.583-9.737-6.9a1.223 1.223 0 0 1-.492-1.136 5.579 5.579 0 0 1 .734-1.483" transform="translate(-849.897 -733.366)" style="stroke-linecap:round;stroke-linejoin:round;stroke:#2d3239;stroke-width:1.5px;fill:none"/>
            </g>
            <rect id="사각형_4709" data-name="사각형 4709" class="cls-6" width="5.968" height="1.5" rx=".75" transform="translate(2.775 13.59)"/>
            <rect id="사각형_4710" data-name="사각형 4710" class="cls-6" width="4.178" height="1.5" rx=".75" transform="translate(1.275 11.09)"/>
            <rect id="사각형_15779" data-name="사각형 15779" class="cls-6" width="2.984" height="1.5" rx=".75" transform="rotate(-14.98 27.07 -41.473)"/>
            <rect id="사각형_15780" data-name="사각형 15780" class="cls-6" width="2.984" height="1.5" rx=".75" transform="rotate(-14.98 35.801 -42.632)"/>
        </g>
    </g>
</svg>
