<svg id="ic-my-view-3" xmlns="http://www.w3.org/2000/svg" width="36" height="36" viewBox="0 0 36 36">
  <rect id="사각형_17582" data-name="사각형 17582" width="36" height="36" transform="translate(0 0)" fill="rgba(255,255,255,0)"/>
  <path id="패스_12606" data-name="패스 12606" d="M2,7.773,10.357,4.5l8.357,3.274L28,4.5V25.228L18.714,28.5l-8.357-3.272L2,28.5Z" fill="#fff" stroke="#2d3239" stroke-linejoin="round" stroke-width="1.5"/>
  <rect id="사각형_17580" data-name="사각형 17580" width="1.5" height="21" transform="translate(9.75 4.5)" fill="#2d3239"/>
  <rect id="사각형_17581" data-name="사각형 17581" width="1.5" height="21" transform="translate(18 7.5)" fill="#2d3239"/>
  <g id="패스_12609" data-name="패스 12609">
    <path id="패스_14596" data-name="패스 14596" d="M28,31.75c-.19-.016-1.019-.465-2.378-2.282a23.781,23.781,0,0,1-2.988-5.4,5.9,5.9,0,0,1-.383-1.988,5.75,5.75,0,1,1,11.5,0,7.265,7.265,0,0,1-.391,2.28,18.89,18.89,0,0,1-2.828,5.023C29.187,31.116,28.248,31.724,28,31.75Z" fill="#fff"/>
    <path id="패스_14597" data-name="패스 14597" d="M28,17.082a4.937,4.937,0,0,0-4.661,6.735,23.271,23.271,0,0,0,2.667,4.906,9.488,9.488,0,0,0,2,2.2,10.353,10.353,0,0,0,2.133-2.253,17.774,17.774,0,0,0,2.514-4.547A6.5,6.5,0,0,0,33,22.082a5.006,5.006,0,0,0-5-5m0-1.5a6.5,6.5,0,0,1,6.5,6.5,8,8,0,0,1-.431,2.521c-1.253,3.62-4.715,7.9-6.069,7.9s-4.471-4.035-6.073-8.176a6.638,6.638,0,0,1-.427-2.242A6.5,6.5,0,0,1,28,15.582Z" fill="#2d3239"/>
  </g>
  <path id="패스_12608" data-name="패스 12608" d="M29.55,17a5.75,5.75,0,0,1,5.75,5.75,7.081,7.081,0,0,1-.381,2.23c-1.108,3.2-4.171,6.986-5.369,6.986S25.6,28.4,24.178,24.733A5.893,5.893,0,0,1,23.8,22.75,5.75,5.75,0,0,1,29.55,17Z" fill="#7dedf3"/>
  <g id="패스_12607" data-name="패스 12607">
    <path id="패스_14598" data-name="패스 14598" d="M28,15.582a6.5,6.5,0,0,1,6.5,6.5,8.012,8.012,0,0,1-.431,2.521c-1.253,3.62-4.715,7.9-6.069,7.9s-4.471-4.038-6.073-8.179a6.636,6.636,0,0,1-.427-2.242A6.5,6.5,0,0,1,28,15.582Z" fill="none"/>
    <path id="패스_14599" data-name="패스 14599" d="M28,17.082a4.937,4.937,0,0,0-4.661,6.735,23.271,23.271,0,0,0,2.667,4.906,9.488,9.488,0,0,0,2,2.2,10.353,10.353,0,0,0,2.133-2.253,17.774,17.774,0,0,0,2.514-4.547A6.5,6.5,0,0,0,33,22.082a5.006,5.006,0,0,0-5-5m0-1.5a6.5,6.5,0,0,1,6.5,6.5,8,8,0,0,1-.431,2.521c-1.253,3.62-4.715,7.9-6.069,7.9s-4.471-4.035-6.073-8.176a6.638,6.638,0,0,1-.427-2.242A6.5,6.5,0,0,1,28,15.582Z" fill="#2d3239"/>
  </g>
  <g id="타원_2003" data-name="타원 2003">
    <circle id="타원_2447" data-name="타원 2447" cx="3.25" cy="3.25" r="3.25" transform="translate(24.75 18.83)" fill="#fff"/>
    <circle id="타원_2448" data-name="타원 2448" cx="2.5" cy="2.5" r="2.5" transform="translate(25.5 19.58)" fill="none" stroke="#2d3239" stroke-width="1.5"/>
  </g>
  <path id="다각형_105" data-name="다각형 105" d="M8.659,9.2a.1.1,0,0,1,.132-.051.1.1,0,0,1,.051.051l1.01,2.267a.1.1,0,0,0,.078.058l2.37.313a.1.1,0,0,1,.086.113.1.1,0,0,1-.029.057l-1.749,1.723a.1.1,0,0,0-.028.089l.449,2.467a.1.1,0,0,1-.086.112.1.1,0,0,1-.062-.012L8.8,15.187a.1.1,0,0,0-.1,0l-2.08,1.2a.1.1,0,0,1-.136-.038.1.1,0,0,1-.012-.062L6.92,13.82a.1.1,0,0,0-.028-.089L5.146,12.008a.1.1,0,0,1,0-.141.093.093,0,0,1,.055-.029l2.37-.313a.1.1,0,0,0,.078-.058Z" fill="#7dedf3" stroke="#2d3239" stroke-width="1.5"/>
</svg>
