<svg xmlns="http://www.w3.org/2000/svg" width="36" height="36" viewBox="0 0 36 36">
    <g transform="translate(-24 -2341)">
        <path data-name="사각형 7872" transform="translate(24 2341)" style="fill:none" d="M0 0h36v36H0z"/>
        <g data-name="빼기 85" style="stroke-linejoin:round;stroke-linecap:round;fill:none">
            <path d="M15987.5-5752.5h-13a6.553 6.553 0 0 1-6.5-6.587V-5763h1.517v3.312a5.733 5.733 0 0 0 5.765 5.688H15986.829a5.964 5.964 0 0 0 4.309-1.591 5.066 5.066 0 0 0 1.375-3.772c-.088-9.05-4.834-13.154-8.8-15a17.417 17.417 0 0 0-2.907-.172 14.519 14.519 0 0 0-2.684.172 15.689 15.689 0 0 0-7.751 7.362h-1.613a14.968 14.968 0 0 1 3.757-5.375 18.183 18.183 0 0 1 5.1-3.38 20.68 20.68 0 0 1 3.72-.243 15.749 15.749 0 0 1 2.707.159 16.739 16.739 0 0 1 6.725 5.358 19.067 19.067 0 0 1 3.229 11.4 6.553 6.553 0 0 1-6.496 6.582z" style="stroke:none" transform="translate(-15936 8126)"/>
            <path d="M15987.498-5752.499h-12.997c-3.585 0-6.502-2.955-6.502-6.587V-5763h1.517v3.312c0 3.136 2.586 5.688 5.764 5.688h11.347c.034 0 .068 0 .102.002l.103.002c1.765 0 3.295-.565 4.309-1.59.93-.944 1.393-2.212 1.375-3.773-.088-9.05-4.834-13.154-8.8-15.004-.454-.105-1.595-.172-2.906-.172-1.005 0-2.239.045-2.684.172-2.544 1.096-6.1 3.683-7.751 7.362h-1.613c.742-1.908 2.042-3.766 3.757-5.375 1.504-1.412 3.316-2.612 5.101-3.38.583-.167 2.337-.243 3.72-.243 1.262 0 2.273.06 2.707.159 2.897 1.353 5.098 3.105 6.724 5.358 2.143 2.966 3.23 6.8 3.23 11.396 0 3.632-2.917 6.587-6.503 6.587z" style="fill:#2d3239;stroke:none" transform="translate(-15936 8126)"/>
        </g>
        <path data-name="사각형 8426" transform="translate(39 2370)" style="fill:#fff" d="M0 0h4v4H0z"/>
        <g data-name="패스 2251" style="fill:none">
            <path d="M1.143 0h5.714A2.262 2.262 0 0 1 9 2.365v.788a4.731 4.731 0 0 1-2.6 3.895 7.2 7.2 0 0 1-4.455.181A4.733 4.733 0 0 1-1 3.154v-.789A2.262 2.262 0 0 1 1.143 0z" style="stroke:none" transform="translate(41 2344)"/>
            <path d="M1.143 1.5C.794 1.5.5 1.896.5 2.365v.789c0 1.232 1.064 2.265 2.053 2.704l.008.004c.08.036.48.138 1.231.138.939 0 1.65-.153 1.835-.238C6.33 5.33 7.5 4.422 7.5 3.154v-.789c0-.469-.294-.865-.643-.865H1.143m0-1.5h5.714C8.041 0 9 1.059 9 2.365v.789c0 1.544-.998 2.915-2.6 3.894-.777.482-3.451.634-4.455.181C.365 6.528-1 4.96-1 3.154v-.789C-1 1.06-.04 0 1.143 0z" style="fill:#2d3239;stroke:none" transform="translate(41 2344)"/>
        </g>
        <rect data-name="사각형 5634" width="13.919" height="4.761" rx="2.38" transform="translate(28.04 2369.238)" style="fill:#7dedf3"/>
        <rect data-name="사각형 5635" width="13.602" height="4.761" rx="2.38" transform="translate(26 2365.619)" style="fill:#7dedf3"/>
        <rect data-name="사각형 5636" width="13.602" height="4.761" rx="2.38" transform="translate(30.397 2362)" style="fill:#7dedf3"/>
        <g data-name="사각형 5637" transform="translate(29 2369)" style="stroke:#2d3239;stroke-width:1.5px;fill:none">
            <rect width="15" height="5" rx="2.5" style="stroke:none"/>
            <rect x=".75" y=".75" width="13.5" height="3.5" rx="1.75" style="fill:none"/>
        </g>
        <g data-name="사각형 5638" transform="translate(27 2365.5)" style="stroke:#2d3239;stroke-width:1.5px;fill:none">
            <rect width="15" height="5" rx="2.5" style="stroke:none"/>
            <rect x=".75" y=".75" width="13.5" height="3.5" rx="1.75" style="fill:none"/>
        </g>
        <g data-name="사각형 5639" transform="translate(31.001 2362)" style="stroke:#2d3239;stroke-width:1.5px;fill:none">
            <rect width="15" height="5" rx="2.5" style="stroke:none"/>
            <rect x=".75" y=".75" width="13.5" height="3.5" rx="1.75" style="fill:none"/>
        </g>
        <g data-name="그룹 5868">
            <path data-name="패스 2252" d="m3649.636 5413.028 1.5 5 2-5 2 5 1.5-5" transform="translate(-3608.136 -3057.528)" style="stroke:#2d3239;stroke-width:1.5px;stroke-linejoin:round;stroke-linecap:round;fill:none"/>
            <path data-name="선 11" transform="translate(40.5 2357.999)" style="stroke:#2d3239;stroke-width:1.5px;stroke-linecap:round;fill:none" d="M0 0h1.5"/>
            <path data-name="선 166" transform="translate(48 2357.999)" style="stroke:#2d3239;stroke-width:1.5px;stroke-linecap:round;fill:none" d="M0 0h1.5"/>
        </g>
        <rect data-name="사각형 8479" width="1.5" height="2" rx=".75" transform="rotate(25 -5300.809 1254.015)" style="fill:#2d3239"/>
    </g>
</svg>
