<svg xmlns="http://www.w3.org/2000/svg" width="36" height="36" viewBox="0 0 36 36">
    <path data-name="사각형 7912" style="fill:none" d="M0 0h36v36H0z"/>
    <g data-name="그룹 14975" transform="translate(-31 -284)">
        <path data-name="빼기 69" d="M15901.282-20097h-7.042a.566.566 0 0 1-.309-.658.674.674 0 0 1 .668-.568h2.958a1.623 1.623 0 0 0 1.479-1.732 1.619 1.619 0 0 0-1.479-1.727h-7.647v-5.568a7.758 7.758 0 0 1 7.749-7.748 7.76 7.76 0 0 1 7.754 7.748v5.719l-3.4 4.07a1.438 1.438 0 0 1-.729.463z" transform="translate(-15851.41 20408)" style="fill:#7dedf3"/>
        <g data-name="빼기 68" style="fill:none">
            <path d="M15906.412-20094.955h-6.7a.566.566 0 0 1-.432-.172.578.578 0 0 1-.139-.391.693.693 0 0 1 .7-.711h3.055a1.638 1.638 0 0 0 1.524-1.73 1.636 1.636 0 0 0-1.524-1.727H15893v-6.814a8.01 8.01 0 0 1 8-8 8.01 8.01 0 0 1 8 8v9.287l-1.509 1.752a1.434 1.434 0 0 1-1.079.506z" style="stroke:none" transform="translate(-15857 20406)"/>
            <path d="m15906.37-20096.455 1.131-1.315v-8.73a6.508 6.508 0 0 0-6.501-6.502 6.508 6.508 0 0 0-6.501 6.502l.001 5.314h8.394c1.668 0 3.024 1.448 3.024 3.227a3.38 3.38 0 0 1-.349 1.504h.8m.043 1.5h-6.704c-.18 0-.33-.06-.432-.172a.578.578 0 0 1-.138-.39c0-.344.246-.712.7-.712h3.056c.84 0 1.524-.775 1.524-1.73 0-.953-.684-1.727-1.524-1.727H15893l-.001-6.814c0-4.412 3.589-8.002 8.001-8.002 4.412 0 8.001 3.59 8.001 8.002v9.287l-1.509 1.752a1.434 1.434 0 0 1-1.08.506z" style="fill:#2d3239;stroke:none" transform="translate(-15857 20406)"/>
        </g>
        <g data-name="사각형 5289" style="stroke:#2d3239;stroke-width:1.5px;fill:none">
            <path d="M.9 0h4.2a.9.9 0 0 1 .9.9V2a3 3 0 0 1-3 3 3 3 0 0 1-3-3V.9A.9.9 0 0 1 .9 0z" style="stroke:none" transform="translate(41 288)"/>
            <path d="M1.364.75h3.272a.614.614 0 0 1 .614.614V2A2.25 2.25 0 0 1 3 4.25 2.25 2.25 0 0 1 .75 2v-.636A.614.614 0 0 1 1.364.75z" style="fill:none" transform="translate(41 288)"/>
        </g>
        <g data-name="사각형 5287" style="stroke:#2d3239;stroke-width:1.5px;fill:none">
            <path d="M3 0h2v11.2H3a3 3 0 0 1-3-3V3a3 3 0 0 1 3-3z" style="stroke:none" transform="translate(31 304.8)"/>
            <path d="M3 .75h1.25v9.7H3A2.25 2.25 0 0 1 .75 8.2V3A2.25 2.25 0 0 1 3 .75z" style="fill:none" transform="translate(31 304.8)"/>
        </g>
        <g data-name="패스 2138" style="fill:none">
            <path d="m189.808 396.011-4.8 5.542a1.432 1.432 0 0 1-1.079.506h-14.675v-8.186h9.892a1.742 1.742 0 0 1 0 3.458h-3.052c-.843 0-.976 1.27-.133 1.27h6.7a1.441 1.441 0 0 0 1.079-.507l3.905-4.529a1.4 1.4 0 0 1 2.158 0 1.9 1.9 0 0 1 0 2.445z" style="stroke:none" transform="translate(-133.254 -87.559)"/>
            <path d="M188.729 393.06c-.408 0-.791.179-1.08.506l-3.905 4.529a1.441 1.441 0 0 1-1.079.507h-6.704c-.843 0-.71-1.27.133-1.27h3.052c.842 0 1.527-.776 1.527-1.73 0-.953-.685-1.729-1.527-1.729h-9.892v8.186h14.675c.408 0 .791-.18 1.08-.506l4.799-5.542c.595-.674.595-1.771 0-2.445a1.432 1.432 0 0 0-1.08-.507m0-1.5c.845 0 1.627.36 2.204 1.014 1.095 1.24 1.097 3.183.005 4.425l-4.804 5.548c-.577.653-1.36 1.013-2.204 1.013h-16.175v-11.186h11.392c1.669 0 3.027 1.449 3.027 3.23 0 .54-.126 1.05-.347 1.499h.794l3.904-4.528c.577-.655 1.36-1.015 2.205-1.015z" style="fill:#2d3239;stroke:none" transform="translate(-133.254 -87.559)"/>
        </g>
        <circle data-name="타원 10" cx=".605" cy=".605" r=".605" transform="translate(41.998 309.529)" style="fill:none"/>
        <g data-name="그룹 5861">
            <path data-name="패스 2252" d="m3649.637 5413.028 1.5 4 1.5-4 1.5 4 1.5-4" transform="translate(-3608.636 -5115.027)" style="stroke-linejoin:round;stroke-linecap:round;stroke:#2d3239;stroke-width:1.5px;fill:none"/>
            <path data-name="선 11" transform="translate(40 300)" style="stroke-linecap:round;stroke:#2d3239;stroke-width:1.5px;fill:none" d="M0 0h1.5"/>
            <path data-name="선 166" transform="translate(46.5 300)" style="stroke-linecap:round;stroke:#2d3239;stroke-width:1.5px;fill:none" d="M0 0h1.5"/>
        </g>
    </g>
</svg>
