<svg xmlns="http://www.w3.org/2000/svg" width="20" height="20" viewBox="0 0 20 20">
  <g id="ic_mbti_2_s" transform="translate(-38 -312)">
    <g id="사각형_14299" data-name="사각형 14299" transform="translate(38 312)" fill="none" stroke="#fff" stroke-width="1" opacity="0">
      <rect width="20" height="20" stroke="none"/>
      <rect x="0.5" y="0.5" width="19" height="19" fill="none"/>
    </g>
    <g id="그룹_12191" data-name="그룹 12191" transform="translate(5695 -428)">
      <path id="사각형_14167" data-name="사각형 14167" d="M2,0H12.5a2,2,0,0,1,2,2V3.338a0,0,0,0,1,0,0H0a0,0,0,0,1,0,0V2A2,2,0,0,1,2,0Z" transform="matrix(0.966, -0.259, 0.259, 0.966, -5654.676, 744.383)" fill="#7dedf3"/>
      <line id="선_328" data-name="선 328" x2="3.441" y2="3.547" transform="matrix(0.966, -0.259, 0.259, 0.966, -5652, 744.5)" fill="none"/>
      <line id="선_329" data-name="선 329" x2="3.754" y2="3.219" transform="matrix(0.966, -0.259, 0.259, 0.966, -5647, 743.5)" fill="none"/>
      <g id="사각형_14385" data-name="사각형 14385" transform="translate(-5655 748)" fill="none" stroke="#2d3239" stroke-width="1.5">
        <path d="M0,0H15a1,1,0,0,1,1,1V9a2,2,0,0,1-2,2H2A2,2,0,0,1,0,9V0A0,0,0,0,1,0,0Z" stroke="none"/>
        <path d="M1.5.75H15a.25.25,0,0,1,.25.25V9A1.25,1.25,0,0,1,14,10.25H2A1.25,1.25,0,0,1,.75,9V1.5A.75.75,0,0,1,1.5.75Z" fill="none"/>
      </g>
      <g id="사각형_14167-2" data-name="사각형 14167" transform="matrix(0.966, -0.259, 0.259, 0.966, -5656, 745.038)" fill="none" stroke="#2d3239" stroke-width="1.5">
        <path d="M2,0H13.6a2,2,0,0,1,2,2V4.8a0,0,0,0,1,0,0H0a0,0,0,0,1,0,0V2A2,2,0,0,1,2,0Z" stroke="none"/>
        <path d="M2,.75H13.6A1.25,1.25,0,0,1,14.85,2V3.3a.75.75,0,0,1-.75.75H1.5A.75.75,0,0,1,.75,3.3V2A1.25,1.25,0,0,1,2,.75Z" fill="none"/>
      </g>
      <line id="선_328-2" data-name="선 328" x2="3.441" y2="3.547" transform="matrix(0.966, -0.259, 0.259, 0.966, -5652.574, 744.69)" fill="none" stroke="#2d3239" stroke-width="1.5"/>
      <line id="선_329-2" data-name="선 329" x2="3.754" y2="3.219" transform="matrix(0.966, -0.259, 0.259, 0.966, -5647.574, 743.5)" fill="none" stroke="#2d3239" stroke-width="1.5"/>
      <path id="다각형_4" data-name="다각형 4" d="M2.722,1.608a1,1,0,0,1,1.755,0L6.393,5.116a1,1,0,0,1-.878,1.479H1.685A1,1,0,0,1,.807,5.116Z" transform="translate(-5642.445 750) rotate(90)" fill="none"/>
      <g id="다각형_106" data-name="다각형 106" transform="translate(-5642.654 750) rotate(90)" fill="none">
        <path d="M2.722,1.608a1,1,0,0,1,1.755,0L6.393,5.116a1,1,0,0,1-.878,1.479H1.685A1,1,0,0,1,.807,5.116Z" stroke="none"/>
        <path d="M 3.600000381469727 3.130570888519287 L 2.527782917022705 5.094727516174316 L 4.672220230102539 5.094727516174316 L 3.600000381469727 3.130570888519287 M 3.60000205039978 1.087044715881348 C 3.944092035293579 1.087044715881348 4.288182258605957 1.26066255569458 4.477731704711914 1.607897281646729 L 6.392551898956299 5.11558723449707 C 6.756321907043457 5.781967163085938 6.274022102355957 6.594727516174316 5.514811992645264 6.594727516174316 L 1.685182094573975 6.594727516174316 C 0.9259819984436035 6.594727516174316 0.4436821937561035 5.781967163085938 0.8074522018432617 5.11558723449707 L 2.722271919250488 1.607897281646729 C 2.911821842193604 1.26066255569458 3.255912065505981 1.087044715881348 3.60000205039978 1.087044715881348 Z" stroke="none" fill="#2d3239"/>
      </g>
    </g>
  </g>
</svg>
