<svg xmlns="http://www.w3.org/2000/svg" xmlns:xlink="http://www.w3.org/1999/xlink" width="36" height="36" viewBox="0 0 36 36">
  <defs>
    <clipPath id="clip-path">
      <rect id="사각형_16712" data-name="사각형 16712" width="36" height="36" transform="translate(272 467)" fill="#dedede"/>
    </clipPath>
  </defs>
  <g id="ic-my-shop_2" transform="translate(-272 -467)" clip-path="url(#clip-path)">
    <g id="그룹_13419" data-name="그룹 13419" transform="translate(271.186 467)">
      <rect id="사각형_7870" data-name="사각형 7870" width="36" height="36" transform="translate(0.814)" fill="#dedede" opacity="0"/>
      <g id="그룹_12507" data-name="그룹 12507" transform="translate(5.328 3.257)">
        <g id="사각형_12097" data-name="사각형 12097" transform="translate(0.486 -0.257)" fill="#fff" stroke="#2d3239" stroke-width="1.5">
          <rect width="18" height="30" rx="4" stroke="none"/>
          <rect x="0.75" y="0.75" width="16.5" height="28.5" rx="3.25" fill="none"/>
        </g>
        <rect id="사각형_12101" data-name="사각형 12101" width="14.001" height="1.5" transform="translate(0.814 23.793)" fill="#2d3239"/>
        <rect id="사각형_12139" data-name="사각형 12139" width="17.258" height="1.5" transform="translate(0.814 4.23)" fill="#2d3239"/>
      </g>
      <g id="사각형_15458" data-name="사각형 15458" transform="translate(18.314 19.321) rotate(90)" fill="none" stroke="#2d3239" stroke-width="1">
        <rect width="1.5" height="7" rx="0.75" stroke="none"/>
        <rect x="0.5" y="0.5" width="0.5" height="6" rx="0.25" fill="none"/>
      </g>
      <g id="사각형_15459" data-name="사각형 15459" transform="translate(11.814 12)" fill="none" stroke="#2d3239" stroke-width="1.5">
        <rect width="6" height="6" rx="3" stroke="none"/>
        <rect x="0.75" y="0.75" width="4.5" height="4.5" rx="2.25" fill="none"/>
      </g>
      <g id="그룹_12510" data-name="그룹 12510" transform="matrix(-0.799, -0.602, 0.602, -0.799, 22.357, 32.019)">
        <g id="합치기_169" data-name="합치기 169" transform="translate(3.12 0)" fill="#fff">
          <path d="M 2.660399913787842 13.43670082092285 C 2.09581995010376 13.43670082092285 1.636500000953674 12.97778034210205 1.636500000953674 12.41370010375977 L 1.636500000953674 5.867980480194092 L 1.636500000953674 5.468220233917236 L 1.304620027542114 5.245350360870361 C 0.9573400020599365 5.012130260467529 0.75 4.623810291290283 0.75 4.206600189208984 L 0.75 1.999800443649292 C 0.75 1.310660362243652 1.310660004615784 0.7500004172325134 1.999799966812134 0.7500004172325134 L 3.320100069046021 0.7500004172325134 C 4.00924015045166 0.7500004172325134 4.569900035858154 1.310660362243652 4.569900035858154 1.999800443649292 L 4.569900035858154 4.206600189208984 C 4.569900035858154 4.623810291290283 4.362559795379639 5.012130260467529 4.015280246734619 5.245350360870361 L 3.68339991569519 5.468220233917236 L 3.68339991569519 5.867980480194092 L 3.68339991569519 12.41370010375977 C 3.68339991569519 12.97778034210205 3.224479913711548 13.43670082092285 2.660399913787842 13.43670082092285 Z" stroke="none"/>
          <path d="M 2.660399913787842 12.68670082092285 C 2.810930013656616 12.68670082092285 2.93339991569519 12.56422996520996 2.93339991569519 12.41370010375977 L 2.93339991569519 5.068450450897217 L 3.597150087356567 4.622710227966309 C 3.736629962921143 4.529050350189209 3.819900035858154 4.373490333557129 3.819900035858154 4.206600189208984 L 3.819900035858154 1.999800443649292 C 3.819900035858154 1.724210381507874 3.595690011978149 1.500000357627869 3.320100069046021 1.500000357627869 L 1.999799966812134 1.500000357627869 C 1.724210023880005 1.500000357627869 1.5 1.724210381507874 1.5 1.999800443649292 L 1.5 4.206600189208984 C 1.5 4.373490333557129 1.583270072937012 4.529050350189209 1.722750067710876 4.622710227966309 L 2.386500120162964 5.068450450897217 L 2.386500120162964 12.41370010375977 C 2.386500120162964 12.56422996520996 2.509370088577271 12.68670082092285 2.660399913787842 12.68670082092285 M 2.660399913787842 14.18670082092285 C 1.680299997329712 14.18670082092285 0.8865000009536743 13.39290046691895 0.8865000009536743 12.41370010375977 L 0.8865000009536743 5.867980480194092 C 0.3519100248813629 5.508980274200439 1.792907688979994e-08 4.898810386657715 1.792907688979994e-08 4.206600189208984 L 1.792907688979994e-08 1.999800443649292 C 1.792907688979994e-08 0.8955004215240479 0.8955000042915344 4.104614390598726e-07 1.999799966812134 4.104614390598726e-07 L 3.320100069046021 4.104614390598726e-07 C 4.424399852752686 4.104614390598726e-07 5.319900035858154 0.8955004215240479 5.319900035858154 1.999800443649292 L 5.319900035858154 4.206600189208984 C 5.319900035858154 4.898810386657715 4.967989921569824 5.508980274200439 4.43340015411377 5.867980480194092 L 4.43340015411377 12.41370010375977 C 4.43340015411377 13.39290046691895 3.639600038528442 14.18670082092285 2.660399913787842 14.18670082092285 Z" stroke="none" fill="#2d3239"/>
        </g>
        <path id="합치기_171" data-name="합치기 171" d="M.887,9.31v-6A1.774,1.774,0,0,1,1.773,0H6.207a1.774,1.774,0,0,1,.886,3.309v6a3.1,3.1,0,1,1-6.207,0Z" transform="translate(1.79 10.64)" fill="#f8f8f8"/>
        <path id="합치기_170" data-name="합치기 170" d="M.887,9.31v-6A1.774,1.774,0,0,1,1.773,0H6.207a1.774,1.774,0,0,1,.886,3.309v6a3.1,3.1,0,1,1-6.207,0Z" transform="translate(0 10.97)" fill="#7dedf3"/>
        <g id="합치기_168" data-name="합치기 168" transform="translate(1.79 10.64)" fill="none">
          <path d="M.887,9.31v-6A1.774,1.774,0,0,1,1.773,0H6.207a1.774,1.774,0,0,1,.886,3.309v6a3.1,3.1,0,1,1-6.207,0Z" stroke="none"/>
          <path d="M 3.989700317382812 10.91370010375977 C 4.874200344085693 10.91370010375977 5.593800067901611 10.19410037994385 5.593800067901611 9.309599876403809 L 5.593800067901611 2.444679975509644 L 6.342150211334229 2.011350154876709 C 6.374560356140137 1.992590069770813 6.480300426483154 1.919939994812012 6.480300426483154 1.773000001907349 C 6.480300426483154 1.622470021247864 6.357830047607422 1.5 6.207300186157227 1.5 L 1.773000240325928 1.5 C 1.622470259666443 1.5 1.500000238418579 1.622470021247864 1.500000238418579 1.773000001907349 C 1.500000238418579 1.919970035552979 1.605650186538696 1.992550015449524 1.638020157814026 2.011290073394775 L 2.386500120162964 2.444600105285645 L 2.386500120162964 9.309599876403809 C 2.386500120162964 10.19410037994385 3.105690240859985 10.91370010375977 3.989700317382812 10.91370010375977 M 3.989700317382812 12.41370010375977 C 2.276100158691406 12.41370010375977 0.8865002393722534 11.0241003036499 0.8865002393722534 9.309599876403809 L 0.8865002393722534 3.309450149536133 C 0.3565102219581604 3.002629995346069 2.132415772848617e-07 2.429290056228638 2.132415772848617e-07 1.773000001907349 C 2.132415772848617e-07 0.7938000559806824 0.7938002347946167 5.187988350030537e-08 1.773000240325928 5.187988350030537e-08 L 6.207300186157227 5.187988350030537e-08 C 7.186500072479248 5.187988350030537e-08 7.980300426483154 0.7938000559806824 7.980300426483154 1.773000001907349 C 7.980300426483154 2.429229974746704 7.623710155487061 3.002599954605103 7.093800067901611 3.309440135955811 L 7.093800067901611 9.309599876403809 C 7.093800067901611 11.0241003036499 5.704200267791748 12.41370010375977 3.989700317382812 12.41370010375977 Z" stroke="none" fill="#2d3239"/>
        </g>
        <line id="선_325" data-name="선 325" y2="4.433" transform="translate(5.78 14.63)" fill="none" stroke="#2d3239" stroke-linecap="round" stroke-width="1.5"/>
      </g>
    </g>
  </g>
</svg>
