<svg xmlns="http://www.w3.org/2000/svg" width="40" height="40" viewBox="0 0 40 40">
    <defs>
        <style>
            .cls-3{fill:#7dedf3}.cls-10,.cls-4{fill:none}.cls-4{stroke:#2d3239;stroke-width:1.5px}.cls-9{stroke:none}
        </style>
    </defs>
    <g id="ic_location" transform="translate(-226 -123)">
        <path id="빼기_349" data-name="빼기 349" class="cls-3" d="M3.824 26.922A13.515 13.515 0 0 1 0 26.373a14.072 14.072 0 0 0 12.824-13.951A13.967 13.967 0 0 0 5.287 0a13.5 13.5 0 0 1 12.037 13.422 13.412 13.412 0 0 1-3.954 9.546 13.412 13.412 0 0 1-9.546 3.954z" transform="translate(244.676 132.078)"/>
        <g id="타원_1981" data-name="타원 1981" class="cls-4" transform="translate(234.5 131.5)">
            <circle class="cls-9" cx="13.5" cy="13.5" r="13.5"/>
            <circle class="cls-10" cx="13.5" cy="13.5" r="12.75"/>
        </g>
        <g id="타원_1984" data-name="타원 1984" class="cls-4" transform="translate(241.5 131.5)">
            <ellipse class="cls-9" cx="6.5" cy="13.5" rx="6.5" ry="13.5"/>
            <ellipse class="cls-10" cx="6.5" cy="13.5" rx="5.75" ry="12.75"/>
        </g>
        <path id="사각형_16017" data-name="사각형 16017" transform="translate(234.5 144.25)" style="fill:#2d3239" d="M0 0h26v1.5H0z"/>
        <g id="그룹_12826" data-name="그룹 12826" transform="translate(-786.984 -350.138)">
            <path id="패스_12238" data-name="패스 12238" d="M14.859 7.8h0a7.052 7.052 0 0 0-14.1 0s-.422 6.143 7.048 10.255C15.275 13.943 14.859 7.8 14.859 7.8z" transform="translate(1018.339 478.212)" style="stroke-linecap:round;stroke-linejoin:round;fill:#fff;stroke:#2d3239;stroke-width:1.5px"/>
            <path id="패스_12422" data-name="패스 12422" class="cls-3" d="M14.859 7.8a7.052 7.052 0 0 0-14.1 0s-.422 6.143 7.048 10.255C15.275 13.943 14.859 7.8 14.859 7.8z" transform="translate(1016.434 478.212)"/>
            <path id="패스_12423" data-name="패스 12423" d="M14.859 7.8h0a7.052 7.052 0 0 0-14.1 0s-.422 6.143 7.048 10.255C15.275 13.943 14.859 7.8 14.859 7.8z" transform="translate(1018.339 478.212)" style="stroke-linecap:round;stroke-linejoin:round;stroke:#2d3239;stroke-width:1.5px;fill:none"/>
            <g id="타원_1794" data-name="타원 1794" transform="translate(1022.164 481.642)" style="fill:#fff;stroke:#2d3239;stroke-width:1.5px">
                <circle class="cls-9" cx="3.982" cy="3.982" r="3.982"/>
                <circle class="cls-10" cx="3.982" cy="3.982" r="3.232"/>
            </g>
        </g>
    </g>
</svg>
