<svg xmlns="http://www.w3.org/2000/svg" width="36" height="36" viewBox="0 0 36 36">
    <defs>
        <style>
            .cls-1,.cls-5{fill:none}.cls-5{stroke:#2d3239;stroke-width:1.5px}.cls-6{fill:#2d3239}.cls-7{stroke:none}
        </style>
    </defs>
    <g id="ic_market" transform="translate(-23.33 -750.768)">
        <path id="사각형_7870" data-name="사각형 7870" class="cls-1" transform="translate(23.33 750.768)" d="M0 0h36v36H0z"/>
        <g id="사각형_7216" data-name="사각형 7216" transform="translate(29.33 756.52)" style="stroke:#2d3239;stroke-width:1.5px;fill:#fff">
            <rect class="cls-7" width="24" height="26" rx="5"/>
            <rect class="cls-1" x=".75" y=".75" width="22.5" height="24.5" rx="4.25"/>
        </g>
        <g id="합치기_161" data-name="합치기 161" style="fill:#fff">
            <path class="cls-7" d="M6962.001-15260.752a3.265 3.265 0 0 1-2.642-1.355l-.609-.846-.608.846a3.252 3.252 0 0 1-5.485-.321l-.657-1.185-.656 1.184a3.252 3.252 0 0 1-5.486.322l-.608-.846-.61.846a3.262 3.262 0 0 1-2.64 1.355 3.253 3.253 0 0 1-3.249-3.25v-3.5a5.255 5.255 0 0 1 5.25-5.25H6960a5.255 5.255 0 0 1 5.249 5.25v3.5a3.253 3.253 0 0 1-3.248 3.25z" transform="translate(-6910.67 16028.52)"/>
            <path d="M6962.001-15261.502a2.502 2.502 0 0 0 2.498-2.5v-3.5a4.504 4.504 0 0 0-4.499-4.5h-16a4.504 4.504 0 0 0-4.499 4.5v3.5a2.502 2.502 0 0 0 2.499 2.5 2.51 2.51 0 0 0 2.032-1.043l1.217-1.691 1.218 1.69a2.502 2.502 0 0 0 4.221-.246l1.312-2.37 1.312 2.37a2.502 2.502 0 0 0 4.22.247l1.218-1.691 1.218 1.69a2.51 2.51 0 0 0 2.033 1.044m0 1.5a3.998 3.998 0 0 1-3.25-1.667 3.998 3.998 0 0 1-3.251 1.667 3.997 3.997 0 0 1-3.5-2.063 3.997 3.997 0 0 1-3.5 2.063 3.998 3.998 0 0 1-3.25-1.667 3.999 3.999 0 0 1-7.248-2.334v-3.5a5.998 5.998 0 0 1 5.998-5.999h16a6 6 0 0 1 5.999 6v3.5c0 2.21-1.79 4-3.998 4z" style="fill:#2d3239;stroke:none" transform="translate(-6910.67 16028.52)"/>
        </g>
        <path id="사각형_7242" data-name="사각형 7242" d="M4 0h1.5a4 4 0 0 1 4 4v7H0V4a4 4 0 0 1 4-4z" transform="translate(38.33 771.52)" style="fill:#7dedf3"/>
        <g id="사각형_7218" data-name="사각형 7218" class="cls-5">
            <path class="cls-7" d="M4 0h4a4 4 0 0 1 4 4v7H0V4a4 4 0 0 1 4-4z" transform="translate(35.33 771.52)"/>
            <path class="cls-1" d="M4 .75h4A3.25 3.25 0 0 1 11.25 4v6.25H.75V4A3.25 3.25 0 0 1 4 .75z" transform="translate(35.33 771.52)"/>
        </g>
        <g id="사각형_7234" data-name="사각형 7234" class="cls-5" transform="translate(40.58 772.52)">
            <path class="cls-7" d="M0 0h1.5v10H0z"/>
            <rect class="cls-1" x=".75" y=".75" height="8.5"/>
        </g>
        <rect id="사각형_14433" data-name="사각형 14433" class="cls-6" width="1.5" height="6" rx=".75" transform="translate(33.83 760.52)"/>
        <rect id="사각형_14434" data-name="사각형 14434" class="cls-6" width="1.5" height="6" rx=".75" transform="translate(40.581 760.52)"/>
        <rect id="사각형_14435" data-name="사각형 14435" class="cls-6" width="1.5" height="6" rx=".75" transform="translate(47.331 760.52)"/>
    </g>
</svg>
