<svg xmlns="http://www.w3.org/2000/svg" width="36" height="36" viewBox="0 0 36 36">
    <g transform="translate(-44 -431)">
        <path data-name="사각형 7905" transform="translate(44 431)" style="fill:none" d="M0 0h36v36H0z"/>
        <g data-name="사각형 14112" style="stroke-width:1.5px;stroke:#2d3239;fill:#fff">
            <path d="M5 0h9a8 8 0 0 1 8 8v18a2 2 0 0 1-2 2H5a5 5 0 0 1-5-5V5a5 5 0 0 1 5-5z" style="stroke:none" transform="translate(44 435)"/>
            <path d="M5 .75h9A7.25 7.25 0 0 1 21.25 8v18A1.25 1.25 0 0 1 20 27.25H5A4.25 4.25 0 0 1 .75 23V5A4.25 4.25 0 0 1 5 .75z" style="fill:none" transform="translate(44 435)"/>
        </g>
        <g data-name="교차 25" style="fill:none">
            <path d="M4.52 7.21a4 4 0 0 1-4-4v-4a8 8 0 0 1 8 8z" style="stroke:none" transform="translate(57.48 435.791)"/>
            <path d="M6.845 5.71A6.522 6.522 0 0 0 2.019.884V3.21c0 1.38 1.122 2.5 2.5 2.5h2.326m1.674 1.5h-4a4 4 0 0 1-4-4l.001-4a8 8 0 0 1 8 8z" style="fill:#2d3239;stroke:none" transform="translate(57.48 435.791)"/>
        </g>
        <rect data-name="사각형 6085" width="6" height="1.5" rx=".75" transform="translate(49 452.5)" style="fill:#2d3239"/>
        <rect data-name="사각형 6086" width="8" height="1.5" rx=".75" transform="translate(49 456)" style="fill:#2d3239"/>
        <g data-name="그룹 9779">
            <path data-name="패스 2252" d="m3649.636 5413.028 1.75 5 1.75-5 1.75 5 1.75-5" transform="translate(-3598.136 -4969.026)" style="stroke-linejoin:round;stroke-linecap:round;stroke-width:1.5px;stroke:#2d3239;fill:none"/>
            <path data-name="선 11" transform="translate(50.5 446.001)" style="stroke-linecap:round;stroke-width:1.5px;stroke:#2d3239;fill:none" d="M0 0h1.5"/>
            <path data-name="선 166" transform="translate(58 446.001)" style="stroke-linecap:round;stroke-width:1.5px;stroke:#2d3239;fill:none" d="M0 0h1.5"/>
        </g>
        <g data-name="그룹 12116" transform="translate(-167.027 -82.25)">
            <circle data-name="타원 1877" cx="5.25" cy="5.25" r="5.25" transform="translate(227.999 534.5)" style="fill:#7dedf3"/>
            <g data-name="타원 1878" transform="translate(225.027 533.25)" style="stroke-width:1.5px;stroke:#2d3239;fill:none">
                <circle cx="6" cy="6" r="6" style="stroke:none"/>
                <circle cx="6" cy="6" r="5.25" style="fill:none"/>
            </g>
            <g data-name="사각형 14362" transform="rotate(-45 772.942 -9.88)" style="stroke:#2d3239;fill:#fff">
                <rect width="1.5" height="5" rx=".75" style="stroke:none"/>
                <rect x=".5" y=".5" width=".5" height="4" rx=".25" style="fill:none"/>
            </g>
        </g>
    </g>
</svg>
