<svg xmlns="http://www.w3.org/2000/svg" width="36" height="36" viewBox="0 0 36 36">
  <g id="ic-my-view-1" transform="translate(-85 -621)">
    <rect id="사각형_7905" data-name="사각형 7905" width="36" height="36" transform="translate(85 621)" fill="none"/>
    <g id="그룹_11899" data-name="그룹 11899" transform="translate(89.114 624.682)">
      <g id="사각형_14112" data-name="사각형 14112" transform="translate(0 0)" fill="#fff" stroke="#2d3239" stroke-width="1.5">
        <path d="M5,0h9.5a8,8,0,0,1,8,8V23.637a5,5,0,0,1-5,5H5a5,5,0,0,1-5-5V5A5,5,0,0,1,5,0Z" stroke="none"/>
        <path d="M5,.75h9.5A7.25,7.25,0,0,1,21.75,8V23.637a4.25,4.25,0,0,1-4.25,4.25H5a4.25,4.25,0,0,1-4.25-4.25V5A4.25,4.25,0,0,1,5,.75Z" fill="none"/>
      </g>
      <g id="교차_25" data-name="교차 25" transform="translate(14.318 0.001)" fill="none">
        <path d="M4,8.182a4,4,0,0,1-4-4V0H.183a8,8,0,0,1,8,8v.182Z" stroke="none"/>
        <path d="M 6.548477172851562 6.681900024414062 C 6.025501728057861 4.152988910675049 4.029085159301758 2.156631469726562 1.50000011920929 1.634137392044067 L 1.50000011920929 4.181399822235107 C 1.50000011920929 5.560180187225342 2.6217200756073 6.681900024414062 4.000500202178955 6.681900024414062 L 6.548477172851562 6.681900024414062 M 8.18280029296875 8.181900024414062 L 4.000500202178955 8.181900024414062 C 1.791000127792358 8.181900024414062 1.464843819576345e-07 6.390900135040283 1.464843819576345e-07 4.181399822235107 L 1.464843819576345e-07 1.220703094162445e-08 L 0.1827001422643661 1.220703094162445e-08 C 4.600800037384033 1.220703094162445e-08 8.18280029296875 3.581099987030029 8.18280029296875 8.000100135803223 L 8.18280029296875 8.181900024414062 Z" stroke="none" fill="#2d3239"/>
      </g>
      <g id="그룹_14102" data-name="그룹 14102" transform="translate(4.896 7.291)">
        <path id="패스_2252" data-name="패스 2252" d="M3649.636,5413.028l1.5,5,2-5,2,5,1.5-5" transform="translate(-3648.646 -5412)" fill="none" stroke="#2d3239" stroke-linecap="round" stroke-linejoin="round" stroke-width="1.5"/>
        <line id="선_11" data-name="선 11" x2="1.5" transform="translate(-0.01 3.527)" fill="none" stroke="#2d3239" stroke-linecap="round" stroke-width="1.5"/>
        <line id="선_166" data-name="선 166" x2="1.5" transform="translate(7.49 3.527)" fill="none" stroke="#2d3239" stroke-linecap="round" stroke-width="1.5"/>
      </g>
    </g>
    <g id="그룹_12201" data-name="그룹 12201" transform="translate(103.108 637.909)">
      <circle id="타원_1877" data-name="타원 1877" cx="5.369" cy="5.369" r="5.369" transform="translate(3.039 1.279)" fill="#7dedf3"/>
      <g id="타원_1878" data-name="타원 1878" transform="translate(0 0)" fill="none" stroke="#2d3239" stroke-width="1.5">
        <circle cx="6.136" cy="6.136" r="6.136" stroke="none"/>
        <circle cx="6.136" cy="6.136" r="5.386" fill="none"/>
      </g>
      <g id="사각형_14362" data-name="사각형 14362" transform="translate(8.539 10.646) rotate(-45)" fill="#fff" stroke="#2d3239" stroke-width="1">
        <rect width="1.534" height="5.114" rx="0.767" stroke="none"/>
        <rect x="0.5" y="0.5" width="0.534" height="4.114" rx="0.267" fill="none"/>
      </g>
    </g>
  </g>
</svg>
