<svg xmlns="http://www.w3.org/2000/svg" width="40" height="40" viewBox="0 0 40 40">
    <defs>
        <style>
            .cls-1,.cls-6{fill:none}.cls-6{stroke:#2d3239;stroke-width:1.5px}.cls-7{fill:#2d3239}.cls-8{stroke:none}
        </style>
    </defs>
    <g id="ic_cloth" transform="translate(5)">
        <path id="사각형_15576" data-name="사각형 15576" class="cls-1" transform="translate(-5)" d="M0 0h40v40H0z"/>
        <path id="사각형_15577" data-name="사각형 15577" class="cls-1" transform="translate(-1 4)" d="M0 0h32v32H0z"/>
        <g id="그룹_13320" data-name="그룹 13320" transform="translate(-1.615 2.083)">
            <g id="그룹_13323" data-name="그룹 13323" transform="translate(.601 5.378)">
                <path id="빼기_353" data-name="빼기 353" d="M3.357 5.9c-.615 0-1.82-.9-2.386-2.353A21.658 21.658 0 0 1 0 .033a11.99 11.99 0 0 0 3.076.618h.145A18.832 18.832 0 0 0 6.557 0v.4a13.26 13.26 0 0 1-.866 3.147C5.053 5.017 4 5.9 3.357 5.9z" transform="translate(15.784 -1.002)" style="stroke-linejoin:round;stroke:#2d3239;stroke-width:1.5px;fill:none"/>
                <path id="패스_12384" data-name="패스 12384" d="M23626.854-13068.324a38.591 38.591 0 0 1-4.236 1.458c-1.871.515-2.129 1.047-2.463 1.979a42.886 42.886 0 0 1-1.955 4.2c-.59 1.088-.928 1.192-.926 1.5s.941 1.243 1.924 1.725a4.217 4.217 0 0 0 2.619.5 11.252 11.252 0 0 0 1.264-2.622s.436 5.849.465 8.407-1.139 7.222-.928 7.784 4.387 1.482 7.6 1.482 7.16-.919 7.381-1.482-1.156-4.315-1.016-7.784.5-8.407.5-8.407 1.193 2.485 1.373 2.622a4.184 4.184 0 0 0 2.6-.56 3.381 3.381 0 0 0 1.855-1.708c.016-.218-.561-.914-.891-1.426a26.715 26.715 0 0 1-1.855-3.92 2.639 2.639 0 0 0-1.959-2.138c-1.234-.331-4.738-1.616-4.738-1.616a13.658 13.658 0 0 1-.916 3.545c-.629 1.45-1.686 2.345-2.334 2.345a3.542 3.542 0 0 1-2.385-2.345 21.764 21.764 0 0 1-.979-3.539z" transform="translate(-23611.078 13067.324)" style="stroke-linecap:round;stroke-linejoin:round;stroke:#2d3239;stroke-width:1.5px;fill:none"/>
            </g>
            <path id="합치기_182" data-name="합치기 182" d="M-23178.67 13170.416a2.717 2.717 0 0 1-2.717-2.717 2.715 2.715 0 0 1 2.717-2.711h.459a2.705 2.705 0 0 1-1.371-2.356 2.715 2.715 0 0 1 2.717-2.717h10.768a2.715 2.715 0 0 1 2.717 2.717 2.711 2.711 0 0 1-2.717 2.711h-.459a2.709 2.709 0 0 1 1.373 2.356 2.717 2.717 0 0 1-2.717 2.717z" transform="translate(23183.998 -13139.25)" style="fill:#fff"/>
            <path id="합치기_181" data-name="합치기 181" d="M-23178.67 13170.416a2.717 2.717 0 0 1-2.717-2.717 2.715 2.715 0 0 1 2.2-2.661 2.692 2.692 0 0 1-.393-1.406 2.715 2.715 0 0 1 2.717-2.717h10.768a2.715 2.715 0 0 1 2.717 2.717 2.715 2.715 0 0 1-2.2 2.662 2.7 2.7 0 0 1 .393 1.405 2.717 2.717 0 0 1-2.717 2.717z" transform="translate(23182 -13139.499)" style="fill:#7dedf3"/>
            <g id="사각형_16604" data-name="사각형 16604" class="cls-6" transform="translate(3.62 19.667)">
                <rect class="cls-8" width="18" height="7" rx="3.5"/>
                <rect class="cls-1" x=".75" y=".75" width="16.5" height="5.5" rx="2.75"/>
            </g>
            <g id="사각형_16620" data-name="사각형 16620" class="cls-6" transform="translate(1.616 25.166)">
                <rect class="cls-8" width="18" height="7" rx="3.5"/>
                <rect class="cls-1" x=".75" y=".75" width="16.5" height="5.5" rx="2.75"/>
            </g>
            <rect id="사각형_16619" data-name="사각형 16619" class="cls-7" width="13" height="1.5" rx=".75" transform="translate(4.615 22.416)"/>
            <rect id="사각형_16621" data-name="사각형 16621" class="cls-7" width="13" height="1.5" rx=".75" transform="translate(2.611 27.917)"/>
        </g>
    </g>
</svg>
