<svg xmlns="http://www.w3.org/2000/svg" width="30" height="30" viewBox="0 0 30 30">
    <defs>
        <style>
            .cls-1,.cls-2{fill:none}.cls-2,.cls-3{stroke:#111}.cls-2{stroke-width:1.5px}.cls-3{fill:#fff}.cls-4{fill:#111}.cls-5{stroke:none}
        </style>
    </defs>
    <g id="ic_online" transform="translate(-93 -589)">
        <path id="사각형_7105" data-name="사각형 7105" class="cls-1" transform="translate(93 589)" d="M0 0h30v30H0z"/>
        <g id="사각형_11201" data-name="사각형 11201" class="cls-2" transform="translate(97 593)">
            <rect class="cls-5" width="22" height="18" rx="4"/>
            <rect class="cls-1" x=".75" y=".75" width="20.5" height="16.5" rx="3.25"/>
        </g>
        <g id="사각형_11202" data-name="사각형 11202" class="cls-3">
            <path class="cls-5" d="M0 0h1.5v4H0z" transform="translate(105.25 610)"/>
            <path class="cls-1" d="M.5.5H1v3H.5z" transform="translate(105.25 610)"/>
        </g>
        <g id="사각형_11203" data-name="사각형 11203" class="cls-3">
            <path class="cls-5" d="M0 0h1.5v4H0z" transform="translate(109.25 610)"/>
            <path class="cls-1" d="M.5.5H1v3H.5z" transform="translate(109.25 610)"/>
        </g>
        <rect id="사각형_11204" data-name="사각형 11204" class="cls-4" width="14" height="1.5" rx=".75" transform="translate(101 613)"/>
        <g id="타원_1342" data-name="타원 1342" class="cls-2" transform="translate(103 598)">
            <circle class="cls-5" cx="2" cy="2" r="2"/>
            <circle class="cls-1" cx="2" cy="2" r="1.25"/>
        </g>
        <g id="타원_1343" data-name="타원 1343" class="cls-2" transform="translate(109 603)">
            <circle class="cls-5" cx="2" cy="2" r="2"/>
            <circle class="cls-1" cx="2" cy="2" r="1.25"/>
        </g>
        <rect id="사각형_11205" data-name="사각형 11205" class="cls-4" width="10" height="1.5" rx=".75" transform="rotate(-45 782.989 177.246)"/>
    </g>
</svg>
