<svg xmlns="http://www.w3.org/2000/svg" width="36" height="36" viewBox="0 0 36 36">
    <defs>
        <style>
            .cls-1,.cls-5{fill:none}.cls-5{stroke:#2d3239;stroke-width:1.5px}.cls-4{fill:#7dedf3}.cls-6{stroke:none}
        </style>
    </defs>
    <g id="ic_overseas_purchase" data-name="ic_overseas purchase" transform="translate(-44 -750)">
        <path id="사각형_7870" data-name="사각형 7870" class="cls-1" transform="translate(44 750)" d="M0 0h36v36H0z"/>
        <rect id="사각형_15710" data-name="사각형 15710" width="28" height="1.5" rx=".75" transform="translate(48 781.5)" style="fill:#2d3239"/>
        <g id="그룹_12731" data-name="그룹 12731" transform="translate(-10 -7)">
            <g id="사각형_15707" data-name="사각형 15707" style="stroke:#2d3239;stroke-width:1.5px;fill:#fff">
                <path class="cls-6" d="M2.5 0h8A2.5 2.5 0 0 1 13 2.5V12H0V2.5A2.5 2.5 0 0 1 2.5 0z" transform="translate(70 778)"/>
                <path class="cls-1" d="M2.5.75h8a1.75 1.75 0 0 1 1.75 1.75v8a.75.75 0 0 1-.75.75h-10a.75.75 0 0 1-.75-.75v-8A1.75 1.75 0 0 1 2.5.75z" transform="translate(70 778)"/>
            </g>
            <path id="사각형_15709" data-name="사각형 15709" class="cls-4" d="M0 0h4v3a1.5 1.5 0 0 1-1.5 1.5h-1A1.5 1.5 0 0 1 0 3V0z" transform="translate(75.78 779.5)"/>
            <g id="사각형_15708" data-name="사각형 15708" class="cls-5" transform="translate(74 778)">
                <path class="cls-6" d="M0 0h5v4.5A1.5 1.5 0 0 1 3.5 6h-2A1.5 1.5 0 0 1 0 4.5V0z"/>
                <rect class="cls-1" x=".75" y=".75" width="3.5" height="4.5" rx=".75"/>
            </g>
        </g>
        <path id="패스_12275" data-name="패스 12275" class="cls-4" d="M2028.958 5937.051c.717-.318 2.9-1.628 4.156-2.143s3.167-1.327 4.312-.666.913 2.135-.976 3.355-15.326 7.934-16.683 8.548a11.8 11.8 0 0 1-5.937 1.012c-2.468-.239-.051-1.83 0-2.144s-2.615-3.018-2.628-3.1-.4-.08.637-.716 1.594-.261 2.708.126a27.609 27.609 0 0 0 3.1 1.147c.876.159 1.811-.32 2.966-1s2.687-1.473 2.13-2.269-4.5-4.486-4.893-4.959-1.145-1.1.609-1.131a5.907 5.907 0 0 1 2.93.437c.492.246 6.29 3.5 6.29 3.5a1.477 1.477 0 0 0 1.279.003z" transform="translate(-1964.122 -5176.783)"/>
        <path id="패스_12274" data-name="패스 12274" class="cls-5" d="M2028.958 5937.052c.717-.318 2.9-1.628 4.156-2.143s3.167-1.327 4.312-.665.913 2.135-.976 3.354-15.326 7.935-16.683 8.548a11.8 11.8 0 0 1-5.938 1.011c-2.468-.238-.051-1.83 0-2.144s-2.615-3.018-2.627-3.1-.4-.08.637-.717 1.594-.261 2.708.127a27.694 27.694 0 0 0 3.1 1.147c.876.159 1.811-.32 2.966-.995s2.687-1.474 2.13-2.27-4.5-4.485-4.893-4.958-1.145-1.1.609-1.132a5.913 5.913 0 0 1 2.93.437c.492.246 6.29 3.5 6.29 3.5a1.479 1.479 0 0 0 1.279 0z" transform="translate(-1964.029 -5178.464)"/>
    </g>
</svg>
