<svg xmlns="http://www.w3.org/2000/svg" width="36" height="36" viewBox="0 0 36 36">
    <defs>
        <style>
            .cls-1{fill:none}.cls-3{fill:#2d3239}.cls-10{stroke:none}
        </style>
    </defs>
    <g id="ic_phonecard" transform="translate(-23.33 -750.768)">
        <path id="사각형_7870" data-name="사각형 7870" class="cls-1" transform="translate(23.33 750.768)" d="M0 0h36v36H0z"/>
        <g id="사각형_12097" data-name="사각형 12097" transform="translate(29.33 752.768)" style="stroke-width:1.5px;stroke:#2d3239;fill:#fff">
            <rect class="cls-10" width="20" height="31" rx="5.5"/>
            <rect class="cls-1" x=".75" y=".75" width="18.5" height="29.5" rx="4.75"/>
        </g>
        <path id="사각형_12101" data-name="사각형 12101" class="cls-3" transform="translate(30.58 777.768)" d="M0 0h13.5v1.5H0z"/>
        <path id="사각형_12139" data-name="사각형 12139" class="cls-3" transform="translate(30.33 757.268)" d="M0 0h18v1.5H0z"/>
        <g id="사각형_13452" data-name="사각형 13452" transform="rotate(90 -363.344 406.924)" style="stroke:#2d3239;fill:none">
            <rect class="cls-10" width="1.5" height="8.5" rx=".75"/>
            <rect class="cls-1" x=".5" y=".5" width=".5" height="7.5" rx=".25"/>
        </g>
        <g id="사각형_13454" data-name="사각형 13454" transform="translate(35.831 762.268)" style="stroke-width:1.5px;stroke:#2d3239;fill:none">
            <rect class="cls-10" width="7" height="7" rx="3.5"/>
            <rect class="cls-1" x=".75" y=".75" width="5.5" height="5.5" rx="2.75"/>
        </g>
        <g id="그룹_12252" data-name="그룹 12252" transform="translate(1 1)">
            <path id="패스_12225" data-name="패스 12225" d="M0 2.2C.328 1.264 6.228-1 7.158-1s6.708 2.551 7.154 3.2-.422 5.6-1.683 8S8.258 15 7.158 15s-4.246-2.583-5.471-4.8S-.32 3.136 0 2.2z" transform="translate(40.4 770.768)" style="fill:#fff"/>
            <path id="패스_12149" data-name="패스 12149" d="M0 2c.29-.877 5.58-3 6.415-3s6.014 2.392 6.414 3-.379 5.252-1.509 7.5S7.132 14 6.411 14 2.6 11.578 1.506 9.5-.295 2.877 0 2z" transform="translate(43.4 771.268)" style="fill:#7dedf3"/>
            <path id="패스_12150" data-name="패스 12150" d="m-10170 5361.4 2.063 2.1 3.437-3.5" transform="translate(10215.08 -4584.232)" style="stroke-linecap:round;stroke-linejoin:round;stroke-width:1.5px;stroke:#2d3239;fill:none"/>
            <g id="패스_12151" data-name="패스 12151" style="fill:none">
                <path class="cls-10" d="M0 2.2C.328 1.264 6.228-1 7.158-1s6.708 2.551 7.154 3.2-.422 5.6-1.683 8S8.258 15 7.158 15s-4.246-2.583-5.471-4.8S-.32 3.136 0 2.2z" transform="translate(40.4 770.768)"/>
                <path d="M7.146.51c-.368.074-1.477.41-2.997 1.033-1.541.633-2.364 1.093-2.72 1.331.001.46.078 1.417.35 2.77C2.1 7.24 2.557 8.671 3 9.474c.44.797 1.284 1.79 2.257 2.655.92.816 1.616 1.225 1.91 1.346.295-.112.983-.497 1.873-1.272.985-.859 1.809-1.843 2.26-2.701.454-.862.923-2.302 1.256-3.852.272-1.268.362-2.158.373-2.621-.467-.278-1.404-.763-2.71-1.34C8.642.99 7.527.598 7.146.51M7.158-1c.93 0 6.709 2.551 7.154 3.2.445.649-.422 5.602-1.683 8-1.261 2.398-4.371 4.8-5.47 4.8-1.1 0-4.247-2.583-5.471-4.8C.463 7.983-.32 3.136.004 2.2.328 1.264 6.228-1 7.158-1z" style="fill:#2d3239;stroke:none" transform="translate(40.4 770.768)"/>
            </g>
        </g>
    </g>
</svg>
