<svg xmlns="http://www.w3.org/2000/svg" width="44" height="44" viewBox="0 0 44 44">
    <defs>
        <style>
            .cls-5{fill:#fff}.cls-3,.cls-4{stroke:#2d3239}.cls-4{stroke-width:1.5px}.cls-11,.cls-3,.cls-4{fill:none}.cls-6{fill:#2d3239}.cls-10{stroke:none}
        </style>
    </defs>
    <g id="ic_phonecare_02" transform="translate(-2 -564)">
        <g id="사각형_13455" data-name="사각형 13455" transform="translate(7 574)" style="stroke-width:1.5px;stroke:#2d3239;fill:#fff">
            <rect class="cls-10" width="30" height="24" rx="5"/>
            <rect class="cls-11" x=".75" y=".75" width="28.5" height="22.5" rx="4.25"/>
        </g>
        <g id="사각형_13452" data-name="사각형 13452" class="cls-3" transform="rotate(90 -275.5 308)">
            <rect class="cls-10" width="1.5" height="9" rx=".75"/>
            <rect class="cls-11" x=".5" y=".5" width=".5" height="8" rx=".25"/>
        </g>
        <g id="사각형_13811" data-name="사각형 13811" class="cls-3" transform="rotate(90 -278.25 308.75)">
            <rect class="cls-10" width="1.5" height="6" rx=".75"/>
            <rect class="cls-11" x=".5" y=".5" width=".5" height="5" rx=".25"/>
        </g>
        <g id="사각형_13454" data-name="사각형 13454" class="cls-4" transform="translate(13.75 579.25)">
            <rect class="cls-10" width="6.5" height="6.5" rx="3.25"/>
            <rect class="cls-11" x=".75" y=".75" width="5" height="5" rx="2.5"/>
        </g>
        <g id="사각형_13807" data-name="사각형 13807" class="cls-4">
            <path class="cls-10" d="M4 0h3a4 4 0 0 1 4 4v3H0V4a4 4 0 0 1 4-4z" transform="translate(11.5 586.5)"/>
            <path class="cls-11" d="M4 .75h3A3.25 3.25 0 0 1 10.25 4v1.5a.75.75 0 0 1-.75.75h-8a.75.75 0 0 1-.75-.75V4A3.25 3.25 0 0 1 4 .75z" transform="translate(11.5 586.5)"/>
        </g>
        <path id="사각형_13808" data-name="사각형 13808" class="cls-5" transform="translate(11.5 591)" d="M0 0h11v3H0z"/>
        <rect id="사각형_13809" data-name="사각형 13809" class="cls-6" width="1.5" height="2" rx=".75" transform="translate(11.5 590)"/>
        <rect id="사각형_13810" data-name="사각형 13810" class="cls-6" width="1.5" height="2" rx=".75" transform="translate(21 590)"/>
        <g id="그룹_12252" data-name="그룹 12252" transform="translate(-12.33 -191.768)">
            <path id="패스_12225" data-name="패스 12225" class="cls-5" d="M0 2.2C.328 1.264 6.228-1 7.158-1s6.708 2.551 7.154 3.2-.422 5.6-1.683 8S8.258 15 7.158 15s-4.246-2.583-5.471-4.8S-.32 3.136 0 2.2z" transform="translate(40.4 770.768)"/>
            <path id="패스_12149" data-name="패스 12149" d="M0 2c.29-.877 5.58-3 6.415-3s6.014 2.392 6.414 3-.379 5.252-1.509 7.5S7.132 14 6.411 14 2.6 11.578 1.506 9.5-.295 2.877 0 2z" transform="translate(43.9 772.268)" style="fill:#7dedf3"/>
            <path id="패스_12150" data-name="패스 12150" d="m-10170 5361.4 2.063 2.1 3.437-3.5" transform="translate(10215.08 -4584.232)" style="stroke-linecap:round;stroke-linejoin:round;fill:none;stroke-width:1.5px;stroke:#2d3239"/>
            <g id="패스_12151" data-name="패스 12151" style="fill:none">
                <path class="cls-10" d="M0 2.2C.328 1.264 6.228-1 7.158-1s6.708 2.551 7.154 3.2-.422 5.6-1.683 8S8.258 15 7.158 15s-4.246-2.583-5.471-4.8S-.32 3.136 0 2.2z" transform="translate(40.4 770.768)"/>
                <path d="M7.146.51c-.368.074-1.477.41-2.997 1.033-1.541.633-2.364 1.093-2.72 1.331.001.46.078 1.417.35 2.77C2.1 7.24 2.557 8.671 3 9.474c.44.797 1.284 1.79 2.257 2.655.92.816 1.616 1.225 1.91 1.346.295-.112.983-.497 1.873-1.272.985-.859 1.809-1.843 2.26-2.701.454-.862.923-2.302 1.256-3.852.272-1.268.362-2.158.373-2.621-.467-.278-1.404-.763-2.71-1.34C8.642.99 7.527.598 7.146.51M7.158-1c.93 0 6.709 2.551 7.154 3.2.445.649-.422 5.602-1.683 8-1.261 2.398-4.371 4.8-5.47 4.8-1.1 0-4.247-2.583-5.471-4.8C.463 7.983-.32 3.136.004 2.2.328 1.264 6.228-1 7.158-1z" style="fill:#2d3239;stroke:none" transform="translate(40.4 770.768)"/>
            </g>
        </g>
    </g>
</svg>
