<svg xmlns="http://www.w3.org/2000/svg" width="44" height="44" viewBox="0 0 44 44">
    <defs>
        <style>
            .cls-1,.cls-2,.cls-4{fill:#fff}.cls-1{stroke:#2d3239;stroke-width:1.5px}.cls-12,.cls-9{fill:none}.cls-5{fill:#2d3239}.cls-11,.cls-13{stroke:none}.cls-13{fill:#2d3239}
        </style>
    </defs>
    <g id="ic_package_02" transform="translate(-272 -301)">
        <g id="그룹_12541" data-name="그룹 12541" transform="translate(8 3.622)">
            <g id="그룹_6092" data-name="그룹 6092" transform="translate(222 1)">
                <g id="사각형_7216" data-name="사각형 7216" class="cls-1">
                    <path class="cls-11" d="M0 0h20v20H0z" transform="translate(54 315)"/>
                    <path class="cls-12" d="M.75.75h18.5v18.5H.75z" transform="translate(54 315)"/>
                </g>
                <g id="패스_3544" data-name="패스 3544" class="cls-2">
                    <path class="cls-11" d="M3.992 13.25h-.234c-1.642 0-2.98-1.311-3.008-2.933l.932-6.477.007-.053v-.054C1.69 2.088 3.04.75 4.697.75H7v9.517c0 1.645-1.35 2.983-3.008 2.983z" transform="translate(51 309)"/>
                    <path class="cls-13" d="M4.697 1.5c-1.245 0-2.258 1.002-2.258 2.233v.108l-.937 6.52c.05 1.188 1.042 2.139 2.256 2.139h.234c1.245 0 2.258-1.002 2.258-2.233V1.5H4.697m0-1.5H7.75v10.267C7.75 12.329 6.068 14 3.992 14h-.234C1.682 14 0 12.329 0 10.267l.94-6.534C.94 1.671 2.621 0 4.696 0z" transform="translate(51 309)"/>
                </g>
                <g id="패스_3543" data-name="패스 3543" class="cls-2">
                    <path class="cls-11" d="M3.992 13.25h-.234C2.099 13.25.75 11.912.75 10.267V.75h2.303c1.658 0 3.008 1.338 3.008 2.983v.054l.007.053L7 10.317c-.028 1.622-1.366 2.933-3.008 2.933z" transform="translate(69.25 309)"/>
                    <path class="cls-13" d="M1.5 1.5v8.767c0 1.231 1.013 2.233 2.258 2.233h.234c1.214 0 2.206-.951 2.256-2.14l-.937-6.52v-.107C5.31 2.502 4.298 1.5 3.053 1.5H1.5M0 0h3.053c2.075 0 3.758 1.671 3.758 3.733l.939 6.534C7.75 12.329 6.068 14 3.992 14h-.234C1.682 14 0 12.329 0 10.267V0z" transform="translate(69.25 309)"/>
                </g>
                <g id="사각형_7232" data-name="사각형 7232" class="cls-1">
                    <path class="cls-11" d="M0 0h7.5v10.25A3.75 3.75 0 0 1 3.75 14 3.75 3.75 0 0 1 0 10.25V0z" transform="translate(63.25 309)"/>
                    <path class="cls-12" d="M1.442.75h4.616a.692.692 0 0 1 .692.692v8.808a3 3 0 0 1-3 3 3 3 0 0 1-3-3V1.442A.692.692 0 0 1 1.442.75z" transform="translate(63.25 309)"/>
                </g>
                <g id="사각형_7233" data-name="사각형 7233" class="cls-1">
                    <path class="cls-11" d="M0 0h7.5v10.25A3.75 3.75 0 0 1 3.75 14 3.75 3.75 0 0 1 0 10.25V0z" transform="translate(57.25 309)"/>
                    <path class="cls-12" d="M1.442.75h4.616a.692.692 0 0 1 .692.692v8.808a3 3 0 0 1-3 3 3 3 0 0 1-3-3V1.442A.692.692 0 0 1 1.442.75z" transform="translate(57.25 309)"/>
                </g>
                <g id="사각형_7234" data-name="사각형 7234" class="cls-1">
                    <path class="cls-11" d="M3 0a3 3 0 0 1 3 3v5H0V3a3 3 0 0 1 3-3z" transform="translate(61 327)"/>
                    <path class="cls-12" d="M3 .75A2.25 2.25 0 0 1 5.25 3v3.731a.519.519 0 0 1-.519.519H1.269a.519.519 0 0 1-.519-.519V3A2.25 2.25 0 0 1 3 .75z" transform="translate(61 327)"/>
                </g>
                <g id="사각형_8539" data-name="사각형 8539" transform="translate(51 333.5)" style="fill:none;stroke:#2d3239">
                    <rect class="cls-11" width="26" height="1.5" rx=".75"/>
                    <rect class="cls-12" x=".5" y=".5" width="25" height=".5" rx=".25"/>
                </g>
                <path id="사각형_8540" data-name="사각형 8540" class="cls-4" transform="translate(56 310.5)" d="M0 0h16v8.5H0z"/>
                <circle id="타원_1090" data-name="타원 1090" class="cls-5" cx=".75" cy=".75" r=".75" transform="translate(69.25 318.25)"/>
                <circle id="타원_1091" data-name="타원 1091" class="cls-5" cx=".75" cy=".75" r=".75" transform="translate(63.25 318.25)"/>
                <circle id="타원_1092" data-name="타원 1092" class="cls-5" cx=".75" cy=".75" r=".75" transform="translate(57.25 318.25)"/>
            </g>
            <g id="그룹_12533" data-name="그룹 12533" transform="translate(279.23 303.237)">
                <path id="패스_12255" data-name="패스 12255" class="cls-4" d="M12.366 6.181A6.183 6.183 0 1 1 6.185 0a6.182 6.182 0 0 1 6.181 6.181z" transform="scale(-1) rotate(88 6.472 -6.682)"/>
                <path id="패스_12162" data-name="패스 12162" d="M12.366 6.181A6.183 6.183 0 1 1 6.185 0a6.182 6.182 0 0 1 6.181 6.181z" transform="scale(-1) rotate(88 6.423 -7.869)" style="fill:#7dedf3"/>
                <path id="패스_12184" data-name="패스 12184" d="M13.3 6.646A6.648 6.648 0 1 1 6.65 0a6.647 6.647 0 0 1 6.65 6.646z" transform="scale(-1) rotate(88 6.883 -6.63)" style="stroke-linejoin:round;stroke-linecap:round;fill:none;stroke-width:1.5px;stroke:#2d3239"/>
                <g id="그룹_12540" data-name="그룹 12540" transform="translate(.277 .704)">
                    <path id="패스_12256" data-name="패스 12256" d="M3.256 0 0 3.907" transform="translate(4.397 3.736)" style="stroke-linecap:round;fill:none;stroke-width:1.5px;stroke:#2d3239"/>
                    <g id="패스_12257" data-name="패스 12257" class="cls-9">
                        <path class="cls-11" d="M1.255 0A1.255 1.255 0 1 1 0 1.255 1.255 1.255 0 0 1 1.255 0z" transform="translate(2.77 2.763)"/>
                        <path class="cls-13" d="M1.255 0a1.255 1.255 0 1 1 0 2.51 1.255 1.255 0 0 1 0-2.51z" transform="translate(2.77 2.763)"/>
                    </g>
                    <g id="패스_12258" data-name="패스 12258" class="cls-9">
                        <path class="cls-11" d="M1.255 0A1.255 1.255 0 1 1 0 1.255 1.255 1.255 0 0 1 1.255 0z" transform="translate(6.952 6.109)"/>
                        <path class="cls-13" d="M1.255 0a1.255 1.255 0 1 1 0 2.51 1.255 1.255 0 0 1 0-2.51z" transform="translate(6.952 6.109)"/>
                    </g>
                </g>
            </g>
        </g>
        <path id="사각형_15485" data-name="사각형 15485" transform="translate(272 301)" style="opacity:.1;fill:none" d="M0 0h44v44H0z"/>
    </g>
</svg>
