<svg xmlns="http://www.w3.org/2000/svg" width="36" height="18" viewBox="0 0 36 18">
    <defs>
        <style>
            .cls-2{fill:#a2a2a2}
        </style>
    </defs>
    <g id="ic_pick_d" transform="translate(-285.006 -389.484)">
        <path id="사각형_14210" data-name="사각형 14210" transform="translate(285.006 389.484)" style="fill:none" d="M0 0h36v18H0z"/>
        <path id="패스_12094" data-name="패스 12094" class="cls-2" d="M285.006 416.388v-13.412h2.409v.839a2.788 2.788 0 0 1 1.15-.758 3.969 3.969 0 0 1 1.387-.265 4.383 4.383 0 0 1 1.815.364 3.98 3.98 0 0 1 1.4 1.042 4.775 4.775 0 0 1 .885 1.6 6.412 6.412 0 0 1 .319 2.072 6.321 6.321 0 0 1-.319 2.062 4.815 4.815 0 0 1-.885 1.589 3.85 3.85 0 0 1-1.369 1.04 4.285 4.285 0 0 1-1.789.365 3.925 3.925 0 0 1-1.442-.265 3.642 3.642 0 0 1-1.15-.7v4.435zm2.409-8.5a4.646 4.646 0 0 0 .649 2.583 1.865 1.865 0 0 0 1.577.995 1.6 1.6 0 0 0 .9-.274 2.567 2.567 0 0 0 .721-.749 3.853 3.853 0 0 0 .484-1.131 5.566 5.566 0 0 0 .173-1.423 4.63 4.63 0 0 0-.648-2.546 1.9 1.9 0 0 0-1.633-1.013 1.565 1.565 0 0 0-.885.273 2.387 2.387 0 0 0-.7.749 3.663 3.663 0 0 0-.475 1.123 5.763 5.763 0 0 0-.163 1.409z" transform="translate(0 -9.563)"/>
        <path id="패스_12095" data-name="패스 12095" class="cls-2" d="M337.853 403.442h2.391v9.758h-2.391z" transform="translate(-37.97 -10.029)"/>
        <path id="패스_12096" data-name="패스 12096" class="cls-2" d="m358.087 410.365.293 1.753a4.084 4.084 0 0 1-1.459.638 6.467 6.467 0 0 1-1.333.165 5.342 5.342 0 0 1-2.372-.475 4.62 4.62 0 0 1-2.463-2.837 5.735 5.735 0 0 1-.275-1.707 5.313 5.313 0 0 1 .338-1.861 4.827 4.827 0 0 1 2.628-2.8 5.615 5.615 0 0 1 3.5-.291 4.11 4.11 0 0 1 1.232.521l-.347 1.677a3.328 3.328 0 0 0-1.022-.538 3.435 3.435 0 0 0-1-.154 2.651 2.651 0 0 0-1.03.218 2.761 2.761 0 0 0-.923.639 3.147 3.147 0 0 0-.675 1.05 3.886 3.886 0 0 0-.255 1.469 4.208 4.208 0 0 0 .2 1.314 3.356 3.356 0 0 0 .584 1.1 2.826 2.826 0 0 0 .911.747 2.531 2.531 0 0 0 1.187.275 3.473 3.473 0 0 0 1.076-.183 3.716 3.716 0 0 0 1.205-.72z" transform="translate(-47.041 -9.563)"/>
        <path id="패스_12097" data-name="패스 12097" class="cls-2" d="M382.734 404.122V390.8h2.372v6.989l3.1-3.43h2.537l-3.779 4.179 4.253 5.584H388.5l-3.394-4.434v4.434z" transform="translate(-70.217 -.947)"/>
        <path id="패스_12098" data-name="패스 12098" class="cls-2" d="m315.236 398.692-3.8-7.577a1.126 1.126 0 1 1 2.013-1.009l1.785 3.562 1.787-3.562a1.126 1.126 0 0 1 2.013 1.01z" transform="translate(-18.906)"/>
    </g>
</svg>
