<svg xmlns="http://www.w3.org/2000/svg" width="44" height="44" viewBox="0 0 44 44">
    <g data-name="타원 2193" transform="translate(16.889 15.715)" style="stroke-width:1.5px;stroke:#2d3239;fill:#7dedf3">
        <circle cx="4" cy="4" r="4" style="stroke:none"/>
        <circle cx="4" cy="4" r="3.25" style="fill:none"/>
    </g>
    <g data-name="빼기 371" style="fill:#fff">
        <path d="M10966-2888.751a14.158 14.158 0 0 1-10.076-4.173 14.155 14.155 0 0 1-4.174-10.075 14.16 14.16 0 0 1 4.174-10.076 14.16 14.16 0 0 1 10.076-4.174c3.806 0 7.384 1.483 10.076 4.174a14.158 14.158 0 0 1 4.174 10.076c0 3.806-1.482 7.384-4.174 10.075a14.159 14.159 0 0 1-10.076 4.173zm0-22.998c-4.825 0-8.75 3.925-8.75 8.75 0 4.824 3.925 8.748 8.75 8.748s8.75-3.924 8.75-8.748c0-4.825-3.925-8.75-8.75-8.75z" style="stroke:none" transform="translate(-10945.111 2922.713)"/>
        <path d="M10966-2889.501c3.606 0 6.996-1.404 9.546-3.953a13.411 13.411 0 0 0 3.954-9.545c0-3.605-1.404-6.995-3.954-9.545a13.413 13.413 0 0 0-9.546-3.955 13.414 13.414 0 0 0-9.546 3.954 13.414 13.414 0 0 0-3.954 9.546 13.41 13.41 0 0 0 3.954 9.545 13.413 13.413 0 0 0 9.546 3.953m0-22.998c5.238 0 9.5 4.262 9.5 9.5 0 5.237-4.262 9.498-9.5 9.498s-9.5-4.26-9.5-9.498c0-5.238 4.262-9.5 9.5-9.5m0 24.498c-4.007 0-7.773-1.56-10.606-4.392A14.9 14.9 0 0 1 10951-2903c0-4.006 1.56-7.773 4.394-10.606A14.904 14.904 0 0 1 10966-2918c4.006 0 7.772 1.56 10.606 4.394A14.903 14.903 0 0 1 10981-2903a14.9 14.9 0 0 1-4.394 10.606 14.903 14.903 0 0 1-10.606 4.392zm0-22.998c-4.411 0-8 3.589-8 8 0 4.41 3.589 7.998 8 7.998s8-3.588 8-7.998c0-4.411-3.589-8-8-8z" style="fill:#2d3239;stroke:none" transform="translate(-10945.111 2922.713)"/>
    </g>
    <g data-name="그룹 13216">
        <path data-name="패스 12548" d="M18.1 0c-.05 0-.1 0-.151.005C8.406.62.694 7.045.005 14.948a1.455 1.455 0 0 0 .5 1.205 2.042 2.042 0 0 0 1.365.5l3.922.024A1.854 1.854 0 0 0 7.627 15.5l.819-2.711a1.429 1.429 0 0 0-.7-1.632l-1.575-.978a14.233 14.233 0 0 1 5.956-4.989l1.218 1.344a2.1 2.1 0 0 0 1.964.578l3.276-.678a1.647 1.647 0 0 0 1.43-1.518V1.565a1.43 1.43 0 0 0-.6-1.137A2.171 2.171 0 0 0 18.1 0z" transform="rotate(167.96 19.179 19.221)" style="fill:#fff"/>
        <path data-name="패스 12547" d="M19.066 0c-.053 0-.107 0-.159.005C8.856.653.732 7.422.005 15.747a1.532 1.532 0 0 0 .528 1.27 2.151 2.151 0 0 0 1.438.529l4.131.025a1.954 1.954 0 0 0 1.932-1.248l.866-2.856a1.506 1.506 0 0 0-.738-1.72L6.5 10.717a15 15 0 0 1 6.274-5.256l1.284 1.416a2.213 2.213 0 0 0 2.069.608l3.451-.714a1.736 1.736 0 0 0 1.506-1.6V1.648a1.507 1.507 0 0 0-.63-1.2A2.287 2.287 0 0 0 19.066 0z" transform="rotate(167.96 20.167 19.766)" style="fill:#7dedf3"/>
        <path data-name="패스 12546" d="M18.1 0c-.05 0-.1 0-.151.005C8.406.62.694 7.045.005 14.948a1.455 1.455 0 0 0 .5 1.205 2.042 2.042 0 0 0 1.365.5l3.922.024A1.854 1.854 0 0 0 7.627 15.5l.819-2.711a1.429 1.429 0 0 0-.7-1.632l-1.575-.978a14.233 14.233 0 0 1 5.956-4.989l1.218 1.344a2.1 2.1 0 0 0 1.964.578l3.276-.678a1.647 1.647 0 0 0 1.43-1.518V1.565a1.43 1.43 0 0 0-.6-1.137A2.171 2.171 0 0 0 18.1 0z" transform="rotate(167.96 19.179 19.221)" style="stroke:#2c3138;fill:none;stroke-width:1.5px"/>
    </g>
    <path data-name="선 729" transform="translate(20.889 11)" style="fill:none;stroke-width:1.5px;stroke:#2d3239" d="M0 0v5.214"/>
    <path data-name="선 736" transform="translate(22.889 22)" style="fill:none;stroke-width:1.5px;stroke:#2d3239" d="m0 0 3.611 4"/>
    <path data-name="선 762" transform="translate(15.278 22)" style="fill:none;stroke-width:1.5px;stroke:#2d3239" d="M3.61 0 0 4"/>
    <path data-name="선 732" transform="translate(12.5 17)" style="fill:none;stroke-width:1.5px;stroke:#2d3239" d="M5.889 1.714 0 0"/>
    <path data-name="선 735" transform="translate(23.389 17)" style="fill:none;stroke-width:1.5px;stroke:#2d3239" d="M0 1.714 5.111 0"/>
    <path data-name="선 741" transform="translate(20.889 6)" style="stroke-linecap:round;fill:none;stroke-width:1.5px;stroke:#2d3239" d="M0 0v2"/>
    <path data-name="선 745" transform="rotate(45 3.201 41.915)" style="stroke-linecap:round;fill:none;stroke-width:1.5px;stroke:#2d3239" d="M0 0v2"/>
    <path data-name="선 747" transform="rotate(135 3.94 8.326)" style="stroke-linecap:round;fill:none;stroke-width:1.5px;stroke:#2d3239" d="M0 2V0"/>
    <path data-name="선 746" transform="rotate(45 -27.46 29.215)" style="stroke-linecap:round;fill:none;stroke-width:1.5px;stroke:#2d3239" d="M0 0v2"/>
    <path data-name="선 743" transform="rotate(90 -5.256 14.444)" style="stroke-linecap:round;fill:none;stroke-width:1.5px;stroke:#2d3239" d="M0 0v2"/>
</svg>
