<svg xmlns="http://www.w3.org/2000/svg" width="44" height="44" viewBox="0 0 44 44">
    <path data-name="사각형 7870" style="fill:none" d="M0 0h44v44H0z"/>
    <g data-name="그룹 12153">
        <path data-name="합치기 132" d="M1.63 15.3a1.735 1.735 0 0 1-1.619-1.831 9.852 9.852 0 0 1 .63-4.676 8.6 8.6 0 0 1 7.464-4.475h.166C9.976 1.8 14.573 0 19.977 0s10 1.8 11.706 4.317h3.4a1.734 1.734 0 0 1 1.619 1.83v5.491a3.469 3.469 0 0 1-3.238 3.66z" transform="translate(.5 12.554)" style="fill:#fff"/>
        <g data-name="합치기 133" style="fill:none">
            <path d="M1.631 17.268a1.62 1.62 0 0 1-1.619-1.62c0-1.389-.148-4.866.633-6.3C1.8 7.19 4.773 5.529 7.738 5.4 8.721 2.337 13.826 0 19.977 0s11.255 2.333 12.242 5.394h3.941a1.617 1.617 0 0 1 1.615 1.62v7.015a3.239 3.239 0 0 1-3.236 3.239z" style="stroke:none" transform="translate(.5 11.477)"/>
            <path d="M34.54 15.768a1.74 1.74 0 0 0 1.735-1.74V7.014c0-.068-.05-.12-.115-.12h-5.034l-.335-1.04c-.343-1.065-1.57-2.135-3.367-2.935-2.055-.916-4.7-1.42-7.447-1.42-2.748 0-5.392.505-7.446 1.422-1.796.802-3.023 1.873-3.364 2.94l-.32.995-1.045.045c-2.421.104-4.93 1.46-5.834 3.156l-.007.012c-.087.16-.302.688-.403 2.108-.071 1.007-.06 2.08-.051 2.864.003.23.005.43.005.607 0 .065.054.12.119.12h32.908m0 1.5H1.631a1.62 1.62 0 0 1-1.62-1.62c0-1.388-.148-4.866.634-6.297 1.152-2.16 4.128-3.822 7.093-3.949C8.721 2.337 13.826 0 19.977 0c6.15 0 11.255 2.334 12.242 5.395h3.941c.895 0 1.615.726 1.615 1.62v7.014c0 1.788-1.449 3.24-3.236 3.24z" style="fill:#2d3239;stroke:none" transform="translate(.5 11.477)"/>
        </g>
        <g data-name="사각형 12132" transform="rotate(90 4.412 16.338)" style="stroke:#2d3239;fill:none">
            <rect width="16.189" height="1.619" rx=".809" style="stroke:none"/>
            <rect x=".5" y=".5" width="15.189" height=".619" rx=".309" style="fill:none"/>
        </g>
        <g data-name="그룹 9791" transform="translate(4.83 23.888)">
            <g data-name="타원 1442" style="stroke-width:1.5px;stroke:#2d3239;fill:#fff">
                <circle cx="4.317" cy="4.317" r="4.317" style="stroke:none"/>
                <circle cx="4.317" cy="4.317" r="3.567" style="fill:none"/>
            </g>
            <g data-name="타원 1443" transform="translate(19.507)" style="stroke-width:1.5px;stroke:#2d3239;fill:#fff">
                <circle cx="4.317" cy="4.317" r="4.317" style="stroke:none"/>
                <circle cx="4.317" cy="4.317" r="3.567" style="fill:none"/>
            </g>
            <circle data-name="타원 1444" cx="1.079" cy="1.079" r="1.079" transform="translate(3.238 3.238)" style="fill:#2d3239"/>
        </g>
        <g data-name="사각형 12136" transform="translate(12.385 20.066)" style="stroke-width:1.5px;stroke:#2d3239;fill:#fff">
            <rect width="4.317" height="1.619" rx=".809" style="stroke:none"/>
            <rect x=".75" y=".75" width="2.817" height=".119" rx=".059" style="fill:none"/>
        </g>
        <path data-name="패스 11007" d="M18507.164-9048.1h18.979l3.047-1.98" transform="translate(-18497.838 9065.786)" style="stroke-width:1.5px;stroke:#2d3239;fill:none"/>
    </g>
    <g data-name="그룹 12252">
        <path data-name="패스 12225" d="M0 2.2C.328 1.264 6.228-1 7.158-1s6.708 2.551 7.154 3.2-.422 5.6-1.683 8S8.258 15 7.158 15s-4.246-2.583-5.471-4.8S-.32 3.136 0 2.2z" transform="translate(27.07 21)" style="fill:#fff"/>
        <path data-name="패스 12149" d="M0 2c.29-.877 5.58-3 6.415-3s6.014 2.392 6.414 3-.379 5.252-1.509 7.5S7.132 14 6.411 14 2.6 11.578 1.506 9.5-.295 2.877 0 2z" transform="translate(30.57 22.5)" style="fill:#7dedf3"/>
        <path data-name="패스 12150" d="m-10170 5361.4 2.063 2.1 3.437-3.5" transform="translate(10201.75 -5334)" style="stroke-linecap:round;stroke-linejoin:round;stroke-width:1.5px;stroke:#2d3239;fill:none"/>
        <g data-name="패스 12151" style="fill:none">
            <path d="M0 2.2C.328 1.264 6.228-1 7.158-1s6.708 2.551 7.154 3.2-.422 5.6-1.683 8S8.258 15 7.158 15s-4.246-2.583-5.471-4.8S-.32 3.136 0 2.2z" style="stroke:none" transform="translate(27.07 21)"/>
            <path d="M7.146.51c-.368.074-1.477.41-2.997 1.033-1.541.633-2.364 1.093-2.72 1.331.001.46.078 1.417.35 2.77C2.1 7.24 2.557 8.671 3 9.474c.44.797 1.284 1.79 2.257 2.655.92.816 1.616 1.225 1.91 1.346.295-.112.983-.497 1.873-1.272.985-.859 1.809-1.843 2.26-2.701.454-.862.923-2.302 1.256-3.852.272-1.268.362-2.158.373-2.621-.467-.278-1.404-.763-2.71-1.34C8.642.99 7.527.598 7.146.51M7.158-1c.93 0 6.709 2.551 7.154 3.2.445.649-.422 5.602-1.683 8-1.261 2.398-4.371 4.8-5.47 4.8-1.1 0-4.247-2.583-5.471-4.8C.463 7.983-.32 3.136.004 2.2.328 1.264 6.228-1 7.158-1z" style="fill:#2d3239;stroke:none" transform="translate(27.07 21)"/>
        </g>
    </g>
</svg>
