<svg xmlns="http://www.w3.org/2000/svg" width="36" height="36" viewBox="0 0 36 36">
    <defs>
        <style>
            .cls-4{fill:#2d3239}
        </style>
    </defs>
    <g id="ic_phone_fee" data-name="ic_phone fee" transform="translate(-206 -750)">
        <path id="빼기_336" data-name="빼기 336" d="M6286-13652h-15a3 3 0 0 1-2.234-1h10.983a5.007 5.007 0 0 0 5-5v-17H6286a3 3 0 0 1 3 3v17a3 3 0 0 1-3 3z" transform="translate(-6054.5 14430.956)" style="fill:#7dedf3"/>
        <g id="사각형_12097" data-name="사각형 12097" transform="translate(213 750.999)" style="stroke:#2d3239;stroke-width:1.5px;fill:none">
            <rect width="21" height="34.003" rx="5" style="stroke:none"/>
            <rect x=".75" y=".75" width="19.5" height="32.503" rx="4.25" style="fill:none"/>
        </g>
        <rect id="사각형_12139" data-name="사각형 12139" class="cls-4" width="20" height="1.5" rx=".75" transform="translate(213 756)"/>
        <rect id="사각형_14461" data-name="사각형 14461" class="cls-4" width="20" height="1.5" rx=".75" transform="translate(213 777.459)"/>
        <rect id="사각형_14462" data-name="사각형 14462" class="cls-4" width="4" height="1.5" rx=".75" transform="translate(221.5 780.459)"/>
    </g>
</svg>
