<?xml version="1.0" encoding="utf-8"?>
<!-- Generator: Adobe Illustrator 26.1.0, SVG Export Plug-In . SVG Version: 6.00 Build 0)  -->
<svg version="1.1" id="Layer_1" xmlns="http://www.w3.org/2000/svg" xmlns:xlink="http://www.w3.org/1999/xlink" x="0px" y="0px"
	 viewBox="0 0 44 44" style="enable-background:new 0 0 44 44;" xml:space="preserve">
<style type="text/css">
	.st0{fill:none;}
	.st1{fill:none;stroke:#2D3239;}
	.st2{fill:#7DEDF3;}
	.st3{fill:#2D3239;}
	.st4{fill:none;stroke:#2D3239;stroke-width:1.5;stroke-linejoin:round;}
	.st5{fill:none;stroke:#2D3239;stroke-width:1.5;stroke-linecap:round;stroke-linejoin:round;}
</style>
<g>
	<g id="ic_trip" transform="translate(-267 -559)">
		<g id="ic_trip-2" transform="translate(64 255.667)">
			<g id="그룹_5625" transform="translate(1 -171.865)">
				<g id="사각형_7745" transform="translate(207.359 505.095)">
					<path class="st0" d="M2.3,6.7h29.6c0.6,0,1.1,0.5,1.1,1.1l0,0c0,0.6-0.5,1.1-1.1,1.1H2.3c-0.6,0-1.1-0.5-1.1-1.1l0,0
						C1.2,7.2,1.7,6.7,2.3,6.7z"/>
					<path class="st1" d="M2.3,7.3h29.6c0.3,0,0.5,0.2,0.5,0.5l0,0c0,0.3-0.2,0.5-0.5,0.5H2.3C2,8.2,1.8,8,1.8,7.8l0,0
						C1.8,7.5,2,7.3,2.3,7.3z"/>
				</g>
				<g id="그룹_6085" transform="translate(207.252 482.253)">
					<path id="합치기_162" class="st2" d="M4.6,14.8L1.2,9.7c0,0,2-1.4,3.3-0.5c0.8,0.5,1.5,1.1,2.2,1.7l7.8-3.4L9,3.7
						c1.8-0.9,3.9-1,5.8-0.3c1.4,0.6,2.7,1.3,4.1,2.1l1-0.4c0,0,8.8-4.1,10.7-3.4s5.1,2.7,0.7,4.8s-13.5,6.4-19.8,7.7
						c-1.9,0.5-3.8,0.7-5.7,0.8C4.8,15,4.6,14.8,4.6,14.8z"/>
				</g>
				<g id="사각형_8542" transform="rotate(-90 367.286 139.579)">
					<path class="st0" d="M-6,5.7h7.7c0.6,0,1.1,0.5,1.1,1.1l0,0c0,0.6-0.5,1.1-1.1,1.1H-6c-0.6,0-1.1-0.5-1.1-1.1l0,0
						C-7.1,6.2-6.6,5.7-6,5.7z"/>
					<path class="st1" d="M-6,6.3h7.7c0.3,0,0.5,0.2,0.5,0.5l0,0c0,0.3-0.2,0.5-0.5,0.5H-6c-0.3,0-0.5-0.2-0.5-0.5l0,0
						C-6.5,6.5-6.3,6.3-6,6.3z"/>
				</g>
				<g id="사각형_8544" transform="rotate(-90 360.809 133.102)">
					<path class="st0" d="M-3.1,5.7h2c0.6,0,1.1,0.5,1.1,1.1l0,0c0,0.6-0.5,1.1-1.1,1.1h-2c-0.6,0-1.1-0.5-1.1-1.1l0,0
						C-4.2,6.2-3.7,5.7-3.1,5.7z"/>
					<path class="st1" d="M-3.1,6.3h2c0.3,0,0.5,0.2,0.5,0.5l0,0c0,0.3-0.2,0.5-0.5,0.5h-2c-0.3,0-0.5-0.2-0.5-0.5l0,0
						C-3.6,6.5-3.4,6.3-3.1,6.3z"/>
				</g>
				<g id="패스_3545">
					<path class="st0" d="M228.7,498.1l11.5-1.4c0.8,0,1.4,0.6,1.4,1.4c0,0,0,0,0,0v5.8c0,0.8-0.6,1.4-1.4,1.4l0,0h-11.5
						c-0.8,0-1.4-0.6-1.4-1.4v-4.3C227.3,498.7,227.9,498.1,228.7,498.1z"/>
					<path class="st3" d="M239.9,498.5l-10.8,1.3v3.6h10.8V498.5 M240.3,496.7c0.8,0,1.4,0.6,1.4,1.4v5.8c0,0.8-0.6,1.4-1.4,1.4l0,0
						h-11.5c-0.8,0-1.4-0.6-1.4-1.4v-4.3c0-0.8,0.6-1.4,1.4-1.4L240.3,496.7z"/>
				</g>
				<g id="그룹_12494" transform="translate(206 481.198)">
					<path id="패스_2189" class="st4" d="M8,13.1l17.4-7.6c0,0,6.7-3.7,9.2-2.9s6.7,3.5,0.9,6.3s-12.9,6.7-21.1,8.5s-9,0.8-9,0.8
						l-4.5-6.6c0,0,2.6-1.8,4.3-0.7C6.2,11.6,7.1,12.3,8,13.1L8,13.1z"/>
					<path id="패스_2190" class="st5" d="M20,10l-8.8-6.3c2.4-1.2,5.2-1.3,7.6-0.3c2.5,1.2,5,2.5,7.4,3.9"/>
					<g id="사각형_8538" transform="rotate(-60 15.3 -20.371)">
						<path class="st0" d="M2.5,6.7l2.2,0c0.6,0,1.1,0.5,1.1,1.1l0,0c0,0.6-0.5,1.1-1.1,1.1H2.5c-0.6,0-1.1-0.5-1.1-1.1l0,0
							C1.5,7.2,1.9,6.7,2.5,6.7z"/>
						<path class="st1" d="M2.5,7.3l2.2,0c0.3,0,0.5,0.2,0.5,0.5l0,0C5.2,8,5,8.2,4.7,8.2H2.5C2.3,8.2,2.1,8,2.1,7.8l0,0
							C2.1,7.5,2.3,7.3,2.5,7.3z"/>
					</g>
				</g>
			</g>
		</g>
	</g>
	<rect class="st0" width="44" height="44"/>
</g>
</svg>
