<svg xmlns="http://www.w3.org/2000/svg" width="36" height="36" viewBox="0 0 36 36">
  <g id="ic_pc" transform="translate(-24 -580)">
    <path id="패스_12227" data-name="패스 12227" d="M0,0H36V36H0Z" transform="translate(24 580)" fill="none"/>
    <path id="패스_12228" data-name="패스 12228" d="M0,0H29V3a3,3,0,0,1-3,3H3A3,3,0,0,1,0,3Z" transform="translate(29 602)" fill="#7dedf3"/>
    <g id="패스_12229" data-name="패스 12229" transform="translate(27 583)" fill="none">
      <path d="M3,0H27a3,3,0,0,1,3,3V21a3,3,0,0,1-3,3H3a3,3,0,0,1-3-3V3A3,3,0,0,1,3,0Z" stroke="none"/>
      <path d="M 3 1.5 C 2.17289924621582 1.5 1.5 2.17289924621582 1.5 3 L 1.5 21 C 1.5 21.82710075378418 2.17289924621582 22.5 3 22.5 L 27 22.5 C 27.82710075378418 22.5 28.5 21.82710075378418 28.5 21 L 28.5 3 C 28.5 2.17289924621582 27.82710075378418 1.5 27 1.5 L 3 1.5 M 3 0 L 27 0 C 28.65685081481934 0 30 1.3431396484375 30 3 L 30 21 C 30 22.65685081481934 28.65685081481934 24 27 24 L 3 24 C 1.3431396484375 24 0 22.65685081481934 0 21 L 0 3 C 0 1.3431396484375 1.3431396484375 0 3 0 Z" stroke="none" fill="#2d3239"/>
    </g>
    <g id="패스_12230" data-name="패스 12230" transform="translate(35 611)" fill="#fff">
      <path d="M.75,0h12.5a.75.75,0,0,1,0,1.5H.75A.75.75,0,0,1,.75,0Z" stroke="none"/>
      <path d="M 0.75 0 L 13.25 0 C 13.66421031951904 0 14 0.3357900381088257 14 0.75 C 14 1.164209961891174 13.66421031951904 1.5 13.25 1.5 L 0.75 1.5 C 0.335789680480957 1.5 0 1.164209961891174 0 0.75 C 0 0.3357900381088257 0.335789680480957 0 0.75 0 Z" stroke="none" fill="#2d3239"/>
    </g>
    <g id="패스_12231" data-name="패스 12231" transform="translate(28 600)" fill="#fff">
      <path d="M.75,0h26.5a.75.75,0,0,1,0,1.5H.75A.75.75,0,0,1,.75,0Z" stroke="none"/>
      <path d="M 0.75 0 L 27.25 0 C 27.66420936584473 0 28 0.3357900381088257 28 0.75 C 28 1.164209961891174 27.66420936584473 1.5 27.25 1.5 L 0.75 1.5 C 0.3357906341552734 1.5 0 1.164209961891174 0 0.75 C 0 0.3357900381088257 0.3357906341552734 0 0.75 0 Z" stroke="none" fill="#2d3239"/>
    </g>
    <path id="패스_12232" data-name="패스 12232" d="M0,0H1.5V5H0Z" transform="translate(43.5 606)" fill="#2d3239"/>
    <path id="패스_12233" data-name="패스 12233" d="M0,0H1.5V5H0Z" transform="translate(39 606)" fill="#2d3239"/>
  </g>
</svg>
