<svg xmlns="http://www.w3.org/2000/svg" width="44" height="44" viewBox="0 0 44 44">
    <defs>
        <style>
            .cls-1{fill:none}.cls-3{fill:#2d3239}.cls-11,.cls-12{stroke:none}.cls-12{fill:#2d3239}
        </style>
    </defs>
    <g id="ic_phonecare_01" transform="translate(-272 -218)">
        <g id="ic_creditgrade_03" transform="translate(252.67 -528.768)">
            <path id="사각형_7870" data-name="사각형 7870" class="cls-1" transform="translate(19.33 746.768)" d="M0 0h44v44H0z"/>
            <g id="그룹_12507" data-name="그룹 12507" transform="translate(-3.101 -1.59)">
                <g id="사각형_12097" data-name="사각형 12097" transform="translate(29.431 752.357)" style="stroke-width:1.5px;stroke:#2d3239;fill:#fff">
                    <rect class="cls-11" width="23" height="36" rx="5.5"/>
                    <rect class="cls-1" x=".75" y=".75" width="21.5" height="34.5" rx="4.75"/>
                </g>
                <path id="사각형_12101" data-name="사각형 12101" class="cls-3" transform="translate(30.431 781.578)" d="M0 0h17.195v1.584H0z"/>
                <path id="사각형_12139" data-name="사각형 12139" class="cls-3" transform="translate(30.431 757.553)" d="M0 0h21.195v1.584H0z"/>
            </g>
            <g id="사각형_15458" data-name="사각형 15458" transform="rotate(90 -363.594 405.674)" style="stroke:#2d3239;fill:none">
                <rect class="cls-11" width="1.5" height="8.5" rx=".75"/>
                <rect class="cls-1" x=".5" y=".5" width=".5" height="7.5" rx=".25"/>
            </g>
            <g id="사각형_15459" data-name="사각형 15459" transform="translate(34.33 761.268)" style="stroke-width:1.5px;stroke:#2d3239;fill:none">
                <rect class="cls-11" width="7" height="7" rx="3.5"/>
                <rect class="cls-1" x=".75" y=".75" width="5.5" height="5.5" rx="2.75"/>
            </g>
        </g>
        <g id="그룹_12510" data-name="그룹 12510" transform="scale(-1) rotate(37 234.039 -571.536)">
            <g id="합치기_169" data-name="합치기 169" style="fill:#fff">
                <path class="cls-11" d="M3.445 16.673H3.09c-.69 0-1.25-.56-1.25-1.25V6.945l-.408-.21A1.246 1.246 0 0 1 .75 5.623V2C.75 1.31 1.31.75 2 .75h2.534c.69 0 1.25.56 1.25 1.25v3.622c0 .472-.261.898-.681 1.114l-.408.209v8.478c0 .69-.56 1.25-1.25 1.25z" transform="translate(1.633)"/>
                <path class="cls-12" d="M3.445 15.923a.5.5 0 0 0 .5-.5V6.486l.816-.418a.5.5 0 0 0 .273-.446V2a.5.5 0 0 0-.5-.5H2a.5.5 0 0 0-.5.5v3.622a.5.5 0 0 0 .273.446l.816.418v8.937a.5.5 0 0 0 .5.5h.356m0 1.5H3.09a2 2 0 0 1-2-2v-8.02A2 2 0 0 1 0 5.623V2a2 2 0 0 1 2-2h2.534a2 2 0 0 1 2 2v3.622a2 2 0 0 1-1.089 1.781v8.02a2 2 0 0 1-2 2z" transform="translate(1.633)"/>
            </g>
            <path id="합치기_171" data-name="합치기 171" d="M1.089 11.434v-7.3A2 2 0 0 1 0 2.355V2a2 2 0 0 1 2-2h5.8a2 2 0 0 1 2 2v.355a2 2 0 0 1-1.088 1.781v7.3a3.811 3.811 0 0 1-7.623 0z" transform="translate(0 13.068)" style="fill:#fff"/>
            <path id="합치기_170" data-name="합치기 170" d="M1.089 11.434v-7.3A2 2 0 0 1 0 2.355V2a2 2 0 0 1 2-2h5.8a2 2 0 0 1 2 2v.355a2 2 0 0 1-1.088 1.781v7.3a3.811 3.811 0 0 1-7.623 0z" transform="translate(-2.198 13.472)" style="fill:#7dedf3"/>
            <g id="합치기_168" data-name="합치기 168" style="fill:none">
                <path class="cls-11" d="M1.089 11.434v-7.3A2 2 0 0 1 0 2.355V2a2 2 0 0 1 2-2h5.8a2 2 0 0 1 2 2v.355a2 2 0 0 1-1.088 1.781v7.3a3.811 3.811 0 0 1-7.623 0z" transform="translate(0 13.068)"/>
                <path class="cls-12" d="M4.9 13.745a2.314 2.314 0 0 0 2.312-2.311V3.219l.816-.418a.5.5 0 0 0 .273-.446V2a.5.5 0 0 0-.5-.5H2a.5.5 0 0 0-.5.5v.355a.5.5 0 0 0 .273.446l.816.418v8.215a2.314 2.314 0 0 0 2.312 2.311m0 1.5a3.811 3.811 0 0 1-3.812-3.811V4.136A2 2 0 0 1 0 2.356V2a2 2 0 0 1 2-2h5.8a2 2 0 0 1 2.001 2v.355c0 .777-.442 1.45-1.089 1.781v7.298a3.811 3.811 0 0 1-3.811 3.811z" transform="translate(0 13.068)"/>
            </g>
            <path id="선_325" data-name="선 325" transform="translate(4.9 17.968)" style="stroke-linecap:round;stroke-width:1.5px;stroke:#2d3239;fill:none" d="M0 0v5.445"/>
        </g>
    </g>
</svg>
