<svg xmlns="http://www.w3.org/2000/svg" width="15" height="15" viewBox="0 0 15 15">
  <defs>
    <style>
      .cls-1 {
        fill: #e5e5e5;
        opacity: 0.997;
      }

      .cls-2 {
        fill: #888;
      }

      .cls-3, .cls-4 {
        stroke: none;
      }

      .cls-4 {
        fill: #d9d9d9;
      }
    </style>
  </defs>
  <g id="ic_notice_l2" transform="translate(-296 -299)">
    <g id="패스_3097" data-name="패스 3097" class="cls-1" transform="translate(296 299)">
      <path class="cls-3" d="M 7.5 14.5 C 3.64018988609314 14.5 0.5 11.35980987548828 0.5 7.5 C 0.5 3.64018988609314 3.64018988609314 0.5 7.5 0.5 C 11.35980987548828 0.5 14.5 3.64018988609314 14.5 7.5 C 14.5 11.35980987548828 11.35980987548828 14.5 7.5 14.5 Z"/>
      <path class="cls-4" d="M 7.5 1 C 3.915889739990234 1 1 3.915889739990234 1 7.5 C 1 11.08411026000977 3.915889739990234 14 7.5 14 C 11.08411026000977 14 14 11.08411026000977 14 7.5 C 14 3.915889739990234 11.08411026000977 1 7.5 1 M 7.5 0 C 11.64213943481445 0 15 3.35785961151123 15 7.5 C 15 11.64213943481445 11.64213943481445 15 7.5 15 C 3.35785961151123 15 0 11.64213943481445 0 7.5 C 0 3.35785961151123 3.35785961151123 0 7.5 0 Z"/>
    </g>
    <path id="패스_5018" data-name="패스 5018" class="cls-2" d="M2.87-9.438a3.04,3.04,0,0,0-2.026.744.455.455,0,0,0-.052.648A.416.416,0,0,0,1.4-7.94a2.148,2.148,0,0,1,1.444-.552c.863,0,1.289.446,1.289,1.041v.074c0,.467-.187.765-.987,1.487a2.093,2.093,0,0,0-.935,1.848c0,.308.239.435.5.435a.435.435,0,0,0,.478-.414c0-.489.094-.733.821-1.413.842-.775,1.164-1.243,1.164-1.954v-.106C5.177-8.652,4.3-9.438,2.87-9.438ZM2.7-2.736a.669.669,0,0,0-.675.69.678.678,0,0,0,.675.7.68.68,0,0,0,.686-.7A.671.671,0,0,0,2.7-2.736Z" transform="translate(300.572 311.89)"/>
  </g>
</svg>
