<svg xmlns="http://www.w3.org/2000/svg" width="15" height="15" viewBox="0 0 15 15">
    <path data-name="패스 3097" d="M7.5 0A7.5 7.5 0 1 1 0 7.5 7.5 7.5 0 0 1 7.5 0z" style="fill:#111;opacity:.997"/>
    <g data-name="패스 5018" style="fill:#fff">
        <path d="M2.93-.338c-.477 0-.851-.386-.851-.88s.366-.867.85-.867c.493 0 .863.373.863.867 0 .502-.37.88-.862.88zm.011-2.516c-.397 0-.654-.23-.654-.584 0-.855.162-1.306 1.073-2.13.91-.822 1.064-1.115 1.064-1.579v-.082c0-.663-.498-1.058-1.332-1.058-.735 0-1.21.316-1.543.591a.568.568 0 0 1-.346.126c-.177 0-.347-.092-.478-.26a.605.605 0 0 1 .073-.859c.617-.546 1.441-.849 2.317-.849 1.619 0 2.665.888 2.665 2.261v.119c0 .871-.428 1.418-1.326 2.246-.809.756-.881.998-.881 1.498 0 .368-.318.56-.632.56z" style="stroke:none" transform="translate(4.32 12.437)"/>
        <path d="M3.115-9.438a3.38 3.38 0 0 0-2.254.827c-.23.189-.23.508-.057.72.184.236.45.296.681.118.428-.354.913-.614 1.607-.614.959 0 1.432.496 1.432 1.158v.082c0 .52-.208.85-1.097 1.654-.902.815-1.04 1.252-1.04 2.055 0 .343.265.484.554.484.278 0 .532-.165.532-.46 0-.544.104-.815.913-1.571.936-.862 1.294-1.382 1.294-2.173v-.119c0-1.287-.97-2.161-2.565-2.161M2.93-1.985c-.428 0-.751.33-.751.767s.323.78.75.78c.44 0 .763-.343.763-.78a.746.746 0 0 0-.762-.767m.185-7.653c1.68 0 2.765.927 2.765 2.361v.119c0 .903-.458 1.49-1.359 2.32-.779.728-.848.956-.848 1.424 0 .382-.308.66-.732.66-.451 0-.754-.275-.754-.684 0-.849.153-1.343 1.106-2.203.882-.797 1.031-1.075 1.031-1.506v-.082c0-.609-.449-.958-1.232-.958-.556 0-.998.17-1.479.568l-.006.005a.664.664 0 0 1-.404.144c-.209 0-.407-.105-.557-.297a.703.703 0 0 1 .085-.996c.639-.564 1.485-.875 2.384-.875zM2.93-2.185c.549 0 .962.416.962.967a.96.96 0 0 1-.962.98c-.534 0-.951-.43-.951-.98 0-.551.409-.967.95-.967z" style="fill:#fff;stroke:none" transform="translate(4.32 12.437)"/>
    </g>
</svg>
