<svg xmlns="http://www.w3.org/2000/svg" width="36" height="36" viewBox="0 0 36 36">
    <defs>
        <clipPath id="clip-path">
            <path id="사각형_14520" data-name="사각형 14520" transform="translate(26.33 756.768)" style="stroke:#707070;fill:#fff" d="M0 0h26v29H0z"/>
        </clipPath>
        <style>
            .cls-10,.cls-2,.cls-4{fill:none}.cls-10,.cls-4{stroke:#2d3239;stroke-width:1.5px}.cls-4{fill-rule:evenodd}.cls-11{stroke:none}
        </style>
    </defs>
    <g id="ic_rental" transform="translate(-23.33 -750.768)">
        <path id="사각형_7870" data-name="사각형 7870" class="cls-2" transform="translate(23.33 750.768)" d="M0 0h36v36H0z"/>
        <g id="마스크_그룹_212" data-name="마스크 그룹 212" style="clip-path:url(#clip-path)">
            <path id="패스_12162" data-name="패스 12162" class="cls-4" d="M16.856 4.7 27.3 15.149a2.4 2.4 0 0 1 0 3.4L18.55 27.3a2.4 2.4 0 0 1-3.4 0L4.7 16.856a2.4 2.4 0 0 1-.7-1.862l.551-8.2a2.4 2.4 0 0 1 2.244-2.238l8.2-.551a2.4 2.4 0 0 1 1.861.695z" transform="rotate(20 -2117.755 461.038)"/>
        </g>
        <path id="패스_12162-2" data-name="패스 12162" d="m17.389 4.734 10.877 10.877a2.5 2.5 0 0 1 0 3.542l-9.113 9.113a2.5 2.5 0 0 1-3.542 0L4.734 17.389a2.5 2.5 0 0 1-.728-1.939l.573-8.539a2.5 2.5 0 0 1 2.332-2.332l8.539-.573a2.5 2.5 0 0 1 1.939.728z" transform="translate(27.33 753.768)" style="fill-rule:evenodd;fill:#fff"/>
        <path id="빼기_333" data-name="빼기 333" d="M6800.01-15689.394a2.478 2.478 0 0 1-1.767-.733l-.774-.773a2.5 2.5 0 0 0 .238-.212l8.744-8.922a2.493 2.493 0 0 0 0-3.471l-10.436-10.648-.007-.007 2.074-.139c.055 0 .111-.006.167-.006a2.5 2.5 0 0 1 1.77.731l10.85 10.838a2.472 2.472 0 0 1 .733 1.765 2.472 2.472 0 0 1-.733 1.765l-9.091 9.079a2.48 2.48 0 0 1-1.768.733z" transform="translate(-6753.67 16472.768)" style="fill:#7dedf3"/>
        <path id="패스_12164" data-name="패스 12164" class="cls-4" d="m17.389 4.734 10.877 10.877a2.5 2.5 0 0 1 0 3.542l-9.113 9.113a2.5 2.5 0 0 1-3.542 0L4.734 17.389a2.5 2.5 0 0 1-.728-1.939l.573-8.539a2.5 2.5 0 0 1 2.332-2.332l8.539-.573a2.5 2.5 0 0 1 1.939.728z" transform="translate(27.33 753.768)"/>
        <g id="타원_1886" data-name="타원 1886" transform="translate(34.33 760.768)" style="stroke-width:1.5px;stroke:#2d3239;fill:#fff">
            <circle class="cls-11" cx="2.5" cy="2.5" r="2.5"/>
            <circle class="cls-2" cx="2.5" cy="2.5" r="1.75"/>
        </g>
        <rect id="사각형_14441" data-name="사각형 14441" width="1.5" height="11.2" rx=".75" transform="rotate(-49 841.918 348.16)" style="fill:#2d3239"/>
        <g id="그룹_9776" data-name="그룹 9776" transform="rotate(-43 -263.042 1216.218)">
            <g id="사각형_12114" data-name="사각형 12114" transform="rotate(45 -1187.911 872.4)" style="stroke:#2d3239;fill:none">
                <rect class="cls-11" width="1.5" height="11" rx=".75"/>
                <rect class="cls-2" x=".5" y=".5" width=".5" height="10" rx=".25"/>
            </g>
            <g id="사각형_12115" data-name="사각형 12115" class="cls-10" transform="translate(260.379 1095)">
                <rect class="cls-11" width="4.5" height="4.5" rx="2.25"/>
                <rect class="cls-2" x=".75" y=".75" width="3" height="3" rx="1.5"/>
            </g>
            <g id="사각형_12116" data-name="사각형 12116" class="cls-10" transform="translate(265.879 1101)">
                <rect class="cls-11" width="4.5" height="4.5" rx="2.25"/>
                <rect class="cls-2" x=".75" y=".75" width="3" height="3" rx="1.5"/>
            </g>
        </g>
    </g>
</svg>
