<svg xmlns="http://www.w3.org/2000/svg" width="44" height="44" viewBox="0 0 44 44">
    <path data-name="사각형 14541" style="fill:transparent" d="M0 0h44v44H0z"/>
    <g data-name="그룹 13335">
        <g data-name="사각형 14442" style="stroke:#2d3239;stroke-width:1.5px;fill:#fff">
            <path d="M5 0h11.724a5 5 0 0 1 5 5v25H3a3 3 0 0 1-3-3V5a5 5 0 0 1 5-5z" style="stroke:none" transform="translate(6 5.539)"/>
            <path d="M5 .75h11.724A4.25 4.25 0 0 1 20.974 5v24.25H3A2.25 2.25 0 0 1 .75 27V5A4.25 4.25 0 0 1 5 .75z" style="fill:none" transform="translate(6 5.539)"/>
        </g>
        <g data-name="사각형 14443" style="stroke:#2d3239;stroke-width:1.5px;fill:#fff">
            <path d="M0 0h3.207a3 3 0 0 1 3 3v14.32a3 3 0 0 1-3 3H0V0z" style="stroke:none" transform="translate(26.35 15.218)"/>
            <path d="M.75.75h2.457A2.25 2.25 0 0 1 5.457 3v14.32a2.25 2.25 0 0 1-2.25 2.25H.75V.75z" style="fill:none" transform="translate(26.35 15.218)"/>
        </g>
        <g data-name="사각형 14444" transform="translate(10.655 11.229)" style="fill:none;stroke:#2d3239;stroke-width:1.5px">
            <rect width="5.172" height="5.172" rx="2.586" style="stroke:none"/>
            <rect x=".75" y=".75" width="3.672" height="3.672" rx="1.836" style="fill:none"/>
        </g>
        <g data-name="사각형 14445" transform="translate(10.655 17.953)" style="fill:none;stroke:#2d3239;stroke-width:1.5px">
            <rect width="5.172" height="5.172" rx="2.586" style="stroke:none"/>
            <rect x=".75" y=".75" width="3.672" height="3.672" rx="1.836" style="fill:none"/>
        </g>
        <g data-name="사각형 14446" transform="translate(17.896 11.229)" style="fill:none;stroke:#2d3239;stroke-width:1.5px">
            <rect width="5.172" height="5.172" rx="2.586" style="stroke:none"/>
            <rect x=".75" y=".75" width="3.672" height="3.672" rx="1.836" style="fill:none"/>
        </g>
        <g data-name="사각형 14447" transform="translate(17.896 17.953)" style="fill:none;stroke:#2d3239;stroke-width:1.5px">
            <rect width="5.172" height="5.172" rx="2.586" style="stroke:none"/>
            <rect x=".75" y=".75" width="3.672" height="3.672" rx="1.836" style="fill:none"/>
        </g>
        <path data-name="사각형 14449" d="M3 0h.724a3 3 0 0 1 3 3v6.827H0V3a3 3 0 0 1 3-3z" transform="translate(15.31 25.711)" style="fill:#7dedf3"/>
        <g data-name="사각형 14450" style="fill:none;stroke:#2d3239;stroke-width:1.5px">
            <path d="M3 0h2.276a3 3 0 0 1 3 3v6.827H0V3a3 3 0 0 1 3-3z" style="stroke:none" transform="translate(12.724 25.711)"/>
            <path d="M3 .75h2.276A2.25 2.25 0 0 1 7.526 3v6.077H.75V3A2.25 2.25 0 0 1 3 .75z" style="fill:none" transform="translate(12.724 25.711)"/>
        </g>
    </g>
    <g data-name="그룹 13144" transform="translate(23.43 23.365)">
        <circle data-name="타원 1896" cx="7.537" cy="7.537" r="7.537" style="fill:#fff"/>
        <path data-name="패스 10995" d="M6.595 0A6.595 6.595 0 1 1 0 6.595 6.595 6.595 0 0 1 6.595 0z" transform="translate(2.826 1.413)" style="fill:#7dedf3"/>
        <g data-name="타원 1441" style="fill:none;stroke:#2d3239;stroke-width:1.5px">
            <circle cx="7.537" cy="7.537" r="7.537" style="stroke:none"/>
            <circle cx="7.537" cy="7.537" r="6.787" style="fill:none"/>
        </g>
        <path data-name="패스 12471" d="m52.728 794.648 2.522 2.491 4.563-4.443" transform="translate(-48.585 -787.111)" style="stroke-linecap:round;stroke-linejoin:round;fill:none;stroke:#2d3239;stroke-width:1.5px"/>
    </g>
</svg>
