<svg xmlns="http://www.w3.org/2000/svg" xmlns:xlink="http://www.w3.org/1999/xlink" width="36" height="36" viewBox="0 0 36 36">
  <defs>
    <clipPath id="clip-path">
      <path id="사각형_17851" data-name="사각형 17851" d="M5,0h9a8,8,0,0,1,8,8V23a5,5,0,0,1-5,5H5a5,5,0,0,1-5-5V5A5,5,0,0,1,5,0Z" transform="translate(206 520)" fill="#fff" stroke="#2d3239" stroke-width="1.5"/>
    </clipPath>
  </defs>
  <g id="ic-revolving-01" transform="translate(-206 -516)">
    <rect id="사각형_7905" data-name="사각형 7905" width="36" height="36" transform="translate(206 516)" fill="none"/>
    <g id="패스_14279" data-name="패스 14279" transform="translate(206 520)" fill="#fff">
      <path d="M 17 27.25 L 5 27.25 C 2.656539916992188 27.25 0.75 25.34346008300781 0.75 23 L 0.75 5 C 0.75 2.656539916992188 2.656539916992188 0.75 5 0.75 L 14 0.75 C 17.99765968322754 0.75 21.25 4.002339839935303 21.25 8 L 21.25 23 C 21.25 25.34346008300781 19.34346008300781 27.25 17 27.25 Z" stroke="none"/>
      <path d="M 5 1.5 C 3.070089340209961 1.5 1.5 3.070089340209961 1.5 5 L 1.5 23 C 1.5 24.92991065979004 3.070089340209961 26.5 5 26.5 L 17 26.5 C 18.92991065979004 26.5 20.5 24.92991065979004 20.5 23 L 20.5 8 C 20.5 4.415889739990234 17.58411026000977 1.5 14 1.5 L 5 1.5 M 5 0 L 14 0 C 18.41827964782715 0 22 3.581720352172852 22 8 L 22 23 C 22 25.76141929626465 19.76141929626465 28 17 28 L 5 28 C 2.238580703735352 28 0 25.76141929626465 0 23 L 0 5 C 0 2.238580703735352 2.238580703735352 0 5 0 Z" stroke="none" fill="#2d3239"/>
    </g>
    <g id="교차_35" data-name="교차 35" transform="translate(219.48 520.791)" fill="none">
      <path d="M4.52,7.21a4,4,0,0,1-4-4v-4h0a8,8,0,0,1,8,8Z" stroke="none"/>
      <path d="M 6.8447585105896 5.70989990234375 C 6.280116558074951 3.328036069869995 4.401303291320801 1.449139714241028 2.019300937652588 0.8844338059425354 L 2.019300937652588 3.209399938583374 C 2.019300937652588 4.588180065155029 3.141021013259888 5.70989990234375 4.519801139831543 5.70989990234375 L 6.8447585105896 5.70989990234375 M 8.519400596618652 7.20989990234375 L 4.519801139831543 7.20989990234375 C 2.310301065444946 7.20989990234375 0.5193009972572327 5.418900012969971 0.5193009972572327 3.209399938583374 L 0.5202010273933411 -0.7902001738548279 C 4.938301086425781 -0.7902001738548279 8.519400596618652 2.790899753570557 8.519400596618652 7.20989990234375 Z" stroke="none" fill="#2d3239"/>
    </g>
    <rect id="사각형_17857" data-name="사각형 17857" width="6" height="1.5" rx="0.75" transform="translate(211 537.5)" fill="#2d3239"/>
    <rect id="사각형_17858" data-name="사각형 17858" width="8" height="1.5" rx="0.75" transform="translate(211 541)" fill="#2d3239"/>
    <g id="그룹_14228" data-name="그룹 14228" transform="translate(139 -233.982)">
      <rect id="사각형_12063" data-name="사각형 12063" width="16" height="5" rx="2.5" transform="translate(80 774) rotate(-30)" fill="#fff"/>
      <rect id="사각형_12064" data-name="사각형 12064" width="14.629" height="4" rx="2" transform="translate(82 775) rotate(-30)" fill="#7dedf3"/>
      <g id="사각형_18342" data-name="사각형 18342" transform="translate(80 774) rotate(-30)" fill="none" stroke="#2d3239" stroke-width="1.5">
        <rect width="16" height="5" rx="2.5" stroke="none"/>
        <rect x="0.75" y="0.75" width="14.5" height="3.5" rx="1.75" fill="none"/>
      </g>
    </g>
    <line id="선_345" data-name="선 345" x1="5" y2="6" transform="translate(213.5 527.5)" fill="none" stroke="#2d3239" stroke-linecap="round" stroke-width="1.5"/>
    <g id="타원_1884" data-name="타원 1884" transform="translate(211 526)" fill="none" stroke="#2d3239" stroke-width="1.5">
      <circle cx="2" cy="2" r="2" stroke="none"/>
      <circle cx="2" cy="2" r="1.25" fill="none"/>
    </g>
    <g id="타원_1885" data-name="타원 1885" transform="translate(217 531)" fill="none" stroke="#2d3239" stroke-width="1.5">
      <circle cx="2" cy="2" r="2" stroke="none"/>
      <circle cx="2" cy="2" r="1.25" fill="none"/>
    </g>
  </g>
</svg>
