<svg xmlns="http://www.w3.org/2000/svg" width="36" height="36" viewBox="0 0 36 36">
    <defs>
        <style>
            .cls-1,.cls-4{fill:none}.cls-2{fill:#fff}.cls-4{stroke:#2d3239;stroke-width:1.5px;stroke-linecap:round}.cls-7{fill:#2d3239}.cls-10,.cls-11{stroke:none}.cls-11{fill:#2d3239}
        </style>
    </defs>
    <g id="ic_revolving_04" transform="translate(-24 -2341)">
        <path id="사각형_7872" data-name="사각형 7872" class="cls-1" transform="translate(24 2341)" d="M0 0h36v36H0z"/>
        <path id="사각형_8426" data-name="사각형 8426" class="cls-2" transform="translate(39 2370)" d="M0 0h4v4H0z"/>
        <g id="그룹_5868" data-name="그룹 5868" transform="translate(33.01 2354.972)">
            <path id="패스_2252" data-name="패스 2252" d="m3649.636 5413.028 1.5 5 2-5 2 5 1.5-5" transform="translate(-3648.646 -5412)" style="stroke-linejoin:round;stroke-linecap:round;stroke:#2d3239;stroke-width:1.5px;fill:none"/>
            <path id="선_11" data-name="선 11" class="cls-4" transform="translate(-.01 3.527)" d="M0 0h1.5"/>
            <path id="선_166" data-name="선 166" class="cls-4" transform="translate(7.49 3.527)" d="M0 0h1.5"/>
        </g>
        <g id="그룹_12119" data-name="그룹 12119">
            <g id="빼기_85" data-name="빼기 85" style="stroke-linejoin:round;stroke-linecap:round;fill:none">
                <path class="cls-10" d="M19.5 0h-13A6.553 6.553 0 0 0 0 6.587V10.5h1.517V7.189A5.733 5.733 0 0 1 7.281 1.5H18.828a5.964 5.964 0 0 1 4.309 1.591 5.066 5.066 0 0 1 1.38 3.769c-.088 9.05-4.834 13.154-8.8 15a17.417 17.417 0 0 1-2.907.172 14.519 14.519 0 0 1-2.684-.172 15.689 15.689 0 0 1-7.75-7.36H.763a14.968 14.968 0 0 0 3.757 5.377 18.183 18.183 0 0 0 5.1 3.38 20.68 20.68 0 0 0 3.72.243 15.749 15.749 0 0 0 2.707-.159 16.739 16.739 0 0 0 6.725-5.358A19.067 19.067 0 0 0 26 6.587 6.553 6.553 0 0 0 19.5 0z" transform="rotate(180 25.001 1186.751)"/>
                <path class="cls-11" d="M6.502 0h12.997c3.586 0 6.503 2.955 6.503 6.587 0 4.596-1.087 8.43-3.23 11.396-1.626 2.253-3.827 4.005-6.724 5.358-.434.1-1.445.159-2.707.159-1.383 0-3.137-.076-3.72-.243-1.785-.768-3.597-1.968-5.101-3.38-1.715-1.609-3.015-3.467-3.757-5.375h1.613c1.65 3.68 5.207 6.266 7.751 7.362.445.127 1.679.172 2.684.172 1.311 0 2.452-.067 2.907-.172 3.965-1.85 8.71-5.954 8.799-15.004.018-1.56-.445-2.83-1.375-3.772-1.014-1.026-2.544-1.59-4.309-1.59l-.103.001a2.386 2.386 0 0 1-.102.002H7.28c-3.178 0-5.764 2.552-5.764 5.688V10.5H0V6.587C0 2.955 2.917 0 6.502 0z" transform="rotate(180 25.001 1186.751)"/>
            </g>
            <g id="패스_2251" data-name="패스 2251" style="fill:none">
                <path class="cls-10" d="M6.857 0H1.143A2.262 2.262 0 0 0-1 2.365v.788a4.731 4.731 0 0 0 2.6 3.895 7.2 7.2 0 0 0 4.455.181A4.733 4.733 0 0 0 9 3.154v-.789A2.262 2.262 0 0 0 6.857 0z" transform="translate(33.001 2344)"/>
                <path class="cls-11" d="M1.143 1.5C.794 1.5.5 1.896.5 2.365v.789c0 1.268 1.169 2.176 1.873 2.608.185.085.896.238 1.835.238.75 0 1.15-.102 1.23-.138l.009-.004C6.436 5.42 7.5 4.386 7.5 3.154v-.789c0-.469-.294-.865-.643-.865H1.143m0-1.5h5.714C8.041 0 9 1.059 9 2.365v.789c0 1.805-1.364 3.374-2.945 4.075-1.004.453-3.678.3-4.455-.18C-.002 6.068-1 4.697-1 3.153v-.789C-1 1.06-.04 0 1.143 0z" transform="translate(33.001 2344)"/>
            </g>
            <rect id="사각형_8479" data-name="사각형 8479" class="cls-7" width="1.5" height="2" rx=".75" transform="rotate(155 -236.786 1185.25)"/>
            <g id="그룹_12197" data-name="그룹 12197" transform="translate(-234.829 1085.502)">
                <path id="패스_12175" data-name="패스 12175" class="cls-2" d="M7 0a7 7 0 1 1-7 7 7 7 0 0 1 7-7z" transform="translate(276.701 1273)"/>
                <path id="패스_10995" data-name="패스 10995" d="M7 0a7 7 0 1 1-7 7 7 7 0 0 1 7-7z" transform="translate(278.701 1273)" style="fill:#7dedf3"/>
                <g id="타원_1441" data-name="타원 1441" transform="translate(276 1272)" style="stroke:#2d3239;stroke-width:1.5px;fill:none">
                    <circle class="cls-10" cx="8" cy="8" r="8"/>
                    <circle class="cls-1" cx="8" cy="8" r="7.25"/>
                </g>
                <g id="그룹_9779" data-name="그룹 9779" transform="rotate(90 -496.242 783.269)">
                    <path id="선_11-2" data-name="선 11" class="cls-4" transform="translate(-.01 3.027)" d="M0 0h4"/>
                </g>
                <circle id="타원_1869" data-name="타원 1869" class="cls-7" cx=".9" cy=".9" r=".9" transform="translate(283.1 1276)"/>
            </g>
        </g>
    </g>
</svg>
