<svg xmlns="http://www.w3.org/2000/svg" width="36" height="36" viewBox="0 0 36 36">
    <defs>
        <style>
            .cls-1{fill:none}.cls-4{fill:#2d3239}.cls-8{stroke:none}
        </style>
    </defs>
    <g id="ic_revolving_03" transform="translate(-85 -621)">
        <g id="그룹_11900" data-name="그룹 11900">
            <path id="사각형_7905" data-name="사각형 7905" class="cls-1" transform="translate(85 621)" d="M0 0h36v36H0z"/>
            <g id="그룹_11899" data-name="그룹 11899" transform="translate(-4 -1)">
                <g id="사각형_14112" data-name="사각형 14112" style="stroke-width:1.5px;stroke:#2d3239;fill:#fff">
                    <path class="cls-8" d="M5 0h9a8 8 0 0 1 8 8v18a2 2 0 0 1-2 2H5a5 5 0 0 1-5-5V5a5 5 0 0 1 5-5z" transform="translate(89 626)"/>
                    <path class="cls-1" d="M5 .75h9A7.25 7.25 0 0 1 21.25 8v18A1.25 1.25 0 0 1 20 27.25H5A4.25 4.25 0 0 1 .75 23V5A4.25 4.25 0 0 1 5 .75z" transform="translate(89 626)"/>
                </g>
                <g id="교차_25" data-name="교차 25" style="fill:none">
                    <path class="cls-8" d="M4.52 7.21a4 4 0 0 1-4-4v-4a8 8 0 0 1 8 8z" transform="translate(102.48 626.791)"/>
                    <path d="M6.845 5.71A6.522 6.522 0 0 0 2.019.884V3.21c0 1.38 1.122 2.5 2.5 2.5h2.326m1.674 1.5h-4a4 4 0 0 1-4-4l.001-4a8 8 0 0 1 8 8z" style="fill:#2d3239;stroke:none" transform="translate(102.48 626.791)"/>
                </g>
                <rect id="사각형_6085" data-name="사각형 6085" class="cls-4" width="6" height="1.5" rx=".75" transform="translate(94 633)"/>
                <rect id="사각형_6086" data-name="사각형 6086" class="cls-4" width="8" height="1.5" rx=".75" transform="translate(94 637)"/>
            </g>
        </g>
        <g id="그룹_12201" data-name="그룹 12201" transform="translate(-126.345 104.684)">
            <circle id="타원_1877" data-name="타원 1877" cx="5.25" cy="5.25" r="5.25" transform="translate(227.999 534.5)" style="fill:#7dedf3"/>
            <g id="타원_1878" data-name="타원 1878" transform="translate(225.027 533.25)" style="stroke-width:1.5px;stroke:#2d3239;fill:none">
                <circle class="cls-8" cx="6" cy="6" r="6"/>
                <circle class="cls-1" cx="6" cy="6" r="5.25"/>
            </g>
            <g id="사각형_14362" data-name="사각형 14362" transform="rotate(-45 772.942 -9.88)" style="stroke:#2d3239;fill:#fff">
                <rect class="cls-8" width="1.5" height="5" rx=".75"/>
                <rect class="cls-1" x=".5" y=".5" width=".5" height="4" rx=".25"/>
            </g>
        </g>
    </g>
</svg>
