<svg xmlns="http://www.w3.org/2000/svg" width="44" height="45.108" viewBox="0 0 44 45.108">
    <g transform="translate(0 1.108)">
        <path data-name="사각형 16585" d="M3 0h2a3 3 0 0 1 3 3v25H0V3a3 3 0 0 1 3-3z" transform="translate(28 11)" style="fill:#fff"/>
        <path data-name="사각형 16530" d="M3 0h1a3 3 0 0 1 3 3v23H0V3a3 3 0 0 1 3-3z" transform="translate(27 13)" style="fill:#7dedf3"/>
        <g data-name="사각형 11970" style="stroke:#2d3239;stroke-width:1.5px;fill:none">
            <path d="M3 0h2a3 3 0 0 1 3 3v25H0V3a3 3 0 0 1 3-3z" style="stroke:none" transform="translate(28 11)"/>
            <path d="M3 .75h2A2.25 2.25 0 0 1 7.25 3v24.25H.75V3A2.25 2.25 0 0 1 3 .75z" style="fill:none" transform="translate(28 11)"/>
        </g>
        <g data-name="사각형 12411" style="stroke:#2d3239;stroke-width:1.5px;fill:#fff">
            <path d="M3 0h2a3 3 0 0 1 3 3v17H0V3a3 3 0 0 1 3-3z" style="stroke:none" transform="translate(17 19)"/>
            <path d="M3 .75h2A2.25 2.25 0 0 1 7.25 3v16.25H.75V3A2.25 2.25 0 0 1 3 .75z" style="fill:none" transform="translate(17 19)"/>
        </g>
        <g data-name="사각형 12412" style="stroke:#2d3239;stroke-width:1.5px;fill:#fff">
            <path d="M3 0h2a3 3 0 0 1 3 3v9H0V3a3 3 0 0 1 3-3z" style="stroke:none" transform="translate(7 27)"/>
            <path d="M3 .75h2A2.25 2.25 0 0 1 7.25 3v8.25H.75V3A2.25 2.25 0 0 1 3 .75z" style="fill:none" transform="translate(7 27)"/>
        </g>
        <path data-name="패스 11126" d="m-9.607-3.882 25.09 11.11-1.532-4.765" transform="rotate(-60 21.575 -6.596)" style="stroke-linecap:round;stroke-linejoin:round;stroke:#2d3239;stroke-width:1.5px;fill:none"/>
        <rect data-name="사각형 12413" width="33" height="1.5" rx=".75" transform="translate(5 37.5)" style="fill:#2d3239"/>
    </g>
</svg>
