<svg xmlns="http://www.w3.org/2000/svg" width="18" height="18" viewBox="0 0 18 18">
    <defs>
        <style>
            .cls-5{stroke:none}
        </style>
    </defs>
    <g id="ic_suggest" transform="translate(-44 -231)">
        <path id="사각형_14378" data-name="사각형 14378" transform="translate(47 239)" style="fill:#7dedf3" d="M0 0h4v10H0z"/>
        <g id="그룹_12122" data-name="그룹 12122" transform="translate(.25)">
            <g id="합치기_151" data-name="합치기 151" style="stroke-linecap:round;stroke-linejoin:round;fill:none">
                <path class="cls-5" d="M22692 17662v-12h.25l.752-6h1a4 4 0 0 1 4 4v2h2a4 4 0 0 1 4 4v4a4 4 0 0 1-4 4z" transform="translate(-22643 -17413)"/>
                <path d="M22700 17660.5c1.379 0 2.5-1.121 2.5-2.5v-4c0-1.379-1.121-2.5-2.5-2.5h-2a1.5 1.5 0 0 1-1.5-1.5v-2c0-1.27-.951-2.32-2.178-2.479l-.584 4.666c-.029.237-.113.456-.238.643v9.67h6.5m0 1.5h-8v-12h.25l.752-6h.998c2.21 0 4 1.79 4 4v2h2c2.21 0 4 1.79 4 4v4c0 2.21-1.79 4-4 4z" style="fill:#111;stroke:none" transform="translate(-22643 -17413)"/>
            </g>
            <g id="사각형_14377" data-name="사각형 14377" style="stroke:#111;stroke-width:1.5px;fill:none">
                <path class="cls-5" d="M2 0h4v12H2a2 2 0 0 1-2-2V2a2 2 0 0 1 2-2z" transform="translate(44.5 237)"/>
                <path d="M2 .75h2.5a.75.75 0 0 1 .75.75v9a.75.75 0 0 1-.75.75H2A1.25 1.25 0 0 1 .75 10V2A1.25 1.25 0 0 1 2 .75z" style="fill:none" transform="translate(44.5 237)"/>
            </g>
        </g>
    </g>
</svg>
