<svg xmlns="http://www.w3.org/2000/svg" width="36" height="36" viewBox="0 0 36 36">
  <g id="ic-short-05" transform="translate(-206 -750)">
    <rect id="사각형_11493" data-name="사각형 11493" width="36" height="36" transform="translate(206 750)" fill="#fff" opacity="0"/>
    <rect id="사각형_17843" data-name="사각형 17843" width="26" height="24" rx="5" transform="translate(206 757)" fill="#fff"/>
    <path id="패스_12066" data-name="패스 12066" d="M6677.749-4038l2.536,2.5,4.464-4.5" transform="translate(-6462.249 4809.057)" fill="none" stroke="#2d3239" stroke-linecap="round" stroke-linejoin="round" stroke-width="1.5"/>
    <g id="그룹_11910" data-name="그룹 11910" transform="translate(162)">
      <g id="빼기_317" data-name="빼기 317" transform="translate(-15848.33 8047.232)" fill="none">
        <path d="M15913.332-7266.232h-16a5.006,5.006,0,0,1-5-5v-14a5.006,5.006,0,0,1,5-5h16a5.006,5.006,0,0,1,5,5v2h-1.442v-1.5a4.006,4.006,0,0,0-4-4h-15.109a4.006,4.006,0,0,0-4,4v13a4.008,4.008,0,0,0,4,4h15.109a4.008,4.008,0,0,0,4-4v-2.5h1.442v3A5.006,5.006,0,0,1,15913.332-7266.232Z" stroke="none"/>
        <path d="M 15913.33203125 -7266.232421875 L 15897.328125 -7266.232421875 C 15894.572265625 -7266.232421875 15892.330078125 -7268.47607421875 15892.330078125 -7271.234375 L 15892.330078125 -7285.232421875 C 15892.330078125 -7287.99072265625 15894.572265625 -7290.234375 15897.328125 -7290.234375 L 15913.33203125 -7290.234375 C 15916.087890625 -7290.234375 15918.330078125 -7287.99072265625 15918.330078125 -7285.232421875 L 15918.330078125 -7283.23095703125 L 15916.8876953125 -7283.23095703125 L 15916.8876953125 -7284.7333984375 C 15916.8876953125 -7286.93798828125 15915.091796875 -7288.73193359375 15912.884765625 -7288.73193359375 L 15897.775390625 -7288.73193359375 C 15895.568359375 -7288.73193359375 15893.7724609375 -7286.93798828125 15893.7724609375 -7284.7333984375 L 15893.7724609375 -7271.7333984375 C 15893.7724609375 -7269.5263671875 15895.568359375 -7267.73046875 15897.775390625 -7267.73046875 L 15912.884765625 -7267.73046875 C 15915.091796875 -7267.73046875 15916.8876953125 -7269.5263671875 15916.8876953125 -7271.7333984375 L 15916.8876953125 -7274.23046875 L 15918.330078125 -7274.23046875 L 15918.330078125 -7271.234375 C 15918.330078125 -7268.47607421875 15916.087890625 -7266.232421875 15913.33203125 -7266.232421875 Z" stroke="none" fill="#2d3239"/>
      </g>
      <rect id="사각형_14118" data-name="사각형 14118" width="25" height="1.5" transform="translate(44 763)" fill="#2d3239"/>
      <g id="사각형_14119" data-name="사각형 14119" transform="translate(51 758.5) rotate(180)" fill="#43444e" stroke="#2d3239" stroke-width="1">
        <rect width="1.5" height="5" rx="0.75" stroke="none"/>
        <rect x="0.5" y="0.5" width="0.5" height="4" rx="0.25" fill="none"/>
      </g>
      <g id="사각형_14120" data-name="사각형 14120" transform="translate(65.5 758.5) rotate(180)" fill="#43444e" stroke="#2d3239" stroke-width="1">
        <rect width="1.5" height="5" rx="0.75" stroke="none"/>
        <rect x="0.5" y="0.5" width="0.5" height="4" rx="0.25" fill="none"/>
      </g>
    </g>
    <g id="그룹_11909" data-name="그룹 11909" transform="translate(5.5 -1.807)">
      <circle id="타원_1815" data-name="타원 1815" cx="4.75" cy="4.75" r="4.75" transform="translate(220 769.807)" fill="#fff"/>
      <circle id="타원_1814" data-name="타원 1814" cx="5.25" cy="5.25" r="5.25" transform="translate(222.499 770.307)" fill="#7dedf3"/>
      <g id="타원_1813" data-name="타원 1813" transform="translate(219.527 769.057)" fill="none" stroke="#2d3239" stroke-width="1.5">
        <circle cx="6" cy="6" r="6" stroke="none"/>
        <circle cx="6" cy="6" r="5.25" fill="none"/>
      </g>
      <g id="사각형_13785" data-name="사각형 13785" transform="translate(227.876 779.466) rotate(-45)" fill="#fff" stroke="#2d3239" stroke-width="1">
        <rect width="1.5" height="5" rx="0.75" stroke="none"/>
        <rect x="0.5" y="0.5" width="0.5" height="4" rx="0.25" fill="none"/>
      </g>
    </g>
    <rect id="사각형_14121" data-name="사각형 14121" width="1.5" height="6" rx="0.75" transform="translate(230.5 762.5)" fill="#2d3239"/>
  </g>
</svg>
