<svg xmlns="http://www.w3.org/2000/svg" width="44" height="44" viewBox="0 0 44 44">
    <g data-name="사각형 16503" transform="rotate(180 19 16)" style="stroke:#2d3239;stroke-width:1.5px;fill:#fff">
        <rect width="32" height="24" rx="5" style="stroke:none"/>
        <rect x=".75" y=".75" width="30.5" height="22.5" rx="4.25" style="fill:none"/>
    </g>
    <rect data-name="사각형 16511" width="15" height="1.5" rx=".75" transform="rotate(180 14.75 19.006)" style="fill:#2d3239"/>
    <rect data-name="사각형 16512" width="5.901" height="1.5" rx=".75" transform="rotate(90 -4.169 26.919)" style="fill:#2d3239"/>
    <rect data-name="사각형 16588" width="18" height="20" rx="5" transform="translate(12.5 5)" style="fill:#fff"/>
    <rect data-name="사각형 16562" width="16" height="20" rx="5" transform="translate(15.5 5)" style="fill:#7dedf3"/>
    <g data-name="사각형 16563" transform="translate(12.5 5)" style="fill:none;stroke:#2d3239;stroke-width:1.5px">
        <rect width="18" height="20" rx="5" style="stroke:none"/>
        <rect x=".75" y=".75" width="16.5" height="18.5" rx="4.25" style="fill:none"/>
    </g>
    <g data-name="사각형 16564" transform="translate(15.5 9.1)" style="fill:none;stroke:#2d3239;stroke-width:1.5px">
        <rect width="6" height="4" rx="2" style="stroke:none"/>
        <rect x=".75" y=".75" width="4.5" height="2.5" rx="1.25" style="fill:none"/>
    </g>
    <rect data-name="사각형 16551" width="6" height="1.5" rx=".75" transform="translate(16.086 14.897)" style="fill:#2d3239"/>
    <rect data-name="사각형 16552" width="8" height="1.5" rx=".75" transform="translate(16.037 18.152)" style="fill:#2d3239"/>
</svg>
