<svg xmlns="http://www.w3.org/2000/svg" width="44" height="44" viewBox="0 0 44 44">
    <g transform="translate(-1144 -646)">
        <g data-name="사각형 7216" transform="translate(1154 663.166)" style="stroke:#2d3239;stroke-width:1.5px;fill:#fff">
            <rect width="24" height="18.586" rx="5" style="stroke:none"/>
            <rect x=".75" y=".75" width="22.5" height="17.086" rx="4.25" style="fill:none"/>
        </g>
        <path data-name="사각형 17590" d="M3 0a3 3 0 0 1 3 3v4.753H0V3a3 3 0 0 1 3-3z" transform="translate(1164.3 673.999)" style="fill:#7dedf3"/>
        <g data-name="사각형 7218" style="fill:none;stroke:#2d3239;stroke-width:1.5px">
            <path d="M4 0a4 4 0 0 1 4 4v4.252H0V4a4 4 0 0 1 4-4z" style="stroke:none" transform="translate(1162 673.5)"/>
            <path d="M4 .75A3.25 3.25 0 0 1 7.25 4v3.5H.75V4A3.25 3.25 0 0 1 4 .75z" style="fill:none" transform="translate(1162 673.5)"/>
        </g>
        <g data-name="합치기 368" style="fill:#fff">
            <path d="M14626.999 10.251c-.93 0-1.818-.401-2.436-1.102l-.563-.636-.563.636a3.255 3.255 0 0 1-2.438 1.102c-.93 0-1.818-.401-2.436-1.102l-.563-.636-.563.636a3.25 3.25 0 0 1-4.874 0l-.562-.637-.563.637a3.256 3.256 0 0 1-2.439 1.102 3.254 3.254 0 0 1-3.249-3.252v-3a3.252 3.252 0 0 1 5.688-2.148l.563.637.562-.637a3.25 3.25 0 0 1 4.874 0l.563.636.563-.636a3.253 3.253 0 0 1 2.436-1.101c.932 0 1.82.401 2.439 1.101l.562.636.563-.636a3.253 3.253 0 0 1 2.436-1.101 3.254 3.254 0 0 1 3.252 3.249v3a3.256 3.256 0 0 1-3.252 3.252z" style="stroke:none" transform="translate(-13452 660)"/>
            <path d="M14626.999 9.501a2.505 2.505 0 0 0 2.502-2.502v-3a2.503 2.503 0 0 0-2.502-2.499c-.716 0-1.4.309-1.875.848L14624 3.62l-1.124-1.272a2.506 2.506 0 0 0-1.877-.848c-.716 0-1.4.309-1.875.848L14618 3.62l-1.124-1.272a2.499 2.499 0 0 0-3.75 0l-1.124 1.273-1.125-1.273a2.502 2.502 0 0 0-4.377 1.651v3a2.504 2.504 0 0 0 2.499 2.502c.718 0 1.401-.309 1.877-.848l1.126-1.275 1.124 1.276a2.498 2.498 0 0 0 3.749 0l1.125-1.275 1.125 1.274a2.501 2.501 0 0 0 1.874.848c.717 0 1.4-.309 1.876-.848L14624 7.38l1.125 1.274a2.501 2.501 0 0 0 1.874.848m0 1.5a3.99 3.99 0 0 1-2.999-1.355 3.992 3.992 0 0 1-3.001 1.355 3.99 3.99 0 0 1-2.999-1.355 3.992 3.992 0 0 1-3.001 1.355 3.987 3.987 0 0 1-2.998-1.355 4.002 4.002 0 0 1-7.001-2.647v-3a4 4 0 0 1 7.001-2.644 3.988 3.988 0 0 1 2.998-1.355c1.195 0 2.268.524 3.001 1.355a3.992 3.992 0 0 1 2.999-1.355c1.195 0 2.268.524 3.001 1.355a4.002 4.002 0 0 1 7.001 2.644v3a4.002 4.002 0 0 1-4.002 4.002z" style="fill:#2d3239;stroke:none" transform="translate(-13452 660)"/>
        </g>
        <rect data-name="사각형 14433" width="1.5" height="2.625" rx=".75" transform="translate(1159.2 666.373)" style="fill:#2d3239"/>
        <rect data-name="사각형 14434" width="1.5" height="2.625" rx=".75" transform="translate(1165.25 666.373)" style="fill:#2d3239"/>
        <rect data-name="사각형 14435" width="1.5" height="2.625" rx=".75" transform="translate(1171.3 666.373)" style="fill:#2d3239"/>
        <g data-name="패스 13116">
            <path data-name="패스 13117" d="M1276.032 384.812h-23.383a.441.441 0 0 1-.406-.611l2.305-5.542.011-.026.008-.026a2.3 2.3 0 0 1 2.278-1.642h14.99a2.16 2.16 0 0 1 2.269 1.612l.012.043.016.04 2.305 5.542a.441.441 0 0 1-.405.61z" style="fill:#fff" transform="translate(-98.312 278.786)"/>
            <path data-name="패스 13118" d="M1256.851 377.733a1.524 1.524 0 0 0-1.556 1.117l-.018.054-1.887 4.529a.44.44 0 0 0 .405.61h21.09a.44.44 0 0 0 .406-.61l-1.9-4.556-.024-.084a1.411 1.411 0 0 0-1.538-1.059h-14.979m0-1.519h14.979a2.913 2.913 0 0 1 3 2.157l2.407 5.777a1.021 1.021 0 0 1-.94 1.414h-23.9a1.021 1.021 0 0 1-.94-1.414l2.407-5.777a3.029 3.029 0 0 1 2.988-2.158z" transform="translate(-98.312 278.786)" style="fill:#2d3239"/>
        </g>
    </g>
</svg>
