<svg xmlns="http://www.w3.org/2000/svg" width="44" height="44" viewBox="0 0 44 44">
    <defs>
        <clipPath id="clip-path">
            <rect id="사각형_11477" data-name="사각형 11477" class="cls-2" width="26" height="20" rx="4" transform="translate(-13880 -4958)"/>
        </clipPath>
        <style>
            .cls-2{stroke:#2d3239;stroke-width:1.5px}.cls-2,.cls-4{fill:none}.cls-8,.cls-9{stroke:none}.cls-9{fill:#2d3239}
        </style>
    </defs>
    <g id="ic_sms" transform="translate(-24 -367)">
        <g id="그룹_8246" data-name="그룹 8246" transform="translate(0 -.5)">
            <g id="합치기_129" data-name="합치기 129" class="cls-4">
                <path class="cls-8" d="M8 28a3.816 3.816 0 0 1-4-3.6V13.6a3.532 3.532 0 0 1 1.869-3.047l9.075-6.618a3 3 0 0 1 4.112 0l9.078 6.62A3.532 3.532 0 0 1 30 13.6v10.8a3.816 3.816 0 0 1-4 3.6z" transform="translate(29 373.88)"/>
                <path class="cls-9" d="M26 26.5c1.378 0 2.5-.942 2.5-2.1V13.6c0-.696-.414-1.347-1.108-1.742l-.074-.042-9.222-6.725-.069-.064a1.496 1.496 0 0 0-2.056 0l-.068.065-9.22 6.723-.074.042c-.695.395-1.11 1.046-1.11 1.743v10.8c0 1.158 1.122 2.1 2.501 2.1h18m0 1.5H8c-2.21 0-4-1.612-4-3.6V13.6c0-1.283.746-2.41 1.869-3.047l9.075-6.618a3 3 0 0 1 4.112 0l9.078 6.62C29.255 11.192 30 12.318 30 13.6v10.8c0 1.988-1.791 3.6-4 3.6z" transform="translate(29 373.88)"/>
            </g>
            <path id="빼기_160" data-name="빼기 160" d="M8.906 18.184 4.75 13.969V5A3.254 3.254 0 0 1 8 1.75h10A3.254 3.254 0 0 1 21.25 5v8.969l-4.172 4.2-2.237-1.74a3 3 0 0 0-3.682 0l-2.253 1.754z" transform="translate(33 375.63)" style="stroke:#2d3239;stroke-width:1.5px;fill:#fff"/>
            <g id="그룹_8243" data-name="그룹 8243" transform="translate(13911 5327.88)">
                <g id="마스크_그룹_166" data-name="마스크 그룹 166" transform="translate(2 12)" style="clip-path:url(#clip-path)">
                    <g id="다각형_74" data-name="다각형 74" class="cls-4">
                        <path class="cls-8" d="M16.158 1.433a3 3 0 0 1 3.684 0l9.256 7.2A3 3 0 0 1 27.256 14H8.744A3 3 0 0 1 6.9 8.632z" transform="translate(-13885 -4950)"/>
                        <path class="cls-9" d="M18 2.3c-.337 0-.655.11-.92.317L7.822 9.816c-.785.61-.58 1.433-.498 1.67.081.238.425 1.014 1.419 1.014h18.512c.994 0 1.338-.776 1.42-1.013.08-.238.286-1.06-.499-1.671l-9.256-7.2A1.487 1.487 0 0 0 18 2.302m0-1.5c.65 0 1.3.21 1.842.632l9.256 7.199C31.353 10.386 30.113 14 27.256 14H8.744c-2.857 0-4.097-3.614-1.842-5.368l9.256-7.2A2.995 2.995 0 0 1 18 .802z" transform="translate(-13885 -4950)"/>
                    </g>
                </g>
                <path id="선_200" data-name="선 200" class="cls-2" transform="translate(-13876.5 -4941.5)" d="m0 0 8 8"/>
                <path id="선_201" data-name="선 201" class="cls-2" transform="translate(-13861.5 -4941.5)" d="M8 0 0 8"/>
            </g>
            <rect id="사각형_11480" data-name="사각형 11480" width="8" height="1.5" rx=".75" transform="translate(42.045 387.44)" style="fill:#2d3239"/>
            <rect id="사각형_11483" data-name="사각형 11483" width="6.5" height="5.5" rx="1.5" transform="translate(44.5 381)" style="fill:#7dedf3"/>
            <g id="사각형_11482" data-name="사각형 11482" class="cls-2" transform="translate(42 380)">
                <rect class="cls-8" width="8" height="6" rx="2"/>
                <rect x=".75" y=".75" width="6.5" height="4.5" rx="1.25" style="fill:none"/>
            </g>
        </g>
    </g>
</svg>
