<svg xmlns="http://www.w3.org/2000/svg" width="22" height="22" viewBox="0 0 22 22">
    <defs>
        <style>
            .cls-1{fill:none}.cls-4{stroke:none}
        </style>
    </defs>
    <g id="ic_setting" transform="translate(8952.777 11588.777)">
        <path id="사각형_12222" data-name="사각형 12222" class="cls-1" transform="translate(-8952.777 -11588.777)" d="M0 0h22v22H0z"/>
        <g id="합치기_122" data-name="합치기 122" style="stroke-linejoin:round;fill:none">
            <path class="cls-4" d="M10.15 21a2.8 2.8 0 0 1-2.716-2.115q-.354-.13-.695-.288a2.8 2.8 0 0 1-3.416-.424l-.5-.495a2.8 2.8 0 0 1-.423-3.416q-.158-.34-.289-.7A2.8 2.8 0 0 1 0 10.85v-.7a2.8 2.8 0 0 1 2.115-2.715q.13-.354.288-.695a2.8 2.8 0 0 1 .424-3.416l.5-.5A2.8 2.8 0 0 1 6.739 2.4q.34-.158.7-.289A2.8 2.8 0 0 1 10.15 0h.7a2.8 2.8 0 0 1 2.716 2.115q.355.13.7.288a2.8 2.8 0 0 1 3.417.424l.495.5A2.8 2.8 0 0 1 18.6 6.74q.158.34.288.7A2.8 2.8 0 0 1 21 10.15v.7a2.8 2.8 0 0 1-2.115 2.716q-.13.355-.288.7a2.8 2.8 0 0 1-.424 3.417l-.495.495a2.8 2.8 0 0 1-3.417.424q-.34.158-.7.288A2.8 2.8 0 0 1 10.85 21z" transform="translate(-8952.277 -11588.277)"/>
            <path d="M10.85 19a.798.798 0 0 0 .776-.602 2 2 0 0 1 1.253-1.391c.182-.067.363-.142.538-.223a2 2 0 0 1 1.871.097.797.797 0 0 0 .975-.122l.496-.495c.26-.26.31-.662.122-.976a2 2 0 0 1-.097-1.87c.081-.176.156-.357.223-.539a2 2 0 0 1 1.39-1.253.798.798 0 0 0 .604-.776v-.7a.798.798 0 0 0-.603-.776 2 2 0 0 1-1.391-1.252 6.895 6.895 0 0 0-.223-.539 2 2 0 0 1 .097-1.87.798.798 0 0 0-.122-.976l-.495-.495a.797.797 0 0 0-.976-.122 2 2 0 0 1-1.87.097 6.898 6.898 0 0 0-.539-.223 2 2 0 0 1-1.253-1.391A.798.798 0 0 0 10.85 2h-.7a.798.798 0 0 0-.776.603 2 2 0 0 1-1.252 1.39 6.893 6.893 0 0 0-.54.224 2 2 0 0 1-1.87-.097.797.797 0 0 0-.975.123l-.495.495a.798.798 0 0 0-.122.975 2 2 0 0 1 .097 1.87 6.897 6.897 0 0 0-.223.539 2 2 0 0 1-1.391 1.252.798.798 0 0 0-.603.776v.7c0 .368.248.687.603.776a2 2 0 0 1 1.39 1.253c.067.182.142.363.224.539a2 2 0 0 1-.097 1.87.798.798 0 0 0 .123.976l.495.495a.796.796 0 0 0 .975.122 2 2 0 0 1 1.87-.097 6.9 6.9 0 0 0 .539.223 2 2 0 0 1 1.252 1.39c.09.356.409.604.776.604h.7m0 2h-.7c-1.31 0-2.41-.9-2.715-2.116a8.867 8.867 0 0 1-.695-.288 2.801 2.801 0 0 1-3.416-.424l-.495-.495a2.801 2.801 0 0 1-.425-3.416 8.864 8.864 0 0 1-.289-.696A2.801 2.801 0 0 1 0 10.85v-.7c0-1.31.9-2.41 2.115-2.715a8.87 8.87 0 0 1 .288-.695 2.801 2.801 0 0 1 .425-3.416l.495-.495a2.801 2.801 0 0 1 3.416-.425c.227-.106.459-.202.696-.289A2.801 2.801 0 0 1 10.15 0h.7c1.31 0 2.41.9 2.716 2.115.237.087.468.183.695.289a2.801 2.801 0 0 1 3.417.424l.495.495a2.801 2.801 0 0 1 .424 3.417c.105.226.202.458.288.695a2.801 2.801 0 0 1 2.116 2.715v.7c0 1.31-.9 2.41-2.116 2.716a8.862 8.862 0 0 1-.288.695 2.801 2.801 0 0 1-.424 3.417l-.495.495a2.801 2.801 0 0 1-3.417.424 8.862 8.862 0 0 1-.695.288 2.801 2.801 0 0 1-2.716 2.116z" style="fill:#111;stroke:none" transform="translate(-8952.277 -11588.277)"/>
        </g>
        <g id="타원_1323" data-name="타원 1323" transform="translate(-8946.277 -11582.277)" style="stroke:#111;stroke-width:2px;fill:none">
            <circle class="cls-4" cx="4.5" cy="4.5" r="4.5"/>
            <circle class="cls-1" cx="4.5" cy="4.5" r="3.5"/>
        </g>
    </g>
</svg>
