<svg xmlns="http://www.w3.org/2000/svg" width="26" height="26.001" viewBox="0 0 26 26.001">
    <defs>
        <style>
            .cls-1{fill:none}.cls-3{fill:none;stroke:#2d3239;stroke-width:1.5px}.cls-7{stroke:none}
        </style>
    </defs>
    <g id="ic_school_s" transform="translate(-26 -474)">
        <path id="사각형_14313" data-name="사각형 14313" class="cls-1" transform="translate(26 474)" d="M0 0h26v26H0z"/>
        <g id="합치기_158" data-name="합치기 158">
            <path d="M4947.499-10820.499v-10.363l.01-.09a.467.467 0 0 0-.13-.385l-5.503-6.032a.495.495 0 0 0-.735.002l-5.5 6.03a.468.468 0 0 0-.135.328l.008 1.508h-.015v9.002h12m1.5 1.5h-15v-12.002h.007c-.002-.467.16-.945.526-1.347l5.5-6.03a1.996 1.996 0 0 1 2.955 0l5.5 6.03c.426.468.576 1.038.512 1.576v11.773z" style="fill:#2d3239;stroke:none" transform="translate(-4902.5 11319)"/>
        </g>
        <g id="사각형_14344" data-name="사각형 14344" class="cls-3">
            <path class="cls-7" d="M2 0h3v9H0V2a2 2 0 0 1 2-2z" transform="translate(28 491)"/>
            <path class="cls-1" d="M2 .75h1.5a.75.75 0 0 1 .75.75v6a.75.75 0 0 1-.75.75h-2a.75.75 0 0 1-.75-.75V2A1.25 1.25 0 0 1 2 .75z" transform="translate(28 491)"/>
        </g>
        <g id="사각형_14345" data-name="사각형 14345" class="cls-3">
            <path class="cls-7" d="M0 0h3a2 2 0 0 1 2 2v7H0V0z" transform="translate(45 491)"/>
            <path class="cls-1" d="M1.5.75H3A1.25 1.25 0 0 1 4.25 2v5.5a.75.75 0 0 1-.75.75h-2a.75.75 0 0 1-.75-.75v-6A.75.75 0 0 1 1.5.75z" transform="translate(45 491)"/>
        </g>
        <path id="사각형_14346" data-name="사각형 14346" transform="translate(38.25 477)" style="fill:#2d3239" d="M0 0h1.5v4H0z"/>
        <g id="사각형_14347" data-name="사각형 14347" class="cls-3">
            <path class="cls-7" d="M1 0h3a2 2 0 0 1 2 2 2 2 0 0 1-2 2H1a1 1 0 0 1-1-1V1a1 1 0 0 1 1-1z" transform="translate(38.25 475)"/>
            <path class="cls-1" d="M1 .75h3A1.25 1.25 0 0 1 5.25 2 1.25 1.25 0 0 1 4 3.25H1A.25.25 0 0 1 .75 3V1A.25.25 0 0 1 1 .75z" transform="translate(38.25 475)"/>
        </g>
        <circle id="타원_1878" data-name="타원 1878" cx="2.25" cy="2.25" r="2.25" transform="translate(38 487.5)" style="fill:#7dedf3"/>
        <g id="타원_1877" data-name="타원 1877" transform="translate(36 486)" style="stroke:#2d3239;stroke-width:1.5px;fill:none">
            <circle class="cls-7" cx="3" cy="3" r="3"/>
            <circle class="cls-1" cx="3" cy="3" r="2.25"/>
        </g>
        <g id="사각형_14348" data-name="사각형 14348" class="cls-3">
            <path class="cls-7" d="M2 0h2a2 2 0 0 1 2 2v4H0V2a2 2 0 0 1 2-2z" transform="translate(36 494)"/>
            <path class="cls-1" d="M2 .75h2A1.25 1.25 0 0 1 5.25 2v2.5a.75.75 0 0 1-.75.75h-3a.75.75 0 0 1-.75-.75V2A1.25 1.25 0 0 1 2 .75z" transform="translate(36 494)"/>
        </g>
    </g>
</svg>
