<svg xmlns="http://www.w3.org/2000/svg" width="36" height="36" viewBox="0 0 36 36">
  <g id="ic-short-04" transform="translate(-44 -750)">
    <rect id="사각형_17842" data-name="사각형 17842" width="26" height="24" rx="5" transform="translate(44 757)" fill="#fff"/>
    <rect id="사각형_7870" data-name="사각형 7870" width="36" height="36" transform="translate(44 750)" fill="none"/>
    <rect id="사각형_8477" data-name="사각형 8477" width="1.5" height="6" rx="0.75" transform="translate(68.5 762.5)" fill="#2d3239"/>
    <g id="빼기_84" data-name="빼기 84" transform="translate(-15848.33 8047.232)" fill="#fff">
      <path d="M 15913.33203125 -7266.982421875 L 15913.021484375 -7266.982421875 C 15915.3056640625 -7267.04736328125 15917.19140625 -7268.73193359375 15917.5693359375 -7270.92529296875 C 15917.41015625 -7268.724609375 15915.5703125 -7266.982421875 15913.33203125 -7266.982421875 Z M 15897.638671875 -7266.982421875 L 15897.328125 -7266.982421875 C 15895.08984375 -7266.982421875 15893.25 -7268.724609375 15893.0908203125 -7270.92529296875 C 15893.46875 -7268.73193359375 15895.3544921875 -7267.04736328125 15897.638671875 -7266.982421875 Z M 15917.5693359375 -7285.5400390625 C 15917.1845703125 -7287.775390625 15915.23046875 -7289.48193359375 15912.884765625 -7289.48193359375 L 15897.775390625 -7289.48193359375 C 15895.4296875 -7289.48193359375 15893.4755859375 -7287.775390625 15893.0908203125 -7285.5400390625 C 15893.2490234375 -7287.74169921875 15895.0888671875 -7289.484375 15897.328125 -7289.484375 L 15913.33203125 -7289.484375 C 15915.5712890625 -7289.484375 15917.4111328125 -7287.74169921875 15917.5693359375 -7285.5400390625 Z" stroke="none"/>
      <path d="M 15913.33203125 -7266.232421875 L 15897.328125 -7266.232421875 C 15894.572265625 -7266.232421875 15892.330078125 -7268.47607421875 15892.330078125 -7271.234375 L 15892.330078125 -7285.232421875 C 15892.330078125 -7287.99072265625 15894.572265625 -7290.234375 15897.328125 -7290.234375 L 15913.33203125 -7290.234375 C 15916.087890625 -7290.234375 15918.330078125 -7287.99072265625 15918.330078125 -7285.232421875 L 15918.330078125 -7283.23095703125 L 15916.8876953125 -7283.23095703125 L 15916.8876953125 -7284.7333984375 C 15916.8876953125 -7286.93798828125 15915.091796875 -7288.73193359375 15912.884765625 -7288.73193359375 L 15897.775390625 -7288.73193359375 C 15895.568359375 -7288.73193359375 15893.7724609375 -7286.93798828125 15893.7724609375 -7284.7333984375 L 15893.7724609375 -7271.7333984375 C 15893.7724609375 -7269.5263671875 15895.568359375 -7267.73046875 15897.775390625 -7267.73046875 L 15912.884765625 -7267.73046875 C 15915.091796875 -7267.73046875 15916.8876953125 -7269.5263671875 15916.8876953125 -7271.7333984375 L 15916.8876953125 -7274.23046875 L 15918.330078125 -7274.23046875 L 15918.330078125 -7271.234375 C 15918.330078125 -7268.47607421875 15916.087890625 -7266.232421875 15913.33203125 -7266.232421875 Z" stroke="none" fill="#2d3239"/>
    </g>
    <rect id="사각형_7262" data-name="사각형 7262" width="25" height="1.5" transform="translate(44 763)" fill="#2d3239"/>
    <g id="사각형_7082" data-name="사각형 7082" transform="translate(51 758.5) rotate(180)" fill="#43444e" stroke="#2d3239" stroke-width="1">
      <rect width="1.5" height="5" rx="0.75" stroke="none"/>
      <rect x="0.5" y="0.5" width="0.5" height="4" rx="0.25" fill="none"/>
    </g>
    <g id="사각형_7210" data-name="사각형 7210" transform="translate(65.5 758.5) rotate(180)" fill="#43444e" stroke="#2d3239" stroke-width="1">
      <rect width="1.5" height="5" rx="0.75" stroke="none"/>
      <rect x="0.5" y="0.5" width="0.5" height="4" rx="0.25" fill="none"/>
    </g>
    <rect id="사각형_8472" data-name="사각형 8472" width="10" height="1.5" rx="0.75" transform="translate(50 769)" fill="#2d3239"/>
    <rect id="사각형_8474" data-name="사각형 8474" width="6" height="1.5" rx="0.75" transform="translate(49.999 773)" fill="#2d3239"/>
    <g id="그룹_11905" data-name="그룹 11905" transform="translate(-20.499 -0.732)">
      <g id="사각형_17844" data-name="사각형 17844" transform="translate(80 774) rotate(-30)" fill="#fff" stroke="#2d3239" stroke-width="1.5">
        <rect width="16" height="5" rx="2.5" stroke="none"/>
        <rect x="0.75" y="0.75" width="14.5" height="3.5" rx="1.75" fill="none"/>
      </g>
      <rect id="사각형_12064" data-name="사각형 12064" width="14.629" height="4" rx="2" transform="translate(82 775) rotate(-30)" fill="#7dedf3"/>
      <g id="사각형_12063" data-name="사각형 12063" transform="translate(80 774) rotate(-30)" fill="none" stroke="#2d3239" stroke-width="1.5">
        <rect width="16" height="5" rx="2.5" stroke="none"/>
        <rect x="0.75" y="0.75" width="14.5" height="3.5" rx="1.75" fill="none"/>
      </g>
    </g>
  </g>
</svg>
