<svg xmlns="http://www.w3.org/2000/svg" width="36" height="36" viewBox="0 0 36 36">
    <defs>
        <style>
            .cls-1{fill:none}.cls-3{fill:#7dedf3}.cls-10,.cls-9{stroke:none}.cls-10{fill:#2d3239}
        </style>
    </defs>
    <g id="ic_smartshopping_02" transform="translate(-23.33 -750.768)">
        <path id="사각형_7870" data-name="사각형 7870" class="cls-1" transform="translate(23.33 750.768)" d="M0 0h36v36H0z"/>
        <g id="사각형_14387" data-name="사각형 14387" transform="translate(28.83 756.268)" style="stroke:#2d3239;stroke-width:1.5px;fill:#fff">
            <rect class="cls-9" width="22" height="23" rx="5"/>
            <rect class="cls-1" x=".75" y=".75" width="20.5" height="21.5" rx="4.25"/>
        </g>
        <path id="사각형_14391" data-name="사각형 14391" class="cls-3" d="M0 0h6v6.5a2 2 0 0 1-2 2H2a2 2 0 0 1-2-2V0z" transform="translate(38.33 757.768)"/>
        <g id="사각형_14388" data-name="사각형 14388" style="stroke:#2d3239;stroke-width:1.5px;fill:none">
            <path class="cls-9" d="M0 0h8v7a3 3 0 0 1-3 3H3a3 3 0 0 1-3-3V0z" transform="translate(35.33 756.268)"/>
            <path class="cls-1" d="M1.5.75h5a.75.75 0 0 1 .75.75V7A2.25 2.25 0 0 1 5 9.25H3A2.25 2.25 0 0 1 .75 7V1.5A.75.75 0 0 1 1.5.75z" transform="translate(35.33 756.268)"/>
        </g>
        <g id="그룹_12713" data-name="그룹 12713" transform="translate(3.647 1.927)">
            <g id="패스_12274" data-name="패스 12274" style="fill:#fff">
                <path class="cls-9" d="M2.954 14.187h-.306a.966.966 0 0 1-.964-.964V5.889l-.408-.21A.962.962 0 0 1 .75 4.82V1.714c0-.531.433-.964.964-.964h2.173c.532 0 .965.433.965.964V4.82a.962.962 0 0 1-.526.86l-.408.209V13.223a.966.966 0 0 1-.964.964z" transform="scale(-1) rotate(37 1148.668 -447.82)"/>
                <path class="cls-10" d="M2.954 13.437a.215.215 0 0 0 .214-.214V5.43l.816-.418a.216.216 0 0 0 .118-.192V1.714a.215.215 0 0 0-.215-.214H1.714a.215.215 0 0 0-.214.214V4.82c0 .097.06.163.118.192l.816.418v7.793c0 .118.096.214.214.214h.306m0 1.5h-.306a1.715 1.715 0 0 1-1.714-1.714V6.347A1.715 1.715 0 0 1 0 4.82V1.714C0 .768.768 0 1.714 0h2.173c.947 0 1.715.768 1.715 1.714V4.82c0 .666-.38 1.243-.934 1.527v6.876c0 .947-.768 1.714-1.714 1.714z" transform="scale(-1) rotate(37 1148.668 -447.82)"/>
            </g>
            <path id="패스_12275" data-name="패스 12275" d="M.934 9.8V3.546A1.714 1.714 0 0 1 0 2.019v-.3A1.715 1.715 0 0 1 1.714 0h4.973A1.715 1.715 0 0 1 8.4 1.714v.3a1.714 1.714 0 0 1-.934 1.527V9.8a3.268 3.268 0 0 1-6.535 0z" transform="scale(-1) rotate(37 1132.632 -455.513)" style="fill:#fff"/>
            <path id="패스_12276" data-name="패스 12276" class="cls-3" d="M.934 9.8V3.546A1.714 1.714 0 0 1 0 2.019v-.3A1.715 1.715 0 0 1 1.714 0h4.973A1.715 1.715 0 0 1 8.4 1.714v.3a1.714 1.714 0 0 1-.934 1.527V9.8a3.268 3.268 0 0 1-6.535 0z" transform="scale(-1) rotate(37 1133.056 -458.502)"/>
            <g id="패스_12277" data-name="패스 12277" style="fill:none">
                <path class="cls-9" d="M.934 9.8V3.546A1.714 1.714 0 0 1 0 2.019v-.3A1.715 1.715 0 0 1 1.714 0h4.973A1.715 1.715 0 0 1 8.4 1.714v.3a1.714 1.714 0 0 1-.934 1.527V9.8a3.268 3.268 0 0 1-6.535 0z" transform="scale(-1) rotate(37 1132.632 -455.513)"/>
                <path class="cls-10" d="M4.201 11.57A1.77 1.77 0 0 0 5.97 9.802V2.63l.816-.418a.215.215 0 0 0 .118-.192v-.305a.215.215 0 0 0-.216-.214H1.714a.215.215 0 0 0-.214.214v.305c0 .097.06.163.118.192l.816.418v7.173A1.77 1.77 0 0 0 4.2 11.57m0 1.5A3.268 3.268 0 0 1 .934 9.802V3.546A1.714 1.714 0 0 1 0 2.02v-.305C0 .768.768 0 1.714 0h4.973c.948 0 1.716.768 1.716 1.714v.305c0 .666-.38 1.243-.934 1.527v6.256a3.268 3.268 0 0 1-3.268 3.268z" transform="scale(-1) rotate(37 1132.632 -455.513)"/>
            </g>
            <path id="패스_12278" data-name="패스 12278" d="M0 0v4.668" transform="scale(-1) rotate(37 1124.255 -451.337)" style="stroke-linecap:round;stroke:#2d3239;stroke-width:1.5px;fill:none"/>
        </g>
    </g>
</svg>
