<svg xmlns="http://www.w3.org/2000/svg" width="44" height="44" viewBox="0 0 44 44">
    <g data-name="사각형 7216" style="stroke-width:1.5px;stroke:#2d3239;fill:#fff">
        <path style="stroke:none" d="M0 0h26v24H0z" transform="translate(9 13)"/>
        <path style="fill:none" d="M.75.75h24.5v22.5H.75z" transform="translate(9 13)"/>
    </g>
    <g data-name="사각형 7234" style="stroke-width:1.5px;stroke:#2d3239;fill:#fff">
        <path d="M2 0h5a2 2 0 0 1 2 2v13H0V2a2 2 0 0 1 2-2z" style="stroke:none" transform="translate(22 22)"/>
        <path d="M2 .75h5A1.25 1.25 0 0 1 8.25 2v12.25H.75V2A1.25 1.25 0 0 1 2 .75z" style="fill:none" transform="translate(22 22)"/>
    </g>
    <g data-name="사각형 8539" transform="translate(7 35.5)" style="fill:none;stroke:#2d3239">
        <rect width="30" height="1.5" rx=".75" style="stroke:none"/>
        <rect x=".5" y=".5" width="29" height=".5" rx=".25" style="fill:none"/>
    </g>
    <g data-name="사각형 17487" transform="translate(7 8.463)" style="stroke-width:1.5px;stroke:#2d3239;fill:#fff">
        <rect width="30" height="9" rx="2" style="stroke:none"/>
        <rect x=".75" y=".75" width="28.5" height="7.5" rx="1.25" style="fill:none"/>
    </g>
    <path data-name="선 727" transform="translate(7 13)" style="fill:none;stroke-width:1.5px;stroke:#2d3239" d="M0 0h29"/>
    <g data-name="그룹 13846" transform="translate(-164 -387)">
        <rect data-name="사각형 17488" width="13" height="14" rx="5" transform="translate(178 393)" style="fill:#fff"/>
        <rect data-name="사각형 17490" width="13" height="14" rx="5" transform="translate(181 393)" style="fill:#7dedf3"/>
        <g data-name="사각형 17489" transform="translate(178 393)" style="fill:none;stroke-width:1.5px;stroke:#2d3239">
            <rect width="15" height="14" rx="5" style="stroke:none"/>
            <rect x=".75" y=".75" width="13.5" height="12.5" rx="4.25" style="fill:none"/>
        </g>
        <path data-name="패스 13819" d="M2.4-5.808a2.473 2.473 0 0 1 .788.112 1.618 1.618 0 0 1 .556.308 1.219 1.219 0 0 1 .332.46 1.465 1.465 0 0 1 .108.56v.08a1.852 1.852 0 0 1-.192.84 3.383 3.383 0 0 1-.6.808L1.552-.7H4.16a.238.238 0 0 1 .212.1.41.41 0 0 1 .068.236.41.41 0 0 1-.068.236.238.238 0 0 1-.212.1H1.08a.749.749 0 0 1-.448-.1A.387.387 0 0 1 .5-.464a.391.391 0 0 1 .056-.2A1.37 1.37 0 0 1 .736-.9l1.952-2.06a4.8 4.8 0 0 0 .348-.4 2.3 2.3 0 0 0 .212-.324 1.081 1.081 0 0 0 .108-.3 1.591 1.591 0 0 0 .028-.3v-.04a.7.7 0 0 0-.244-.56 1.091 1.091 0 0 0-.724-.208 1.28 1.28 0 0 0-.672.164 1.617 1.617 0 0 0-.488.476.328.328 0 0 1-.22.14.355.355 0 0 1-.26-.068.388.388 0 0 1-.164-.22.33.33 0 0 1 .052-.272 2.156 2.156 0 0 1 .684-.668A1.945 1.945 0 0 1 2.4-5.808zm5.848.108a.408.408 0 0 1 .168.22.335.335 0 0 1-.072.292L6.08-1.912h1.936v-1.464a.285.285 0 0 1 .12-.256.479.479 0 0 1 .272-.08.493.493 0 0 1 .28.08.285.285 0 0 1 .12.256v1.464h.584a.23.23 0 0 1 .212.1.429.429 0 0 1 .06.232.429.429 0 0 1-.06.232.23.23 0 0 1-.212.1h-.584v.928a.285.285 0 0 1-.12.256.493.493 0 0 1-.28.08.479.479 0 0 1-.272-.08.285.285 0 0 1-.12-.256v-.928H5.64a.648.648 0 0 1-.4-.1.356.356 0 0 1-.12-.3.459.459 0 0 1 .032-.164 1.934 1.934 0 0 1 .184-.308L7.752-5.6a.343.343 0 0 1 .232-.156.381.381 0 0 1 .264.056z" transform="translate(180.5 402.5)" style="fill:#2d3239;stroke-width:.7px;stroke:#2d3239"/>
    </g>
    <g data-name="사각형 17496" transform="translate(13 22)" style="stroke-width:1.5px;stroke:#2d3239;fill:#fff">
        <rect width="7" height="7" rx="2" style="stroke:none"/>
        <rect x=".75" y=".75" width="5.5" height="5.5" rx="1.25" style="fill:none"/>
    </g>
    <path data-name="선 728" transform="translate(25 29)" style="stroke-linecap:round;fill:none;stroke-width:1.5px;stroke:#2d3239" d="M0 0v1"/>
</svg>
