<svg xmlns="http://www.w3.org/2000/svg" width="36" height="36" viewBox="0 0 36 36">
    <defs>
        <style>
            .cls-4{fill:#fff}.cls-3{fill:none}.cls-5{fill:#2d3239}.cls-8,.cls-9{stroke:none}.cls-9{fill:#2d3239}
        </style>
    </defs>
    <g id="ic_smartshopping_05" transform="translate(-2 -563.809)">
        <g id="그룹_12714" data-name="그룹 12714" transform="translate(6.069 572.138)">
            <g id="패스_12279" data-name="패스 12279" style="fill:#fff">
                <path class="cls-8" d="M20.346 18.782H4.069a3.323 3.323 0 0 1-3.319-3.32V4.07C.75 2.24 2.239.75 4.07.75h16.276c1.83 0 3.319 1.489 3.319 3.32v11.393c0 1.83-1.489 3.319-3.32 3.319z"/>
                <path class="cls-9" d="M4.07 1.5A2.572 2.572 0 0 0 1.5 4.07v11.393a2.572 2.572 0 0 0 2.57 2.569h16.276a2.572 2.572 0 0 0 2.569-2.57V4.07a2.572 2.572 0 0 0-2.57-2.569H4.07m0-1.5h16.277a4.07 4.07 0 0 1 4.069 4.07v11.393a4.07 4.07 0 0 1-4.07 4.069H4.07A4.07 4.07 0 0 1 0 15.462V4.07A4.07 4.07 0 0 1 4.07 0z"/>
            </g>
            <g id="패스_12280" data-name="패스 12280" class="cls-3">
                <path class="cls-8" d="M.61 0a.61.61 0 0 1 .61.61v6.1A.61.61 0 1 1 0 6.714V.61A.61.61 0 0 1 .61 0z" transform="rotate(90 6.511 14.242)"/>
                <path class="cls-9" d="M.61 0a.61.61 0 0 1 .61.61v6.104a.61.61 0 1 1-1.22 0V.61A.61.61 0 0 1 .61 0z" transform="rotate(90 6.511 14.242)"/>
            </g>
            <g id="패스_12281" data-name="패스 12281" class="cls-3">
                <path class="cls-8" d="M.61 0a.61.61 0 0 1 .61.61v3.663a.61.61 0 0 1-1.22 0V.61A.61.61 0 0 1 .61 0z" transform="rotate(90 4.272 14.853)"/>
                <path class="cls-9" d="M.61 0a.61.61 0 0 1 .61.61v3.663a.61.61 0 1 1-1.22 0V.61A.61.61 0 0 1 .61 0z" transform="rotate(90 4.272 14.853)"/>
            </g>
            <g id="패스_12285" data-name="패스 12285" class="cls-3">
                <path class="cls-8" d="M2.645 0A2.645 2.645 0 1 1 0 2.645 2.645 2.645 0 0 1 2.645 0z" transform="translate(5.493 4.273)"/>
                <path class="cls-9" d="M2.645 1.5c-.631 0-1.145.514-1.145 1.145S2.014 3.79 2.645 3.79 3.79 3.276 3.79 2.645 3.276 1.5 2.645 1.5m0-1.5a2.645 2.645 0 1 1 0 5.29 2.645 2.645 0 0 1 0-5.29z" transform="translate(5.493 4.273)"/>
            </g>
            <g id="패스_12282" data-name="패스 12282" class="cls-3">
                <path class="cls-8" d="M3.255 0H5.7a3.255 3.255 0 0 1 3.252 3.255V5.7H0V3.255A3.255 3.255 0 0 1 3.255 0z" transform="translate(3.662 10.173)"/>
                <path class="cls-9" d="M3.255 1.5c-.968 0-1.755.787-1.755 1.755v.942h5.952v-.942c0-.968-.787-1.755-1.755-1.755H3.255m0-1.5h2.442a3.255 3.255 0 0 1 3.255 3.255v2.442H0V3.255A3.255 3.255 0 0 1 3.255 0z" transform="translate(3.662 10.173)"/>
            </g>
            <path id="패스_12283" data-name="패스 12283" class="cls-4" d="M0 0h8.952v2.441H0z" transform="translate(3.662 13.835)"/>
            <path id="패스_12286" data-name="패스 12286" class="cls-5" d="M.61 0a.61.61 0 0 1 .61.61v.407a.61.61 0 1 1-1.22 0V.61A.61.61 0 0 1 .61 0z" transform="translate(3.662 13.021)"/>
            <path id="패스_12284" data-name="패스 12284" class="cls-5" d="M.61 0a.61.61 0 0 1 .61.61v.407a.61.61 0 1 1-1.22 0V.61A.61.61 0 0 1 .61 0z" transform="translate(11.394 13.021)"/>
            <path id="패스_12225" data-name="패스 12225" class="cls-4" d="M-.01 1.6C.254.843 5.055-1 5.813-1s5.459 2.076 5.822 2.6-.344 4.559-1.37 6.511-3.557 3.906-4.452 3.906-3.456-2.1-4.452-3.906S-.274 2.366-.01 1.6z" transform="translate(17.16 4.255)"/>
            <path id="패스_12149" data-name="패스 12149" d="M-.016 1.441C.22.728 4.525-1 5.2-1a18.613 18.613 0 0 1 5.22 2.441c.325.495-.308 4.274-1.228 6.1s-3.4 3.662-3.992 3.662-3.1-1.971-3.992-3.662a14.021 14.021 0 0 1-1.224-6.1z" transform="translate(20.009 5.476)" style="fill:#7dedf3"/>
            <path id="패스_12150" data-name="패스 12150" d="m-10170 5361.139 1.679 1.709 2.8-2.849" transform="translate(10190.956 -5351.862)" style="stroke:#2d3239;stroke-linecap:round;stroke-linejoin:round;stroke-width:1.5px;fill:none"/>
            <g id="패스_12151" data-name="패스 12151" class="cls-3">
                <path class="cls-8" d="M-.01 1.6C.254.843 5.055-1 5.813-1s5.459 2.076 5.822 2.6-.344 4.559-1.37 6.511-3.557 3.906-4.452 3.906-3.456-2.1-4.452-3.906S-.274 2.366-.01 1.6z" transform="translate(17.16 4.255)"/>
                <path class="cls-9" d="M5.8.515c-.328.076-1.183.343-2.317.807-1.091.447-1.732.787-2.054.984.037 1.07.533 3.796 1.245 5.084.335.607.983 1.372 1.733 2.046.643.577 1.154.905 1.418 1.038.261-.125.763-.433 1.382-.98.756-.666 1.386-1.424 1.73-2.077.73-1.389 1.23-3.918 1.291-4.983C9.201 1.852 6.606.717 5.801.515M5.813-1c.757 0 5.459 2.076 5.822 2.604.362.528-.344 4.56-1.37 6.51-1.026 1.953-3.558 3.907-4.452 3.907-.895 0-3.456-2.102-4.452-3.906C.364 6.31-.274 2.365-.01 1.605.254.842 5.055-1 5.813-1z" transform="translate(17.16 4.255)"/>
            </g>
        </g>
    </g>
</svg>
