<svg xmlns="http://www.w3.org/2000/svg" width="36" height="36" viewBox="0 0 36 36">
    <defs>
        <style>
            .cls-4{fill:#2d3239}
        </style>
    </defs>
    <g id="ic_social_insurance" data-name="ic_social insurance" transform="translate(-206 -750)">
        <path id="빼기_335" data-name="빼기 335" d="M6121.156-13568.2c-1.077 0-2.167-1.281-2.177-1.294l-.023-.021a88.261 88.261 0 0 0 8.743-8.705c2.279-2.834 3.3-5.235 3.3-7.786a8.042 8.042 0 0 0-2.021-5.376 7.865 7.865 0 0 0-5.034-2.571 7.64 7.64 0 0 1 3.966-1.245 8.187 8.187 0 0 1 8.248 8.3c0 5.693-5.08 10.337-12.769 17.366l-.055.051a3.612 3.612 0 0 1-2.178 1.281z" transform="translate(-5896.55 14349.498)" style="fill:#7dedf3"/>
        <g id="_Color" data-name="↳Color" style="fill:none;stroke-linecap:round;stroke-linejoin:round;stroke-miterlimit:10">
            <path d="M15 27c-1.087 0-2.175-1.294-2.175-1.294C5.1 18.657 0 14.008 0 8.3A8.2 8.2 0 0 1 8.25 0c2.61 0 5.115 1.737 6.75 3.669C16.635 1.737 19.14 0 21.75 0A8.2 8.2 0 0 1 30 8.3c0 5.706-5.1 10.355-12.825 17.419C17.175 25.721 16.087 27 15 27z" style="stroke:none" transform="translate(209 754.498)"/>
            <path d="M15.005 25.5c.207-.024.721-.398 1.028-.75.043-.052.08-.09.13-.136l.059-.054c3.732-3.412 6.955-6.36 9.114-9.024 2.188-2.698 3.164-4.93 3.164-7.234 0-3.814-2.965-6.802-6.75-6.802-2.174 0-4.321 1.621-5.605 3.138a1.5 1.5 0 0 1-2.29 0C12.571 3.121 10.425 1.5 8.25 1.5 4.465 1.5 1.5 4.488 1.5 8.302c0 2.309.979 4.543 3.174 7.246 2.167 2.667 5.4 5.617 9.143 9.033l.02.017c.047.044.093.091.135.141.264.313.808.735 1.033.76m0 1.501H15c-1.087-.004-2.175-1.294-2.175-1.294C5.1 18.657 0 14.008 0 8.302 0 3.652 3.63 0 8.25 0c2.61 0 5.115 1.737 6.75 3.67C16.635 1.736 19.14 0 21.75 0 26.37 0 30 3.653 30 8.302c0 5.706-5.1 10.355-12.825 17.42 0 0-1.084 1.278-2.17 1.278z" style="fill:#2d3239;stroke:none" transform="translate(209 754.498)"/>
        </g>
        <rect id="사각형_14338" data-name="사각형 14338" class="cls-4" width="10" height="1.5" rx=".75" transform="translate(219 766.749)"/>
        <rect id="사각형_14339" data-name="사각형 14339" class="cls-4" width="1.5" height="10" rx=".75" transform="translate(223.25 762.498)"/>
    </g>
</svg>
