<svg xmlns="http://www.w3.org/2000/svg" width="26" height="26" viewBox="0 0 26 26">
    <defs>
        <style>
            .cls-4{fill:#2d3239}
        </style>
    </defs>
    <g id="ic_social_insurance_s" data-name="ic_social insurance_s" transform="translate(-26 -475)">
        <path id="사각형_14313" data-name="사각형 14313" transform="translate(26 475)" style="fill:none" d="M0 0h26v26H0z"/>
        <path id="빼기_321" data-name="빼기 321" d="M5177.5-9775.831a2.336 2.336 0 0 1-1.376-.8l-.145-.129-.04-.036c-.572-.508-1.111-.988-1.63-1.457a1.105 1.105 0 0 0 .443.105 2.131 2.131 0 0 0 1.268-.727l.053-.048c4.475-3.992 7.429-6.627 7.429-9.858a4.657 4.657 0 0 0-1.818-3.72h.092a5.121 5.121 0 0 1 5.226 5.125c0 3.51-3.207 6.37-8.062 10.7l-.062.055a2.309 2.309 0 0 1-1.378.79zm-2.751-15.583a7.174 7.174 0 0 0-1.159-1.068 4.851 4.851 0 0 1 1.7.509 6.79 6.79 0 0 0-.543.56z" transform="translate(-5138 10272.5)" style="fill:#7dedf3"/>
        <g id="_Color" data-name="↳Color" style="stroke-linecap:round;stroke-linejoin:round;stroke-miterlimit:10;fill:none">
            <path d="M10 18c-.725 0-1.45-.862-1.45-.862C3.4 12.438 0 9.339 0 5.535A5.464 5.464 0 0 1 5.5 0 6.334 6.334 0 0 1 10 2.446 6.334 6.334 0 0 1 14.5 0 5.464 5.464 0 0 1 20 5.535c0 3.8-3.4 6.9-8.55 11.613 0 0-.725.852-1.45.852z" style="stroke:none" transform="translate(29 479)"/>
            <path d="M10.004 16.445c.1-.07.222-.177.305-.271a1.18 1.18 0 0 1 .129-.133l.04-.036c4.83-4.418 8.022-7.337 8.022-10.47 0-2.263-1.757-4.035-4-4.035-1.279 0-2.571.99-3.355 1.915a1.5 1.5 0 0 1-2.29 0C8.07 2.49 6.779 1.5 5.5 1.5c-2.243 0-4 1.772-4 4.035 0 3.139 3.202 6.06 8.048 10.483l.013.011c.048.045.094.092.136.142.054.064.192.191.307.274m0 1.555H10c-.725-.003-1.45-.862-1.45-.862C3.4 12.438 0 9.338 0 5.535 0 2.435 2.42 0 5.5 0 7.24 0 8.91 1.158 10 2.446 11.09 1.158 12.76 0 14.5 0 17.58 0 20 2.435 20 5.535c0 3.804-3.4 6.903-8.55 11.613 0 0-.723.852-1.447.852z" style="fill:#2d3239;stroke:none" transform="translate(29 479)"/>
        </g>
        <rect id="사각형_14338" data-name="사각형 14338" class="cls-4" width="7" height="1.5" rx=".75" transform="translate(35.5 487.25)"/>
        <rect id="사각형_14339" data-name="사각형 14339" class="cls-4" width="1.5" height="7" rx=".75" transform="translate(38.25 484.5)"/>
    </g>
</svg>
