<svg xmlns="http://www.w3.org/2000/svg" width="16" height="16" viewBox="0 0 16 16">
    <path data-name="패스 10930" d="M18.851 20h-.091A11.733 11.733 0 0 1 8 9.246a1.157 1.157 0 0 1 .3-.867 1.113 1.113 0 0 1 .818-.362L11.473 8a1.129 1.129 0 0 1 1.1.852l.491 1.951a1.119 1.119 0 0 1-.42 1.174l-.944.7a9.144 9.144 0 0 0 3.57 3.593l.73-.97a1.13 1.13 0 0 1 1.177-.416l1.964.488A1.124 1.124 0 0 1 20 16.468v2.407a1.1 1.1 0 0 1-.358.818 1.164 1.164 0 0 1-.791.307z" transform="rotate(12.04 39.513 -17.56)" style="fill:#fff"/>
</svg>
