<svg xmlns="http://www.w3.org/2000/svg" width="20" height="20" viewBox="0 0 20 20">
    <defs>
        <clipPath id="vklpnn13xa">
            <path data-name="사각형 14190" style="fill:#111" d="M0 0h10v12.666H0z"/>
        </clipPath>
    </defs>
    <path data-name="사각형 16692" style="fill:none" d="M0 0h20v20H0z"/>
    <g data-name="그룹 13397">
        <g data-name="그룹 11948" transform="translate(5 3.5)" style="clip-path:url(#vklpnn13xa)">
            <path data-name="패스 12088" d="M.13 5.92a2.51 2.51 0 0 1 .376.721 2.542 2.542 0 0 1 .137.829 2.573 2.573 0 0 1-.137.83 2.524 2.524 0 0 1-.376.722.667.667 0 1 0 1.07.794 3.908 3.908 0 0 0 .572-1.086 3.984 3.984 0 0 0 .2-1.26 3.994 3.994 0 0 0-.2-1.257A3.865 3.865 0 0 0 1.2 5.126a.667.667 0 0 0-1.07.794" transform="translate(0 -1.137)" style="fill:#111"/>
            <path data-name="패스 12089" d="M3.13 4.306a5.341 5.341 0 0 1 .786 2.8A5.341 5.341 0 0 1 3.13 9.9a.662.662 0 0 0 .215.916.669.669 0 0 0 .918-.218A6.661 6.661 0 0 0 5.252 7.1a6.679 6.679 0 0 0-.989-3.5.667.667 0 1 0-1.133.7" transform="translate(-.71 -.771)" style="fill:#111"/>
            <path data-name="패스 12090" d="M6.294 2.659a8 8 0 0 1 1.1 4.06 8.006 8.006 0 0 1-1.1 4.063.669.669 0 0 0 1.155.675 9.361 9.361 0 0 0 1.277-4.738 9.368 9.368 0 0 0-1.279-4.737.669.669 0 1 0-1.153.678" transform="translate(-1.453 -.387)" style="fill:#111"/>
            <path data-name="패스 12091" d="M9.453 1a10.74 10.74 0 0 1 1.408 5.336 10.743 10.743 0 0 1-1.408 5.335.667.667 0 1 0 1.159.662 12.063 12.063 0 0 0 1.582-6 12.075 12.075 0 0 0-1.582-6A.667.667 0 0 0 9.453 1" transform="translate(-2.194)" style="fill:#111"/>
        </g>
    </g>
</svg>
