<?xml version="1.0" encoding="utf-8"?>
<!-- Generator: Adobe Illustrator 26.1.0, SVG Export Plug-In . SVG Version: 6.00 Build 0)  -->
<svg version="1.1" id="Layer_1" xmlns="http://www.w3.org/2000/svg" xmlns:xlink="http://www.w3.org/1999/xlink" x="0px" y="0px"
	 viewBox="0 0 44 44" style="enable-background:new 0 0 44 44;" xml:space="preserve">
<style type="text/css">
	.st0{fill:none;}
	.st1{fill:#FFFFFF;}
	.st2{fill:#7DEDF3;}
	.st3{fill:#2D3239;}
</style>
<g id="ic_health_insurance" transform="translate(0 -.117)">
	<path id="사각형_7870" class="st0" d="M0.1,0.1H44V44H0.1V0.1z"/>
	<path id="패스_12154" class="st1" d="M6.4,11.9c0.7-2.1,14.1-7.1,16.2-7.1s15.2,5.6,16.2,7.1c1,1.4-1,12.4-3.8,17.7
		c-2.9,5.3-9.9,10.6-12.4,10.6S13,34.5,10.2,29.6S5.6,14,6.4,11.9z"/>
	<path id="빼기_329" class="st2" d="M23.8,40.2c-1.2-0.2-2.4-0.7-3.4-1.5c3.1-1,8.7-5.7,11.1-10.1c1.5-3.1,2.6-6.5,3.2-9.9
		c0.7-3.6,0.9-6.5,0.4-7.1c-0.5-0.7-3.7-2.3-6.5-3.5C26,6.9,23.2,5.8,20.3,5c1.1-0.4,2.3-0.7,3.5-0.9c1.1,0,5.1,1.5,8.5,3.1
		c3.2,1.4,7.2,3.4,7.7,4.2c0.5,0.7,0.3,3.7-0.5,7.6c-0.7,3.6-1.8,7.2-3.4,10.5C33.4,34.9,26.3,40.2,23.8,40.2z"/>
	<g id="패스_12157">
		<path class="st0" d="M4.5,10.6C5.3,8.4,19.7,3,22,3s16.4,6.1,17.4,7.6c1.1,1.5-1,13.3-4.1,19S24.7,41,22,41S11.6,34.9,8.7,29.6
			S3.8,12.8,4.5,10.6z"/>
		<path class="st3" d="M22,4.9c-0.7,0-4,1-8.2,2.7c-2,0.8-3.8,1.6-5.1,2.3c-1.7,0.9-2.3,1.4-2.5,1.5c0,0.3-0.1,1,0,2.4
			c0.1,1.4,0.4,3.2,0.7,5c0.8,4.1,2,7.8,3.2,10c1.2,2.2,3.6,4.9,6.3,7.1c3,2.5,4.9,3.3,5.4,3.3c0.5,0,2.5-0.8,5.4-3.1
			c2.8-2.3,5.1-4.9,6.4-7.3c1.2-2.3,2.5-6,3.3-10c0.9-4,0.9-6.4,0.8-7.1c-0.8-0.6-3.4-2-7.7-3.8C25.6,5.8,22.6,4.9,22,4.9 M22,3
			c2.3,0,16.4,6.1,17.4,7.6c1.1,1.5-1,13.3-4.1,19C32.3,35.3,24.7,41,22,41c-2.7,0-10.4-6.1-13.3-11.4c-3-5.3-4.9-16.8-4.1-19
			C5.3,8.4,19.7,3,22,3z"/>
	</g>
	<g id="합치기_160">
		<path class="st0" d="M21.1,29.4c-1.3,0-2.4-1.1-2.4-2.4v-2.7H16c-1.3,0-2.4-1.1-2.4-2.4v-1.8c0-1.3,1.1-2.4,2.4-2.4h2.7v-2.7
			c0-1.3,1.1-2.4,2.4-2.4H23c1.3,0,2.4,1.1,2.4,2.4v2.7h2.7c1.3,0,2.4,1.1,2.4,2.4v1.8c0,1.3-1.1,2.4-2.4,2.4h-2.7v2.7
			c0,1.3-1.1,2.4-2.4,2.4H21.1z"/>
		<path class="st3" d="M23,27.6c0.3,0,0.6-0.3,0.6-0.6c0,0,0,0,0,0v-4.6h4.6c0.3,0,0.6-0.3,0.6-0.6v-1.8c0-0.3-0.3-0.6-0.6-0.6h-4.6
			v-4.6c0-0.3-0.3-0.6-0.6-0.6h-1.8c-0.3,0-0.6,0.3-0.6,0.6v4.6H16c-0.3,0-0.6,0.3-0.6,0.6v1.8c0,0.3,0.3,0.6,0.6,0.6h4.6v4.6
			c0,0.3,0.3,0.6,0.6,0.6L23,27.6 M23,29.4h-1.8c-1.3,0-2.4-1.1-2.4-2.4v-2.7H16c-1.3,0-2.4-1.1-2.4-2.4v-1.8c0-1.3,1.1-2.4,2.4-2.4
			h2.7v-2.7c0-1.3,1.1-2.4,2.4-2.4H23c1.3,0,2.4,1.1,2.4,2.4c0,0,0,0,0,0v2.7h2.7c1.3,0,2.4,1.1,2.4,2.4v1.8c0,1.3-1.1,2.4-2.4,2.4
			h-2.7v2.7C25.4,28.3,24.3,29.4,23,29.4z"/>
	</g>
</g>
</svg>
