<svg xmlns="http://www.w3.org/2000/svg" width="30" height="20" viewBox="0 0 30 20">
    <defs>
        <clipPath id="7sy311al4a">
            <path data-name="사각형 14190" style="fill:#111" d="M0 0h8.5v10.766H0z"/>
        </clipPath>
    </defs>
    <path data-name="사각형 16819" style="fill:none" d="M0 0h30v20H0z"/>
    <g data-name="타원 2024" transform="translate(2 2)" style="stroke:#111;fill:none">
        <ellipse cx="11" cy="8" rx="11" ry="8" style="stroke:none"/>
        <ellipse cx="11" cy="8" rx="10.5" ry="7.5" style="fill:none"/>
    </g>
    <g data-name="그룹 13806">
        <g data-name="그룹 11948" transform="translate(7.5 4.5)" style="clip-path:url(#7sy311al4a)">
            <path data-name="패스 12088" d="M.11 5.76a2.133 2.133 0 0 1 .32.613 2.161 2.161 0 0 1 .117.7 2.187 2.187 0 0 1-.117.707 2.145 2.145 0 0 1-.32.62.567.567 0 1 0 .912.674 3.322 3.322 0 0 0 .484-.923 3.387 3.387 0 0 0 .173-1.071 3.4 3.4 0 0 0-.173-1.069 3.285 3.285 0 0 0-.484-.924.567.567 0 0 0-.912.673" transform="translate(0 -1.695)" style="fill:#111"/>
            <path data-name="패스 12089" d="M3.115 4.154a4.54 4.54 0 0 1 .668 2.378 4.54 4.54 0 0 1-.668 2.378.563.563 0 0 0 .183.778.569.569 0 0 0 .78-.185 5.661 5.661 0 0 0 .841-2.97 5.677 5.677 0 0 0-.841-2.974.567.567 0 1 0-.963.6" transform="translate(-1.057 -1.149)" style="fill:#111"/>
            <path data-name="패스 12090" d="M6.28 2.508a6.8 6.8 0 0 1 .933 3.451 6.805 6.805 0 0 1-.935 3.453.569.569 0 0 0 .982.574 7.957 7.957 0 0 0 1.087-4.027A7.963 7.963 0 0 0 7.26 1.932a.568.568 0 1 0-.98.576" transform="translate(-2.165 -.576)" style="fill:#111"/>
            <path data-name="패스 12091" d="M9.44.848a9.19 9.19 0 0 1 0 9.07.567.567 0 1 0 .985.562 10.333 10.333 0 0 0 0-10.194.567.567 0 0 0-.985.562" transform="translate(-3.27)" style="fill:#111"/>
        </g>
    </g>
    <path data-name="사각형 16857" transform="translate(23.5 9.5)" style="fill:#fff" d="M0 0h1v2H0z"/>
    <path data-name="패스 12719" d="M14827.7-2347.281s-.937 1.125.766 1.688 2.219.125 2.219.125" transform="translate(-14807.5 2359.418)" style="stroke-linecap:round;stroke-linejoin:round;fill:#fff;stroke:#111"/>
    <path data-name="패스 12720" d="m14835.368-2345.388-2.735-4.515s-.877-1.7-2.271-1.806a4.259 4.259 0 0 0-1.548 0" transform="translate(-14807.5 2359.5)" style="stroke-linecap:round;stroke-linejoin:round;fill:#fff;stroke:#111"/>
    <g data-name="사각형 16858" transform="rotate(14 -14.169 74.846)" style="fill:#fff;stroke:#111">
        <rect width="4" height="4" rx=".5" style="stroke:none"/>
        <path style="fill:none" d="M.5.5h3v3h-3z"/>
    </g>
    <path data-name="패스 12721" d="m14831.008-2349.207-3.02-2.142s-1.108-.671-1.521 0 1.521 2.3 1.521 2.3l1.678 1.6a4.447 4.447 0 0 0 1.187 1.987c.877.774 1.574 1.264 1.574 1.264" transform="translate(-14807.5 2359.5)" style="stroke-linecap:round;stroke-linejoin:round;fill:#fff;stroke:#111"/>
    <path data-name="패스 12722" d="M14827.563-2348.953s-.719.469.063 1.094 1.3 1.625 2.094 1.406" transform="translate(-14807.411 2359.453)" style="stroke-linecap:round;stroke-linejoin:round;fill:#fff;stroke:#111"/>
</svg>
