<svg xmlns="http://www.w3.org/2000/svg" width="40" height="40" viewBox="0 0 40 40">
    <g transform="translate(-240 -1107)">
        <g data-name="사각형 14416" style="stroke:#2d3239;stroke-width:1.5px;fill:#fff">
            <path d="M0 0h4.507v2.254a2.254 2.254 0 0 1-2.253 2.253A2.254 2.254 0 0 1 0 2.254V0z" style="stroke:none" transform="translate(253.24 1138.4)"/>
            <path d="M.75.75h3.007v1.5a1.5 1.5 0 0 1-1.5 1.5 1.5 1.5 0 0 1-1.5-1.5V.75H.75z" style="fill:none" transform="translate(253.24 1138.4)"/>
        </g>
        <g data-name="사각형 14423" style="stroke:#2d3239;stroke-width:1.5px;fill:#fff">
            <path d="M0 0h4.507v2.254a2.254 2.254 0 0 1-2.253 2.253A2.254 2.254 0 0 1 0 2.254V0z" style="stroke:none" transform="translate(262.253 1138.4)"/>
            <path d="M.75.75h3.007v1.5a1.5 1.5 0 0 1-1.5 1.5 1.5 1.5 0 0 1-1.5-1.5V.75H.75z" style="fill:none" transform="translate(262.253 1138.4)"/>
        </g>
        <g data-name="사각형 14415" style="fill:none;stroke:#2d3239;stroke-width:1.5px">
            <path d="M5 0h.817a5 5 0 0 1 5 5v4.014H0V5a5 5 0 0 1 5-5z" style="stroke:none" transform="translate(254.592 1111)"/>
            <path d="M5 .75h.817A4.25 4.25 0 0 1 10.067 5v3.264H.75V5A4.25 4.25 0 0 1 5 .75z" style="fill:none" transform="translate(254.592 1111)"/>
        </g>
        <rect data-name="사각형 14419" width="17.945" height="20.732" rx="4" transform="translate(250.618 1118.211)" style="fill:#fff"/>
        <path data-name="빼기 327" d="M14.846 20.732H4a4 4 0 0 1-3.993-3.768 4 4 0 0 0 3.051 1.412h9.9a4 4 0 0 0 4-4v-9.9a4 4 0 0 0-4-4h-9.9a3.994 3.994 0 0 0-1.3.216A3.979 3.979 0 0 1 4 0h10.846a4 4 0 0 1 4 4v12.732a4 4 0 0 1-4 4z" transform="translate(250.618 1119.114)" style="fill:#7dedf3"/>
        <g data-name="사각형 14414" transform="translate(249.183 1118.211)" style="fill:none;stroke:#2d3239;stroke-width:1.5px">
            <rect width="21.634" height="21.634" rx="5" style="stroke:none"/>
            <rect x=".75" y=".75" width="20.134" height="20.134" rx="4.25" style="fill:none"/>
        </g>
        <rect data-name="사각형 14418" width="1.5" height="10.817" rx=".75" transform="translate(264.082 1123.62)" style="fill:#2d3239"/>
        <rect data-name="사각형 17436" width="1.5" height="10.817" rx=".75" transform="translate(259.2 1123.62)" style="fill:#2d3239"/>
        <rect data-name="사각형 17437" width="1.5" height="10.817" rx=".75" transform="translate(254.3 1123.62)" style="fill:#2d3239"/>
    </g>
</svg>
