<svg xmlns="http://www.w3.org/2000/svg" width="44" height="44" viewBox="0 0 44 44">
    <g transform="translate(-2 -564)">
        <g data-name="사각형 13455" transform="translate(7 574)" style="stroke-width:1.5px;stroke:#2d3239;fill:#fff">
            <rect width="30" height="24" rx="5" style="stroke:none"/>
            <rect x=".75" y=".75" width="28.5" height="22.5" rx="4.25" style="fill:none"/>
        </g>
        <g data-name="그룹 12509">
            <path data-name="다각형 96" d="M7.78 2.9a2 2 0 0 1 3.439 0l5.987 10.083A2 2 0 0 1 15.487 16H3.513a2 2 0 0 1-1.72-3.021z" transform="translate(24 577)" style="fill:#fff"/>
            <path data-name="다각형 94" d="M7.78 2.9a2 2 0 0 1 3.439 0l5.987 10.083A2 2 0 0 1 15.487 16H3.513a2 2 0 0 1-1.72-3.021z" transform="translate(26.5 579)" style="fill:#7dedf3"/>
            <g data-name="다각형 95" style="fill:none">
                <path d="M7.78 2.9a2 2 0 0 1 3.439 0l5.987 10.083A2 2 0 0 1 15.487 16H3.513a2 2 0 0 1-1.72-3.021z" style="stroke:none" transform="translate(24 577)"/>
                <path d="M9.5 3.417a.485.485 0 0 0-.43.245L3.084 13.745a.484.484 0 0 0-.005.502.484.484 0 0 0 .434.253h11.974c.252 0 .38-.158.434-.253a.484.484 0 0 0-.005-.502L9.93 3.662a.485.485 0 0 0-.43-.245m0-1.5c.666 0 1.332.327 1.72.98l5.986 10.082c.792 1.333-.169 3.021-1.72 3.021H3.514c-1.55 0-2.51-1.688-1.72-3.021L7.78 2.896a1.982 1.982 0 0 1 1.72-.979z" style="fill:#2d3239;stroke:none" transform="translate(24 577)"/>
            </g>
            <g data-name="사각형 15452" transform="rotate(180 17.125 293.875)" style="fill:none;stroke:#2d3239">
                <rect width="1.5" height="4.25" rx=".75" style="stroke:none"/>
                <rect x=".5" y=".5" width=".5" height="3.25" rx=".25" style="fill:none"/>
            </g>
            <circle data-name="타원 1906" cx="1" cy="1" r="1" transform="translate(32.5 588.5)" style="fill:#2d3239"/>
        </g>
        <rect data-name="사각형 13462" width="4.504" height="4.504" rx="1.5" transform="translate(13.376 584.876)" style="fill:#7dedf3"/>
        <g data-name="사각형 13463" transform="translate(11.5 583)" style="fill:none;stroke-width:1.5px;stroke:#2d3239">
            <rect width="6.005" height="6.005" rx="2" style="stroke:none"/>
            <rect x=".75" y=".75" width="4.505" height="4.505" rx="1.25" style="fill:none"/>
        </g>
    </g>
</svg>
