<svg xmlns="http://www.w3.org/2000/svg" width="44" height="44" viewBox="0 0 44 44">
    <defs>
        <clipPath id="rno3n5fc6a">
            <path data-name="사각형 12165" style="fill:#2d3239" d="M0 0h16v16H0z"/>
        </clipPath>
    </defs>
    <g data-name="그룹 9800" transform="translate(-253 -1669)">
        <g data-name="사각형 12167" style="stroke:#2d3239;stroke-width:1.5px;fill:#fff">
            <path d="M5 0h12a5 5 0 0 1 5 5v6H0V5a5 5 0 0 1 5-5z" style="stroke:none" transform="rotate(-17 5761.553 -24.789)"/>
            <path d="M5 .75h12A4.25 4.25 0 0 1 21.25 5v5.25H.75V5A4.25 4.25 0 0 1 5 .75z" style="fill:none" transform="rotate(-17 5761.553 -24.789)"/>
        </g>
        <g data-name="사각형 11970" transform="translate(260 1683)" style="stroke:#2d3239;stroke-width:1.5px;fill:#fff">
            <rect width="26" height="22" rx="5" style="stroke:none"/>
            <rect x=".75" y=".75" width="24.5" height="20.5" rx="4.25" style="fill:none"/>
        </g>
        <path data-name="패스 11011" d="M7 0a7 7 0 1 1-7 7 7 7 0 0 1 7-7z" transform="translate(276.5 1691)" style="fill:#fff"/>
        <path data-name="패스 10995" d="M7 0a7 7 0 1 1-7 7 7 7 0 0 1 7-7z" transform="translate(277.5 1692)" style="fill:#7dedf3"/>
        <g data-name="그룹 9779">
            <path data-name="패스 2252" d="m3649.636 5413.028 1.75 5 1.75-5 1.75 5 1.75-5" transform="translate(-3369.636 -3716.528)" style="stroke-linejoin:round;stroke-linecap:round;fill:none;stroke:#2d3239;stroke-width:1.5px"/>
            <path data-name="선 11" transform="translate(279 1698.5)" style="stroke-linecap:round;fill:none;stroke:#2d3239;stroke-width:1.5px" d="M0 0h1.5"/>
            <path data-name="선 166" transform="translate(286.5 1698.5)" style="stroke-linecap:round;fill:none;stroke:#2d3239;stroke-width:1.5px" d="M0 0h1.5"/>
        </g>
        <path data-name="패스 11010" d="m18921.184-8536.331.484 2.531 2.7-.641" transform="translate(-18645.137 10229.425)" style="stroke-linejoin:round;stroke-linecap:round;fill:none;stroke:#2d3239;stroke-width:1.5px"/>
        <g data-name="사각형 12164" style="stroke:#2d3239;stroke-width:1.5px;fill:#fff">
            <path d="M2.4 0H8a4 4 0 0 1 4 4 4 4 0 0 1-4 4H2.4A2.4 2.4 0 0 1 0 5.6V2.4A2.4 2.4 0 0 1 2.4 0z" style="stroke:none" transform="translate(258 1690)"/>
            <path d="M2.471.75H8A3.25 3.25 0 0 1 11.25 4 3.25 3.25 0 0 1 8 7.25H2.471A1.721 1.721 0 0 1 .75 5.529V2.471A1.721 1.721 0 0 1 2.471.75z" style="fill:none" transform="translate(258 1690)"/>
        </g>
        <circle data-name="타원 1441" cx="1" cy="1" r="1" transform="translate(265 1693)" style="fill:#2d3239"/>
        <g data-name="그룹 9799">
            <g data-name="그룹 9798" style="clip-path:url(#rno3n5fc6a)" transform="translate(275.5 1690.5)">
                <path data-name="패스 11012" d="M7.914 16a8.114 8.114 0 0 1-7.9-6.272.685.685 0 0 1 .528-.816.688.688 0 0 1 .826.522A6.708 6.708 0 0 0 14.614 8a6.8 6.8 0 0 0-6.706-6.629c-3.569-.032-5.742 3.111-6.1 3.89a.7.7 0 0 1-.916.339.683.683 0 0 1-.345-.9C1 3.7 3.614-.027 7.919 0A8.2 8.2 0 0 1 16 8a8.052 8.052 0 0 1-8.086 8" style="fill:#2d3239"/>
            </g>
        </g>
    </g>
</svg>
