<svg xmlns="http://www.w3.org/2000/svg" width="36" height="36.001" viewBox="0 0 36 36.001">
    <g data-name="img_my data logo" transform="translate(-31 -458)">
        <rect data-name="사각형 13986" width="36" height="36" rx="12" transform="translate(31 458)" style="fill:none"/>
        <g data-name="그룹 13663">
            <g data-name="그룹 13664">
                <g data-name="그룹 13663">
                    <path data-name="패스 12570" d="M542.378 225.009v7.754h-1.208v-3.789h-3.523v3.789h-1.207v-7.754h1.207v3.057h3.523v-3.057z" transform="translate(-499.298 232.992)" style="fill:#009a90"/>
                    <path data-name="패스 12571" d="M562.884 235.965a2.165 2.165 0 0 1-1.794.809 1.726 1.726 0 0 1-1.7-1.772 2.116 2.116 0 0 1 2.038-2.138l1.407-.166a1.134 1.134 0 0 0-1.2-1.207 2.683 2.683 0 0 0-1.661.709l-.21-.941a3.219 3.219 0 0 1 1.983-.643 2.042 2.042 0 0 1 2.227 2.149v2.47a3.621 3.621 0 0 0 .266 1.418h-1.119a1.243 1.243 0 0 1-.237-.688zm-.044-2.4-.931.122c-.864.133-1.329.565-1.329 1.263a.877.877 0 0 0 .831.931c.689-.004 1.561-.603 1.428-2.319z" transform="translate(-515.222 229.103)" style="fill:#009a90"/>
                    <path data-name="패스 12572" d="M579.688 230.7v.709a2.123 2.123 0 0 1 1.728-.831 2.073 2.073 0 0 1 2.171 2.315v3.733h-1.141V233.1c0-.953-.487-1.617-1.352-1.617a1.47 1.47 0 0 0-1.4 1.661v3.479h-1.141V230.7z" transform="translate(-528.517 229.128)" style="fill:#009a90"/>
                    <path data-name="패스 12573" d="M601.525 235.965a2.165 2.165 0 0 1-1.794.809 1.726 1.726 0 0 1-1.695-1.774 2.116 2.116 0 0 1 2.038-2.138l1.407-.166a1.134 1.134 0 0 0-1.2-1.207 2.683 2.683 0 0 0-1.662.709l-.21-.941a3.221 3.221 0 0 1 1.983-.643 2.041 2.041 0 0 1 2.227 2.149v2.47a3.632 3.632 0 0 0 .266 1.418h-1.119a1.243 1.243 0 0 1-.241-.686zm-.044-2.4-.93.122c-.864.133-1.33.565-1.33 1.263a.877.877 0 0 0 .831.931c.687-.004 1.562-.603 1.429-2.319z" transform="translate(-542.029 229.103)" style="fill:#009a90"/>
                </g>
            </g>
            <g data-name="그룹 13666">
                <g data-name="그룹 13665">
                    <path data-name="패스 12574" d="M547.374 266.956v-8.274h-10.181a3.813 3.813 0 0 0-3.937 3.651v18.385a3.813 3.813 0 0 0 3.937 3.651h17.793a3.813 3.813 0 0 0 3.937-3.651v-10.5h-8.032a3.4 3.4 0 0 1-3.517-3.262z" transform="translate(-497.089 209.632)" style="fill:#009a90"/>
                    <path data-name="패스 12575" d="M588.77 267.8h8.03v-5.47a3.813 3.813 0 0 0-3.937-3.651h-5.008v8.274a.882.882 0 0 0 .915.847z" transform="translate(-534.968 209.632)" style="fill:#de234b"/>
                    <path data-name="패스 12576" d="M582.87 267.8a.882.882 0 0 1-.913-.846v-8.274h-2.6v8.274a3.4 3.4 0 0 0 3.517 3.262h8.026V267.8z" transform="translate(-529.068 209.632)" style="fill:#fff"/>
                </g>
                <path data-name="패스 12577" d="M584.88 305.451h-2.921v-2.173h-2.605v7.413a1.91 1.91 0 0 0 1.975 1.832h6.157v-9.245h-2.606zm-2.921 4.734v-2.4h2.921v2.4z" transform="translate(-529.068 178.694)" style="fill:#fff"/>
                <path data-name="패스 12578" d="M549.412 271.27v-4.95h-2.606v4.366h-6.185v2.414h6.815a1.91 1.91 0 0 0 1.976-1.83z" transform="translate(-502.199 204.333)" style="fill:#fff"/>
                <path data-name="패스 12579" d="M548.87 293.1a4.332 4.332 0 1 0 4.332 4.332 4.332 4.332 0 0 0-4.332-4.332zm0 6.064a1.732 1.732 0 1 1 1.732-1.732 1.732 1.732 0 0 1-1.732 1.729z" transform="translate(-504.916 185.757)" style="fill:#fff"/>
            </g>
        </g>
    </g>
</svg>
