<svg xmlns="http://www.w3.org/2000/svg" width="36" height="36" viewBox="0 0 36 36">
    <g data-name="그룹 11900">
        <path data-name="사각형 7905" style="fill:none" d="M0 0h36v36H0z"/>
        <g data-name="그룹 11899" transform="translate(-83 -622)">
            <g data-name="사각형 14112" style="stroke:#2d3239;stroke-width:1.5px;fill:#fff">
                <path d="M5 0h9a8 8 0 0 1 8 8v18a2 2 0 0 1-2 2H5a5 5 0 0 1-5-5V5a5 5 0 0 1 5-5z" style="stroke:none" transform="translate(89 626)"/>
                <path d="M5 .75h9A7.25 7.25 0 0 1 21.25 8v18A1.25 1.25 0 0 1 20 27.25H5A4.25 4.25 0 0 1 .75 23V5A4.25 4.25 0 0 1 5 .75z" style="fill:none" transform="translate(89 626)"/>
            </g>
            <g data-name="교차 25" style="fill:none">
                <path d="M4.52 7.21a4 4 0 0 1-4-4v-4a8 8 0 0 1 8 8z" style="stroke:none" transform="translate(102.48 626.791)"/>
                <path d="M6.845 5.71A6.522 6.522 0 0 0 2.019.884V3.21c0 1.38 1.122 2.5 2.5 2.5h2.326m1.674 1.5h-4a4 4 0 0 1-4-4l.001-4a8 8 0 0 1 8 8z" style="fill:#2d3239;stroke:none" transform="translate(102.48 626.791)"/>
            </g>
            <rect data-name="사각형 6085" width="6" height="1.5" rx=".75" transform="translate(94 633)" style="fill:#2d3239"/>
            <rect data-name="사각형 6086" width="8" height="1.5" rx=".75" transform="translate(94 637)" style="fill:#2d3239"/>
            <g data-name="그룹 11898">
                <path data-name="패스 10995" d="M7 0a7 7 0 1 1-7 7 7 7 0 0 1 7-7z" transform="translate(103.701 639)" style="fill:#7dedf3"/>
                <g data-name="타원 1441" transform="translate(101 638)" style="stroke:#2d3239;stroke-width:1.5px;fill:none">
                    <circle cx="8" cy="8" r="8" style="stroke:none"/>
                    <circle cx="8" cy="8" r="7.25" style="fill:none"/>
                </g>
                <g data-name="그룹 9779">
                    <path data-name="패스 2252" d="m3649.636 5413.028 1.75 5 1.75-5 1.75 5 1.75-5" transform="translate(-3544.136 -4769.027)" style="stroke-linejoin:round;stroke-linecap:round;stroke:#2d3239;stroke-width:1.5px;fill:none"/>
                    <path data-name="선 11" transform="translate(104.5 646)" style="stroke-linecap:round;stroke:#2d3239;stroke-width:1.5px;fill:none" d="M0 0h1.5"/>
                    <path data-name="선 166" transform="translate(112 646)" style="stroke-linecap:round;stroke:#2d3239;stroke-width:1.5px;fill:none" d="M0 0h1.5"/>
                </g>
            </g>
        </g>
    </g>
</svg>
