<svg xmlns="http://www.w3.org/2000/svg" width="36" height="36" viewBox="0 0 36 36">
    <g data-name="ic_change card" transform="translate(-256 -1080.5)">
        <path data-name="사각형 16668" transform="translate(256 1080.5)" style="fill:none" d="M0 0h36v36H0z"/>
        <g data-name="사각형 13783" transform="translate(263 1084.5)" style="stroke-width:1.5px;stroke:#2d3239;fill:#fff">
            <rect width="21" height="28" rx="5" style="stroke:none"/>
            <rect x=".75" y=".75" width="19.5" height="26.5" rx="4.25" style="fill:none"/>
        </g>
        <rect data-name="사각형 16664" width="4.75" height="4.75" rx="1.5" transform="translate(272.75 1091.5)" style="fill:#7dedf3"/>
        <g data-name="사각형 13784" transform="translate(270.75 1090.5)" style="stroke-width:1.5px;stroke:#2d3239;fill:none">
            <rect width="5.5" height="5.5" rx="2" style="stroke:none"/>
            <rect x=".75" y=".75" width="4" height="4" rx="1.25" style="fill:none"/>
        </g>
        <path data-name="사각형 16665" transform="translate(274 1098.5)" style="fill:#fff" d="M0 0h13v16H0z"/>
        <g data-name="사각형 16662" transform="translate(276.5 1104.174)" style="stroke:#2d3239;fill:#fff">
            <rect width="9" height="1.5" rx=".75" style="stroke:none"/>
            <rect x=".5" y=".5" width="8" height=".5" rx=".25" style="fill:none"/>
        </g>
        <path data-name="패스 12389" d="M5657.414 19472H5660v2.586" transform="rotate(45 25143.814 3800.96)" style="stroke-linecap:round;stroke-linejoin:round;stroke-width:1.5px;stroke:#2d3239;fill:none"/>
        <g data-name="사각형 16663" transform="translate(276.5 1109.174)" style="stroke:#2d3239;fill:#fff">
            <rect width="9.078" height="1.5" rx=".75" style="stroke:none"/>
            <rect x=".5" y=".5" width="8.078" height=".5" rx=".25" style="fill:none"/>
        </g>
        <path data-name="패스 12390" d="M0 2.586h2.586V0" transform="rotate(135 -89.707 613.02)" style="stroke-linecap:round;stroke-linejoin:round;stroke-width:1.5px;stroke:#2d3239;fill:none"/>
        <rect data-name="사각형 16666" width="1.5" height="3" rx=".75" transform="translate(282.5 1097.5)" style="fill:#2d3239"/>
        <rect data-name="사각형 16667" width="3" height="1.5" rx=".75" transform="translate(272 1111)" style="fill:#2d3239"/>
    </g>
</svg>
