<svg xmlns="http://www.w3.org/2000/svg" width="36" height="36" viewBox="0 0 36 36">
    <g data-name="사각형 16558" style="stroke:#2d3239;stroke-width:1.5px;fill:#fff">
        <path d="M0 0h22v9a5 5 0 0 1-5 5H5a5 5 0 0 1-5-5V0z" style="stroke:none" transform="translate(5 16)"/>
        <path d="M.75.75h20.5V9A4.25 4.25 0 0 1 17 13.25H5A4.25 4.25 0 0 1 .75 9V.75z" style="fill:none" transform="translate(5 16)"/>
    </g>
    <g data-name="사각형 16560" transform="translate(3 10.5)" style="stroke:#2d3239;stroke-width:1.5px;fill:#fff">
        <rect width="26" height="7" rx="2" style="stroke:none"/>
        <rect x=".75" y=".75" width="24.5" height="5.5" rx="1.25" style="fill:none"/>
    </g>
    <path data-name="선 496" transform="translate(16 11.5)" style="fill:none;stroke:#2d3239;stroke-width:1.5px" d="M0 0v18"/>
    <g data-name="그룹 13220">
        <path data-name="패스 12554" d="m-462.128 71.8-5.327-5.862a3.8 3.8 0 0 1 0-5.016 3.079 3.079 0 0 1 2.283-1.042 3.078 3.078 0 0 1 2.283 1.042l.762.835.764-.842a3.082 3.082 0 0 1 2.283-1.035 3.078 3.078 0 0 1 2.283 1.035 3.807 3.807 0 0 1 0 5.023l-4.567 5.025z" transform="translate(488.822 -38.8)" style="fill:#fff"/>
        <path data-name="패스 12516" d="m-462.128 71.8-5.327-5.862a3.8 3.8 0 0 1 0-5.016 3.079 3.079 0 0 1 2.283-1.042 3.078 3.078 0 0 1 2.283 1.042l.762.835.764-.842a3.082 3.082 0 0 1 2.283-1.035 3.078 3.078 0 0 1 2.283 1.035 3.807 3.807 0 0 1 0 5.023l-4.567 5.025z" transform="translate(490.822 -38.8)" style="fill:#7dedf3"/>
        <path data-name="패스 12515" d="m-462.128 71.8-5.327-5.862a3.8 3.8 0 0 1 0-5.016 3.079 3.079 0 0 1 2.283-1.042 3.078 3.078 0 0 1 2.283 1.042l.762.835.764-.842a3.082 3.082 0 0 1 2.283-1.035 3.078 3.078 0 0 1 2.283 1.035 3.807 3.807 0 0 1 0 5.023l-4.567 5.025h0z" transform="translate(488.907 -38.8)" style="stroke-linecap:round;stroke-linejoin:round;fill:none;stroke:#2d3239;stroke-width:1.5px"/>
    </g>
    <g data-name="패스 12555" style="fill:none">
        <path d="M3.241 8.584S7 5.433 7 3.5a3.5 3.5 0 0 0-7 0c0 1.933 3.241 5.084 3.241 5.084z" style="stroke:none" transform="rotate(45 6.284 25.413)"/>
        <path d="M3.322 6.471c.218-.214.453-.455.688-.713C5.23 4.423 5.5 3.675 5.5 3.5c0-1.103-.897-2-2-2s-2 .897-2 2c0 .07.036.728 1.28 2.315.183.234.368.455.542.656M3.24 8.584S0 5.433 0 3.5a3.5 3.5 0 0 1 7 0c0 1.933-3.76 5.084-3.76 5.084z" style="fill:#2d3239;stroke:none" transform="rotate(45 6.284 25.413)"/>
    </g>
    <g data-name="패스 12556" style="fill:none">
        <path d="M3.24 0S7 3.151 7 5.084a3.5 3.5 0 0 1-7 0C0 3.151 3.24 0 3.24 0z" style="stroke:none" transform="rotate(135 7.502 8.42)"/>
        <path d="M3.322 2.113c-.174.2-.359.422-.542.656C1.536 4.356 1.5 5.014 1.5 5.084c0 1.103.897 2 2 2s2-.897 2-2c0-.006-.02-.642-1.47-2.236-.24-.265-.484-.514-.708-.735M3.24 0S7 3.15 7 5.084a3.5 3.5 0 1 1-7 0C0 3.15 3.24 0 3.24 0z" style="fill:#2d3239;stroke:none" transform="rotate(135 7.502 8.42)"/>
    </g>
</svg>
