<svg xmlns="http://www.w3.org/2000/svg" width="36" height="36" viewBox="0 0 36 36">
    <g data-name="사각형 13783" transform="translate(6 4.001)" style="stroke:#2d3239;stroke-width:1.5px;fill:#fff">
        <rect width="21" height="28" rx="5" style="stroke:none"/>
        <rect x=".75" y=".75" width="19.5" height="26.5" rx="4.25" style="fill:none"/>
    </g>
    <g data-name="사각형 13784" transform="translate(13.75 10.001)" style="fill:none;stroke:#2d3239;stroke-width:1.5px">
        <rect width="5.5" height="5.5" rx="2" style="stroke:none"/>
        <rect x=".75" y=".75" width="4" height="4" rx="1.25" style="fill:none"/>
    </g>
    <g data-name="그룹 15072" transform="translate(-5092 22366)">
        <path data-name="사각형 18473" d="M3 0a3 3 0 0 1 3 3v12H0V3a3 3 0 0 1 3-3z" transform="translate(5115 -22349)" style="fill:none"/>
        <path data-name="사각형 18472" d="M3 0a3 3 0 0 1 3 3v7H0V3a3 3 0 0 1 3-3z" transform="translate(5108 -22344)" style="fill:#fff"/>
        <path data-name="사각형 17160" d="M2.5 0A2.5 2.5 0 0 1 5 2.5V10H0V2.5A2.5 2.5 0 0 1 2.5 0z" transform="translate(5110 -22344)" style="fill:#7dedf3"/>
        <g data-name="사각형 17156" style="fill:none;stroke:#2d3239;stroke-width:1.5px">
            <path d="M3 0a3 3 0 0 1 3 3v7H0V3a3 3 0 0 1 3-3z" style="stroke:none" transform="translate(5108 -22344)"/>
            <path d="M3 .75A2.25 2.25 0 0 1 5.25 3v6.25H.75V3A2.25 2.25 0 0 1 3 .75z" style="fill:none" transform="translate(5108 -22344)"/>
        </g>
        <path data-name="사각형 17158" d="M3 0a3 3 0 0 1 3 3v12H0V3a3 3 0 0 1 3-3z" transform="translate(5115 -22349)" style="fill:#fff"/>
        <path data-name="사각형 17159" d="M2.5 0A2.5 2.5 0 0 1 5 2.5V14H0V2.5A2.5 2.5 0 0 1 2.5 0z" transform="translate(5117 -22348)" style="fill:#7dedf3"/>
        <g data-name="사각형 17157" style="fill:none;stroke:#2d3239;stroke-width:1.5px">
            <path d="M3 0a3 3 0 0 1 3 3v12H0V3a3 3 0 0 1 3-3z" style="stroke:none" transform="translate(5115 -22349)"/>
            <path d="M3 .75A2.25 2.25 0 0 1 5.25 3v11.25H.75V3A2.25 2.25 0 0 1 3 .75z" style="fill:none" transform="translate(5115 -22349)"/>
        </g>
        <rect data-name="사각형 17161" width="16" height="1.5" rx=".75" transform="translate(5107 -22335.5)" style="fill:#2d3239"/>
    </g>
</svg>
