<svg xmlns="http://www.w3.org/2000/svg" width="36" height="36" viewBox="0 0 36 36">
    <path data-name="사각형 7870" style="fill:none" d="M0 0h36v36H0z"/>
    <path data-name="빼기 325" d="M10245.691-4494.419a2.835 2.835 0 0 1-1.875-.7 59.352 59.352 0 0 1-1.662-1.653l-.121-.124c-.436-.443-.93-.945-1.484-1.5a2.191 2.191 0 0 1-.183-3.1 5.488 5.488 0 0 0 1.464-3.736 5.507 5.507 0 0 0-5.5-5.5 5.506 5.506 0 0 0-5.5 5.5 5.487 5.487 0 0 0 1.4 3.662 2.209 2.209 0 0 1-.144 3.157c-.6.6-1.13 1.136-1.595 1.61l-.026.026-.026.027c-.652.663-1.167 1.187-1.618 1.61a2.839 2.839 0 0 1-1.876.7 2.286 2.286 0 0 1-1.69-.7 1.026 1.026 0 0 0-.112-.105 14.969 14.969 0 0 1-3.809-9.986 14.909 14.909 0 0 1 4.393-10.607 14.9 14.9 0 0 1 10.605-4.394 14.9 14.9 0 0 1 10.607 4.394 14.905 14.905 0 0 1 4.394 10.607 14.976 14.976 0 0 1-3.8 9.982 1.235 1.235 0 0 0-.146.13 2.281 2.281 0 0 1-1.696.7z" transform="translate(-10218.33 4525.232)" style="fill:#fff"/>
    <path data-name="빼기 72" d="M10240.272-4509.754a5.989 5.989 0 0 0-3.94-1.479 5.892 5.892 0 0 0-.739.046l-2.6-9.7a16.114 16.114 0 0 1 3.338-.349 15.907 15.907 0 0 1 9.124 2.855l-5.182 8.623z" transform="rotate(19 -8393.242 -32773.23)" style="fill:#7dedf3"/>
    <g data-name="빼기 71" style="stroke-linecap:round;stroke-linejoin:round;fill:none">
        <path d="M10245.691-4494.419a2.835 2.835 0 0 1-1.875-.7 59.352 59.352 0 0 1-1.662-1.653l-.121-.124c-.436-.443-.93-.945-1.484-1.5a2.191 2.191 0 0 1-.183-3.1 5.488 5.488 0 0 0 1.464-3.736 5.507 5.507 0 0 0-5.5-5.5 5.506 5.506 0 0 0-5.5 5.5 5.487 5.487 0 0 0 1.4 3.662 2.209 2.209 0 0 1-.144 3.157c-.6.6-1.13 1.136-1.595 1.61l-.026.026-.026.027c-.652.663-1.167 1.187-1.618 1.61a2.839 2.839 0 0 1-1.876.7 2.286 2.286 0 0 1-1.69-.7 1.026 1.026 0 0 0-.112-.105 14.969 14.969 0 0 1-3.809-9.986 14.909 14.909 0 0 1 4.393-10.607 14.9 14.9 0 0 1 10.605-4.394 14.9 14.9 0 0 1 10.607 4.394 14.905 14.905 0 0 1 4.394 10.607 14.976 14.976 0 0 1-3.8 9.982 1.235 1.235 0 0 0-.146.13 2.281 2.281 0 0 1-1.696.7z" style="stroke:none" transform="translate(-10218.33 4525.232)"/>
        <path d="M10245.691-4495.92c.34 0 .506-.133.602-.234l.012-.012c.058-.06.117-.116.175-.167a13.477 13.477 0 0 0 3.35-8.899c0-3.606-1.404-6.997-3.954-9.547a13.413 13.413 0 0 0-9.547-3.954 13.41 13.41 0 0 0-9.545 3.954 13.42 13.42 0 0 0-3.953 9.547 13.47 13.47 0 0 0 3.366 8.919c.053.047.102.095.148.146.097.1.265.227.597.227.352 0 .695-.149.851-.294.419-.393.91-.892 1.532-1.525l.068-.068.01-.01.02-.02c.44-.45.986-1.006 1.602-1.62.318-.315.305-.496.3-.555-.012-.16-.105-.37-.266-.596a6.983 6.983 0 0 1-1.729-4.604c0-3.86 3.14-7 7-7s7 3.14 7 7c0 1.732-.636 3.39-1.792 4.677-.142.208-.224.401-.231.55-.003.058-.014.237.3.549.582.58 1.11 1.116 1.497 1.51l.12.123c.653.664 1.17 1.19 1.618 1.61.156.145.498.294.85.294m0 1.5c-.696 0-1.415-.269-1.876-.7a58.748 58.748 0 0 1-1.662-1.653l-.12-.124c-.436-.443-.93-.945-1.485-1.497-1.168-1.163-.744-2.33-.183-3.103a5.488 5.488 0 0 0 1.464-3.736 5.507 5.507 0 0 0-5.5-5.5 5.506 5.506 0 0 0-5.5 5.5c0 1.353.496 2.653 1.398 3.662.588.788 1.043 1.976-.144 3.157-.603.599-1.13 1.136-1.595 1.61l-.052.053c-.653.664-1.167 1.188-1.619 1.61-.462.432-1.18.7-1.876.7-.466 0-1.138-.122-1.69-.7a1.026 1.026 0 0 0-.112-.106 14.969 14.969 0 0 1-3.809-9.986 14.91 14.91 0 0 1 4.393-10.607 14.899 14.899 0 0 1 10.605-4.394c4.007 0 7.775 1.56 10.608 4.394a14.905 14.905 0 0 1 4.393 10.607c0 3.688-1.351 7.232-3.805 9.982a1.235 1.235 0 0 0-.145.13c-.55.579-1.222.7-1.689.7z" style="fill:#2d3239;stroke:none" transform="translate(-10218.33 4525.232)"/>
    </g>
    <g data-name="사각형 8000" style="stroke:#2d3239;fill:none">
        <path style="stroke:none" d="M0 0h1.5v9H0z" transform="rotate(-45 15.635 -2.915)"/>
        <path style="fill:none" d="M.5.5H1v8H.5z" transform="rotate(-45 15.635 -2.915)"/>
    </g>
    <g data-name="사각형 8001" style="stroke:#2d3239;fill:none">
        <path style="stroke:none" d="M0 0h1.5v9H0z" transform="translate(17.25 4.999)"/>
        <path style="fill:none" d="M.5.5H1v8H.5z" transform="translate(17.25 4.999)"/>
    </g>
    <g data-name="사각형 8002" style="stroke:#2d3239;fill:none">
        <path style="stroke:none" d="M0 0h1.5v8.895H0z" transform="rotate(45 2.988 38.679)"/>
        <path style="fill:none" d="M.5.5H1v7.895H.5z" transform="rotate(45 2.988 38.679)"/>
    </g>
    <g data-name="사각형 8003" style="stroke:#2d3239;fill:none">
        <path style="stroke:none" d="M0 0h7.5v1.5H0z" transform="translate(24.501 20)"/>
        <path style="fill:none" d="M.5.5H7V1H.5z" transform="translate(24.501 20)"/>
    </g>
    <g data-name="사각형 8004" style="stroke:#2d3239;fill:none">
        <path style="stroke:none" d="M0 0h8v1.5H0z" transform="translate(3.501 20)"/>
        <path style="fill:none" d="M.5.5h7V1h-7z" transform="translate(3.501 20)"/>
    </g>
    <g data-name="타원 921" transform="translate(15 17)" style="stroke-width:1.5px;stroke:#2d3239;fill:none">
        <circle cx="3" cy="3" r="3" style="stroke:none"/>
        <circle cx="3" cy="3" r="2.25" style="fill:none"/>
    </g>
    <g data-name="사각형 8005" transform="rotate(22 -12.155 61.067)" style="stroke:#2d3239;fill:none">
        <rect width="1.5" height="9.862" rx=".75" style="stroke:none"/>
        <rect x=".5" y=".5" width=".5" height="8.862" rx=".25" style="fill:none"/>
    </g>
</svg>
