<svg xmlns="http://www.w3.org/2000/svg" width="36" height="36" viewBox="0 0 36 36">
  <g id="usage-icon-20" transform="translate(-275.739 -305.063)">
    <rect id="사각형_14565" data-name="사각형 14565" width="36" height="36" transform="translate(275.739 305.063)" fill="#e5e5e5" opacity="0"/>
    <g id="그룹_10610" data-name="그룹 10610" transform="translate(-14 -69.444)">
      <path id="패스_11125" data-name="패스 11125" d="M-5739.064-208.783l6.76,2.285s1.279,1.575,5.955-.344,10.088-3.1,9.646-3.986-.787-2.559-4.183-1.722-4.282,1.083-4.282,1.083a3.465,3.465,0,0,0-1.624-2.018c-1.427-.935-12.7-3.74-12.7-3.74Z" transform="translate(6039.009 613.437)" fill="#fff"/>
      <g id="패스_11122" data-name="패스 11122" transform="translate(293 392)" fill="#fff">
        <path d="M 4.340490818023682 13.2064208984375 L 2.604260683059692 13.2064208984375 C 1.582467079162598 13.2064208984375 0.7510483264923096 12.37574863433838 0.7499323487281799 11.35421085357666 C 0.7510582804679871 11.19071197509766 0.7898139357566833 5.462010383605957 0.7498506307601929 2.660260915756226 C 0.7445206642150879 2.286500930786133 0.791870653629303 1.786480903625488 1.047690629959106 1.526980876922607 C 1.225500702857971 1.346620917320251 1.536870718002319 1.255170941352844 1.973150610923767 1.255170941352844 C 2.635720729827881 1.255170941352844 3.438960552215576 1.462790846824646 4.139830589294434 1.657400846481323 C 5.887330532073975 2.142610788345337 6.194830894470215 2.650760889053345 6.194830894470215 3.539070844650269 L 6.194830894470215 11.35209083557129 C 6.194830894470215 12.37457084655762 5.362980842590332 13.2064208984375 4.340490818023682 13.2064208984375 Z" stroke="none"/>
        <path d="M 1.973150730133057 2.005170822143555 C 1.726150512695312 2.005170822143555 1.614054679870605 2.043731689453125 1.581210613250732 2.057912826538086 C 1.560858249664307 2.097694396972656 1.494204521179199 2.258696556091309 1.499780654907227 2.649570465087891 C 1.539610862731934 5.442152976989746 1.501505374908447 11.12652778625488 1.499937057495117 11.3558349609375 C 1.501987457275391 11.9630298614502 1.996594429016113 12.4564208984375 2.604260444641113 12.4564208984375 L 4.340490341186523 12.4564208984375 C 4.949430465698242 12.4564208984375 5.444830894470215 11.96102046966553 5.444830894470215 11.35209083557129 L 5.444830894470215 3.539071083068848 C 5.444830894470215 3.120720863342285 5.345190525054932 3.02462100982666 5.285660743713379 2.967201232910156 C 5.14400053024292 2.830571174621582 4.795400619506836 2.617800712585449 3.939180612564087 2.380061149597168 C 3.285940647125244 2.198680877685547 2.541410446166992 2.005170822143555 1.973150730133057 2.005170822143555 M 1.973147392272949 0.5051670074462891 C 2.733870029449463 0.5051670074462891 3.597709655761719 0.7284955978393555 4.340490341186523 0.9347410202026367 C 6.165310859680176 1.441420555114746 6.944830894470215 2.100740432739258 6.944830894470215 3.539071083068848 L 6.944830894470215 11.35209083557129 C 6.944830894470215 12.79042053222656 5.778830528259277 13.9564208984375 4.340490341186523 13.9564208984375 L 2.604260444641113 13.9564208984375 C 1.16593074798584 13.9564208984375 -6.914138793945312e-05 12.79042053222656 -6.914138793945312e-05 11.35209083557129 C -6.914138793945312e-05 11.35209083557129 0.04062080383300781 5.523870468139648 -6.914138793945312e-05 2.670960426330566 C -0.02420282363891602 0.9793148040771484 0.8649716377258301 0.5051670074462891 1.973147392272949 0.5051670074462891 Z" stroke="none" fill="#2d3239"/>
      </g>
      <path id="패스_11123" data-name="패스 11123" d="M-5739.933-208.507l7.283,2.608a8.028,8.028,0,0,0,6.5,0c3.3-1.575,7.9-3.223,8.858-3.691s1.141-2.09-.717-2.3a12.443,12.443,0,0,0-4.008.382l-4.134,1.23a5.778,5.778,0,0,1-3.888,0c-2.214-.738-4.38-1.23-4.38-1.23" transform="translate(6039.068 612.739)" fill="#fff" stroke="#2d3239" stroke-width="1.5"/>
      <path id="패스_11124" data-name="패스 11124" d="M-5739.947-217.089l4.979.815s9.173,1.456,9.648,4.725" transform="translate(6039.07 613.419)" fill="#fff" stroke="#2d3239" stroke-width="1.5"/>
    </g>
    <g id="그룹_9780" data-name="그룹 9780" transform="translate(291.426 308.828)">
      <circle id="타원_1994" data-name="타원 1994" cx="8.5" cy="8.5" r="8.5" transform="translate(-3.687 -1.828)" fill="#fff"/>
      <path id="패스_10995" data-name="패스 10995" d="M7.5,0A7.5,7.5,0,1,1,0,7.5,7.5,7.5,0,0,1,7.5,0Z" transform="translate(-0.687 0.172)" fill="#7dedf3"/>
      <g id="타원_1441" data-name="타원 1441" transform="translate(-3.687 -1.828)" fill="none" stroke="#2d3239" stroke-width="1.5">
        <circle cx="8.5" cy="8.5" r="8.5" stroke="none"/>
        <circle cx="8.5" cy="8.5" r="7.75" fill="none"/>
      </g>
      <g id="그룹_9779" data-name="그룹 9779" transform="translate(0.313 4.672)">
        <path id="패스_2252" data-name="패스 2252" d="M3649.636,5413.028l1.75,5,1.75-5,1.75,5,1.75-5" transform="translate(-3648.636 -5413.028)" fill="none" stroke="#2d3239" stroke-linecap="round" stroke-linejoin="round" stroke-width="1.5"/>
        <line id="선_11" data-name="선 11" x2="1.5" transform="translate(0 2)" fill="none" stroke="#2d3239" stroke-linecap="round" stroke-width="1.5"/>
        <line id="선_166" data-name="선 166" x2="1.5" transform="translate(7.5 2)" fill="none" stroke="#2d3239" stroke-linecap="round" stroke-width="1.5"/>
      </g>
    </g>
  </g>
</svg>
