<svg xmlns="http://www.w3.org/2000/svg" width="36" height="36" viewBox="0 0 36 36">
    <path data-name="패스 12318" d="M0 0h36v36H0z" style="fill:none"/>
    <g data-name="패스 12319" style="fill:#fff">
        <path d="M22 24.25H5A4.255 4.255 0 0 1 .75 20V5A4.255 4.255 0 0 1 5 .75h17A4.255 4.255 0 0 1 26.25 5v15A4.255 4.255 0 0 1 22 24.25z" style="stroke:none" transform="translate(4.5 5.5)"/>
        <path d="M5 1.5C3.07 1.5 1.5 3.07 1.5 5v15c0 1.93 1.57 3.5 3.5 3.5h17c1.93 0 3.5-1.57 3.5-3.5V5c0-1.93-1.57-3.5-3.5-3.5H5M5 0h17a5 5 0 0 1 5 5v15a5 5 0 0 1-5 5H5a5 5 0 0 1-5-5V5a5 5 0 0 1 5-5z" style="fill:#2d3239;stroke:none" transform="translate(4.5 5.5)"/>
    </g>
    <path data-name="패스 12320" d="M0 0h6v6.5a2 2 0 0 1-2 2H2a2 2 0 0 1-2-2z" transform="translate(17 7)" style="fill:#7dedf3"/>
    <g data-name="패스 12321" style="fill:none">
        <path d="M0 0h8v7a3 3 0 0 1-3 3H3a3 3 0 0 1-3-3z" style="stroke:none" transform="translate(14 5.5)"/>
        <path d="M1.5 1.5V7c0 .827.673 1.5 1.5 1.5h2c.827 0 1.5-.673 1.5-1.5V1.5h-5M0 0h8v7a3 3 0 0 1-3 3H3a3 3 0 0 1-3-3V0z" style="fill:#2d3239;stroke:none" transform="translate(14 5.5)"/>
    </g>
    <g data-name="패스 12322" style="fill:#fff">
        <path d="M.75 0h7.5a.75.75 0 0 1 0 1.5H.75a.75.75 0 0 1 0-1.5z" style="stroke:none" transform="translate(18 21)"/>
        <path d="M.75 0h7.5a.75.75 0 0 1 0 1.5H.75a.75.75 0 0 1 0-1.5z" style="fill:#2d3239;stroke:none" transform="translate(18 21)"/>
    </g>
    <g data-name="패스 12323" style="fill:#fff">
        <path d="M.75 0h5.5a.75.75 0 0 1 0 1.5H.75a.75.75 0 0 1 0-1.5z" style="stroke:none" transform="translate(18.5 24)"/>
        <path d="M.75 0h5.5a.75.75 0 0 1 0 1.5H.75a.75.75 0 0 1 0-1.5z" style="fill:#2d3239;stroke:none" transform="translate(18.5 24)"/>
    </g>
</svg>
