<svg xmlns="http://www.w3.org/2000/svg" width="36" height="36" viewBox="0 0 36 36">
    <g data-name="그룹 13206">
        <path data-name="패스 12513" d="M18.889 4.175c.759-.337 3.076-1.725 4.4-2.27S26.645.5 27.858 1.2s.966 2.262-1.034 3.553-16.231 8.4-17.668 9.053a12.5 12.5 0 0 1-6.288 1.071c-2.614-.252-.054-1.937 0-2.271S.1 9.411.085 9.319s-.421-.084.675-.759 1.688-.277 2.868.134a29.4 29.4 0 0 0 3.287 1.215c.927.168 1.917-.339 3.141-1.054s2.845-1.561 2.255-2.4S7.549 1.7 7.13 1.2 5.918.031 7.775 0a6.262 6.262 0 0 1 3.1.463c.521.261 6.662 3.71 6.662 3.71a1.568 1.568 0 0 0 1.352.002z" transform="translate(2.598 4)" style="stroke:#2d3239;stroke-width:1.5px;fill:#fff"/>
        <g data-name="그룹 13182" transform="translate(-31.83 -770.768)">
            <circle data-name="타원 1896" cx="8" cy="8" r="8" transform="translate(48.33 786.768)" style="fill:#fff"/>
            <path data-name="패스 10995" d="M7 0a7 7 0 1 1-7 7 7 7 0 0 1 7-7z" transform="translate(51.33 788.268)" style="fill:#7dedf3"/>
            <g data-name="타원 1441" transform="translate(48.33 786.768)" style="fill:none;stroke:#2d3239;stroke-width:1.5px">
                <circle cx="8" cy="8" r="8" style="stroke:none"/>
                <circle cx="8" cy="8" r="7.25" style="fill:none"/>
            </g>
            <g data-name="그룹 10611">
                <path data-name="패스 2252" d="m3649.637 5413.028 1.622 4.635 1.623-4.635 1.622 4.635 1.623-4.635" transform="translate(-3596.551 -4620.396)" style="stroke-linejoin:round;stroke-linecap:round;fill:none;stroke:#2d3239;stroke-width:1.5px"/>
                <path data-name="선 11" transform="translate(52.158 794.486)" style="stroke-linecap:round;fill:none;stroke:#2d3239;stroke-width:1.5px" d="M0 0h1.391"/>
                <path data-name="선 166" transform="translate(59.111 794.486)" style="stroke-linecap:round;fill:none;stroke:#2d3239;stroke-width:1.5px" d="M0 0h1.391"/>
            </g>
        </g>
    </g>
</svg>
