<svg xmlns="http://www.w3.org/2000/svg" width="36" height="36" viewBox="0 0 36 36">
    <path data-name="사각형 7870" style="fill:none" d="M0 0h36v36H0z"/>
    <g data-name="사각형 12097" transform="translate(7 10.5)" style="stroke:#2d3239;stroke-width:1.5px;fill:#fff">
        <rect width="22" height="21" rx="4" style="stroke:none"/>
        <rect x=".75" y=".75" width="20.5" height="19.5" rx="3.25" style="fill:none"/>
    </g>
    <g data-name="사각형 14392" style="stroke:#2d3239;stroke-width:1.5px;fill:none">
        <path d="M5.5 0A5.5 5.5 0 0 1 11 5.5V9H0V5.5A5.5 5.5 0 0 1 5.5 0z" style="stroke:none" transform="translate(12.5 3)"/>
        <path d="M5.5.75a4.75 4.75 0 0 1 4.75 4.75v2.75H.75V5.5A4.75 4.75 0 0 1 5.5.75z" style="fill:none" transform="translate(12.5 3)"/>
    </g>
    <g data-name="그룹 12253">
        <path data-name="패스 12225" d="M0 2.2C.328 1.264 6.228-1 7.158-1s6.708 2.551 7.154 3.2-.422 5.6-1.683 8S8.258 15 7.158 15s-4.246-2.583-5.471-4.8S-.32 3.136 0 2.2z" transform="translate(19.07 20)" style="fill:#fff"/>
        <path data-name="패스 12149" d="M0 2c.29-.877 5.58-3 6.415-3s6.014 2.392 6.414 3-.379 5.252-1.509 7.5S7.132 14 6.411 14 2.6 11.578 1.506 9.5-.295 2.877 0 2z" transform="translate(22.07 20.5)" style="fill:#7dedf3"/>
        <path data-name="패스 12150" d="m-10170 5361.4 2.063 2.1 3.437-3.5" transform="translate(10193.75 -5335)" style="stroke-linecap:round;stroke-linejoin:round;stroke:#2d3239;stroke-width:1.5px;fill:none"/>
        <g data-name="패스 12151" style="fill:none">
            <path d="M0 2.2C.328 1.264 6.228-1 7.158-1s6.708 2.551 7.154 3.2-.422 5.6-1.683 8S8.258 15 7.158 15s-4.246-2.583-5.471-4.8S-.32 3.136 0 2.2z" style="stroke:none" transform="translate(19.07 20)"/>
            <path d="M7.146.51c-.368.074-1.477.41-2.997 1.033-1.541.633-2.364 1.093-2.72 1.331.001.46.078 1.417.35 2.77C2.1 7.24 2.557 8.671 3 9.474c.44.797 1.284 1.79 2.257 2.655.92.816 1.616 1.225 1.91 1.346.295-.112.983-.497 1.873-1.272.985-.859 1.809-1.843 2.26-2.701.454-.862.923-2.302 1.256-3.852.272-1.268.362-2.158.373-2.621-.467-.278-1.404-.763-2.71-1.34C8.642.99 7.527.598 7.146.51M7.158-1c.93 0 6.709 2.551 7.154 3.2.445.649-.422 5.602-1.683 8-1.261 2.398-4.371 4.8-5.47 4.8-1.1 0-4.247-2.583-5.471-4.8C.463 7.983-.32 3.136.004 2.2.328 1.264 6.228-1 7.158-1z" style="fill:#2d3239;stroke:none" transform="translate(19.07 20)"/>
        </g>
    </g>
</svg>
