<svg xmlns="http://www.w3.org/2000/svg" xmlns:xlink="http://www.w3.org/1999/xlink" width="36" height="36" viewBox="0 0 36 36">
  <defs>
    <clipPath id="clip">
      <use xlink:href="#fill"/>
    </clipPath>
  </defs>
  <g id="usage-icon-4" transform="translate(-275 -218)">
    <g id="그룹_13223" data-name="그룹 13223" transform="translate(77 2)">
      <rect id="사각형_16584" data-name="사각형 16584" width="36" height="36" transform="translate(198 216)" fill="#e5e5e5" opacity="0"/>
      <g id="그룹_13222" data-name="그룹 13222" transform="translate(200.5 222.501)">
        <path id="빼기_328" data-name="빼기 328" d="M27,22H3a3,3,0,0,1-3-3V14.464A3.514,3.514,0,0,0,3,11,3.515,3.515,0,0,0,0,7.535V3A3,3,0,0,1,3,0H27a3,3,0,0,1,3,3V19A3,3,0,0,1,27,22Z" transform="translate(1 0)" fill="#fff"/>
        <path id="빼기_83" data-name="빼기 83" d="M10,22H3a3,3,0,0,1-3-3V15.5A4.747,4.747,0,0,0,4.95,11,4.747,4.747,0,0,0,0,6.5V3A3,3,0,0,1,3,0h7V22Z" transform="translate(0 1)" fill="#7dedf3"/>
        <g id="빼기_48" data-name="빼기 48" transform="translate(1 0)" fill="none">
          <path d="M27,22H3a3,3,0,0,1-3-3V14.464A3.514,3.514,0,0,0,3,11,3.515,3.515,0,0,0,0,7.535V3A3,3,0,0,1,3,0H27a3,3,0,0,1,3,3V19A3,3,0,0,1,27,22Z" stroke="none"/>
          <path d="M 27.00000190734863 20.5004997253418 C 27.82694053649902 20.5004997253418 28.49970054626465 19.82732963562012 28.49970054626465 18.99989891052246 L 28.49970054626465 2.999699831008911 C 28.49970054626465 2.172759771347046 27.82694053649902 1.49999988079071 27.00000190734863 1.49999988079071 L 2.999701261520386 1.49999988079071 C 2.172761201858521 1.49999988079071 1.500001192092896 2.172759771347046 1.500001192092896 2.999699831008911 L 1.500001192092896 6.418117523193359 C 3.275676488876343 7.199474334716797 4.499701023101807 8.985383033752441 4.499701023101807 10.99979972839355 C 4.499701023101807 13.01436328887939 3.275718927383423 14.80028247833252 1.500001192092896 15.58155727386475 L 1.500001192092896 18.99989891052246 C 1.500001192092896 19.82732963562012 2.172761201858521 20.5004997253418 2.999701261520386 20.5004997253418 L 27.00000190734863 20.5004997253418 M 27.00000190734863 22.0004997253418 L 2.999701261520386 22.0004997253418 C 1.345661282539368 22.0004997253418 1.226806602971919e-06 20.65443992614746 1.226806602971919e-06 18.99989891052246 L 1.226806602971919e-06 14.46444988250732 C 1.710481286048889 14.21988010406494 2.999701261520386 12.73083019256592 2.999701261520386 10.99979972839355 C 2.999701261520386 9.269269943237305 1.710111260414124 7.779799938201904 1.226806602971919e-06 7.535160064697266 L 1.226806602971919e-06 2.999699831008911 C 1.226806602971919e-06 1.345659852027893 1.345661282539368 -1.373290956507844e-07 2.999701261520386 -1.373290956507844e-07 L 27.00000190734863 -1.373290956507844e-07 C 28.6540412902832 -1.373290956507844e-07 29.99970054626465 1.345659852027893 29.99970054626465 2.999699831008911 L 29.99970054626465 18.99989891052246 C 29.99970054626465 20.65443992614746 28.6540412902832 22.0004997253418 27.00000190734863 22.0004997253418 Z" stroke="none" fill="#2d3239"/>
        </g>
        <path id="패스_2245" data-name="패스 2245" d="M4714.756,4512.812v15.466" transform="translate(-4704.756 -4509.812)" fill="none" stroke="#2d3239" stroke-linecap="round" stroke-width="1.5" stroke-dasharray="2.5 4"/>
        <g id="그룹_5874" data-name="그룹 5874" transform="translate(15.5 6.023)">
          <g id="사각형_5603" data-name="사각형 5603" transform="translate(8.849 0.453) rotate(45)" fill="#fff" stroke="#2d3239" stroke-linecap="round" stroke-width="1.5">
            <rect id="fill" width="1.358" height="11.765" rx="0.679" stroke="none"/>
            <path d="M0,0.75h1.3575106859207153M0.75,0v11.765091896057129M1.3575106859207153,11.015091896057129h-1.3575106859207153M0.6075106859207153,11.765091896057129v-11.765091896057129" fill="none" clip-path="url(#clip)"/>
          </g>
          <g id="타원_115" data-name="타원 115" fill="none" stroke="#2d3239" stroke-width="1.5">
            <circle cx="2.25" cy="2.25" r="2.25" stroke="none"/>
            <circle cx="2.25" cy="2.25" r="1.5" fill="none"/>
          </g>
          <g id="타원_116" data-name="타원 116" transform="translate(6.335 5.43)" fill="none" stroke="#2d3239" stroke-width="1.5">
            <circle cx="2.25" cy="2.25" r="2.25" stroke="none"/>
            <circle cx="2.25" cy="2.25" r="1.5" fill="none"/>
          </g>
        </g>
      </g>
    </g>
  </g>
</svg>
