<svg data-name="ic_document won_size36" xmlns="http://www.w3.org/2000/svg" width="36" height="36" viewBox="0 0 36 36">
    <path data-name="사각형 16461" style="fill:none" d="M0 0h36v36H0z"/>
    <g data-name="그룹 13205" transform="translate(-21.5 -439)">
        <g data-name="사각형 16462" style="stroke:#2d3239;stroke-width:1.5px;fill:#fff">
            <path d="M5 0h9a8 8 0 0 1 8 8v18a2 2 0 0 1-2 2H5a5 5 0 0 1-5-5V5a5 5 0 0 1 5-5z" style="stroke:none" transform="translate(24 443)"/>
            <path d="M5 .75h9A7.25 7.25 0 0 1 21.25 8v18A1.25 1.25 0 0 1 20 27.25H5A4.25 4.25 0 0 1 .75 23V5A4.25 4.25 0 0 1 5 .75z" style="fill:none" transform="translate(24 443)"/>
        </g>
        <g data-name="교차 29" style="fill:none">
            <path d="M4.52 7.21a4 4 0 0 1-4-4v-4a8 8 0 0 1 8 8z" style="stroke:none" transform="translate(37.48 443.791)"/>
            <path d="M6.845 5.71A6.522 6.522 0 0 0 2.019.884V3.21c0 1.38 1.122 2.5 2.5 2.5h2.326m1.674 1.5h-4a4 4 0 0 1-4-4l.001-4a8 8 0 0 1 8 8z" style="fill:#2d3239;stroke:none" transform="translate(37.48 443.791)"/>
        </g>
        <rect data-name="사각형 16463" width="6" height="1.5" rx=".75" transform="translate(29 460.5)" style="fill:#2d3239"/>
        <rect data-name="사각형 16464" width="8" height="1.5" rx=".75" transform="translate(29 464)" style="fill:#2d3239"/>
        <g data-name="그룹 13145">
            <path data-name="패스 2252" d="m3649.636 5413.028 1.75 5 1.75-5 1.75 5 1.75-5" transform="translate(-3618.136 -4961.026)" style="stroke-linejoin:round;stroke-linecap:round;stroke:#2d3239;stroke-width:1.5px;fill:none"/>
            <path data-name="선 11" transform="translate(30.5 454.001)" style="stroke-linecap:round;stroke:#2d3239;stroke-width:1.5px;fill:none" d="M0 0h1.5"/>
            <path data-name="선 166" transform="translate(38 454.001)" style="stroke-linecap:round;stroke:#2d3239;stroke-width:1.5px;fill:none" d="M0 0h1.5"/>
        </g>
        <g data-name="그룹 13144" transform="translate(-10.33 -331.768)">
            <circle data-name="타원 1896" cx="8" cy="8" r="8" transform="translate(48.33 786.768)" style="fill:#fff"/>
            <path data-name="패스 10995" d="M7 0a7 7 0 1 1-7 7 7 7 0 0 1 7-7z" transform="translate(51.33 788.268)" style="fill:#7dedf3"/>
            <g data-name="타원 1441" transform="translate(48.33 786.768)" style="stroke:#2d3239;stroke-width:1.5px;fill:none">
                <circle cx="8" cy="8" r="8" style="stroke:none"/>
                <circle cx="8" cy="8" r="7.25" style="fill:none"/>
            </g>
            <path data-name="패스 12471" d="m52.728 794.768 2.677 2.645 4.844-4.716" style="stroke-linejoin:round;stroke-linecap:round;stroke:#2d3239;stroke-width:1.5px;fill:none"/>
        </g>
    </g>
</svg>
