<svg xmlns="http://www.w3.org/2000/svg" width="312" height="190" viewBox="0 0 312 190">
    <defs>
        <linearGradient id="pp2aedmaka" x1=".5" x2=".5" y2="1" gradientUnits="objectBoundingBox">
            <stop offset="0" stop-color="#6a4bcb"/>
            <stop offset="1" stop-color="#8665ef"/>
        </linearGradient>
    </defs>
    <path data-name="사각형 14160" style="fill:#f1f3f5;opacity:.5" d="M0 0h312v190H0z"/>
    <g data-name="그룹 12809" transform="translate(-120 -597)">
        <text transform="translate(307 627)" style="font-family:SpoqaHanSansNeo-Light,Spoqa Han Sans Neo;font-weight:300;font-size:12px;fill:#111;letter-spacing:-.025em"><tspan x="0" y="0">이자</tspan></text>
        <circle data-name="타원 1309" cx="2.5" cy="2.5" r="2.5" transform="rotate(90 -159.5 460.5)" style="fill:url(#pp2aedmaka)"/>
        <text transform="translate(244 627)" style="font-family:SpoqaHanSansNeo-Light,Spoqa Han Sans Neo;font-weight:300;font-size:12px;fill:#111;letter-spacing:-.025em"><tspan x="0" y="0">원금</tspan></text>
        <circle data-name="타원 1309" cx="2.5" cy="2.5" r="2.5" transform="rotate(90 -191 429)" style="fill:#c9d2db"/>
    </g>
    <g data-name="그룹 12810">
        <path data-name="사각형 15783" transform="translate(231 59)" style="fill:#c9d2db" d="M0 0h24v100H0z"/>
        <path data-name="사각형 14206" transform="translate(231 49)" style="fill:url(#pp2aedmaka)" d="M0 0h24v15H0z"/>
    </g>
    <g data-name="그룹 12811">
        <path data-name="사각형 15783" transform="translate(187 69)" style="fill:#c9d2db" d="M0 0h24v90H0z"/>
        <path data-name="사각형 14206" transform="translate(187 49)" style="fill:url(#pp2aedmaka)" d="M0 0h24v30H0z"/>
    </g>
    <g data-name="그룹 12812">
        <path data-name="사각형 15783" transform="translate(143 89)" style="fill:#c9d2db" d="M0 0h24v70H0z"/>
        <path data-name="사각형 14206" transform="translate(143 49)" style="fill:url(#pp2aedmaka)" d="M0 0h24v40H0z"/>
    </g>
    <path data-name="사각형 15783" transform="translate(99 49)" style="fill:url(#pp2aedmaka)" d="M0 0h24v60H0z"/>
    <path data-name="사각형 15786" transform="translate(55 49)" style="fill:url(#pp2aedmaka)" d="M0 0h24v80H0z"/>
    <text data-name="1개월" transform="translate(67 174)" style="font-size:10px;font-family:SpoqaHanSansNeo-Light,Spoqa Han Sans Neo;font-weight:300;fill:#111;letter-spacing:-.025em"><tspan x="-11.895" y="0">1개월</tspan></text>
    <text data-name="2개월" transform="translate(111 174)" style="font-size:10px;font-family:SpoqaHanSansNeo-Light,Spoqa Han Sans Neo;font-weight:300;fill:#111;letter-spacing:-.025em"><tspan x="-11.895" y="0">2개월</tspan></text>
    <text data-name="…" transform="translate(176 176)" style="font-size:14px;font-family:SpoqaHanSansNeo-Medium,Spoqa Han Sans Neo;font-weight:500;fill:#111;letter-spacing:-.025em"><tspan x="-7" y="0">…</tspan></text>
    <text transform="translate(243 174)" style="font-size:10px;font-family:SpoqaHanSansNeo-Light,Spoqa Han Sans Neo;font-weight:300;fill:#111;letter-spacing:-.025em"><tspan x="-13.55" y="0">만기일</tspan></text>
    <path data-name="사각형 15787" transform="translate(99 109)" style="fill:#c9d2db" d="M0 0h24v50H0z"/>
    <path data-name="사각형 15788" transform="translate(55 129)" style="fill:#c9d2db" d="M0 0h24v30H0z"/>
</svg>
