<svg xmlns="http://www.w3.org/2000/svg" width="36" height="36" viewBox="0 0 36 36">
    <defs>
        <clipPath id="clip-path">
            <path id="패스_10948" data-name="패스 10948" d="M57.665 53.095 56.316 42.22h-2.2L51.6 48.948l-.106.283-2.63-7.011h-2.2l-1.348 10.875h2.456l.619-6.17 1.961 5.345h2.278l1.961-5.345.619 6.17z" transform="translate(-45.316 -42.22)" style="fill:none"/>
        </clipPath>
        <style>
            .cls-2{fill:#fff}.cls-3{fill:#52b9a9}.cls-5{fill:#00827d}.cls-8{fill:#2d9e8d}.cls-9{fill:#32b09d}
        </style>
    </defs>
    <g id="img_1Q_logo" transform="translate(-31 -458)">
        <rect id="사각형_13986" data-name="사각형 13986" class="cls-2" width="36" height="36" rx="12" transform="translate(31 458)"/>
        <g id="img_hanamoney" transform="translate(37.54 464.622)">
            <path id="패스_10933" data-name="패스 10933" class="cls-2" d="M40.681 24.327a10.433 10.433 0 1 1-10.432-10.433 10.432 10.432 0 0 1 10.432 10.433z" transform="translate(-18.564 -12.713)"/>
            <g id="그룹_8104" data-name="그룹 8104">
                <path id="패스_10934" data-name="패스 10934" class="cls-3" d="M46.579 8.278a10.555 10.555 0 0 1 10.555 10.555c0 .1 0 .194-.007.292a10.552 10.552 0 0 0-18.336-8.707 10.5 10.5 0 0 1 5.856-1.961 10.569 10.569 0 0 1 1.932-.179z" transform="translate(-34.369 -6.829)"/>
                <path id="패스_10935" data-name="패스 10935" d="M97.34 80.427a10.55 10.55 0 0 1-4.276 6.847 10.55 10.55 0 0 1-5.994 3.411 10.553 10.553 0 0 0 10.27-10.258z" transform="translate(-74.582 -68.131)" style="fill:#badfcd"/>
                <path id="패스_10936" data-name="패스 10936" class="cls-3" d="M13.979 36.727a10.538 10.538 0 0 1 .146-1.74 10.506 10.506 0 0 1 2.622-6.675 10.554 10.554 0 0 0 6.133 19.143 10.732 10.732 0 0 0 1.933-.178c-.093 0-.185.006-.278.006a10.556 10.556 0 0 1-10.556-10.556z" transform="translate(-12.324 -24.723)"/>
                <path id="패스_10937" data-name="패스 10937" class="cls-5" d="M31.578 16.577a10.5 10.5 0 0 0-5.856 1.961 10.506 10.506 0 0 0-2.622 6.674 10.56 10.56 0 0 1 8.478-8.635z" transform="translate(-21.3 -14.948)"/>
                <path id="패스_10938" data-name="패스 10938" class="cls-5" d="M39.056 77.142a10.553 10.553 0 0 1-16.689-8.587c0-.1.005-.195.008-.292a10.55 10.55 0 0 0 10.41 12.3c.093 0 .185 0 .278-.006a10.55 10.55 0 0 0 5.993-3.415z" transform="translate(-20.574 -57.999)"/>
                <path id="패스_10939" data-name="패스 10939" d="M75.774 15.5a10.569 10.569 0 0 0-1.932.18c.092 0 .184-.008.277-.008a10.554 10.554 0 0 1 7.927 17.523 10.55 10.55 0 0 0 4.276-6.847c0-.1.007-.193.007-.292A10.555 10.555 0 0 0 75.774 15.5z" transform="translate(-63.564 -14.051)" style="fill:#e30053"/>
            </g>
            <path id="패스_10940" data-name="패스 10940" d="M55.527 49.715H53.8l-.674-5.437h-2.2l-2.037 5.437H47.71l-2.037-5.437h-2.2l-.673 5.437h-1.728l.367 1.03h1.233l-.547 4.408h2.455l.443-4.408h.823l1.315 3.583h2.277l1.314-3.583h.824l.442 4.408h2.456l-.547-4.408h1.223zm-10.4 0 .073-.732.269.732zm3.173 1.574-.2-.544h.4zm2.831-1.574.268-.732.074.732z" transform="translate(-36.269 -38.019)" style="fill:#babcbf"/>
            <path id="패스_10941" data-name="패스 10941" class="cls-8" d="M99.088 53.095h2.455l-1.349-10.875H98z" transform="translate(-83.683 -36.306)"/>
            <path id="패스_10942" data-name="패스 10942" class="cls-8" d="M59.357 52.27h-2.278l-3.686-10.05h2.2z" transform="translate(-46.531 -36.306)"/>
            <path id="패스_10943" data-name="패스 10943" class="cls-5" d="m61.449 42.22-1.023 3.2 1.069 2.913z" transform="translate(-52.39 -36.306)"/>
            <path id="패스_10944" data-name="패스 10944" class="cls-9" d="M47.772 53.095h-2.456l1.35-10.875h2.2z" transform="translate(-39.805 -36.306)"/>
            <path id="패스_10945" data-name="패스 10945" class="cls-5" d="m102.187 42.22-1.587 6.117-.215-2.135z" transform="translate(-85.676 -36.306)"/>
            <path id="패스_10946" data-name="패스 10946" class="cls-9" d="M75.457 52.27h2.278l3.686-10.05h-2.2z" transform="translate(-64.909 -36.306)"/>
            <g id="그룹_8106" data-name="그룹 8106" transform="translate(5.512 5.913)">
                <g id="그룹_8105" data-name="그룹 8105" style="clip-path:url(#clip-path)">
                    <path id="패스_10947" data-name="패스 10947" class="cls-5" d="M53.13 78.75h-4.112l-.566-.294H46.2l-.112.3h-2.323l-.1-.294h-4.03l-.652-1.147 4.26-.018.221.343 5.551-.024.237-.345 2.939-.013z" transform="translate(-40.041 -71.399)"/>
                </g>
            </g>
            <path id="패스_10949" data-name="패스 10949" class="cls-9" d="M53.09 75.8H39.38l-.367-1.029h14.455z" transform="translate(-34.555 -63.416)"/>
        </g>
    </g>
</svg>
