<svg xmlns="http://www.w3.org/2000/svg" width="100" height="35" viewBox="0 0 100 35">
    <defs>
        <clipPath id="clip-path">
            <path id="사각형_16215" data-name="사각형 16215" class="cls-1" d="M0 0h59.999v24.999H0z"/>
        </clipPath>
        <style>
            .cls-1{fill:none}.cls-5{fill:#070303}
        </style>
    </defs>
    <g id="kakaopay_logo" transform="translate(-211 -679)">
        <path id="사각형_16216" data-name="사각형 16216" class="cls-1" transform="translate(211 679)" d="M0 0h100v35H0z"/>
        <g id="그룹_12902" data-name="그룹 12902" transform="translate(231 684)">
            <g id="그룹_12901" data-name="그룹 12901" transform="translate(0 .001)" style="clip-path:url(#clip-path)">
                <path id="패스_12307" data-name="패스 12307" d="M47.5 25h-35a12.5 12.5 0 1 1 0-25h35a12.5 12.5 0 0 1 0 25" style="fill-rule:evenodd;fill:#ffec00"/>
                <path id="패스_12308" data-name="패스 12308" d="M30.029 19.294c-3.767 0-6.822 2.412-6.822 5.389a5.253 5.253 0 0 0 3.165 4.549l-.643 2.4a.2.2 0 0 0 .049.2.189.189 0 0 0 .258.012l2.764-1.862a8.688 8.688 0 0 0 1.228.09c3.767 0 6.822-2.412 6.822-5.389s-3.055-5.389-6.822-5.389" transform="translate(-15.99 -13.294)" style="fill:#070303;fill-rule:evenodd"/>
                <path id="패스_12309" data-name="패스 12309" class="cls-5" d="M80.075 29.692v3.479H77.6V20.339h1.748l.305.815a3.519 3.519 0 0 1 2.614-1.086c2.427 0 3.581 1.816 3.564 4.753 0 3.072-1.782 5.041-4.328 5.041a5.428 5.428 0 0 1-1.426-.17m0-7.282v5.55a7.134 7.134 0 0 0 .8.051c1.765 0 2.445-1.239 2.445-3.191 0-1.714-.458-2.75-1.867-2.75a3.223 3.223 0 0 0-1.375.339" transform="translate(-53.467 -13.828)"/>
                <path id="패스_12310" data-name="패스 12310" class="cls-5" d="M112.848 23.954h1.409v-.306c0-1.018-.577-1.494-1.578-1.494a6.207 6.207 0 0 0-2.546.611l-.679-1.663a6.486 6.486 0 0 1 3.446-1.036c2.376 0 3.666 1.256 3.666 3.649v5.89h-1.748l-.255-.781a4.685 4.685 0 0 1-2.75 1.035 2.623 2.623 0 0 1-2.835-2.919c0-1.952 1.358-2.987 3.87-2.987m1.409 3.276v-1.7h-1.137c-1.273 0-1.918.458-1.918 1.375 0 .7.357 1.036 1.087 1.036a3.415 3.415 0 0 0 1.969-.713" transform="translate(-75.089 -13.827)"/>
                <path id="패스_12311" data-name="패스 12311" class="cls-5" d="M143.811 28.468c-.866 2.308-1.9 3.989-3.412 4.922l-1.528-1.409a8.57 8.57 0 0 0 2.054-2.512l-3.293-8.979 2.461-.662 2.1 7.282 2.088-7.316 2.427.679z" transform="translate(-94.833 -13.64)"/>
            </g>
        </g>
    </g>
</svg>
