<svg xmlns="http://www.w3.org/2000/svg" width="30" height="30" viewBox="0 0 30 30">
    <path data-name="사각형 14233" style="fill:none" d="M0 0h30v30H0z"/>
    <g data-name="그룹 14282">
        <path data-name="패스 13789" d="M251.272 349.288v-4.473c0-1.191.333-2.224 1.206-2.541l3.726-1.327a3.344 3.344 0 0 0 .253-1.356 4.562 4.562 0 0 0-3-4.467l-10.2-3.191 2.662-.953a1.522 1.522 0 0 1 .478-.078 1.754 1.754 0 0 1 .5.077l10.412 3.254c1.812.6 2.488 2.77 2.488 3.941a2.4 2.4 0 0 1-1.335 2.415c-.9.327-3.595 1.293-3.595 1.293a3.955 3.955 0 0 0-.254 1.633c0 .548-.009 3.5-.009 4.03 0 1.268-.611 2.419-1.783 2.419a2.309 2.309 0 0 1-1.542-.675" transform="translate(-234.899 -325.9)" style="fill:#ed6900"/>
        <path data-name="패스 13790" d="M232.662 348.959a5.122 5.122 0 0 1 .807 2.707v3.752c0 2.322 1.074 4.215 2.842 4.755l-2.73.942a1.645 1.645 0 0 1-1.407-.214 4.546 4.546 0 0 1-2.028-4.2c0-.954-.007-2.258-.007-3.937a5.084 5.084 0 0 0-1.037-2.9 3.565 3.565 0 0 0-1.716-1.262 4.3 4.3 0 0 1-2.428-3.935c0-1.473.749-2.4 1.745-2.472a1.511 1.511 0 0 1 .57.077c.591.18 1.069.344 1.069.344-.33 1.7.663 4.316 2.667 5.024a3.081 3.081 0 0 1 1.653 1.322" transform="translate(-218.959 -335.735)" style="fill:#dc0025"/>
    </g>
</svg>
