<svg xmlns="http://www.w3.org/2000/svg" width="32" height="32" viewBox="0 0 32 32">
    <g transform="translate(-39 -464)">
        <g data-name="그룹 11653">
            <path data-name="사각형 8725" transform="translate(47.505 471.001)" style="fill:none" d="M0 0h15v21H0z"/>
            <g data-name="그룹 6361">
                <path data-name="패스 5183" d="M1.864-12.958v1.772h.4a.966.966 0 0 0 .656-.23.9.9 0 0 0 .266-.717.825.825 0 0 0-.224-.584.884.884 0 0 0-.678-.24zm0 2.272v1.74h-.708v-4.544h1.22a1.626 1.626 0 0 1 1.129.363 1.287 1.287 0 0 1 .4 1.006 1.356 1.356 0 0 1-.425 1.035 1.712 1.712 0 0 1-1.217.4zM6.355-9.35a1.106 1.106 0 0 1-.513.383 1.737 1.737 0 0 1-.539.091.979.979 0 0 1-.367-.071.928.928 0 0 1-.315-.208 1.011 1.011 0 0 1-.221-.328 1.06 1.06 0 0 1-.084-.432 1.212 1.212 0 0 1 .305-.828 1.376 1.376 0 0 1 .889-.425l.824-.1a.721.721 0 0 0-.221-.535.715.715 0 0 0-.48-.172 1.139 1.139 0 0 0-.539.13 2.521 2.521 0 0 0-.435.286l-.123-.552a2.163 2.163 0 0 1 .529-.276 1.876 1.876 0 0 1 .633-.1 1.694 1.694 0 0 1 .454.065 1.18 1.18 0 0 1 .422.214 1.065 1.065 0 0 1 .308.386 1.333 1.333 0 0 1 .12.594v1.447a2.766 2.766 0 0 0 .036.428 1.439 1.439 0 0 0 .12.4H6.5a.556.556 0 0 1-.091-.162.617.617 0 0 1-.054-.235zm-.025-1.408-.545.071a1.053 1.053 0 0 0-.581.247.649.649 0 0 0-.2.493.542.542 0 0 0 .146.4.462.462 0 0 0 .341.149.78.78 0 0 0 .309-.072.753.753 0 0 0 .289-.23 1.234 1.234 0 0 0 .195-.419 1.933 1.933 0 0 0 .046-.639zm2.258 1.765L7.31-12.42h.714l.948 2.648 1.012-2.648h.61l-1.5 3.778a1.5 1.5 0 0 1-.587.743 1.674 1.674 0 0 1-.918.25h-.273v-.526h.162q.123 0 .276-.01a.871.871 0 0 0 .308-.081.979.979 0 0 0 .289-.243 1.378 1.378 0 0 0 .237-.484z" transform="translate(49.385 499.573)" style="fill:#00b2a6"/>
                <g data-name="그룹 6359">
                    <g data-name="그룹 6345">
                        <g data-name="그룹 6344">
                            <g data-name="그룹 6343">
                                <path data-name="패스 5172" d="m253.4 363.386-3.373-4.392a.874.874 0 0 0-.713-.326.983.983 0 0 0-.831 1.525l1.413 1.781-2.921.617v-8.477l4.279.882v5.036L253 362.3v-7.7a1.314 1.314 0 0 0-.887-1.253l-6.048-1.616a1.913 1.913 0 0 0-.405-.044 1.051 1.051 0 0 0-1.172 1.074v10.979a1.131 1.131 0 0 0 1.211 1.151 1.814 1.814 0 0 0 .363-.038l5.108-1.275.841 1.06a.832.832 0 0 0 .646.245.938.938 0 0 0 .705-.262.993.993 0 0 0 .038-1.235z" transform="translate(-190.94 118.956)" style="fill:#00b2a6"/>
                                <path data-name="패스 5173" d="M219.96 365.121c-.474 0-1.641-.556-1.641-1.395v-7.869l-.761.7a.97.97 0 0 1-.632.215 1.129 1.129 0 0 1-.906-.442 1.323 1.323 0 0 1 .252-1.665l2.447-2.168a1.873 1.873 0 0 1 1.2-.511.759.759 0 0 1 .85.782v11.65a.722.722 0 0 1-.809.703z" transform="translate(-168.241 118.714)" style="fill:#ef4567"/>
                            </g>
                        </g>
                    </g>
                </g>
            </g>
        </g>
    </g>
</svg>
