<svg xmlns="http://www.w3.org/2000/svg" width="30" height="30" viewBox="0 0 30 30">
    <path data-name="사각형 14233" style="fill:none" d="M0 0h30v30H0z"/>
    <g data-name="그룹 12008">
        <path data-name="패스 12075" d="m837.826 281.208-2.867-2.026-2.365-1.668a4.614 4.614 0 0 0-3.542-.387l-9.3 2.1a3.049 3.049 0 0 0-2.271 2.841v9.084a3.049 3.049 0 0 0 2.271 2.842l9.295 2.1a5.963 5.963 0 0 0 4.173-.829l4.6-3.252a2.8 2.8 0 0 0 1.427-2.753v-5.3a2.764 2.764 0 0 0-1.427-2.753" style="fill:#d6006e" transform="translate(-813.484 -271.949)"/>
        <path data-name="패스 12076" d="M841.095 283.63v.3l-2.4-1.231a1.869 1.869 0 0 0-.983-.154l-2.712.435a.709.709 0 0 0-.574.676v7.6c0 1.558-1.066 1.938-2.241 1.825l-1.673-.16a1.914 1.914 0 0 1-1.757-2.169v-6.172a.48.48 0 0 0-.574-.49l-1.493.24a.707.707 0 0 0-.576.674v6.03c0 2.535 1.618 3.927 4.516 4.363l2.1.322c3.073.46 5.5-1 5.5-4.5v-5.159l2.87.736v3.018a.521.521 0 0 0 .579.53l1.036-.079a.648.648 0 0 0 .58-.634v-2.273l1.509.387a.257.257 0 0 0 .338-.262v-1.139a.629.629 0 0 0-.31-.509l-1.536-.786v-.392a3.04 3.04 0 0 0-1.16-2.6c-.034-.03-.008-.063.029-.042l-2.365-1.668c.753.532 1.306 1.522 1.306 3.287" transform="translate(-820.683 -274.78)" style="fill:#fff"/>
    </g>
</svg>
