<svg xmlns="http://www.w3.org/2000/svg" width="175.177" height="170.649" viewBox="0 0 175.177 170.649">
    <defs>
        <linearGradient id="4azs8vrjqd" x1="1.022" y1=".662" x2=".763" y2=".702" gradientUnits="objectBoundingBox">
            <stop offset="0" stop-color="#bcbcbc"/>
            <stop offset="1" stop-color="#9b9999"/>
        </linearGradient>
        <linearGradient id="c6s9wahg9e" x1=".492" y1="1.023" x2=".47" y2=".708" gradientUnits="objectBoundingBox">
            <stop offset="0" stop-color="#c4c4c4"/>
            <stop offset="1" stop-color="#afafaf"/>
        </linearGradient>
        <linearGradient id="ngt19ihxef" x1=".462" y1="2.19" x2=".529" y2=".31" gradientUnits="objectBoundingBox">
            <stop offset="0" stop-color="#404056"/>
            <stop offset="1" stop-color="#626275"/>
        </linearGradient>
        <linearGradient id="8aak0zdxgh" x1=".444" y1=".056" x2=".448" y2="1" gradientUnits="objectBoundingBox">
            <stop offset="0" stop-color="#dfdfec"/>
            <stop offset=".515" stop-color="#fff"/>
            <stop offset="1" stop-color="#f4f4fb"/>
        </linearGradient>
        <linearGradient id="dwbhhsb5dj" x1=".907" y1="1.834" x2=".431" y2=".291" gradientUnits="objectBoundingBox">
            <stop offset="0" stop-color="#fff"/>
            <stop offset="1" stop-color="#a0a0bb"/>
        </linearGradient>
        <clipPath id="lgxupl7tzg">
            <path data-name="패스 13321" d="M5.752 0v.037C5.63.027 5.508 0 5.379 0A5.348 5.348 0 0 0 .031 5.348v4.245H0v23.27h25.675V12.93h10.607V5.348A5.333 5.333 0 0 0 31.35.045V0z" style="fill:none"/>
        </clipPath>
        <clipPath id="jc2upnivti">
            <path data-name="패스 13323" d="M5.347 0A5.347 5.347 0 0 0 0 5.348v7.583h10.7V5.347A5.347 5.347 0 0 0 5.348 0z" style="fill:none"/>
        </clipPath>
        <clipPath id="arhgj0r9lk">
            <path data-name="사각형 17868" style="fill:none" d="M0 0h36.353v32.864H0z"/>
        </clipPath>
        <filter id="4het58605a" x="8.735" y="40.702" width="129.601" height="92.095" filterUnits="userSpaceOnUse">
            <feOffset dy="3"/>
            <feGaussianBlur stdDeviation="3" result="blur"/>
            <feFlood flood-opacity=".161"/>
            <feComposite operator="in" in2="blur"/>
            <feComposite in="SourceGraphic"/>
        </filter>
        <filter id="nu3nehz6kb" x="0" y="17.522" width="144.976" height="118.455" filterUnits="userSpaceOnUse">
            <feOffset dy="3"/>
            <feGaussianBlur stdDeviation="3" result="blur-2"/>
            <feFlood flood-opacity=".161"/>
            <feComposite operator="in" in2="blur-2"/>
            <feComposite in="SourceGraphic"/>
        </filter>
        <filter id="rzjcfn7utc" x="80.651" y="79.12" width="94.526" height="91.529" filterUnits="userSpaceOnUse">
            <feOffset/>
            <feGaussianBlur stdDeviation="3" result="blur-3"/>
            <feFlood flood-opacity=".161"/>
            <feComposite operator="in" in2="blur-3"/>
            <feComposite in="SourceGraphic"/>
        </filter>
    </defs>
    <g data-name="타원 2327" transform="translate(.39 57.74)" style="stroke-dasharray:3;stroke-width:2px;stroke-linecap:round;stroke:#51c9c9;fill:none">
        <circle cx="44.446" cy="44.446" style="stroke:none" r="44.446"/>
        <circle cx="44.446" cy="44.446" style="fill:none" r="43.446"/>
    </g>
    <g data-name="타원 2323" transform="translate(98.514 10.344)" style="stroke-dasharray:3;stroke-width:2px;stroke-linecap:round;stroke:#51c9c9;fill:none">
        <circle cx="26.342" cy="26.342" style="stroke:none" r="26.342"/>
        <circle cx="26.342" cy="26.342" style="fill:none" r="25.342"/>
    </g>
    <g data-name="그룹 14342">
        <g data-name="그룹 14369">
            <g style="filter:url(#4het58605a)">
                <rect data-name="사각형 17874" width="111.601" height="74.095" rx="8" transform="translate(17.738 46.7)" style="fill:#fff"/>
            </g>
            <g data-name="그룹 14365">
                <path data-name="패스 13053" d="M16.606 13.927 6.092 16.4a3.689 3.689 0 0 1-4.433-2.747L.1 7a3.684 3.684 0 0 1 2.743-4.431L13.357.1a3.686 3.686 0 0 1 4.433 2.747l1.564 6.649a3.688 3.688 0 0 1-2.747 4.433" transform="rotate(13.04 -275.49 458.946)" style="fill:#ffdc9f"/>
                <path data-name="선 955" transform="rotate(13.04 -283.755 507.58)" style="stroke:#fbcf82;fill:none" d="m0 0 3.179 13.84"/>
                <path data-name="선 956" transform="rotate(13.04 -286.965 479.5)" style="stroke:#fbcf82;fill:none" d="m0 0 2.173 9.309"/>
                <path data-name="패스 13293" d="M0 1.409 6.1 0" transform="rotate(13.04 -325.867 459.616)" style="stroke:#fbcf82;fill:none"/>
                <path data-name="패스 13296" d="M0 1.409 6.1 0" transform="rotate(13.04 -303.794 457.089)" style="stroke:#fbcf82;fill:none"/>
                <path data-name="패스 13294" d="M0 1.409 6.1 0" transform="rotate(13.04 -297.83 509.244)" style="stroke:#fbcf82;fill:none"/>
                <path data-name="패스 13295" d="M0 1.409 6.1 0" transform="rotate(13.04 -319.902 511.767)" style="stroke:#fbcf82;fill:none"/>
            </g>
            <path d="M23.239 5.123V.006h.261v5.117zM22.728.006h.256v5.117h-.256zm-.512 0h.256v5.117h-.256zM19.53 5.123h-1.109V1.115h-1.876V.006h4.861v1.109H19.53zm-2.644 0h-4.349V.006h1.109v4.009h3.241zm-7.846.214c-1.413 0-2.558-.764-2.558-1.706V.006H7.59v3.625c0 .424.649.767 1.45.767s1.45-.344 1.45-.767V.006h1.11v3.625c0 .942-1.147 1.706-2.56 1.706zM4.435 1.631l-.947 1.108.008.01-.707.838-.013-.015-.019.022-.7-.842.007-.009-.955-1.106v3.486H0V.006h1.279v.025L1.3.007l1.474 1.838L4.222.017V.006h.008L4.235 0l.007.006h1.3v5.117H4.435z" transform="translate(94.756 66.422)" style="fill-rule:evenodd;fill:#fff"/>
        </g>
        <g data-name="그룹 14368">
            <g style="filter:url(#nu3nehz6kb)">
                <rect data-name="사각형 17874" width="111.601" height="74.095" rx="8" transform="matrix(.974 -.261 .261 .974 9.036 52.633)" style="fill:#272730"/>
            </g>
            <g data-name="그룹 14365">
                <path data-name="패스 13053" d="M16.606 13.927 6.092 16.4a3.689 3.689 0 0 1-4.433-2.747L.1 7a3.684 3.684 0 0 1 2.743-4.431L13.357.1a3.686 3.686 0 0 1 4.433 2.747l1.564 6.649a3.688 3.688 0 0 1-2.747 4.433" transform="rotate(-2.35 1731.79 -2587.222)" style="fill:#ffdc9f"/>
                <path data-name="선 955" transform="rotate(-2.35 1746.013 -2906.824)" style="stroke:#fbcf82;fill:none" d="m0 0 3.179 13.84"/>
                <path data-name="선 956" transform="rotate(-2.35 1789.169 -2728.689)" style="stroke:#fbcf82;fill:none" d="m0 0 2.173 9.309"/>
                <path data-name="패스 13293" d="M0 1.409 6.1 0" transform="rotate(-2.35 2055.447 -2631.899)" style="stroke:#fbcf82;fill:none"/>
                <path data-name="패스 13296" d="M0 1.409 6.1 0" transform="rotate(-2.35 1915.429 -2597.974)" style="stroke:#fbcf82;fill:none"/>
                <path data-name="패스 13294" d="M0 1.409 6.1 0" transform="rotate(-2.35 1835.262 -2928.805)" style="stroke:#fbcf82;fill:none"/>
                <path data-name="패스 13295" d="M0 1.409 6.1 0" transform="rotate(-2.35 1975.28 -2962.73)" style="stroke:#fbcf82;fill:none"/>
            </g>
            <path data-name="logo" d="M23.239 5.123V.006h.261v5.117zM22.728.006h.256v5.117h-.256zm-.512 0h.256v5.117h-.256zM19.53 5.123h-1.109V1.115h-1.876V.006h4.861v1.109H19.53zm-2.644 0h-4.349V.006h1.109v4.009h3.241zm-7.846.214c-1.413 0-2.558-.764-2.558-1.706V.006H7.59v3.625c0 .424.649.767 1.45.767s1.45-.344 1.45-.767V.006h1.11v3.625c0 .942-1.147 1.706-2.56 1.706zM4.435 1.631l-.947 1.108.008.01-.707.838-.013-.015-.019.022-.7-.842.007-.009-.955-1.106v3.486H0V.006h1.279v.025L1.3.007l1.474 1.838L4.221.017V.006h.009L4.235 0l.007.006h1.3v5.117H4.435z" transform="rotate(-14.98 239.603 -310.21)" style="fill-rule:evenodd;fill:#fff"/>
        </g>
    </g>
    <g data-name="그룹 14370" transform="translate(124.855)">
        <circle data-name="타원 2324" cx="14.593" cy="14.593" transform="translate(.001)" style="fill:#8665ef" r="14.593"/>
        <path data-name="패스 13298" d="m-17196.057 2771.227 4.42 4.422 7.986-7.981" transform="translate(17204.256 -2756.875)" style="stroke:#fff;stroke-linejoin:round;stroke-width:2.5px;stroke-linecap:round;fill:none"/>
    </g>
    <g data-name="그룹 14353">
        <g data-name="그룹 14345">
            <g style="filter:url(#rzjcfn7utc)">
                <path data-name="패스 13318" d="M68.977 37.909 65.4 5.042C65.732 2.161 63.23-.015 59.29 0L24.642.14c-4.432.018-8.988 2.8-10.181 6.215L.287 46.926a4.985 4.985 0 0 0-.273 1.339L0 48.306l.016 1.307L1.341 60.8a4 4 0 0 0 .171 1.449c.537 1.72 2.256 2.964 4.715 3.271a9.7 9.7 0 0 0 1.249.081l34.572-.056h.4c.139 0 .278-.006.417-.01h.035q.226-.007.452-.018l.315-.017h.148l.474-.033.2-.018.14-.012.144-.012c.174-.017.348-.034.522-.054l.067-.008.14-.017.358-.044c.079-.01.156-.022.234-.033l.238-.034.156-.021a17.024 17.024 0 0 0 5.079-1.417c1.783-.887 2.646-2.219 3.851-3.707l3.668-4.526 6.701-8.264.669-.825a11.611 11.611 0 0 0 2.521-8.564" transform="rotate(7.04 -670.522 839.695) scale(.994)" style="fill:url(#4azs8vrjqd)"/>
            </g>
            <path data-name="패스 13320" d="M46.5.052 46.362.1c-.283.093-.581.183-.89.268-.054.015-.1.03-.159.044-.334.09-.683.173-1.041.252l-.258.055q-.353.074-.717.14l-.1.018L43 .905c-.108.019-.217.036-.326.053-.156.026-.313.05-.471.074l-.24.034c-.195.026-.391.052-.588.075l-.147.017q-.365.041-.734.074l-.138.012q-.369.031-.74.054h-.092q-.389.023-.776.036h-.028q-.411.012-.818.013H7.322L0 22.587.017 23.9l1.327 11.21a4.037 4.037 0 0 0 .172 1.452c.538 1.723 2.261 2.969 4.724 3.277a9.717 9.717 0 0 0 1.251.081h.025l34.634-.06h.4c.131 0 .279-.005.418-.009h.036l.453-.018c.1 0 .21-.011.315-.017H43.919c.158-.01.316-.021.474-.034l.2-.017.14-.012.144-.013q.262-.024.523-.054l.067-.008.14-.017.358-.043.235-.033.238-.034.156-.022a17.054 17.054 0 0 0 5.1-1.429c.2-.1.379-.2.555-.311L46.638 0c-.048.017-.091.035-.14.052" transform="rotate(7 -881.661 830.184)" style="fill:url(#c6s9wahg9e)"/>
            <path data-name="패스 13306" d="M7.794 0c.691 0 1.1.423.911.955L8 2.963a1.731 1.731 0 0 1-1.582.965L.957 3.95c-.691 0-1.1-.423-.912-.955L.746.987A1.731 1.731 0 0 1 2.329.022z" transform="rotate(7 -908.056 1190.16)" style="fill:#f2cc8c"/>
            <path data-name="패스 13310" d="M7.794 0c.691 0 1.1.427.911.955L8 2.963a1.731 1.731 0 0 1-1.582.965L.957 3.95c-.691 0-1.1-.423-.912-.955L.746.987A1.737 1.737 0 0 1 2.329.022z" transform="rotate(7 -954.38 1170.74)" style="fill:#9c82ec"/>
            <path data-name="패스 13315" d="M59.291 0c4.432-.017 7.053 2.737 5.86 6.15L50.977 46.721c-1.192 3.414-5.747 6.193-10.179 6.211l-34.648.14C1.718 53.09-.905 50.34.288 46.926l14.173-40.57C15.655 2.942 20.211.158 24.642.14zM19.4 9.978l-3.317 9.492c-.368 1.051.445 1.9 1.81 1.9l33.312-.135a3.448 3.448 0 0 0 3.144-1.918l3.316-9.493c.369-1.056-.44-1.9-1.81-1.9l-33.312.136A3.449 3.449 0 0 0 19.4 9.978M45.994 46.5l2.725-7.8c.184-.528-.22-.958-.911-.955l-5.465.022a1.736 1.736 0 0 0-1.582.965l-2.725 7.8c-.185.528.22.958 6.376.933m-30.734-5.652a3.561 3.561 0 0 0 3.244-1.979c.378-1.082-.46-1.96-1.87-1.954l-2.859.012a3.551 3.551 0 0 0-3.236 1.974c-.379 1.086.453 1.964 1.862 1.958l2.859-.011M11.656 47.6a3.555 3.555 0 0 0 3.244-1.973c.38-1.086-.458-1.964-1.868-1.958l-2.859.011a3.553 3.553 0 0 0-3.238 1.979c-.379 1.086.454 1.959 1.864 1.954l2.859-.011m12.11-5.83A3.558 3.558 0 0 0 27 39.793c.378-1.081-.46-1.96-1.864-1.953l-2.865.011a3.559 3.559 0 0 0-3.236 1.974c-.379 1.086.458 1.964 1.862 1.959l2.865-.012m10.138-.041a3.552 3.552 0 0 0 3.238-1.979c.378-1.081-.454-1.959-1.864-1.954l-2.859.012a3.562 3.562 0 0 0-3.242 1.974c-.379 1.086.458 1.964 1.868 1.958l2.859-.011m-12.16 5.83a3.555 3.555 0 0 0 3.236-1.975c.379-1.086-.458-1.964-1.862-1.958l-2.865.011a3.56 3.56 0 0 0-3.238 1.979c-.379 1.086.46 1.959 1.864 1.954l2.865-.011m10.138-.041a3.548 3.548 0 0 0 3.236-1.975c.379-1.086-.453-1.964-1.862-1.958L30.4 43.6a3.562 3.562 0 0 0-3.244 1.979c-.379 1.086.46 1.959 1.87 1.954l2.859-.011M15.7 36.019a3.555 3.555 0 0 0 3.242-1.974c.379-1.086-.46-1.96-1.87-1.954l-2.859.011a3.548 3.548 0 0 0-3.236 1.975c-.379 1.086.454 1.959 1.864 1.953l2.859-.011m2.022-5.789a3.557 3.557 0 0 0 3.242-1.975c.379-1.086-.46-1.959-1.87-1.954l-2.859.012A3.547 3.547 0 0 0 13 28.288c-.379 1.086.454 1.96 1.864 1.954l2.859-.011m18.2 5.707a3.545 3.545 0 0 0 3.236-1.974c.379-1.086-.454-1.96-1.864-1.954l-2.859.011A3.557 3.557 0 0 0 31.2 34c-.379 1.086.46 1.96 1.87 1.954l2.859-.012m-10.138.041A3.552 3.552 0 0 0 29.026 34c.379-1.086-.46-1.959-1.864-1.954l-2.865.011a3.555 3.555 0 0 0-3.236 1.975c-.379 1.086.46 1.959 1.864 1.954l2.865-.012m2.022-5.789a3.553 3.553 0 0 0 3.236-1.975c.379-1.086-.46-1.96-1.864-1.953l-2.865.011a3.553 3.553 0 0 0-3.236 1.974c-.379 1.087.46 1.96 1.864 1.954l2.865-.011m10.138-.041a3.547 3.547 0 0 0 3.236-1.975c.379-1.086-.454-1.96-1.864-1.953l-2.859.011a3.555 3.555 0 0 0-3.242 1.974c-.379 1.086.46 1.96 1.87 1.954l2.859-.011m12.091 4.772.7-2.007c.184-.528-.22-.959-.911-.956l-5.465.022a1.738 1.738 0 0 0-1.582.966l-.7 2.007c-.186.533.22.959.911.956l5.465-.022a1.731 1.731 0 0 0 1.582-.966m2.022-5.789.7-2.008c.186-.532-.22-.958-.911-.955l-5.465.022a1.731 1.731 0 0 0-1.582.965l-.7 2.008c-.186.532.22.958.911.955l5.465-.022a1.731 1.731 0 0 0 1.582-.965" transform="rotate(7 -672.055 843.002)" style="fill:#fff"/>
            <path data-name="패스 13316" d="M39.86 0c1.371-.005 2.179.842 1.809 1.9l-3.315 9.493a3.449 3.449 0 0 1-3.144 1.918l-33.31.132c-1.365.005-2.177-.847-1.81-1.9l3.31-9.49A3.449 3.449 0 0 1 6.548.135z" transform="rotate(7 -744.852 969.823)" style="fill:url(#ngt19ihxef)"/>
            <g data-name="그룹 14373">
                <path data-name="패스 13301" d="M6.186 0C7.6-.005 8.435.868 8.056 1.954a3.554 3.554 0 0 1-3.242 1.974l-2.859.012C.545 3.946-.288 3.072.092 1.986A3.547 3.547 0 0 1 3.328.011z" transform="rotate(7 -893.562 935.41)" style="fill:#ccc"/>
                <path data-name="패스 13302" d="M6.186 0C7.6-.005 8.435.868 8.056 1.954a3.554 3.554 0 0 1-3.242 1.974l-2.859.012C.545 3.946-.288 3.072.092 1.986A3.547 3.547 0 0 1 3.328.011z" transform="rotate(7 -939.885 915.983)" style="fill:#ccc"/>
                <path data-name="패스 13303" d="M6.192 0C7.6-.005 8.435.868 8.056 1.954a3.545 3.545 0 0 1-3.237 1.974l-2.858.012c-1.41.006-2.249-.868-1.87-1.954A3.557 3.557 0 0 1 3.334.011z" transform="rotate(7 -903.01 1100.789)" style="fill:#ccc"/>
                <path data-name="패스 13304" d="M6.192 0C7.6-.005 8.435.868 8.056 1.954a3.552 3.552 0 0 1-3.237 1.974l-2.864.012C.551 3.946-.288 3.072.091 1.986A3.555 3.555 0 0 1 3.328.011z" transform="rotate(7 -944.598 998.43)" style="fill:#ccc"/>
                <path data-name="패스 13305" d="M6.187 0C7.6-.005 8.433.872 8.056 1.954a3.561 3.561 0 0 1-3.243 1.979l-2.859.011C.544 3.95-.288 3.072.092 1.986A3.552 3.552 0 0 1 3.328.011z" transform="rotate(7 -986.207 896.547)" style="fill:#ccc"/>
                <path data-name="패스 13307" d="M6.192 0C7.6-.005 8.435.868 8.056 1.954a3.545 3.545 0 0 1-3.237 1.974l-2.858.012c-1.41.006-2.249-.868-1.87-1.954A3.557 3.557 0 0 1 3.334.011z" transform="rotate(7 -949.333 1081.361)" style="fill:#ccc"/>
                <path data-name="패스 13308" d="M6.192 0C7.6-.005 8.434.872 8.056 1.954a3.559 3.559 0 0 1-3.238 1.979l-2.865.011C.549 3.95-.288 3.072.091 1.986A3.56 3.56 0 0 1 3.328.011z" transform="rotate(7 -990.913 979.004)" style="fill:#ccc"/>
                <path data-name="패스 13309" d="M6.188 0C7.6-.005 8.435.872 8.056 1.958a3.556 3.556 0 0 1-3.242 1.975l-2.859.011C.545 3.95-.288 3.076.092 1.99A3.552 3.552 0 0 1 3.33.011z" transform="rotate(7 -1032.53 877.103)" style="fill:#ccc"/>
                <path data-name="패스 13311" d="M6.192 0C7.6-.005 8.434.872 8.056 1.954a3.553 3.553 0 0 1-3.238 1.979l-2.858.011C.549 3.95-.288 3.072.091 1.986A3.562 3.562 0 0 1 3.334.011z" transform="rotate(7 -995.655 1061.917)" style="fill:#ccc"/>
                <path data-name="패스 13312" d="M6.193 0C7.6-.005 8.435.872 8.056 1.958a3.554 3.554 0 0 1-3.237 1.975l-2.865.011C.551 3.95-.288 3.076.091 1.99A3.56 3.56 0 0 1 3.329.011z" transform="rotate(7 -1037.244 959.567)" style="fill:#ccc"/>
                <path data-name="패스 13313" d="M6.193 0C7.6-.005 8.435.872 8.056 1.958a3.548 3.548 0 0 1-3.237 1.975l-2.859.011C.551 3.95-.288 3.076.091 1.99A3.562 3.562 0 0 1 3.335.011z" transform="rotate(7 -1041.978 1042.49)" style="fill:#ccc"/>
                <path data-name="패스 13317" d="M6.192 0C7.6-.005 8.435.868 8.056 1.954a3.552 3.552 0 0 1-3.237 1.974l-2.864.012C.551 3.946-.288 3.072.091 1.986A3.555 3.555 0 0 1 3.328.011z" transform="rotate(7 -898.268 1017.875)" style="fill:#ccc"/>
            </g>
            <path data-name="패스 13314" d="M9.817 0c.691 0 1.1.427.911.955L8 8.756a1.736 1.736 0 0 1-1.582.965l-5.462.023c-.691 0-1.1-.427-.911-.955L2.77.987A1.737 1.737 0 0 1 4.352.022z" transform="rotate(7 -999.69 1134.755)" style="fill:#59b2af"/>
        </g>
        <g data-name="그룹 14352">
            <g data-name="그룹 14351">
                <g data-name="그룹 14346" transform="rotate(7 -454.486 1071.001)" style="clip-path:url(#lgxupl7tzg)">
                    <path data-name="사각형 17858" style="fill:url(#8aak0zdxgh)" d="M0 0h36.282v32.863H0z"/>
                </g>
                <g data-name="그룹 14348" transform="rotate(7 -467.314 1280.778)" style="clip-path:url(#jc2upnivti)">
                    <path data-name="패스 13322" d="M18.3 15.609 12.912 0 0 6.516l5.39 15.609z" transform="translate(-3.803 -4.598)" style="fill:url(#dwbhhsb5dj)"/>
                </g>
                <g data-name="그룹 14350" transform="rotate(7 -454.478 1071.001)" style="clip-path:url(#arhgj0r9lk)">
                    <path data-name="사각형 17859" transform="translate(4.156 7.154)" style="fill:#b3b3ce" d="M0 0h18.341v1.411H0z"/>
                    <path data-name="사각형 17860" transform="translate(4.156 12.172)" style="fill:#b3b3ce" d="M0 0h18.341v1.411H0z"/>
                    <path data-name="사각형 17861" transform="translate(4.156 27.62)" style="fill:#b3b3ce" d="M0 0h18.341v1.411H0z"/>
                    <path data-name="사각형 17862" transform="translate(4.156 18.259)" style="fill:#b3b3ce" d="M0 0h2.445v6.334H0z"/>
                    <path data-name="사각형 17863" transform="translate(12.715 18.259)" style="fill:#b3b3ce" d="M0 0h4.891v6.334H0z"/>
                    <path data-name="사각형 17864" transform="translate(7.824 18.259)" style="fill:#b3b3ce" d="M0 0h1.223v6.334H0z"/>
                    <path data-name="사각형 17865" transform="translate(18.828 18.259)" style="fill:#b3b3ce" d="M0 0h1.223v6.334H0z"/>
                    <path data-name="사각형 17866" transform="translate(10.269 18.259)" style="fill:#b3b3ce" d="M0 0h1.223v6.334H0z"/>
                    <path data-name="사각형 17867" transform="translate(21.274 18.259)" style="fill:#b3b3ce" d="M0 0h1.223v6.334H0z"/>
                </g>
            </g>
            <path data-name="선 957" transform="rotate(7 -722.138 1037.194)" style="stroke:#ccc;stroke-linecap:round;fill:none" d="M0 0h29.751"/>
            <path data-name="선 958" transform="rotate(7 -1162.438 935.273)" style="stroke:#818181;stroke-linecap:round;fill:none" d="M0 0h18.232"/>
        </g>
    </g>
    <g data-name="그룹 14322">
        <path data-name="선 953" transform="rotate(90 52.582 54.086)" style="stroke-width:2px;stroke:#51c9c9;fill:none" d="M0 0h8.841"/>
        <path data-name="선 954" transform="rotate(90 52.582 58.506)" style="stroke-width:2px;stroke:#51c9c9;fill:none" d="M0 0v8.841"/>
    </g>
    <g data-name="타원 2315" transform="translate(97.016 12.692)" style="fill:#51c9c9;stroke:#51c9c9">
        <circle cx="1.901" cy="1.901" style="stroke:none" r="1.901"/>
        <circle cx="1.901" cy="1.901" style="fill:none" r="1.401"/>
    </g>
    <g data-name="타원 2326" transform="translate(9.563 138.946)" style="fill:#51c9c9;stroke:#51c9c9">
        <circle cx="2.376" cy="2.376" style="stroke:none" r="2.376"/>
        <circle cx="2.376" cy="2.376" style="fill:none" r="1.876"/>
    </g>
    <g data-name="타원 2325" transform="translate(16.214 108.993)" style="stroke:#51c9c9;fill:none">
        <circle cx="8.542" cy="8.542" style="stroke:none" r="8.542"/>
        <circle cx="8.542" cy="8.542" style="fill:none" r="8.042"/>
    </g>
    <g data-name="그룹 14355">
        <path data-name="선 953" transform="rotate(45 -142.858 102.542)" style="stroke-width:2px;stroke:#51c9c9;fill:none" d="M0 0h7.445"/>
        <path data-name="선 954" transform="rotate(45 -140.225 108.898)" style="stroke-width:2px;stroke:#51c9c9;fill:none" d="M0 0v7.445"/>
    </g>
</svg>
