<svg xmlns="http://www.w3.org/2000/svg" width="100" height="35" viewBox="0 0 100 35">
    <defs>
        <clipPath id="clip-path">
            <path id="사각형_16213" data-name="사각형 16213" class="cls-1" d="M0 0h57.782v22.711H0z"/>
        </clipPath>
        <style>
            .cls-1{fill:none}.cls-3{fill:#333}
        </style>
    </defs>
    <g id="naverpay_logo" transform="translate(-49 -679)">
        <path id="사각형_16214" data-name="사각형 16214" class="cls-1" transform="translate(49 679)" d="M0 0h100v35H0z"/>
        <g id="그룹_12900" data-name="그룹 12900" transform="translate(70.096 685)">
            <g id="그룹_12899" data-name="그룹 12899" style="clip-path:url(#clip-path)">
                <path id="패스_12303" data-name="패스 12303" class="cls-3" d="M126 21h4.634a5.848 5.848 0 0 1 1.9.279 3.7 3.7 0 0 1 1.338.774 3.108 3.108 0 0 1 .79 1.179 4.117 4.117 0 0 1 .26 1.476v.378a3.945 3.945 0 0 1-.279 1.485 3.479 3.479 0 0 1-.817 1.215 3.888 3.888 0 0 1-1.338.828 5.171 5.171 0 0 1-1.858.306h-2.85v5.058H126zm1.782 1.548v4.824h2.556q2.808 0 2.808-2.322v-.324a1.967 1.967 0 0 0-.675-1.647 3.073 3.073 0 0 0-1.935-.531z" transform="translate(-96.799 -16.133)"/>
                <path id="패스_12304" data-name="패스 12304" class="cls-3" d="M173.508 43.909a3.548 3.548 0 0 1-2.367-.738 2.52 2.52 0 0 1-.873-2.034v-.486a2.684 2.684 0 0 1 .846-2.052 3.923 3.923 0 0 1 2.736-.792h2.5v-.576a2 2 0 0 0-.477-1.467 2.139 2.139 0 0 0-1.557-.477 3.844 3.844 0 0 0-1.5.27 8.338 8.338 0 0 0-1.323.72l-.864-1.3a8.325 8.325 0 0 1 1.62-.873 5.477 5.477 0 0 1 2.088-.369 5.213 5.213 0 0 1 1.512.207 3.394 3.394 0 0 1 1.179.612 2.847 2.847 0 0 1 .774.99 3.04 3.04 0 0 1 .279 1.323v6.894h-1.674v-1.184h-.018a1.88 1.88 0 0 1-.387.495 2.793 2.793 0 0 1-.531.387 3.679 3.679 0 0 1-.855.333 4.532 4.532 0 0 1-1.107.117m2.844-4.626h-2.466a2.18 2.18 0 0 0-1.467.4 1.4 1.4 0 0 0-.441 1.1v.252a1.148 1.148 0 0 0 .5 1.044 2.182 2.182 0 0 0 1.206.324 3.69 3.69 0 0 0 1.125-.153 2.82 2.82 0 0 0 .873-.459 1.561 1.561 0 0 0 .513-.621 2.3 2.3 0 0 0 .153-.909z" transform="translate(-130.809 -25.92)"/>
                <path id="패스_12305" data-name="패스 12305" class="cls-3" d="m215.072 42.381 2.592-7.866h1.836l-5.112 13.914-1.584-.558 1.278-3.366-3.582-9.99h1.89l2.61 7.866z" transform="translate(-161.718 -26.516)"/>
                <path id="사각형_16212" data-name="사각형 16212" transform="translate(-.096)" style="fill:#00c73c" d="M0 0h23v23H0z"/>
                <path id="패스_12306" data-name="패스 12306" d="m31.983 36.965-3.663-5.381v5.382H24.5v-10.4h3.873l3.664 5.381v-5.378h3.818v10.4z" transform="translate(-18.822 -20.412)" style="fill:#fff"/>
            </g>
        </g>
    </g>
</svg>
