<svg xmlns="http://www.w3.org/2000/svg" width="100" height="35" viewBox="0 0 100 35">
    <defs>
        <clipPath id="clip-path">
            <path id="사각형_16211" data-name="사각형 16211" class="cls-1" d="M0 0h93.358v13.52H0z"/>
        </clipPath>
        <style>
            .cls-1{fill:none}.cls-3{fill:#003e92}
        </style>
    </defs>
    <g id="samsungpay_logo" transform="translate(-49 -679)">
        <g id="그룹_12898" data-name="그룹 12898" transform="translate(52.322 689.74)">
            <g id="그룹_12897" data-name="그룹 12897" style="clip-path:url(#clip-path)">
                <path id="패스_12293" data-name="패스 12293" class="cls-3" d="M356.17.243v.8A4.522 4.522 0 0 0 353.3 0a4.92 4.92 0 0 0-4.743 5.079 4.92 4.92 0 0 0 4.743 5.079 4.522 4.522 0 0 0 2.872-1.038v.87h2.179V.243zm-2.638 8a3.016 3.016 0 0 1-2.848-3.16 2.863 2.863 0 1 1 5.7 0 3.016 3.016 0 0 1-2.848 3.16" transform="translate(-276.374)"/>
                <path id="패스_12294" data-name="패스 12294" class="cls-3" d="M300.226 0a4.526 4.526 0 0 0-2.906 1.067V.243h-2.18V13.52h2.179V9.092a4.526 4.526 0 0 0 2.906 1.067 4.92 4.92 0 0 0 4.743-5.079A4.92 4.92 0 0 0 300.226 0m-.243 8.239a3.02 3.02 0 0 1-2.857-3.16 2.872 2.872 0 1 1 5.714 0 3.02 3.02 0 0 1-2.857 3.16" transform="translate(-234.021)"/>
                <path id="패스_12295" data-name="패스 12295" class="cls-3" d="m410.062 1.172-2.794 6.638-2.99-6.638h-2.162l4.108 9.119-1.75 4.158h2.139L412.2 1.172z" transform="translate(-318.843 -.929)"/>
                <path id="패스_12296" data-name="패스 12296" class="cls-3" d="m209.736 7.662.112 6.423h-.048l-1.881-6.423h-3.037v8.1h2.011l-.113-6.644h.045l2.022 6.644h2.913v-8.1z" transform="translate(-162.455 -6.075)"/>
                <path id="패스_12297" data-name="패스 12297" class="cls-3" d="m36.492 7.662-1.517 8.183h2.212l1.12-7.427h.046l1.091 7.427h2.2l-1.51-8.183z" transform="translate(-27.732 -6.075)"/>
                <path id="패스_12298" data-name="패스 12298" class="cls-3" d="m80.642 7.662-1.01 6.256h-.046l-1.007-6.256h-3.337l-.18 8.183h2.047l.051-7.357h.04l1.368 7.357h2.075l1.366-7.357h.046l.052 7.357h2.047l-.181-8.183z" transform="translate(-59.518 -6.075)"/>
                <path id="패스_12299" data-name="패스 12299" class="cls-3" d="M3.8 12.534a1.073 1.073 0 0 1 .016.608.708.708 0 0 1-.8.545.73.73 0 0 1-.822-.738v-.8H0v.632c0 1.825 1.436 2.374 2.973 2.374 1.484 0 2.7-.5 2.9-1.867a4 4 0 0 0-.009-1.346c-.346-1.713-3.451-2.22-3.683-3.181a1.054 1.054 0 0 1-.009-.427.677.677 0 0 1 .748-.552.7.7 0 0 1 .762.743v.5h2.035v-.563c0-1.783-1.6-2.063-2.76-2.063C1.5 6.4.315 6.883.1 8.216a2.818 2.818 0 0 0 .019 1.1c.353 1.674 3.26 2.16 3.681 3.218" transform="translate(0 -5.074)"/>
                <path id="패스_12300" data-name="패스 12300" class="cls-3" d="M132.41 12.69a1.1 1.1 0 0 1 .016.6c-.065.27-.25.54-.789.54a.721.721 0 0 1-.815-.731v-.787h-2.175v.627c0 1.806 1.423 2.348 2.945 2.348 1.465 0 2.67-.494 2.863-1.847a3.958 3.958 0 0 0-.008-1.334c-.342-1.695-3.417-2.2-3.644-3.149a1.05 1.05 0 0 1-.01-.422.668.668 0 0 1 .74-.545.69.69 0 0 1 .753.732v.5h2.02v-.564c0-1.764-1.585-2.042-2.729-2.042-1.441 0-2.618.473-2.833 1.8a2.74 2.74 0 0 0 .019 1.092c.351 1.656 3.23 2.137 3.648 3.184" transform="translate(-102.005 -5.246)"/>
                <path id="패스_12301" data-name="패스 12301" class="cls-3" d="M168.981 14.614a.733.733 0 0 0 .785-.59 1.63 1.63 0 0 0 .02-.313V7.659h2.073v5.866c0 .148-.014.458-.022.54-.144 1.525-1.352 2.019-2.856 2.019s-2.712-.494-2.853-2.019a6.306 6.306 0 0 1-.019-.54V7.659h2.068v6.052a1.7 1.7 0 0 0 .02.313.732.732 0 0 0 .784.59" transform="translate(-131.709 -6.073)"/>
                <path id="패스_12302" data-name="패스 12302" class="cls-3" d="M251.305 13.678a.761.761 0 0 0 .835-.59 1.436 1.436 0 0 0 .02-.313V11.59h-.837v-1.2h2.9v2.2c0 .154 0 .266-.027.541-.135 1.488-1.428 2.023-2.878 2.023s-2.742-.535-2.878-2.023a6.139 6.139 0 0 1-.029-.541V9.147a5.153 5.153 0 0 1 .035-.537c.18-1.533 1.42-2.022 2.871-2.022s2.721.484 2.873 2.022a5.126 5.126 0 0 1 .015.537v.272h-2.065v-.46a1.643 1.643 0 0 0-.024-.307.746.746 0 0 0-.817-.595.758.758 0 0 0-.816.595 1.9 1.9 0 0 0-.033.383v3.742a1.925 1.925 0 0 0 .019.313.766.766 0 0 0 .836.59" transform="translate(-196.965 -5.222)"/>
            </g>
        </g>
        <path id="사각형_16217" data-name="사각형 16217" class="cls-1" transform="translate(49 679)" d="M0 0h100v35H0z"/>
    </g>
</svg>
