<svg id="symbol_naverpay" xmlns="http://www.w3.org/2000/svg" width="33.052" height="12.996" viewBox="0 0 33.052 12.996">
    <defs>
        <style>
            .cls-1{fill:#fff}
        </style>
    </defs>
    <path id="패스_12363" data-name="패스 12363" class="cls-1" d="M85.327 160.947h2.643a2.7 2.7 0 0 1 1.083.173 2.256 2.256 0 0 1 .779.433 1.459 1.459 0 0 1 .433.694 2.714 2.714 0 0 1 .13.822v.217a1.933 1.933 0 0 1-.173.866 1.813 1.813 0 0 1-.476.693 2.368 2.368 0 0 1-.779.476 2.712 2.712 0 0 1-1.083.173h-1.648v2.9H85.2v-7.451zm1 .909v2.773H87.8c1.083 0 1.6-.433 1.6-1.343v-.173a1.149 1.149 0 0 0-.39-.953 1.662 1.662 0 0 0-1.126-.3z" transform="translate(-68.606 -158.174)"/>
    <path id="패스_12364" data-name="패스 12364" class="cls-1" d="M94.991 169.036a1.858 1.858 0 0 1-1.343-.433 1.367 1.367 0 0 1-.519-1.169v-.26A1.6 1.6 0 0 1 93.6 166a2.168 2.168 0 0 1 1.559-.433h1.43v-.347a1.1 1.1 0 0 0-.26-.823 1.268 1.268 0 0 0-.91-.26 1.829 1.829 0 0 0-.866.173 3.268 3.268 0 0 0-.736.433l-.476-.823a8.365 8.365 0 0 1 .91-.519 3.358 3.358 0 0 1 1.213-.217 2.792 2.792 0 0 1 .866.13 3.46 3.46 0 0 1 .693.346 1.791 1.791 0 0 1 .433.563 2.046 2.046 0 0 1 .173.736v3.942h-.949v-.65a1.329 1.329 0 0 1-.217.3.764.764 0 0 1-.3.216 1.536 1.536 0 0 1-.476.173 3.339 3.339 0 0 1-.696.096zm1.646-2.642h-1.43a1.342 1.342 0 0 0-.823.216.76.76 0 0 0-.26.65v.13a.655.655 0 0 0 .3.607 1.18 1.18 0 0 0 .693.173 2.638 2.638 0 0 0 .65-.087 1.477 1.477 0 0 0 .52-.26 1.168 1.168 0 0 0 .3-.347 1.622 1.622 0 0 0 .087-.519v-.563z" transform="translate(-70.559 -158.726)"/>
    <path id="패스_12365" data-name="패스 12365" class="cls-1" d="m102.838 167.866 1.473-4.5h1.04l-2.945 7.97-.91-.3.736-1.906-2.032-5.73h1.082z" transform="translate(-72.299 -158.769)"/>
    <path id="패스_12366" data-name="패스 12366" d="M63.188 157.269h13v13h-13zm5.412 6.411 2.123 3.076h2.209v-5.978h-2.164v3.076l-2.122-3.076h-2.209v5.978H68.6z" transform="translate(-63.188 -157.269)" style="fill-rule:evenodd;fill:#fff"/>
</svg>
