<svg width="90" height="90" viewBox="0 0 90 90" fill="none" xmlns="http://www.w3.org/2000/svg">
    <g clip-path="url(#j3dc1qcapa)">
        <path d="M45 90c24.853 0 45-20.147 45-45S69.853 0 45 0 0 20.147 0 45s20.147 45 45 45z" fill="#F8F8F8"/>
        <path d="M30 22h21c3.3 0 6 2.7 6 6v28c0 3.3-2.7 6-6 6H30c-3.3 0-6-2.7-6-6V28c0-3.3 2.7-6 6-6z" fill="#fff"/>
        <path d="M30 23h21c2.8 0 5 2.2 5 5v28c0 2.8-2.2 5-5 5H30c-2.8 0-5-2.2-5-5V28c0-2.8 2.2-5 5-5z" stroke="#2D3239" stroke-width="2"/>
        <path d="M36 28h21c3.3 0 6 2.7 6 6v28c0 3.3-2.7 6-6 6H36c-3.3 0-6-2.7-6-6V34c0-3.3 2.7-6 6-6z" fill="#fff"/>
        <path d="M36 29h21c2.8 0 5 2.2 5 5v28c0 2.8-2.2 5-5 5H36c-2.8 0-5-2.2-5-5V34c0-2.8 2.2-5 5-5z" stroke="#2D3239" stroke-width="2"/>
        <path d="M39 40h15c.6 0 1 .4 1 1s-.4 1-1 1H39c-.6 0-1-.4-1-1s.4-1 1-1zM39 46h6c.6 0 1 .4 1 1s-.4 1-1 1h-6c-.6 0-1-.4-1-1s.4-1 1-1z" fill="#2D3239"/>
        <path d="M59 42h4v15h-4V42z" fill="#fff"/>
        <path d="M62 39c.6 0 1 .4 1 1v2c0 .6-.4 1-1 1s-1-.4-1-1v-2c0-.6.4-1 1-1zM53 51a1 1 0 1 0 0-2 1 1 0 0 0 0 2z" fill="#2D3239"/>
        <path d="M59 62a8 8 0 1 0 0-16 8 8 0 0 0 0 16z" fill="#FFD1DC"/>
        <path d="M59 63a9 9 0 1 0 0-18 9 9 0 0 0 0 18z" stroke="#fff" stroke-width="2"/>
        <path d="M63 44h7v4h-7v-4z" fill="#F8F8F8"/>
        <path d="M61.5 62a7.5 7.5 0 1 0 0-15 7.5 7.5 0 0 0 0 15z" stroke="#2D3239" stroke-width="2"/>
        <path d="M64.7 51.3c.4.4.4 1 0 1.4l-4.9 4.9c-.4.4-1 .4-1.4 0-.4-.4-.4-1 0-1.4l4.9-4.9c.4-.4 1-.4 1.4 0z" fill="#2D3239"/>
        <path d="M64.7 57.7c-.4.4-1 .4-1.4 0l-4.9-4.9c-.4-.4-.4-1 0-1.4.4-.4 1-.4 1.4 0l4.9 4.9c.4.4.4 1 0 1.4z" fill="#2D3239"/>
    </g>
    <defs>
        <clipPath id="j3dc1qcapa">
            <path fill="#fff" d="M0 0h90v90H0z"/>
        </clipPath>
    </defs>
</svg>
