<svg width="36" height="36" viewBox="0 0 36 36" fill="none" xmlns="http://www.w3.org/2000/svg">
    <g clip-path="url(#r8hcws4cca)">
        <path d="m5.897 27.736 5.81 1.964s1.063 1.31 5.072-.327 8.673-2.618 8.264-3.437c-.41-.818-.655-2.209-3.6-1.472-2.946.736-3.682.9-3.682.9-.246-.737-.737-1.391-1.391-1.719-1.227-.818-10.882-3.19-10.882-3.19l.41 7.281zM3.688 28.227H2.215c-.9 0-1.636-.736-1.636-1.636v-7.446c0-.49.082-.818.245-.982.164-.163.41-.245.818-.245.573 0 1.228.164 1.882.327 1.555.41 1.8.9 1.8 1.637v6.709c0 .982-.736 1.636-1.636 1.636z" fill="#fff"/>
        <path d="M1.643 18.573c-.246 0-.328.081-.41.081 0 0-.081.164-.081.573v7.445c0 .573.49.982.981.982h1.473c.573 0 .982-.49.982-.982v-6.709c0-.409-.082-.49-.164-.49-.163-.164-.572-.328-1.145-.491-.491-.246-1.146-.41-1.636-.41zm0-1.228c.654 0 1.39.164 2.045.328 1.555.409 2.21.981 2.21 2.209v6.709a2.2 2.2 0 0 1-2.21 2.209H2.215a2.2 2.2 0 0 1-2.209-2.21v-7.445c-.082-1.39.655-1.8 1.637-1.8z" fill="#2D3239"/>
        <path d="m5.242 27.409 6.219 2.21c1.8.817 3.763.817 5.563 0 2.864-1.31 6.791-2.783 7.61-3.192.817-.409.981-1.8-.655-1.963-1.146-.082-2.291 0-3.437.327l-3.518 1.064c-1.063.409-2.29.409-3.354 0a36.929 36.929 0 0 0-3.764-1.064" fill="#fff"/>
        <path d="m5.242 27.409 6.219 2.21c1.8.817 3.763.817 5.563 0 2.864-1.31 6.791-2.783 7.61-3.192.817-.409.981-1.8-.655-1.963-1.146-.082-2.291 0-3.437.327l-3.518 1.064c-1.063.409-2.29.409-3.354 0a36.929 36.929 0 0 0-3.764-1.064" stroke="#2D3239" stroke-width="1.5"/>
        <path d="m5.242 20.618 4.255.737s7.855 1.227 8.264 4.009" fill="#fff"/>
        <path d="m5.242 20.618 4.255.737s7.855 1.227 8.264 4.009" stroke="#2D3239" stroke-width="1.5"/>
        <path d="M19.724 16.2h-6.218l1.146-1.636.081-.164v-3.11c0-2.7 2.21-4.908 4.91-4.908s4.909 2.209 4.909 4.909c.081 2.7-2.128 4.909-4.828 4.909z" fill="#fff"/>
        <path d="M19.724 15.627c2.373 0 4.337-1.964 4.337-4.336 0-2.373-1.964-4.337-4.337-4.337-2.372 0-4.336 1.964-4.336 4.337v3.354l-.655.982h4.991zm0 1.227h-6.627c-.327 0-.49-.409-.327-.654l1.39-1.964v-2.945c0-3.028 2.455-5.564 5.564-5.564 3.028 0 5.564 2.455 5.564 5.564s-2.536 5.563-5.564 5.563z" fill="#2D3239"/>
        <path d="M18.088 17.673h-1.964c-.245 0-.409-.164-.409-.41 0-.081 0-.163.082-.245l.982-1.39v-2.291a4.225 4.225 0 0 1 4.255-4.255 4.225 4.225 0 0 1 4.254 4.255v.081a4.225 4.225 0 0 1-4.255 4.255h-2.945z" fill="#7DEDF3"/>
        <path d="M19.724 15.627c2.373 0 4.337-1.964 4.337-4.336 0-2.373-1.964-4.337-4.337-4.337-2.372 0-4.336 1.964-4.336 4.337v3.354l-.655.982h4.991zm0 1.227h-6.627c-.327 0-.49-.409-.327-.654l1.39-1.964v-2.945c0-3.028 2.455-5.564 5.564-5.564 3.028 0 5.564 2.455 5.564 5.564s-2.536 5.563-5.564 5.563z" fill="#2D3239"/>
        <path d="M18.088 12.355a.818.818 0 1 0 0-1.637.818.818 0 0 0 0 1.637zM21.36 12.355a.818.818 0 1 0 0-1.637.818.818 0 0 0 0 1.637z" fill="#2D3239"/>
    </g>
    <defs>
        <clipPath id="r8hcws4cca">
            <path fill="#fff" d="M0 0h36v36H0z"/>
        </clipPath>
    </defs>
</svg>
