<svg width="44" height="44" viewBox="0 0 44 44" fill="none" xmlns="http://www.w3.org/2000/svg">
    <path d="M27.6 34.6H10.3c-2.4 0-4.3-1.9-4.3-4.3V12.9c0-2.4 1.9-4.3 4.3-4.3h17.3c2.4 0 4.3 1.9 4.3 4.3v17.3c0 2.4-1.9 4.4-4.3 4.4z" stroke="#000" stroke-width="1.5"/>
    <path d="M32.291 33.709a5.5 5.5 0 1 0 0-11 5.5 5.5 0 0 0 0 11z" fill="#7DEDF3"/>
    <path d="M29.991 33.209a5.5 5.5 0 1 0 0-11 5.5 5.5 0 0 0 0 11z" stroke="#2D3239" stroke-width="1.5"/>
    <path d="M32.991 31.674c.283-.283.849-.283 1.132 0l2.616 2.616c.283.283.283.849 0 1.132-.283.283-.849.283-1.132 0l-2.616-2.617c-.283-.282-.283-.848 0-1.13z" fill="#fff"/>
    <path d="M33.345 32.028c.141-.142.282-.142.424 0l2.616 2.616c.142.141.142.283 0 .424-.141.142-.283.142-.424 0l-2.616-2.616c-.071-.07-.142-.283 0-.424z" stroke="#2D3239"/>
    <path d="M14.3 14.9h1.5c.8 0 1.5.7 1.5 1.5v1.5c0 .8-.7 1.5-1.5 1.5h-1.5c-.8 0-1.5-.7-1.5-1.5v-1.5c0-.9.7-1.5 1.5-1.5z" fill="#7DEDF3"/>
    <path d="M12.9 13.8h2c.7 0 1.2.6 1.2 1.2v2c0 .7-.6 1.2-1.2 1.2h-2c-.7.1-1.2-.5-1.2-1.2v-2c0-.7.5-1.2 1.2-1.2zM12.9 23.8h2c.7 0 1.2.6 1.2 1.2v2c0 .7-.6 1.2-1.2 1.2h-2c-.7.1-1.2-.5-1.2-1.2v-2c0-.7.5-1.2 1.2-1.2zM22.9 13.8h2c.7 0 1.3.6 1.3 1.2v2c0 .7-.6 1.2-1.3 1.2h-2c-.7 0-1.2-.6-1.2-1.2v-2c0-.7.5-1.2 1.2-1.2z" stroke="#2D3239" stroke-width="1.5"/>
</svg>
