<svg width="80" height="28" viewBox="0 0 80 28" fill="none" xmlns="http://www.w3.org/2000/svg">
<g clip-path="url(#clip0_711_5687)">
<path d="M20.4095 14.254C18.1195 12.7446 15.1776 13.3613 13.6398 15.6336C12.3527 17.5326 10.397 17.776 9.6448 17.776C7.18763 17.776 5.51609 16.1043 5.01463 14.3676C5.01463 14.3514 4.99791 14.3352 4.99791 14.3189C4.99791 14.3027 4.98119 14.2865 4.98119 14.254C4.78061 13.5236 4.73046 13.1828 4.73046 12.42C4.73046 8.26496 9.1099 3.65551 15.4283 3.65551C21.8972 3.65551 25.608 8.4435 26.5608 11.0891C26.5441 11.0404 26.5274 10.9917 26.5107 10.943C24.672 5.73301 19.5905 2 13.6231 2C6.10113 2 0 7.92412 0 15.2278C0 21.7525 4.84747 27.352 11.5671 27.352C16.9327 27.352 20.5433 24.4305 22.1981 20.4054C23.1007 18.198 22.4655 15.6011 20.4095 14.254Z" fill="#003668"/>
<path d="M26.6444 11.3325C25.842 8.73565 22.1145 3.63928 15.4283 3.63928C9.10991 3.63928 4.73047 8.26497 4.73047 12.4037C4.73047 13.1666 4.78061 13.5236 4.9812 14.2378C4.89762 13.9294 4.86419 13.6048 4.86419 13.2964C4.84748 8.97911 9.31049 5.9927 13.8905 5.9927C20.0919 5.9927 25.1233 10.8781 25.1233 16.8996C25.1233 21.6226 22.3318 25.7127 18.2532 27.6766C23.5019 25.8263 27.2461 20.9572 27.2461 15.2278C27.2461 13.8645 27.0456 12.6797 26.6444 11.3325Z" fill="#E6002D"/>
<path d="M33.6982 10.4236V9.06024H41.2536V10.4236H38.0275L41.3873 14.4001L40.2507 15.3252L37.5261 12.0466L34.8516 15.5524L33.6648 14.6273L37.0246 10.4398H33.6982V10.4236ZM44.1621 18.7661C44.1621 19.2043 44.0785 19.5938 43.8946 19.9833C43.7108 20.3567 43.46 20.6975 43.1592 20.9734C42.8583 21.2656 42.4905 21.4928 42.0727 21.6551C41.6548 21.8174 41.2034 21.8985 40.7354 21.8985C40.2674 21.8985 39.8328 21.8174 39.3982 21.6551C38.9803 21.4928 38.6126 21.2656 38.3117 20.9734C38.0108 20.6813 37.7601 20.3567 37.5762 19.9833C37.3923 19.61 37.3088 19.2043 37.3088 18.7661C37.3088 18.3278 37.3923 17.9383 37.5762 17.5488C37.7601 17.1755 37.9941 16.8346 38.3117 16.5587C38.6126 16.2666 38.9803 16.0393 39.3982 15.877C39.8161 15.7147 40.2674 15.6336 40.7354 15.6336C41.2034 15.6336 41.6548 15.7147 42.0727 15.877C42.4905 16.0393 42.8583 16.2666 43.1592 16.5587C43.46 16.8509 43.7108 17.1755 43.8946 17.5488C44.0785 17.9383 44.1621 18.3278 44.1621 18.7661ZM42.5574 18.7498C42.5574 18.2791 42.3735 17.8572 42.0225 17.5163C41.6548 17.1755 41.2369 16.9969 40.7354 16.9969C40.2507 16.9969 39.8161 17.1755 39.465 17.5163C39.114 17.8572 38.9302 18.2791 38.9302 18.7498C38.9302 19.2367 39.114 19.6425 39.465 19.9833C39.8161 20.3242 40.2507 20.4865 40.7354 20.4865C41.2369 20.4865 41.6715 20.3242 42.0225 19.9833C42.3735 19.6587 42.5574 19.2367 42.5574 18.7498ZM43.6439 15.4875V12.7121H41.1867V11.3325H43.6439V8.70317H45.282V15.4875H43.6439Z" fill="#1E1E1E"/>
<path d="M47.2377 16.7859H59.3396V18.198H54.091V21.4928H52.4529V18.198H47.2209V16.7859H47.2377ZM49.8118 10.5372H56.732V8.91417H58.3534V15.0655H48.1904V8.91417H49.7951V10.5372H49.8118ZM56.7487 11.9006H49.8118V13.6697H56.732V11.9006H56.7487Z" fill="#1E1E1E"/>
<path d="M69.837 21.6551H61.5629V19.8535L66.2933 15.5849C66.3602 15.52 66.4438 15.4388 66.5273 15.3577C67.2294 14.7247 68.2825 13.7509 68.2825 12.5823C68.2825 11.3812 67.6306 9.96915 65.8086 9.96915C64.3543 9.96915 63.3681 10.8781 63.1843 12.3875L63.1341 12.6959L61.5629 12.4686L61.613 12.144C62.1479 8.91417 64.6886 8.57333 65.7417 8.57333C68.2323 8.57333 69.837 10.1802 69.837 12.6796C69.837 14.2702 68.7338 15.3252 67.8479 16.1692L67.6974 16.3153L63.3514 20.2593H69.837V21.6551Z" fill="#1E1E1E"/>
<path d="M79.7493 17.8409H78.2783V9.61208V8.75186H76.8909L70.8065 17.6299V17.8409V18.9771V19.2367H71.0572H76.7906V21.3954V21.6551H77.0414H77.9941H78.2449V21.3954V19.2367H79.7158H79.9666V18.9771V18.0844V17.8247H79.7493V17.8409ZM72.4279 17.8409L76.8074 11.3163V17.8409H72.4279Z" fill="#1E1E1E"/>
</g>
<defs>
<clipPath id="clip0_711_5687">
<rect width="80" height="25.6604" fill="white" transform="translate(0 2)"/>
</clipPath>
</defs>
</svg>
