<svg width="40" height="14" viewBox="0 0 40 14" fill="none" xmlns="http://www.w3.org/2000/svg">
    <path fill="#fff" d="M0 0h40v14H0z"/>
    <g clip-path="url(#pci6htm4la)">
        <path d="M10.205 7.127c-1.145-.755-2.616-.446-3.385.69a2.434 2.434 0 0 1-1.998 1.071 2.385 2.385 0 0 1-2.315-1.704c0-.008-.008-.016-.008-.025 0-.008-.008-.016-.008-.032a2.83 2.83 0 0 1-.126-.917c0-2.078 2.19-4.382 5.35-4.382 3.234 0 5.089 2.394 5.565 3.717l-.025-.074C12.336 2.866 9.795 1 6.812 1 3.05 1 0 3.962 0 7.614c0 3.262 2.424 6.062 5.784 6.062 2.682 0 4.488-1.46 5.315-3.473.451-1.104.134-2.402-.894-3.076z" fill="#003668"/>
        <path d="M13.322 5.666c-.401-1.298-2.265-3.846-5.608-3.846-3.16 0-5.349 2.312-5.349 4.382 0 .381.025.56.126.917a1.816 1.816 0 0 1-.059-.47c-.008-2.16 2.223-3.653 4.513-3.653 3.101 0 5.617 2.443 5.617 5.454 0 2.361-1.396 4.406-3.435 5.388 2.624-.925 4.496-3.36 4.496-6.224 0-.682-.1-1.274-.3-1.948z" fill="#E6002D"/>
        <path d="M16.85 5.212V4.53h3.777v.682h-1.613l1.68 1.988-.569.463-1.362-1.64-1.337 1.753-.593-.462 1.68-2.094h-1.664v-.008zm5.231 4.171c0 .22-.042.414-.134.609a1.683 1.683 0 0 1-.367.495c-.15.146-.335.26-.544.34a1.84 1.84 0 0 1-.668.122c-.234 0-.451-.04-.669-.121a1.607 1.607 0 0 1-.543-.341 1.795 1.795 0 0 1-.368-.495 1.356 1.356 0 0 1-.134-.609c0-.22.042-.414.134-.609a1.55 1.55 0 0 1 .368-.495c.15-.146.334-.26.543-.34.21-.082.435-.122.669-.122.234 0 .46.04.668.122.21.08.393.194.544.34.15.146.276.309.367.495.092.195.134.39.134.609zm-.802-.008a.841.841 0 0 0-.268-.617.911.911 0 0 0-.643-.26c-.242 0-.46.09-.635.26a.841.841 0 0 0-.268.617c0 .243.092.446.268.617.175.17.392.251.635.251a.89.89 0 0 0 .643-.251.815.815 0 0 0 .268-.617zm.543-1.631V6.356h-1.229v-.69h1.23V4.352h.818v3.392h-.819zM23.619 8.393h6.05v.706h-2.623v1.647h-.82V9.1h-2.615v-.706h.008zm1.287-3.124h3.46v-.812h.81v3.076h-5.08V4.457h.802v.812h.008zm3.469.681h-3.469v.885h3.46V5.95h.009zM34.919 10.828h-4.137v-.901l2.365-2.135.117-.113c.35-.317.877-.804.877-1.388 0-.6-.326-1.306-1.237-1.306-.727 0-1.22.454-1.312 1.209l-.025.154-.785-.114.025-.162c.267-1.615 1.537-1.785 2.064-1.785 1.245 0 2.048.803 2.048 2.053 0 .795-.552 1.323-.995 1.745l-.075.073-2.173 1.972h3.243v.697zM39.875 8.92h-.736V4.377h-.694l-3.042 4.439V9.619h2.992v1.209h.728v-1.21h.86V8.912h-.108v.009zm-3.661 0 2.19-3.262v3.263h-2.19z" fill="#1E1E1E"/>
    </g>
    <defs>
        <clipPath id="pci6htm4la">
            <path fill="#fff" transform="translate(0 1)" d="M0 0h40v12.83H0z"/>
        </clipPath>
    </defs>
</svg>
