<svg width="80" height="28" viewBox="0 0 80 28" fill="none" xmlns="http://www.w3.org/2000/svg">
<g clip-path="url(#clip0_711_5663)">
<path d="M45.3048 12.7792H44.582V8.62729V8.05975H41.5751V8.62729H42.3268V22.6364H44.582V14.3325H45.3048V22.6364H47.56V8.05975H45.3048V12.7792Z" fill="#003686"/>
<path d="M61.467 17.8273H55.5689V16.1545H52.4463V16.7221H53.2269V20.9636C53.2269 21.6506 53.7184 22.487 54.7882 22.487H63.809V16.1545H61.467V17.8273ZM61.467 20.9636H55.5689V19.3506H61.467V20.9636Z" fill="#003686"/>
<path d="M58.4311 15.1688V8.41818H56.0892V10.2403H53.2847V8.41818H53.198H50.191V8.98571H50.9717V13.6455C50.9717 14.3325 51.4632 15.1688 52.533 15.1688H58.4311ZM53.2847 11.7636H56.0892V13.6156H53.2847V11.7636Z" fill="#003686"/>
<path d="M70.7479 20.9636V17.3792H67.6543V17.9467H68.4349V20.7545C68.4349 21.4714 68.8975 22.487 69.9673 22.487H80V20.9636H70.7479Z" fill="#003686"/>
<path d="M71.2395 18.4545H73.5814V15.2286H77.6581V16.3636H75.1716V17.887H77.6581V19.4701H80V8.05974H79.9133H76.9064V8.62727H77.687V13.6753H75.374C75.9812 13.0779 76.2992 12.2714 76.2992 11.4351C76.2992 10.3299 75.7499 9.31429 74.7669 8.68701C74.044 8.23896 73.0321 8 72.1069 8C71.1817 8 70.1698 8.20909 69.4469 8.68701C68.4639 9.31429 67.9146 10.3299 67.9146 11.4351C67.9146 12.2714 68.2326 13.0779 68.8398 13.6753H66.9604V15.1987H71.2395V18.4545ZM70.8637 9.7026C71.1817 9.4039 71.6443 9.28442 72.078 9.28442C72.5117 9.28442 72.9743 9.43377 73.2923 9.7026C73.7549 10.0909 73.9862 10.7481 73.9862 11.4351C73.9862 12.1221 73.726 12.7792 73.2923 13.1675C72.9743 13.4662 72.5117 13.5857 72.078 13.5857C71.6443 13.5857 71.1817 13.4364 70.8637 13.1675C70.4011 12.7792 70.1698 12.1221 70.1698 11.4351C70.1408 10.7481 70.4011 10.1208 70.8637 9.7026Z" fill="#003686"/>
<path d="M34 8.98572V9.55325H34.7228V18.4247C34.7228 19.052 35.2143 19.8883 36.2841 19.8883H43.281V18.3649H37.0358V10.5091H40.4764V8.98572H34Z" fill="#003686"/>
<path d="M60.7153 8.05975V8.62729H61.467V10.8377H59.2986V12.3611H61.467V15.3182H63.809V8.05975H63.7222H60.7153Z" fill="#003686"/>
</g>
<g clip-path="url(#clip1_711_5663)">
<path d="M4.54983 22.7111L4.49113 22.6545C4.75531 22.4566 4.93144 22.1172 4.75531 21.8909C4.6379 21.7495 4.46177 21.6929 4.25629 21.8343C3.81598 22.1455 4.49113 22.7111 3.84533 23.1919C3.46373 23.4747 3.14083 23.3616 2.99406 23.1919C2.906 23.1071 2.87664 22.9939 2.84729 22.7677L3.25825 22.4283L3.31696 22.4848C3.08212 22.6828 2.99406 22.9657 3.11148 23.1354C3.19954 23.2485 3.37567 23.2485 3.52244 23.1354C3.90404 22.8525 3.25825 22.3151 3.96275 21.8061C4.28565 21.5798 4.66725 21.6081 4.84338 21.8343C4.96079 21.9758 5.0195 22.1172 5.04886 22.3152L4.54983 22.7111Z" fill="#003686"/>
<path d="M1.90793 21.5798L1.55568 20.901L1.64374 20.8727L1.76116 21.0707L3.19951 20.3919C3.52241 20.2505 3.55176 20.0242 3.4637 19.8545C3.34628 19.6566 3.1408 19.5152 2.78855 19.7131L1.40891 20.3636L1.49697 20.5616L1.40891 20.5899L1.17407 20.1091L1.26213 20.0808L1.3502 20.2788L2.70049 19.6283C3.17016 19.402 3.43435 19.5717 3.58112 19.8545C3.75724 20.2222 3.7866 20.4768 3.31693 20.6748L1.90793 21.3535L1.99599 21.5232L1.90793 21.5798Z" fill="#003686"/>
<path d="M0.557707 18.0162L0.498999 17.8465C0.44029 17.6202 0.557707 17.5071 0.939312 17.4222C1.32092 17.3374 1.46769 17.3656 1.5264 17.6202L1.5851 17.7899L0.557707 18.0162ZM2.78863 18.0444L2.6125 17.2808L2.52444 17.3091L2.58315 17.5353L1.67317 17.7333L1.61446 17.4788C1.55575 17.1959 1.40898 16.8848 0.851249 17.0263C0.234811 17.1677 0.352228 17.5353 0.381582 17.7333L0.587061 18.5535L0.675124 18.5252L0.616416 18.3273L2.64186 17.8747L2.70056 18.0727L2.78863 18.0444Z" fill="#003686"/>
<path d="M0.0880053 14.9899V14.905C0.0880053 14.6788 0.146714 14.5939 0.557673 14.5939C0.968632 14.5939 1.02734 14.6788 1.02734 14.8485V14.9899H0.0880053ZM2.26022 14.7071H2.17215V14.9333L1.17411 14.9616V14.8202C1.17411 14.6505 1.20347 14.5091 1.64378 14.5091C1.93732 14.5091 2.28957 14.5091 2.26022 14.198V13.9717H2.17215C2.17215 14.1697 1.93732 14.1697 1.73184 14.1697C1.26217 14.1697 1.14476 14.3394 1.1154 14.6222C1.02734 14.4242 0.880569 14.2263 0.528318 14.2263C0.0292968 14.2263 0.0292969 14.5656 0.0292969 14.7919L0.0586511 15.499H0.146714V15.301L2.20151 15.2444V15.4424H2.28957L2.26022 14.7071Z" fill="#003686"/>
<path d="M2.26023 12.7556L2.28959 12.5576L0.264145 12.1899L0.234791 12.3879L0.146729 12.3596L0.410916 11.0586L1.11542 11.2V11.2566C0.616396 11.2 0.469625 11.398 0.410916 11.6808L0.381562 11.8222L1.3209 11.9919C1.37961 11.7657 1.26219 11.6243 0.939292 11.5677V11.5111L1.93734 11.7091V11.7657C1.58508 11.7091 1.43831 11.7939 1.40896 12.0202L2.34829 12.2465L2.407 12.0202C2.46571 11.7939 2.37765 11.4828 1.87863 11.3697V11.3131L2.61248 11.4546L2.34829 12.7838L2.26023 12.7556Z" fill="#003686"/>
<path d="M2.87664 10.2101L2.96471 10.0121L1.08604 9.19191L0.997975 9.38989L0.909912 9.36161L1.1741 8.82423L2.84729 9.10706L1.5557 8.03231L1.79054 7.52322L1.8786 7.55151L1.79054 7.74949L3.66921 8.56969L3.75727 8.37171L3.84533 8.39999L3.52244 9.10706L3.43437 9.07878L3.52244 8.8808L1.79054 8.11716L3.40502 9.44646L3.37567 9.50302L1.29152 9.16363L3.02342 9.92726L3.11148 9.701L3.19954 9.72928L2.96471 10.1818L2.87664 10.2101Z" fill="#003686"/>
<path d="M4.4324 7.38181L4.54982 7.21212L2.93534 5.99596L2.81792 6.16565L2.72986 6.10909L3.58113 5.06262L4.13886 5.48686L4.10951 5.54343C3.69855 5.28888 3.46371 5.37373 3.25823 5.62828L3.17017 5.74141L3.93338 6.30707C4.08015 6.13737 4.0508 5.93939 3.78661 5.76969L3.81596 5.71313L4.63788 6.33535L4.60853 6.39192C4.31499 6.16565 4.13886 6.22222 4.02144 6.39192L4.81401 6.98585L4.96078 6.81616C5.10755 6.61818 5.16626 6.33535 4.78465 5.99596L4.81401 5.93939L5.40109 6.39192L4.52046 7.46666L4.4324 7.38181Z" fill="#003686"/>
<path d="M8.18978 2.43231L8.13107 2.46059C7.89624 2.14948 7.54398 1.97978 7.33851 2.1212C6.9569 2.34746 7.25044 2.88483 7.48528 3.25251C7.69076 3.5919 8.07236 4.12928 8.45396 3.90302C8.6888 3.7616 8.6888 3.36564 8.51267 3.05453L8.57138 3.02625L8.89428 3.56362C8.80622 3.67675 8.63009 3.84645 8.45396 3.95958C8.01365 4.21413 7.48528 3.98786 7.13303 3.42221C6.78078 2.85655 6.81013 2.31918 7.22109 2.06463C7.39721 1.97978 7.57334 1.92322 7.80817 1.92322L8.18978 2.43231Z" fill="#003686"/>
<path d="M10.2152 1.89494C10.0977 1.52727 9.89226 0.905044 10.3032 0.791912C10.6848 0.678781 10.9197 1.27272 11.0664 1.6404C11.1838 2.00807 11.3893 2.6303 10.9784 2.74343C10.5674 2.88484 10.3326 2.26262 10.2152 1.89494ZM9.83355 2.00807C10.039 2.6303 10.5087 2.96969 10.9784 2.82828C11.448 2.68686 11.6242 2.12121 11.3893 1.49898C11.1838 0.905044 10.7435 0.56565 10.2739 0.707064C9.77484 0.876761 9.62807 1.41413 9.83355 2.00807Z" fill="#003686"/>
<path d="M12.8278 0.141414L13.6203 0.0848485V0.169697L13.3855 0.19798L13.5323 1.72525C13.5616 2.06465 13.7377 2.17778 13.9726 2.1495C14.2074 2.12121 14.4129 1.9798 14.3542 1.58384L14.2368 0.113131L14.0019 0.141414V0.0565657L14.5009 0V0.0848485L14.2955 0.113131L14.4129 1.55556C14.4716 2.06465 14.2074 2.23434 13.8845 2.26263C13.4736 2.29091 13.2094 2.20606 13.18 1.72525L13.0332 0.226263L12.8278 0.254545V0.141414Z" fill="#003686"/>
<path d="M16.7612 0.197994H16.8493C17.0841 0.226277 17.1428 0.311125 17.1134 0.707085C17.0547 1.10304 16.9667 1.15961 16.7905 1.13133H16.6438L16.7612 0.197994ZM16.7318 2.29092V2.20607L16.497 2.17779L16.6438 1.21618L16.7905 1.24446C16.9667 1.27274 17.1134 1.32931 17.0547 1.72527C17.0254 2.00809 16.9667 2.31921 17.2896 2.37577L17.5244 2.40405V2.31921C17.3189 2.29092 17.3483 2.06466 17.3776 1.86668C17.4363 1.41416 17.2896 1.27274 16.996 1.21618C17.2309 1.18789 17.4363 1.04648 17.495 0.707085C17.5538 0.226277 17.2015 0.197994 16.9667 0.141428L16.2328 0.0565796V0.141428L16.4383 0.169711L16.1741 2.14951L15.9686 2.12123V2.20607L16.7318 2.29092Z" fill="#003686"/>
<path d="M19.0801 2.74345L19.2856 2.8283L19.9901 0.961631L19.9021 0.933348C19.6085 0.820217 19.3737 1.10304 19.2563 1.38587L19.1976 1.35759L19.4617 0.678802L20.9001 1.18789L20.6359 1.86668L20.5772 1.8384C20.6946 1.55557 20.6946 1.18789 20.3717 1.07476L20.2837 1.04648L19.5792 2.91315L19.7846 2.99799L19.7553 3.08284L19.0508 2.8283L19.0801 2.74345Z" fill="#003686"/>
<path d="M23.8649 4.18586C24.1291 3.90303 24.5987 3.42222 24.8923 3.70505C25.2152 3.95959 24.7748 4.46869 24.5107 4.75151C24.2465 5.03434 23.7768 5.51515 23.4833 5.23232C23.1604 4.97778 23.6007 4.46869 23.8649 4.18586ZM23.5713 3.93131C23.131 4.41212 23.0429 4.97778 23.4246 5.28889C23.8062 5.6 24.3639 5.45858 24.8042 4.97778C25.2445 4.49697 25.3326 3.93131 24.951 3.6202C24.5694 3.30909 24.0116 3.4505 23.5713 3.93131Z" fill="#003686"/>
<path d="M26.9764 6.95758L26.9471 6.90101C27.2993 6.5899 27.2993 6.33536 27.0938 6.10909L26.9764 5.96768L26.1545 6.53334C26.3013 6.73132 26.4187 6.84445 26.7709 6.5899L26.8003 6.64647L25.949 7.24041L25.9197 7.18384C26.2719 6.92929 26.2132 6.78788 26.0664 6.5899L25.2739 7.12727L25.3913 7.29697L25.3619 7.35354L24.9216 6.73131L25.0097 6.67475L25.1271 6.84445L26.8003 5.68485L26.6829 5.51515L26.7709 5.45859L27.5929 6.53334L26.9764 6.95758Z" fill="#003686"/>
<path d="M27.1526 10.4364L27.2113 10.6343L29.2074 10.097L29.1487 9.89898L29.2368 9.8707L29.4423 10.5778L29.3542 10.6061L29.2955 10.4081L28.4149 10.6343L28.4442 10.7475L29.4716 10.9737L29.4129 10.7475L29.501 10.7192L29.6477 11.2283L29.5597 11.2566L29.501 11.0303L28.7671 10.8606L27.5636 11.7939L27.593 11.9353L27.5049 11.9636L27.2994 11.3131L27.3875 11.2848L27.4462 11.4828L28.3268 10.804L28.2975 10.6909L27.2994 10.9454L27.3581 11.1434L27.2701 11.1717L27.0646 10.4646L27.1526 10.4364Z" fill="#003686"/>
<path d="M28.8258 13.5758C29.2074 13.5758 29.8825 13.5758 29.9119 13.9717C29.9412 14.3677 29.2661 14.4243 28.8551 14.4243C28.4735 14.4243 27.7984 14.4243 27.769 14.0283C27.7397 13.6323 28.4148 13.5758 28.8258 13.5758ZM28.7964 13.1798C28.1213 13.2081 27.6516 13.5192 27.6516 14C27.681 14.4808 28.1506 14.7919 28.8551 14.7636C29.5303 14.7354 29.9999 14.4243 29.9999 13.9434C29.9706 13.4626 29.4716 13.1798 28.7964 13.1798Z" fill="#003686"/>
<path d="M29.6477 17.0262L29.6184 17.1111C29.5597 17.3374 29.4716 17.3939 29.09 17.3374C28.7084 17.2525 28.6497 17.1677 28.679 16.998L28.7084 16.8566L29.6477 17.0262ZM27.4755 16.8566L27.5636 16.8848L27.6223 16.6586L28.6203 16.8566L28.591 16.998C28.5616 17.1677 28.4735 17.3091 28.0626 17.2242C27.769 17.1677 27.4462 17.1111 27.3874 17.4222L27.3287 17.6485L27.4168 17.6768C27.4462 17.4788 27.681 17.5353 27.8865 17.5636C28.3561 17.6485 28.5029 17.5071 28.591 17.2525C28.6203 17.4788 28.7377 17.6768 29.09 17.7333C29.5597 17.8182 29.6477 17.5071 29.7064 17.2808L29.8532 16.602L29.7651 16.5737L29.7358 16.7717L27.7103 16.404L27.7397 16.206L27.6516 16.1778L27.4755 16.8566Z" fill="#003686"/>
<path d="M27.0351 18.7515L26.9471 18.9495L28.8257 19.7414L28.9138 19.5434L29.0019 19.5717L28.4735 20.7879L27.8277 20.5051L27.857 20.4485C28.3267 20.5899 28.5322 20.4485 28.6496 20.1657L28.7083 20.0242L27.8277 19.6566C27.7396 19.8546 27.8277 20.0242 28.0919 20.1657L28.0625 20.2222L27.1232 19.8263L27.1525 19.7697C27.5048 19.9111 27.6516 19.8263 27.7396 19.6283L26.8297 19.2323L26.7122 19.4303C26.6242 19.6566 26.6242 19.9394 27.0938 20.1939L27.0645 20.2505L26.36 19.9677L26.9177 18.7232L27.0351 18.7515Z" fill="#003686"/>
<path d="M25.9784 22.1455L26.1839 21.8626L26.6829 22.4L25.9784 22.1455ZM25.7436 21.0424L25.4794 21.4101L25.5675 21.4667L25.6849 21.297L26.1252 21.7778L25.8904 22.0889L25.2739 21.8343L25.3913 21.6646L25.3033 21.6081L24.8336 22.2303L24.9217 22.2869L25.0391 22.1455L27.1232 22.9374L27.182 22.8808L25.7436 21.2404L25.8317 21.099L25.7436 21.0424Z" fill="#003686"/>
<path d="M18.4637 15.0465C17.9941 15.103 16.3502 15.1313 16.3502 15.1313C16.5851 15.8384 18.2582 16.1778 19.315 15.301C19.0215 14.4242 18.0528 12.4162 18.0528 12.4162C18.0528 12.4162 18.816 14.9899 18.4637 15.0465Z" fill="#003686"/>
<path d="M23.5714 12.1616C23.5714 12.1616 24.3639 14.7636 24.0117 14.8202C23.542 14.8768 21.8982 14.9051 21.8982 14.9051C22.133 15.6121 23.8062 15.9515 24.863 15.0748C24.5401 14.1414 23.5714 12.1616 23.5714 12.1616Z" fill="#003686"/>
<path d="M8.77685 19.7132C9.95102 21.8061 11.4187 22.8808 13.4148 24.3515C11.771 23.701 9.39329 21.8909 8.71815 20.9576C8.71815 21.8627 8.71815 23.3899 8.71815 26.6707C8.71815 27.0667 7.36785 27.4061 6.95689 27.6606C6.86883 27.7172 7.10366 27.9717 7.10366 27.9717C7.16237 27.9717 8.65944 27.8869 9.7749 27.8869C9.86296 27.0667 10.2152 25.8222 10.5088 24.4081C11.2133 25.5394 12.2113 26.9253 13.3268 28C19.1389 28 21.3111 25.3132 22.8375 23.5031C21.8395 23.7293 17.1722 24.2101 14.7358 21.0425C17.0547 22.0606 19.6086 21.693 21.3111 20.9859C17.2896 20.8445 13.9725 19.5152 13.0332 17.3091C13.8845 18.2707 15.998 19.0909 17.6712 18.7798C16.5264 18.3273 15.3228 17.7051 14.3835 16.9414C13.0919 16.6869 11.5068 16.2909 10.0097 15.4707C9.42265 16.6869 9.01169 18.101 8.77685 19.7132Z" fill="#003686"/>
<path d="M23.2484 11.2566C23.1017 11.002 21.7514 10.9738 20.313 11.0586C20.2837 10.9172 20.225 8.17375 20.1369 7.21213C20.3424 7.24042 20.5185 7.24042 20.6946 7.2687L22.0156 6.39193C19.1976 5.82628 14.6477 9.47476 14.4128 9.67274C12.9158 10.8606 11.5948 12.3313 10.5674 14.198C10.5087 14.2828 10.4794 14.3677 10.4207 14.4525C11.2426 15.0465 12.27 15.5556 13.5028 16.0081C13.3854 15.8384 13.268 15.6687 13.1506 15.4707C12.6222 14.4525 12.5929 13.2364 13.5616 11.794C14.0019 11.4263 14.8238 11.2 15.4402 10.8606C16.6144 9.02224 18.5811 7.52325 19.1389 7.15557C19.2856 7.12729 19.6379 7.15557 20.0195 7.18385C19.9901 7.94749 20.0195 10.2101 19.9901 11.0586C18.9921 11.1434 17.994 11.2566 17.3482 11.3697C17.3482 11.4263 17.407 11.4828 17.495 11.5394V11.5677C16.6144 13.9717 16.5557 14.3111 16.3796 14.8768C16.8199 13.9434 17.2602 13.2364 17.4657 12.5576C17.495 12.9818 17.5244 13.5475 17.6418 14.3111C17.7592 12.8687 17.8766 11.9636 17.7592 11.596C18.904 11.8222 22.1917 11.3697 23.043 11.2283C23.043 11.2566 23.043 11.2566 23.0136 11.2849C22.133 13.6889 22.0743 14.0283 21.8981 14.594C22.3385 13.6606 22.7788 12.9535 22.9843 12.2748C23.0136 12.699 23.043 13.2647 23.1604 14.0283C23.3072 12.4162 23.4539 11.5111 23.2484 11.2566Z" fill="#003686"/>
<path d="M5.60656 10.8889C5.13689 10.9455 4.75528 10.9738 4.66722 11.002C4.28562 11.0586 4.13885 11.5394 4.19755 11.9354L5.10754 16.2344C5.72397 16.1778 7.27975 15.895 8.0136 15.8384C7.95489 15.9798 7.86683 16.4324 7.80812 16.7717C7.92554 17.9313 8.24844 18.8081 8.77681 19.6849C9.01164 18.101 9.4226 16.6869 9.98033 15.4425C8.3365 14.5374 6.75137 13.1515 5.60656 10.8889Z" fill="#C82F8B"/>
<path d="M10.4206 14.4808C10.4793 14.396 10.5087 14.3111 10.5674 14.2263C11.5948 12.3596 12.9157 10.8889 14.4128 9.72931C14.0312 9.78587 13.0038 9.899 12.2699 10.0687C12.1819 9.899 12.1819 9.81415 12.0351 9.33335C12.0351 9.33335 12.4167 9.2485 12.5635 9.16365C12.7983 8.54143 13.1212 7.38183 12.857 6.61819C11.5361 6.64648 11.0077 7.18385 10.0097 7.77779C10.0097 7.77779 10.2151 8.56971 10.7435 9.02223C10.6848 9.44648 10.6848 9.75759 10.5967 10.4647C10.5967 10.4647 9.71612 10.7475 9.2171 10.9737C9.2171 10.9737 8.71808 11.3131 8.24841 11.7374C8.71808 12.8404 9.42258 13.7455 10.4206 14.4808Z" fill="#00A384"/>
<path d="M10.0683 15.1879C10.039 15.2728 9.98028 15.3576 9.95093 15.4425C11.4773 16.2627 13.0331 16.6586 14.3247 16.9132C14.1486 16.7717 14.0018 16.6303 13.855 16.4606C13.7083 16.3192 13.5908 16.1778 13.4734 16.0364C12.2406 15.5839 11.2132 15.1031 10.3912 14.4808C10.3032 14.7071 10.1858 14.9334 10.0683 15.1879Z" fill="#ED6C00"/>
<path d="M9.98034 15.4424C10.0097 15.3576 10.0684 15.2727 10.0978 15.1879C10.2152 14.9333 10.3326 14.7071 10.45 14.4808C9.45197 13.7455 8.71811 12.8404 8.2778 11.7374C8.10168 11.1717 7.9549 10.6626 7.9549 10.6626C7.9549 10.6626 6.57526 10.804 5.60657 10.9172C6.75138 13.1515 8.33651 14.5374 9.98034 15.4424Z" fill="#F6AC19"/>
</g>
<defs>
<clipPath id="clip0_711_5663">
<rect width="46" height="14.6364" fill="white" transform="translate(34 8)"/>
</clipPath>
<clipPath id="clip1_711_5663">
<rect width="30" height="28" fill="white"/>
</clipPath>
</defs>
</svg>
