<svg width="40" height="14" viewBox="0 0 40 14" fill="none" xmlns="http://www.w3.org/2000/svg">
    <path fill="#fff" d="M0 0h40v14H0z"/>
    <g clip-path="url(#z4htpyqana)" fill="#003686">
        <path d="M22.652 6.39h-.36V4.03h-1.504v.284h.375v7.004h1.128V7.166h.361v4.152h1.128V4.03h-1.128v2.36zM30.733 8.914h-2.949v-.837h-1.56v.284h.39v2.12c0 .344.245.763.78.763h4.51V8.077h-1.17v.837zm0 1.568h-2.949v-.807h2.95v.807zM29.215 7.584V4.21h-1.17v.911h-1.403v-.911H25.096v.284h.39v2.33c0 .343.245.761.78.761h2.95zm-2.573-1.702h1.402v.926h-1.402v-.926zM35.374 10.482V8.69h-1.547v.283h.39v1.404c0 .359.232.867.767.867H40v-.762h-4.626z"/>
        <path d="M35.62 9.227h1.17V7.614h2.04v.568h-1.244v.762h1.243v.791H40V4.03h-1.547v.284h.39v2.524h-1.156c.304-.299.463-.702.463-1.12 0-.553-.275-1.06-.767-1.374-.361-.225-.867-.344-1.33-.344-.462 0-.968.105-1.33.344a1.614 1.614 0 0 0-.766 1.374c0 .418.16.821.463 1.12h-.94v.761h2.14v1.628zm-.188-4.376c.159-.149.39-.209.607-.209a.97.97 0 0 1 .607.21c.231.193.347.522.347.866 0 .343-.13.672-.347.866-.159.15-.39.209-.607.209a.97.97 0 0 1-.607-.21c-.232-.193-.347-.522-.347-.865a1.095 1.095 0 0 1 .347-.867zM17 4.493v.284h.361v4.435c0 .314.246.732.781.732h3.498v-.761h-3.122V5.255h1.72v-.762H17zM30.358 4.03v.284h.375v1.105H29.65v.761h1.084V7.66h1.171v-3.63H30.358z"/>
    </g>
    <g clip-path="url(#mxfzhsu9nb)">
        <path d="m2.275 11.356-.03-.029c.133-.099.22-.268.133-.382-.06-.07-.147-.098-.25-.028-.22.156.117.439-.205.679-.191.141-.353.085-.426 0-.044-.042-.059-.099-.073-.212l.205-.17.03.028c-.118.1-.162.24-.103.326.044.056.132.056.205 0 .191-.142-.132-.41.22-.665.162-.113.353-.099.44.014a.45.45 0 0 1 .103.24l-.25.199zM.954 10.79l-.176-.34.044-.014.059.1.719-.34c.161-.07.176-.184.132-.269-.059-.099-.161-.17-.338-.07l-.69.325.045.099-.044.014-.118-.24.044-.015.044.1.675-.326c.235-.113.367-.028.44.113.089.184.103.311-.131.41l-.705.34.044.085-.044.028zM.279 9.008l-.03-.085c-.029-.113.03-.17.22-.212.191-.042.265-.028.294.1l.03.084-.514.113zm1.115.014-.088-.382-.044.015.03.113-.456.099-.029-.128c-.03-.14-.103-.296-.381-.226-.309.07-.25.255-.235.354l.102.41.044-.014-.029-.1 1.013-.226.03.1.043-.015zM.044 7.495v-.042c0-.114.03-.156.235-.156s.235.042.235.127v.07h-.47zm1.086-.141h-.044v.113l-.499.014v-.07c0-.086.015-.156.235-.156.147 0 .323 0 .308-.156v-.113h-.044c0 .099-.117.099-.22.099-.235 0-.294.085-.308.226-.044-.099-.118-.198-.294-.198-.25 0-.25.17-.25.283l.015.353h.044V7.65l1.028-.028v.1h.044l-.015-.368zM1.13 6.378l.015-.1-1.013-.183-.015.099-.044-.014.132-.65.353.07v.028C.308 5.6.235 5.7.205 5.84l-.014.071.47.085C.69 5.883.63 5.812.47 5.784v-.028l.499.099v.028c-.177-.028-.25.014-.265.127l.47.113.03-.113c.029-.113-.015-.269-.265-.325v-.028l.367.07-.132.665-.044-.014zM1.438 5.105l.044-.099-.939-.41-.044.1-.044-.015.132-.269.837.142-.646-.538.117-.254.044.014-.044.099.94.41.044-.099.044.014-.162.354-.044-.014.044-.1-.866-.381.808.664-.015.029-1.042-.17.866.382.044-.113.044.014-.118.226-.044.014zM2.216 3.69l.059-.084-.807-.608-.059.085-.044-.029.426-.523.278.212-.014.029c-.206-.128-.323-.085-.426.042l-.044.057.382.282c.073-.084.058-.183-.074-.268l.015-.028.411.31-.015.029c-.146-.113-.235-.085-.293 0l.396.297.073-.085c.074-.099.103-.24-.088-.41l.015-.028.294.226-.44.537-.045-.042zM4.095 1.216l-.03.014c-.117-.155-.293-.24-.396-.17-.19.114-.044.382.074.566.102.17.293.439.484.326.117-.071.117-.27.03-.425l.029-.014.161.269a.99.99 0 0 1-.22.198c-.22.127-.484.014-.66-.269-.177-.283-.162-.551.044-.679a.64.64 0 0 1 .293-.07l.19.254zM5.108.948c-.06-.184-.162-.495.044-.552.19-.057.308.24.381.424.059.184.162.495-.044.552-.205.07-.323-.24-.381-.424zm-.191.056c.103.311.337.48.572.41.235-.07.323-.353.206-.664-.103-.297-.323-.467-.558-.396-.25.084-.323.353-.22.65zM6.414.07 6.81.043v.043l-.117.014.073.764c.015.17.103.226.22.212.118-.014.22-.085.191-.283L7.118.057 7.001.07V.028L7.25 0v.042l-.103.015.058.72c.03.255-.102.34-.264.354-.205.014-.337-.028-.352-.268l-.073-.75-.103.014V.071zM8.38.099h.045c.117.014.146.057.132.255-.03.198-.074.226-.162.212h-.073L8.38.099zm-.014 1.046v-.042l-.117-.014.073-.48.073.013c.088.014.162.043.132.24-.014.142-.044.298.118.326l.117.014V1.16c-.102-.015-.088-.128-.073-.227.03-.226-.044-.297-.19-.325.116-.014.22-.085.249-.254C8.777.114 8.6.099 8.483.07L8.116.028v.043l.103.014-.132.99-.103-.014v.042l.382.042zM9.54 1.372l.103.042.352-.933-.044-.014C9.804.41 9.687.55 9.628.693l-.03-.014.133-.34.719.255-.132.34-.03-.015c.06-.141.06-.325-.102-.382l-.044-.014-.352.934.102.042-.014.042-.353-.127.015-.042zM11.932 2.093c.133-.141.367-.382.514-.24.162.127-.059.381-.19.523-.133.141-.367.382-.514.24-.162-.127.058-.382.19-.523zm-.146-.127c-.22.24-.264.523-.074.679.191.155.47.084.69-.156.22-.24.264-.523.074-.679-.191-.155-.47-.085-.69.156zM13.488 3.479l-.014-.029c.176-.155.176-.282.073-.396l-.059-.07-.41.283c.073.099.132.155.308.028l.014.028-.425.297-.015-.028c.176-.127.147-.198.073-.297l-.396.269.059.084-.015.029-.22-.311.044-.029.059.085.836-.58-.058-.084.044-.029.41.538-.308.212zM13.576 5.218l.03.1.998-.27-.03-.099.044-.014.103.354-.044.014-.03-.099-.44.113.015.057.514.113-.03-.113.044-.014.074.254-.044.014-.03-.113-.367-.085-.601.467.014.07-.044.015-.102-.325.044-.015.029.1.44-.34-.014-.057-.5.128.03.099-.044.014-.103-.354.044-.014zM14.413 6.788c.19 0 .528 0 .543.198.014.198-.323.226-.529.226-.19 0-.528 0-.543-.198-.014-.198.323-.226.529-.226zm-.015-.198c-.338.014-.572.17-.572.41.014.24.25.396.601.382.338-.014.573-.17.573-.41-.015-.24-.264-.382-.602-.382zM14.824 8.513l-.015.043c-.03.113-.073.141-.264.113-.19-.043-.22-.085-.206-.17l.015-.07.47.084zm-1.086-.085.044.014.03-.113.498.1-.015.07c-.014.085-.058.156-.264.113-.147-.028-.308-.056-.337.1l-.03.112.044.014c.015-.099.132-.07.235-.056.235.042.308-.028.352-.156.015.113.074.212.25.24.235.043.279-.112.308-.226l.074-.339-.044-.014-.015.099-1.013-.184.015-.099-.044-.014-.088.34zM13.518 9.376l-.045.099.94.396.044-.1.044.015-.264.608-.323-.142.014-.028c.235.07.338 0 .397-.141l.03-.07-.441-.185c-.044.1 0 .184.132.255l-.015.028-.47-.198.015-.028c.176.07.25.028.294-.07l-.455-.199-.059.1c-.044.112-.044.254.19.38l-.014.03-.352-.142.279-.622.059.014zM12.99 11.073l.102-.142.25.269-.353-.127zm-.118-.552-.132.184.044.028.058-.085.22.24-.117.156-.308-.127.059-.085-.044-.028-.235.311.044.028.059-.07 1.042.396.029-.029-.72-.82.045-.07-.044-.029zM9.232 7.523c-.235.028-1.057.043-1.057.043.117.353.954.523 1.482.084-.146-.438-.63-1.442-.63-1.442s.38 1.287.205 1.315zM11.786 6.08s.396 1.302.22 1.33c-.235.028-1.057.043-1.057.043.117.353.954.523 1.482.084-.161-.466-.645-1.456-.645-1.456zM4.388 9.857c.587 1.046 1.321 1.583 2.32 2.319-.823-.325-2.011-1.23-2.349-1.697v2.856c0 .198-.675.368-.88.495-.045.029.073.156.073.156.03 0 .778-.043 1.335-.043.044-.41.22-1.032.367-1.739.353.566.852 1.259 1.41 1.796 2.905 0 3.992-1.343 4.755-2.248-.5.113-2.833.353-4.051-1.23 1.16.508 2.436.325 3.287-.03-2.01-.07-3.669-.734-4.138-1.837.425.48 1.482.89 2.319.735-.573-.226-1.175-.537-1.644-.92-.646-.127-1.439-.325-2.187-.735-.294.608-.5 1.315-.617 2.122z" fill="#003686"/>
        <path d="M11.624 5.628c-.073-.127-.748-.141-1.468-.099-.014-.07-.044-1.442-.088-1.923.103.014.191.014.28.028l.66-.438c-1.41-.283-3.684 1.541-3.802 1.64A7.44 7.44 0 0 0 5.284 7.1c-.03.042-.044.085-.074.127.411.297.925.552 1.541.778-.058-.085-.117-.17-.176-.269-.264-.509-.279-1.117.206-1.838.22-.184.63-.297.939-.467.587-.919 1.57-1.668 1.85-1.852.073-.014.249 0 .44.014-.015.382 0 1.513-.015 1.937-.5.043-.998.1-1.321.156 0 .028.03.056.073.085v.014c-.44 1.202-.47 1.372-.557 1.654.22-.466.44-.82.543-1.16.014.213.03.496.088.878.058-.722.117-1.174.058-1.358.573.113 2.217-.113 2.642-.184 0 .014 0 .014-.014.028-.44 1.202-.47 1.372-.558 1.655.22-.467.44-.82.543-1.16.015.213.03.495.088.877.073-.806.147-1.258.044-1.386z" fill="#003686"/>
        <path d="M2.803 5.445c-.235.028-.425.042-.47.056-.19.028-.264.269-.234.467l.455 2.15c.308-.029 1.086-.17 1.453-.199a3.5 3.5 0 0 0-.103.467c.059.58.22 1.018.484 1.457A8.061 8.061 0 0 1 4.99 7.72a5.204 5.204 0 0 1-2.187-2.276z" fill="#C82F8B"/>
        <path d="M5.21 7.24c.03-.042.044-.084.074-.127a7.217 7.217 0 0 1 1.922-2.248c-.19.028-.704.084-1.071.17-.044-.086-.044-.128-.117-.368 0 0 .19-.043.264-.085.117-.311.279-.891.147-1.273-.66.014-.925.283-1.424.58 0 0 .103.396.367.622-.03.212-.03.368-.074.721 0 0-.44.142-.69.255 0 0-.249.17-.484.382A3.236 3.236 0 0 0 5.21 7.24z" fill="#00A384"/>
        <path d="M5.034 7.594c-.014.042-.044.085-.058.127.763.41 1.54.608 2.186.736a1.745 1.745 0 0 1-.234-.227c-.074-.07-.132-.141-.191-.212-.617-.226-1.13-.466-1.541-.778-.044.114-.103.227-.162.354z" fill="#ED6C00"/>
        <path d="M4.99 7.721c.015-.042.044-.085.059-.127.059-.127.117-.24.176-.354-.5-.367-.866-.82-1.086-1.371-.088-.283-.162-.538-.162-.538s-.69.071-1.174.128A5.241 5.241 0 0 0 4.99 7.72z" fill="#F6AC19"/>
    </g>
    <defs>
        <clipPath id="z4htpyqana">
            <path fill="#fff" transform="translate(17 4)" d="M0 0h23v7.318H0z"/>
        </clipPath>
        <clipPath id="mxfzhsu9nb">
            <path fill="#fff" d="M0 0h15v14H0z"/>
        </clipPath>
    </defs>
</svg>
